<svg width="20" height="20" viewBox="0 0 20 20" fill="none" xmlns="http://www.w3.org/2000/svg">
<g clip-path="url(#clip0_2641_3123)">
<path d="M18.125 8.75001C18.125 8.25273 17.9275 7.77581 17.5758 7.42418C17.2242 7.07255 16.7473 6.87501 16.25 6.87501H10.625V6.17188C11.1615 6.03254 11.6365 5.7192 11.9758 5.28094C12.3151 4.84268 12.4995 4.30426 12.5 3.75001C12.5 1.56251 10.4344 0.163291 10.3469 0.104697C10.2442 0.0361724 10.1235 -0.000396729 10 -0.000396729C9.87653 -0.000396729 9.75583 0.0361724 9.65312 0.104697C9.56562 0.163291 7.5 1.56251 7.5 3.75001C7.50052 4.30426 7.68487 4.84268 8.02417 5.28094C8.36347 5.7192 8.83855 6.03254 9.375 6.17188V6.87501H3.75C3.25272 6.87501 2.77581 7.07255 2.42417 7.42418C2.07254 7.77581 1.875 8.25273 1.875 8.75001V10.5727C1.87564 11.2545 2.09468 11.9182 2.5 12.4664V15.625C2.5 16.1223 2.69754 16.5992 3.04917 16.9508C3.40081 17.3025 3.87772 17.5 4.375 17.5H15.625C16.1223 17.5 16.5992 17.3025 16.9508 16.9508C17.3025 16.5992 17.5 16.1223 17.5 15.625V12.4664C17.9053 11.9182 18.1244 11.2545 18.125 10.5727V8.75001ZM8.75 3.75001C8.75 2.68985 9.53125 1.83907 10 1.42267C10.4688 1.83907 11.25 2.68985 11.25 3.75001C11.25 4.08153 11.1183 4.39947 10.8839 4.63389C10.6495 4.86831 10.3315 5.00001 10 5.00001C9.66848 5.00001 9.35054 4.86831 9.11612 4.63389C8.8817 4.39947 8.75 4.08153 8.75 3.75001ZM3.125 8.75001C3.125 8.58425 3.19085 8.42528 3.30806 8.30807C3.42527 8.19086 3.58424 8.12501 3.75 8.12501H16.25C16.4158 8.12501 16.5747 8.19086 16.6919 8.30807C16.8092 8.42528 16.875 8.58425 16.875 8.75001V10.5727C16.875 11.6078 16.0578 12.4719 15.0531 12.4992C14.8025 12.5063 14.5531 12.4631 14.3194 12.3721C14.0858 12.2811 13.8729 12.1442 13.6931 11.9695C13.5133 11.7947 13.3704 11.5857 13.2729 11.3548C13.1753 11.1239 13.125 10.8757 13.125 10.625C13.125 10.4592 13.0592 10.3003 12.9419 10.1831C12.8247 10.0659 12.6658 10 12.5 10C12.3342 10 12.1753 10.0659 12.0581 10.1831C11.9408 10.3003 11.875 10.4592 11.875 10.625C11.875 11.1223 11.6775 11.5992 11.3258 11.9508C10.9742 12.3025 10.4973 12.5 10 12.5C9.50272 12.5 9.02581 12.3025 8.67417 11.9508C8.32254 11.5992 8.125 11.1223 8.125 10.625C8.125 10.4592 8.05915 10.3003 7.94194 10.1831C7.82473 10.0659 7.66576 10 7.5 10C7.33424 10 7.17527 10.0659 7.05806 10.1831C6.94085 10.3003 6.875 10.4592 6.875 10.625C6.8751 10.8758 6.8249 11.124 6.72737 11.355C6.62983 11.586 6.48695 11.7952 6.30718 11.97C6.1274 12.1448 5.91438 12.2818 5.68073 12.3728C5.44708 12.4639 5.19754 12.5071 4.94688 12.5C3.94219 12.4719 3.125 11.6078 3.125 10.5727V8.75001ZM15.625 16.25H4.375C4.20924 16.25 4.05027 16.1842 3.93306 16.067C3.81585 15.9497 3.75 15.7908 3.75 15.625V13.4813C4.11585 13.647 4.51101 13.7384 4.9125 13.75C5.3302 13.763 5.74621 13.6914 6.13555 13.5396C6.52488 13.3877 6.87951 13.1588 7.17812 12.8664C7.29472 12.7528 7.40233 12.6303 7.5 12.5C7.79108 12.8881 8.16853 13.2031 8.60246 13.4201C9.03638 13.6371 9.51486 13.75 10 13.75C10.4851 13.75 10.9636 13.6371 11.3975 13.4201C11.8315 13.2031 12.2089 12.8881 12.5 12.5C12.598 12.6298 12.7059 12.7517 12.8227 12.8649C13.4041 13.4343 14.1862 13.7523 15 13.75C15.0297 13.75 15.0594 13.75 15.0891 13.75C15.49 13.7382 15.8846 13.6468 16.25 13.4813V15.625C16.25 15.7908 16.1842 15.9497 16.0669 16.067C15.9497 16.1842 15.7908 16.25 15.625 16.25Z" fill="black"/>
</g>
<defs>
<clipPath id="clip0_2641_3123">
<rect width="20" height="20" fill="white"/>
</clipPath>
</defs>
</svg>
