<svg width="13" height="14" viewBox="0 0 13 14" fill="none" xmlns="http://www.w3.org/2000/svg">
<path d="M12.875 5.40625C12.875 5.54715 12.819 5.68227 12.7194 5.7819C12.6198 5.88153 12.4846 5.9375 12.3438 5.9375C12.2029 5.9375 12.0677 5.88153 11.9681 5.7819C11.8685 5.68227 11.8125 5.54715 11.8125 5.40625V2.43922L7.40777 6.84461C7.30809 6.94429 7.17289 7.0003 7.03191 7.0003C6.89094 7.0003 6.75574 6.94429 6.65605 6.84461C6.55637 6.74493 6.50037 6.60972 6.50037 6.46875C6.50037 6.32778 6.55637 6.19257 6.65605 6.09289L11.0608 1.6875H8.09375C7.95285 1.6875 7.81773 1.63153 7.7181 1.5319C7.61847 1.43227 7.5625 1.29715 7.5625 1.15625C7.5625 1.01535 7.61847 0.880228 7.7181 0.7806C7.81773 0.680971 7.95285 0.625 8.09375 0.625H12.3438C12.4846 0.625 12.6198 0.680971 12.7194 0.7806C12.819 0.880228 12.875 1.01535 12.875 1.15625V5.40625ZM10.2188 7C10.0779 7 9.94273 7.05597 9.8431 7.1556C9.74347 7.25523 9.6875 7.39035 9.6875 7.53125V12.3125H1.1875V3.8125H5.96875C6.10965 3.8125 6.24477 3.75653 6.3444 3.6569C6.44403 3.55727 6.5 3.42215 6.5 3.28125C6.5 3.14035 6.44403 3.00523 6.3444 2.9056C6.24477 2.80597 6.10965 2.75 5.96875 2.75H1.1875C0.905707 2.75 0.635456 2.86194 0.436199 3.0612C0.236942 3.26046 0.125 3.53071 0.125 3.8125V12.3125C0.125 12.5943 0.236942 12.8645 0.436199 13.0638C0.635456 13.2631 0.905707 13.375 1.1875 13.375H9.6875C9.96929 13.375 10.2395 13.2631 10.4388 13.0638C10.6381 12.8645 10.75 12.5943 10.75 12.3125V7.53125C10.75 7.39035 10.694 7.25523 10.5944 7.1556C10.4948 7.05597 10.3596 7 10.2188 7Z" fill="white"/>
</svg>
