<svg viewBox="0 0 423 186" fill="none" xmlns="http://www.w3.org/2000/svg">
<path d="M219.171 82.3937C218.575 81.7977 211.125 74.199 206.357 73.901C206.059 73.901 205.612 73.901 205.314 73.752C204.867 73.752 204.42 73.603 203.973 73.603C203.079 73.603 202.036 73.752 201.142 75.093C201.142 75.242 201.142 75.242 201.142 75.391L202.185 77.4769L202.036 77.6259C201.887 77.6259 201.887 77.6259 201.887 77.7749C201.887 77.7749 201.887 77.7749 202.036 77.7749C202.036 77.7749 202.036 77.7749 202.185 77.7749L202.334 77.9239C202.334 78.0729 202.334 78.0729 202.483 78.2219C202.483 78.2219 202.483 78.3709 202.483 78.5198C202.334 78.8178 202.334 78.9668 202.185 79.2648C202.185 79.2648 202.185 79.4138 202.036 79.4138C199.503 81.2017 198.163 86.2675 197.12 90.2904C196.822 91.4824 196.226 92.9723 195.779 94.1643H195.928C197.269 92.9723 198.61 92.2273 200.099 92.2273C200.546 92.2273 200.844 92.2273 201.291 92.3763C205.612 93.2703 209.486 99.0811 211.125 102.657C216.042 102.508 220.81 102.061 223.641 101.465C224.684 101.316 225.578 101.316 226.62 101.167C225.578 92.9723 223.194 87.0125 219.171 82.3937ZM216.489 120.536C216.638 122.026 216.638 123.069 216.638 124.112C216.638 124.112 216.638 124.112 216.638 124.261C216.787 125.006 216.936 126.049 217.085 126.943C220.661 123.367 224.684 119.642 225.578 116.513C225.578 116.364 225.578 116.215 225.578 116.066C222.896 116.662 219.469 117.258 216.489 117.854C216.34 118.748 216.489 119.642 216.489 120.536ZM122.473 103.7C122.92 103.104 123.367 102.657 123.814 102.061C124.112 101.614 124.41 101.316 124.708 100.869V100.72C124.112 93.8663 123.367 91.6314 119.94 88.5025C119.642 88.9495 119.195 89.5454 118.749 90.2904C118.6 90.4394 118.451 90.5884 118.451 90.7374C118.004 91.3334 117.706 91.6314 117.408 91.9293C117.11 92.3763 116.812 92.5253 116.365 93.2703C115.62 93.7173 115.173 94.1643 114.428 94.7602L114.13 95.0582C113.683 95.5052 113.385 95.8032 112.342 96.5482C111.597 97.1441 109.809 98.4851 108.319 98.9321C108.319 98.9321 108.021 99.0811 107.723 99.0811C106.084 99.6771 101.614 101.316 99.9752 101.316C99.8262 101.316 99.6772 101.316 99.5282 101.316C99.0812 101.167 98.6343 101.167 98.1873 101.018C97.7403 101.018 97.2933 100.869 96.8463 100.72L96.5483 100.571C95.2074 100.124 94.1644 99.975 92.8235 98.9321C92.6745 98.7831 92.5255 98.7831 92.5255 98.7831C92.3765 98.6341 92.0785 98.6341 91.3335 98.0381C90.1416 97.1441 87.1617 94.0153 85.8207 92.3763C85.3738 91.7803 84.7778 91.0354 84.1818 90.4394C83.8838 90.1414 83.5858 89.8434 83.2878 89.5454C82.9898 89.2474 82.8408 88.9495 82.6919 88.6515C82.5429 88.3535 82.3939 88.0555 81.7979 87.6085C81.4999 87.3105 81.2019 86.8635 80.9039 86.2676C80.6059 85.6716 80.3079 85.0756 79.712 84.6286V84.7776V84.9266V85.0756H79.861L80.01 85.2246C80.159 85.3736 80.159 85.8206 80.3079 85.9696V86.1186C80.3079 86.2676 80.3079 86.4165 80.159 86.4165H80.01C80.01 86.4165 80.01 86.4165 79.861 86.4165C79.265 86.1186 78.669 85.8206 78.222 85.3736C77.3281 84.7776 76.5831 84.3306 75.5401 84.1816C75.3911 84.1816 75.3911 84.1816 75.3911 84.1816C74.6462 83.8836 74.1992 83.7347 73.6032 83.7347C73.3052 83.7347 73.0072 83.7347 72.7092 83.8836C70.7723 86.1186 68.8354 88.5025 67.1964 90.8864L66.4515 91.7803C66.1535 92.0783 66.0045 92.3763 65.7065 92.8233C65.7065 92.8233 65.7065 92.9723 65.5575 92.9723C66.6005 93.7173 67.1964 94.4622 68.3884 96.1012C68.5374 96.2502 68.6864 96.5482 68.9844 96.8462C70.0273 98.3361 71.8153 100.72 72.8582 101.763C73.3052 102.21 73.7522 102.657 74.1992 103.104C76.5831 105.637 78.818 107.872 81.6489 110.256C81.7979 110.256 81.7979 110.405 82.2449 110.703C82.6919 111.15 85.3738 112.789 86.1187 113.087C86.5657 113.236 87.6087 113.981 88.3536 114.427C88.6516 114.576 88.9496 114.874 88.9496 114.874C92.3765 115.768 95.2074 116.066 97.8893 116.066C100.571 116.066 103.253 115.768 106.68 114.874C106.68 114.874 106.978 114.725 107.276 114.576C108.17 114.13 109.511 113.385 110.256 113.087C111.746 112.342 115.322 110.554 117.259 108.468C117.706 108.17 118.004 107.872 118.302 107.425H118.451C118.6 107.425 119.047 106.978 119.196 106.68C119.344 106.382 120.089 105.637 120.685 105.041C120.834 104.892 120.834 104.892 120.834 104.892C121.132 104.445 121.43 103.998 121.728 103.7C122.324 103.998 122.324 103.849 122.473 103.7ZM170.897 93.4193C170.301 94.0153 169.109 94.7602 168.513 95.2072C168.215 95.3562 168.066 95.5052 167.917 95.6542C167.47 96.2502 166.874 96.6972 166.278 97.1442C165.831 97.4421 165.384 97.7401 164.937 98.1871C164.639 98.1871 164.043 98.4851 162.553 99.5281L162.404 99.6771C162.255 99.826 161.957 99.975 161.659 100.273C161.063 100.72 160.318 101.465 160.02 101.763C159.871 101.912 159.424 102.061 158.828 102.508C158.53 102.657 158.232 102.806 158.083 102.955C157.636 103.253 157.338 103.402 157.04 103.849C156.146 104.296 155.103 104.892 154.209 105.488H154.06C153.464 105.786 153.017 106.233 152.421 106.382C151.825 106.68 151.229 107.127 150.782 107.574C150.037 108.17 149.292 108.766 148.249 109.064C148.1 109.064 147.951 109.213 147.802 109.362L147.653 109.511C147.057 109.809 146.461 110.107 146.015 110.554C145.866 110.703 144.823 111.299 144.674 111.299C144.227 111.299 139.161 114.428 138.714 114.726C138.714 114.726 138.714 114.726 138.565 114.726C138.416 114.874 138.118 114.874 137.522 115.172C137.075 115.321 136.628 115.47 136.33 115.619C136.181 115.768 135.883 115.768 135.734 115.917C135.436 116.066 135.138 116.215 134.84 116.364C134.393 116.662 134.095 116.811 133.648 116.811H133.499H133.35C133.35 116.811 133.35 116.811 133.201 116.811C132.605 116.96 131.86 117.109 131.115 117.109C129.476 117.109 127.688 116.662 126.347 115.768C125.304 115.172 123.963 113.981 123.516 112.044C123.516 112.044 123.516 111.895 123.367 111.895C123.218 111.895 123.218 111.895 123.069 111.895H122.92C122.92 111.895 122.92 111.895 122.771 111.895C122.175 112.491 122.026 113.683 122.175 115.47C121.877 118.897 123.963 124.708 123.963 124.857C124.559 126.943 125.751 128.582 127.092 129.774C127.39 130.072 127.688 130.221 127.986 130.37C128.284 130.519 128.433 130.668 128.582 130.817C128.731 130.966 129.625 131.115 129.923 131.115C130.072 131.115 130.221 131.115 130.221 131.115C130.519 131.115 130.817 131.264 131.115 131.264C131.264 131.264 131.413 131.264 131.562 131.264C131.711 131.264 132.009 131.264 132.307 131.115C132.605 131.115 132.903 130.966 133.201 130.966C133.35 130.966 133.35 130.966 133.499 130.966C133.797 130.966 134.84 130.668 135.436 130.37C136.479 130.072 136.926 129.923 137.075 129.923C137.075 129.923 137.224 129.774 137.373 129.774C137.671 129.625 138.118 129.327 138.416 129.327C138.714 129.327 139.757 128.88 140.353 128.582C140.651 128.433 140.8 128.433 140.949 128.284C141.396 127.986 141.843 127.837 142.29 127.688C143.035 127.39 143.929 126.943 144.674 126.496C146.163 125.602 147.802 124.708 149.292 123.963C151.378 122.771 153.464 121.728 155.55 120.387C156.444 119.791 157.189 119.046 158.083 118.301C159.126 117.258 160.169 116.364 161.51 115.768C163.149 114.428 165.086 112.938 167.023 111.597C169.109 109.809 171.493 107.574 173.429 104.743C174.025 104.147 174.323 103.402 174.621 102.657C175.217 98.9321 173.28 95.6542 170.897 92.6743C171.195 93.2703 171.046 93.2703 170.897 93.4193ZM387.832 98.9321C387.534 99.2301 386.64 99.826 386.342 100.422C384.704 101.316 382.767 101.912 380.681 102.061C377.105 101.167 373.529 99.3791 371.89 96.2502C371.294 95.3562 371.294 94.3133 371.443 93.1213C370.4 96.1012 366.228 99.8261 363.397 107.574C363.844 108.17 363.993 108.766 364.142 109.511L364.291 109.809C364.291 109.958 364.44 109.958 364.44 110.107C364.589 110.256 364.738 110.554 364.738 110.852V111.001C364.887 111.448 365.185 111.746 365.483 111.895C365.483 112.342 365.93 112.938 366.824 113.832C366.973 113.981 367.122 114.13 367.122 114.279C368.165 115.47 369.506 116.513 370.996 117.258C371.294 117.407 371.592 117.556 372.039 117.705C373.827 118.45 375.764 118.152 377.701 117.556C379.191 117.109 380.532 116.215 381.724 115.47C382.767 114.874 383.661 114.279 384.555 113.534C384.555 113.534 384.555 113.534 384.555 113.385C384.704 113.236 384.853 112.938 385.002 112.789L385.151 112.64C385.151 112.64 385.151 112.64 385.151 112.491C385.3 112.342 385.449 112.044 385.598 111.895C385.598 111.895 385.598 111.895 385.747 111.746C387.683 108.766 387.981 102.955 387.832 98.9321ZM254.482 75.9869C252.695 76.2849 250.907 76.8809 249.119 77.7749C248.672 78.0729 248.225 78.2219 247.629 78.5198C246.735 78.8178 245.99 79.2648 245.543 79.8608L245.394 80.0098L244.351 80.3078C240.03 81.6487 235.56 82.9897 231.686 85.2246C232.431 85.0756 233.474 84.9266 234.815 84.9266C241.818 84.9266 247.927 88.3535 252.992 92.6743C257.462 90.5884 261.932 88.2045 266.253 85.8206C262.975 82.5427 259.101 79.2648 254.482 75.9869ZM286.516 103.998C282.493 102.061 278.918 98.4851 274.448 93.8663L261.187 101.316C262.23 102.657 262.975 103.849 263.869 104.892C274.448 120.238 280.705 122.026 284.579 122.026C290.092 122.026 294.86 117.854 300.969 111.895L301.118 111.746C300.373 107.574 301.267 103.104 303.502 99.5281L303.651 99.3791C304.098 98.3361 304.694 97.2931 305.439 96.5482C298.883 102.508 295.009 105.19 291.433 105.19C289.794 105.339 288.453 104.892 286.516 103.998Z" fill="#78006E"/>
<path d="M120.536 141.694C119.494 141.098 118.153 139.608 116.514 138.565C115.471 137.969 113.683 136.032 112.491 135.734C111.001 137.075 109.362 138.118 108.17 139.608C107.574 140.353 106.531 141.098 105.786 141.545C104.743 140.502 103.253 140.055 102.061 139.012C101.167 138.267 100.124 137.522 99.2303 136.777C98.7833 136.479 98.4853 136.032 98.1873 135.585C97.8893 134.84 97.5914 134.989 96.9954 135.436C96.3994 135.883 95.8034 136.33 95.3564 136.777C94.9095 137.224 94.3135 137.82 94.1645 138.416C93.8665 139.161 92.9725 139.31 92.5255 139.757C92.0786 140.204 91.4826 140.651 91.0356 141.247C90.1416 142.737 88.9497 143.78 87.6087 144.972C86.8638 145.717 86.7148 146.164 87.3107 146.908C87.9067 147.504 88.5027 147.951 89.2477 148.547C90.4396 149.441 91.6316 150.335 92.8235 151.229C94.1645 152.123 95.3564 153.166 96.5484 154.358C96.8464 154.805 97.2934 155.103 97.7403 155.401C98.6343 154.656 99.6773 153.911 100.571 153.017C100.72 153.017 100.869 153.017 101.018 153.017C101.465 152.57 101.912 152.123 102.21 151.676C102.359 151.527 102.508 151.229 102.657 151.08C103.104 150.484 103.551 150.186 104.147 150.335C104.594 150.484 104.892 150.484 105.339 150.633C106.68 151.229 107.276 152.57 108.021 152.719C109.213 153.017 109.958 154.358 111.448 154.209C111.597 154.209 111.746 154.507 111.895 154.507C112.491 154.805 112.789 155.252 113.683 154.656C113.832 154.507 114.279 154.656 114.428 154.656C115.173 154.805 115.769 154.656 116.216 153.911C116.365 153.613 116.663 153.166 116.812 153.315C117.557 153.464 116.961 152.719 117.408 152.57C118.153 152.421 119.345 150.633 119.643 150.335C120.09 149.59 120.387 148.696 121.579 148.547L121.728 148.398C122.175 147.802 122.622 147.206 123.218 146.611C123.814 146.015 124.261 145.568 124.261 144.823C124.41 143.929 122.92 143.631 122.324 143.035C122.026 142.588 121.281 142.141 120.536 141.694ZM116.216 64.3656C116.365 63.9186 116.365 63.4716 116.365 63.0246C115.918 62.5777 114.13 60.6407 112.193 58.5548C109.809 56.1709 107.276 53.34 106.382 52.148C105.786 52.148 105.488 52.1481 104.892 52.446C97.4424 67.9415 107.425 78.0731 110.703 80.755C111.15 81.053 111.895 81.6489 112.64 82.3939C113.981 83.4369 115.322 84.7778 115.769 84.9268C117.408 86.2678 118.749 87.3107 119.792 88.3537C123.218 91.4826 123.963 93.8665 124.559 100.571V100.72C124.559 100.571 124.708 100.571 124.857 100.422C125.006 100.273 125.006 100.124 125.155 100.124C125.602 99.3793 126.198 98.6343 126.645 97.8893C127.539 96.1014 128.284 94.3135 128.88 92.5255C129.327 90.8866 129.625 89.5456 129.923 87.9067C130.072 86.8637 129.923 85.8208 129.923 84.7778C129.923 84.4798 129.923 84.0329 129.923 83.7349C129.923 82.9899 129.774 81.7979 129.625 81.351C129.029 79.712 128.284 78.3711 127.39 77.4771C126.943 76.8811 126.347 76.2851 125.751 75.6892C125.304 75.2422 124.857 74.7952 124.41 74.1992L124.261 74.0502C121.579 71.8153 119.494 70.0274 116.812 67.1965C115.918 66.4515 116.067 65.4086 116.216 64.3656ZM145.717 146.76L144.674 150.782L145.717 150.484C154.954 147.504 177.601 139.31 184.306 136.628L184.455 136.479L185.498 132.605C178.644 135.138 154.656 143.631 145.866 146.611L145.717 146.76ZM144.823 76.2851C145.27 76.7321 145.866 77.0301 146.313 77.3281C146.611 77.4771 147.207 77.9241 147.802 78.2221C148.398 78.6691 149.143 79.265 149.441 79.265C149.739 79.414 150.633 80.01 151.676 80.606C152.421 81.053 153.166 81.6489 153.464 81.7979C154.805 82.5429 157.934 84.4798 158.232 84.6288C158.53 84.9268 158.828 85.0758 159.275 85.0758H159.424C159.722 85.5228 160.169 85.6718 160.616 85.8208L160.914 85.9698C161.212 86.1188 161.659 86.4168 161.957 86.4168L162.106 86.5658C162.553 86.8637 163 87.1617 163.447 87.4597C163.596 87.6087 163.894 87.7577 164.192 87.9067C164.788 88.3537 165.682 88.9497 165.831 88.9497L165.98 89.0987C166.129 89.2477 166.427 89.3967 167.023 89.5456H167.172C167.768 90.1416 168.364 90.4396 168.96 90.8866C169.109 91.0356 169.556 91.3336 169.854 91.4826C170.45 91.7806 170.45 91.7806 170.45 91.9296C170.599 92.0786 170.599 92.0786 170.748 92.2275C170.897 92.3765 171.046 92.6745 171.195 92.8235C173.579 95.8034 175.515 99.0813 174.919 102.806C175.366 102.061 175.664 101.316 175.962 100.422C177.005 96.3994 177.303 91.9296 176.856 87.3107C176.409 84.0329 175.664 79.265 167.321 74.1992C166.725 73.7522 166.129 73.4542 165.533 73.0073L165.235 72.8583C162.702 71.3683 159.722 69.4314 156.891 67.6435C154.954 66.4515 153.166 65.2596 151.378 64.2166H151.229V64.0676C151.08 63.4716 151.229 62.7267 151.378 61.9817C151.527 60.9387 151.676 59.7468 151.229 59.0018C150.931 58.7038 150.633 58.4058 150.037 58.2568C145.717 56.0219 142.141 53.34 138.118 50.0621L136.926 49.1682C136.926 49.1682 136.926 49.1682 136.777 49.1682C136.777 49.1682 136.628 49.1682 136.479 49.3172C136.33 49.3172 136.032 49.4662 135.883 49.4662C135.734 50.0621 135.734 50.6581 135.585 51.2541C134.691 57.5118 133.648 64.6636 138.416 69.5804C140.502 72.2623 142.588 74.3482 144.823 76.2851ZM328.831 71.9643H328.98C331.662 71.0703 343.73 66.3025 348.051 60.9387L348.2 60.7897H348.349C348.647 60.9387 349.839 61.3857 350.286 61.5347L350.733 61.6837L353.862 57.3629L353.266 57.0649C352.819 56.9159 351.478 56.4689 350.882 56.3199H350.584L350.733 56.0219C351.031 55.1279 351.18 54.085 351.18 53.042C351.18 45.5923 347.902 43.0594 345.22 43.0594C342.985 43.0594 340.601 44.1024 338.813 45.8903C336.727 47.8272 335.684 50.2111 335.684 52.744C335.684 56.6179 338.366 58.8528 344.177 59.8958L344.773 60.0448L344.326 60.3427C340.452 63.3226 330.023 67.4945 323.467 70.1764L321.679 70.9213L323.467 71.3683C324.808 71.6663 327.49 71.9643 328.831 71.9643ZM337.919 50.2111C337.919 48.5722 340.303 46.7843 342.538 46.7843C345.071 46.7843 348.051 50.0621 348.051 54.532C348.051 54.9789 347.902 55.4259 347.753 56.0219L347.604 56.3199H347.306C341.346 54.83 337.919 52.744 337.919 50.2111ZM422.101 112.938L421.505 106.68C421.654 106.68 421.952 106.531 421.952 106.233C421.952 105.935 421.952 105.786 421.952 105.488C421.952 103.998 421.952 102.359 421.505 100.869C421.505 100.869 421.505 100.869 421.505 100.72C421.356 100.571 421.207 100.273 421.356 100.124C421.803 99.5283 421.654 98.1873 421.356 96.2504C421.207 95.5054 421.207 94.7605 421.207 94.3135V94.1645C420.015 86.8638 418.227 72.8583 417.631 64.6636C417.631 64.6636 417.631 64.6636 417.631 64.5146C416.886 61.8327 415.843 57.3629 415.396 54.532C415.992 53.34 415.694 52.744 415.396 52.148C415.247 51.7011 415.098 51.4031 415.247 50.5091C415.247 50.2111 414.949 47.6782 414.801 46.9332C415.098 46.3373 417.78 43.6554 418.972 42.4634C420.462 40.9735 420.313 40.3775 419.121 37.2486C418.525 35.7587 417.929 34.4177 417.184 32.7788C415.992 30.0969 414.651 27.415 414.056 24.7331V24.5841C412.268 21.3062 410.48 17.7303 408.841 14.3035C408.245 13.1115 407.947 12.3665 407.5 11.7706C407.053 11.7706 407.053 11.7706 406.606 11.7706C406.457 12.0686 403.328 17.4324 402.881 18.3263C401.54 20.4122 400.497 22.7962 399.454 25.0311C399.007 25.925 399.007 26.968 399.156 28.011C403.924 44.6983 406.904 70.6234 409.288 91.6316C409.884 96.6974 410.48 101.614 410.927 105.935C412.119 110.852 412.119 116.067 412.119 121.728C412.119 126.198 412.119 130.817 412.715 135.585C412.715 135.734 412.715 137.075 412.715 137.969C412.715 140.502 412.715 140.8 412.715 140.949C413.162 142.141 412.566 145.568 412.119 148.1C411.523 151.229 411.374 152.57 411.821 153.017C411.97 153.166 412.119 153.315 412.268 153.315C414.503 153.315 415.992 150.037 417.184 147.057C417.631 146.164 417.929 145.27 418.227 144.674C418.674 143.929 418.823 142.737 418.823 141.396C418.972 140.502 418.972 139.608 419.121 139.31C421.803 133.35 421.803 125.751 421.803 119.196C421.803 116.961 421.803 114.875 421.952 112.938C422.548 113.236 422.25 112.938 422.101 112.938ZM120.686 16.3894L120.834 16.2404L122.175 11.9196C114.13 14.8994 85.9698 24.8821 75.5402 28.3089L75.2422 28.4579L74.1992 32.9278L75.2422 32.6298C86.1188 29.2029 112.789 19.6673 120.686 16.3894ZM302.31 71.0703C302.757 69.2824 303.055 67.6435 302.161 67.1965C292.774 61.8327 282.344 58.8528 271.915 58.8528C269.233 58.8528 266.551 59.0018 263.869 59.4488L263.124 59.5978C257.611 60.7897 251.95 62.1307 246.735 64.9616C246.288 65.1106 245.841 65.2596 245.394 65.5575C244.649 65.8555 243.755 66.1535 243.159 66.7495C242.414 66.8985 241.818 67.3455 241.222 67.7925C241.073 67.9415 240.924 68.0905 240.626 68.2394C238.838 69.2824 235.113 72.4113 234.964 72.5603C234.219 73.1563 233.772 73.9012 233.623 74.1992V74.3482C233.325 74.7952 233.176 75.2422 232.878 75.5402C232.729 75.8382 232.58 76.2851 232.282 76.5831C232.282 76.5831 232.282 76.5831 232.282 76.7321C232.133 77.3281 231.835 78.0731 231.537 78.8181C230.345 81.9469 229.451 84.6288 230.345 85.8208L230.494 85.9698H230.643C230.941 85.8208 231.239 85.6718 231.537 85.5228C235.411 83.2879 239.881 81.9469 244.202 80.606L245.245 80.308C245.245 80.308 245.394 80.308 245.394 80.159C245.692 79.414 246.586 79.116 247.48 78.8181C247.927 78.6691 248.523 78.3711 248.97 78.0731C250.758 77.1791 252.546 76.5831 254.334 76.2851C254.632 76.2851 254.929 76.1361 255.078 76.1361C255.376 75.9872 255.674 75.9872 256.121 75.8382H256.27C258.058 75.2422 259.995 74.6462 261.783 74.3482C261.783 74.3482 261.932 74.3482 262.081 74.3482C262.528 74.3482 263.273 74.1992 263.869 74.0502C264.167 73.9012 264.465 73.9012 264.614 73.9012C265.955 73.7522 267.296 73.6032 268.637 73.1563C269.531 73.4542 274.299 73.9012 274.746 73.9012C276.832 73.9012 278.62 74.4972 280.556 75.2422C281.599 75.5402 282.642 75.9872 283.685 76.1361L284.281 76.2851L283.685 76.5831C283.685 76.5831 283.536 76.5831 283.536 76.7321C279.812 78.967 271.766 83.4369 267.445 85.3738C266.998 85.6718 266.551 85.8208 266.253 86.1188C261.932 88.5027 257.462 90.8866 252.993 92.9725C244.351 97.1444 235.411 100.422 226.472 101.614C225.429 101.763 224.535 101.912 223.492 101.912C220.512 102.508 215.744 103.104 210.976 103.104C210.38 103.104 209.784 103.104 209.039 103.104C207.549 103.104 206.059 103.253 204.569 103.253C203.228 103.253 202.036 103.402 200.844 103.402C198.759 103.402 196.524 103.253 195.332 102.061C194.14 100.869 194.289 98.3363 194.736 96.3994C194.885 95.9524 195.183 95.3564 195.481 94.6115C195.928 93.4195 196.524 91.7806 196.822 90.7376C197.865 86.7148 199.206 81.6489 201.738 79.861L201.887 79.712C201.887 79.414 202.036 79.265 202.185 78.967C202.185 78.967 202.185 78.8181 202.185 78.6691C202.185 78.5201 202.036 78.5201 202.036 78.3711C202.036 78.3711 202.036 78.2221 201.887 78.2221C201.887 78.2221 201.887 78.2221 201.738 78.2221C201.738 78.2221 201.738 78.2221 201.589 78.2221C200.844 78.5201 199.951 78.6691 199.057 78.967C197.716 79.265 194.438 80.308 191.905 83.1389C189.819 85.3738 188.627 88.6517 187.882 90.7376C187.435 91.7806 187.286 92.6745 186.988 93.1215C186.243 94.9094 185.945 96.8464 185.647 98.7833C185.647 99.0813 185.498 99.6773 185.349 100.273C185.051 102.061 184.604 104.892 184.753 105.339C184.902 105.637 184.753 106.382 184.753 107.574C184.753 108.319 184.604 109.511 184.753 109.66C184.902 109.809 184.902 110.256 184.902 110.554C184.902 110.703 184.902 110.852 184.902 110.852C185.349 111.597 185.498 112.342 185.796 113.236C186.094 114.428 188.776 116.663 189.67 117.408L189.819 117.557C191.16 118.749 192.501 119.047 194.14 119.494C194.289 119.494 194.587 119.494 194.885 119.494H195.332C195.779 119.494 196.077 119.494 196.375 119.494C197.567 119.792 198.461 119.792 199.206 119.792C199.504 119.792 199.653 119.792 199.951 119.792C199.951 119.792 200.249 119.792 201.291 119.643C202.632 119.494 205.016 119.345 206.357 119.196C206.953 119.047 207.4 119.047 207.698 119.047C208.145 118.898 208.592 118.898 209.188 118.898C209.635 118.898 210.082 118.898 210.529 118.898C211.274 118.898 213.509 118.6 216.34 118.004C219.32 117.557 222.896 116.812 225.429 116.216C227.365 115.769 228.855 115.471 229.302 115.173C229.898 114.875 230.345 114.726 230.792 114.726C230.941 114.726 230.941 114.726 231.09 114.726C231.239 114.726 231.388 114.726 231.537 114.726C233.325 114.726 237.348 113.385 239.136 112.64C239.434 112.491 239.732 112.491 239.881 112.342C241.967 111.597 244.202 110.852 246.288 109.66C248.374 108.319 250.311 107.425 252.695 106.978H252.844C253.44 106.829 254.482 106.084 255.227 105.637C255.674 105.339 255.972 105.19 256.121 105.041C256.717 104.743 259.101 103.104 260.442 102.21C261.187 101.763 261.336 101.614 261.485 101.614H261.634L274.895 94.1645L278.322 92.2275C278.471 92.2275 278.471 92.0786 278.62 92.0786C278.62 92.0786 278.62 92.0786 278.769 92.0786C279.812 92.0786 283.238 90.2906 284.579 89.6946C285.175 89.3967 285.324 89.2477 285.324 89.2477C286.814 88.8007 288.006 88.0557 289.198 87.3107C289.496 87.1617 291.135 86.2678 292.178 85.6718C292.774 85.3738 293.37 85.0758 293.37 85.0758C294.115 84.6288 295.009 84.0329 295.903 83.5859C297.244 82.9899 299.479 81.351 299.777 81.053C300.075 80.308 302.012 73.9012 302.161 73.4543C302.012 72.8583 302.161 71.9643 302.31 71.0703ZM396.772 44.5493C391.259 29.3519 387.832 20.5612 386.492 18.3263C386.343 18.1773 385.747 18.1773 385.747 18.3263C385.3 19.2203 384.108 21.1572 382.916 23.3921C381.277 26.521 378.893 30.8418 377.85 32.7788C377.552 33.3748 377.85 34.5667 378.148 35.0137C381.128 40.9735 383.512 50.9561 385.151 64.6636C386.79 77.9241 387.534 91.0356 387.684 97.4424C387.684 97.5913 387.684 97.7403 387.684 97.8893C387.684 98.0383 387.684 98.0383 387.684 98.1873V98.3363C387.684 98.4853 387.684 98.6343 387.684 98.7833C387.832 102.806 387.535 108.617 386.045 111.597C394.835 100.72 396.176 86.5658 396.176 78.967C396.027 71.5173 394.835 62.1307 392.6 50.5091C393.047 50.0621 393.792 49.1682 396.027 46.7843C396.921 46.1883 397.07 45.2943 396.772 44.5493ZM369.804 88.9497C367.42 91.6316 364.887 94.6115 362.652 97.4424C362.652 97.4424 362.652 97.5913 362.503 97.5913C362.354 98.3363 361.609 98.7833 361.013 99.2303C360.566 99.5283 359.971 99.9753 359.673 100.422C359.375 101.018 357.736 102.657 354.905 103.551C354.458 103.7 354.16 103.849 353.862 103.998C353.266 104.296 352.819 104.445 351.925 104.445C351.925 104.445 351.925 104.445 351.776 104.445C349.392 104.743 346.114 102.359 345.369 99.9753C344.922 98.7833 345.518 97.4424 345.965 96.1014C346.71 94.4625 347.306 92.8235 346.263 91.1846C346.263 91.0356 346.114 91.0356 345.965 91.0356C345.816 91.0356 345.667 91.0356 345.667 91.1846C343.73 92.9725 341.793 94.9094 339.856 96.8464C337.025 99.6773 333.897 102.657 330.768 105.19C326.298 109.511 318.401 109.809 313.633 106.084C313.633 106.084 313.633 106.084 313.484 106.084C311.845 105.339 310.802 104.147 310.355 102.657C309.312 99.3793 311.547 94.9095 313.037 92.6745V92.5255C313.186 91.3336 312.888 90.5886 312.292 90.4396C311.696 90.2906 310.951 90.5886 310.206 91.6316C309.61 92.0786 309.014 92.8235 308.269 93.4195C307.673 94.0155 307.078 94.7605 306.482 95.2074C306.035 95.6544 305.588 96.1014 305.141 96.5484C304.545 97.2934 303.8 98.1873 303.353 99.3793L303.204 99.5283C300.969 103.104 300.224 107.425 300.82 111.746C300.969 112.64 301.118 113.534 301.416 114.428C302.906 118.898 305.886 122.324 309.908 124.112C310.057 124.261 310.355 124.261 310.504 124.41C311.696 125.006 312.739 125.453 313.931 125.453C314.229 125.453 314.527 125.602 314.974 125.602C315.272 125.602 315.719 125.602 316.017 125.602C317.209 125.602 318.401 125.453 319.593 125.304C319.742 125.304 320.04 125.304 320.338 125.304C320.487 125.155 320.636 125.155 320.785 125.155C320.934 125.155 321.083 125.155 321.232 125.006L321.381 124.857C321.977 124.708 322.573 124.41 323.318 124.261C323.914 123.963 324.51 123.814 325.106 123.516C325.702 123.218 326.298 122.92 326.894 122.622C327.49 122.324 328.086 122.026 328.533 121.579C329.129 121.281 329.576 120.834 330.172 120.387C330.768 119.941 331.215 119.643 331.662 119.196C332.109 118.749 332.556 118.302 333.003 117.855C333.45 117.408 333.897 116.961 334.344 116.365C334.79 115.918 335.088 115.322 335.535 114.726C335.684 114.577 335.684 114.428 335.833 114.279C335.982 114.13 336.131 113.981 336.131 113.832C336.28 113.683 336.28 113.534 336.429 113.385C336.429 113.385 336.429 113.236 336.578 113.236C336.578 113.236 336.578 113.087 336.727 113.087V112.938C336.876 113.087 336.876 113.385 336.876 113.534C336.876 113.832 336.876 113.981 336.876 114.279C336.876 114.428 336.876 114.577 336.876 114.577V114.726C337.472 116.961 339.111 118.302 340.75 119.643C341.048 119.941 341.346 120.09 341.644 120.387C341.644 120.387 341.644 120.387 341.793 120.387C344.922 121.877 348.051 121.877 351.18 120.685C356.991 118.451 361.162 112.193 363.248 107.425C366.228 99.6773 370.4 95.9524 371.294 92.9725C371.443 91.6316 371.443 90.1416 370.251 88.9497C370.251 88.8007 369.953 88.8007 369.804 88.9497ZM39.0365 60.9387C40.8245 62.7267 42.6124 64.3656 44.9963 65.5575C45.2943 65.7065 45.2943 66.0045 45.5923 66.1535C45.7413 66.3025 45.8903 66.6005 46.0393 66.6005C46.9333 66.8985 47.8272 67.0475 48.4232 67.9415C48.4232 68.0904 48.7212 68.0905 49.0192 68.0905C50.2111 68.3884 51.4031 68.6864 52.446 67.7925C52.595 67.6435 52.744 67.7925 52.893 67.6435C54.085 66.7495 57.0649 64.3656 57.9588 63.1736C59.1508 61.6837 60.6407 60.1937 61.9817 58.7038C64.6636 62.5777 68.0905 65.5576 72.4113 67.3455C72.7093 67.7925 73.3053 68.0905 73.7522 68.3884C74.9442 66.4515 76.2852 64.5146 77.7751 62.7267C78.8181 61.3857 80.01 60.1937 81.202 59.0018C81.7979 57.8098 82.3939 56.6179 83.1389 55.5749C82.8409 55.4259 82.5429 55.2769 82.2449 54.9789C81.351 54.383 80.606 53.638 79.861 53.042C79.563 52.744 78.9671 52.595 78.6691 52.297C77.3281 50.9561 75.9872 49.7641 74.7952 48.2742C73.7523 47.0822 72.8583 45.8903 71.5173 44.8473C70.7724 44.2513 70.1764 43.6554 70.0274 42.9104C69.4314 43.0594 68.9844 43.0594 68.5374 43.2084C68.3884 43.2084 68.2395 43.3574 68.0905 43.5064C67.6435 44.2514 67.1965 45.1453 66.6005 46.0393C65.1106 46.3373 64.0676 47.3802 63.3226 48.5722C62.5777 49.9131 61.3857 50.8071 60.3427 51.9991C60.0448 52.297 59.1508 53.34 58.8528 53.042C57.9588 51.9991 56.1709 50.5091 54.83 50.0621C54.234 49.6151 53.638 49.1682 53.042 48.7212C51.9991 47.9762 50.9561 47.2312 50.0621 46.4863C49.1682 45.7413 47.9762 45.1453 47.3802 44.1023C47.0822 43.6554 45.5923 44.8473 45.4433 44.9963C44.9963 45.8903 44.4003 46.4863 43.5064 46.9332C42.6124 47.3802 42.1654 48.4232 41.4205 49.1682C40.5265 50.0621 38.5896 53.042 37.5466 53.787C36.8016 54.383 36.2056 55.2769 36.6526 56.4689C36.9506 58.1078 37.8446 59.5978 39.0365 60.9387ZM72.5603 84.6288C73.0073 84.4798 73.3053 84.4798 73.6033 84.4798C74.1992 84.4798 74.6462 84.6288 75.3912 84.9268H75.5402C76.5831 84.9268 77.3281 85.5228 78.2221 86.1188C78.8181 86.4168 79.265 86.8637 79.861 87.1617C79.861 87.1617 79.861 87.1617 80.01 87.1617H80.159C80.159 87.1617 80.308 87.0127 80.308 86.8638V86.7148C80.308 86.5658 80.159 86.1188 80.01 85.9698L79.861 85.8208H79.712V85.6718V85.5228V85.3738V85.2248C79.712 85.0758 79.712 85.0758 79.563 85.0758L79.414 84.9268C77.3281 81.053 74.4972 76.8811 69.1334 74.9442C68.3885 74.6462 67.7925 74.6462 67.1965 74.6462C65.2596 74.6462 63.4716 75.8382 61.8327 76.8811C55.8729 82.5429 50.3601 89.0987 44.8473 96.8464C43.8044 98.1873 42.9104 99.3793 41.8674 100.72C40.3775 102.657 38.8875 104.594 37.3976 106.382C34.5667 109.809 32.3318 112.491 29.5009 115.62C29.5009 115.62 27.415 118.004 26.67 118.749C26.521 118.898 25.925 119.345 24.8821 119.941C24.2861 120.388 23.5411 120.685 23.2431 120.983C23.0941 120.983 23.0941 121.132 22.9451 121.281C22.6472 121.43 22.4982 121.728 22.2002 121.877C21.4552 122.324 20.7102 122.92 19.8163 123.814L19.6673 123.963C19.2203 124.41 18.6243 125.006 18.0283 125.304C15.7934 126.794 13.2605 127.837 10.2806 128.582C9.23766 128.731 7.59872 128.88 6.10878 129.476C5.81079 129.476 5.3638 129.625 5.06581 129.625C4.46984 129.625 3.87386 129.476 3.27788 129.327C2.8309 129.178 2.23492 129.178 1.63894 129.178C1.04296 129.178 0.595981 129.327 0.148998 129.476C3.40799e-06 129.476 0 129.625 0 129.774C1.19196 132.903 3.57587 134.393 6.25777 135.585C6.55576 135.734 6.70475 135.734 6.85375 135.883C7.30073 136.032 7.74771 136.33 8.19469 136.479C8.64168 136.628 8.64168 136.777 8.93967 136.777C9.08866 136.777 9.23766 136.777 9.53565 136.777C9.68464 136.777 9.98263 136.926 10.4296 137.075C10.8766 137.224 11.4726 137.373 11.6216 137.522C11.6216 137.522 11.6216 137.522 11.7706 137.522C11.9196 137.522 12.2175 137.522 12.3665 137.522C12.5155 137.522 12.5155 137.522 12.6645 137.522C14.0055 137.671 15.3464 137.82 16.3894 137.82C19.9653 137.82 23.0941 137.075 26.223 135.287H26.372H26.521H26.67C26.67 135.287 26.67 135.287 26.819 135.287C28.7559 134.244 30.5439 132.903 32.0338 131.86C32.1828 131.711 32.3318 131.562 32.6298 131.413C33.0768 131.115 33.5238 130.817 33.8217 130.519C34.7157 129.923 35.6097 129.029 36.5036 127.986C37.6956 126.645 38.4406 125.9 39.9305 125.155C40.0795 125.155 40.0795 125.155 40.2285 124.857C40.8245 123.665 42.3144 122.175 43.5064 120.983C43.9534 120.536 44.4003 120.09 44.5493 119.792C44.8473 119.494 44.9963 119.196 45.1453 119.047C45.4433 118.749 45.4433 118.6 46.0393 118.153C47.3802 116.812 49.9131 113.683 50.6581 112.491C51.4031 111.299 51.5521 111.001 51.9991 110.554C52.1481 110.405 52.2971 110.256 52.446 109.958L52.595 109.809C53.34 108.915 53.787 108.319 54.383 107.276C56.0219 105.339 57.6609 103.402 59.2998 101.465C61.2367 99.2303 63.4716 96.6974 65.4086 94.0155C65.4086 94.0155 65.4086 94.0155 65.5575 93.8665C65.8555 93.5685 66.0045 93.2705 66.3025 92.8235L67.0475 91.9296C68.6864 89.2477 70.4744 86.8638 72.5603 84.6288ZM216.638 127.092C216.042 127.688 215.446 128.284 214.85 128.88C208.89 134.989 202.334 139.906 195.183 144.823C191.905 148.1 188.18 150.484 183.859 152.272C175.217 157.04 165.831 160.169 156.593 163.745C154.06 164.639 152.123 164.043 150.782 166.576C150.633 166.427 150.484 166.278 150.335 166.278C146.164 166.725 140.204 167.619 136.926 170.152C141.396 175.366 150.037 166.129 154.656 170.45C152.868 172.238 150.335 172.685 148.1 173.876C146.76 173.43 145.568 174.323 144.227 174.621C142.141 175.217 140.204 175.813 138.118 176.409C130.519 176.707 123.218 178.346 115.62 177.899C81.7979 175.813 67.4945 150.633 79.414 122.175C79.861 121.43 80.159 120.685 80.606 119.941C80.308 119.196 79.414 119.345 79.116 119.941C78.967 120.239 78.8181 120.387 78.6691 120.536C67.4945 139.906 63.4716 165.235 84.1819 180.283C84.7778 180.581 85.6718 180.879 86.1188 181.177C88.6517 179.836 86.8638 179.538 90.8866 181.326C102.061 186.541 116.365 186.839 129.178 184.902C130.221 184.902 130.966 184.753 131.86 184.753C133.052 185.051 134.244 184.604 135.436 184.306C135.883 184.157 136.628 184.157 137.075 184.008H137.224C140.651 183.263 144.227 182.816 146.462 179.836C147.653 180.134 148.696 180.73 149.888 179.836C154.805 178.793 159.424 177.005 164.192 175.068C165.384 174.919 165.831 175.962 167.172 175.813C184.306 168.96 200.696 158.828 212.466 144.972C212.466 144.972 212.764 144.823 213.062 144.376C213.807 143.631 214.403 143.035 214.999 142.141C217.383 138.714 219.618 135.287 221.406 131.562C222.3 129.774 223.045 127.986 223.79 126.347C224.535 123.218 224.982 120.09 225.131 116.514C224.237 119.792 220.214 123.367 216.638 126.943C216.936 126.943 216.787 126.943 216.638 127.092ZM173.43 38.2916C173.43 45.5923 175.664 51.8501 179.985 56.0219C184.306 60.3427 190.415 62.5777 197.716 62.5777C201.887 62.5777 209.486 57.3629 214.552 53.936C215.893 53.042 217.085 52.148 217.979 51.5521L218.128 51.4031V49.7641L217.83 49.9131C210.678 51.5521 205.016 52.148 199.206 52.148C190.415 52.148 182.965 49.9131 179.091 45.8903C176.856 43.6554 175.664 40.9735 175.664 37.9936C175.664 25.3291 191.607 14.7505 212.466 13.2605H212.615L214.85 5.95978L214.403 4.91682H214.254C210.678 4.91682 207.549 4.61883 202.185 3.57587C199.951 3.12889 198.014 2.6819 196.077 2.08592C191.607 1.04296 187.733 0 184.008 0C177.75 0 174.472 3.87386 173.579 12.3665V12.6645L174.77 12.9625L174.919 12.6645C176.558 7.8967 180.879 8.0457 185.498 8.64168C188.478 8.93967 191.756 9.53565 195.183 10.2806C195.779 10.4296 196.375 10.5786 196.971 10.5786C182.22 15.9424 173.43 26.223 173.43 38.2916ZM218.277 39.9305C216.042 39.9305 213.807 39.7815 211.721 39.3345H211.274V40.8245L211.423 40.9735C214.701 43.0594 223.343 47.0822 227.366 47.0822C232.431 47.0822 237.05 44.4003 240.477 39.6325C243.755 35.0137 245.692 28.9049 245.692 22.6472C245.692 16.9854 244.649 11.4726 242.861 7.44972C240.775 2.6819 237.795 0.29799 234.368 0.29799C231.239 0.29799 228.11 2.23492 225.876 5.81078C223.79 9.08866 222.598 13.2605 222.598 17.2833C222.598 25.925 227.812 28.9049 232.431 28.9049C234.219 28.9049 240.179 28.3089 243.308 20.4122C243.755 21.4552 243.904 22.4982 243.904 23.3921C244.202 31.1398 233.623 39.9305 218.277 39.9305ZM233.027 20.2632C229.302 20.2632 225.28 18.6243 225.28 16.0914C225.28 12.0686 229.749 9.38665 231.984 9.38665C235.858 9.38665 239.583 12.2175 241.818 16.9854C239.583 19.2203 236.454 20.2632 233.027 20.2632ZM260.74 46.9332C271.021 46.9332 279.067 35.7587 279.067 21.6042C279.067 14.8994 276.981 7.89671 272.809 0.29799L272.66 0.148998H271.17L267.892 9.08866L268.041 9.23766C271.468 12.5155 276.534 18.7733 276.534 22.4982C276.534 26.372 274.001 30.8418 269.829 34.2687C265.359 37.9936 259.697 40.0795 254.036 40.0795C251.95 40.0795 250.311 40.0795 248.374 39.7815H248.076V41.4205L248.225 41.5694C251.354 44.1024 257.015 46.9332 260.74 46.9332Z" fill="#BE008D"/>
</svg>
