<svg width="16" height="11" viewBox="0 0 16 11" fill="none" xmlns="http://www.w3.org/2000/svg">
<path d="M15.1012 4.78504C15.1012 4.73988 15.0995 4.69416 15.0967 4.649C15.0809 4.37524 15.0369 4.09245 15.0476 3.81869C15.0662 3.36318 15.0882 2.90033 15.0386 2.44876C14.9866 1.97688 15.0149 1.48919 15.0284 1.01505C15.0284 1.00433 15.025 0.99586 15.0233 0.986264C15.0261 0.981184 15.0278 0.977233 15.0312 0.971589L15.025 0.889743C14.6406 0.88805 14.2675 0.822008 13.8865 0.782497C13.7144 0.764434 13.5343 0.76895 13.3616 0.761612C12.7977 0.738469 12.2344 0.753145 11.6716 0.777417C11.4419 0.787577 11.2121 0.801124 10.9818 0.809026C10.8012 0.815235 10.5466 0.86152 10.3717 0.819186C10.3638 0.817493 10.3564 0.812977 10.348 0.812977C10.2458 0.812977 10.1448 0.8412 10.0369 0.857005C10.0369 0.869423 10.0352 0.881841 10.0347 0.894259C10.0477 1.17366 10.0657 1.45307 10.0781 1.73247C10.0928 1.73868 10.1092 1.7432 10.1284 1.74376C10.5704 1.74658 11.0134 1.65966 11.4571 1.6495C12.0385 1.63595 12.6188 1.66417 13.1984 1.6732C13.2854 1.6653 13.3717 1.66022 13.4575 1.65684C13.5004 1.65514 13.5422 1.65401 13.5845 1.65232C13.5518 1.65345 13.444 1.81488 13.4191 1.84367C12.9614 2.36297 12.4353 2.8134 11.9629 3.31802C11.7066 3.59178 11.4396 3.86554 11.1698 4.12688C11.0609 4.23244 10.9378 4.32162 10.8277 4.42435C10.7199 4.52539 10.6336 4.64392 10.5286 4.74722C10.4089 4.86519 10.2576 4.95607 10.1414 5.07404C10.0714 5.14516 10.0178 5.22983 9.9534 5.30603C9.8851 5.38674 9.80439 5.43303 9.7248 5.49851C9.51708 5.75477 9.27775 5.98168 9.03899 6.20915C9.02601 6.22157 9.01415 6.23681 9.0023 6.25149C8.99157 6.23004 8.97803 6.20972 8.95601 6.19843L8.83804 6.13521V6.12279C8.83861 6.09118 8.66193 5.95007 8.63371 5.91959C8.56711 5.84734 8.50106 5.77396 8.43389 5.70171C8.28206 5.53858 8.12796 5.37715 7.97217 5.21797C7.85646 5.09944 6.4758 3.73515 6.47072 3.74023C6.19132 4.03206 5.87974 4.29058 5.60203 4.58296C5.37004 4.82794 5.12055 5.05315 4.8863 5.2953C4.57811 5.61422 4.28064 5.93652 3.95721 6.2402C3.6208 6.55629 3.28043 6.869 2.96321 7.20485C2.64316 7.54352 2.29659 7.8551 1.97541 8.19208C1.57352 8.61372 1.12309 9.00997 0.759582 9.46266L0.753937 9.46831C0.694105 9.53378 1.33532 10.0153 1.37935 10.0491C1.40193 10.0661 2.47101 8.94788 2.56414 8.84459C2.71146 8.68146 2.83282 8.52736 3.01119 8.39754C3.1873 8.26941 3.32897 8.09612 3.47404 7.93525C3.63039 7.76196 3.79747 7.61634 3.9685 7.45942C4.148 7.29516 4.30717 7.10099 4.47651 6.92601C4.63625 6.76119 4.78131 6.56927 4.95517 6.41969C5.12563 6.2735 5.30005 6.164 5.43834 5.98224C5.59413 5.77791 5.82894 5.6526 5.98021 5.44093C6.05416 5.33707 6.15124 5.25466 6.24833 5.17282C6.32058 5.11186 6.40299 4.99784 6.47016 4.95155C6.47411 4.9572 6.49161 4.94816 6.49161 4.94816C6.49782 4.95776 6.4854 4.94816 6.50628 4.97131C6.87713 5.36586 7.26999 5.73783 7.64422 6.129C7.89089 6.38696 8.13473 6.6641 8.40567 6.89609C8.47002 6.96496 8.52703 7.04059 8.58009 7.11962C8.72797 7.24154 8.87812 7.36064 9.02601 7.482C9.0356 7.4899 9.6994 6.76458 9.7598 6.70982C9.90938 6.57435 10.029 6.38696 10.186 6.26673C10.3463 6.14311 10.4795 6.03191 10.6149 5.87725C10.7566 5.71582 10.922 5.59221 11.0693 5.4398C11.2206 5.28345 11.3674 5.12032 11.5158 4.96171C11.5898 4.88212 11.6558 4.79294 11.7331 4.7173C11.8076 4.64392 11.9013 4.59707 11.9741 4.522C12.1316 4.36057 12.2818 4.20308 12.45 4.05238C12.533 3.97843 12.5905 3.88868 12.6741 3.81643C12.7491 3.75152 12.8361 3.69621 12.9061 3.62621C13.3317 3.19836 13.7409 2.75526 14.171 2.33192C14.1795 2.35732 14.1862 2.38272 14.1845 2.41207C14.1727 2.6181 14.1998 2.82356 14.2026 3.02959C14.206 3.23505 14.1665 3.43712 14.1608 3.64145C14.1552 3.84071 14.158 4.04334 14.1744 4.24203C14.1913 4.4458 14.2308 4.6507 14.2297 4.85616C14.228 5.1762 14.1524 5.49512 14.145 5.81629C14.2433 5.83323 14.3443 5.84 14.4436 5.84C14.5385 5.84 14.6322 5.83492 14.7259 5.83153C14.7349 5.82928 14.7434 5.82589 14.7524 5.82589H15.0747C15.051 5.47762 15.104 5.13161 15.1012 4.78447V4.78504Z" fill="#BE008D"/>
</svg>
