<svg width="22" height="12" viewBox="0 0 22 12" fill="none" xmlns="http://www.w3.org/2000/svg">
<path d="M21.7076 1.70708L11.7076 11.7071C11.6147 11.8001 11.5044 11.8738 11.383 11.9241C11.2616 11.9745 11.1315 12.0004 11.0001 12.0004C10.8687 12.0004 10.7385 11.9745 10.6171 11.9241C10.4957 11.8738 10.3854 11.8001 10.2926 11.7071L0.292568 1.70708C0.104927 1.51944 -0.000488281 1.26494 -0.000488281 0.999579C-0.000488281 0.734215 0.104927 0.47972 0.292568 0.292079C0.480208 0.104438 0.734704 -0.000976562 1.00007 -0.000976562C1.26543 -0.000976562 1.51993 0.104438 1.70757 0.292079L11.0001 9.58583L20.2926 0.292079C20.3855 0.199169 20.4958 0.125468 20.6172 0.0751858C20.7386 0.0249031 20.8687 -0.000976562 21.0001 -0.000976562C21.1315 -0.000976562 21.2616 0.0249031 21.383 0.0751858C21.5044 0.125468 21.6147 0.199169 21.7076 0.292079C21.8005 0.384989 21.8742 0.49529 21.9245 0.616683C21.9747 0.738076 22.0006 0.868185 22.0006 0.999579C22.0006 1.13097 21.9747 1.26108 21.9245 1.38248C21.8742 1.50387 21.8005 1.61417 21.7076 1.70708Z" fill="black"/>
</svg>
