<svg viewBox="0 0 24 20" fill="black" xmlns="http://www.w3.org/2000/svg">
<path fill="currentColor" d="M0.2925 9.29255L9.2925 0.292553C9.48014 0.104912 9.73464 -0.00050354 10 -0.00050354C10.2654 -0.00050354 10.5199 0.104912 10.7075 0.292553C10.8951 0.480194 11.0006 0.73469 11.0006 1.00005C11.0006 1.26542 10.8951 1.51991 10.7075 1.70755L3.41375 9.00005L23 9.00005C23.2652 9.00005 23.5196 9.10541 23.7071 9.29295C23.8946 9.48048 24 9.73484 24 10.0001C24 10.2653 23.8946 10.5196 23.7071 10.7072C23.5196 10.8947 23.2652 11.0001 23 11.0001L3.41375 11.0001L10.7075 18.2926C10.8951 18.4802 11.0006 18.7347 11.0006 19.0001C11.0006 19.2654 10.8951 19.5199 10.7075 19.7076C10.5199 19.8952 10.2654 20.0006 10 20.0006C9.73464 20.0006 9.48014 19.8952 9.2925 19.7076L0.2925 10.7076C0.199524 10.6147 0.125763 10.5044 0.0754395 10.383C0.025116 10.2616 -0.000785828 10.1315 -0.000785828 10.0001C-0.000785828 9.86864 0.025116 9.73851 0.0754395 9.61711C0.125763 9.49572 0.199524 9.38543 0.2925 9.29255Z"/>
</svg>
