<svg width="12" height="7" viewBox="0 0 12 7" fill="none" xmlns="http://www.w3.org/2000/svg">
<path d="M11.354 1.35375L6.35403 6.35375C6.30759 6.40024 6.25245 6.43712 6.19175 6.46228C6.13105 6.48744 6.06599 6.50039 6.00028 6.50039C5.93457 6.50039 5.86951 6.48744 5.80881 6.46228C5.74811 6.43712 5.69296 6.40024 5.64653 6.35375L0.646528 1.35375C0.552708 1.25993 0.5 1.13268 0.5 1C0.5 0.867318 0.552708 0.74007 0.646528 0.646249C0.740348 0.552429 0.867596 0.499722 1.00028 0.499722C1.13296 0.499722 1.26021 0.552429 1.35403 0.646249L6.00028 5.29312L10.6465 0.646249C10.693 0.599794 10.7481 0.562944 10.8088 0.537803C10.8695 0.512661 10.9346 0.499722 11.0003 0.499722C11.066 0.499722 11.131 0.512661 11.1917 0.537803C11.2524 0.562944 11.3076 0.599794 11.354 0.646249C11.4005 0.692704 11.4373 0.747855 11.4625 0.808551C11.4876 0.869248 11.5006 0.934302 11.5006 1C11.5006 1.0657 11.4876 1.13075 11.4625 1.19145C11.4373 1.25214 11.4005 1.30729 11.354 1.35375Z" fill="black"/>
</svg>
