<svg width="14" height="11" viewBox="0 0 14 11" fill="none" xmlns="http://www.w3.org/2000/svg">
<path d="M13.1994 4.03C13.4253 3.98404 13.6283 3.86146 13.7742 3.68299C13.9201 3.50452 13.9999 3.28114 14 3.05062V1.5C14 1.23478 13.8946 0.98043 13.7071 0.792893C13.5196 0.605357 13.2652 0.5 13 0.5H1C0.734785 0.5 0.480431 0.605357 0.292895 0.792893C0.105359 0.98043 1.90547e-06 1.23478 1.90547e-06 1.5V3.05062C0.000128294 3.28114 0.0798866 3.50452 0.22578 3.68299C0.371674 3.86146 0.574744 3.98404 0.800627 4.03C1.13838 4.10004 1.44167 4.28435 1.65941 4.55188C1.87716 4.81941 1.99604 5.15381 1.99604 5.49875C1.99604 5.84369 1.87716 6.17809 1.65941 6.44562C1.44167 6.71315 1.13838 6.89746 0.800627 6.9675C0.574323 7.01354 0.370931 7.1365 0.224989 7.31548C0.0790466 7.49446 -0.000448739 7.71844 1.90547e-06 7.94938V9.5C1.90547e-06 9.76522 0.105359 10.0196 0.292895 10.2071C0.480431 10.3946 0.734785 10.5 1 10.5H13C13.2652 10.5 13.5196 10.3946 13.7071 10.2071C13.8946 10.0196 14 9.76522 14 9.5V7.94938C13.9999 7.71886 13.9201 7.49547 13.7742 7.31701C13.6283 7.13854 13.4253 7.01596 13.1994 6.97C12.8616 6.89996 12.5583 6.71565 12.3406 6.44812C12.1228 6.18059 12.004 5.84619 12.004 5.50125C12.004 5.15631 12.1228 4.82191 12.3406 4.55438C12.5583 4.28685 12.8616 4.10254 13.1994 4.0325V4.03ZM1 7.95C1.56481 7.83494 2.07251 7.52825 2.43715 7.08183C2.80179 6.63542 3.00097 6.07672 3.00097 5.50031C3.00097 4.9239 2.80179 4.3652 2.43715 3.91879C2.07251 3.47238 1.56481 3.16568 1 3.05062V1.5H4.5V9.5H1V7.95ZM13 7.95V9.5H5.5V1.5H13V3.05C12.4352 3.16506 11.9275 3.47175 11.5629 3.91817C11.1982 4.36458 10.999 4.92328 10.999 5.49969C10.999 6.0761 11.1982 6.6348 11.5629 7.08121C11.9275 7.52762 12.4352 7.83432 13 7.94938V7.95Z" fill="#78006E"/>
</svg>
