<svg viewBox="0 0 32 32" fill="none" xmlns="http://www.w3.org/2000/svg">
<path d="M24.7625 7.83004C24.0391 6.10285 22.8214 4.62796 21.2624 3.59068C19.7034 2.5534 17.8726 2 16 2C14.1275 2 12.2967 2.5534 10.7377 3.59068C9.17863 4.62796 7.96093 6.10285 7.23754 7.83004C5.68074 8.55097 4.36142 9.70031 3.43391 11.1436C2.5064 12.5869 2.00905 14.2644 2.00004 15.98C1.98629 20.8325 5.92004 24.88 10.7675 25.005C12.2339 25.0433 13.6873 24.721 15 24.0663V29.005C15 29.2703 15.1054 29.5246 15.2929 29.7121C15.4805 29.8997 15.7348 30.005 16 30.005C16.2653 30.005 16.5196 29.8997 16.7071 29.7121C16.8947 29.5246 17 29.2703 17 29.005V24.0663C18.2423 24.6858 19.6119 25.0072 21 25.005H21.2325C26.08 24.88 30.0138 20.835 30 15.9825C29.9917 14.2665 29.4946 12.5883 28.567 11.1445C27.6395 9.70072 26.3198 8.55103 24.7625 7.83004ZM21.1813 23.005C19.7371 23.0453 18.3163 22.6346 17.1163 21.83C17.0771 21.805 17.0384 21.7813 17 21.7588V16.6225L22.4475 13.9C22.5651 13.8413 22.6699 13.7599 22.756 13.6607C22.8421 13.5614 22.9078 13.4461 22.9493 13.3215C22.9909 13.1968 23.0075 13.0652 22.9982 12.9341C22.9888 12.803 22.9538 12.6751 22.895 12.5575C22.8363 12.44 22.7549 12.3352 22.6557 12.2491C22.5564 12.163 22.4411 12.0973 22.3165 12.0558C22.1918 12.0142 22.0602 11.9976 21.9291 12.0069C21.798 12.0162 21.6701 12.0513 21.5525 12.11L17 14.3875V11.005C17 10.7398 16.8947 10.4855 16.7071 10.2979C16.5196 10.1104 16.2653 10.005 16 10.005C15.7348 10.005 15.4805 10.1104 15.2929 10.2979C15.1054 10.4855 15 10.7398 15 11.005V17.3875L10.4475 15.11C10.2102 14.9914 9.93537 14.9718 9.68361 15.0558C9.43184 15.1397 9.22372 15.3202 9.10504 15.5575C8.98635 15.7949 8.96682 16.0697 9.05074 16.3215C9.13467 16.5732 9.31517 16.7814 9.55254 16.9L15 19.6225V21.755C14.9609 21.7775 14.9221 21.8013 14.8838 21.8263C13.6839 22.6315 12.2633 23.0435 10.8188 23.005C9.23782 22.9656 7.71681 22.3919 6.50355 21.3775C5.29029 20.3631 4.45627 18.9677 4.13738 17.4188C3.81848 15.8698 4.03349 14.2585 4.74739 12.8473C5.46128 11.4362 6.63199 10.3083 8.06879 9.64754C8.5232 9.43934 8.88249 9.06756 9.07504 8.60629C9.64584 7.24212 10.6072 6.07714 11.8382 5.25778C13.0692 4.43842 14.515 4.00127 15.9938 4.00127C17.4726 4.00127 18.9183 4.43842 20.1494 5.25778C21.3804 6.07714 22.3417 7.24212 22.9125 8.60629C23.1051 9.06756 23.4644 9.43934 23.9188 9.64754C25.3556 10.3083 26.5263 11.4362 27.2402 12.8473C27.9541 14.2585 28.1691 15.8698 27.8502 17.4188C27.5313 18.9677 26.6973 20.3631 25.484 21.3775C24.2708 22.3919 22.7498 22.9656 21.1688 23.005H21.1813Z" fill="black"/>
</svg>
