<svg width="14" height="14" viewBox="0 0 14 14" fill="none" xmlns="http://www.w3.org/2000/svg">
<path d="M12.5598 4.24703L5.55977 11.247C5.51914 11.2877 5.47089 11.32 5.41778 11.342C5.36467 11.364 5.30774 11.3753 5.25024 11.3753C5.19275 11.3753 5.13582 11.364 5.08271 11.342C5.0296 11.32 4.98134 11.2877 4.94071 11.247L1.87821 8.18453C1.79612 8.10244 1.75 7.9911 1.75 7.875C1.75 7.7589 1.79612 7.64756 1.87821 7.56547C1.9603 7.48337 2.07165 7.43726 2.18774 7.43726C2.30384 7.43726 2.41518 7.48337 2.49727 7.56547L5.25024 10.319L11.9407 3.62797C12.0228 3.54587 12.1341 3.49976 12.2502 3.49976C12.3663 3.49976 12.4777 3.54587 12.5598 3.62797C12.6419 3.71006 12.688 3.8214 12.688 3.9375C12.688 4.0536 12.6419 4.16494 12.5598 4.24703Z" fill="#00884F"/>
</svg>
