<svg width="16" height="17" viewBox="0 0 16 17" fill="none" xmlns="http://www.w3.org/2000/svg">
<path d="M10.3538 6.85375L8.70688 8.5L10.3538 10.1462C10.4002 10.1927 10.4371 10.2479 10.4622 10.3086C10.4873 10.3692 10.5003 10.4343 10.5003 10.5C10.5003 10.5657 10.4873 10.6308 10.4622 10.6914C10.4371 10.7521 10.4002 10.8073 10.3538 10.8538C10.3073 10.9002 10.2521 10.9371 10.1915 10.9622C10.1308 10.9873 10.0657 11.0003 10 11.0003C9.93431 11.0003 9.86925 10.9873 9.80855 10.9622C9.74786 10.9371 9.69271 10.9002 9.64625 10.8538L8 9.20687L6.35375 10.8538C6.3073 10.9002 6.25215 10.9371 6.19145 10.9622C6.13075 10.9873 6.0657 11.0003 6 11.0003C5.93431 11.0003 5.86925 10.9873 5.80855 10.9622C5.74786 10.9371 5.69271 10.9002 5.64625 10.8538C5.5998 10.8073 5.56295 10.7521 5.53781 10.6914C5.51266 10.6308 5.49972 10.5657 5.49972 10.5C5.49972 10.4343 5.51266 10.3692 5.53781 10.3086C5.56295 10.2479 5.5998 10.1927 5.64625 10.1462L7.29313 8.5L5.64625 6.85375C5.55243 6.75993 5.49972 6.63268 5.49972 6.5C5.49972 6.36732 5.55243 6.24007 5.64625 6.14625C5.74007 6.05243 5.86732 5.99972 6 5.99972C6.13268 5.99972 6.25993 6.05243 6.35375 6.14625L8 7.79313L9.64625 6.14625C9.69271 6.09979 9.74786 6.06294 9.80855 6.0378C9.86925 6.01266 9.93431 5.99972 10 5.99972C10.0657 5.99972 10.1308 6.01266 10.1915 6.0378C10.2521 6.06294 10.3073 6.09979 10.3538 6.14625C10.4002 6.1927 10.4371 6.24786 10.4622 6.30855C10.4873 6.36925 10.5003 6.4343 10.5003 6.5C10.5003 6.5657 10.4873 6.63075 10.4622 6.69145C10.4371 6.75214 10.4002 6.8073 10.3538 6.85375ZM14.5 8.5C14.5 9.78558 14.1188 11.0423 13.4046 12.1112C12.6903 13.1801 11.6752 14.0132 10.4874 14.5052C9.29973 14.9972 7.99279 15.1259 6.73192 14.8751C5.47104 14.6243 4.31285 14.0052 3.40381 13.0962C2.49477 12.1872 1.8757 11.029 1.6249 9.76809C1.37409 8.50721 1.50282 7.20028 1.99479 6.01256C2.48676 4.82484 3.31988 3.80968 4.3888 3.09545C5.45772 2.38122 6.71442 2 8 2C9.72335 2.00182 11.3756 2.68722 12.5942 3.90582C13.8128 5.12441 14.4982 6.77665 14.5 8.5ZM13.5 8.5C13.5 7.4122 13.1774 6.34883 12.5731 5.44436C11.9687 4.53989 11.1098 3.83494 10.1048 3.41866C9.09977 3.00238 7.9939 2.89346 6.92701 3.10568C5.86011 3.3179 4.8801 3.84172 4.11092 4.61091C3.34173 5.3801 2.8179 6.36011 2.60568 7.427C2.39347 8.4939 2.50238 9.59977 2.91867 10.6048C3.33495 11.6098 4.0399 12.4687 4.94437 13.0731C5.84884 13.6774 6.91221 14 8 14C9.45819 13.9983 10.8562 13.4184 11.8873 12.3873C12.9184 11.3562 13.4983 9.95818 13.5 8.5Z" fill="white"/>
</svg>
