<svg width="12" height="12" viewBox="0 0 12 12" fill="none" xmlns="http://www.w3.org/2000/svg">
<path d="M11.4605 10.6648C11.5128 10.7171 11.5543 10.7792 11.5825 10.8474C11.6108 10.9157 11.6254 10.9889 11.6254 11.0628C11.6254 11.1367 11.6108 11.2099 11.5825 11.2782C11.5543 11.3465 11.5128 11.4085 11.4605 11.4608C11.4083 11.513 11.3462 11.5545 11.2779 11.5828C11.2097 11.6111 11.1365 11.6256 11.0626 11.6256C10.9887 11.6256 10.9155 11.6111 10.8472 11.5828C10.7789 11.5545 10.7169 11.513 10.6646 11.4608L6.00007 6.79555L1.33554 11.4608C1.22999 11.5663 1.08684 11.6256 0.937569 11.6256C0.788301 11.6256 0.645148 11.5663 0.5396 11.4608C0.434052 11.3552 0.374756 11.2121 0.374756 11.0628C0.374756 10.9135 0.434052 10.7704 0.5396 10.6648L5.20483 6.00031L0.5396 1.33578C0.434052 1.23023 0.374756 1.08708 0.374756 0.937813C0.374756 0.788546 0.434052 0.645392 0.5396 0.539844C0.645148 0.434296 0.788301 0.375 0.937569 0.375C1.08684 0.375 1.22999 0.434296 1.33554 0.539844L6.00007 5.20508L10.6646 0.539844C10.7701 0.434296 10.9133 0.375 11.0626 0.375C11.2118 0.375 11.355 0.434296 11.4605 0.539844C11.5661 0.645392 11.6254 0.788546 11.6254 0.937813C11.6254 1.08708 11.5661 1.23023 11.4605 1.33578L6.7953 6.00031L11.4605 10.6648Z" fill="black"/>
</svg>
