<svg width="10" height="11" viewBox="0 0 10 11" fill="none" xmlns="http://www.w3.org/2000/svg">
<path d="M9.85378 9.64653C9.90024 9.69298 9.93709 9.74813 9.96223 9.80883C9.98737 9.86953 10.0003 9.93458 10.0003 10.0003C10.0003 10.066 9.98737 10.131 9.96223 10.1917C9.93709 10.2524 9.90024 10.3076 9.85378 10.354C9.80733 10.4005 9.75218 10.4373 9.69148 10.4625C9.63079 10.4876 9.56573 10.5006 9.50003 10.5006C9.43434 10.5006 9.36928 10.4876 9.30859 10.4625C9.24789 10.4373 9.19274 10.4005 9.14628 10.354L5.00003 6.20715L0.853784 10.354C0.759964 10.4478 0.632716 10.5006 0.500034 10.5006C0.367352 10.5006 0.240104 10.4478 0.146284 10.354C0.0524635 10.2602 -0.000244138 10.133 -0.000244141 10.0003C-0.000244143 9.8676 0.0524635 9.74035 0.146284 9.64653L4.29316 5.50028L0.146284 1.35403C0.0524635 1.26021 -0.000244141 1.13296 -0.000244141 1.00028C-0.000244141 0.867596 0.0524635 0.740348 0.146284 0.646528C0.240104 0.552708 0.367352 0.5 0.500034 0.5C0.632716 0.5 0.759964 0.552708 0.853784 0.646528L5.00003 4.7934L9.14628 0.646528C9.2401 0.552708 9.36735 0.5 9.50003 0.5C9.63272 0.5 9.75996 0.552708 9.85378 0.646528C9.94761 0.740348 10.0003 0.867596 10.0003 1.00028C10.0003 1.13296 9.94761 1.26021 9.85378 1.35403L5.70691 5.50028L9.85378 9.64653Z" fill="#A5A5A5"/>
</svg>
