<svg width="28" height="28" viewBox="0 0 28 28" fill="none" xmlns="http://www.w3.org/2000/svg">
<rect x="0.108333" y="0.108333" width="27.7833" height="27.7833" rx="13.8917" fill="white"/>
<rect x="0.108333" y="0.108333" width="27.7833" height="27.7833" rx="13.8917" stroke="#AAAAAA" stroke-width="0.216667"/>
<path d="M18.8535 18.1465C18.9 18.193 18.9368 18.2481 18.962 18.3088C18.9871 18.3695 19.0001 18.4346 19.0001 18.5003C19.0001 18.566 18.9871 18.631 18.962 18.6917C18.9368 18.7524 18.9 18.8076 18.8535 18.854C18.8071 18.9005 18.7519 18.9373 18.6912 18.9625C18.6305 18.9876 18.5655 19.0006 18.4998 19.0006C18.4341 19.0006 18.369 18.9876 18.3083 18.9625C18.2476 18.9373 18.1925 18.9005 18.146 18.854L13.9998 14.7072L9.85354 18.854C9.75972 18.9478 9.63247 19.0006 9.49979 19.0006C9.36711 19.0006 9.23986 18.9478 9.14604 18.854C9.05222 18.7602 8.99951 18.633 8.99951 18.5003C8.99951 18.3676 9.05222 18.2403 9.14604 18.1465L13.2929 14.0003L9.14604 9.85403C9.05222 9.76021 8.99951 9.63296 8.99951 9.50028C8.99951 9.3676 9.05222 9.24035 9.14604 9.14653C9.23986 9.05271 9.36711 9 9.49979 9C9.63247 9 9.75972 9.05271 9.85354 9.14653L13.9998 13.2934L18.146 9.14653C18.2399 9.05271 18.3671 9 18.4998 9C18.6325 9 18.7597 9.05271 18.8535 9.14653C18.9474 9.24035 19.0001 9.3676 19.0001 9.50028C19.0001 9.63296 18.9474 9.76021 18.8535 9.85403L14.7067 14.0003L18.8535 18.1465Z" fill="#4B4B4B"/>
</svg>
