<svg width="21" height="20" viewBox="0 0 21 20" fill="none" xmlns="http://www.w3.org/2000/svg">
<path d="M18.3844 3.88203C18.3095 3.82369 18.2223 3.78317 18.1295 3.76354C18.0366 3.74392 17.9405 3.7457 17.8484 3.76875L13.0727 4.9625L8.27969 2.56562C8.14614 2.49901 7.99317 2.48238 7.84844 2.51875L2.84844 3.76875C2.71323 3.80254 2.59319 3.88057 2.50741 3.99041C2.42163 4.10026 2.37502 4.23562 2.375 4.375V15.625C2.37501 15.72 2.39667 15.8137 2.43833 15.899C2.47998 15.9844 2.54054 16.0591 2.6154 16.1176C2.69025 16.176 2.77745 16.2166 2.87035 16.2363C2.96326 16.256 3.05943 16.2543 3.15156 16.2312L7.92734 15.0375L12.7203 17.4344C12.8073 17.4773 12.903 17.4997 13 17.5C13.0511 17.5 13.102 17.4937 13.1516 17.4812L18.1516 16.2312C18.2868 16.1974 18.4068 16.1194 18.4926 16.0096C18.5784 15.8997 18.625 15.7644 18.625 15.625V4.375C18.625 4.27994 18.6034 4.18613 18.5617 4.1007C18.52 4.01528 18.4593 3.94049 18.3844 3.88203ZM8.625 4.13593L12.375 6.01093V15.8641L8.625 13.9891V4.13593ZM3.625 4.86328L7.375 3.92578V13.8867L3.625 14.8242V4.86328ZM17.375 15.1367L13.625 16.0742V6.11328L17.375 5.17578V15.1367Z" fill="white"/>
</svg>
