<svg viewBox="0 0 231 126" fill="none" xmlns="http://www.w3.org/2000/svg" width="401" height="220">
<path d="M221.67 121.962C221.67 120.508 222.558 119.296 224.254 118.569L225.627 118.004V123.012C225.627 123.254 225.627 123.577 225.708 123.739C224.739 124.143 224.254 124.304 223.77 124.304C222.397 124.223 221.67 123.254 221.67 121.962ZM225.547 116.55V117.035L221.104 118.973C219.004 119.862 217.954 120.993 217.954 122.608C217.954 124.627 219.408 125.919 221.347 125.919C222.316 125.919 222.962 125.758 225.87 124.466C226.193 125.516 227 125.919 228.293 125.919C229.02 125.919 229.666 125.677 230.07 125.435C229.666 125.112 229.343 124.546 229.343 123.577V117.116C229.343 114.208 227.808 112.673 225.143 112.673C223.689 112.673 222.477 113.077 219.893 114.208V115.177C221.185 114.612 222.154 114.208 223.204 114.208C224.739 114.127 225.547 114.935 225.547 116.55ZM213.996 106.212L211.331 108.796L213.996 111.462L216.581 108.796L213.996 106.212ZM212.3 117.358V123.254C212.3 125.031 212.947 126 214.562 126C215.45 126 216.258 125.677 216.662 125.193C216.258 124.869 215.935 124.546 215.935 122.769V112.673L211.654 114.45C212.139 115.339 212.3 115.823 212.3 117.358ZM201.235 123.496V115.016C202.366 114.531 202.77 114.45 203.254 114.45C204.627 114.45 205.839 115.904 205.839 119.216C205.839 122.608 204.708 125.112 202.85 125.112C201.962 124.95 201.235 124.466 201.235 123.496ZM197.6 111.462V125.919L200.75 125.031C201.639 125.596 202.204 125.919 203.497 125.919C205.92 125.919 209.877 124.143 209.877 118.085C209.877 114.369 207.939 112.593 205.92 112.593C204.87 112.593 204.304 112.754 201.396 114.046V106.696L197.116 108.473C197.439 109.523 197.6 110.008 197.6 111.462ZM186.939 121.962C186.939 120.508 187.827 119.296 189.523 118.569L190.896 118.004V123.012C190.896 123.254 190.897 123.577 190.977 123.739C190.008 124.143 189.523 124.304 189.039 124.304C187.666 124.223 186.939 123.254 186.939 121.962ZM190.896 116.55V117.035L186.454 118.973C184.354 119.862 183.304 120.993 183.304 122.608C183.304 124.627 184.758 125.919 186.697 125.919C187.666 125.919 188.312 125.758 191.22 124.466C191.543 125.516 192.35 125.919 193.643 125.919C194.37 125.919 195.016 125.677 195.42 125.435C195.016 125.112 194.693 124.546 194.693 123.577V117.116C194.693 114.208 193.158 112.673 190.493 112.673C189.039 112.673 187.827 113.077 185.243 114.208V115.177C186.535 114.612 187.504 114.208 188.554 114.208C190.089 114.127 190.896 114.935 190.896 116.55ZM174.339 125.677H179.427C178.862 124.708 178.781 124.223 178.781 122.769V117.762C179.75 116.308 181.123 115.743 183.547 115.743V112.673C180.72 112.673 179.67 114.208 178.781 116.712V112.673L174.5 114.45C174.985 115.419 175.147 115.904 175.147 117.358V122.769C174.985 124.223 174.823 124.708 174.339 125.677ZM160.285 119.054C160.285 118.973 160.366 118.893 160.366 118.812L163.273 112.431L165.697 119.054H160.285ZM156.085 125.677H160.043C159.477 124.385 159.316 122.123 159.881 119.943H165.939L167.07 123.012C167.635 124.466 167.473 125.031 166.989 125.677H172.966C172.4 125.193 171.835 124.385 171.35 123.012L165.777 108.312L162.223 109.846C162.466 111.3 162.062 112.996 160.447 116.469L156.085 125.677ZM139.689 119.216C139.689 114.773 141.062 113.4 142.435 113.4C143.808 113.4 145.181 114.773 145.181 119.216C145.181 123.739 143.808 125.031 142.435 125.031C140.981 125.031 139.689 123.739 139.689 119.216ZM142.354 125.919C145.747 125.919 148.977 123.739 148.977 119.216C148.977 114.693 145.747 112.593 142.354 112.593C138.962 112.593 135.731 114.773 135.731 119.216C135.812 123.739 139.043 125.919 142.354 125.919ZM127.573 114.854V121.8C127.573 124.304 128.785 125.919 131.208 125.919C132.5 125.919 133.47 125.596 135.247 124.789V124.062C134.6 124.304 134.116 124.466 133.55 124.466C131.935 124.466 131.289 123.416 131.289 121.962V113.885H134.762L135.004 112.916H131.289V110.169L127.008 111.946C127.412 112.916 127.573 113.4 127.573 114.854Z" fill="#BE008D"/>
<path d="M177.731 98.1349C177.731 101.931 180.235 104.516 184.031 104.516C187.1 104.516 189.281 102.9 190.089 100.073L189.685 99.9926C189.12 101.285 187.666 102.012 185.727 102.012C183.95 102.012 182.739 101.285 182.093 99.831L184.596 98.781C188.312 97.2464 189.604 96.1156 189.604 94.581C189.604 92.5618 187.666 91.1887 184.758 91.1887C180.639 91.108 177.731 94.0156 177.731 98.1349ZM183.385 98.2964L181.77 98.9426C181.608 98.2964 181.527 97.5695 181.527 96.681C181.527 93.7733 182.658 91.9964 184.354 91.9964C185.646 91.9964 186.293 92.9656 186.293 94.5003C186.293 96.2772 185.404 97.4079 183.385 98.2964ZM171.754 94.6618V101.689C171.754 103.466 172.4 104.435 174.016 104.435C174.904 104.435 175.712 104.112 176.116 103.627C175.712 103.304 175.389 102.981 175.389 101.204V94.581C175.389 92.9656 174.581 91.1079 171.916 91.1079C170.946 91.1079 170.3 91.2695 167.15 92.5618C166.585 91.8349 165.616 91.1079 163.92 91.1079C162.95 91.1079 162.304 91.2695 159.396 92.481V91.1079L155.116 92.8849C155.6 93.8541 155.762 94.3387 155.762 95.7926V101.204C155.762 102.658 155.6 103.143 155.116 104.112H160.204C159.639 103.143 159.558 102.658 159.558 101.204V93.3695C160.931 92.8041 161.335 92.6426 162.062 92.6426C163.193 92.6426 163.839 93.2887 163.839 94.6618V101.285C163.839 102.739 163.677 103.223 163.193 104.193H168.281C167.716 103.223 167.635 102.739 167.635 101.285V93.4503C169.008 92.8849 169.412 92.7233 170.139 92.7233C171.108 92.6426 171.754 93.3695 171.754 94.6618ZM144.05 97.731C144.05 93.2887 145.423 91.9156 146.796 91.9156C148.17 91.9156 149.543 93.2887 149.543 97.731C149.543 102.254 148.17 103.546 146.796 103.546C145.423 103.627 144.05 102.254 144.05 97.731ZM146.796 104.435C150.189 104.435 153.42 102.254 153.42 97.731C153.42 93.2079 150.189 91.1079 146.796 91.1079C143.404 91.1079 140.173 93.2887 140.173 97.731C140.173 102.254 143.485 104.435 146.796 104.435ZM133.389 104.435C136.297 104.435 138.316 102.9 139.043 99.9926L138.639 99.9118C138.073 101.204 136.781 101.931 135.085 101.931C132.5 101.931 131.046 100.073 131.046 96.5195C131.046 93.6926 132.5 91.9156 134.681 91.9156C136.054 91.9156 137.104 92.7233 137.831 94.4195H138.154V91.6733C136.7 91.2695 135.65 91.0272 134.52 91.0272C130.077 91.0272 127.17 93.6926 127.17 97.8118C127.25 101.85 129.673 104.435 133.389 104.435ZM121.031 89.9772V101.689C121.031 103.466 121.677 104.435 123.293 104.435C124.181 104.435 124.989 104.112 125.393 103.627C124.989 103.304 124.666 102.981 124.666 101.204V85.2118L120.385 86.9887C120.87 88.0387 121.031 88.5233 121.031 89.9772ZM106.654 98.1349C106.654 101.931 109.158 104.516 112.954 104.516C116.023 104.516 118.204 102.9 119.012 100.073L118.608 99.9926C118.043 101.285 116.589 102.012 114.65 102.012C112.873 102.012 111.662 101.285 111.016 99.831L113.52 98.781C117.235 97.2464 118.527 96.1156 118.527 94.581C118.527 92.5618 116.589 91.1887 113.681 91.1887C109.562 91.108 106.654 94.0156 106.654 98.1349ZM112.308 98.2964L110.693 98.9426C110.531 98.2964 110.45 97.5695 110.45 96.681C110.45 93.7733 111.581 91.9964 113.277 91.9964C114.57 91.9964 115.216 92.9656 115.216 94.5003C115.216 96.2772 114.327 97.4079 112.308 98.2964ZM85.1696 89.6541L90.1773 104.112H92.2773L95.7503 93.4503L99.3042 104.112H101.404L107.462 86.6656H103.908C104.958 87.9579 105.12 90.2195 103.989 93.531L101.808 99.831L97.5273 86.4233L93.8927 87.958C94.9427 90.8656 94.7811 93.2887 93.9734 95.631L92.6004 99.831L89.1273 89.1695C88.8042 88.0387 88.885 87.3118 89.5311 86.7464H83.3119C84.1196 87.1503 84.6042 88.1195 85.1696 89.6541Z" fill="#BE008D"/>
<path d="M127.977 50.1581C127.977 50.4004 127.896 50.7235 127.896 50.9658C127.896 51.2081 127.816 51.5312 127.816 51.7735C127.735 52.9042 127.654 54.035 127.25 55.1658C127.008 55.7312 126.927 56.2158 126.846 56.7004C126.766 57.185 126.604 57.7504 126.362 58.3965C126.362 58.3965 126.362 58.4773 126.281 58.6388C126.2 58.8004 126.2 59.1235 126.12 59.4465C126.12 59.5273 126.12 59.6081 126.039 59.6081C126.039 59.6888 126.039 59.6888 126.039 59.7696C125.958 59.9312 125.958 60.0927 125.877 60.2542C125.635 61.0619 125.312 62.0311 124.908 63.1619C124.343 64.8581 123.696 66.3927 122.889 67.7658C124.343 67.5235 125.473 66.9581 126.927 65.6658C127.654 64.6158 128.381 63.5658 129.108 62.3542C128.704 61.7888 127.977 51.935 127.977 50.1581Z" fill="#78006E"/>
<path d="M117.962 32.0658C117.073 31.5004 116.104 31.0158 115.135 30.6927C110.854 30.6119 106.735 35.7812 104.231 38.9312C106.17 39.2543 108.27 40.6273 109.239 41.8389C109.804 42.485 110.208 43.2119 110.773 43.8581C111.096 44.1812 111.177 44.585 111.339 44.9889C111.743 45.9581 111.339 46.9273 111.581 47.8966C111.662 48.2196 111.662 48.5427 111.662 48.9466C111.743 49.2696 111.823 49.9966 111.823 50.2389L112.066 50.0773C114.731 48.3004 117.396 46.2004 119.9 44.2619C119.9 44.1812 119.9 44.1812 119.9 44.1004C120.143 42.6466 120.304 41.1119 120.546 39.6581C120.789 38.285 120.627 36.9119 120.304 35.7004C120.062 34.2466 119.254 32.9543 117.962 32.0658Z" fill="#78006E"/>
<path d="M186.697 34.8926L186.293 34.6503C185.97 34.408 185 34.1657 184.273 34.0042C182.173 34.408 178.62 39.8195 178.135 41.4349C179.427 42.0003 180.639 42.8888 181.366 43.858C181.527 44.1003 181.77 44.3426 181.931 44.5849C182.254 45.0695 182.577 45.4734 182.9 45.8772C183.223 46.2811 183.385 46.6041 183.547 47.008V47.0888C183.789 47.6541 183.789 48.3003 183.708 48.8657C183.708 49.2695 183.708 49.6734 183.789 49.9965C183.87 50.3195 183.87 50.5618 183.87 50.8849C184.031 51.0465 184.112 51.208 184.193 51.4503C184.193 51.6118 184.193 51.8541 184.112 52.0157C184.193 52.3388 184.354 53.1465 184.597 54.4388C184.677 54.9234 184.758 55.408 184.92 55.8926C187.343 49.4311 189.443 43.0503 190.008 37.0734C189.685 36.7503 189.362 36.4272 188.958 36.1849C188.312 35.6195 187.423 35.1349 186.697 34.8926Z" fill="#78006E"/>
<path d="M212.139 53.8735C211.977 54.3582 211.896 54.8428 211.816 55.3274C211.735 55.7312 211.412 57.2658 211.412 57.2658C211.331 57.6697 211.17 57.9928 211.089 58.3966C210.846 59.2851 210.604 60.1735 210.443 61.1428C210.362 61.5466 210.281 61.9505 210.2 62.2735C210.12 62.5966 209.796 64.6966 209.231 64.9389C209.796 64.8582 212.3 64.2928 213.189 63.2428C213.27 63.0812 213.593 62.3543 213.835 61.7082C213.835 61.6274 213.916 61.4658 213.916 61.4658L213.996 61.3043C213.593 60.1735 212.543 56.2158 212.139 53.8735Z" fill="#78006E"/>
<path d="M148.17 43.2926C148.008 45.8772 147.766 48.4618 147.443 49.5118C147.2 50.2388 147.12 50.8849 146.958 51.3695C146.877 52.0157 146.716 52.5811 146.473 53.4695C146.473 53.5503 146.473 53.6311 146.473 53.7118C146.473 54.5195 146.554 56.7003 145.585 59.5272C145.1 62.1118 144.05 64.5349 142.516 65.8272C143.243 66.0695 144.616 65.9887 146.312 64.3734C146.716 63.6464 147.039 63.0003 147.281 62.6772C147.847 61.8695 148.17 61.4657 149.381 59.1234L149.462 58.8811C148.816 52.7426 148.331 47.008 148.17 43.2926Z" fill="#78006E"/>
<path d="M69.1773 30.6927C63.2811 28.5119 57.8696 27.7042 51.8926 26.735C43.5734 30.5311 35.2542 34.3273 28.8734 38.0427C31.8619 37.8811 38.0003 37.9619 40.9888 37.8004C42.2003 37.9619 43.4926 38.1234 44.785 38.1234C45.9965 38.5273 46.8042 38.3658 47.8542 38.285C50.6811 38.4465 53.185 39.335 56.1734 39.4158C57.3042 39.335 58.2734 40.1427 59.3234 40.385C59.808 40.2234 61.1003 40.7888 61.5849 40.7888C62.2311 40.6273 62.7965 41.3542 63.5234 41.3542C64.6542 41.5965 65.6234 41.9196 66.6734 42.485C67.6426 42.8081 68.6926 42.8081 69.5003 43.535C72.2465 45.3927 74.9926 47.5734 76.608 50.6427C77.4965 52.5004 78.1426 53.9542 78.1426 55.6504C81.2119 52.8234 82.9888 50.5619 84.3619 48.3811C85.008 45.4734 85.0888 42.7273 84.4426 41.1119C81.0503 36.4273 74.508 33.1965 69.1773 30.6927Z" fill="#78006E"/>
<path d="M142.516 65.908C142.435 65.908 142.435 65.908 142.435 65.908C142.112 65.7465 141.789 65.5849 141.466 65.3426C141.466 65.3426 141.385 65.2618 141.304 65.2618C140.254 64.5349 139.608 60.0118 139.527 59.7695C139.446 59.5272 139.446 59.2041 139.366 58.9618C139.043 57.5888 138.639 55.8118 138.154 54.0349C138.073 53.8734 138.073 53.7118 137.993 53.5503C137.912 53.308 137.831 53.0657 137.831 52.9041C137.912 51.2888 137.75 49.6734 137.508 48.1388C137.427 47.3311 137.346 46.5234 137.266 45.7157C137.185 45.1503 137.185 45.4734 137.185 45.1503C137.104 44.5041 137.104 44.1003 137.104 42.9695C137.104 42.1618 137.104 41.3542 137.104 40.4657C137.104 40.0618 137.104 39.658 137.104 39.3349V39.0118C137.104 39.0118 134.762 40.0618 134.277 40.3041C134.116 40.3849 133.954 40.4657 133.793 40.5465C132.904 40.9503 132.743 41.0311 132.5 41.2734C132.339 41.4349 132.177 41.5965 131.612 41.9195C131.612 41.9195 129.027 43.5349 127.816 44.5849V44.6657V44.7465C127.816 44.8272 127.816 44.8272 127.816 44.908C127.816 44.9888 127.816 45.0695 127.816 45.1503C127.816 45.4734 127.816 45.8772 127.896 46.3618C127.896 46.6041 127.896 46.9272 127.977 47.2503C127.977 47.6541 128.058 48.058 128.058 48.5426C128.139 49.0272 128.139 48.7849 128.22 49.2695C128.22 49.5926 128.3 49.8349 128.3 50.158C128.3 50.158 128.3 50.2388 128.3 50.4003C128.3 52.1772 129.027 62.0311 129.431 62.5965H129.593C129.673 63.4849 129.996 64.2118 130.32 64.858C130.481 65.1003 130.643 65.4234 130.723 65.6657C131.208 66.4734 131.612 67.2811 131.773 68.2503C131.773 68.4118 131.854 68.5734 131.854 68.7349C132.177 69.2195 132.339 69.7041 132.823 70.108C133.066 70.3503 133.227 70.5118 133.47 70.6734C133.954 70.9157 134.52 70.9965 135.085 71.0772C135.731 71.158 136.296 71.2388 136.862 71.3195C137.023 71.3195 137.266 71.2388 137.427 71.158C137.508 71.158 137.67 71.0772 137.75 71.0772C140.173 70.4311 143.404 69.1388 145.02 67.0388L145.746 66.0695C145.746 65.9888 145.827 65.9888 145.827 65.908C145.989 65.6657 146.393 64.9388 146.554 64.6157C144.616 66.0695 143.243 66.0695 142.516 65.908Z" fill="#BE008D"/>
<path d="M122.889 67.7658C122.808 67.7658 122.162 67.8465 122.162 67.8465C121.677 67.8465 121.435 67.685 121.435 67.685C120.789 67.1196 120.223 65.5042 120.062 64.3735C119.981 63.7273 119.577 60.8196 119.577 60.7388C119.497 60.335 119.497 59.6081 119.416 58.6389C119.497 57.6696 119.577 56.8619 119.577 56.135C119.658 55.085 119.658 54.7619 119.9 53.5504C119.981 53.0658 120.062 51.5312 120.062 50.2388V49.4312H119.9L119.658 49.5119C119.658 49.5119 119.254 49.7542 119.173 49.835C119.012 49.9158 118.77 50.0773 118.608 50.1581C117.881 50.5619 117.073 51.0465 116.347 51.5312C115.297 52.2581 114.327 52.985 113.439 53.7119C113.116 53.9542 112.873 54.1965 112.55 54.4388C111.581 55.2465 110.612 56.0542 109.804 57.0235C109.481 57.3465 108.673 58.235 108.673 58.235C105.281 61.385 102.939 63.4042 99.8696 64.2927C99.3042 64.4542 98.9811 64.6158 98.9004 64.8581C98.8196 64.8581 98.6581 64.8581 98.4158 64.8581C98.335 64.8581 98.335 64.8581 98.2542 64.8581C98.0119 64.8581 97.6888 64.8581 97.5273 64.9389C97.3657 64.9389 97.1234 65.0196 96.9619 65.0196C96.7196 65.0196 96.5581 64.9389 96.3965 64.8581C95.9119 64.4542 95.5888 63.9696 95.4273 63.5658L95.3465 63.4042C94.9427 62.3542 94.5388 61.3042 94.4581 60.2542C94.2965 58.0735 94.5388 56.0542 95.1042 54.2773C95.8311 52.0965 96.6388 49.7542 97.9311 47.6542C99.1427 45.4735 100.597 43.535 102.212 41.435C102.616 40.9504 103.02 40.4658 103.423 40.0619C103.585 39.8196 103.827 39.4965 103.989 39.2542L104.07 39.0927C106.573 35.9427 110.693 30.7735 114.973 30.8542C114.327 30.6927 113.6 30.5312 112.954 30.4504C112.631 30.4504 111.339 30.2888 110.935 30.2888H110.854C110.127 30.2081 109.4 30.1273 108.835 30.5312C106.331 31.0965 104.231 32.6312 102.454 34.0042C99.9504 35.9427 97.285 38.0427 94.8619 40.385C91.4696 43.6965 89.2081 46.8465 87.835 50.3196C87.7542 50.5619 87.5927 50.885 87.4311 51.1273C87.3504 51.2888 87.2696 51.4504 87.1888 51.6927C87.0273 52.0965 86.785 52.5004 86.6234 52.9042C85.9773 54.1965 85.3311 55.6504 84.9273 57.1042C84.8465 57.5081 84.7658 57.9119 84.685 58.3158C84.6042 58.6388 84.6042 58.9619 84.5234 59.285C84.2811 60.4158 83.9581 61.5465 83.7158 62.5965C83.4734 63.4042 83.7158 64.1312 84.2811 64.6158C84.5234 64.8581 84.685 65.0196 84.685 65.4235C85.0081 67.4427 85.8158 68.8965 87.3504 70.2696C87.4311 70.3504 87.5119 70.4312 87.5927 70.4312C87.6734 70.4312 87.7542 70.5119 87.7542 70.5927C88.0773 71.2389 88.6427 71.4812 89.3696 71.4812C89.6119 71.4812 89.8542 71.4812 90.2581 71.4004L90.5004 71.3196C90.8234 70.9965 90.9042 70.5119 90.7427 69.9465C90.9042 69.9465 90.5811 69.6235 90.6619 69.6235C91.1465 69.6235 92.1157 69.9465 92.5196 69.9465H92.6004C92.9234 70.0273 93.3273 70.0273 93.6504 70.0273C94.2965 70.0273 94.7811 69.8658 95.2657 69.5427C95.2657 69.5427 95.3465 69.5427 95.5888 69.5427H95.7504C95.8311 69.5427 95.9119 69.5427 95.9119 69.5427C97.2042 69.4619 98.4965 68.8158 99.6273 68.2504C100.354 67.9273 101.081 67.5235 101.727 67.3619C102.05 67.2812 102.293 67.1196 102.535 66.9581C102.616 66.8773 102.697 66.7965 102.858 66.7965C103.423 66.4735 103.908 65.9889 104.393 65.5042C104.877 65.0196 105.443 64.4542 106.008 64.2119C106.573 63.8888 107.22 63.485 107.947 62.9196C108.108 62.7581 108.27 62.5965 108.431 62.435C108.593 62.3542 108.673 62.1927 108.835 62.1119C109.32 61.8696 109.804 61.7081 110.37 61.6273V61.7081C110.612 63.0004 111.177 65.6658 111.177 65.6658C111.258 66.0696 111.339 66.4735 111.339 66.7965L111.42 67.1196C111.5 67.5235 111.581 68.0081 112.147 68.4119C112.631 68.8158 113.035 69.4619 113.358 70.3504C113.6 71.1581 114.489 71.9658 115.7 71.9658C116.266 72.1273 116.912 72.2081 117.558 72.2081C118.204 72.2081 118.931 72.1273 119.739 71.9658C120.143 71.885 122.889 71.1581 124.666 68.8158C124.908 68.5735 125.15 68.3312 125.312 68.0081C125.797 67.2004 126.281 66.5542 126.766 65.9081C125.554 66.9581 124.343 67.5235 122.889 67.7658Z" fill="#BE008D"/>
<path d="M59.6466 2.42332L59.7273 2.34255L60.4543 0.000244141C56.0927 1.61563 40.8273 7.02716 35.2543 8.88486L35.0927 8.96563L34.5273 11.3887L35.0927 11.2272C40.9081 9.2887 55.3658 4.11947 59.6466 2.42332Z" fill="#BE008D"/>
<path d="M208.989 31.4194C210.12 32.3079 212.058 33.7617 213.108 34.731C213.997 35.5387 213.027 34.6502 214.077 35.2156C214.32 35.3771 214.562 35.5387 214.723 35.781C215.531 36.6694 215.935 37.2348 216.743 36.4271C217.066 36.1041 217.147 34.9733 216.985 34.5694C216.097 32.7117 216.823 32.7117 218.439 33.1964C219.489 33.5194 219.489 32.5502 219.57 31.1771C219.57 31.0156 219.489 30.2887 219.57 30.2079C220.135 29.804 221.347 29.2387 221.023 28.8348C220.781 28.431 220.943 28.3502 220.7 27.8656C220.377 27.6233 218.843 26.8156 218.843 26.2502C218.762 25.8464 218.52 25.4425 218.277 25.1194C217.389 24.231 215.37 22.9387 214.32 22.2925C214.158 22.131 213.916 22.0502 213.754 21.8079C213.593 21.5656 213.189 21.4041 213.108 21.1617C212.3 21.4041 212.22 21.7271 211.654 22.2117C210.281 23.5848 209.312 25.3617 208.02 26.8156C207.616 27.3002 207.293 27.8656 206.808 28.3502C206.566 28.5925 206.485 28.9156 206.323 29.1579C206.323 29.481 205.839 29.804 205.92 30.1271C206.647 30.2887 207.697 30.6117 208.262 31.0156C208.504 31.0964 208.747 31.2579 208.989 31.4194Z" fill="#BE008D"/>
<path d="M207.535 64.1312C207.373 63.9696 207.293 63.6465 207.212 63.4042C207.212 63.3235 207.131 63.1619 207.131 63.0812C207.05 62.6773 206.889 62.3542 206.808 61.9504C206.485 61.0619 206.162 60.7388 206 59.8504C205.677 58.6388 205.516 57.3465 205.273 56.0542C205.193 55.4081 205.031 54.8427 204.95 54.1965L204.789 53.5504C204.385 51.2888 203.9 49.0273 203.739 46.685V46.5235C203.739 46.2004 203.658 45.8773 203.496 45.5542C203.335 45.1504 203.254 44.7465 203.173 44.2619V44.1811C203.093 43.7773 203.012 43.2927 203.012 42.8888C202.931 42.1619 202.77 41.435 202.77 40.7081C202.689 39.9811 202.446 38.1235 202.204 36.5081C202.043 35.4581 201.881 34.5696 201.881 34.2465C201.881 34.1658 201.881 34.085 201.881 34.0042C201.881 33.5196 201.8 33.035 201.639 32.7119C201.477 32.3888 201.396 31.8235 201.316 30.935C201.235 30.2888 201.235 29.5619 201.235 28.9158C201.154 27.8658 201.154 26.735 200.993 25.685C200.912 24.7965 201.073 16.7196 201.154 13.9735C201.235 12.035 201.316 10.3388 201.316 9.77346C201.316 9.28884 201.235 8.72346 201.154 8.23884C201.073 7.99653 201.154 6.94653 201.154 6.94653L200.508 7.18884C199.781 7.26961 198.731 7.99653 197.762 8.64269C197.277 8.96576 196.793 9.36961 196.55 9.45038C196.066 9.69269 195.339 10.1773 194.612 10.6619C193.643 11.3081 192.512 12.035 192.027 12.1965C191.785 12.2773 191.058 12.7619 191.058 12.7619C191.058 12.7619 191.704 13.1658 192.027 13.4888C192.27 13.7311 192.512 14.0542 192.512 14.2965C192.431 15.1042 192.35 16.5581 192.35 18.1735C192.431 18.9811 192.35 22.9388 192.431 23.9888C192.27 24.9581 192.108 27.9465 191.785 29.4004C191.22 32.2273 190.573 35.3773 190.412 36.7504C190.412 36.8311 190.412 36.9119 190.331 36.9927C189.766 42.9696 187.666 49.3504 185.243 55.8119C185.243 55.8927 185.162 55.9735 185.162 56.0542C185.081 56.2158 185 56.4581 184.92 56.6196C184.839 56.8619 184.677 57.1042 184.596 57.4273C184.516 57.5888 184.435 57.7504 184.354 57.8312C184.273 57.9927 184.193 58.235 184.031 58.3965C183.95 58.4773 183.95 58.6388 183.87 58.7196L183.708 59.0427C181.77 62.8388 179.831 65.0196 178.62 66.1504L178.458 66.3119C178.054 66.635 177.65 66.7965 177.327 66.7965C176.439 66.7965 175.631 65.7465 175.146 65.1004C175.066 64.9388 174.904 64.8581 174.823 64.6965C174.42 64.2927 174.096 63.8081 173.854 63.1619C173.208 61.4658 172.966 59.6888 173.046 57.8312C173.208 54.6812 173.935 51.5311 175.066 48.4619C175.55 47.1696 176.196 45.4735 177.004 43.8581C177.085 43.7773 177.085 43.6158 177.166 43.535L177.246 43.2927C177.246 43.2119 177.327 43.2119 177.327 43.1311C177.327 43.0504 177.408 42.9696 177.408 42.8888C177.489 42.8081 177.489 42.7273 177.57 42.5658C177.65 42.485 177.65 42.4042 177.731 42.3235C177.812 42.1619 177.893 42.0004 178.054 41.8388L178.216 41.5965C178.296 41.435 178.377 41.2735 178.458 41.1927L178.539 41.1119C179.023 39.5773 182.577 34.085 184.677 33.6811C184.677 33.6811 184.354 33.6004 184.193 33.6004C184.031 33.6004 183.87 33.6004 183.87 33.6004C182.981 33.6004 182.254 33.7619 181.608 34.085C181.043 34.3273 180.154 34.4888 179.266 34.7311C178.054 34.9735 176.762 35.2158 175.954 35.7811C174.904 36.5081 173.854 37.1542 172.804 37.7196L172.32 37.9619C170.946 38.7696 169.735 39.9811 168.846 41.435C168.12 42.6465 167.393 44.0196 167.554 45.7158C167.635 46.2004 167.473 46.7658 167.312 47.2504C167.07 48.0581 166.827 48.8658 166.585 49.6735C166.343 50.5619 166.02 51.4504 165.777 52.3388C165.696 52.7427 165.616 53.2273 165.535 53.6311C165.535 53.7927 165.454 54.035 165.454 54.1965V54.3581L165.535 54.4388C165.939 55.0042 165.777 55.6504 165.535 56.3773C165.454 56.5388 165.454 56.7811 165.373 56.9427V57.0235C165.293 57.4273 165.212 57.9119 165.454 58.3158C164.808 58.9619 165.131 59.6888 165.373 60.0927L165.454 60.335C165.616 60.7388 165.616 61.1427 165.696 61.5465C165.777 62.0311 165.777 62.5158 165.939 63.0004C166.181 63.5658 167.231 64.2927 167.473 64.4542C167.554 64.535 167.716 64.6158 167.877 64.7773C167.796 64.8581 167.473 65.3427 167.312 65.3427C167.15 65.4235 166.423 65.8273 166.1 65.9081C165.454 65.9888 164.808 65.9081 164.243 65.6658C164.162 65.6658 164.081 65.585 164 65.5042C163.92 65.5042 163.92 65.4235 163.839 65.4235C163.758 65.3427 163.677 65.3427 163.596 65.2619C163.516 65.2619 163.516 65.1811 163.435 65.1811C163.354 65.1004 163.273 65.0196 163.193 64.9388C163.193 64.8581 163.112 64.8581 163.112 64.7773C163.031 64.6158 162.87 64.535 162.789 64.3735C162.708 64.2927 162.627 64.2119 162.466 64.1312C161.981 63.6465 161.577 63.0812 161.335 62.5158C161.254 62.2735 161.254 62.1119 161.254 61.8696C160.931 61.385 160.77 60.9004 160.608 60.335C160.446 59.4465 160.204 58.6388 159.962 57.8312C159.639 56.7812 159.396 55.8119 159.235 54.6811C159.154 54.035 159.073 53.4696 158.993 52.9042C158.912 52.0965 158.831 51.3696 158.67 50.4004C158.589 50.0773 158.589 49.835 158.508 49.5927C158.427 49.2696 158.346 48.8658 158.266 48.2196C158.185 47.5735 158.104 47.0888 158.023 46.4427C157.943 45.8773 157.862 45.3119 157.7 44.3427C157.7 44.2619 157.62 43.6965 157.539 43.2927L157.458 42.8888C157.377 42.5658 157.377 42.3235 157.296 42.0004C157.135 41.2735 157.054 40.4658 157.054 39.7388C157.054 39.4158 157.054 39.0927 157.054 38.6888C157.054 37.5581 157.054 36.3465 156.973 35.4581L156.893 34.4081C156.893 34.4081 154.55 35.5388 153.985 35.9427C153.823 36.0235 153.743 36.1042 153.581 36.185C152.208 36.9927 151.643 37.3158 150.27 37.8811L149.785 38.1235C148.816 38.6081 148.25 38.8504 148.089 39.0119L147.927 39.0927V39.2542C147.927 39.2542 147.927 39.335 147.927 39.4158C147.927 39.4965 147.927 39.4965 147.927 39.5773C147.927 39.7388 148.008 39.9004 148.008 40.0619L148.089 40.6273C148.089 40.7888 148.17 40.9504 148.17 41.1119C148.17 41.1927 148.17 41.2735 148.17 41.435C148.17 41.5965 148.25 42.7273 148.25 43.0504C148.412 46.685 148.896 52.5004 149.543 58.6388C149.543 58.7196 149.543 58.8004 149.543 58.8812C149.866 61.3042 149.866 61.385 149.946 61.4658C150.108 61.7081 150.27 61.9504 150.431 62.1927C150.512 62.2735 150.512 62.3542 150.593 62.435C150.996 63.1619 151.481 64.0504 152.531 64.3735C152.531 64.3735 152.693 64.4542 152.773 64.6158C153.339 65.585 153.904 66.635 154.308 67.5235C154.873 68.5735 155.681 69.4619 156.731 70.2696C156.973 70.4311 157.216 70.5119 157.458 70.5119H157.539C157.7 70.5119 157.862 70.5119 158.023 70.5119C158.185 70.5119 158.266 70.5119 158.427 70.5119C158.508 70.5119 158.589 70.5119 158.589 70.5119C158.67 70.5119 158.831 70.5927 158.912 70.6735C159.073 70.835 159.316 70.9158 159.639 70.9158C159.72 70.9158 159.8 70.9158 159.8 70.9158C160.123 70.9158 160.366 70.9158 160.689 70.9965C161.012 70.9965 161.335 71.0773 161.658 71.0773C162.062 71.0773 162.385 71.0773 162.708 70.9965C164 70.7542 165.05 70.1888 165.777 69.4619C166.262 68.9773 166.827 68.5735 167.393 68.1696C167.473 68.0888 167.554 68.0888 167.635 68.0081C167.877 67.8465 168.12 67.685 168.281 67.5235C168.443 67.3619 168.685 67.2812 168.927 67.1196C169.17 66.9581 169.331 66.8773 169.573 66.7158C169.735 66.5542 169.816 66.3927 169.977 66.2311C170.462 66.5542 170.785 66.8773 170.866 67.1196C171.108 67.9273 171.593 68.2504 172.158 68.5735C172.723 68.8965 173.45 69.1388 174.096 69.3812C174.339 69.4619 175.47 69.4619 175.631 69.4619C176.6 69.4619 176.923 69.3811 177.085 69.3004H177.246C178.377 69.1388 179.67 68.5735 179.831 68.4927C182.173 67.5235 184.031 65.585 185.323 64.3735C185.727 63.9696 186.05 63.6465 186.293 63.4042C186.454 63.2427 186.696 63.0812 186.858 62.8388C188.393 61.0619 190.008 59.0427 191.3 56.7811C191.381 56.6196 191.462 56.5388 191.543 56.3773C191.866 55.8119 192.27 55.085 192.35 54.3581C192.835 54.1965 192.996 53.8735 192.996 53.6311C192.996 53.3888 193.077 53.0658 193.077 52.8235C193.077 52.5811 193.158 52.3388 193.158 52.0158C193.239 51.8542 193.804 50.6427 194.37 49.3504L194.45 49.4311C194.45 49.5119 194.45 49.6735 194.45 49.7542C194.37 50.1581 194.531 50.4811 194.612 50.8042C194.693 50.9658 194.693 51.1273 194.773 51.2888C194.854 51.6119 196.066 53.7927 196.146 54.035C196.227 54.5196 196.308 55.0042 196.55 55.4888C196.631 55.5696 196.712 55.7312 196.712 55.8119C196.793 55.9735 196.873 56.135 196.873 56.3773C196.954 56.7811 197.116 57.2658 197.439 57.5888C197.277 57.9119 197.358 58.1542 197.439 58.3158V58.3965C197.762 59.6081 198.085 60.6581 198.408 61.7081C198.489 61.9504 198.57 62.1927 198.65 62.435C198.812 63.0004 198.973 63.5658 199.054 64.1312C199.135 65.1812 199.458 66.0696 199.781 66.9581C200.104 67.0388 200.266 67.2812 200.266 67.7658C200.266 67.8465 200.266 67.8465 200.266 67.9273C200.75 68.4927 201.316 69.1388 201.962 69.6235C202.043 69.7042 202.123 69.785 202.204 69.785C202.527 69.8658 202.931 69.9465 203.254 70.0273C203.496 70.1081 203.658 70.1081 203.9 70.1888C204.546 70.1888 205.193 70.0273 205.92 70.0273L206.404 69.8658V69.785C206.646 69.7042 207.05 69.4619 207.858 69.1388C207.939 69.0581 208.1 69.0581 208.1 69.0581C208.585 68.6542 209.07 68.3312 209.554 68.0888C210.443 67.5235 212.058 64.8581 212.3 64.6965C212.462 64.535 212.866 64.1311 212.866 63.9696C212.866 63.6465 213.027 63.4042 213.189 63.2427L213.27 63.1619C212.381 64.2927 209.877 64.8581 209.312 64.8581C208.585 65.0196 207.696 64.3735 207.535 64.1312Z" fill="#BE008D"/>
<path d="M229.908 70.1888C229.827 70.108 229.746 70.0273 229.585 69.9465C229.504 69.9465 229.423 69.9465 229.262 69.8657C228.05 69.9465 226.516 69.2196 225.95 68.5734C225.385 67.9273 223.043 59.285 222.639 58.0734C222.477 57.5888 222.235 55.9734 222.073 55.6503C221.831 55.2465 221.67 54.8427 221.589 54.358C221.589 54.035 220.943 50.885 220.943 50.4003C220.943 49.9965 220.862 49.6734 220.862 49.2696C220.781 48.3811 220.216 44.2619 220.135 43.3734C220.054 42.8888 219.973 42.3234 219.973 41.758C219.973 41.758 219.973 41.6773 219.973 41.5965C220.054 40.708 220.054 40.385 219.893 40.2234L219.812 40.0619H219.65C219.408 40.0619 218.923 40.3042 217.631 40.9503C217.227 41.1927 216.662 41.435 216.5 41.5157C215.37 41.8388 213.916 42.4042 213.027 42.808C212.543 43.0503 210.362 43.9388 210.362 43.9388C210.685 44.2619 211.816 45.0696 211.816 45.0696C212.139 45.8773 212.058 53.5503 212.058 53.7119C212.462 56.0542 213.593 60.0119 213.835 60.9811C213.916 61.1427 213.916 61.2234 213.916 61.2234C213.916 61.2234 214.32 62.9196 214.481 63.808C214.643 63.9696 214.723 64.1311 214.804 64.2119C215.127 64.7773 215.289 66.8773 215.45 67.5234C215.773 68.5734 216.258 69.5427 216.42 70.6734C217.793 72.3696 219.246 73.985 221.508 74.308C221.993 74.3888 222.477 74.3888 222.962 74.3888C223.123 74.308 223.285 74.308 223.446 74.2273C224.739 73.8234 225.87 73.3388 227 72.7734C227.646 72.4504 228.212 72.1273 228.696 71.7234C228.777 71.6427 228.939 71.5619 229.02 71.4004C229.585 71.2388 229.827 70.835 229.908 70.1888C229.908 70.2696 229.908 70.2696 229.908 70.1888Z" fill="#BE008D"/>
<path d="M161.173 62.7578L161.093 62.1117C161.093 62.2732 161.093 62.5155 161.173 62.7578Z" fill="#BE008D"/>
<path d="M169.493 79.8002L168.927 81.9002L169.493 81.7387C174.5 80.1233 186.777 75.681 190.412 74.2272L190.493 74.1464L191.058 72.0464C187.343 73.4195 174.42 78.0233 169.573 79.6387L169.493 79.8002Z" fill="#BE008D"/>
<path d="M148.977 27.1387C148.735 27.0579 148.008 26.8156 147.685 26.7348H147.523L147.604 26.5733C147.766 26.0887 147.846 25.5233 147.846 24.9579C147.846 20.9195 146.07 19.5464 144.616 19.5464C143.404 19.5464 142.112 20.1118 141.143 21.081C140.012 22.131 139.446 23.4233 139.446 24.7964C139.446 26.8964 140.9 28.1079 144.05 28.6733L144.373 28.7541L144.131 28.9156C142.031 30.531 136.377 32.7925 132.823 34.2464L131.854 34.6502L132.823 34.8925C133.631 35.0541 135.085 35.2156 135.812 35.2156H135.893H135.973C137.427 34.731 143.97 32.1464 146.312 29.2387L146.393 29.1579H146.473C146.635 29.2387 147.281 29.481 147.523 29.5618L147.766 29.6425L149.462 27.3002L148.977 27.1387ZM146.15 26.4118L146.07 26.5733H145.908C142.516 25.9272 140.658 24.7156 140.658 23.3425C140.658 22.4541 141.95 21.4848 143.162 21.4848C144.535 21.4848 146.15 23.2618 146.15 25.6848C146.312 25.9272 146.231 26.1695 146.15 26.4118Z" fill="#BE008D"/>
<path d="M21.2811 38.9311C22.3311 38.6888 23.4619 38.5272 24.5119 38.4465C24.9965 38.3657 25.4811 38.3657 25.9658 38.3657C26.2081 38.3657 27.9042 37.9619 28.8735 38.1234C35.2542 34.3272 43.5734 30.5311 51.8927 26.8157C55.1234 25.4426 57.7081 24.7157 61.7465 23.0195C63.2004 22.858 69.9042 18.8195 70.2273 20.8388C70.7927 21.6465 71.7619 22.3734 71.7619 22.3734C73.8619 18.8196 74.4273 17.2849 75.4773 14.0542C76.6888 10.258 78.385 8.64263 78.9504 4.44263C77.9004 4.5234 76.285 5.57339 75.5581 5.97724C73.7811 6.78493 71.7619 7.6734 69.8234 8.64263C65.1388 10.5811 60.2927 11.308 55.6081 12.9234C53.9927 13.2465 53.5081 13.8119 52.0542 14.0542C51.6504 14.5388 50.5196 14.7811 49.8734 14.7811C48.5004 15.2657 47.4504 15.5888 46.0773 16.3965C45.0273 16.2349 43.9773 17.5272 42.6042 17.2849C40.9888 18.0926 36.2235 20.4349 33.8811 20.5965C32.7504 20.6772 29.1965 21.808 27.6619 22.0503C27.0965 22.2926 27.3388 22.7772 26.935 23.1811C25.8042 27.7042 23.785 30.4503 22.0081 34.8926C21.8465 36.5888 20.3927 38.4465 21.2811 38.9311Z" fill="#BE008D"/>
<path d="M83.958 49.8349C84.0388 49.4311 84.2004 49.0272 84.2811 48.6234C84.2811 48.5426 84.2811 48.5426 84.2811 48.4619C82.9081 50.5619 81.1311 52.8234 78.0619 55.6503V55.7311C77.7388 56.0542 77.4157 56.3772 77.0927 56.7003C73.9427 60.0926 70.4696 62.758 66.7542 65.4234C65.0581 67.2003 63.1196 68.4926 60.8581 69.5426C56.335 72.208 51.408 73.9042 46.5619 75.8426C45.2696 76.408 44.2196 76.0042 43.5734 77.458C43.4927 77.3773 43.4119 77.2965 43.3311 77.2965C41.1504 77.5388 38.0811 78.0234 36.3042 79.3965C38.6465 82.2234 43.1696 77.1349 45.5927 79.558C44.7042 80.608 43.3311 80.7696 42.2004 81.4965C41.4734 81.2542 40.8273 81.7388 40.1811 81.9003C39.0504 82.2234 37.1119 82.5465 35.9811 82.8696C32.0234 83.0311 28.1465 83.9196 24.1888 83.6772C6.41959 82.5465 0.604201 68.6542 6.9042 53.0657C7.71189 51.3696 8.68112 49.8349 9.73112 48.2196C9.0042 47.1696 6.50035 51.1272 5.77343 52.1772C-0.0419536 62.8388 -2.22272 76.7311 8.68112 85.0503C9.0042 85.2119 9.48882 85.3734 9.73112 85.5349C10.0542 85.2926 10.2965 85.1311 10.3773 85.0503C10.7004 84.808 10.7004 84.8888 12.1542 85.6157C18.0504 88.4426 25.5619 88.6849 32.185 87.6349C32.6696 87.6349 33.0734 87.5542 33.558 87.5542C34.2042 87.7965 34.8504 87.4734 35.4157 87.3119C35.658 87.2311 35.9811 87.2311 36.3042 87.1503H36.385C38.2427 86.7465 40.1004 86.5042 41.2311 84.808C41.8773 84.9696 42.4427 85.2926 43.008 84.808C45.5927 84.2426 48.0157 83.2734 50.4388 82.1426C51.085 82.0619 51.2465 82.6272 51.9734 82.5465C65.3004 76.9734 77.7388 67.4426 82.5042 53.2272V53.1465C82.7465 52.5811 82.9888 52.0157 83.1504 51.4503V51.3696C83.1504 51.2888 83.1504 51.208 83.2311 51.208C83.635 50.7234 83.7965 50.3196 83.958 49.8349C83.8773 49.9157 83.8773 49.8349 83.958 49.8349Z" fill="#BE008D"/>
</svg>
