
<svg width="32" height="33" viewBox="0 0 32 33" fill="none" xmlns="http://www.w3.org/2000/svg">
    <path d="M26 14.5C26 14.7652 25.8946 15.0196 25.7071 15.2071C25.5196 15.3946 25.2652 15.5 25 15.5C24.7348 15.5 24.4804 15.3946 24.2929 15.2071C24.1054 15.0196 24 14.7652 24 14.5V9.915L15.7087 18.2075C15.5211 18.3951 15.2666 18.5006 15.0012 18.5006C14.7359 18.5006 14.4814 18.3951 14.2938 18.2075C14.1061 18.0199 14.0007 17.7654 14.0007 17.5C14.0007 17.2346 14.1061 16.9801 14.2938 16.7925L22.585 8.5H18C17.7348 8.5 17.4804 8.39464 17.2929 8.20711C17.1054 8.01957 17 7.76522 17 7.5C17 7.23478 17.1054 6.98043 17.2929 6.79289C17.4804 6.60536 17.7348 6.5 18 6.5H25C25.2652 6.5 25.5196 6.60536 25.7071 6.79289C25.8946 6.98043 26 7.23478 26 7.5V14.5ZM25 17.5C24.7348 17.5 24.4804 17.6054 24.2929 17.7929C24.1054 17.9804 24 18.2348 24 18.5V24.5H8V8.5H14C14.2652 8.5 14.5196 8.39464 14.7071 8.20711C14.8946 8.01957 15 7.76522 15 7.5C15 7.23478 14.8946 6.98043 14.7071 6.79289C14.5196 6.60536 14.2652 6.5 14 6.5H8C7.46957 6.5 6.96086 6.71071 6.58579 7.08579C6.21071 7.46086 6 7.96957 6 8.5V24.5C6 25.0304 6.21071 25.5391 6.58579 25.9142C6.96086 26.2893 7.46957 26.5 8 26.5H24C24.5304 26.5 25.0391 26.2893 25.4142 25.9142C25.7893 25.5391 26 25.0304 26 24.5V18.5C26 18.2348 25.8946 17.9804 25.7071 17.7929C25.5196 17.6054 25.2652 17.5 25 17.5Z" fill="black"/>
    </svg>
    