<svg width="25" height="25" viewBox="0 0 25 25" fill="none" xmlns="http://www.w3.org/2000/svg">
<g id="Instagram">
<path id="Vector" d="M12.6667 8C11.7767 8 10.9067 8.26392 10.1667 8.75839C9.42666 9.25285 8.84988 9.95566 8.50929 10.7779C8.1687 11.6002 8.07958 12.505 8.25321 13.3779C8.42685 14.2508 8.85543 15.0526 9.48477 15.682C10.1141 16.3113 10.9159 16.7399 11.7888 16.9135C12.6618 17.0872 13.5666 16.9981 14.3888 16.6575C15.2111 16.3169 15.9139 15.7401 16.4084 15.0001C16.9028 14.26 17.1667 13.39 17.1667 12.5C17.1655 11.3069 16.691 10.163 15.8474 9.31939C15.0037 8.47575 13.8598 8.00124 12.6667 8ZM12.6667 15.5C12.0734 15.5 11.4934 15.3241 11 14.9944C10.5067 14.6648 10.1222 14.1962 9.89511 13.6481C9.66805 13.0999 9.60864 12.4967 9.72439 11.9147C9.84015 11.3328 10.1259 10.7982 10.5454 10.3787C10.965 9.95912 11.4995 9.6734 12.0815 9.55764C12.6634 9.44189 13.2666 9.5013 13.8148 9.72836C14.363 9.95542 14.8315 10.3399 15.1612 10.8333C15.4908 11.3266 15.6667 11.9067 15.6667 12.5C15.6667 13.2956 15.3507 14.0587 14.7881 14.6213C14.2255 15.1839 13.4624 15.5 12.6667 15.5ZM17.1667 2.75H8.16675C6.77482 2.75149 5.44033 3.30509 4.45608 4.28933C3.47184 5.27358 2.91824 6.60807 2.91675 8V17C2.91824 18.3919 3.47184 19.7264 4.45608 20.7107C5.44033 21.6949 6.77482 22.2485 8.16675 22.25H17.1667C18.5587 22.2485 19.8932 21.6949 20.8774 20.7107C21.8617 19.7264 22.4153 18.3919 22.4167 17V8C22.4153 6.60807 21.8617 5.27358 20.8774 4.28933C19.8932 3.30509 18.5587 2.75149 17.1667 2.75ZM20.9167 17C20.9167 17.9946 20.5217 18.9484 19.8184 19.6516C19.1151 20.3549 18.1613 20.75 17.1667 20.75H8.16675C7.17219 20.75 6.21836 20.3549 5.5151 19.6516C4.81184 18.9484 4.41675 17.9946 4.41675 17V8C4.41675 7.00544 4.81184 6.05161 5.5151 5.34835C6.21836 4.64509 7.17219 4.25 8.16675 4.25H17.1667C18.1613 4.25 19.1151 4.64509 19.8184 5.34835C20.5217 6.05161 20.9167 7.00544 20.9167 8V17ZM18.6667 7.625C18.6667 7.8475 18.6008 8.06501 18.4772 8.25002C18.3535 8.43502 18.1778 8.57922 17.9723 8.66436C17.7667 8.74951 17.5405 8.77179 17.3223 8.72838C17.104 8.68498 16.9036 8.57783 16.7463 8.4205C16.5889 8.26316 16.4818 8.06271 16.4384 7.84448C16.395 7.62625 16.4172 7.40005 16.5024 7.19448C16.5875 6.98891 16.7317 6.81321 16.9167 6.6896C17.1017 6.56598 17.3192 6.5 17.5417 6.5C17.8401 6.5 18.1263 6.61853 18.3372 6.8295C18.5482 7.04048 18.6667 7.32663 18.6667 7.625Z" fill="black"/>
</g>
</svg>
