<svg width="25" height="25" viewBox="0 0 25 25" fill="none" xmlns="http://www.w3.org/2000/svg">
<g id="Youtube">
<path id="Vector" d="M16.083 11.8756L11.583 8.87563C11.47 8.80025 11.3387 8.75697 11.203 8.7504C11.0674 8.74382 10.9325 8.77421 10.8128 8.83831C10.693 8.90241 10.5929 8.99783 10.5232 9.11436C10.4535 9.2309 10.4167 9.36419 10.4167 9.5V15.5C10.4167 15.6358 10.4535 15.7691 10.5232 15.8856C10.5929 16.0022 10.693 16.0976 10.8128 16.1617C10.9325 16.2258 11.0674 16.2562 11.203 16.2496C11.3387 16.243 11.47 16.1998 11.583 16.1244L16.083 13.1244C16.1859 13.0559 16.2702 12.9631 16.3286 12.8542C16.3869 12.7452 16.4175 12.6236 16.4175 12.5C16.4175 12.3764 16.3869 12.2548 16.3286 12.1458C16.2702 12.0369 16.1859 11.9441 16.083 11.8756ZM11.9167 14.0984V10.9063L14.3149 12.5L11.9167 14.0984ZM22.6352 7.0175C22.5468 6.67189 22.3776 6.35224 22.1414 6.08491C21.9052 5.81758 21.6088 5.61024 21.2767 5.48C18.063 4.23875 12.948 4.25 12.6667 4.25C12.3855 4.25 7.2705 4.23875 4.05675 5.48C3.72465 5.61024 3.42828 5.81758 3.19209 6.08491C2.95589 6.35224 2.78665 6.67189 2.69831 7.0175C2.4555 7.95313 2.16675 9.66313 2.16675 12.5C2.16675 15.3369 2.4555 17.0469 2.69831 17.9825C2.78651 18.3283 2.9557 18.6481 3.1919 18.9156C3.4281 19.1831 3.72454 19.3906 4.05675 19.5209C7.1355 20.7088 11.9542 20.75 12.6049 20.75H12.7286C13.3792 20.75 18.2008 20.7088 21.2767 19.5209C21.609 19.3906 21.9054 19.1831 22.1416 18.9156C22.3778 18.6481 22.547 18.3283 22.6352 17.9825C22.878 17.045 23.1667 15.3369 23.1667 12.5C23.1667 9.66313 22.878 7.95313 22.6352 7.0175ZM21.183 17.6113C21.1544 17.7263 21.099 17.8329 21.0213 17.9224C20.9435 18.0118 20.8457 18.0816 20.7358 18.1259C17.7686 19.2716 12.7221 19.2509 12.6733 19.2509H12.6667C12.6161 19.2509 7.57331 19.2697 4.60425 18.1259C4.49434 18.0816 4.39652 18.0118 4.31879 17.9224C4.24106 17.8329 4.18563 17.7263 4.15706 17.6113C3.92925 16.7553 3.66675 15.1784 3.66675 12.5C3.66675 9.82157 3.92925 8.24469 4.1505 7.39344C4.17854 7.27774 4.23372 7.17037 4.31148 7.08022C4.38924 6.99007 4.48735 6.91972 4.59769 6.875C7.45894 5.76969 12.2533 5.75 12.6461 5.75H12.6714C12.7221 5.75 17.7696 5.73313 20.7339 6.875C20.8438 6.91936 20.9417 6.98913 21.0194 7.07859C21.0971 7.16806 21.1526 7.27467 21.1811 7.38969C21.4042 8.24469 21.6667 9.82157 21.6667 12.5C21.6667 15.1784 21.4042 16.7553 21.183 17.6066V17.6113Z" fill="black"/>
</g>
</svg>
