<svg width="25" height="25" viewBox="0 0 25 25" fill="none" xmlns="http://www.w3.org/2000/svg">
<g id="Facebook">
<path id="Vector" d="M12.6667 2.75C10.7384 2.75 8.85331 3.32183 7.24994 4.39317C5.64656 5.46451 4.39687 6.98726 3.65892 8.76884C2.92096 10.5504 2.72788 12.5108 3.10409 14.4021C3.48029 16.2934 4.40889 18.0307 5.77245 19.3943C7.13602 20.7579 8.8733 21.6865 10.7646 22.0627C12.6559 22.4389 14.6163 22.2458 16.3979 21.5078C18.1795 20.7699 19.7022 19.5202 20.7736 17.9168C21.8449 16.3134 22.4167 14.4284 22.4167 12.5C22.414 9.91498 21.3859 7.43661 19.558 5.60872C17.7301 3.78084 15.2518 2.75273 12.6667 2.75ZM13.4167 20.7153V14.75H15.6667C15.8657 14.75 16.0564 14.671 16.1971 14.5303C16.3377 14.3897 16.4167 14.1989 16.4167 14C16.4167 13.8011 16.3377 13.6103 16.1971 13.4697C16.0564 13.329 15.8657 13.25 15.6667 13.25H13.4167V11C13.4167 10.6022 13.5748 10.2206 13.8561 9.93934C14.1374 9.65804 14.5189 9.5 14.9167 9.5H16.4167C16.6157 9.5 16.8064 9.42098 16.9471 9.28033C17.0877 9.13968 17.1667 8.94891 17.1667 8.75C17.1667 8.55109 17.0877 8.36032 16.9471 8.21967C16.8064 8.07902 16.6157 8 16.4167 8H14.9167C14.1211 8 13.358 8.31607 12.7954 8.87868C12.2328 9.44129 11.9167 10.2044 11.9167 11V13.25H9.66674C9.46783 13.25 9.27707 13.329 9.13641 13.4697C8.99576 13.6103 8.91674 13.8011 8.91674 14C8.91674 14.1989 8.99576 14.3897 9.13641 14.5303C9.27707 14.671 9.46783 14.75 9.66674 14.75H11.9167V20.7153C9.80249 20.5223 7.84402 19.5217 6.44872 17.9215C5.05341 16.3214 4.32869 14.2449 4.42529 12.1241C4.52189 10.0032 5.43238 8.00127 6.96738 6.5346C8.50237 5.06793 10.5437 4.24947 12.6667 4.24947C14.7898 4.24947 16.8311 5.06793 18.3661 6.5346C19.9011 8.00127 20.8116 10.0032 20.9082 12.1241C21.0048 14.2449 20.2801 16.3214 18.8848 17.9215C17.4895 19.5217 15.531 20.5223 13.4167 20.7153Z" fill="black"/>
</g>
</svg>
