<svg width="20" height="21" viewBox="0 0 20 21" fill="none" xmlns="http://www.w3.org/2000/svg">
<path d="M16.875 3.60706H3.125C2.79348 3.60706 2.47554 3.73875 2.24112 3.97317C2.0067 4.20759 1.875 4.52554 1.875 4.85706V16.1071C1.875 16.4386 2.0067 16.7565 2.24112 16.9909C2.47554 17.2254 2.79348 17.3571 3.125 17.3571H16.875C17.2065 17.3571 17.5245 17.2254 17.7589 16.9909C17.9933 16.7565 18.125 16.4386 18.125 16.1071V4.85706C18.125 4.52554 17.9933 4.20759 17.7589 3.97317C17.5245 3.73875 17.2065 3.60706 16.875 3.60706ZM16.875 4.85706V12.8844L14.8383 10.8485C14.7222 10.7324 14.5844 10.6403 14.4327 10.5774C14.281 10.5146 14.1185 10.4822 13.9543 10.4822C13.7901 10.4822 13.6276 10.5146 13.4759 10.5774C13.3242 10.6403 13.1864 10.7324 13.0703 10.8485L11.5078 12.411L8.07031 8.97346C7.83592 8.73922 7.5181 8.60764 7.18672 8.60764C6.85534 8.60764 6.53752 8.73922 6.30312 8.97346L3.125 12.1516V4.85706H16.875ZM3.125 13.9196L7.1875 9.85706L13.4375 16.1071H3.125V13.9196ZM16.875 16.1071H15.2055L12.393 13.2946L13.9555 11.7321L16.875 14.6524V16.1071ZM11.25 8.29456C11.25 8.10914 11.305 7.92788 11.408 7.77371C11.511 7.61954 11.6574 7.49938 11.8287 7.42842C12 7.35746 12.1885 7.3389 12.3704 7.37507C12.5523 7.41124 12.7193 7.50053 12.8504 7.63164C12.9815 7.76275 13.0708 7.9298 13.107 8.11166C13.1432 8.29352 13.1246 8.48202 13.0536 8.65332C12.9827 8.82463 12.8625 8.97105 12.7083 9.07406C12.5542 9.17707 12.3729 9.23206 12.1875 9.23206C11.9389 9.23206 11.7004 9.13328 11.5246 8.95747C11.3488 8.78165 11.25 8.5432 11.25 8.29456Z" fill="white"/>
</svg>
