<svg width="32" height="32" viewBox="0 0 32 32" fill="none" xmlns="http://www.w3.org/2000/svg">
<circle cx="16" cy="16" r="16" fill="white"/>
<path d="M22.6795 11.0078C21.9153 10.2456 20.8803 9.81688 19.8009 9.81556C18.7215 9.81424 17.6855 10.2404 16.9195 11.0008L15.9998 11.8551L15.0794 10.998C14.3135 10.2343 13.2756 9.80606 12.194 9.80758C11.1124 9.80909 10.0757 10.2402 9.31201 11.0061C8.54828 11.772 8.12007 12.8099 8.12159 13.8914C8.1231 14.973 8.55422 16.0097 9.32009 16.7735L15.6025 23.148C15.6549 23.2011 15.7172 23.2434 15.786 23.2722C15.8549 23.301 15.9287 23.3158 16.0033 23.3158C16.0779 23.3158 16.1517 23.301 16.2205 23.2722C16.2893 23.2434 16.3517 23.2011 16.4041 23.148L22.6795 16.7735C23.4437 16.0087 23.8731 14.9718 23.8731 13.8907C23.8731 12.8095 23.4437 11.7726 22.6795 11.0078Z" fill="#78006E"/>
</svg>
