<svg width="24" height="24" viewBox="0 0 24 24" fill="none" xmlns="http://www.w3.org/2000/svg">
<path fill-rule="evenodd" clip-rule="evenodd" d="M12.7002 4.74359L11.9982 5.44413L11.2977 4.74343C10.0597 3.50559 8.302 2.93817 6.57371 3.21858C4.84542 3.49898 3.35725 4.59303 2.57405 6.15899L2.47836 6.36071C1.58155 8.36866 1.96925 10.6968 3.44385 12.2924L11.4098 20.6004C11.7312 20.9356 12.267 20.9356 12.5884 20.6004L20.4163 12.4345C22.0619 10.7887 22.4726 8.25602 21.4241 6.15905L21.3214 5.96413C20.5036 4.49256 19.0711 3.48575 17.4244 3.21858C15.6961 2.93817 13.9384 3.50559 12.7002 4.74359ZM17.1629 4.83019C18.3161 5.01729 19.3192 5.72237 19.886 6.74179L19.9719 6.90515L20.0512 7.07413C20.6497 8.43648 20.389 10.0418 19.3797 11.1558L11.9982 18.855L4.76119 11.307C3.62974 10.1762 3.3182 8.48378 3.96165 7.04277L4.04205 6.87336C4.58275 5.7927 5.62489 5.02656 6.83518 4.83019C8.04548 4.63383 9.27639 5.03118 10.1434 5.89813L11.422 7.17587C11.7407 7.49442 12.2573 7.49442 12.5761 7.17587L13.8545 5.89829C14.7217 5.03118 15.9526 4.63383 17.1629 4.83019Z" fill="#78006E"/>
</svg>
