<svg width="14" height="12" viewBox="0 0 14 12" fill="none" xmlns="http://www.w3.org/2000/svg">
<path d="M12.9375 1.06251C12.2582 0.38492 11.3383 0.00387702 10.3788 0.0027058C9.41933 0.00153459 8.49845 0.380331 7.8175 1.05626L7 1.81564L6.18188 1.05376C5.5011 0.37489 4.57853 -0.00573889 3.61711 -0.00439096C2.65569 -0.00304304 1.73419 0.380171 1.05532 1.06095C0.376446 1.74173 -0.00418248 2.6643 -0.00283457 3.62572C-0.00148666 4.58714 0.381727 5.50864 1.06251 6.18751L6.64688 11.8538C6.6934 11.901 6.74886 11.9385 6.81002 11.9641C6.87118 11.9897 6.93682 12.0029 7.00313 12.0029C7.06944 12.0029 7.13508 11.9897 7.19624 11.9641C7.2574 11.9385 7.31286 11.901 7.35938 11.8538L12.9375 6.18751C13.6169 5.50775 13.9985 4.58605 13.9985 3.62501C13.9985 2.66397 13.6169 1.74227 12.9375 1.06251ZM12.2281 5.48501L7 10.7875L1.76875 5.48001C1.27645 4.9877 0.999871 4.31999 0.999871 3.62376C0.999871 2.92753 1.27645 2.25982 1.76875 1.76751C2.26106 1.2752 2.92878 0.998627 3.62501 0.998627C4.32123 0.998627 4.98895 1.2752 5.48125 1.76751L5.49375 1.78001L6.65938 2.86439C6.75191 2.95049 6.87361 2.99836 7 2.99836C7.1264 2.99836 7.2481 2.95049 7.34063 2.86439L8.50626 1.78001L8.51875 1.76751C9.01139 1.27553 9.67929 0.999408 10.3755 0.999877C11.0718 1.00035 11.7393 1.27737 12.2313 1.77001C12.7232 2.26265 12.9994 2.93055 12.9989 3.62678C12.9984 4.32301 12.7214 4.99053 12.2288 5.48251L12.2281 5.48501Z" fill="#78006E"/>
</svg>
