<svg width="18" height="18" viewBox="0 0 18 18" fill="none" xmlns="http://www.w3.org/2000/svg">
<path d="M15.6796 4.00778C14.9154 3.24549 13.8804 2.81682 12.801 2.8155C11.7216 2.81418 10.6856 3.24033 9.91956 4.00075L8.99987 4.85505L8.07948 3.99794C7.31361 3.23421 6.27571 2.806 5.19412 2.80751C4.11252 2.80903 3.07583 3.24015 2.3121 4.00602C1.54837 4.7719 1.12016 5.80979 1.12168 6.89139C1.12319 7.97298 1.55431 9.00967 2.32018 9.7734L8.60261 16.1479C8.65495 16.2011 8.71733 16.2433 8.78614 16.2721C8.85495 16.3009 8.92879 16.3157 9.00339 16.3157C9.07798 16.3157 9.15183 16.3009 9.22063 16.2721C9.28944 16.2433 9.35183 16.2011 9.40417 16.1479L15.6796 9.7734C16.4438 9.00868 16.8732 7.97176 16.8732 6.89059C16.8732 5.80943 16.4438 4.77251 15.6796 4.00778ZM14.8815 8.98309L8.99987 14.9484L3.11472 8.97747C2.56087 8.42362 2.24972 7.67244 2.24972 6.88919C2.24972 6.10593 2.56087 5.35475 3.11472 4.8009C3.66856 4.24706 4.41974 3.93591 5.203 3.93591C5.98625 3.93591 6.73743 4.24706 7.29128 4.8009L7.30534 4.81497L8.61667 6.03489C8.72076 6.13176 8.85768 6.18561 8.99987 6.18561C9.14207 6.18561 9.27898 6.13176 9.38307 6.03489L10.6944 4.81497L10.7085 4.8009C11.2627 4.24743 12.0141 3.93679 12.7973 3.93732C13.5806 3.93784 14.3316 4.2495 14.885 4.80372C15.4385 5.35794 15.7491 6.10932 15.7486 6.89258C15.7481 7.67584 15.4364 8.42681 14.8822 8.98028L14.8815 8.98309Z" fill="white"/>
</svg>
