<svg width="20" height="20" viewBox="0 0 20 20" fill="none" xmlns="http://www.w3.org/2000/svg">
<path fill-rule="evenodd" clip-rule="evenodd" d="M10.0001 0.649902C4.84353 0.649902 0.650024 4.84336 0.650024 9.99986C0.650024 15.0629 4.69042 19.1912 9.71696 19.3408C9.81056 19.3499 9.90415 19.3499 10 19.3499C10.0959 19.3499 10.1895 19.3499 10.2831 19.3408C15.3096 19.1913 19.35 15.0629 19.35 9.99986C19.35 4.84336 15.1565 0.649902 9.99995 0.649902H10.0001ZM9.41575 1.92822V5.0327H7.0143C7.14099 4.68573 7.27567 4.35474 7.42517 4.05569C8.00499 2.89606 8.70806 2.18389 9.41572 1.92822H9.41575ZM10.5845 1.92822C11.2921 2.18389 11.9952 2.89609 12.575 4.05569C12.7246 4.35471 12.8592 4.6857 12.9859 5.0327H10.5845L10.5845 1.92822ZM7.10562 2.35737C6.83968 2.71232 6.59087 3.10382 6.37514 3.53523C6.14687 3.99178 5.94714 4.49854 5.7725 5.03269H3.49892C4.41771 3.83198 5.66638 2.90177 7.10571 2.35737H7.10562ZM12.8945 2.35737C14.3338 2.9018 15.5824 3.83201 16.5013 5.03269H14.2277C14.0531 4.49854 13.8534 3.99178 13.6251 3.53523C13.4094 3.10379 13.1605 2.71232 12.8946 2.35737H12.8945ZM2.75001 6.2014H5.45277C5.22449 7.19551 5.08639 8.27753 5.05101 9.41545H1.84598C1.92815 8.26041 2.23976 7.17269 2.74995 6.2014H2.75001ZM6.65802 6.2014H9.41556V9.41545H6.21053C6.25047 8.25927 6.41255 7.17496 6.65793 6.2014H6.65802ZM10.5845 6.2014H13.342C13.5874 7.17496 13.7495 8.25927 13.7894 9.41545H10.5844L10.5845 6.2014ZM14.5471 6.2014H17.2499C17.7601 7.17269 18.0717 8.26041 18.1539 9.41545H14.9488C14.9134 8.27753 14.7753 7.19551 14.5471 6.2014H14.5471ZM1.84598 10.5842H5.05101C5.08639 11.7244 5.22335 12.8042 5.45277 13.7983H2.75001C2.24096 12.8258 1.92709 11.7393 1.84604 10.5842H1.84598ZM6.21072 10.5842H9.41575V13.7983H6.65821C6.41281 12.827 6.25075 11.7381 6.2108 10.5842H6.21072ZM10.5845 10.5842H13.7895C13.7495 11.7381 13.5875 12.827 13.3421 13.7983H10.5845L10.5845 10.5842ZM14.9492 10.5842H18.1542C18.0732 11.7393 17.7593 12.8258 17.2503 13.7983H14.5475C14.7769 12.8042 14.9139 11.7244 14.9493 10.5842H14.9492ZM3.48978 14.967H5.77252C5.94715 15.5 6.14687 15.9987 6.37516 16.4553C6.5943 16.8936 6.84313 17.2999 7.11475 17.6606C5.66636 17.115 4.41199 16.1757 3.48984 14.967H3.48978ZM7.01423 14.967H9.41568V18.0805C8.70803 17.8226 8.00496 17.0944 7.42514 15.9348C7.27676 15.6369 7.14094 15.3127 7.01426 14.9669L7.01423 14.967ZM10.5845 14.967H12.9859C12.8592 15.3128 12.7234 15.6369 12.575 15.9348C11.9952 17.0945 11.2921 17.8226 10.5845 18.0806L10.5845 14.967ZM14.2278 14.967H16.5105C15.5883 16.1756 14.334 17.115 12.8856 17.6606C13.1573 17.2999 13.4061 16.8936 13.6252 16.4553C13.8535 15.9988 14.0532 15.5 14.2279 14.967H14.2278Z" fill="inherit"/>
</svg>
