<svg width="11" height="14" viewBox="0 0 11 14" fill="none" xmlns="http://www.w3.org/2000/svg">
  <path d="M5.5 3.25C5.03645 3.25 4.58331 3.38746 4.19788 3.64499C3.81245 3.90253 3.51205 4.26857 3.33466 4.69684C3.15726 5.1251 3.11085 5.59635 3.20128 6.05099C3.29172 6.50564 3.51494 6.92325 3.84272 7.25103C4.1705 7.57881 4.58811 7.80203 5.04276 7.89247C5.4974 7.9829 5.96865 7.93649 6.39691 7.75909C6.82518 7.5817 7.19122 7.2813 7.44876 6.89587C7.70629 6.51044 7.84375 6.0573 7.84375 5.59375C7.84375 4.97215 7.59682 4.37601 7.15728 3.93647C6.71774 3.49693 6.1216 3.25 5.5 3.25ZM5.5 7C5.22187 7 4.94999 6.91752 4.71873 6.763C4.48747 6.60848 4.30723 6.38886 4.20079 6.1319C4.09436 5.87494 4.06651 5.59219 4.12077 5.3194C4.17503 5.04662 4.30896 4.79605 4.50563 4.59938C4.7023 4.40271 4.95287 4.26878 5.22565 4.21452C5.49844 4.16026 5.78119 4.18811 6.03815 4.29454C6.29511 4.40098 6.51473 4.58122 6.66925 4.81248C6.82378 5.04374 6.90625 5.31562 6.90625 5.59375C6.90625 5.96671 6.75809 6.3244 6.49437 6.58812C6.23065 6.85184 5.87296 7 5.5 7ZM5.5 0.4375C4.13295 0.439051 2.82234 0.982795 1.85569 1.94944C0.889045 2.91609 0.345301 4.2267 0.34375 5.59375C0.34375 7.43359 1.19395 9.38359 2.80469 11.2334C3.52845 12.0693 4.34304 12.822 5.2334 13.4775C5.31221 13.5328 5.40611 13.5624 5.50234 13.5624C5.59857 13.5624 5.69247 13.5328 5.77129 13.4775C6.66001 12.8217 7.47302 12.069 8.19531 11.2334C9.80371 9.38359 10.6562 7.43359 10.6562 5.59375C10.6547 4.2267 10.111 2.91609 9.14431 1.94944C8.17766 0.982795 6.86705 0.439051 5.5 0.4375ZM5.5 12.5078C4.53145 11.7461 1.28125 8.94824 1.28125 5.59375C1.28125 4.47487 1.72572 3.40181 2.51689 2.61064C3.30806 1.81947 4.38112 1.375 5.5 1.375C6.61888 1.375 7.69194 1.81947 8.48311 2.61064C9.27428 3.40181 9.71875 4.47487 9.71875 5.59375C9.71875 8.94707 6.46855 11.7461 5.5 12.5078Z" fill="black"/>
  </svg>
  