
<svg width="302" height="16" viewBox="0 0 302 16" fill="none" xmlns="http://www.w3.org/2000/svg">
    <mask id="mask0_12582_37" style="mask-type:luminance" maskUnits="userSpaceOnUse" x="0" y="0" width="1858" height="48">
    <path d="M1857.35 0H0V48H1857.35V0Z" fill="white"/>
    </mask>
    <g mask="url(#mask0_12582_37)">
    <path d="M1857.35 0H0V48H1857.35V0Z" fill="#78006E"/>
    </g>
    <mask id="mask1_12582_37" style="mask-type:luminance" maskUnits="userSpaceOnUse" x="0" y="0" width="1858" height="48">
    <path d="M1857.35 0H0V48H1857.35V0Z" fill="white"/>
    </mask>
    <g mask="url(#mask1_12582_37)">
    <path fill-rule="evenodd" clip-rule="evenodd" d="M129.185 59.3863L128.974 59.598L123.556 54.18L121.735 52.3599L120.381 51.0054C119.407 50.0318 118.476 49.0159 117.545 48.0001C116.741 47.1112 115.937 46.2646 115.175 45.3757C111.28 41.4392 103.196 33.8202 103.196 33.8202L97.7355 28.4445L95.9154 26.6244L94.5609 25.2699C92.7831 23.4498 91.0053 21.545 89.3122 19.6403C85.291 15.5768 81.1852 11.6403 77.164 7.53447C75.8519 8.80431 74.5397 10.1165 73.2275 11.3863L71.2804 13.2911L69.7566 14.8572L66.709 17.9895L61.6296 23.3652L61.5873 23.4075L60.6984 24.3387L57.6085 27.598C57.6085 27.598 48.6349 35.8943 47.4074 37.1218L45.4603 39.0265L43.9365 40.5927L40.8889 43.7249L36.8677 48.0001L35.8095 49.1006L35.7672 49.1429L34.8783 50.0742L31.7884 53.3334C31.7884 53.3334 27.6825 57.1429 24.6773 59.9789H59.8942L62.0952 57.6932L68.1058 51.344L71.1958 48.0847L71.2804 48.0001L77.291 41.8625L82.7513 47.2382L83.5132 48.0001L84.5714 49.0583L85.9259 50.4128C87.7037 52.2752 89.4392 54.1376 91.1746 56.0847C92.0635 57.016 93.5027 58.4128 95.1535 60.0212H129.693C129.566 59.8096 129.355 59.598 129.185 59.3863ZM119.323 5.926C119.153 5.88367 119.069 5.84135 119.111 5.75669C118.942 5.75669 118.899 5.71436 118.857 5.67203C118.815 5.6297 118.773 5.54505 118.815 5.50272C118.561 5.62971 118.265 5.926 118.222 6.01066C118.138 6.09531 118.222 6.05299 118.18 5.50272C118.18 5.54505 118.18 5.6297 118.138 5.67203C118.095 5.71436 118.053 5.75669 117.968 5.79902C117.841 5.88367 117.714 5.926 117.587 5.96833C117.333 6.05299 117.079 6.05299 116.825 6.01066C116.317 5.926 115.767 5.67203 115.302 5.50272C115.302 5.62971 114.286 5.96833 113.947 5.50272C111.365 5.926 108.656 6.43394 106.074 5.50272C101.376 6.56092 96.5926 5.07944 91.9365 5.50272C91.9788 5.33341 90.7937 5.46039 90.3704 5.50272C89.8201 5.58738 89.2275 6.26463 88.8042 5.50272C88.5926 5.67203 88.381 5.33341 88.2116 5.50272C87.9577 5.41807 88.0847 5.54505 87.7037 5.50272C87.5767 5.50272 87.3228 5.50272 87.0688 5.50272C88.6349 6.9842 90.0741 8.55034 91.3439 10.2435C92.7831 10.4974 92.8677 12.4868 94.1376 13.0371C94.4762 13.2488 94.6455 13.545 94.8995 13.799C96.0423 13.8413 96 15.0689 96.7619 15.6615C98.6667 17.1429 100.444 18.7937 101.799 20.6985C101.968 20.8255 102.138 20.9525 102.349 21.0794C102.434 21.1218 102.561 21.2064 102.688 21.2488L102.857 21.3334C102.899 21.3757 102.899 21.3334 102.899 21.3334C102.984 21.2911 102.984 21.2911 102.815 21.7144C102.942 21.799 103.026 21.8837 103.111 21.926C103.492 21.4604 102.815 22.0107 105.016 19.7673C106.624 18.1588 108.275 16.5503 110.011 15.1112C110.011 15.0689 110.434 14.6033 111.069 13.926C111.704 13.2488 112.593 12.3599 113.481 11.471C114.37 10.5821 115.259 9.6932 115.937 9.01595C116.614 8.3387 117.122 7.91542 117.164 7.91542C117.333 7.5768 117.545 7.2805 117.757 6.9842L118.095 6.51859C118.138 6.43394 118.222 6.34928 118.265 6.30695V6.26463C118.265 6.17997 118.265 6.17997 118.307 6.17997C118.519 6.2223 118.857 6.13764 119.323 5.926ZM145.101 31.7461C144.931 31.7038 144.847 31.6614 144.889 31.5768C144.72 31.5768 144.677 31.5345 144.635 31.4921C144.593 31.4498 144.55 31.3652 144.593 31.3228C144.339 31.4498 144.042 31.7461 144 31.8308C143.915 31.9154 144 31.8731 143.958 31.3228C143.958 31.3652 143.958 31.4498 143.915 31.4921C143.873 31.5345 143.831 31.5768 143.746 31.6191C143.619 31.7038 143.492 31.7461 143.365 31.7884C143.111 31.8731 142.857 31.8731 142.603 31.8308C142.095 31.7461 141.545 31.4921 141.079 31.3228C141.079 31.4498 140.064 31.7884 139.725 31.3228C137.143 31.7461 134.434 32.254 131.852 31.3228C127.153 32.381 122.37 30.8995 117.714 31.3228C117.757 31.1535 116.571 31.2805 116.148 31.3228C115.598 31.4075 115.005 32.0847 114.582 31.3228C114.37 31.4498 114.159 31.1535 113.947 31.3228C113.693 31.2382 113.82 31.3652 113.439 31.3228C113.312 31.2805 113.058 31.3228 112.804 31.3228C114.37 32.8043 115.81 34.3704 117.079 36.0636C118.519 36.3175 118.603 38.307 119.873 38.8572C120.212 39.0689 120.381 39.3652 120.677 39.6614C121.82 39.7038 121.778 40.889 122.54 41.5239C124.444 43.0054 126.222 44.6138 127.577 46.5609C127.746 46.6879 127.915 46.8149 128.127 46.9419C128.254 46.9842 128.339 47.0689 128.466 47.1112L128.635 47.1958C128.677 47.1958 128.677 47.1958 128.677 47.1958C128.762 47.1535 128.762 47.1535 128.593 47.5768C128.677 47.6614 128.804 47.7461 128.889 47.7884C129.27 47.3228 128.55 47.8731 130.794 45.6297C132.402 44.0212 134.053 42.4128 135.788 40.9736C135.788 40.9313 136.212 40.4657 136.847 39.8308C137.524 39.1535 138.37 38.2646 139.259 37.3757C140.148 36.4869 141.037 35.598 141.757 34.9207C142.434 34.2435 142.942 33.8202 142.984 33.8202C143.153 33.4816 143.365 33.1853 143.577 32.889L143.915 32.4234C143.958 32.381 144.042 32.254 144.085 32.2117V32.1694C144.085 32.0847 144.085 32.0847 144.127 32.0424C144.296 32.0424 144.635 31.9577 145.101 31.7461ZM0 -11.9788V-2.53961C1.73545 -2.58193 3.4709 -2.62426 5.16402 -2.45495C5.03704 -2.41262 6.98413 -2.49728 9.43915 -2.53961C10.6667 -2.53961 12.0212 -2.58193 13.3333 -2.58193C14.0529 -2.58193 14.7725 -2.53961 15.4074 -2.53961C16.5503 -2.53961 17.6085 -2.49728 18.5397 -2.45495C21.291 -2.66659 24.3386 -2.70892 27.3016 -2.66659C27.8095 -2.66659 28.3598 -2.62426 28.8677 -2.62426C34.709 -2.92056 41.4815 -2.49728 46.7302 -2.45495C46.7302 -2.32797 46.9418 -2.28564 46.9841 -2.45495C50.2011 -2.41262 53.5873 -2.70892 56.7619 -2.45495C56.6349 -2.41262 58.582 -2.49728 61.037 -2.53961C62.2646 -2.53961 63.6191 -2.58193 64.9312 -2.58193C65.6508 -2.58193 66.3704 -2.53961 67.0053 -2.53961C68.1482 -2.53961 69.2064 -2.49728 70.1376 -2.45495C72.8889 -2.66659 75.9365 -2.70892 78.8995 -2.66659C79.4074 -2.66659 79.9154 -2.62426 80.4656 -2.62426C86.3069 -2.87823 93.0794 -2.49728 98.3281 -2.45495C98.3281 -2.32797 98.5397 -2.28564 98.582 -2.45495C101.799 -2.41262 105.185 -2.70892 108.36 -2.45495C108.233 -2.41262 110.18 -2.49728 112.635 -2.53961C113.862 -2.53961 115.217 -2.58193 116.529 -2.58193C117.249 -2.58193 117.968 -2.53961 118.603 -2.53961C119.746 -2.53961 120.804 -2.49728 121.735 -2.45495C124.487 -2.66659 127.534 -2.70892 130.497 -2.66659C131.005 -2.66659 131.556 -2.62426 132.064 -2.62426C137.905 -2.87823 144.677 -2.49728 149.926 -2.45495C149.926 -2.32797 150.138 -2.28564 150.18 -2.45495C151.704 -2.41262 153.228 -2.49728 154.794 -2.53961V-11.9788H0ZM143.577 5.54505C143.619 5.37574 142.434 5.50272 142.011 5.54505C141.46 5.62971 140.868 6.30696 140.444 5.54505C140.233 5.71436 140.021 5.37574 139.852 5.54505C139.598 5.46039 139.725 5.58738 139.344 5.54505C139.217 5.54505 138.963 5.54505 138.709 5.54505C140.275 7.02653 141.757 8.59267 142.984 10.2858C144.423 10.5398 144.508 12.5292 145.778 13.0794C146.116 13.2911 146.286 13.5874 146.54 13.8413C147.683 13.8837 147.64 15.1112 148.402 15.7038C150.307 17.1853 152.085 18.8361 153.439 20.7408C153.608 20.8678 153.778 20.9948 153.989 21.1218C154.074 21.1641 154.201 21.2488 154.328 21.2911L154.497 21.3757C154.54 21.4181 154.54 21.3757 154.54 21.3757C154.624 21.3334 154.624 21.3334 154.455 21.7567C154.582 21.8413 154.667 21.926 154.751 21.9683V5.926C151.026 6.09531 147.259 5.20643 143.577 5.54505ZM140.952 19.5556C136.931 15.4921 132.825 11.5556 128.804 7.44981C127.492 8.71965 126.18 10.0318 124.868 11.3017L122.921 13.2064L121.397 14.7726L118.349 17.9048L113.481 23.0265C117.206 23.1112 120.931 23.2382 124.064 23.2805C124.064 23.4075 124.275 23.4498 124.317 23.2805C127.534 23.3228 130.921 23.0265 134.095 23.2805C133.968 23.3228 135.915 23.2382 138.37 23.1958C139.598 23.1535 140.952 23.1535 142.265 23.1535C142.942 23.1535 143.619 23.1535 144.296 23.1958C143.153 22.053 142.053 20.8255 140.952 19.5556ZM154.413 33.4392C153.143 34.6667 151.915 35.8943 150.688 37.0794L148.741 38.9842L147.217 40.5503L144.169 43.6826L140.148 47.9577H154.794V33.7779L154.413 33.4392ZM16.127 57.5239C15.9577 57.4816 15.873 57.4392 15.9153 57.3546C15.746 57.3546 15.7037 57.3122 15.6614 57.2699C15.6191 57.2276 15.5767 57.1429 15.6191 57.1006C15.3651 57.2276 15.0688 57.5239 15.0265 57.6085C14.9418 57.6932 15.0265 57.6509 14.9841 57.1006C14.9841 57.1429 14.9841 57.2276 14.9418 57.2699C14.9418 57.3122 14.8571 57.3546 14.7725 57.3969C14.6455 57.4816 14.5185 57.5239 14.4339 57.5662C14.1799 57.6509 13.9259 57.6509 13.672 57.6085C13.164 57.5239 12.6138 57.2699 12.1482 57.1006C12.1482 57.2276 11.1746 57.5662 10.7937 57.1006C8.21164 57.5239 5.50265 58.0318 2.92064 57.1006C1.94709 57.3122 0.973545 57.4392 0 57.4816V59.9789H13.5873C13.8413 59.7249 14.0106 59.5556 14.0529 59.5556C14.2222 59.217 14.4339 58.9207 14.6455 58.6244L14.9841 58.1588C15.0265 58.0742 15.1111 57.9895 15.1534 57.9472V57.9048C15.1534 57.8202 15.1534 57.8202 15.1958 57.8202C15.3228 57.8202 15.6614 57.7355 16.127 57.5239ZM41.9471 31.7461C41.7778 31.7038 41.6931 31.6614 41.7355 31.5768C41.5661 31.5768 41.5238 31.5345 41.4815 31.4921C41.4392 31.4498 41.3968 31.3652 41.4392 31.3228C41.1852 31.4498 40.8889 31.7461 40.8466 31.8308C40.7619 31.9154 40.8466 31.8731 40.8042 31.3228C40.8042 31.3652 40.8042 31.4498 40.7619 31.4921C40.7619 31.5345 40.6773 31.5768 40.5926 31.6191C40.4656 31.7038 40.3386 31.7461 40.2116 31.7884C39.9577 31.8731 39.7037 31.8731 39.4497 31.8308C38.9418 31.7461 38.3915 31.4921 37.9259 31.3228C37.9259 31.4498 36.9101 31.7884 36.5714 31.3228C33.9894 31.7461 31.2804 32.254 28.6984 31.3228C24 32.381 19.2169 30.8995 14.5608 31.3228C14.6032 31.1535 13.418 31.2805 12.9947 31.3228C12.4444 31.4075 11.8519 32.0847 11.4286 31.3228C11.2169 31.4498 11.0053 31.1535 10.7937 31.3228C10.5397 31.2382 10.6667 31.3652 10.2857 31.3228C10.1587 31.2805 9.90476 31.3228 9.65079 31.3228C11.2169 32.8043 12.6561 34.3704 13.9259 36.0636C15.3651 36.3175 15.4497 38.307 16.7196 38.8572C17.0582 39.0689 17.2275 39.3652 17.4815 39.6614C18.6243 39.7038 18.582 40.889 19.3439 41.5239C21.2487 43.0054 23.0265 44.6138 24.381 46.5609C24.5503 46.6879 24.7196 46.8149 24.9312 46.9419C25.0582 46.9842 25.1429 47.0689 25.2698 47.1112L25.4392 47.1958C25.4815 47.1958 25.4815 47.1958 25.4815 47.1958C25.5661 47.1535 25.5661 47.1535 25.3968 47.5768C25.4815 47.6614 25.6085 47.7461 25.6931 47.7884C26.0741 47.3228 25.3545 47.8731 27.5979 45.6297C29.2064 44.0212 30.8571 42.4128 32.5926 40.9736C32.5926 40.9313 33.0159 40.4657 33.6508 39.8308C34.328 39.1535 35.1746 38.2646 36.0635 37.3757C36.9524 36.4869 37.8413 35.598 38.5185 34.9207C39.1958 34.2435 39.7037 33.8202 39.746 33.8202C39.9153 33.4816 40.127 33.1853 40.3386 32.889L40.6773 32.4234C40.7196 32.381 40.8042 32.254 40.8466 32.2117V32.1694C40.8466 32.0847 40.8466 32.0847 40.8889 32.0424C41.1005 32.0424 41.4815 31.9577 41.9471 31.7461ZM37.7566 19.5556C33.7355 15.4921 29.6296 11.598 25.6508 7.44981C24.3386 8.71965 23.0265 10.0318 21.7143 11.3017L19.7672 13.2064L18.2434 14.7726L15.1958 17.9048L10.328 23.0689C14.0529 23.1535 17.7778 23.2805 20.9101 23.3228C20.9101 23.4498 21.1217 23.4921 21.164 23.3228C24.381 23.3652 27.7672 23.0689 30.9418 23.3228C30.8148 23.3652 32.7619 23.2805 35.2169 23.2382C36.4444 23.1958 37.7989 23.1958 39.1111 23.1958C39.8307 23.1958 40.4656 23.1958 41.1429 23.2382C40 22.053 38.8571 20.8255 37.7566 19.5556ZM67.7249 5.926C67.5556 5.88367 67.4709 5.84135 67.5132 5.75669C67.3439 5.75669 67.3016 5.71436 67.2593 5.67203C67.2169 5.6297 67.1746 5.54505 67.2169 5.50272C66.963 5.62971 66.6667 5.926 66.6243 6.01066C66.5397 6.09531 66.6244 6.05299 66.582 5.50272C66.582 5.54505 66.582 5.6297 66.5397 5.67203C66.5397 5.71436 66.455 5.75669 66.3704 5.79902C66.2434 5.88367 66.1164 5.926 65.9894 5.96833C65.7355 6.05299 65.4815 6.05299 65.2275 6.01066C64.7196 5.926 64.1693 5.67203 63.7037 5.50272C63.7037 5.62971 62.6878 5.96833 62.3492 5.50272C59.7672 5.926 57.0582 6.43394 54.4762 5.50272C49.7778 6.56092 44.9947 5.07944 40.3386 5.50272C40.381 5.33341 39.1958 5.46039 38.7725 5.50272C38.2222 5.58738 37.6296 6.26463 37.2064 5.50272C36.9947 5.67203 36.7831 5.33341 36.6138 5.50272C36.3598 5.41807 36.4868 5.54505 36.1058 5.50272C35.9788 5.50272 35.7249 5.50272 35.4709 5.50272C37.037 6.9842 38.4762 8.55034 39.746 10.2435C41.1852 10.4974 41.2698 12.4868 42.5397 13.0371C42.8783 13.2488 43.0476 13.545 43.3016 13.799C44.4445 13.8413 44.4445 15.0689 45.164 15.6615C47.0688 17.1429 48.8466 18.7937 50.2011 20.6985C50.3704 20.8255 50.5397 20.9525 50.7513 21.0794C50.836 21.1218 50.963 21.2064 51.09 21.2488L51.2593 21.3334C51.3016 21.3757 51.3016 21.3334 51.3016 21.3334C51.3862 21.2911 51.3862 21.2911 51.2169 21.7144C51.3439 21.799 51.4286 21.8837 51.5132 21.926C51.8942 21.4604 51.2169 22.0107 53.418 19.7673C55.0265 18.1588 56.6349 16.5503 58.4127 15.1112C58.4127 15.0689 58.836 14.6033 59.4709 13.926C60.1058 13.2488 60.9947 12.3599 61.8836 11.471C62.7725 10.5821 63.6614 9.6932 64.3386 9.01595C65.0159 8.3387 65.5238 7.91542 65.5661 7.91542C65.7355 7.5768 65.9471 7.2805 66.1587 6.9842L66.4974 6.51859C66.5397 6.43394 66.6243 6.34928 66.6667 6.30695V6.26463C66.6667 6.17997 66.6667 6.17997 66.709 6.17997C66.9206 6.2223 67.2593 6.13764 67.7249 5.926ZM16.127 5.926C15.9577 5.88367 15.873 5.84135 15.9153 5.75669C15.746 5.75669 15.7037 5.71436 15.6614 5.67203C15.6191 5.6297 15.5767 5.54505 15.6191 5.50272C15.3651 5.62971 15.0688 5.926 15.0265 6.01066C14.9418 6.09531 15.0265 6.05299 14.9841 5.50272C14.9841 5.54505 14.9841 5.6297 14.9418 5.67203C14.9418 5.71436 14.8571 5.75669 14.7725 5.79902C14.6455 5.88367 14.5185 5.926 14.4339 5.96833C14.1799 6.05299 13.9259 6.05299 13.672 6.01066C13.164 5.926 12.6138 5.67203 12.1482 5.50272C12.1482 5.62971 11.1746 5.96833 10.7937 5.50272C8.21164 5.926 5.50265 6.43394 2.92064 5.50272C1.94709 5.75669 0.973545 5.88367 0 5.926V21.9683C0.380952 21.5027 -0.338624 22.053 1.90476 19.8096C3.51323 18.2011 5.16402 16.5927 6.89947 15.1535C6.89947 15.1112 7.32275 14.6456 7.95767 13.9683C8.63492 13.2911 9.48148 12.4022 10.3704 11.5133C11.2593 10.6244 12.1481 9.73553 12.8254 9.05828C13.5026 8.38103 14.0106 7.95775 14.0529 7.95775C14.2222 7.61912 14.4339 7.32283 14.6455 7.02653L14.9841 6.56092C15.0265 6.47627 15.1111 6.39161 15.1534 6.34928V6.30695C15.1534 6.2223 15.1534 6.2223 15.1958 6.2223C15.3228 6.2223 15.6614 6.13764 16.127 5.926ZM14.3492 48.0001C13.545 47.1535 12.7407 46.2646 11.9365 45.3757C8.04233 41.3969 4.06349 37.5874 0.21164 33.6085L0 33.7779V49.0159C1.73545 48.9736 3.4709 48.9313 5.16402 49.1006C5.03704 49.1429 6.98413 49.0583 9.43915 49.0159C10.6667 49.0159 12.0212 48.9736 13.3333 48.9736C14.0529 48.9736 14.7302 48.9736 15.3651 49.0159C14.9841 48.6773 14.6878 48.3387 14.3492 48.0001ZM83.7249 59.8943C81.8201 58.4128 80.0423 56.8043 78.6878 54.8572C78.5185 54.7302 78.3492 54.6032 78.1376 54.4763C78.0529 54.4339 77.9259 54.3493 77.799 54.307L77.6296 54.2223C77.5873 54.18 77.5873 54.2223 77.5873 54.2223C77.5027 54.2646 77.5027 54.2646 77.672 53.8413C77.5873 53.7567 77.4603 53.672 77.3757 53.6297C76.9947 54.0953 77.7143 53.5451 75.4709 55.7884C74.0318 57.2276 72.5926 58.6244 71.0688 59.9366H83.8095C83.8095 59.9789 83.7672 59.9366 83.7249 59.8943Z" fill="#BE008C"/>
    </g>
    <mask id="mask2_12582_37" style="mask-type:luminance" maskUnits="userSpaceOnUse" x="0" y="0" width="1858" height="48">
    <path d="M1857.35 0H0V48H1857.35V0Z" fill="white"/>
    </mask>
    <g mask="url(#mask2_12582_37)">
    <path d="M309.587 -11.9788H154.794V60.0212H309.587V-11.9788Z" fill="#FF4664"/>
    </g>
    <mask id="mask3_12582_37" style="mask-type:luminance" maskUnits="userSpaceOnUse" x="0" y="0" width="1858" height="48">
    <path d="M1857.35 0H0V48H1857.35V0Z" fill="white"/>
    </mask>
    <g mask="url(#mask3_12582_37)">
    <path fill-rule="evenodd" clip-rule="evenodd" d="M241.27 -11.9789C242.963 -10.3281 244.36 -8.50801 245.757 -6.47627C247.196 -6.39161 247.069 -4.31754 248.296 -3.93658C248.635 -3.76727 248.762 -3.47098 249.016 -3.21701C250.201 -3.30166 250.032 -2.03182 250.709 -1.52389C251.386 -1.05828 252.021 -0.550341 252.614 -7.62939e-05C253.672 0.93114 254.603 1.94701 255.323 3.08987C255.873 3.55548 257.312 3.72479 257.058 4.82532C260.656 8.33855 264.762 11.6401 267.937 15.7036C267.979 15.6613 269.376 17.0158 270.857 18.4973C275.852 11.8941 282.921 7.19569 288.254 1.18511C288.339 1.31209 288.974 0.592516 289.566 -7.62939e-05C289.82 -0.296372 290.032 -0.550342 290.201 -0.719653C290.794 -1.48156 291.005 -2.79373 292.148 -2.66674C292.275 -3.0477 292.783 -3.0477 292.91 -3.42865C293.333 -3.68262 293.037 -3.64029 293.545 -4.06357C294.053 -4.48685 295.365 -6.2223 295.534 -6.05299C295.704 -6.05299 295.577 -6.30695 295.746 -6.26463C296.804 -8.635 298.878 -10.3704 301.037 -12.0212H241.27V-11.9789ZM298.921 59.9788C297.99 58.9629 297.101 58.0317 296.254 57.1851C296.339 57.1004 296.254 56.8888 296.085 57.0158C294.011 54.8571 291.556 52.9523 289.693 50.6243C289.82 50.6666 288.55 49.5237 286.942 47.9999C285.291 46.4338 283.259 44.4867 282.116 43.0475C279.619 41.4391 277.545 38.4761 275.344 36.2751L275.386 36.2327C275.386 36.2327 275.386 36.2327 275.344 36.2327C273.989 34.6666 272.593 33.1005 271.154 31.619C267.937 34.9206 263.196 39.7883 260.106 42.6243C258.667 44.402 256.931 46.2221 255.111 47.9999C252.487 50.5396 249.651 53.0793 247.154 55.5766C247.238 55.6613 247.027 55.492 247.111 55.619C245.545 57.0581 243.979 58.5396 242.455 60.0211H298.921V59.9788ZM242.455 3.38617C241.312 2.24331 240.169 1.10045 239.027 -7.62939e-05C236.783 -2.20113 234.54 -4.40219 232.339 -6.64558C230.18 -4.35986 227.683 -2.11648 225.439 -7.62939e-05C224.423 0.93114 223.492 1.82003 222.603 2.66659C222.519 2.58193 222.307 2.66659 222.434 2.8359C220.402 4.82532 218.582 7.15336 216.339 8.93114C216.423 8.67717 211.767 13.9682 209.101 16.1692C208.127 17.7354 206.561 19.1322 204.995 20.4867C205.714 20.529 206.392 20.529 207.069 20.5714C207.069 20.6983 207.196 20.783 207.238 20.5714C209.27 20.6137 211.429 20.2327 213.46 20.5714C213.291 20.6983 218.37 20.2327 220.868 20.5714C222.9 19.9364 225.355 20.5714 227.513 20.5714C227.513 20.4444 227.513 20.6983 227.513 20.5714C238.18 21.7565 248.889 19.3015 259.556 20.5714H259.598C253.672 15.0264 247.704 9.56606 242.455 3.38617ZM257.905 29.8412C256.381 30.1798 254.857 30.3068 253.376 29.8412C252.868 29.9258 252.106 30.7724 251.683 29.8412C248.212 29.8835 244.614 30.4761 241.058 29.8412C241.058 30.0105 234.709 29.9682 234.624 29.8412C232.804 30.7724 230.815 30.2221 228.952 29.8412C226.878 30.4338 222.688 29.9258 222.603 29.8412C221.714 30.1798 220.445 31.111 219.725 29.8412C219.175 31.0264 218.413 30.3068 217.82 29.8412C217.82 30.0105 217.185 30.3915 216.974 29.8412C215.323 30.3068 213.63 30.9417 211.979 29.8412C209.651 30.8147 207.323 30.0105 204.995 29.7989C206.138 31.0264 207.027 32.0846 207.027 32.1692C208.127 32.8042 210.032 33.3967 209.863 35.0052C211.259 34.7089 211.471 35.9788 211.725 36.8676C211.852 36.7407 212.741 37.0793 212.572 37.7142C214.519 38.9841 216.593 40.2116 217.439 42.5819C219.81 43.8518 221.376 45.9682 223.027 47.9999C224 49.2274 225.016 50.4126 226.201 51.3862C226.032 51.5132 226.878 52.1481 227.175 52.3597C227.598 52.6137 228.529 52.4444 228.148 53.3333C228.402 53.3333 228.275 53.7142 228.529 53.7142C228.614 53.9682 228.656 53.7565 228.825 54.0105C228.995 54.2645 229.968 54.8571 229.799 54.984C229.757 55.111 230.011 54.9417 229.884 55.0687C230.942 55.1957 231.661 55.7036 232.254 56.3809C233.947 54.8147 235.725 53.3333 237.376 51.8941C238.307 50.7512 239.577 49.3544 240.931 47.9576C244.868 43.8941 249.609 39.5766 249.736 39.5343C251.217 37.5872 253.037 34.4549 255.365 33.9047C255.577 31.9999 257.609 31.0264 259.09 30.1798C258.794 30.3491 258.37 29.7565 257.905 29.8412ZM303.111 -7.62939e-05C297.566 5.50257 291.725 11.0052 286.984 15.6613C286.9 15.5766 286.561 15.7883 286.646 15.9999C283.683 18.8782 280.847 22.0105 277.884 24.9311C278.773 25.947 279.577 27.0475 280.339 28.0634C282.878 29.7989 286.815 34.4126 286.815 34.5396C287.958 35.2169 289.905 35.8518 289.778 37.5026C291.175 37.2486 291.429 38.5184 291.725 39.4497C291.852 39.3227 292.783 39.7036 292.614 40.3386C294.646 41.693 296.804 43.0052 297.736 45.4602C298.963 46.1375 299.979 46.984 300.91 47.9576H309.545V-6.64558C307.513 -4.44452 305.355 -2.20113 303.111 -7.62939e-05ZM164.445 2.75125C163.513 1.82003 162.54 0.888812 161.609 -7.62939e-05C159.323 -2.15881 157.037 -4.27521 154.794 -6.60325V57.2698C156.698 54.7301 158.942 52.2751 161.566 50.4973C161.609 49.0581 163.64 49.2698 164.021 48.0422C164.021 47.9999 164.021 47.9999 164.064 47.9999C164.233 47.7036 164.487 47.619 164.698 47.365C164.572 46.1798 165.799 46.3915 166.307 45.7565C167.534 44.0211 168.931 42.4126 170.709 41.3544C171.175 40.8042 171.302 39.4497 172.36 39.7036C175.704 36.2751 178.836 32.3386 182.73 29.3333C182.646 29.2486 185.143 26.7512 187.005 24.9311C179.386 17.6084 171.259 10.8359 164.445 2.75125ZM215.746 54.0528C215.831 53.9682 215.746 53.7989 215.577 53.8835C213.672 51.8941 211.386 50.1163 209.651 47.9999C209.609 47.9576 209.566 47.8729 209.524 47.8306C209.778 47.9153 204.487 43.2592 202.286 40.5925C199.873 39.0687 197.926 36.2327 195.81 34.1163C195.725 34.201 195.81 34.074 195.81 34.074C195.81 34.074 195.81 34.074 195.767 34.074C195.005 33.1851 194.201 32.2962 193.439 31.4497C188.191 36.91 183.196 42.6666 177.82 47.9999C175.746 50.074 173.587 52.0634 171.344 53.9682C169.736 55.5343 168.169 57.1428 166.603 58.7512C166.815 58.7512 167.027 58.7512 167.196 58.7936C167.196 58.9206 167.323 59.0052 167.365 58.7936C169.27 58.8359 171.302 58.4549 173.164 58.7936C172.995 58.9206 177.778 58.4549 180.064 58.7936C181.926 58.1586 184.254 58.7936 186.243 58.7936C186.243 58.6666 186.243 58.9206 186.243 58.7936C196.233 59.9788 206.222 57.5237 216.169 58.7936C217.482 58.7936 218.751 58.7936 220.064 58.7512C218.582 57.0581 217.101 55.4497 215.746 54.0528ZM163.725 -11.9789C165.291 -10.4974 166.646 -8.80431 167.915 -6.9842C169.355 -6.94188 169.143 -4.91013 170.37 -4.52918C170.709 -4.35986 170.794 -4.06357 171.048 -3.85193C172.233 -3.97891 172.021 -2.7514 172.656 -2.24346C173.63 -1.56621 174.519 -0.804309 175.365 -7.62939e-05C176.042 0.677172 176.593 1.39675 177.101 2.15865C177.651 2.62426 179.005 2.75125 178.751 3.80945C182.18 7.15336 186.116 10.2856 189.122 14.1798C189.206 14.0952 191.619 16.5079 193.439 18.3703C193.82 18.074 194.243 17.82 194.624 17.5237C196.233 15.0687 200.677 11.3438 200.804 11.3438C201.439 10.2433 201.989 8.33855 203.64 8.50786C203.344 7.11103 204.614 6.89939 205.503 6.64543C205.376 6.51844 205.714 5.62955 206.349 5.79886C207.619 3.85178 208.847 1.73537 211.217 0.931141C211.386 0.592516 211.556 0.29622 211.767 0.0422516C213.926 -3.17468 217.651 -4.8678 219.979 -7.83076C220.106 -7.66145 220.741 -8.50801 220.952 -8.80431C221.206 -9.22759 221.037 -10.1588 221.926 -9.77785C221.926 -10.0318 222.307 -9.90484 222.307 -10.1588C222.561 -10.2435 222.349 -10.2858 222.646 -10.4551C222.9 -10.6244 223.492 -11.598 223.619 -11.4286C223.746 -11.3863 223.577 -11.6403 223.704 -11.5133C223.704 -11.6403 223.746 -11.7673 223.788 -11.8943H163.725V-11.9789Z" fill="#FA783C"/>
    </g>
    </svg>
    