<svg width="24" height="35" viewBox="0 0 24 35" fill="none" xmlns="http://www.w3.org/2000/svg">
<path d="M19.5 0H4.5C3.50544 0 2.55161 0.395088 1.84835 1.09835C1.14509 1.80161 0.75 2.75544 0.75 3.75V31.25C0.75 32.2446 1.14509 33.1984 1.84835 33.9016C2.55161 34.6049 3.50544 35 4.5 35H19.5C20.4946 35 21.4484 34.6049 22.1517 33.9016C22.8549 33.1984 23.25 32.2446 23.25 31.25V3.75C23.25 2.75544 22.8549 1.80161 22.1517 1.09835C21.4484 0.395088 20.4946 0 19.5 0ZM20.75 31.25C20.75 31.5815 20.6183 31.8995 20.3839 32.1339C20.1495 32.3683 19.8315 32.5 19.5 32.5H4.5C4.16848 32.5 3.85054 32.3683 3.61612 32.1339C3.3817 31.8995 3.25 31.5815 3.25 31.25V3.75C3.25 3.41848 3.3817 3.10054 3.61612 2.86612C3.85054 2.6317 4.16848 2.5 4.5 2.5H19.5C19.8315 2.5 20.1495 2.6317 20.3839 2.86612C20.6183 3.10054 20.75 3.41848 20.75 3.75V31.25ZM13.875 29.375C13.875 29.7458 13.765 30.1084 13.559 30.4167C13.353 30.725 13.0601 30.9654 12.7175 31.1073C12.3749 31.2492 11.9979 31.2863 11.6342 31.214C11.2705 31.1416 10.9364 30.9631 10.6742 30.7008C10.412 30.4386 10.2334 30.1045 10.161 29.7408C10.0887 29.3771 10.1258 29.0001 10.2677 28.6575C10.4096 28.3149 10.65 28.022 10.9583 27.816C11.2666 27.61 11.6292 27.5 12 27.5C12.4973 27.5 12.9742 27.6975 13.3258 28.0492C13.6775 28.4008 13.875 28.8777 13.875 29.375Z" fill="#4B4B4B"/>
</svg>
