<svg width="16" height="17" viewBox="0 0 16 17" fill="none" xmlns="http://www.w3.org/2000/svg">
<path d="M13.8698 11.7032C13.4374 11.6089 12.9573 11.6464 12.5169 11.6435C12.1447 11.6413 11.7953 11.5367 11.4299 11.4833C11.0822 11.4322 10.7754 11.3447 10.4407 11.2418C10.1305 11.1464 9.80888 11.1731 9.48956 11.1606C9.15716 11.1481 8.8242 11.0924 8.49181 11.1339C8.45601 11.1384 8.42305 11.1253 8.39067 11.1123C8.39578 11.0577 8.39294 11.0037 8.36169 10.9509C8.36794 10.9447 8.37362 10.9412 8.38158 10.9384C8.30601 10.7748 8.39237 10.5827 8.37703 10.4219C8.37192 10.3674 8.36112 10.3134 8.35373 10.2594C8.35771 10.26 8.36226 10.2605 8.3651 10.2617C8.86738 10.3958 9.50831 10.3032 9.98446 10.1088C10.2862 9.98554 10.5867 9.72815 10.8299 9.51451C11.0163 9.35087 11.0208 9.09973 11.0936 8.87927C11.1691 8.65028 11.2902 8.42698 11.2902 8.18039C11.2902 8.07981 11.2333 7.98038 11.2282 7.89345C11.2203 7.76163 11.3828 7.63094 11.4635 7.54628C11.5817 7.42298 11.7032 7.294 11.7567 7.12695C11.8112 6.95536 11.8623 6.77524 11.9112 6.59853C11.9868 6.32466 11.9442 6.04511 11.8788 5.77237C11.7879 5.39339 11.5589 5.04281 11.2998 4.75701C11.1601 4.60303 11.0032 4.45927 10.8271 4.34734C10.6458 4.232 10.235 4.2229 10.2004 3.95074C10.1816 3.80358 10.2862 3.67914 10.2589 3.52175C10.2299 3.35527 10.1583 3.19902 10.0958 3.04333C9.99639 2.79503 9.99525 2.53593 9.80377 2.34559C9.49808 2.0416 9.05148 1.76091 8.6492 1.66943C8.15203 1.55636 7.79918 1.45011 7.28098 1.52511C6.72529 1.60523 6.41732 1.77682 5.96674 2.06319C5.71958 2.22002 5.5281 2.45354 5.42469 2.72628C5.31502 3.01549 5.27411 3.20243 4.97183 3.32402C4.6866 3.43879 4.31216 3.71153 4.18318 3.99392C4.08431 4.20984 4.00363 4.42973 3.92124 4.65019C3.74794 5.11156 3.92351 5.64282 4.21273 6.02579L4.22352 6.06443C4.23091 6.07181 4.24114 6.07522 4.24682 6.08431C4.26443 6.11386 4.27352 6.14738 4.28205 6.18261C4.28659 6.18431 4.28943 6.18716 4.29 6.18943C4.28773 6.19227 4.28261 6.19397 4.27693 6.19454C4.2775 6.21443 4.27977 6.23375 4.27466 6.25307C4.23034 6.41387 4.07238 6.59398 4.00249 6.75308C3.91499 6.95195 3.83601 7.16218 3.81556 7.3798C3.78601 7.6906 3.95022 8.08379 4.0542 8.37414C4.25989 8.94859 4.78831 9.49462 5.35878 9.70145C6.00993 9.93725 6.60426 10.2804 7.32019 10.1554C7.34803 10.1503 7.41905 10.1566 7.47019 10.148C7.47133 10.1645 7.47133 10.1816 7.47133 10.1986C7.47701 10.2032 7.47928 10.21 7.48383 10.2151C7.45485 10.4696 7.53269 10.7287 7.52076 10.9856C7.51906 11.0219 7.51337 11.0577 7.50826 11.0941C7.50599 11.11 6.34573 11.2174 6.23493 11.2367C5.43662 11.3788 4.64342 11.456 3.83999 11.5589C3.64396 11.5839 3.44737 11.6214 3.25077 11.6481C3.04736 11.6759 2.59791 11.5742 2.42859 11.6987C2.42859 11.6771 2.42859 11.681 2.42007 11.6674C2.3712 11.6879 2.3195 11.6969 2.26779 11.6998C2.257 11.7924 2.22347 11.9265 2.29166 12.0078C2.28313 12.0401 2.32859 12.5174 2.33541 12.5169C2.37973 12.5117 2.42348 12.5072 2.46666 12.5083C2.84622 12.5151 3.20929 12.5026 3.59396 12.4708C4.02011 12.435 4.44455 12.3782 4.86729 12.3163C5.5923 12.21 6.34232 12.0958 7.05825 12.0203C7.19462 12.006 7.33098 11.9913 7.46564 11.9674C7.47985 11.9651 7.49462 11.9691 7.50883 11.9742C7.50542 11.9947 7.50258 12.0157 7.50428 12.0384C7.57417 12.8106 7.32587 13.5584 7.38098 14.3277C7.3861 14.401 7.49349 15.2453 7.51053 15.2465C7.5236 15.247 7.5361 15.2487 7.54917 15.2499C7.60713 15.2544 8.32362 15.1351 8.32078 15.1198C8.21623 14.568 8.25203 14.0044 8.29407 13.4481C8.3151 13.1691 8.33953 12.8902 8.34862 12.61C8.35317 12.4759 8.26794 12.0708 8.37078 11.9759C8.45374 11.8992 8.64863 11.9725 8.74522 11.9793C8.97704 11.997 9.20887 12.0157 9.44126 12.0316C9.8765 12.0612 10.2697 12.1185 10.6879 12.2475C11.1004 12.3742 11.5095 12.4589 11.9408 12.4913C12.297 12.518 12.6544 12.4816 13.0112 12.4981C13.1868 12.5061 13.6397 12.6867 13.7567 12.5265C13.7982 12.4697 13.8828 11.9742 13.884 11.7816C13.884 11.7362 13.88 11.7077 13.8692 11.7055L13.8698 11.7032ZM8.3293 7.53435C8.32532 7.51957 8.32873 7.5048 8.33044 7.49003C8.34805 7.48378 8.36567 7.47582 8.38328 7.46957C8.38612 7.469 8.38896 7.46957 8.3918 7.46844C8.40203 7.46446 8.41055 7.45878 8.42192 7.45594C8.42817 7.45253 8.43442 7.45025 8.4401 7.44741C8.47874 7.43207 8.51851 7.41844 8.55658 7.40139C8.5634 7.39912 8.57022 7.39628 8.57647 7.39344C9.32762 7.08434 9.8032 6.67069 10.0833 5.90704C10.0833 5.88544 10.085 5.86385 10.0862 5.84283C10.0112 5.80419 9.93445 5.76726 9.85661 5.73544C9.70547 5.67351 9.55376 5.6218 9.40603 5.55589C9.43956 5.57066 9.09182 6.06954 9.06114 6.1042C8.86056 6.33205 8.65033 6.43318 8.36964 6.49285C8.36794 6.45705 8.35942 6.42125 8.35032 6.38602C8.25828 6.03147 8.3418 5.63089 8.33953 5.26668C8.33782 4.99395 8.39351 4.72292 8.38158 4.44961C8.37646 4.33143 8.35146 4.22063 8.36282 4.10301C8.37419 3.98142 8.43101 3.87062 8.40033 3.74562C8.3418 3.52857 7.72701 3.70357 7.58212 3.64675C7.57644 3.64448 7.58212 3.63482 7.57474 3.63369C7.54519 3.63084 7.5236 3.63709 7.49917 3.64505C7.37189 3.68823 7.45599 5.13997 7.47815 5.33657C7.47815 5.33941 7.47928 5.34168 7.47985 5.34395C7.47474 5.34509 7.47019 5.3485 7.46508 5.3485C7.4486 5.35248 7.43155 5.35134 7.41508 5.34623C7.39633 5.33884 7.37644 5.33089 7.35882 5.32123C7.35087 5.31668 7.34291 5.31157 7.33553 5.30645C7.0895 5.12122 6.87927 4.82519 6.80995 4.52007C6.80881 4.51439 6.80711 4.50927 6.80597 4.50359C6.79006 4.47348 6.77358 4.4445 6.75426 4.41382C6.54858 4.4945 6.32528 4.59621 6.14629 4.72405C6.11163 4.74849 6.07641 4.77008 6.03947 4.7894C6.16618 5.17861 6.28323 5.5218 6.61676 5.79624C6.74233 5.89965 6.88097 5.97522 7.03098 6.03602C7.17814 6.09568 7.30996 6.2025 7.46678 6.23261C7.47417 6.26784 7.47076 6.3008 7.47133 6.33716C7.47133 6.36443 7.47928 6.39171 7.48667 6.42239C7.49405 6.54001 7.42587 7.79458 7.49178 7.81049C7.03268 7.70083 6.80597 7.43264 6.56051 7.06047C6.55369 7.05024 6.55142 7.03888 6.54858 7.02752C6.52244 6.98377 6.50255 6.93717 6.47926 6.89172C6.40085 6.93717 6.32414 6.98661 6.25084 7.03888C6.11675 7.13491 5.99175 7.23775 5.85595 7.32809C5.86333 7.34571 5.87129 7.36275 5.87811 7.38037C5.88265 7.38037 5.8872 7.38321 5.89174 7.38207L5.88436 7.394C5.80026 7.53037 6.21902 8.01504 6.30198 8.09516C6.56903 8.35425 6.89234 8.50369 7.24405 8.60994C7.31223 8.6304 7.38042 8.65199 7.44235 8.68778C7.44746 8.69062 7.45087 8.69574 7.45542 8.69972C7.45542 8.71222 7.45542 8.72472 7.45599 8.73779C7.45883 8.89404 7.46167 9.05029 7.46508 9.20655C7.46167 9.21905 7.45769 9.23212 7.45712 9.24462C7.45712 9.24462 7.02245 9.28723 6.96847 9.28382C6.62756 9.26166 6.22868 9.13098 5.91731 8.99461C5.77924 8.93438 5.59401 8.88779 5.4673 8.81279C5.33605 8.73494 5.2207 8.56903 5.12525 8.44687C4.93433 8.20255 4.82695 7.8889 4.74399 7.59287C4.70535 7.45594 4.69512 7.52071 4.73433 7.39059C4.75649 7.31673 4.81217 7.23945 4.84172 7.16559C4.92524 6.95536 4.97183 6.72978 5.08604 6.53262C5.10707 6.49625 5.12866 6.45932 5.15025 6.42182C5.19457 6.34682 5.24059 6.26954 5.28434 6.19568C5.25877 6.14 5.23491 6.08772 5.21161 6.03715C5.14286 5.91101 5.07752 5.79056 5.01274 5.67067C4.8099 5.28373 4.70365 4.96667 4.89058 4.54166C5.03718 4.2087 5.4531 4.09222 5.7389 3.90585L5.90254 3.80187L5.99118 3.58539L6.05254 3.44448C6.33721 2.78878 6.85938 2.45411 7.55542 2.34843C8.49749 2.20581 9.42478 2.83139 9.37308 3.82403C9.36626 3.94903 9.33842 4.08086 9.31455 4.20359C9.2958 4.29847 9.22421 4.45586 9.27251 4.54905C9.32137 4.6428 9.51001 4.66382 9.59922 4.69223C9.74922 4.73996 9.89184 4.80758 10.0305 4.88201C10.335 5.04508 10.6146 5.25759 10.8305 5.52919C10.9527 5.68317 11.0214 5.89738 11.06 6.09397C11.1629 6.61614 10.8254 7.144 10.4441 7.46787C10.4066 7.49969 10.3657 7.53151 10.3384 7.57242C10.2282 7.73776 10.3294 8.05254 10.3373 8.23607C10.3481 8.4821 10.322 8.73154 10.1373 8.91393C9.66342 9.38041 9.10432 9.53894 8.46283 9.37871C8.4418 9.3736 8.42021 9.36848 8.39862 9.36337C8.39862 9.35825 8.40146 9.35371 8.40089 9.3486C8.39862 9.32303 8.39862 9.29689 8.39578 9.27075C8.38498 9.15939 8.33101 9.06279 8.33214 8.94063C8.33328 8.81904 8.3526 8.69687 8.35771 8.57414C8.37078 8.25368 8.41737 7.84572 8.33044 7.53378L8.3293 7.53435ZM12.6084 13.7129C12.5976 13.693 12.5862 13.6731 12.5754 13.6527C12.5516 13.622 12.5322 13.5885 12.5118 13.5555C12.4947 13.5515 12.4766 13.5504 12.4567 13.5567C11.9777 13.7027 11.4561 14.0095 10.9413 13.9362C10.4367 13.8646 9.96911 13.6618 9.4566 13.5993C9.41285 13.5942 9.36626 13.5851 9.31796 13.5743L9.1458 14.4385C9.21739 14.4555 9.28955 14.468 9.36342 14.4737C9.6174 14.493 9.83672 14.5357 10.0884 14.5942C10.3021 14.6442 10.5129 14.7033 10.7282 14.7504C11.0782 14.8266 11.3521 14.768 11.6947 14.6879C11.78 14.668 12.868 14.3487 12.8635 14.3305C12.8379 14.2334 12.8027 14.1379 12.7618 14.0464C12.7129 13.9356 12.6584 13.8282 12.6084 13.7129ZM6.46619 13.1248C6.44346 13.1373 6.40028 13.1697 6.39289 13.1993L6.33323 13.1538C5.91504 13.3197 5.27696 13.4748 4.83092 13.4226C4.34739 13.3657 3.87806 13.2061 3.40191 13.1078C3.35986 13.0993 3.31441 13.0868 3.26782 13.072L3.02577 13.9192C3.09565 13.9425 3.16668 13.9601 3.23997 13.972C3.82749 14.0658 4.37977 14.3612 5.00252 14.3084C5.31446 14.2817 5.59685 14.2175 5.88265 14.1453C6.02697 14.1089 6.17243 14.0703 6.323 14.0328C6.32641 14.0317 6.32982 14.0311 6.3338 14.0248C6.34289 14.0248 6.35255 14.0226 6.36107 14.022C6.37357 14.018 6.38607 14.014 6.39914 14.0118C6.41676 14.0084 6.43267 14.0095 6.44744 14.0123C6.55255 13.9925 6.66392 13.951 6.76449 13.9112C6.74233 13.8135 6.71051 13.7169 6.67301 13.6237C6.6054 13.4544 6.51733 13.2964 6.46562 13.1237L6.46619 13.1248Z" fill="#BE008D"/>
</svg>
