<svg xmlns="http://www.w3.org/2000/svg">
  <pattern id="a" width="80" height="96" x="0" y="0" patternContentUnits="userSpaceOnUse" patternUnits="userSpaceOnUse">
    <g fill="currentColor" class="pattern-stroke">
      <path fill="none" d="M0 0h80v96H0z"/>
      <path d="M73.3 12.3A40.3 40.3 0 0 0 68 9l-3.7-1.7a36.3 36.3 0 0 1-4.7-2.7l-3.5-2.5-3-2.1h-8.3v.7c-.2 3.6-.2 7.4-.2 11.2v18c.1 3.2-.4 5.8.1 8.8l-.1 9.3.1 9.3c-.5 3 0 5.7-.1 8.8V84c0 3.9 0 7.7.2 11.3v.7H53l3.1-2.1 3.6-2.5a38.9 38.9 0 0 1 4.7-2.7c1.2-.6 2.5-1 3.7-1.7a42.3 42.3 0 0 0 5.1-3.4 10.8 10.8 0 0 0 1.3-1l.2-.1.1 12L75 96h5c-.7-15.5-1.1-31.2-1.4-46.8v-2.4C79 31.3 79.3 15.5 80 0h-5l-.2 1.4-.1 12.1-.2-.1a10.1 10.1 0 0 0-1.2-1zm1.3 66.4-1.2-1.8-1.4 2-1.3 1.2a13.6 13.6 0 0 1-2.3 1.5 3411.7 3411.7 0 0 0-13.6 8.3c-1 .5-3.2 2-3.4 2a1 1 0 0 0 .2.5 1 1 0 0 0-.6-.4l-.2.3.1.2c0-.3-.8 0-1 .2V87l.3.3a66.8 66.8 0 0 0 6-3.7l3.5-2.5a35.5 35.5 0 0 1 4.7-2.7c1.2-.6 2.5-1 3.7-1.7a40.4 40.4 0 0 0 5.2-3.3 13.2 13.2 0 0 0 1.2-1v-.1zm0-15.7v5.3l-1-1.4-1.6 1.7-1.4 1.3a13.5 13.5 0 0 1-2.2 1.4c-3 1.8-6.4 3.2-9.3 5.2a5 5 0 0 0-.7.5c-.3 0-1 .8-1.2.6a9.8 9.8 0 0 1-1.8 1.5.9.9 0 0 0-.3.4c-.1 0-3.5 2.1-3.6 2 0 .3-.2.2-.5.2l-.2.3.1.2c0-.3-.8 0-1 .2v-5.6l.3.3a70 70 0 0 0 6-3.7l3.5-2.5a35.5 35.5 0 0 1 4.7-2.7l3.7-1.7a41.2 41.2 0 0 0 5.2-3.4 9.5 9.5 0 0 0 1.2-1 5.8 5.8 0 0 1 0 .9zm0-4.8L73 57l-1 1.3-1.3 1.3a13.9 13.9 0 0 1-2.3 1.5c-3 1.8-6.3 3.1-9.3 5a4.3 4.3 0 0 0-.7.6.8.8 0 0 0-.7.4c0 .2-1.6 1.3-2.3 1.8a1 1 0 0 0-.3.3h-.3v.2L52 71c-.2 0-.4.3-.2.5a.7.7 0 0 0-.3-.2 1 1 0 0 0 .1.5 1 1 0 0 0-.5-.5l-.2.3v.2c0-.3-.7 0-1 .2v-5.6l.3.3a66.8 66.8 0 0 0 6-3.7l3.6-2.5a36.3 36.3 0 0 1 4.6-2.7l1.2-.5a2 2 0 0 1 .9 0h.5c.2 0 .1-.3.2-.5a1 1 0 0 1 .3-.2 4.3 4.3 0 0 0 .7-.4 39.6 39.6 0 0 0 5.1-3.4 9.2 9.2 0 0 0 1.3-1s0 6 0 6.3zm-7.7-14 1.5 1 1.4.8 3.4 2-4.2 2.5h-.2l-.4.3c-3 1.8-6.4 3.1-9.3 5.1a5 5 0 0 0-.7.5.8.8 0 0 0-.8.4c.1.2-.2.4-.4.2-.5.6-2 1.8-2.2 2h-.2c-1 .6-3.2 2-3.4 2 0 .2-.2.2-.4.2l-.2.3.1.2c-.1-.3-.8 0-1 .1V34.2c.2.2.9.5 1 .2v.2l.1.3.4.1a31 31 0 0 1 3.4 2l.2.1c0 .2 1.6 1.3 2.2 2a.3.3 0 0 1 .4.2.8.8 0 0 0 .8.3 5.9 5.9 0 0 0 .7.5 83 83 0 0 0 7.7 4.3zm3.7-7.8 1.4 1.3 1 1.3 1.6-1.1v6.3a9.9 9.9 0 0 0-1.3-1 41.6 41.6 0 0 0-5.1-3.4c-1.2-.6-2.5-1-3.7-1.7a36.3 36.3 0 0 1-4.7-2.7L56.3 33a66.8 66.8 0 0 0-6-3.7l-.3.4V24c.2.2.9.5 1 .2v.2l.1.3a1 1 0 0 0 .6-.4 1 1 0 0 0-.2.5.6.6 0 0 0 .4-.2c-.2.1 0 .4.2.5l2.8 1.6-.1.2h.3a.9.9 0 0 0 .3.4c.7.4 2.4 1.6 2.3 1.8a.8.8 0 0 0 .7.3 5.7 5.7 0 0 0 .7.5c3 2 6.3 3.3 9.3 5.1a13.6 13.6 0 0 1 2.2 1.5zm0-10.3 1.4 1.3 1.6 1.8 1-1.5a2.8 2.8 0 0 0 0 .7v1l-.1 3.5v1a11.6 11.6 0 0 0-1.2-1 40.3 40.3 0 0 0-5.2-3.4c-1.2-.6-2.5-1-3.7-1.7a34.1 34.1 0 0 1-4.7-2.7l-3.5-2.5a67 67 0 0 0-6-3.7l-.3.3v-5.5c.3.1 1 .5 1 .2v.2l.1.3h.4c.2 0 3.6 2.2 3.7 2.2a.9.9 0 0 0 .3.3 9 9 0 0 1 1.8 1.6c.2-.2 1 .6 1.2.6a4.6 4.6 0 0 0 .7.5c3 2 6.2 3.3 9.3 5.1a13.8 13.8 0 0 1 2.2 1.4zm-2.2-11.8a14.2 14.2 0 0 1 2.2 1.5l1.4 1.3 1.5 2 1.2-1.8v6.3h-.1a10.8 10.8 0 0 0-1.3-1 39.8 39.8 0 0 0-5.1-3.4l-3.7-1.7a36.3 36.3 0 0 1-4.7-2.7l-3.6-2.5a67 67 0 0 0-6-3.7L50 9V3.3c.2.2.8.5 1 .3v.2l.1.3a1 1 0 0 0 .6-.4 1 1 0 0 0-.2.5l3.5 2a2.8 2.8 0 0 0 .5.4l13 7.8zm-40 59zM41 69.7a79.2 79.2 0 0 0 .1-11.1c0-5.5.1-3-2.6-.5a5 5 0 0 0-.4.7c-.3 0 0 .2 0 .3-.4-.3-1 .7-.6.9-.6-.4-1.8 1.6-1.7 1.8-.1-.1-.4.1 0 .2-.3 0-.6.2-.3.2-.2 0-.3.3-.5.4-1 1.3-1.5 1.6-.2 3 1.9 2.3 3.9 5 5.5 7.4v-.1a10 10 0 0 0 .7.9c-.1-1.4.2-2.7 0-4.1zm-5.3 24.7c-.1 0-.5.2-.2.2-.2 0-.3.3-.5.4l-.7 1.1h7l-.1-5.1c0-5.5 0-3-2.7-.4a4.4 4.4 0 0 0-.4.6c-.3 0 0 .3 0 .3-.3-.3-1 .7-.6 1-.5-.5-1.7 1.5-1.7 1.7-.1-.1-.3.1 0 .2zm5.5-56.8a79 79 0 0 0-.2-11.1c.2-1.4-.1-2.7 0-4l-.6.8a133.1 133.1 0 0 1-5.6 7.3c-1.3 1.3-.7 1.6.2 3 .2.1.3.4.5.4-.3 0 0 .2.3.2-.3.1-.1.3 0 .2 0 .2 1.2 2.2 1.7 1.8-.4.2.3 1.2.6.9 0 0-.3.3 0 .3a4.7 4.7 0 0 0 .4.6c2.7 2.6 2.7 5.1 2.7-.4zm-26.9-36c.2 0 .6-.2.2-.2.3 0 .4-.3.5-.4l.8-1h-7L9 5c0 5.5 0 3 2.7.4a4.7 4.7 0 0 0 .4-.6c.3 0 0-.2 0-.3.3.3 1-.7.6-.9.5.4 1.7-1.6 1.6-1.8.2 0 .4-.1.1-.2zM41.2 5V0h-6.9l.8 1c.1.1.3.4.5.4-.4 0 0 .3.2.2-.3.1-.1.3 0 .2 0 .2 1.2 2.2 1.7 1.8-.4.1.3 1.1.6.9 0 0-.3.3 0 .3a4.7 4.7 0 0 0 .4.6c2.7 2.6 2.7 5 2.7-.4zM8.9 58.5a81.2 81.2 0 0 0 .2 11c-.2 1.5.1 2.8 0 4.2l.6-1v.1l5.5-7.4c1.4-1.3.8-1.6-.2-3 0-.1-.2-.4-.5-.4.4 0 0-.2-.2-.2.3 0 .1-.3 0-.2 0-.2-1.2-2.2-1.7-1.8.4-.1-.3-1.2-.6-.9 0 0 .3-.3 0-.3a3.4 3.4 0 0 0-.4-.6c-2.7-2.6-2.7-5-2.7.4zm.2-32.1a79 79 0 0 0-.1 11c0 5.6 0 3 2.6.5a4.7 4.7 0 0 0 .4-.6c.3 0 0-.3 0-.3.4.3 1-.7.6-1 .6.5 1.8-1.5 1.7-1.7.2 0 .4-.1 0-.2.3 0 .6-.2.3-.2.2 0 .4-.3.5-.4 1-1.3 1.5-1.7.2-3-1.9-2.3-3.9-5-5.5-7.4a9.8 9.8 0 0 0-.7-.8c.1 1.4-.2 2.7 0 4zM9 91v5h7l-.8-1c-.2-.2-.3-.4-.5-.4.3 0 0-.3-.2-.2.3-.1 0-.3-.1-.2 0-.2-1.1-2.2-1.7-1.8.5-.2-.2-1.2-.5-1 0 0 .3-.3 0-.2a4 4 0 0 0-.5-.7C9 88 9 85.5 9 91zm16-15.7c-.2.6-.6.9-.6 1.2-.2-.4-1 1.3-1.4 1.6L21.6 80c0 .3-.6.3-.2.4a7.5 7.5 0 0 0 1.2 2c-.2.4.3 0 .1.3s.5.4.6.4c0 .2.2 1 .6.8v.3l.3.4.4.7.6.9.2-.3.1-.2a18.6 18.6 0 0 0 2.5-4l.9-1.3c-.9-1-1.7-2.7-2.5-3.2.2-.4 0-.4-.3-.7a7.8 7.8 0 0 0-1-1.4c-.2.1-.1 1-.3.3zM5.5 96v-5.7c0-.5-.4-1.2-.5-1.9V78.2c0-1.8-.6-3.7-.6-5.5v-7.1c-.1-4 .1-8-.2-11.8a48.6 48.6 0 0 1 0-5.8 57.5 57.5 0 0 1 .1-5.9c.3-3.8 0-7.8.2-11.8v-7c0-1.8.5-3.7.5-5.5l.1-10.3c0-.7.3-1.4.4-2V0H.6v.6L0 8.1c-.1 1.8.2 3.3.1 5v15.8L.4 30a.3.3 0 0 0-.2-.1v5.4c0 .2.3 0 .2.2H.2a10 10 0 0 0 .2 3.2.7.7 0 0 0-.3.2c.4 1.8 0 3.5-.1 5.2 0 .7.5 1.8 0 2.3a2.3 2.3 0 0 1 .1.9H0a1 1 0 0 1 .2.7 1 1 0 0 1-.2.6h.1a2.3 2.3 0 0 1-.1 1c.5.4 0 1.5 0 2.2A17.1 17.1 0 0 1 0 57a.8.8 0 0 0 .4.2 9.8 9.8 0 0 0-.2 3.1h.2c0 .2-.2 0-.2.3V66l.2-.1c.1-.1 0 0 0 0 0 .4-.2.8-.3 1.1.2 5.2 0 10.5.1 15.6 0 1.8-.2 3.3 0 5.1l.3 7.5v.9zm-3-92.2a2 2 0 0 1 0-.4v-.2a.6.6 0 0 1 .7.3l-.5.4-.1.1-.2-.2zm.3 6a5.2 5.2 0 0 1-.3-1.5l-.5.2c-.2 0-.2-.2-.3-.3a3.5 3.5 0 0 0 .8-2 .6.6 0 0 0-.5 0V4.7a3 3 0 0 0 .1.6h.1a.5.5 0 0 0 0-.6s.2 0 .2 0 .2-.2.3 0a3.8 3.8 0 0 0 .5.8C2.6 6.8 3 8.5 3 10zm0 3-.3-.1.2-1h-.3a6 6 0 0 1 .2-1h.2v2.2zm-.3.5.2-.1a2.8 2.8 0 0 1 .3.3 2.7 2.7 0 0 1-.6-.2zm0 1V14a1 1 0 0 1 .3 0H3v.3a1.1 1.1 0 0 1-.3.2 2 2 0 0 1-.2-.3zm0 7.4.4-.1c-.2-.3-.5-.4-.7-.8a.8.8 0 0 1 .3-.9.7.7 0 0 1 .2.4.7.7 0 0 0 .5-.2h.1a2.3 2.3 0 0 1 0 .6c0 .2-.3 0-.4 0 0 .4.2.8.3 1.1l-.5.2-.2-.3zm.1 10.2V31a.5.5 0 0 0 .4-.1 1.6 1.6 0 0 1-.2 1c0 .1-.2.1-.2 0zm.5 4.8v-.5h-.5c-.1 0 0-.4-.2-.5l-.5-.3c.1-.2.4 0 .6-.1a11 11 0 0 1 .1-1.3.1.1 0 0 1 .1-.1h.6a3 3 0 0 0-.5 1.2.6.6 0 0 0 .4-.1c.3.6 0 1.1.2 1.7h-.3z"/>
      <path d="M22.3 1.4C21.9 2 21 2.4 21 3c-.5.1-.6.5-.6.9 0 0-.3 0-.4.2l-1.2 1.3L17.7 7s.4.3.1.2c-.9-.1-.2 1-1.3 1-.4 0 .4.6-.4.5-.2.2 0 .7-.4.8l.2.1c-.5 0-.7.2-.4.5-2 1.5-3 3.8-4.6 5.9a19.9 19.9 0 0 1 1.9 2.4 6.3 6.3 0 0 1 1 1.1c0 .6.9.5.8 1.1-.3.5.1.4.3.7.6-.4 0 .3.7.4.5 1 1.7 1.8 2 2.9.3 0 .8.2.5.4 1.2.7 1.6 2.5 3 3a4.3 4.3 0 0 0 .7 1.3l2 2.5-.9 1.1a1.9 1.9 0 0 1-.2.3c-.2-.4-.3 0-.4.2a1.8 1.8 0 0 1-.2.4 6.1 6.1 0 0 1-.4.4 13.9 13.9 0 0 0-1 1.3 6.5 6.5 0 0 1-.6.6c-.1.2-.4.4-.4.6l-.2.4a2.5 2.5 0 0 0-.4.2 3.4 3.4 0 0 0-.5.7c-.1 0-.8 1.2-1 1.1l.2.2c-.9-.1-.2 1-1.3 1-.3 0 0 .3 0 .4s-.1.2-.4.1c-.2.2 0 .7-.4.8l.2.1c-.6 0-.7.2-.4.5-2 1.5-3 3.7-4.5 5.8 1.4 2.1 2.6 4.3 4.5 5.8-.3.3-.2.5.4.5h-.2c.4.2.2.7.4.9h.3s-.2.5.1.5c1.1 0 .4 1.2 1.3 1l-.1.2c.7.6 1 1.8 2 2.1-.1.2-.2.3.2.1-.4.3 0 .4 0 .1.3 0-.4.6.2.1 0 .2-.5.3.1.2l-.1.2c.6.7 1 1.7 2 2.4.3.1.3 1.3.6.7a1.4 1.4 0 0 1 .2.3l1 1-2.1 2.6A4.3 4.3 0 0 0 21 68c-1.2.5-1.7 2.3-3 3 .4.2-.2.4-.4.4-.4 1.2-1.6 2-2 3-.8 0-.1.7-.8.3-.2.3-.5.2-.3.7.1.6-.7.5-.7 1a5.6 5.6 0 0 1-1 1.2 21.6 21.6 0 0 1-1.9 2.4c1.6 2 2.6 4.4 4.6 5.9-.3.3-.1.5.4.5h-.2c.4.2.2.7.4.9.8-.1 0 .4.4.5 1.1 0 .4 1.2 1.3 1 .3-.1-.1.2-.1.2l1.2 1.6 1.2 1.3.4.2c0 .4 0 .7.6.8 0 .6.8 1 1.1 1.6.2.2.3 1 .5.4l.5 1h4.2c2.4-3.5 7.6-9 9.3-12l.2-.4c.2 0 .1 0 .1-.2h.1l2.5-3.4-3.6-4v.3a56 56 0 0 0-5-6.1c.2-1.2-3.3-4-3.8-5.6 2.2-4.3 6.9-8.4 9.5-12.5l3-4-3-3.9c-2.6-4.2-7.3-8.2-9.5-12.6.5-1.5 4-4.3 3.7-5.5a57.2 57.2 0 0 0 5.1-6.2v.2l3.6-4-2.5-3.3-.1-.1c0-.1 0-.3-.2-.3l-.2-.2C35 9 30 3.6 27.5 0h-4.3a3 3 0 0 1-.5 1c-.2-.7-.3.2-.4.4zm3 67.9a.4.4 0 0 1 0 .1l3 3.8.1.2c.4 0 .3.1.3.3 0 .3.9.4.8.9h.2a11.3 11.3 0 0 0 2.4 3.2l2.5 2.7-2 2.5-.5.6c-10.3 12.2-4.7 9.2-15-1.4.3-.4 0-.9-.7-.7.3-.3 0-.8-.4-1 .9-2.3 4.2-4.5 5.3-7 .2.2 1-.7 1-1 .5 0 .8-.7 1-.9.3-1 1.7-1.8 1.8-2.4.1.2.1.1.1 0 0 0 0 .3.1 0zm1.9-30.7c1.3 2.1 3.7 4 5 6.2l2.4 3 .2.3-.2.2-2.4 3c-1.4 2.1-3.8 4-5 6.1-1.2 1.3-1.4 2.5-2.3 2l-6.3-7.7a5.9 5.9 0 0 0-1.5-1.6c.3-.5-.1-.8-.7-.7.3-.3 0-.8-.4-1v-.8c.4-.1.7-.6.4-1 .6.2 1-.2.7-.7.7-.1 4.9-6 4.9-6 .5-.8 1.1-1.3 1.6-2 2.2-2.6 2-1 3.6.7zm5-26.2.4.6 2 2.6-2.4 2.6a11.6 11.6 0 0 0-2.5 3.3l-.2-.1c.1.5-.7.6-.8 1l-.1.2h-.2l-.3.5-.2.4-1.2 1.3-.8 1-.4.5a1.7 1.7 0 0 0-.2.3l-.1.3c-.5-1-1.5-1.5-2-2.5 0-.2-.4-.7-1-.8.2-.3-.7-1.3-.8-1.1-1.2-2.4-4.5-4.7-5.4-7 .4 0 .7-.6.4-.9.7 0 1-.3.7-.8 10.4-10.6 4.7-13.7 15-1.4z"/>
      <path d="m24.2 43.7-.3.5a.4.4 0 0 0 0 .3c-.4-.3-.6.5-.6.8 0 0-.8.3-.6.4.2.3-.3 0-.1.3a7.5 7.5 0 0 0-1.2 2 7.3 7.3 0 0 0 1.2 1.9c-.2.4.3 0 .1.3-.2.1.5.4.6.4 0 .3.2 1.1.6.9 0 0-.1.4 0 .2l.3.4v.1l.4.7.6.9.2-.3.1-.2a19 19 0 0 0 2.4-3.7l1-1.7-1-1.7a19.3 19.3 0 0 0-2.4-3.7v-.1l-.3-.3-.6 1zm0-32.3-.3.5c-.1-.2 0 .1 0 .2-.4-.2-.6.6-.6.9 0 0-.8.3-.6.4.2.2-.3-.1-.1.3a7.7 7.7 0 0 0-1.2 2c-.4 0 .1 0 .2.3l1.3 1.8c.4.3 1.2 2 1.4 1.6 0 .3.4.7.5 1.2.3-.6.1.2.4.3a7.3 7.3 0 0 0 .9-1.4c.3-.3.5-.2.3-.7.8-.5 1.6-2.1 2.5-3.2l-.9-1.3a19 19 0 0 0-2.5-4V10l-.3-.3-.6 1z"/>
    </g>
  </pattern>
  <rect width="80" height="100%" fill="url(#a)"/>
</svg>
