<svg width="231" height="80" viewBox="0 0 231 80" fill="none" xmlns="http://www.w3.org/2000/svg">
<g clip-path="url(#clip0_12950_83587)">
<g clip-path="url(#clip1_12950_83587)">
<mask id="mask0_12950_83587" style="mask-type:luminance" maskUnits="userSpaceOnUse" x="-791" y="0" width="3096" height="80">
<path d="M2304.59 0H-791V80H2304.59V0Z" fill="white"/>
</mask>
<g mask="url(#mask0_12950_83587)">
<path d="M2304.59 0H-791V80H2304.59V0Z" fill="#BE008C"/>
</g>
<mask id="mask1_12950_83587" style="mask-type:luminance" maskUnits="userSpaceOnUse" x="-791" y="0" width="3096" height="80">
<path d="M2304.59 0H-791V80H2304.59V0Z" fill="white"/>
</mask>
<g mask="url(#mask1_12950_83587)">
<path fill-rule="evenodd" clip-rule="evenodd" d="M85.4022 73.6507C88.5768 71.9576 91.1869 70.4761 93.7266 68.9946C96.2663 67.5131 98.7355 65.9611 101.275 64.3385L102.263 63.7036L102.686 63.4214L102.898 63.2803L103.885 62.6454L104.379 62.2927L105.367 61.6577L107.413 60.3879C108.894 59.4708 110.376 58.5537 111.857 57.7071V43.88L106.213 47.1956L101.839 49.7353L99.4409 51.1463C96.1957 52.9805 92.9506 54.8147 89.7055 56.6489C78.6296 63.2098 67.6949 69.8411 56.5485 76.3315C55.5609 76.7547 52.8095 78.5889 50.4109 79.9999C50.1287 80.141 49.8466 80.3526 49.5644 80.4937C48.8589 80.9875 48.0829 81.4108 47.3774 81.9046C46.3192 81.2697 45.261 80.7053 44.2028 80.0704C44.2028 80.0704 44.1323 80.0704 44.1323 79.9999C43.3563 79.5766 42.5802 79.0828 41.8748 78.6595C31.716 73.0863 20.0758 65.7494 10.1993 59.753C8.43559 58.977 6.67194 58.0598 5.54319 56.9311C5.47264 56.9311 5.47268 56.8605 5.40213 56.8605V56.79C5.33158 56.7195 5.26099 56.6489 5.26099 56.5784C5.19044 56.5078 5.04942 56.5078 4.97887 56.5078C4.62613 56.2962 4.34393 56.0845 3.9912 55.9434C2.7919 55.6613 1.66312 54.8147 0.604919 53.9681C-1.0882 52.9805 -2.78131 52.0634 -4.40388 51.0757C-5.1799 50.6524 -5.95594 50.1586 -6.73196 49.7353C-8.07235 48.9593 -9.48323 48.1127 -10.8236 47.3367C-11.1058 47.1956 -11.3174 47.0546 -11.5996 46.9135C-13.3633 45.9258 -15.1976 45.0087 -16.9612 44.021V57.7777C-16.8201 57.7777 -16.7496 57.7777 -16.6085 57.8482C-16.3263 57.9188 -15.9736 58.1304 -15.6208 58.7653C-13.7866 59.8235 -11.8819 61.305 -9.90656 62.3632L-8.98942 62.857C-8.70723 62.9981 -8.49561 63.1392 -8.21342 63.3509C-7.86069 63.5625 -7.50794 63.7741 -7.22575 64.0563C-6.73192 64.3385 -6.30863 64.6912 -5.88535 64.9734C-5.88535 64.9734 -5.39154 65.1851 -4.75662 65.5378C-4.12169 65.8905 -3.20457 66.3844 -2.35801 66.9487C-1.51145 67.4426 -0.664938 68.0069 -0.0300179 68.3597C0.252169 68.5713 0.534424 68.7124 0.746065 68.8535C0.887157 68.9946 1.02818 69.0651 1.02818 69.0651C2.58021 69.6295 3.85007 70.2644 4.83772 70.8994C5.82538 71.5343 6.46035 72.0986 7.09527 72.663C8.78839 73.439 10.6226 74.4972 11.8924 75.2732C13.1622 76.0493 13.8677 76.6136 13.8677 76.6842C13.9383 76.7547 14.0089 76.7547 14.1499 76.8253C14.0794 76.9664 14.1499 77.178 13.7266 77.2486C13.3033 77.3191 12.3863 77.2486 10.6226 76.8253C11.6103 77.2486 11.3986 77.3191 10.7637 77.2486C10.1287 77.178 9.07056 76.9664 8.224 76.8253C8.57674 76.9664 8.50619 77.2486 7.1658 76.8253C6.60143 76.9664 5.96652 77.178 4.97887 77.2486C3.99121 77.3191 2.65078 77.2486 0.957653 76.8253C-0.100548 77.2486 -2.42856 77.178 -4.47441 77.0369C-6.59081 76.8958 -8.49563 76.6842 -10.2593 76.8253C-10.2593 76.6842 -11.1764 76.7547 -11.4586 76.8253C-11.6702 76.8958 -11.9524 77.4602 -12.0935 76.8253C-12.164 76.9664 -12.3052 76.6842 -12.3757 76.8253C-12.5168 76.7547 -12.4462 76.8958 -12.5873 76.8253C-12.7284 76.7547 -13.2928 76.9664 -13.2928 76.8253C-13.2928 76.7547 -13.3633 76.9664 -13.3633 76.8253C-14.492 78.1657 -15.7619 76.8958 -17.0318 77.1075V89.1004C-15.4092 88.6066 -13.6455 89.5237 -11.8818 89.1004C-8.0723 88.6771 -4.19226 88.536 -0.453281 89.1004C0.746014 88.2539 2.29808 89.6648 3.63846 89.1004C4.06174 89.0299 4.34391 89.1004 4.76719 89.1004C5.61376 88.3244 6.5309 89.171 7.44801 89.1004C9.91714 88.8182 12.4568 88.6771 14.7848 89.1004C15.6314 89.0299 16.9012 88.2539 17.5361 89.1004C23.1799 89.0299 29.0353 88.536 34.8201 89.1004C34.8201 88.9593 45.1199 88.9593 45.3316 89.1004C48.2945 88.2539 51.5397 88.7477 54.5732 89.1004C57.9594 88.536 64.8024 89.0299 64.873 89.1004C66.2839 88.8182 68.4004 87.9717 69.5997 89.1004C70.5168 88.0422 71.7161 88.6771 72.7037 89.1004C72.7037 88.9593 73.7619 88.6066 74.1147 89.1004C76.7954 88.6771 79.5468 88.1128 82.2275 89.1004C87.0953 87.9717 92.0335 89.5237 96.8307 89.1004C96.8307 89.312 98.03 89.171 98.4533 89.1004C99.0177 89.0299 99.6525 88.3244 100.076 89.1004C100.287 88.9593 100.499 89.2415 100.711 89.1004C100.993 89.171 100.852 89.0299 101.205 89.1004C101.557 89.171 102.898 88.8888 102.827 89.1004C102.898 89.171 102.968 88.9593 102.968 89.1004C105.79 87.4778 108.824 89.3826 111.857 89.1004V77.1075C111.787 77.1075 111.716 77.2486 111.716 77.1075C110.376 77.3191 108.824 77.3896 107.272 77.3191C106.848 77.3191 106.425 77.2486 106.002 77.2486C105.296 77.2486 104.52 77.178 103.815 77.178C102.404 77.1075 101.063 77.1075 99.7936 77.1075C99.8642 77.0369 99.7937 76.9664 99.582 77.1075C98.3122 77.1075 96.9012 77.1075 95.4198 77.178C94.0088 77.2486 92.5979 77.2486 91.5397 77.1075C91.7513 77.0369 89.9877 77.1075 87.8713 77.178C85.7549 77.2486 83.1446 77.2486 81.9453 77.1075C80.8871 77.2486 79.8995 77.2486 79.0529 77.3191C79.8995 76.8253 81.0282 76.1904 82.1569 75.5554C83.4268 74.7089 84.485 74.1445 85.4022 73.6507ZM111.504 97.2133C104.944 97.8482 96.4779 97.2838 90.1993 97.2133C90.1993 97.0722 89.9876 97.0016 89.9171 97.2133C86.6014 97.1427 83.0741 97.4955 79.8289 97.2133C80.1111 97.1427 71.7866 97.4955 67.7655 97.2133C64.5203 97.7777 60.4991 97.2133 56.9718 97.2133C56.9718 97.0722 56.9718 97.3544 56.9718 97.2133C39.5467 96.1551 22.1922 98.342 4.76719 97.2133C-1.22928 97.2133 -7.22573 97.3544 -13.2928 97.2133C-13.8571 97.0722 -15.7619 97.2133 -17.1023 97.2133V99.9646H111.857V97.2133C111.716 97.2133 111.575 97.4249 111.504 97.2133ZM-17.1023 -19.9648V-13.8273C-15.4797 -14.3211 -13.716 -13.404 -11.9523 -13.8273C-8.14282 -14.2506 -4.26279 -14.3917 -0.523811 -13.8273C0.675484 -14.6738 2.22755 -13.2629 3.56793 -13.8273C3.99121 -13.8978 4.27338 -13.8273 4.69666 -13.8273C5.54323 -14.6033 6.46028 -13.7567 7.37739 -13.8273C9.84653 -14.1095 12.3862 -14.2506 14.7143 -13.8273C15.5608 -13.8978 16.8307 -14.6738 17.4656 -13.8273C23.1093 -13.8978 28.9647 -14.3917 34.7496 -13.8273C34.7496 -13.9684 45.0494 -13.9684 45.261 -13.8273C48.224 -14.6738 51.4691 -14.18 54.5026 -13.8273C57.8889 -14.3917 64.7319 -13.8978 64.8025 -13.8273C66.2134 -14.1095 68.3298 -14.956 69.5291 -13.8273C70.4462 -14.8855 71.6455 -14.2506 72.6331 -13.8273C72.6331 -13.9684 73.6913 -14.3211 74.0441 -13.8273C76.7248 -14.2506 79.4762 -14.8149 82.1569 -13.8273C87.0247 -14.956 91.963 -13.404 96.7602 -13.8273C96.7602 -13.6156 97.9594 -13.7567 98.3827 -13.8273C98.9471 -13.8978 99.582 -14.6033 100.005 -13.8273C100.217 -13.9684 100.429 -13.6862 100.64 -13.8273C100.922 -13.7567 100.781 -13.8978 101.134 -13.8273C101.487 -13.7567 102.827 -14.0389 102.757 -13.8273C102.827 -13.7567 102.898 -13.9684 102.898 -13.8273C105.72 -15.4499 108.753 -13.5451 111.787 -13.8273V-19.9648H-17.1023ZM111.504 -5.50276C104.944 -4.86784 96.4779 -5.43222 90.1993 -5.50276C90.1993 -5.64386 89.9876 -5.7144 89.9171 -5.50276C86.6014 -5.57331 83.0741 -5.22058 79.8289 -5.50276C80.1111 -5.57331 71.7866 -5.22058 67.7655 -5.50276C64.5203 -4.93839 60.4991 -5.50276 56.9718 -5.50276C56.9718 -5.64386 56.9718 -5.36167 56.9718 -5.50276C39.5467 -6.56096 22.1922 -4.37402 4.76719 -5.50276C-1.22928 -5.50276 -7.22573 -5.36167 -13.2928 -5.50276C-13.8571 -5.64386 -15.7619 -5.50276 -17.1023 -5.50276V6.49018C-17.0317 6.49018 -16.9612 6.34909 -16.9612 6.49018C-15.6208 6.20799 -14.0688 5.92581 -12.5168 5.99635C-12.0935 5.99635 -11.6702 6.0669 -11.2469 6.0669C-10.5414 6.0669 -9.76542 6.13745 -9.05995 6.13745C-7.64901 6.20799 -6.30866 6.20799 -5.03882 6.20799C-5.10937 6.27854 -5.03878 6.34909 -4.82714 6.20799C-3.5573 6.20799 -2.14635 6.13745 -0.664869 6.13745C0.746065 6.13745 2.157 6.0669 3.2152 6.20799C3.00356 6.27854 4.76719 6.20799 6.8836 6.13745C9 6.0669 11.6102 6.0669 12.8095 6.20799C13.8677 6.0669 14.8554 6.0669 15.7019 5.99635C14.8554 6.49018 13.7266 7.1251 12.5979 7.76002C11.4691 8.3244 10.3404 8.95931 9.49379 9.45314C6.31919 11.1463 3.70901 12.6277 1.16933 14.1092C-1.37035 15.5907 -3.83954 17.1427 -6.37922 18.7653L-7.36681 19.4002L-7.79016 19.6824L-8.00175 19.8235L-8.98942 20.529L-9.48321 20.8817L-10.4709 21.5166L-12.5168 22.7865C-13.9982 23.7036 -15.4798 24.1269 -16.9612 25.044V39.2944C-16.679 39.1533 -16.2558 39.0122 -15.9736 38.8006C-13.0106 37.0369 -9.13051 34.9205 -4.75662 32.3103C-0.453264 29.7001 4.48503 26.8076 7.87127 24.9029C13.5856 20.8112 21.2751 17.0016 27.6949 13.1216C27.6243 12.9805 27.7654 13.1921 27.7654 13.051C28.5414 12.6277 29.2469 12.2045 30.023 11.7812C33.3387 8.81822 37.7831 7.1251 42.0159 4.93815L47.589 1.693L50.1993 3.24503C51.3986 3.8094 52.5273 4.51487 53.5855 5.29089L57.0423 7.33674L60.9224 9.59424C65.5785 12.0634 70.2345 14.7441 74.7495 17.566L79.4057 20.2468L94.3616 28.8535L101.839 33.2274L112.069 39.2944V24.9029C111.928 24.9029 111.857 24.9029 111.716 24.8323C111.434 24.7618 111.081 24.5501 110.728 23.9152C108.894 22.857 106.989 21.8694 105.014 20.7406L104.097 20.2468C103.815 20.1057 103.603 19.9646 103.321 19.753C102.968 19.5413 102.616 19.3297 102.333 19.0475C101.84 18.7653 101.416 18.4126 100.993 18.1304C100.993 18.1304 100.499 17.9188 99.8642 17.566C99.2293 17.2133 98.3122 16.7195 97.4656 16.1551C96.6191 15.6613 95.7725 15.1674 95.1376 14.7441C94.8554 14.5325 94.5732 14.3914 94.3616 14.2503C94.2205 14.1092 94.0794 14.0387 94.0794 14.0387C92.5273 13.4743 91.2575 12.8394 90.2698 12.2045C89.2822 11.5695 88.6473 11.0052 88.0123 10.5113C86.3192 9.73533 84.485 8.67713 83.2151 7.90112C81.9453 7.1251 81.2399 6.56073 81.2399 6.49018C81.1693 6.49018 81.0988 6.41963 80.9577 6.34909C81.0282 6.20799 80.9577 5.99635 81.3809 5.92581C81.8042 5.85526 82.7213 5.92581 84.485 6.34909C83.4974 5.92581 83.709 5.85526 84.3439 5.92581C84.9789 5.99635 86.0371 6.20799 86.8836 6.34909C86.5309 6.20799 86.6014 5.92581 87.9418 6.34909C88.5062 6.20799 89.1411 5.99635 90.1288 5.92581C91.1164 5.85526 92.4568 5.92581 94.1499 6.34909C95.2081 5.92581 97.5362 5.99636 99.582 6.13745C101.698 6.27854 103.603 6.49018 105.367 6.34909C105.367 6.49018 106.284 6.41963 106.566 6.34909C106.778 6.27854 107.06 5.71417 107.201 6.34909C107.272 6.20799 107.413 6.49018 107.483 6.34909C107.624 6.41963 107.554 6.27854 107.695 6.34909C107.836 6.41963 108.4 6.20799 108.4 6.34909C108.471 6.41963 108.471 6.20799 108.471 6.34909C109.6 5.0087 110.869 6.56073 112.139 6.34909V-5.50276C111.716 -5.50276 111.575 -5.29112 111.504 -5.50276ZM97.5362 41.4814L97.4656 41.4108L97.1834 41.1992L94.7848 39.7882C91.6102 37.8129 88.5061 35.9082 85.3315 33.8623C74.2557 27.2309 63.1799 20.8817 52.1746 14.1798C51.4691 13.686 49.4938 12.5572 47.5185 11.3579C47.448 11.3579 47.448 11.4285 47.3774 11.4285C47.3774 11.4285 47.3775 11.499 47.3069 11.499C47.3069 11.499 47.3068 11.499 47.2363 11.5695L46.3898 12.0634C36.5838 18.342 24.6614 25.044 14.6437 30.8288C13.0917 31.9576 11.4692 33.0863 9.91714 33.5801C9.84659 33.5801 9.84654 33.6507 9.776 33.6507C9.776 33.6507 9.77601 33.6507 9.70547 33.6507C9.63492 33.6507 9.56436 33.7212 9.42326 33.7212C9.35271 33.7918 9.21167 33.8623 9.21167 34.0034C8.85894 34.215 8.50621 34.4267 8.15347 34.6383C7.30691 35.5554 6.10756 36.1198 4.83772 36.6136C3.21515 37.6013 1.52203 38.6595 -0.100548 39.6471C-0.876562 40.141 -1.65252 40.5643 -2.42854 41.0581L-2.99295 41.4108H-3.06348C-3.06348 41.4814 -2.99298 41.4814 -3.20462 41.5519C-3.20462 41.5519 -3.27513 41.6225 -3.34568 41.6225C-3.34568 41.6225 -3.27515 41.6225 -3.27515 41.693C-3.2046 41.693 -3.13402 41.7635 -3.06348 41.7635L-2.92242 41.8341C-2.64023 41.9752 -2.42861 42.1163 -2.14642 42.2574C-1.65259 42.5396 -1.08818 42.8923 -0.523811 43.1745C3.85009 45.7142 8.71778 48.6066 11.9629 50.723C18.2416 53.827 25.3669 58.6948 31.7866 62.5043C31.8572 62.4337 31.7866 62.6454 31.8572 62.5748C32.5626 63.0687 33.3386 63.4919 34.0441 63.9152C38.2769 65.3967 41.9453 68.5008 45.8254 71.1815L46.8836 71.8165L47.0952 71.9576C47.7302 71.6048 48.4357 71.1815 49.0706 70.8288L52.4568 68.783L56.3368 66.4549C60.7813 63.5625 65.3669 60.7406 69.9524 58.1304L74.5379 55.3085L89.2822 46.2785L96.619 41.8341L97.1129 41.5519L97.254 41.4814H97.5362C97.5362 41.5519 97.5362 41.5519 97.5362 41.4814ZM71.0811 42.1868C70.7989 42.469 70.3051 42.6807 69.4585 42.8218C69.388 42.8218 69.2469 42.8923 69.1764 42.8923C68.5415 43.5978 67.4832 44.3738 66.2839 45.0792C65.0846 45.7847 63.8148 46.4902 62.545 47.1251C62.3334 47.1956 62.1922 47.3367 61.9806 47.4073C61.8395 47.4778 61.6279 47.6189 61.4868 47.76L59.4409 49.0299L58.7355 49.4531L58.171 49.7353C57.5361 50.0881 56.9012 50.3703 56.2663 50.6524C56.1252 50.9346 56.0547 51.499 55.5608 51.0757C55.2081 51.2874 54.6437 51.7106 53.9382 52.0634C53.4444 53.686 51.7513 53.6154 50.4109 54.1092C49.8465 54.3914 49.4939 54.6031 49.4233 54.6031C48.7884 55.1674 48.1534 55.7318 47.448 56.2256C46.3192 55.6613 45.1199 54.9558 43.9912 54.1798L43.1446 53.6154L42.933 53.4743C42.8624 53.4038 42.8624 53.4038 42.7919 53.4038L42.5802 53.2627C42.4391 53.1216 42.298 53.051 42.2275 52.9099C40.6049 52.275 39.0529 51.4285 37.7125 50.2997C37.4303 50.0881 37.1481 49.8764 36.9365 49.7353C36.5132 49.8059 36.3016 49.6648 36.09 49.3826C36.0194 49.3826 35.9488 49.3826 35.8783 49.3826H35.8078L35.6667 49.312L35.314 49.171C35.1023 49.1004 34.8201 48.9593 34.6085 48.8888C33.7619 48.536 33.0565 47.9717 32.8448 47.4073C32.5626 47.4073 32.351 47.3367 32.2099 47.2662C31.6455 47.1956 31.1517 46.984 30.8695 46.7018C30.4462 46.3491 30.2346 45.9964 30.023 45.6436C29.9524 45.6436 29.8819 45.5731 29.7408 45.5025C29.388 45.432 28.7531 45.2203 28.612 44.9381C27.9066 44.5854 27.2011 44.1621 26.5662 43.8094C25.0141 43.1039 23.4621 42.3279 22.3334 41.6225C22.7566 41.4108 23.2505 41.1992 23.7443 40.917C24.0265 40.6348 24.5202 40.4232 25.3668 40.2821C25.4374 40.2821 25.5785 40.2115 25.649 40.2115C26.2839 39.5061 27.3421 38.73 28.5414 38.0246C29.7407 37.3191 31.0106 36.6136 32.2804 35.9787C32.4921 35.9082 32.6332 35.7671 32.8448 35.6965C32.9859 35.5554 33.1975 35.4849 33.3386 35.3438L35.3845 34.074L36.09 33.6507L36.6543 33.3685C37.2892 33.0158 37.9242 32.7336 38.5591 32.4514C38.7002 32.1692 38.7707 31.6048 39.2646 32.0281C39.6173 31.8165 40.1816 31.3932 40.8871 31.0404C41.3809 29.4179 43.074 29.4884 44.4144 28.9946C44.9788 28.7124 45.3316 28.5008 45.4021 28.5008C46.037 27.9364 46.672 27.372 47.3774 26.8782C48.5062 27.4426 49.776 28.148 50.9048 28.924L51.7513 29.4884L51.963 29.6295C52.0335 29.7001 52.0335 29.7001 52.104 29.7001L52.3157 29.8411C52.4568 29.9822 52.5979 30.0528 52.6684 30.1939C54.291 30.8288 55.8431 31.6754 57.1835 32.8041C57.4656 33.0158 57.7478 33.2274 57.9595 33.3685C58.3827 33.2979 58.5943 33.439 58.806 33.7212C58.8765 33.7212 58.9471 33.7212 59.0177 33.7212H59.0882L59.2292 33.7918L59.582 33.9329C59.7936 34.0034 60.0758 34.1445 60.2874 34.215C61.134 34.5678 61.8395 35.1322 62.0511 35.6965C62.3333 35.6965 62.5449 35.7671 62.7566 35.8376C63.321 35.9082 63.7443 36.1198 64.097 36.402C64.5203 36.7547 64.732 37.1075 64.9436 37.4602C65.0141 37.5307 65.0846 37.5307 65.2257 37.6013C65.5785 37.6718 66.2134 37.8835 66.3545 38.1657C67.06 38.5184 67.7655 38.9417 68.4709 39.2944C70.023 39.9999 71.575 40.7053 72.7037 41.4814C72.1394 41.7635 71.6455 41.9752 71.0811 42.1868Z" fill="#78006E"/>
<path fill-rule="evenodd" clip-rule="evenodd" d="M230.235 64.268L231.222 63.633L231.645 63.3509L231.857 63.2098L232.845 62.5748L233.339 62.2221L234.326 61.5872L236.372 60.3173C237.854 59.4002 239.335 58.4831 240.817 57.6366V43.88L235.173 47.1956L230.799 49.7353L228.4 51.1463C225.155 52.9805 221.981 54.8147 218.735 56.6489C207.66 63.2098 196.725 69.8411 185.579 76.3315C184.591 76.7547 181.839 78.5889 179.441 79.9999C179.159 80.141 178.877 80.3526 178.594 80.4937C177.889 80.9875 177.113 81.4108 176.407 81.9046C175.349 81.2697 174.291 80.7053 173.233 80.0704C173.233 80.0704 173.162 80.0704 173.162 79.9999C172.386 79.5766 171.61 79.0828 170.834 78.6595C160.676 73.0863 149.035 65.7494 139.159 59.753C137.395 58.977 135.631 58.0598 134.503 56.9311C134.432 56.9311 134.432 56.8605 134.362 56.8605V56.79C134.291 56.7195 134.22 56.6489 134.15 56.5784C134.079 56.5078 133.938 56.5078 133.868 56.5078C133.515 56.2962 133.162 56.0845 132.88 55.9434C131.681 55.6613 130.552 54.8147 129.494 53.9681C127.801 52.9805 126.178 52.0634 124.485 51.0757C123.709 50.6524 122.933 50.1586 122.157 49.7353C120.817 48.9593 119.406 48.1127 118.065 47.3367C117.783 47.1956 117.571 47.0546 117.289 46.9135C115.526 45.9258 113.691 45.0087 111.928 44.021V57.7777C112.069 57.7777 112.139 57.7777 112.28 57.8482C112.563 57.9188 112.915 58.1304 113.268 58.7653C115.102 59.8235 117.007 61.305 118.982 62.3632L119.899 62.857C120.182 62.9981 120.393 63.1392 120.676 63.3509C121.028 63.5625 121.381 63.7741 121.663 64.0563C122.157 64.3385 122.58 64.6912 123.004 64.9734C123.004 64.9734 123.497 65.1851 124.132 65.5378C124.767 65.8905 125.684 66.3844 126.531 66.9487C127.377 67.4426 128.224 68.0069 128.859 68.3597C129.141 68.5713 129.423 68.7124 129.635 68.8535C129.776 68.9946 129.917 69.0651 129.917 69.0651C131.469 69.6295 132.739 70.2644 133.727 70.8994C134.714 71.5343 135.349 72.0986 135.984 72.663C137.677 73.439 139.511 74.4972 140.781 75.2732C142.122 76.1198 142.827 76.6842 142.757 76.6842C142.827 76.7547 142.968 76.7547 143.039 76.8253C142.968 76.9664 143.039 77.178 142.616 77.2486C142.192 77.3191 141.275 77.2486 139.511 76.8253C140.499 77.2486 140.287 77.3191 139.653 77.2486C139.018 77.178 137.959 76.9664 137.113 76.8253C137.466 76.9664 137.395 77.2486 136.055 76.8253C135.49 76.9664 134.855 77.178 133.868 77.2486C132.88 77.3191 131.54 77.2486 129.847 76.8253C128.788 77.2486 126.46 77.178 124.414 77.0369C122.298 76.8958 120.393 76.6842 118.63 76.8253C118.63 76.6842 117.712 76.7547 117.43 76.8253C117.219 76.8958 116.937 77.4602 116.795 76.8253C116.725 76.9664 116.654 76.6842 116.513 76.8253C116.372 76.7547 116.443 76.8958 116.302 76.8253C116.16 76.7547 115.596 76.9664 115.596 76.8253C115.596 76.7547 115.526 76.9664 115.526 76.8253C114.397 78.1657 113.127 76.8958 111.857 77.1075V89.1004C113.48 88.6066 115.243 89.5237 117.007 89.1004C120.746 88.6771 124.697 88.536 128.436 89.1004C129.635 88.2539 131.187 89.6648 132.527 89.1004C132.951 89.0299 133.233 89.1004 133.656 89.1004C134.503 88.3244 135.349 89.171 136.337 89.1004C138.806 88.8182 141.346 88.6771 143.674 89.1004C144.52 89.0299 145.72 88.2539 146.425 89.1004C152.069 89.0299 157.924 88.536 163.709 89.1004C163.709 88.9593 174.009 88.9593 174.22 89.1004C177.183 88.2539 180.429 88.7477 183.462 89.1004C186.848 88.536 193.691 89.0299 193.762 89.1004C195.173 88.8182 197.289 87.9717 198.489 89.1004C199.406 88.0422 200.605 88.6771 201.593 89.1004C201.593 88.9593 202.651 88.6066 203.004 89.1004C205.684 88.6771 208.506 88.1128 211.116 89.1004C215.984 87.9717 220.922 89.5237 225.72 89.1004C225.72 89.312 226.919 89.171 227.342 89.1004C227.907 89.0299 228.541 88.3244 228.965 89.1004C229.176 88.9593 229.388 89.2415 229.6 89.1004C229.882 89.171 229.741 89.0299 230.164 89.1004C230.517 89.171 231.787 88.8888 231.787 89.1004C231.857 89.171 231.928 88.9593 231.928 89.1004C234.75 87.4778 237.854 89.3826 240.817 89.1004V77.1075C240.746 77.1075 240.676 77.2486 240.676 77.1075C239.335 77.3191 237.783 77.3896 236.231 77.3191C235.808 77.3191 235.385 77.2486 234.961 77.2486C234.256 77.2486 233.48 77.178 232.774 77.178C231.363 77.1075 230.023 77.1075 228.824 77.1075C228.894 77.0369 228.824 76.9664 228.612 77.1075C227.342 77.1075 225.861 77.1075 224.45 77.178C223.039 77.2486 221.628 77.2486 220.57 77.1075C220.781 77.0369 219.088 77.1075 216.901 77.178C214.785 77.2486 212.175 77.2486 210.975 77.1075C209.847 77.2486 208.929 77.2486 208.083 77.3191C208.929 76.8253 210.058 76.1904 211.187 75.5554C212.316 74.9205 213.444 74.3561 214.291 73.8623H214.362C217.536 72.1692 220.146 70.6877 222.686 69.2062C225.226 67.4426 227.695 65.8905 230.235 64.268ZM240.464 97.2133C233.903 97.8482 225.508 97.2838 219.159 97.2133C219.159 97.0722 218.947 97.0016 218.877 97.2133C215.561 97.1427 212.033 97.4955 208.788 97.2133C209.071 97.1427 200.746 97.4955 196.725 97.2133C193.48 97.7777 189.459 97.2133 185.931 97.2133C185.931 97.0722 185.931 97.3544 185.931 97.2133C168.506 96.1551 151.081 98.342 133.727 97.2133C127.73 97.2133 121.734 97.3544 115.667 97.2133C115.102 97.0722 113.198 97.2133 111.857 97.2133V99.9646H240.817V97.2133C240.675 97.2133 240.534 97.4249 240.464 97.2133ZM111.857 -19.9648V-13.8273C113.48 -14.3211 115.243 -13.404 117.007 -13.8273C120.746 -14.2506 124.697 -14.3917 128.436 -13.8273C129.635 -14.6738 131.187 -13.2629 132.527 -13.8273C132.951 -13.8978 133.233 -13.8273 133.656 -13.8273C134.503 -14.6033 135.349 -13.7567 136.337 -13.8273C138.806 -14.1095 141.346 -14.2506 143.674 -13.8273C144.52 -13.8978 145.72 -14.6738 146.425 -13.8273C152.069 -13.8978 157.924 -14.3917 163.709 -13.8273C163.709 -13.9684 174.009 -13.9684 174.22 -13.8273C177.183 -14.6738 180.429 -14.18 183.462 -13.8273C186.848 -14.3917 193.691 -13.8978 193.762 -13.8273C195.173 -14.1095 197.289 -14.956 198.489 -13.8273C199.406 -14.8855 200.605 -14.2506 201.593 -13.8273C201.593 -13.9684 202.651 -14.3211 203.004 -13.8273C205.684 -14.2506 208.506 -14.8149 211.116 -13.8273C215.984 -14.956 220.922 -13.404 225.72 -13.8273C225.72 -13.6156 226.919 -13.7567 227.342 -13.8273C227.907 -13.8978 228.541 -14.6033 228.965 -13.8273C229.176 -13.9684 229.388 -13.6862 229.6 -13.8273C229.882 -13.7567 229.741 -13.8978 230.164 -13.8273C230.517 -13.7567 231.787 -14.0389 231.787 -13.8273C231.857 -13.7567 231.928 -13.9684 231.928 -13.8273C234.75 -15.4499 237.854 -13.5451 240.817 -13.8273V-19.9648H111.857ZM240.464 -5.50276C233.903 -4.86784 225.508 -5.43222 219.159 -5.50276C219.159 -5.64386 218.947 -5.7144 218.877 -5.50276C215.561 -5.57331 212.033 -5.22058 208.788 -5.50276C209.071 -5.57331 200.746 -5.22058 196.725 -5.50276C193.48 -4.93839 189.459 -5.50276 185.931 -5.50276C185.931 -5.64386 185.931 -5.36167 185.931 -5.50276C168.506 -6.56096 151.081 -4.37402 133.727 -5.50276C127.73 -5.50276 121.734 -5.36167 115.667 -5.50276C115.102 -5.64386 113.198 -5.50276 111.857 -5.50276V6.49018C111.928 6.49018 111.998 6.34909 111.998 6.49018C113.339 6.20799 114.891 5.92581 116.443 5.99635C116.866 5.99635 117.289 6.0669 117.713 6.0669C118.418 6.0669 119.194 6.13745 119.899 6.13745C121.31 6.20799 122.651 6.20799 123.921 6.20799C123.85 6.27854 123.921 6.34909 124.132 6.20799C125.402 6.20799 126.884 6.13745 128.295 6.13745C129.705 6.13745 131.116 6.0669 132.175 6.20799C131.963 6.27854 133.656 6.20799 135.843 6.13745C137.959 6.0669 140.57 6.0669 141.769 6.20799C142.827 6.0669 143.815 6.0669 144.661 5.99635C143.815 6.49018 142.686 7.1251 141.557 7.76002C140.429 8.3244 139.3 8.95931 138.453 9.45314C135.279 11.1463 132.668 12.6277 130.129 14.1092C127.589 15.5907 125.19 17.1427 122.58 18.7653L121.593 19.4002L121.169 19.6824L120.887 19.8235L119.899 20.529L119.406 20.8817L118.418 21.5166L116.372 22.7865C114.891 23.7036 113.409 24.1269 111.928 25.044V39.2944C112.21 39.1533 112.633 39.0122 112.915 38.8006C115.878 37.0369 119.758 34.9205 124.132 32.3103C128.436 29.7001 133.374 26.8076 136.76 24.9029C142.474 20.8112 150.164 17.0016 156.584 13.1216C156.513 12.9805 156.654 13.1921 156.654 13.051C157.43 12.6277 158.136 12.2045 158.912 11.7812C162.228 8.81822 166.672 7.1251 170.905 4.93815L176.407 1.693L179.018 3.24503C180.217 3.8094 181.346 4.51487 182.474 5.29089L185.931 7.33674L189.811 9.59424C194.467 12.0634 199.123 14.7441 203.638 17.566L208.295 20.2468L223.25 28.8535L230.728 33.2274L240.958 39.2944V24.9029C240.817 24.9029 240.746 24.9029 240.605 24.8323C240.323 24.7618 239.97 24.5501 239.617 23.9152C237.783 22.857 235.878 21.8694 233.903 20.7406L232.986 20.2468C232.704 20.1057 232.492 19.9646 232.21 19.753C231.857 19.5413 231.504 19.3297 231.222 19.0475C230.728 18.7653 230.305 18.4126 229.882 18.1304C229.882 18.1304 229.388 17.9188 228.753 17.566C228.118 17.2133 227.272 16.7195 226.354 16.1551C225.508 15.6613 224.661 15.1674 224.026 14.7441C223.744 14.5325 223.462 14.3914 223.25 14.2503C223.109 14.1092 222.968 14.0387 222.968 14.0387C221.416 13.4743 220.146 12.8394 219.159 12.2045C218.171 11.5695 217.536 11.0052 216.901 10.5113C215.208 9.73533 213.374 8.67713 212.104 7.90112C210.905 7.1251 210.129 6.56073 210.129 6.49018C210.058 6.49018 209.988 6.41963 209.847 6.34909C209.917 6.20799 209.847 5.99635 210.27 5.92581C210.693 5.85526 211.61 5.92581 213.374 6.34909C212.386 5.92581 212.598 5.85526 213.233 5.92581C213.868 5.99635 214.926 6.20799 215.772 6.34909C215.42 6.20799 215.49 5.92581 216.831 6.34909C217.395 6.20799 218.03 5.99635 219.018 5.92581C220.005 5.85526 221.346 5.92581 223.039 6.34909C224.097 5.92581 226.425 5.99636 228.471 6.13745C230.587 6.27854 232.492 6.49018 234.256 6.34909C234.256 6.49018 235.173 6.41963 235.455 6.34909C235.667 6.27854 235.949 5.71417 236.16 6.34909C236.231 6.20799 236.302 6.49018 236.443 6.34909C236.584 6.41963 236.513 6.27854 236.654 6.34909C236.795 6.41963 237.36 6.20799 237.36 6.34909C237.36 6.41963 237.43 6.20799 237.43 6.34909C238.559 5.0087 239.829 6.56073 241.099 6.34909V-5.50276C240.675 -5.50276 240.534 -5.29112 240.464 -5.50276ZM226.566 41.4814L226.425 41.4108L226.143 41.1992L223.744 39.7882C220.57 37.8129 217.466 35.9082 214.291 33.8623C203.215 27.2309 192.139 20.8817 181.134 14.1798C180.429 13.686 178.453 12.5572 176.407 11.3579C176.337 11.3579 176.337 11.4285 176.266 11.4285V11.499C176.266 11.499 176.266 11.499 176.196 11.5695L175.349 12.0634C165.543 18.342 153.621 25.044 143.603 30.8288C142.051 31.9576 140.429 33.0863 138.877 33.5801C138.806 33.5801 138.806 33.6507 138.735 33.6507C138.735 33.6507 138.735 33.6507 138.665 33.6507C138.594 33.6507 138.524 33.7212 138.453 33.7212C138.312 33.7918 138.242 33.8623 138.242 34.0034C137.889 34.215 137.536 34.4267 137.254 34.6383C136.407 35.5554 135.138 36.1198 133.938 36.6136C132.316 37.6013 130.623 38.6595 129 39.6471C128.224 40.141 127.448 40.5643 126.672 41.0581L126.108 41.4108H126.037C126.037 41.4814 126.108 41.4814 125.896 41.5519C125.896 41.5519 125.825 41.6225 125.755 41.6225C125.755 41.6225 125.825 41.6225 125.825 41.693C125.896 41.693 125.967 41.7635 126.037 41.7635L126.178 41.8341C126.46 41.9752 126.672 42.1163 126.954 42.2574C127.518 42.5396 128.012 42.8923 128.577 43.1745C132.951 45.7142 137.818 48.6066 141.134 50.723C147.483 53.827 154.538 58.6948 160.958 62.5043C161.028 62.4337 160.958 62.6454 161.028 62.5748C161.734 63.0687 162.51 63.4919 163.215 63.9152C167.448 65.3967 171.116 68.5008 174.997 71.1815L176.055 71.8165L176.266 71.9576C176.901 71.6048 177.607 71.1815 178.242 70.8288L181.628 68.783L185.508 66.4549C189.952 63.5625 194.538 60.7406 199.123 58.1304L203.709 55.3085L218.383 46.2785L225.79 41.8341L226.284 41.5519L226.566 41.4814ZM200.111 42.1868C199.829 42.469 199.335 42.6807 198.559 42.8218C198.489 42.8218 198.347 42.8923 198.277 42.8923C197.642 43.5978 196.584 44.3738 195.384 45.0792C194.185 45.7847 192.915 46.4902 191.646 47.1251C191.434 47.1956 191.293 47.3367 191.081 47.4073C190.94 47.4778 190.728 47.6189 190.517 47.76L188.471 49.0299L187.765 49.4531L187.201 49.7353C186.566 50.0881 185.931 50.3703 185.296 50.6524C185.155 50.9346 185.085 51.499 184.591 51.0757C184.238 51.2874 183.674 51.7106 182.968 52.0634C182.474 53.686 180.781 53.6154 179.441 54.1092C178.877 54.3914 178.524 54.6031 178.453 54.6031C177.818 55.1674 177.183 55.7318 176.478 56.2256C175.349 55.6613 174.079 54.9558 172.951 54.1798L172.104 53.6154L171.892 53.4743C171.822 53.4038 171.822 53.4038 171.751 53.4038L171.54 53.2627C171.399 53.1216 171.258 53.051 171.187 52.9099C169.564 52.275 168.012 51.4285 166.672 50.2997C166.39 50.0881 166.108 49.8764 165.896 49.7353C165.543 49.8059 165.261 49.6648 165.049 49.3826C164.979 49.3826 164.908 49.3826 164.838 49.3826H164.697L164.556 49.312L164.203 49.171C163.991 49.1004 163.709 48.9593 163.497 48.8888C162.651 48.536 161.945 47.9717 161.734 47.4073C161.451 47.4073 161.24 47.3367 161.099 47.2662C160.534 47.1956 160.111 46.984 159.758 46.7018C159.335 46.3491 159.123 45.9964 158.912 45.6436C158.841 45.6436 158.771 45.5731 158.63 45.5025C158.277 45.432 157.642 45.2203 157.501 44.9381C156.795 44.5854 156.09 44.1621 155.455 43.8094C153.903 43.1039 152.351 42.3279 151.222 41.6225C151.645 41.4108 152.139 41.1992 152.704 40.917C152.986 40.6348 153.48 40.4232 154.256 40.2821C154.326 40.2821 154.467 40.2115 154.538 40.2115C155.173 39.5061 156.231 38.73 157.43 38.0246C158.63 37.3191 159.899 36.6136 161.169 35.9787C161.381 35.9082 161.522 35.7671 161.734 35.6965C161.875 35.5554 162.086 35.4849 162.298 35.3438L164.344 34.074L165.049 33.6507L165.614 33.3685C166.249 33.0158 166.884 32.7336 167.518 32.4514C167.66 32.1692 167.73 31.6048 168.224 32.0281C168.577 31.8165 169.141 31.3932 169.847 31.0404C170.34 29.4179 172.034 29.4884 173.374 28.9946C173.938 28.7124 174.291 28.5008 174.362 28.5008C174.996 27.9364 175.631 27.372 176.337 26.8782C177.466 27.4426 178.735 28.148 179.794 28.924L180.64 29.4884L180.852 29.6295C180.922 29.7001 180.922 29.7001 180.993 29.7001L181.205 29.8411C181.346 29.9822 181.487 30.0528 181.557 30.1939C183.18 30.8288 184.732 31.6754 186.072 32.8041C186.354 33.0158 186.637 33.2274 186.848 33.3685C187.201 33.2979 187.483 33.439 187.695 33.7212C187.765 33.7212 187.836 33.7212 187.907 33.7212H188.048L188.189 33.7918L188.541 33.9329C188.753 34.0034 189.035 34.1445 189.247 34.215C190.093 34.5678 190.799 35.1322 191.011 35.6965C191.293 35.6965 191.504 35.7671 191.646 35.8376C192.21 35.9082 192.633 36.1198 192.986 36.402C193.409 36.7547 193.621 37.1075 193.832 37.4602C193.903 37.5307 193.974 37.5307 194.115 37.6013C194.467 37.6718 195.102 37.8835 195.243 38.1657C195.949 38.5184 196.654 38.9417 197.289 39.2944C198.841 39.9999 200.393 40.7053 201.522 41.4814C201.099 41.7635 200.605 41.9752 200.111 42.1868Z" fill="#78006E"/>
</g>
</g>
</g>
<defs>
<clipPath id="clip0_12950_83587">
<rect width="231" height="80" fill="white"/>
</clipPath>
<clipPath id="clip1_12950_83587">
<rect width="3095.59" height="80" fill="white" transform="translate(-791)"/>
</clipPath>
</defs>
</svg>
