<svg width="80" height="219" viewBox="0 0 80 219" fill="none" xmlns="http://www.w3.org/2000/svg">
<g clip-path="url(#clip0_19622_32466)">
<mask id="mask0_19622_32466" style="mask-type:luminance" maskUnits="userSpaceOnUse" x="0" y="-791" width="81" height="3096">
<path d="M80.0001 2304.59L80.0002 -791L0.000244141 -791L0.000108828 2304.59L80.0001 2304.59Z" fill="white"/>
</mask>
<g mask="url(#mask0_19622_32466)">
<path d="M80.0001 2304.59L80.0002 -791L0.000244141 -791L0.000108828 2304.59L80.0001 2304.59Z" fill="#BE008C"/>
</g>
<mask id="mask1_19622_32466" style="mask-type:luminance" maskUnits="userSpaceOnUse" x="0" y="-791" width="81" height="3096">
<path d="M80.0001 2304.59L80.0002 -791L0.000244141 -791L0.000108828 2304.59L80.0001 2304.59Z" fill="white"/>
</mask>
<g mask="url(#mask1_19622_32466)">
<path fill-rule="evenodd" clip-rule="evenodd" d="M6.34944 85.4024C8.04257 88.577 9.52404 91.1872 11.0055 93.7269C12.487 96.2665 14.039 98.7357 15.6616 101.275L16.2965 102.263L16.5787 102.686L16.7198 102.898L17.3547 103.886L17.7075 104.379L18.3424 105.367L19.6122 107.413C20.5293 108.894 21.4464 110.376 22.293 111.857L36.1202 111.857L32.8045 106.214L30.2648 101.84L28.8539 99.4411C27.0196 96.196 25.1854 92.9509 23.3512 89.7057C16.7904 78.6299 10.159 67.6951 3.66867 56.5488C3.24539 55.5611 1.41118 52.8097 0.00024119 50.4111C-0.140849 50.129 -0.352489 49.8468 -0.493579 49.5646C-0.987407 48.8591 -1.41069 48.0831 -1.90451 47.3777C-1.2696 46.3195 -0.705226 45.2613 -0.0703076 44.2031C-0.0703076 44.2031 -0.0703075 44.1325 0.000241464 44.1325C0.42352 43.3565 0.917348 42.5805 1.34063 41.875C6.91382 31.7163 14.2507 20.076 20.2472 10.1995C21.0232 8.43583 21.9403 6.67218 23.069 5.54343C23.069 5.47289 23.1396 5.47292 23.1396 5.40237L23.2101 5.40237C23.2807 5.33183 23.3512 5.26123 23.4218 5.26123C23.4923 5.19068 23.4923 5.04966 23.4923 4.97911C23.7039 4.62638 23.9156 4.34417 24.0567 3.99144C24.3389 2.79214 25.1854 1.66336 26.032 0.60516C27.0196 -1.08796 27.9368 -2.78107 28.9244 -4.40364C29.3477 -5.17965 29.8415 -5.9557 30.2648 -6.73172C31.0408 -8.07211 31.8874 -9.48299 32.6634 -10.8234C32.8045 -11.1056 32.9456 -11.3172 33.0867 -11.5994C34.0743 -13.363 34.9914 -15.1973 35.9791 -16.961L22.2225 -16.961C22.2225 -16.8199 22.2225 -16.7494 22.1519 -16.6083C22.0814 -16.3261 21.8697 -15.9733 21.2348 -15.6206C20.1766 -13.7864 18.6951 -11.8816 17.6369 -9.90632L17.1431 -8.98918C17.002 -8.70699 16.8609 -8.49537 16.6493 -8.21318C16.4376 -7.86045 16.226 -7.5077 15.9438 -7.22551C15.6616 -6.73168 15.3089 -6.30839 15.0267 -5.88511C15.0267 -5.88511 14.8151 -5.3913 14.4623 -4.75638C14.1096 -4.12145 13.6158 -3.20433 13.0514 -2.35777C12.5576 -1.51121 11.9932 -0.664698 11.6405 -0.0297776C11.4288 0.252409 11.2877 0.534664 11.1466 0.746305C11.0055 0.887398 10.935 1.02842 10.935 1.02842C10.3706 2.58045 9.73569 3.85031 9.10077 4.83796C8.46585 5.82562 7.90147 6.46059 7.3371 7.09551C6.56109 8.78863 5.50289 10.6228 4.72687 11.8926C3.95086 13.1625 3.38649 13.868 3.31594 13.868C3.24539 13.9385 3.24539 14.0091 3.17485 14.1502C3.03375 14.0796 2.82211 14.1501 2.75156 13.7268C2.68101 13.3036 2.75157 12.3865 3.17485 10.6228C2.75157 11.6105 2.68101 11.3988 2.75156 10.7639C2.82211 10.129 3.03375 9.0708 3.17485 8.22424C3.03375 8.57698 2.75157 8.50643 3.17485 7.16604C3.03375 6.60167 2.82211 5.96676 2.75156 4.97911C2.68101 3.99145 2.75157 2.65102 3.17485 0.957893C2.75157 -0.100308 2.82211 -2.42832 2.9632 -4.47417C3.1043 -6.59057 3.31594 -8.49539 3.17485 -10.2591C3.31594 -10.2591 3.24539 -11.1761 3.17485 -11.4583C3.1043 -11.67 2.53992 -11.9522 3.17485 -12.0933C3.03375 -12.1638 3.31594 -12.3049 3.17485 -12.3755C3.24539 -12.5166 3.1043 -12.446 3.17485 -12.587C3.24539 -12.7281 3.03375 -13.2925 3.17485 -13.2925C3.24539 -13.2925 3.03375 -13.363 3.17485 -13.363C1.83446 -14.4918 3.10429 -15.7617 2.89265 -17.0315L-9.10029 -17.0315C-8.60646 -15.409 -9.52357 -13.6452 -9.10029 -11.8816C-8.67701 -8.07206 -8.53592 -4.19202 -9.10029 -0.453042C-8.25373 0.746253 -9.66467 2.29832 -9.10029 3.6387C-9.02974 4.06198 -9.10029 4.34415 -9.10029 4.76743C-8.32427 5.614 -9.17084 6.53114 -9.10029 7.44825C-8.8181 9.91738 -8.67701 12.457 -9.10029 14.785C-9.02974 15.6316 -8.25373 16.9015 -9.10029 17.5364C-9.02974 23.1801 -8.53592 29.0355 -9.10029 34.8203C-8.9592 34.8203 -8.9592 45.1202 -9.10029 45.3318C-8.25373 48.2948 -8.74756 51.5399 -9.10029 54.5734C-8.53592 57.9597 -9.02974 64.8027 -9.10029 64.8732C-8.8181 66.2842 -7.97155 68.4006 -9.10029 69.5999C-8.0421 70.517 -8.67701 71.7163 -9.10029 72.704C-8.9592 72.704 -8.60646 73.7622 -9.10029 74.1149C-8.67701 76.7957 -8.11264 79.547 -9.10029 82.2278C-7.97155 87.0955 -9.52357 92.0338 -9.10029 96.8309C-9.31193 96.8309 -9.17084 98.0303 -9.10029 98.4535C-9.02974 99.0179 -8.32428 99.6528 -9.10029 100.076C-8.9592 100.288 -9.24139 100.499 -9.10029 100.711C-9.17084 100.993 -9.02974 100.852 -9.10029 101.205C-9.17084 101.558 -8.88865 102.898 -9.10029 102.827C-9.17084 102.898 -8.9592 102.968 -9.10029 102.968C-7.47772 105.79 -9.38248 108.824 -9.10029 111.857L2.89265 111.857C2.89265 111.787 2.75156 111.716 2.89265 111.716C2.68101 110.376 2.61047 108.824 2.68102 107.272C2.68102 106.849 2.75156 106.425 2.75156 106.002C2.75156 105.297 2.82211 104.521 2.82211 103.815C2.89266 102.404 2.89265 101.064 2.89265 99.7939C2.9632 99.8644 3.03374 99.7939 2.89265 99.5823C2.89265 98.3124 2.89266 96.9015 2.82211 95.42C2.75157 94.0091 2.75156 92.5981 2.89265 91.5399C2.9632 91.7516 2.89266 89.9879 2.82211 87.8715C2.75157 85.7551 2.75156 83.1449 2.89265 81.9456C2.75156 80.8874 2.75157 79.8997 2.68102 79.0532C3.17485 79.8997 3.80976 81.0284 4.44469 82.1572C5.29125 83.427 5.85562 84.4853 6.34944 85.4024ZM-17.2132 111.505C-17.8481 104.944 -17.2837 96.4782 -17.2132 90.1995C-17.0721 90.1995 -17.0015 89.9879 -17.2132 89.9173C-17.1426 86.6016 -17.4954 83.0743 -17.2132 79.8292C-17.1426 80.1114 -17.4954 71.7869 -17.2132 67.7657C-17.7775 64.5206 -17.2132 60.4994 -17.2132 56.972C-17.0721 56.972 -17.3543 56.972 -17.2132 56.972C-16.155 39.547 -18.3419 22.1925 -17.2132 4.76743C-17.2132 -1.22904 -17.3543 -7.22549 -17.2132 -13.2925C-17.0721 -13.8569 -17.2132 -15.7617 -17.2132 -17.1021L-19.9645 -17.1021L-19.9645 111.857L-17.2132 111.857C-17.2132 111.716 -17.4248 111.575 -17.2132 111.505ZM99.965 -17.1021L93.8274 -17.1021C94.3212 -15.4795 93.4041 -13.7158 93.8274 -11.9521C94.2507 -8.14258 94.3918 -4.26254 93.8274 -0.523567C94.674 0.675728 93.263 2.22779 93.8274 3.56818C93.8979 3.99146 93.8274 4.27363 93.8274 4.69691C94.6034 5.54347 93.7569 6.46053 93.8274 7.37763C94.1096 9.84677 94.2507 12.3865 93.8274 14.7145C93.8979 15.5611 94.674 16.8309 93.8274 17.4659C93.8979 23.1096 94.3918 28.965 93.8274 34.7498C93.9685 34.7498 93.9685 45.0496 93.8274 45.2613C94.674 48.2243 94.1801 51.4694 93.8274 54.5029C94.3918 57.8891 93.8979 64.7321 93.8274 64.8027C94.1096 66.2136 94.9561 68.3301 93.8274 69.5294C94.8856 70.4465 94.2507 71.6457 93.8274 72.6334C93.9685 72.6334 94.3212 73.6916 93.8274 74.0443C94.2507 76.7251 94.8151 79.4764 93.8274 82.1572C94.9561 87.0249 93.4041 91.9632 93.8274 96.7604C93.6158 96.7604 93.7568 97.9596 93.8274 98.3829C93.8979 98.9473 94.6034 99.5823 93.8274 100.006C93.9685 100.217 93.6863 100.429 93.8274 100.64C93.7568 100.923 93.8979 100.782 93.8274 101.134C93.7568 101.487 94.039 102.827 93.8274 102.757C93.7568 102.827 93.9685 102.898 93.8274 102.898C95.45 105.72 93.5452 108.753 93.8274 111.787L99.965 111.787L99.965 -17.1021ZM85.5029 111.505C84.868 104.944 85.4323 96.4782 85.5029 90.1995C85.644 90.1995 85.7145 89.9879 85.5029 89.9173C85.5734 86.6016 85.2207 83.0743 85.5029 79.8292C85.5734 80.1114 85.2207 71.7869 85.5029 67.7657C84.9385 64.5206 85.5029 60.4994 85.5029 56.972C85.644 56.972 85.3618 56.972 85.5029 56.972C86.5611 39.547 84.3741 22.1925 85.5029 4.76744C85.5029 -1.22904 85.3618 -7.22549 85.5029 -13.2925C85.644 -13.8569 85.5029 -15.7617 85.5029 -17.1021L73.5099 -17.1021C73.5099 -17.0315 73.651 -16.961 73.5099 -16.961C73.7921 -15.6206 74.0743 -14.0685 74.0038 -12.5165C74.0038 -12.0932 73.9332 -11.6699 73.9332 -11.2466C73.9332 -10.5412 73.8627 -9.76517 73.8627 -9.05971C73.7921 -7.64877 73.7921 -6.30842 73.7921 -5.03858C73.7216 -5.10912 73.651 -5.03854 73.7921 -4.8269C73.7921 -3.55706 73.8627 -2.14611 73.8627 -0.664626C73.8627 0.746308 73.9332 2.15724 73.7921 3.21544C73.7216 3.0038 73.7921 4.76744 73.8627 6.88384C73.9332 9.00024 73.9332 11.6105 73.7921 12.8098C73.9332 13.868 73.9332 14.8556 74.0038 15.7022C73.5099 14.8556 72.875 13.7269 72.2401 12.5981C71.6757 11.4694 71.0408 10.3406 70.547 9.49403C68.8539 6.31943 67.3724 3.70925 65.8909 1.16957C64.4094 -1.37011 62.8574 -3.8393 61.2348 -6.37898L60.5999 -7.36657L60.3177 -7.78992L60.1766 -8.00151L59.4711 -8.98918L59.1184 -9.48297L58.4835 -10.4706L57.2136 -12.5165C56.2965 -13.998 55.8733 -15.4795 54.9562 -16.961L40.7057 -16.961C40.8468 -16.6788 40.9879 -16.2555 41.1995 -15.9733C42.9632 -13.0104 45.0796 -9.13027 47.6898 -4.75637C50.3001 -0.453022 53.1925 4.48527 55.0972 7.87151C59.189 13.5858 62.9985 21.2754 66.8785 27.6951C67.0196 27.6246 66.808 27.7657 66.9491 27.7657C67.3724 28.5417 67.7957 29.2472 68.2189 30.0232C71.1819 33.3389 72.875 37.7833 75.062 42.0162L78.3071 47.5893L76.7551 50.1996C76.1907 51.3988 75.4852 52.5275 74.7092 53.5857L72.6634 57.0426L70.4059 60.9226C67.9367 65.5787 65.256 70.2348 62.4341 74.7498L59.7533 79.4059L51.1466 94.3618L46.7727 101.84L40.7057 112.069L55.0972 112.069C55.0972 111.928 55.0972 111.857 55.1678 111.716C55.2383 111.434 55.45 111.081 56.0849 110.729C57.1431 108.894 58.1308 106.99 59.2595 105.014L59.7533 104.097C59.8944 103.815 60.0355 103.603 60.2471 103.321C60.4588 102.968 60.6704 102.616 60.9526 102.334C61.2348 101.84 61.5875 101.416 61.8697 100.993C61.8697 100.993 62.0814 100.499 62.4341 99.8645C62.7868 99.2296 63.2807 98.3124 63.845 97.4659C64.3389 96.6193 64.8327 95.7727 65.256 95.1378C65.4676 94.8556 65.6087 94.5734 65.7498 94.3618C65.8909 94.2207 65.9614 94.0796 65.9614 94.0796C66.5258 92.5276 67.1607 91.2577 67.7956 90.27C68.4306 89.2824 68.9949 88.6475 69.4888 88.0126C70.2648 86.3195 71.323 84.4852 72.099 83.2154C72.875 81.9455 73.4394 81.2401 73.5099 81.2401C73.5099 81.1696 73.5805 81.099 73.651 80.9579C73.7921 81.0285 74.0038 80.9579 74.0743 81.3812C74.1449 81.8045 74.0743 82.7216 73.651 84.4853C74.0743 83.4976 74.1449 83.7093 74.0743 84.3442C74.0038 84.9791 73.7921 86.0373 73.651 86.8839C73.7921 86.5311 74.0743 86.6017 73.651 87.9421C73.7921 88.5064 74.0038 89.1413 74.0743 90.129C74.1449 91.1166 74.0743 92.457 73.651 94.1501C74.0743 95.2083 74.0038 97.5364 73.8627 99.5823C73.7216 101.699 73.5099 103.603 73.651 105.367C73.5099 105.367 73.5805 106.284 73.651 106.566C73.7216 106.778 74.286 107.06 73.651 107.201C73.7921 107.272 73.5099 107.413 73.651 107.483C73.5805 107.625 73.7216 107.554 73.651 107.695C73.5805 107.836 73.7921 108.401 73.651 108.401C73.5805 108.471 73.7921 108.471 73.651 108.471C74.9914 109.6 73.4394 110.87 73.651 112.14L85.5029 112.14C85.5029 111.716 85.2912 111.575 85.5029 111.505ZM38.5188 97.5364L38.5893 97.4659L38.8009 97.1837L40.2119 94.7851C42.1872 91.6105 44.0919 88.5064 46.1378 85.3318C52.7692 74.2559 59.1184 63.1801 65.8203 52.1748C66.3142 51.4693 67.4429 49.4941 68.6422 47.5187C68.6422 47.4482 68.5717 47.4482 68.5717 47.3777C68.5717 47.3777 68.5011 47.3777 68.5011 47.3072C68.5011 47.3072 68.5011 47.3071 68.4306 47.2365L67.9367 46.39C61.6581 36.584 54.9561 24.6616 49.1713 14.644C48.0426 13.092 46.9138 11.4694 46.42 9.91738C46.42 9.84684 46.3494 9.84678 46.3494 9.77624C46.3494 9.77624 46.3494 9.77625 46.3494 9.70571C46.3494 9.63516 46.2789 9.5646 46.2789 9.4235C46.2084 9.35296 46.1378 9.21192 45.9967 9.21192C45.7851 8.85918 45.5734 8.50645 45.3618 8.15371C44.4447 7.30715 43.8803 6.10781 43.3865 4.83797C42.3988 3.21539 41.3406 1.52227 40.353 -0.100306C39.8591 -0.876321 39.4359 -1.65228 38.942 -2.4283L38.5893 -2.99271L38.5893 -3.06324C38.5188 -3.06324 38.5188 -2.99274 38.4482 -3.20438C38.4482 -3.20438 38.3777 -3.27489 38.3777 -3.34544C38.3777 -3.34544 38.3777 -3.27491 38.3071 -3.27491C38.3071 -3.20436 38.2366 -3.13378 38.2366 -3.06324L38.166 -2.92218C38.0249 -2.63999 37.8838 -2.42837 37.7427 -2.14618C37.4606 -1.65235 37.1078 -1.08794 36.8256 -0.52357C34.286 3.85033 31.3935 8.71802 29.2771 11.9632C26.1731 18.2418 21.3054 25.3671 17.4958 31.7869C17.5664 31.8574 17.3547 31.7869 17.4253 31.8574C16.9315 32.5629 16.5082 33.3389 16.0849 34.0443C14.6034 38.2771 11.4994 41.9455 8.81859 45.8256L8.18366 46.8838L8.04257 47.0955C8.3953 47.7304 8.81859 48.4359 9.17132 49.0708L11.2172 52.457L13.5452 56.3371C16.4376 60.7815 19.2595 65.3671 21.8697 69.9526L24.6916 74.5382L33.7216 89.2825L38.166 96.6193L38.4482 97.1131L38.5188 97.2542L38.5188 97.5364C38.4482 97.5364 38.4482 97.5364 38.5188 97.5364ZM37.8133 71.0814C37.5311 70.7992 37.3195 70.3053 37.1784 69.4588C37.1784 69.3882 37.1078 69.2472 37.1078 69.1766C36.4024 68.5417 35.6263 67.4835 34.9209 66.2842C34.2154 65.0849 33.5099 63.8151 32.875 62.5452C32.8045 62.3336 32.6634 62.1925 32.5928 61.9808C32.5223 61.8397 32.3812 61.6281 32.2401 61.487L30.9703 59.4412L30.547 58.7357L30.2648 58.1713C29.9121 57.5364 29.6299 56.9015 29.3477 56.2666C29.0655 56.1255 28.5011 56.0549 28.9244 55.5611C28.7128 55.2084 28.2895 54.6439 27.9367 53.9385C26.3142 53.4447 26.3847 51.7515 25.8909 50.4111C25.6087 49.8468 25.3971 49.4941 25.3971 49.4236C24.8327 48.7886 24.2683 48.1537 23.7745 47.4482C24.3389 46.3195 25.0443 45.1202 25.8203 43.9914L26.3847 43.1449L26.5258 42.9332C26.5964 42.8627 26.5964 42.8627 26.5964 42.7921L26.7374 42.5805C26.8785 42.4394 26.9491 42.2983 27.0902 42.2277C27.7251 40.6052 28.5717 39.0531 29.7004 37.7127C29.9121 37.4305 30.1237 37.1484 30.2648 36.9367C30.1942 36.5135 30.3353 36.3018 30.6175 36.0902C30.6175 36.0197 30.6175 35.9491 30.6175 35.8785L30.6175 35.808L30.6881 35.6669L30.8292 35.3142C30.8997 35.1026 31.0408 34.8204 31.1113 34.6087C31.4641 33.7622 32.0285 33.0567 32.5928 32.8451C32.5928 32.5629 32.6634 32.3512 32.7339 32.2101C32.8045 31.6458 33.0161 31.1519 33.2983 30.8697C33.651 30.4465 34.0038 30.2348 34.3565 30.0232C34.3565 29.9527 34.427 29.8821 34.4976 29.741C34.5681 29.3883 34.7798 28.7534 35.062 28.6123C35.4147 27.9068 35.838 27.2013 36.1907 26.5664C36.8962 25.0144 37.6722 23.4623 38.3777 22.3336C38.5893 22.7569 38.8009 23.2507 39.0831 23.7445C39.3653 24.0267 39.577 24.5205 39.7181 25.3671C39.7181 25.4376 39.7886 25.5787 39.7886 25.6493C40.4941 26.2842 41.2701 27.3424 41.9755 28.5417C42.681 29.7409 43.3865 31.0108 44.0214 32.2807C44.0919 32.4923 44.233 32.6334 44.3036 32.8451C44.4447 32.9862 44.5152 33.1978 44.6563 33.3389L45.9262 35.3847L46.3494 36.0902L46.6316 36.6545C46.9844 37.2894 47.2665 37.9244 47.5487 38.5593C47.8309 38.7004 48.3953 38.771 47.972 39.2648C48.1837 39.6175 48.6069 40.1819 48.9597 40.8873C50.5822 41.3812 50.5117 43.0743 51.0055 44.4147C51.2877 44.979 51.4994 45.3318 51.4994 45.4023C52.0637 46.0373 52.6281 46.6722 53.1219 47.3777C52.5576 48.5064 51.8521 49.7763 51.0761 50.905L50.5117 51.7515L50.3706 51.9632C50.3001 52.0338 50.3001 52.0337 50.3001 52.1043L50.159 52.316C50.0179 52.4571 49.9473 52.5981 49.8062 52.6687C49.1713 54.2913 48.3247 55.8433 47.196 57.1837C46.9844 57.4659 46.7727 57.7481 46.6316 57.9597C46.7022 58.383 46.5611 58.5946 46.2789 58.8062C46.2789 58.8768 46.2789 58.9473 46.2789 59.0179L46.2789 59.0884L46.2084 59.2295L46.0673 59.5822C45.9967 59.7939 45.8556 60.076 45.7851 60.2877C45.4323 61.1342 44.868 61.8397 44.3036 62.0514C44.3036 62.3335 44.233 62.5452 44.1625 62.7568C44.0919 63.3212 43.8803 63.7445 43.5981 64.0972C43.2454 64.5205 42.8927 64.7322 42.5399 64.9438C42.4694 65.0144 42.4694 65.0849 42.3988 65.226C42.3283 65.5787 42.1166 66.2137 41.8345 66.3548C41.4817 67.0602 41.0584 67.7657 40.7057 68.4712C40.0002 70.0232 39.2948 71.5752 38.5188 72.704C38.2366 72.1396 38.0249 71.6457 37.8133 71.0814Z" fill="#78006E"/>
<path fill-rule="evenodd" clip-rule="evenodd" d="M15.7322 230.235L16.3671 231.222L16.6493 231.646L16.7904 231.857L17.4253 232.845L17.778 233.339L18.4129 234.327L19.6828 236.372C20.5999 237.854 21.517 239.335 22.3636 240.817L36.1202 240.817L32.8045 235.173L30.2648 230.799L28.8539 228.401C27.0196 225.155 25.1854 221.981 23.3512 218.736C16.7904 207.66 10.159 196.725 3.66867 185.579C3.24539 184.591 1.41118 181.84 0.000241186 179.441C-0.140849 179.159 -0.352489 178.877 -0.493579 178.595C-0.987407 177.889 -1.41069 177.113 -1.90451 176.408C-1.2696 175.349 -0.705226 174.291 -0.0703076 173.233C-0.0703076 173.233 -0.0703076 173.162 0.000241461 173.162C0.42352 172.386 0.917348 171.61 1.34063 170.834C6.91382 160.676 14.2507 149.036 20.2472 139.159C21.0232 137.395 21.9403 135.632 23.069 134.503C23.069 134.432 23.1396 134.432 23.1396 134.362L23.2101 134.362C23.2807 134.291 23.3512 134.221 23.4218 134.15C23.4923 134.08 23.4923 133.939 23.4923 133.868C23.7039 133.515 23.9156 133.162 24.0567 132.88C24.3389 131.681 25.1854 130.552 26.032 129.494C27.0196 127.801 27.9368 126.178 28.9244 124.485C29.3477 123.709 29.8415 122.933 30.2648 122.157C31.0408 120.817 31.8874 119.406 32.6634 118.065C32.8045 117.783 32.9456 117.572 33.0867 117.289C34.0743 115.526 34.9914 113.692 35.9791 111.928L22.2225 111.928C22.2225 112.069 22.2225 112.14 22.1519 112.281C22.0814 112.563 21.8697 112.916 21.2348 113.268C20.1766 115.103 18.6951 117.007 17.6369 118.983L17.1431 119.9C17.002 120.182 16.8609 120.394 16.6493 120.676C16.4376 121.028 16.226 121.381 15.9438 121.663C15.6616 122.157 15.3089 122.58 15.0267 123.004C15.0267 123.004 14.8151 123.498 14.4623 124.132C14.1096 124.767 13.6158 125.685 13.0514 126.531C12.5576 127.378 11.9932 128.224 11.6405 128.859C11.4288 129.141 11.2877 129.424 11.1466 129.635C11.0055 129.776 10.935 129.917 10.935 129.917C10.3706 131.469 9.73569 132.739 9.10077 133.727C8.46585 134.715 7.90147 135.349 7.3371 135.984C6.56109 137.677 5.50289 139.512 4.72687 140.782C3.88031 142.122 3.31594 142.827 3.31594 142.757C3.24539 142.827 3.24539 142.968 3.17485 143.039C3.03375 142.968 2.82211 143.039 2.75156 142.616C2.68101 142.192 2.75157 141.275 3.17485 139.512C2.75157 140.499 2.68101 140.288 2.75156 139.653C2.82211 139.018 3.03375 137.96 3.17485 137.113C3.03375 137.466 2.75157 137.395 3.17485 136.055C3.03375 135.491 2.82211 134.856 2.75156 133.868C2.68101 132.88 2.75157 131.54 3.17485 129.847C2.75157 128.789 2.82211 126.461 2.9632 124.415C3.1043 122.298 3.31594 120.394 3.17485 118.63C3.31594 118.63 3.24539 117.713 3.17485 117.431C3.1043 117.219 2.53992 116.937 3.17485 116.796C3.03375 116.725 3.31594 116.655 3.17485 116.513C3.24539 116.372 3.1043 116.443 3.17485 116.302C3.24539 116.161 3.03375 115.596 3.17485 115.596C3.24539 115.596 3.03375 115.526 3.17485 115.526C1.83446 114.397 3.10429 113.127 2.89265 111.857L-9.10029 111.857C-8.60646 113.48 -9.52357 115.244 -9.10029 117.007C-8.67701 120.746 -8.53592 124.697 -9.10029 128.436C-8.25373 129.635 -9.66467 131.187 -9.10029 132.528C-9.02974 132.951 -9.10029 133.233 -9.10029 133.656C-8.32427 134.503 -9.17084 135.349 -9.10029 136.337C-8.8181 138.806 -8.67701 141.346 -9.10029 143.674C-9.02974 144.521 -8.25373 145.72 -9.10029 146.425C-9.02974 152.069 -8.53592 157.924 -9.10029 163.709C-8.9592 163.709 -8.9592 174.009 -9.10029 174.221C-8.25373 177.184 -8.74756 180.429 -9.10029 183.462C-8.53592 186.849 -9.02974 193.692 -9.10029 193.762C-8.8181 195.173 -7.97155 197.289 -9.10029 198.489C-8.0421 199.406 -8.67701 200.605 -9.10029 201.593C-8.9592 201.593 -8.60646 202.651 -9.10029 203.004C-8.67701 205.685 -8.11264 208.506 -9.10029 211.117C-7.97155 215.984 -9.52357 220.923 -9.10029 225.72C-9.31193 225.72 -9.17084 226.919 -9.10029 227.342C-9.02974 227.907 -8.32428 228.542 -9.10029 228.965C-8.9592 229.177 -9.24139 229.388 -9.10029 229.6C-9.17084 229.882 -9.02974 229.741 -9.10029 230.164C-9.17084 230.517 -8.88865 231.787 -9.10029 231.787C-9.17084 231.857 -8.9592 231.928 -9.10029 231.928C-7.47772 234.75 -9.38248 237.854 -9.10029 240.817L2.89265 240.817C2.89265 240.746 2.75156 240.676 2.89265 240.676C2.68101 239.335 2.61047 237.783 2.68102 236.231C2.68102 235.808 2.75156 235.385 2.75156 234.961C2.75156 234.256 2.82211 233.48 2.82211 232.774C2.89266 231.364 2.89265 230.023 2.89265 228.824C2.9632 228.894 3.03374 228.824 2.89265 228.612C2.89265 227.342 2.89266 225.861 2.82211 224.45C2.75157 223.039 2.75156 221.628 2.89265 220.57C2.9632 220.782 2.89266 219.088 2.82211 216.901C2.75157 214.785 2.75156 212.175 2.89265 210.976C2.75156 209.847 2.75157 208.93 2.68102 208.083C3.17485 208.93 3.80976 210.058 4.44469 211.187C5.07961 212.316 5.64398 213.445 6.13781 214.291L6.13781 214.362C7.83093 217.536 9.31241 220.147 10.7939 222.686C12.5576 225.226 14.1096 227.695 15.7322 230.235ZM-17.2132 240.464C-17.8481 233.903 -17.2837 225.508 -17.2132 219.159C-17.0721 219.159 -17.0015 218.947 -17.2132 218.877C-17.1426 215.561 -17.4954 212.034 -17.2132 208.789C-17.1426 209.071 -17.4954 200.746 -17.2132 196.725C-17.7775 193.48 -17.2132 189.459 -17.2132 185.931C-17.0721 185.931 -17.3543 185.931 -17.2132 185.931C-16.155 168.506 -18.3419 151.081 -17.2132 133.727C-17.2132 127.73 -17.3543 121.734 -17.2132 115.667C-17.0721 115.102 -17.2132 113.198 -17.2132 111.857L-19.9645 111.857L-19.9645 240.817L-17.2132 240.817C-17.2132 240.676 -17.4248 240.535 -17.2132 240.464ZM99.965 111.857L93.8274 111.857C94.3212 113.48 93.4041 115.244 93.8274 117.007C94.2507 120.746 94.3918 124.697 93.8274 128.436C94.674 129.635 93.263 131.187 93.8274 132.528C93.8979 132.951 93.8274 133.233 93.8274 133.656C94.6034 134.503 93.7569 135.349 93.8274 136.337C94.1096 138.806 94.2507 141.346 93.8274 143.674C93.8979 144.521 94.674 145.72 93.8274 146.425C93.8979 152.069 94.3918 157.924 93.8274 163.709C93.9685 163.709 93.9685 174.009 93.8274 174.221C94.674 177.184 94.1801 180.429 93.8274 183.462C94.3918 186.849 93.8979 193.692 93.8274 193.762C94.1096 195.173 94.9561 197.289 93.8274 198.489C94.8856 199.406 94.2507 200.605 93.8274 201.593C93.9685 201.593 94.3212 202.651 93.8274 203.004C94.2507 205.685 94.8151 208.506 93.8274 211.117C94.9561 215.984 93.4041 220.923 93.8274 225.72C93.6158 225.72 93.7568 226.919 93.8274 227.342C93.8979 227.907 94.6034 228.542 93.8274 228.965C93.9685 229.177 93.6863 229.388 93.8274 229.6C93.7568 229.882 93.8979 229.741 93.8274 230.164C93.7568 230.517 94.039 231.787 93.8274 231.787C93.7568 231.857 93.9685 231.928 93.8274 231.928C95.45 234.75 93.5452 237.854 93.8274 240.817L99.965 240.817L99.965 111.857ZM85.5029 240.464C84.868 233.903 85.4323 225.508 85.5029 219.159C85.644 219.159 85.7145 218.947 85.5029 218.877C85.5734 215.561 85.2207 212.034 85.5029 208.789C85.5734 209.071 85.2207 200.746 85.5029 196.725C84.9385 193.48 85.5029 189.459 85.5029 185.931C85.644 185.931 85.3618 185.931 85.5029 185.931C86.5611 168.506 84.3741 151.081 85.5029 133.727C85.5029 127.73 85.3618 121.734 85.5029 115.667C85.644 115.103 85.5029 113.198 85.5029 111.857L73.5099 111.857C73.5099 111.928 73.651 111.998 73.5099 111.998C73.7921 113.339 74.0743 114.891 74.0038 116.443C74.0038 116.866 73.9332 117.289 73.9332 117.713C73.9332 118.418 73.8627 119.194 73.8627 119.9C73.7921 121.311 73.7921 122.651 73.7921 123.921C73.7216 123.85 73.651 123.921 73.7921 124.132C73.7921 125.402 73.8627 126.884 73.8627 128.295C73.8627 129.706 73.9332 131.117 73.7921 132.175C73.7216 131.963 73.7921 133.656 73.8627 135.843C73.9332 137.96 73.9332 140.57 73.7921 141.769C73.9332 142.827 73.9332 143.815 74.0038 144.662C73.5099 143.815 72.875 142.686 72.2401 141.558C71.6757 140.429 71.0408 139.3 70.547 138.454C68.8539 135.279 67.3724 132.669 65.8909 130.129C64.4094 127.589 62.8574 125.191 61.2348 122.58L60.5999 121.593L60.3177 121.17L60.1766 120.887L59.4711 119.9L59.1184 119.406L58.4835 118.418L57.2136 116.372C56.2965 114.891 55.8733 113.409 54.9562 111.928L40.7057 111.928C40.8468 112.21 40.9879 112.633 41.1995 112.916C42.9632 115.879 45.0796 119.759 47.6898 124.132C50.3001 128.436 53.1925 133.374 55.0972 136.76C59.189 142.475 62.9985 150.164 66.8785 156.584C67.0196 156.513 66.808 156.655 66.9491 156.655C67.3724 157.431 67.7957 158.136 68.2189 158.912C71.1819 162.228 72.875 166.672 75.062 170.905L78.3071 176.408L76.7551 179.018C76.1907 180.217 75.4852 181.346 74.7092 182.475L72.6634 185.931L70.4059 189.812C67.9367 194.468 65.256 199.124 62.4341 203.639L59.7533 208.295L51.1466 223.251L46.7727 230.729L40.7057 240.958L55.0972 240.958C55.0972 240.817 55.0972 240.746 55.1678 240.605C55.2383 240.323 55.45 239.97 56.0849 239.618C57.1431 237.783 58.1308 235.879 59.2595 233.903L59.7533 232.986C59.8944 232.704 60.0355 232.492 60.2471 232.21C60.4588 231.857 60.6704 231.505 60.9526 231.222C61.2348 230.729 61.5875 230.305 61.8697 229.882C61.8697 229.882 62.0814 229.388 62.4341 228.753C62.7868 228.118 63.2807 227.272 63.845 226.355C64.3389 225.508 64.8327 224.662 65.256 224.027C65.4676 223.745 65.6087 223.462 65.7498 223.251C65.8909 223.11 65.9614 222.969 65.9614 222.969C66.5258 221.417 67.1607 220.147 67.7956 219.159C68.4306 218.171 68.9949 217.536 69.4888 216.901C70.2648 215.208 71.323 213.374 72.099 212.104C72.875 210.905 73.4394 210.129 73.5099 210.129C73.5099 210.058 73.5805 209.988 73.651 209.847C73.7921 209.917 74.0038 209.847 74.0743 210.27C74.1449 210.693 74.0743 211.61 73.651 213.374C74.0743 212.386 74.1449 212.598 74.0743 213.233C74.0038 213.868 73.7921 214.926 73.651 215.773C73.7921 215.42 74.0743 215.491 73.651 216.831C73.7921 217.395 74.0038 218.03 74.0743 219.018C74.1449 220.006 74.0743 221.346 73.651 223.039C74.0743 224.097 74.0038 226.425 73.8627 228.471C73.7216 230.588 73.5099 232.492 73.651 234.256C73.5099 234.256 73.5805 235.173 73.651 235.455C73.7216 235.667 74.286 235.949 73.651 236.161C73.7921 236.231 73.5099 236.302 73.651 236.443C73.5805 236.584 73.7216 236.513 73.651 236.655C73.5805 236.796 73.7921 237.36 73.651 237.36C73.5805 237.36 73.7921 237.431 73.651 237.431C74.9914 238.559 73.4394 239.829 73.651 241.099L85.5029 241.099C85.5029 240.676 85.2912 240.535 85.5029 240.464ZM38.5188 226.566L38.5893 226.425L38.8009 226.143L40.2119 223.745C42.1872 220.57 44.0919 217.466 46.1378 214.291C52.7692 203.215 59.1184 192.14 65.8203 181.134C66.3142 180.429 67.4429 178.454 68.6422 176.408C68.6422 176.337 68.5717 176.337 68.5717 176.267L68.5011 176.267C68.5011 176.267 68.5011 176.267 68.4306 176.196L67.9367 175.349C61.6581 165.543 54.9561 153.621 49.1713 143.603C48.0426 142.051 46.9138 140.429 46.42 138.877C46.42 138.806 46.3494 138.806 46.3494 138.736C46.3494 138.736 46.3494 138.736 46.3494 138.665C46.3494 138.595 46.2789 138.524 46.2789 138.454C46.2084 138.312 46.1378 138.242 45.9967 138.242C45.7851 137.889 45.5734 137.536 45.3618 137.254C44.4447 136.408 43.8803 135.138 43.3865 133.938C42.3988 132.316 41.3406 130.623 40.353 129C39.8591 128.224 39.4359 127.448 38.942 126.672L38.5893 126.108L38.5893 126.037C38.5188 126.037 38.5188 126.108 38.4482 125.896C38.4482 125.896 38.3777 125.826 38.3777 125.755C38.3777 125.755 38.3777 125.826 38.3071 125.826C38.3071 125.896 38.2366 125.967 38.2366 126.037L38.166 126.178C38.0249 126.461 37.8838 126.672 37.7427 126.954C37.4606 127.519 37.1078 128.013 36.8256 128.577C34.286 132.951 31.3935 137.819 29.2771 141.134C26.1731 147.484 21.3054 154.538 17.4958 160.958C17.5664 161.028 17.3547 160.958 17.4253 161.028C16.9315 161.734 16.5082 162.51 16.0849 163.215C14.6034 167.448 11.4994 171.117 8.81859 174.997L8.18366 176.055L8.04257 176.267C8.3953 176.901 8.81859 177.607 9.17132 178.242L11.2172 181.628L13.5452 185.508C16.4376 189.953 19.2595 194.538 21.8697 199.124L24.6916 203.709L33.7216 218.383L38.166 225.79L38.4482 226.284L38.5188 226.566ZM37.8133 200.111C37.5311 199.829 37.3195 199.335 37.1784 198.559C37.1784 198.489 37.1078 198.348 37.1078 198.277C36.4024 197.642 35.6263 196.584 34.9209 195.385C34.2154 194.185 33.5099 192.916 32.875 191.646C32.8045 191.434 32.6634 191.293 32.5928 191.081C32.5223 190.94 32.3812 190.729 32.2401 190.517L30.9703 188.471L30.547 187.766L30.2648 187.201C29.9121 186.566 29.6299 185.931 29.3477 185.297C29.0655 185.155 28.5011 185.085 28.9244 184.591C28.7128 184.238 28.2895 183.674 27.9367 182.968C26.3142 182.475 26.3847 180.782 25.8909 179.441C25.6087 178.877 25.3971 178.524 25.3971 178.453C24.8327 177.819 24.2683 177.184 23.7745 176.478C24.3389 175.349 25.0443 174.08 25.8203 172.951L26.3847 172.104L26.5258 171.893C26.5964 171.822 26.5964 171.822 26.5964 171.752L26.7374 171.54C26.8785 171.399 26.9491 171.258 27.0902 171.187C27.7251 169.565 28.5717 168.013 29.7004 166.672C29.9121 166.39 30.1237 166.108 30.2648 165.896C30.1942 165.543 30.3353 165.261 30.6175 165.05C30.6175 164.979 30.6175 164.909 30.6175 164.838L30.6175 164.697L30.6881 164.556L30.8292 164.203C30.8997 163.991 31.0408 163.709 31.1113 163.498C31.4641 162.651 32.0285 161.946 32.5928 161.734C32.5928 161.452 32.6634 161.24 32.7339 161.099C32.8045 160.535 33.0161 160.111 33.2983 159.759C33.651 159.335 34.0038 159.124 34.3565 158.912C34.3565 158.842 34.427 158.771 34.4976 158.63C34.5681 158.277 34.7798 157.642 35.062 157.501C35.4147 156.796 35.838 156.09 36.1907 155.455C36.8962 153.903 37.6722 152.351 38.3777 151.222C38.5893 151.646 38.8009 152.14 39.0831 152.704C39.3653 152.986 39.577 153.48 39.7181 154.256C39.7181 154.327 39.7886 154.468 39.7886 154.538C40.4941 155.173 41.2701 156.231 41.9755 157.431C42.681 158.63 43.3865 159.9 44.0214 161.17C44.0919 161.381 44.233 161.522 44.3036 161.734C44.4447 161.875 44.5152 162.087 44.6563 162.298L45.9262 164.344L46.3494 165.05L46.6316 165.614C46.9844 166.249 47.2665 166.884 47.5487 167.519C47.8309 167.66 48.3953 167.73 47.972 168.224C48.1837 168.577 48.6069 169.141 48.9597 169.847C50.5822 170.341 50.5117 172.034 51.0055 173.374C51.2877 173.939 51.4994 174.291 51.4994 174.362C52.0637 174.997 52.6281 175.632 53.1219 176.337C52.5576 177.466 51.8521 178.736 51.0761 179.794L50.5117 180.64L50.3706 180.852C50.3001 180.923 50.3001 180.923 50.3001 180.993L50.159 181.205C50.0179 181.346 49.9473 181.487 49.8062 181.558C49.1713 183.18 48.3247 184.732 47.196 186.073C46.9844 186.355 46.7727 186.637 46.6316 186.849C46.7022 187.201 46.5611 187.484 46.2789 187.695C46.2789 187.766 46.2789 187.836 46.2789 187.907L46.2789 188.048L46.2084 188.189L46.0673 188.542C45.9967 188.753 45.8556 189.036 45.7851 189.247C45.4323 190.094 44.868 190.799 44.3036 191.011C44.3036 191.293 44.233 191.505 44.1625 191.646C44.0919 192.21 43.8803 192.633 43.5981 192.986C43.2454 193.409 42.8927 193.621 42.5399 193.833C42.4694 193.903 42.4694 193.974 42.3988 194.115C42.3283 194.468 42.1166 195.103 41.8345 195.244C41.4817 195.949 41.0584 196.655 40.7057 197.29C40.0002 198.842 39.2948 200.394 38.5188 201.522C38.2366 201.099 38.0249 200.605 37.8133 200.111Z" fill="#78006E"/>
</g>
</g>
<defs>
<clipPath id="clip0_19622_32466">
<rect width="3095.59" height="80" fill="white" transform="translate(80.0002 -791) rotate(90)"/>
</clipPath>
</defs>
</svg>
