<svg xmlns="http://www.w3.org/2000/svg">
  <pattern id="a" width="96" height="80" x="0" y="0" patternContentUnits="userSpaceOnUse" patternUnits="userSpaceOnUse">
    <g fill="currentColor" class="pattern-stroke">
      <path fill="none" d="M0 0h96v80H0z"/>
      <path d="M83.7 73.3A40.3 40.3 0 0 0 87 68l1.7-3.7a36.3 36.3 0 0 1 2.7-4.7l2.5-3.5 2.1-3v-8.3h-.7c-3.6-.2-7.4-.2-11.2-.2H66c-3.1.1-5.8-.4-8.8.1l-9.3-.1-9.3.1c-3-.5-5.7 0-8.8-.1h-18c-3.8 0-7.6 0-11.2.2H0V53l2.1 3.1 2.5 3.6a38.9 38.9 0 0 1 2.7 4.7c.6 1.2 1 2.5 1.7 3.7a42.3 42.3 0 0 0 3.4 5.1 10.8 10.8 0 0 0 1 1.3l.1.2-12 .1L0 75v5c15.5-.7 31.3-1.1 46.8-1.4h2.4c15.5.3 31.3.7 46.8 1.4v-5l-1.4-.2-12.1-.1.1-.2a10.1 10.1 0 0 0 1-1.2zm-66.4 1.3 1.8-1.2-2-1.4-1.3-1.3a13.6 13.6 0 0 1-1.4-2.3 3411.7 3411.7 0 0 0-8.3-13.6c-.5-1-2-3.2-2-3.4a1 1 0 0 0-.5.2A1 1 0 0 0 4 51l-.3-.2-.2.1c.3 0 0-.8-.2-1H9l-.3.3a66.8 66.8 0 0 0 3.7 6l2.5 3.5a35.5 35.5 0 0 1 2.7 4.7c.6 1.2 1 2.5 1.7 3.7a40.4 40.4 0 0 0 3.3 5.2 13.2 13.2 0 0 0 1 1.2h.1zm15.7 0h-5.3l1.5-1-1.8-1.6-1.3-1.4a13.5 13.5 0 0 1-1.4-2.2c-1.8-3-3.2-6.4-5.2-9.3a5 5 0 0 0-.5-.7c0-.3-.8-1-.6-1.2a9.8 9.8 0 0 1-1.5-1.8.9.9 0 0 0-.4-.3c0-.1-2.1-3.5-2-3.6-.3 0-.2-.2-.2-.5l-.3-.2-.2.1c.3 0 0-.8-.2-1h5.6l-.3.3a70 70 0 0 0 3.7 6l2.5 3.5a35.5 35.5 0 0 1 2.7 4.7l1.7 3.7a41.2 41.2 0 0 0 3.4 5.2 9.5 9.5 0 0 0 1 1.2 5.8 5.8 0 0 1-.9 0zm4.8 0L39 73l-1.3-1-1.3-1.3a13.9 13.9 0 0 1-1.5-2.3c-1.8-3-3.1-6.3-5-9.3a4.3 4.3 0 0 0-.6-.7.8.8 0 0 0-.4-.7c-.2 0-1.3-1.6-1.8-2.3a1 1 0 0 0-.3-.3v-.3h-.2L25 52c0-.2-.3-.4-.4-.2a.7.7 0 0 0 .1-.3 1 1 0 0 0-.5.1 1 1 0 0 0 .5-.5l-.3-.2H24c.3 0 0-.7-.2-1h5.6l-.3.3a66.8 66.8 0 0 0 3.7 6l2.5 3.6a36.3 36.3 0 0 1 2.7 4.6l.5 1.2a2 2 0 0 1 0 .9v.5c0 .2.3.1.5.2a1 1 0 0 1 .2.3 4.3 4.3 0 0 0 .4.7 39.6 39.6 0 0 0 3.4 5.1 9.2 9.2 0 0 0 1 1.3s-6 0-6.3 0zm14-7.7-1 1.5-.8 1.4-2 3.4-2.5-4.2v-.2l-.3-.4c-1.8-3-3.1-6.4-5.1-9.3a5 5 0 0 0-.5-.7.8.8 0 0 0-.4-.8c-.2.1-.4-.2-.2-.4-.6-.5-1.8-2-2-2.2v-.2c-.6-1-2-3.2-2-3.4-.2 0-.2-.2-.2-.4l-.3-.2-.2.1c.3-.1 0-.8-.1-1h27.7c-.2.2-.5.9-.2 1h-.2l-.3.1-.1.4a31 31 0 0 1-2 3.4l-.1.2c-.2 0-1.3 1.6-2 2.2a.3.3 0 0 1-.2.4.8.8 0 0 0-.3.8 5.9 5.9 0 0 0-.5.7 83 83 0 0 0-4.3 7.7zm7.8 3.7L58.3 72 57 73l1.1 1.6h-6.3a9.9 9.9 0 0 0 1-1.3 41.6 41.6 0 0 0 3.4-5.1l1.7-3.7a36.3 36.3 0 0 1 2.7-4.7l2.5-3.5a66.8 66.8 0 0 0 3.7-6l-.3-.3H72c-.2.2-.5.9-.2 1h-.2l-.3.1a1 1 0 0 0 .4.6 1 1 0 0 0-.5-.2.6.6 0 0 0 .2.4c-.1-.2-.4 0-.5.2l-1.6 2.8-.2-.1v.3a.9.9 0 0 0-.4.4c-.4.6-1.6 2.3-1.8 2.2a.8.8 0 0 0-.3.7 5.7 5.7 0 0 0-.5.7c-2 3-3.4 6.3-5.2 9.3a13.6 13.6 0 0 1-1.4 2.2zm10.3 0L68.6 72l-1.8 1.6 1.5 1a2.8 2.8 0 0 0-.7 0h-1l-3.5-.1h-1a11.6 11.6 0 0 0 1-1.2 40.3 40.3 0 0 0 3.4-5.2c.6-1.2 1-2.5 1.7-3.7a34.1 34.1 0 0 1 2.7-4.7l2.5-3.5a67 67 0 0 0 3.7-6l-.4-.2h5.6c-.2.2-.5.9-.2 1H82l-.3.1v.4c0 .2-2.2 3.5-2.2 3.6a.9.9 0 0 0-.3.4 9 9 0 0 1-1.6 1.8c.2.2-.6.9-.6 1.2a4.6 4.6 0 0 0-.5.7c-2 2.9-3.3 6.2-5.1 9.3a13.8 13.8 0 0 1-1.4 2.1zm11.7-2.2a14.2 14.2 0 0 1-1.4 2.2L78.8 72 77 73.5l1.8 1.2h-6.4l.1-.1a10.8 10.8 0 0 0 1-1.3 39.8 39.8 0 0 0 3.4-5.1l1.7-3.7a36.3 36.3 0 0 1 2.7-4.7l2.5-3.6a67 67 0 0 0 3.7-6L87 50h5.6c-.1.2-.4.8-.2 1h-.2l-.3.1a1 1 0 0 0 .4.6 1 1 0 0 0-.5-.2l-2 3.5a2.8 2.8 0 0 0-.5.5l-7.6 13zm-59-40zM26.4 41a79.2 79.2 0 0 0 11.1.1c5.5 0 3 .1.5-2.6a5 5 0 0 0-.7-.4c0-.3-.2 0-.3 0 .3-.4-.7-1-.9-.6.4-.6-1.6-1.8-1.8-1.7.1-.1-.1-.4-.2 0 0-.3-.2-.6-.2-.3 0-.2-.3-.3-.4-.5-1.3-1-1.6-1.5-3-.2-2.3 1.9-5 3.9-7.4 5.5h.1a10 10 0 0 0-.9.7c1.4-.1 2.8.2 4.1 0zM1.7 35.7c0-.1-.2-.5-.2-.2 0-.2-.3-.3-.4-.5L0 34.3v7l5.1-.1c5.5 0 3 0 .4-2.7a4.4 4.4 0 0 0-.6-.4c0-.3-.3 0-.3 0 .3-.3-.7-1-1-.6.5-.5-1.5-1.7-1.7-1.7.1-.1-.1-.3-.2 0zm56.8 5.5a79 79 0 0 0 11.1-.2c1.4.2 2.7-.1 4 0l-.8-.6a133.1 133.1 0 0 1-7.3-5.6c-1.3-1.3-1.7-.7-3 .2-.1.2-.4.3-.4.5 0-.3-.3 0-.2.3-.1-.3-.3-.1-.2 0-.2 0-2.2 1.2-1.8 1.7-.2-.4-1.2.3-.9.6 0 0-.3-.3-.3 0a4.7 4.7 0 0 0-.6.4c-2.6 2.7-5.1 2.7.4 2.7zm35.9-26.9c0 .2.2.6.2.2 0 .3.3.4.4.5l1 .8v-7L91 9c-5.5 0-3 0-.4 2.7a4.7 4.7 0 0 0 .6.4c0 .3.3 0 .3 0-.3.3.7 1 1 .6-.5.5 1.5 1.7 1.7 1.6 0 .2.1.4.2.1zM91 41.2h5v-6.9l-1 .8c-.1.1-.4.3-.4.5 0-.4-.2 0-.2.2-.1-.3-.3-.1-.2 0-.2 0-2.2 1.2-1.8 1.7-.2-.4-1.2.3-.9.6 0 0-.3-.3-.3 0a4.7 4.7 0 0 0-.6.4c-2.6 2.7-5 2.7.4 2.7zM37.5 8.9a81.2 81.2 0 0 0-11 .2c-1.5-.2-2.8.1-4.2 0l1 .6h-.1l7.4 5.5c1.3 1.4 1.6.8 3-.2.1 0 .4-.2.4-.5 0 .4.2 0 .2-.2 0 .3.3.1.2 0 .2 0 2.2-1.2 1.8-1.7.1.4 1.2-.3.9-.6 0 0 .3.3.3 0a3.4 3.4 0 0 0 .6-.4c2.6-2.7 5-2.7-.4-2.7zm32.1.2a79 79 0 0 0-11-.1c-5.6 0-3 0-.5 2.6a4.7 4.7 0 0 0 .6.4c0 .3.3 0 .3 0-.3.4.7 1 1 .6-.5.6 1.5 1.8 1.7 1.7 0 .2.1.4.2 0 0 .3.2.6.2.3 0 .2.3.4.4.5 1.3 1 1.7 1.5 3 .2 2.3-1.9 5-3.9 7.4-5.5a9.8 9.8 0 0 0 .8-.7c-1.4.1-2.7-.2-4 0zM5 9H0v7l1-.8c.2-.2.4-.3.4-.5 0 .3.3 0 .2-.2.1.3.3 0 .2-.1.2 0 2.2-1.2 1.8-1.7.2.4 1.2-.3 1-.6 0 0 .3.3.2 0a4 4 0 0 0 .7-.4C8 9 10.5 9 5 9zm15.7 16c-.6-.2-.9-.6-1.2-.6.4-.2-1.3-1-1.7-1.4l-1.7-1.3c-.3 0-.3-.6-.5-.2a7.5 7.5 0 0 0-1.8 1.2c-.5-.2-.1.3-.4.1-.1-.1-.4.5-.4.6-.2 0-1 .2-.8.6h-.3l-.4.3-.7.4-.9.6.3.2.2.1a18.6 18.6 0 0 0 4 2.5l1.3.9c1-.9 2.7-1.7 3.2-2.5.4.2.4 0 .7-.3a7.8 7.8 0 0 0 1.4-1c-.1-.2-1-.1-.3-.3zM0 5.5h5.7c.5 0 1.2-.4 1.9-.5h10.3c1.7 0 3.7-.6 5.4-.6h7.1c4-.1 8 .1 11.8-.2H48a57.5 57.5 0 0 1 5.9.1c3.8.3 7.8 0 11.8.2h7c1.8 0 3.7.5 5.5.5l10.3.1c.7 0 1.4.3 2 .4H96V.6h-.6L87.9.2H67.1L66 .5a.3.3 0 0 0 .1-.2h-5.4c-.2 0 0 .3-.2.2V.2a10 10 0 0 0-3.2.2.7.7 0 0 0-.2-.3C55.4.5 53.7 0 52 0c-.7 0-1.8.5-2.3 0a2.3 2.3 0 0 1-.9.1V0a1 1 0 0 1-.7.2 1 1 0 0 1-.7-.2v.1a2.3 2.3 0 0 1-.8-.1c-.5.5-1.7 0-2.3 0A17.1 17.1 0 0 1 39 0a.8.8 0 0 0-.2.4 9.8 9.8 0 0 0-3.1-.2v.2c-.2 0 0-.2-.3-.2h-5.3v.2c0 .1 0 0 0 0L29 .1c-5.2.2-10.4 0-15.6.1-1.8 0-3.3-.2-5 0C5.7.1 3.3.3.8.4H0zm92.2-3a2 2 0 0 1 .4 0h.2a.6.6 0 0 1-.3.7l-.4-.5-.1-.1.2-.2zm-6 .3a5.2 5.2 0 0 1 1.5-.3l-.2-.5c0-.2.2-.2.3-.3a3.5 3.5 0 0 0 2 .8.6.6 0 0 0 0-.5h1.4a3 3 0 0 0-.6.1v.1a.5.5 0 0 0 .6 0s0 .2.1.2v.3a3.8 3.8 0 0 0-.9.5c-1.3-.7-3-.3-4.4-.3zm-3 0 .1-.3 1 .2v-.3a6 6 0 0 1 1 .2l.1.2h-2.3zm-.5-.3.1.2a2.8 2.8 0 0 1-.3.3 2.7 2.7 0 0 1 .2-.6zm-1 0h.2a1 1 0 0 1 0 .3V3h-.3a1.1 1.1 0 0 1-.2-.3 2 2 0 0 1 .3-.2zm-7.4 0 .1.4c.3-.2.4-.5.8-.7a.8.8 0 0 1 .9.3.7.7 0 0 1-.4.2.7.7 0 0 0 .2.5v.1a2.3 2.3 0 0 1-.6 0c-.1 0 0-.3 0-.4-.4 0-.8.2-1.1.3l-.2-.5.3-.2zm-10.2.1h.9a.5.5 0 0 0 .1.4 1.6 1.6 0 0 1-1-.2c-.1 0-.1-.2 0-.2zm-4.8.5h.4v-.5c0-.1.5 0 .6-.2l.3-.5c.2.1 0 .4.1.6a11 11 0 0 1 1.3.1.1.1 0 0 1 .1.1v.6a3 3 0 0 0-1.2-.5.6.6 0 0 0 .2.4c-.6.3-1.2 0-1.8.2v-.3z"/>
      <path d="M94.6 22.3c-.5-.4-1-1.2-1.5-1.2-.2-.5-.5-.6-.9-.6 0 0 0-.3-.2-.4l-1.3-1.2-1.6-1.2s-.3.4-.2.1c.1-.9-1-.2-1-1.3 0-.4-.6.4-.5-.4-.2-.2-.7 0-.8-.4l-.1.2c0-.5-.2-.7-.5-.4-1.5-2-3.8-3-5.9-4.6a19.9 19.9 0 0 1-2.4 1.9 6.3 6.3 0 0 1-1.1 1c-.6 0-.5.9-1.1.8-.5-.3-.4.1-.7.3.4.6-.3 0-.4.7-1 .5-1.8 1.7-2.9 2 0 .3-.2.8-.4.5-.7 1.2-2.5 1.6-3 3a4.3 4.3 0 0 0-1.3.7l-2.5 2-1.1-.9a1.9 1.9 0 0 1-.3-.2c.4-.2 0-.3-.2-.4a1.8 1.8 0 0 1-.4-.2 6.1 6.1 0 0 1-.4-.4 13.9 13.9 0 0 0-1.3-1 6.5 6.5 0 0 1-.6-.6c-.2-.1-.4-.4-.6-.4l-.4-.2a2.5 2.5 0 0 0-.2-.4 3.4 3.4 0 0 0-.7-.5c0-.1-1.2-.8-1.1-1l-.2.2c.1-.9-1-.2-1-1.3 0-.3-.3 0-.4 0s-.2-.1-.1-.4c-.2-.2-.7 0-.8-.4l-.1.2c0-.6-.2-.7-.5-.4-1.5-2-3.7-3-5.8-4.5-2.1 1.4-4.3 2.6-5.8 4.5-.3-.3-.5-.2-.5.4v-.2c-.2.4-.7.2-.9.4v.3s-.5-.2-.5.1c0 1.1-1.2.4-1 1.3l-.2-.1c-.6.7-1.8 1-2.1 2-.2-.1-.3-.2-.1.2-.3-.4-.4 0-.1 0 0 .3-.6-.4-.1.2-.2 0-.3-.5-.2.1l-.2-.1c-.7.6-1.7 1-2.4 2-.1.3-1.3.3-.7.6a1.4 1.4 0 0 1-.3.2l-1 1-2.6-2.1A4.3 4.3 0 0 0 28 21c-.5-1.2-2.3-1.7-3-3-.2.4-.4-.2-.4-.4-1.2-.4-2-1.6-3-2 0-.8-.7-.1-.4-.8-.2-.2-.1-.5-.6-.3-.6.1-.5-.7-1-.7a5.6 5.6 0 0 1-1.2-1 21.6 21.6 0 0 1-2.4-1.9c-2 1.6-4.4 2.6-5.9 4.6-.3-.3-.5-.1-.5.4v-.2c-.2.4-.7.2-.9.4.1.8-.4 0-.5.4 0 1.1-1.2.4-1 1.3.1.3-.2-.1-.2-.1l-1.6 1.2-1.3 1.2-.2.4c-.4 0-.7 0-.9.6-.5 0-1 .8-1.5 1.1-.2.2-1 .3-.4.5l-1.1.5v4.2c3.6 2.4 9.1 7.6 12.2 9.3l.2.2c0 .2.1.1.2.1l.2.1 3.3 2.5 4-3.6h-.3a56 56 0 0 0 6.1-5c1.2.2 4-3.3 5.5-3.8C35.8 29.4 40 34 44 36.7l3.9 3h.2l3.9-3c4.2-2.6 8.2-7.3 12.6-9.5 1.5.5 4.3 4 5.5 3.7a57.2 57.2 0 0 0 6.2 5.1H76l4 3.6 3.3-2.5.1-.1c.1 0 .3 0 .3-.2l.2-.2c3-1.6 8.4-6.8 12-9.2v-4.2a3 3 0 0 1-1-.5c.6-.2-.2-.3-.4-.4zm-67.9 3h-.1l-3.8 3-.2.1c0 .4-.1.3-.3.3-.3 0-.4.9-.9.8v.2a11.3 11.3 0 0 0-3.2 2.4l-2.6 2.5-2.6-2-.6-.5c-12.2-10.3-9.2-4.6 1.4-15 .4.3.9 0 .7-.7.3.3.9 0 1-.4 2.3.9 4.5 4.2 7 5.4-.2.1.7 1 1 .9 0 .5.7.8.9 1 1 .3 1.8 1.7 2.4 1.9-.2 0-.1 0 0 0 0 0-.3 0 0 .1zm30.7 1.9c-2.1 1.3-4 3.7-6.2 5l-3 2.4-.3.2-.2-.2-3-2.4c-2.1-1.4-4-3.8-6.1-5-1.3-1.2-2.5-1.4-2-2.3l7.7-6.3a5.9 5.9 0 0 0 1.6-1.5c.5.3.9-.1.7-.7.3.3.8 0 1-.4h.8c.1.4.6.7 1 .4-.2.6.2 1 .7.7.1.7 6 4.9 6 4.9.8.5 1.3 1.1 2 1.6 2.6 2.2 1 2-.7 3.6zm26.2 5-.6.4-2.6 2-2.6-2.4a11.6 11.6 0 0 0-3.3-2.5l.1-.2c-.5.1-.6-.7-1-.8l-.2-.1v-.2l-.5-.3-.4-.2-1.3-1.2-1-.8-.5-.4a1.7 1.7 0 0 0-.3-.2l-.3-.1c1-.5 1.5-1.5 2.5-2 .2 0 .7-.4.8-1 .3.2 1.2-.7 1.1-.8 2.4-1.2 4.7-4.5 7-5.4 0 .4.6.7.9.4 0 .7.3 1 .8.7 10.6 10.4 13.7 4.7 1.4 15z"/>
      <path d="m52.3 24.2-.5-.3a.4.4 0 0 0-.3 0c.3-.4-.5-.6-.8-.6 0 0-.3-.8-.4-.6-.3.2 0-.3-.3-.1a7.5 7.5 0 0 0-2-1.2 7.3 7.3 0 0 0-1.9 1.2c-.4-.2 0 .3-.3.1-.1-.2-.4.5-.4.6-.3 0-1.1.2-.9.6 0 0-.4-.1-.2 0l-.4.3h-.1l-.7.4-.9.6.3.2.2.1a19 19 0 0 0 3.7 2.4l1.7 1 1.7-1a19.3 19.3 0 0 0 3.7-2.4h.1l.3-.3-1-.6zm32.3 0-.5-.3c.2-.1-.1 0-.2 0 .2-.4-.6-.6-.9-.6 0 0-.3-.8-.4-.6-.2.2.1-.3-.3-.1a7.7 7.7 0 0 0-2-1.2c0-.4 0 .1-.3.2l-1.8 1.3c-.3.4-2 1.2-1.6 1.4-.3 0-.7.4-1.2.5.6.3-.2.1-.3.4a7.3 7.3 0 0 0 1.4.9c.3.3.2.5.7.3.5.8 2.1 1.6 3.2 2.5l1.3-.9a19 19 0 0 0 4-2.5h.2l.3-.3-1-.6z"/>
    </g>
  </pattern>
  <rect width="100%" height="80" fill="url(#a)"/>
</svg>
