<svg width="119" height="100" viewBox="0 0 119 100" fill="none" xmlns="http://www.w3.org/2000/svg">
<mask id="mask0_9441_16773" style="mask-type:luminance" maskUnits="userSpaceOnUse" x="-68" y="-17" width="187" height="117">
<rect x="-68" y="-16.4179" width="186.567" height="116.418" fill="white"/>
</mask>
<g mask="url(#mask0_9441_16773)">
<rect x="-85.9102" y="67.9506" width="203.967" height="31.3031" fill="#BE008D"/>
<path d="M48.0314 88.2936C47.9834 88.2457 47.9834 88.1978 47.9354 88.1499C47.6472 88.1978 47.8393 87.9105 47.7433 87.8148C47.4551 87.5753 47.2149 87.3359 47.1669 86.9529C47.0708 86.8571 46.7346 86.8571 46.9748 86.6177C46.5425 85.9473 45.9181 85.3727 45.6299 84.6066C45.5819 84.6545 44.8134 83.4095 44.8134 83.3617C44.3331 83.1701 44.2371 82.6913 44.093 82.2604C43.6607 81.9731 43.2765 81.0633 43.2765 81.0633C43.0844 80.9675 42.6521 80.8718 42.8923 80.4887C42.508 80.5845 42.6041 80.2972 42.6521 80.1056C42.6041 80.1535 42.4119 80.0578 42.556 79.962C42.2198 79.7226 41.8356 79.531 41.9317 79.0043C41.2112 78.6692 41.3073 77.7594 40.7789 77.2806C40.827 77.2327 40.6829 77.1369 40.6349 77.089C40.5388 77.0411 40.2986 77.089 40.4908 76.8975C40.4427 76.8975 40.4908 76.8017 40.4427 76.8017C40.4427 76.7538 40.3947 76.8017 40.3947 76.7538C40.3947 76.706 40.2026 76.6102 40.2506 76.5623C40.2026 76.5623 40.2506 76.5144 40.2506 76.5623C40.0105 76.5623 39.9144 76.4665 39.8184 76.3229C39.3861 76.3229 38.9538 76.3229 38.5696 76.3229C38.5696 76.275 38.4735 76.275 38.4255 76.3229C37.3208 76.3229 36.2161 76.3229 35.1114 76.3708C35.1114 76.4187 35.1595 76.4187 35.1595 76.4665C35.1114 76.5144 35.1114 76.5144 35.1595 76.5144C35.3996 76.8975 35.7839 77.2806 35.9279 77.7115C35.8799 77.7115 36.6484 78.5734 36.8885 79.148C37.3208 79.4353 37.4649 80.0099 37.705 80.3929C38.7617 82.6434 40.7309 84.2714 41.7395 86.5219C42.1718 87.1444 42.6041 87.7669 42.9883 88.3894C43.2285 88.3415 43.4686 88.2457 43.6607 88.4372C43.7568 88.3894 43.9009 88.4851 43.9969 88.4372C44.141 88.4851 44.093 88.4372 44.2851 88.4372C44.4772 88.4372 45.1496 88.3894 45.1496 88.4372C45.1977 88.4851 45.1977 88.3894 45.2457 88.4372C46.1102 88.1978 47.0708 88.2457 48.0314 88.3415C48.0795 88.3415 48.0314 88.2936 48.0314 88.2936ZM49.8085 71.0558C46.3504 71.1994 41.8836 71.0558 38.5696 71.0558C38.5696 71.0079 38.4735 71.0079 38.4255 71.0558C36.6484 71.0558 34.8233 71.1516 33.0942 71.0558C33.2383 71.0079 28.8676 71.1516 26.7062 71.0558C24.9772 71.1994 22.8639 71.0558 20.9907 71.0558C20.9907 71.0079 20.9907 71.1037 20.9907 71.0558C11.817 70.7685 2.59533 71.3431 -6.57834 71.0558C-9.7483 71.0558 -12.9183 71.1037 -16.0882 71.0558C-16.3764 71.0079 -17.385 71.0558 -18.1055 71.0558V74.2161C-17.2409 74.0724 -16.2803 74.3118 -15.3678 74.2161C-13.6387 74.1203 -11.8136 74.0724 -10.0845 74.1682C-10.0365 74.1203 -9.50815 74.2161 -9.36406 74.2161C-8.73968 73.9766 -7.92317 74.3597 -7.20273 74.2161C-7.01061 74.1682 -6.81849 74.2161 -6.57834 74.2161C-6.09804 74.0245 -5.66578 74.2639 -5.13745 74.2161C-3.93671 74.1203 -1.19901 74.2161 -1.19901 74.2161C-0.766748 74.1682 -0.142365 74.0245 0.193844 74.2161C2.40321 74.2161 4.70864 74.1203 6.96603 74.1682C7.01406 74.1203 8.59905 74.2161 9.27146 74.2161C9.27146 74.1682 14.6988 74.1682 14.7949 74.2161C15.2752 74.1682 15.7555 74.1203 16.2358 74.1203C16.2358 74.1203 16.4759 74.0724 16.5239 74.1203C17.5806 74.1203 18.6372 74.1682 19.6459 74.2161C21.423 74.0724 25.0252 74.2161 25.0732 74.2161C25.8417 74.1203 26.8984 73.9288 27.5708 74.2161C28.0511 73.9288 28.6755 74.1203 29.2038 74.2161C29.2038 74.1682 29.7321 74.0724 29.9242 74.2161C31.0289 74.1203 32.1336 74.0245 33.2383 74.1203C33.2383 74.1203 34.0068 74.2161 34.1989 74.2161C36.6484 73.9288 39.1459 74.3118 41.5474 74.2161C41.5474 74.2161 42.0757 74.1682 42.1718 74.2161C42.3639 74.2161 42.6521 74.2161 42.7962 74.1682C43.0844 74.1203 43.4206 73.9766 43.6607 74.1682C43.7568 74.1203 43.9009 74.2161 43.9969 74.1682C44.141 74.2161 44.093 74.1682 44.2851 74.1682C44.4772 74.1682 45.1496 74.1203 45.1496 74.1682C45.1977 74.2161 45.1977 74.1203 45.2457 74.1682C46.7346 73.7372 48.3676 74.2161 49.9526 74.1682V71.0079C49.9526 71.0558 49.8566 71.1037 49.8085 71.0558ZM-18.0574 65.4056V68.8532C-17.1929 68.7095 -16.2323 68.949 -15.3198 68.8532C-13.3505 68.7574 -11.2372 68.7095 -9.26801 68.8532C-8.64362 68.6138 -7.82712 68.9968 -7.10667 68.8532C-6.91455 68.8053 -6.72243 68.8532 -6.48228 68.8532C-6.00199 68.6617 -5.56972 68.9011 -5.04139 68.8532C-3.74459 68.7574 -2.39976 68.7574 -1.15099 68.8532C-0.718721 68.8532 -0.0463066 68.6138 0.289902 68.8532C3.26774 68.8532 6.38967 68.7095 9.41554 68.8532C9.41554 68.8053 14.8429 68.8053 14.939 68.8532C16.5239 68.6138 18.253 68.7574 19.79 68.8532C21.5671 68.7095 25.1693 68.8053 25.2173 68.8532C25.9858 68.7574 27.0424 68.5659 27.7149 68.8532C28.1952 68.5659 28.8195 68.7574 29.3479 68.8532C29.3479 68.8053 29.8762 68.7095 30.0683 68.8532C31.4612 68.7574 32.9501 68.6138 34.343 68.8532C36.9366 68.5659 39.5302 68.949 42.0757 68.8532C42.0757 68.9011 42.7001 68.8532 42.9403 68.8532C43.2285 68.8053 43.5647 68.6617 43.8048 68.8532C43.9009 68.8053 44.045 68.9011 44.141 68.8532C44.2851 68.9011 44.2371 68.8532 44.4292 68.8532C44.6213 68.8532 45.2937 68.8053 45.2937 68.8532C45.3418 68.9011 45.3418 68.8053 45.3898 68.8532C46.8787 68.4223 48.5117 68.9011 50.0967 68.8532V65.4056H-18.0574ZM-16.0402 76.3708C-16.3284 76.3229 -17.337 76.3708 -18.0574 76.3708V85.9952C-17.9614 85.66 -17.8173 85.5643 -17.5291 85.4206C-17.4811 85.3249 -17.6252 84.9897 -17.337 85.0854C-16.9047 84.4151 -16.6166 83.6011 -15.9922 83.0744C-16.0402 83.0265 -15.2237 81.8294 -15.1757 81.8294C-15.1757 81.3027 -14.7914 81.0154 -14.4552 80.7281C-14.3592 80.2493 -13.6867 79.531 -13.6387 79.531C-13.5907 79.2916 -13.6867 78.9086 -13.2545 78.9564C-13.4946 78.6213 -13.2064 78.6213 -13.0143 78.5734C-13.0624 78.5255 -13.0624 78.334 -12.9183 78.4297C-12.8222 78.0467 -12.7742 77.6157 -12.2939 77.4721C-12.2458 76.9454 -11.9096 76.6581 -11.5734 76.3708C-13.0624 76.4187 -14.5513 76.4187 -16.0402 76.3708ZM30.8368 88.0542C30.7888 88.0063 30.7888 87.9584 30.7407 87.9105C30.4526 87.9584 30.6447 87.719 30.5486 87.6232C30.2604 87.4317 30.0683 87.1444 30.0203 86.8092C29.9242 86.7134 29.6361 86.7613 29.8282 86.5219C29.3959 85.8995 28.8195 85.3249 28.5314 84.6066C28.4833 84.6545 27.7149 83.4574 27.7629 83.4574C27.2826 83.2659 27.1865 82.8349 27.0905 82.4519C26.7062 82.1646 26.322 81.3506 26.322 81.3027C26.1299 81.2069 25.7456 81.1112 25.9858 80.776C25.6016 80.8718 25.6976 80.6323 25.7456 80.4408C25.6976 80.4887 25.5055 80.4408 25.6496 80.2972C25.3134 80.1056 24.9772 79.8662 25.0252 79.3874C24.3528 79.0522 24.4008 78.1903 23.9205 77.7594C23.9686 77.7115 23.8245 77.6157 23.8245 77.5679C23.7764 77.52 23.4883 77.5679 23.7284 77.3763C23.6804 77.3763 23.7284 77.2806 23.6804 77.3284C23.6804 77.2806 23.6323 77.3284 23.6323 77.2806C23.6323 77.2327 23.4402 77.1369 23.4883 77.089C23.4402 77.089 23.5363 77.0411 23.4883 77.089C23.056 77.089 23.008 76.8496 23.008 76.5623C22.3355 76.5623 21.7112 76.5144 21.0868 76.5144C21.0868 76.4665 21.0868 76.5623 21.0868 76.5144C20.1262 76.4665 19.1175 76.4665 18.157 76.4665C18.205 76.5144 18.205 76.5623 18.253 76.6581C18.205 76.706 18.205 76.706 18.253 76.706C18.4932 77.089 18.8774 77.4721 19.0215 77.903C18.9735 77.903 19.7419 78.7649 19.9821 79.3395C20.4143 79.6268 20.5584 80.2014 20.7986 80.5845C20.7506 80.6323 20.8466 80.5845 20.7986 80.5845C21.8552 82.835 23.8245 84.463 24.8331 86.7135C25.2173 87.3359 25.6496 87.9105 26.0338 88.533C26.6102 88.4851 27.2346 88.4372 27.6668 88.6288C28.1471 88.3415 28.7715 88.533 29.2998 88.6288C29.2998 88.5809 29.8282 88.4851 30.0203 88.6288C30.3085 88.5809 30.6447 88.5809 30.9329 88.5809C30.9329 88.2457 30.9809 88.0542 30.8368 88.0542ZM49.8085 76.3708C47.9354 76.4665 45.774 76.4665 43.6607 76.4187C43.6607 76.4187 43.6607 76.4665 43.7088 76.4665C43.6607 76.5144 43.6607 76.5144 43.7088 76.5144C43.9489 76.8975 44.3331 77.2806 44.4772 77.7115C44.4292 77.7115 45.1977 78.5734 45.4378 79.148C45.8701 79.4353 46.0142 80.0099 46.2543 80.3929C47.2149 82.404 48.896 84.0799 49.9526 85.9952V76.3708C49.9526 76.3708 49.8566 76.4187 49.8085 76.3708ZM39.4821 88.2936C39.4341 88.2457 39.4341 88.1978 39.3861 88.1499C39.0979 88.1978 39.29 87.9105 39.194 87.8148C38.9058 87.5753 38.6656 87.3359 38.6176 86.9529C38.5216 86.8571 38.1853 86.8571 38.4255 86.6177C37.9932 85.9473 37.3688 85.3727 37.0807 84.6066C37.0326 84.6545 36.2642 83.4095 36.2642 83.3617C35.7839 83.1701 35.6878 82.6913 35.5437 82.2604C35.1114 81.9731 34.7272 81.0633 34.7272 81.0633C34.5351 80.9675 34.1028 80.8718 34.343 80.4887C33.9587 80.5845 34.0548 80.2972 34.1028 80.1056C34.0548 80.1535 33.8627 80.0578 34.0068 79.962C33.6706 79.7226 33.2863 79.531 33.3824 79.0043C32.6619 78.6692 32.758 77.7594 32.2297 77.2806C32.2777 77.2327 32.1336 77.1369 32.0856 77.089C31.9895 77.0411 31.7494 77.089 31.9415 76.8975C31.8935 76.8975 31.9415 76.8017 31.8934 76.8017C31.8934 76.7538 31.8454 76.8017 31.8454 76.7538C31.8454 76.706 31.6533 76.6102 31.7013 76.5623C31.6533 76.5623 31.7013 76.5144 31.7013 76.5623C31.4612 76.5623 31.3651 76.4665 31.2691 76.3229C29.8282 76.3229 27.907 76.3708 26.6582 76.3229C26.6102 76.3229 26.6102 76.3229 26.5622 76.3229C26.6102 76.4665 26.7062 76.5623 26.7543 76.6581C26.7062 76.6581 26.7062 76.706 26.7543 76.706C26.9944 77.089 27.3306 77.4242 27.5228 77.8551C27.4747 77.8551 28.1952 78.717 28.4353 79.1959C28.8195 79.4353 28.9636 80.0099 29.2518 80.3929C30.2124 82.5477 32.1816 84.0799 33.0942 86.2346C33.5265 86.905 34.0068 87.5275 34.439 88.2457C34.439 88.2936 34.439 88.2936 34.4871 88.3415C36.1681 88.1978 37.8491 88.2936 39.5302 88.3415C39.6262 88.3415 39.5782 88.2936 39.4821 88.2936ZM22.4796 88.2936C22.4316 88.2457 22.4316 88.1978 22.3836 88.1499C22.0954 88.1978 22.2875 87.9105 22.1914 87.8148C21.9033 87.5753 21.6631 87.3359 21.6151 86.9529C21.519 86.8571 21.1828 86.8571 21.423 86.6177C20.9907 85.9473 20.3663 85.3727 20.0781 84.6066C20.0301 84.6545 19.2616 83.4095 19.2616 83.3617C18.7813 83.1701 18.6853 82.6913 18.5412 82.2604C18.1089 81.9731 17.7247 81.0633 17.7247 81.0633C17.5326 80.9675 17.1003 80.8718 17.3404 80.4887C16.9562 80.5845 17.0523 80.2972 17.1003 80.1056C17.0523 80.1535 16.8601 80.0578 17.0042 79.962C16.668 79.7226 16.2838 79.531 16.3799 79.0043C16.1877 78.9086 16.0917 78.8128 15.9956 78.6692C15.8035 79.0043 15.6594 79.3395 15.3712 79.6268C15.3712 79.5789 14.8909 80.5366 14.5067 80.9196C14.4587 81.3985 13.9784 81.7336 13.7382 82.1167C12.1532 83.7926 11.5769 86.1389 9.99191 87.8148C9.84782 88.0063 9.75176 88.1978 9.60767 88.3894C10.6643 88.3415 14.8429 88.3894 14.8909 88.3894C16.4759 88.1499 18.205 88.2936 19.7419 88.3894C20.5104 88.3415 21.5671 88.2936 22.5757 88.3415C22.5757 88.3415 22.5277 88.2936 22.4796 88.2936ZM49.8085 95.9548C46.3504 96.0985 41.8836 95.9548 38.5696 95.9548C38.5696 95.9069 38.4735 95.9069 38.4255 95.9548C36.6484 95.9548 34.8233 96.0506 33.0942 95.9548C33.2383 95.9069 28.8676 96.0506 26.7062 95.9548C24.9772 96.0985 22.8639 95.9548 20.9907 95.9548C20.9907 95.9069 20.9907 96.0027 20.9907 95.9548C11.817 95.6675 2.59533 96.2421 -6.57834 95.9548C-9.7483 95.9548 -12.9183 96.0027 -16.0882 95.9548C-16.3764 95.9069 -17.385 95.9548 -18.1055 95.9548V99.3066H49.9526V95.9548C49.9526 95.9548 49.8566 96.0027 49.8085 95.9548ZM49.8085 90.6398C49.7605 90.6398 39.3381 90.6398 38.5696 90.6398C38.5696 90.5919 38.4735 90.5919 38.4255 90.6398C36.6484 90.6398 34.8233 90.7356 33.0942 90.6398C33.2383 90.5919 28.8676 90.7356 26.7062 90.6398C25.8897 90.6877 24.9772 90.7356 24.0646 90.6877H24.0166C24.0166 90.6877 24.0166 90.6877 23.9685 90.6877C22.9599 90.6877 21.9513 90.6398 20.9427 90.6398C20.9427 90.5919 20.9427 90.6877 20.9427 90.6398C13.7862 90.4483 -0.670692 90.7356 -0.670692 90.7356C-2.63991 90.7356 -4.60912 90.7356 -6.57834 90.6398C-7.39485 90.6398 -9.26801 90.6398 -9.26801 90.6398C-11.5254 90.6398 -13.7828 90.6398 -16.0882 90.6398C-16.2803 90.6398 -18.0094 90.6398 -18.1055 90.6398V93.8001C-17.2409 93.6564 -16.2803 93.8959 -15.3678 93.8001C-13.3986 93.7043 -11.2853 93.6564 -9.31604 93.8001C-8.69165 93.5607 -7.87515 93.9437 -7.1547 93.8001C-6.96258 93.7522 -6.77046 93.8001 -6.53031 93.8001C-6.05002 93.6086 -5.61775 93.848 -5.08942 93.8001C-3.79262 93.7043 -2.44779 93.7043 -1.19901 93.8001C-0.766748 93.8001 -0.0943317 93.5607 0.241877 93.8001C3.21972 93.8001 6.34165 93.6564 9.36752 93.8001C9.36752 93.7522 14.7949 93.7522 14.8909 93.8001C16.4759 93.5607 18.205 93.7043 19.7419 93.8001C21.519 93.6564 25.1213 93.8001 25.1693 93.8001C25.9378 93.7043 26.9944 93.5128 27.6668 93.8001C28.1471 93.5128 28.7715 93.7043 29.2998 93.8001C29.2998 93.7522 29.8282 93.6564 30.0203 93.8001C31.4132 93.7043 32.9021 93.5607 34.2949 93.8001C36.8885 93.5128 39.4821 93.8959 42.0277 93.8001C42.0277 93.848 42.6521 93.8001 42.8923 93.8001C43.1804 93.7522 43.5166 93.6086 43.7568 93.8001C43.8528 93.7522 43.9969 93.848 44.093 93.8001C44.2371 93.848 44.1891 93.8001 44.3812 93.8001C44.5733 93.8001 45.2457 93.7522 45.2457 93.8001C45.2937 93.848 45.2937 93.7522 45.3418 93.8001C46.8307 93.3691 48.4637 93.848 50.0487 93.8001V90.6398C49.9526 90.6398 49.8566 90.6877 49.8085 90.6398ZM-6.53031 76.3708C-6.96258 76.3708 -7.44288 76.3708 -7.87515 76.3708C-8.25939 76.9933 -8.78771 77.6157 -9.17195 78.1424C-9.21998 78.1424 -9.21998 78.1424 -9.17195 78.1903C-9.46013 78.5734 -9.60421 79.0522 -9.94042 79.3874C-9.94042 79.3395 -10.4687 80.3929 -10.901 80.8239C-10.9971 81.3027 -11.4774 81.6858 -11.7175 82.0688C-13.3986 83.8884 -14.071 86.3783 -15.752 88.1978C-15.8 88.2936 -15.8481 88.3894 -15.8961 88.4372C-15.656 88.4372 -15.4638 88.4372 -15.2237 88.3894C-13.7828 88.2936 -12.3419 88.2936 -10.901 88.2936C-10.7089 87.8626 -10.4687 87.4317 -10.0845 87.1444C-10.2286 86.8092 -9.70027 86.905 -9.7483 86.6656C-9.7483 86.6177 -9.70028 86.5698 -9.65225 86.5219C-9.84436 86.2825 -9.50815 86.3304 -9.46012 86.1867C-9.36406 85.8516 -9.21998 85.5164 -8.88377 85.3249C-8.83574 85.2291 -8.97983 84.8939 -8.69165 84.9897C-8.25938 84.3193 -7.9712 83.5053 -7.34682 82.9786C-7.39485 82.9307 -6.57834 81.7336 -6.53031 81.7336C-6.53031 81.2069 -6.14608 80.9196 -5.80987 80.6323C-5.71381 80.1535 -5.0414 79.4353 -4.99337 79.4353C-4.94534 79.1959 -5.04139 78.8128 -4.60913 78.8607C-4.84928 78.5255 -4.5611 78.5255 -4.36898 78.4776C-4.41701 78.4297 -4.41701 78.2382 -4.27292 78.334C-4.17686 77.9509 -4.12883 77.52 -3.64853 77.3763C-3.6005 76.8975 -3.31232 76.6102 -3.02415 76.3229C-4.27292 76.4665 -5.3776 76.4187 -6.53031 76.3708ZM0.578083 76.4665C0.193846 77.089 -0.334484 77.6636 -0.670692 78.1903C-0.718721 78.1903 -0.718721 78.1903 -0.670692 78.2382C-0.95887 78.6213 -1.10295 79.1001 -1.43916 79.4353C-1.43916 79.3874 -1.96749 80.4408 -2.39976 80.8718C-2.49582 81.3506 -2.97611 81.7336 -3.21626 82.1167C-4.8973 83.9363 -5.56972 86.4261 -7.25076 88.2457C-7.29879 88.3415 -7.34682 88.4372 -7.39485 88.4851C-7.29879 88.4851 -7.1547 88.4851 -7.05864 88.4372C-6.86652 88.3894 -6.67441 88.4372 -6.43426 88.4372C-5.95396 88.2457 -5.52169 88.4851 -4.99337 88.4372C-4.12883 88.3894 -3.2643 88.3415 -2.35173 88.3894C-2.15961 87.9584 -1.91946 87.5275 -1.53522 87.2402C-1.67931 86.905 -1.15099 87.0008 -1.19901 86.7613C-1.19901 86.7135 -1.15099 86.6656 -1.10296 86.6177C-1.29508 86.3783 -0.95887 86.4262 -0.910841 86.2825C-0.814781 85.9473 -0.670687 85.6121 -0.334478 85.4206C-0.286449 85.3249 -0.43054 84.9897 -0.142363 85.0854C0.289904 84.4151 0.578085 83.6011 1.20247 83.0744C1.15444 83.0265 1.97094 81.8294 2.01897 81.8294C2.01897 81.3027 2.40321 81.0154 2.73942 80.7281C2.83548 80.2493 3.50789 79.531 3.55592 79.531C3.60395 79.2916 3.50789 78.9086 3.94016 78.9564C3.70001 78.6213 3.98819 78.6213 4.18031 78.5734C4.13228 78.5255 4.13228 78.334 4.27637 78.4297C4.37243 78.0467 4.42046 77.6157 4.90076 77.4721C4.94879 76.9933 5.28499 76.706 5.57317 76.3708C3.79607 76.4665 2.21109 76.4665 0.578083 76.4665ZM9.1754 76.3708C8.79116 77.0411 8.2148 77.6636 7.8786 78.1903C7.83057 78.1903 7.83057 78.1903 7.8786 78.2382C7.59042 78.6213 7.44633 79.1001 7.11012 79.4353C7.11012 79.3874 6.5818 80.4408 6.14953 80.8718C6.05347 81.3506 5.57317 81.7336 5.33302 82.1167C3.65198 83.9363 2.97957 86.4261 1.29853 88.2457C1.2505 88.2936 1.20247 88.3893 1.15444 88.4851C2.78745 88.4851 4.46849 88.4372 6.14953 88.4372C6.24559 88.3415 6.38968 88.2936 6.38968 88.1499C6.53377 87.6711 6.77392 87.1923 7.20618 86.905C7.06209 86.6177 7.54239 86.7135 7.49436 86.474C7.49436 86.4262 7.54239 86.3783 7.59042 86.3304C7.3983 86.091 7.73451 86.1389 7.78254 86.0431C7.8786 85.7079 8.02269 85.4206 8.31087 85.2291C8.3589 85.1333 8.21481 84.846 8.50298 84.9418C8.88722 84.3193 9.1754 83.5532 9.75176 83.0744C9.70373 83.0265 10.4722 81.9252 10.5202 81.9252C10.4722 81.4464 10.8564 81.1591 11.1926 80.9196C11.2887 80.4408 11.9131 79.7705 11.9611 79.8183C11.9611 79.6268 11.8651 79.1959 12.2973 79.2916C12.0572 79.0043 12.3454 79.0043 12.5375 78.9564C12.4894 78.9086 12.4895 78.7649 12.6335 78.8128C12.6816 78.4297 12.7296 78.0467 13.2099 77.903C13.2099 77.1848 13.9303 76.9454 14.2185 76.4187C12.4414 76.3229 10.8084 76.3229 9.1754 76.3708Z" fill="#646EC8"/>
<path d="M115.831 88.2936C115.783 88.2457 115.783 88.1978 115.735 88.1499C115.447 88.1978 115.639 87.9105 115.543 87.8148C115.255 87.5753 115.015 87.3359 114.967 86.9529C114.87 86.8571 114.534 86.8571 114.774 86.6177C114.342 85.9473 113.718 85.3727 113.43 84.6066C113.382 84.6545 112.613 83.4095 112.613 83.3617C112.133 83.1701 112.037 82.6913 111.893 82.2604C111.46 81.9731 111.076 81.0633 111.076 81.0633C110.884 80.9675 110.452 80.8718 110.692 80.4887C110.308 80.5845 110.404 80.2972 110.452 80.1056C110.404 80.1535 110.212 80.0578 110.356 79.962C110.019 79.7226 109.635 79.531 109.731 79.0043C109.011 78.6692 109.107 77.7594 108.579 77.2806C108.627 77.2327 108.483 77.1369 108.434 77.089C108.338 77.0411 108.098 77.089 108.29 76.8975C108.242 76.8975 108.29 76.8017 108.242 76.8017C108.242 76.7538 108.194 76.8017 108.194 76.7538C108.194 76.706 108.002 76.6102 108.05 76.5623C108.002 76.5623 108.05 76.5144 108.05 76.5623C107.81 76.5623 107.714 76.4665 107.618 76.3229C107.186 76.3229 106.753 76.3229 106.369 76.3229C106.369 76.275 106.273 76.275 106.225 76.3229C105.12 76.3229 104.016 76.3229 102.911 76.3708C102.911 76.4187 102.959 76.4187 102.959 76.4665C102.911 76.5144 102.911 76.5144 102.959 76.5144C103.199 76.8975 103.583 77.2806 103.728 77.7115C103.68 77.7115 104.448 78.5734 104.688 79.148C105.12 79.4353 105.265 80.0099 105.505 80.3929C106.561 82.6434 108.531 84.2714 109.539 86.5219C109.971 87.1444 110.404 87.7669 110.788 88.3894C111.028 88.3415 111.268 88.2457 111.46 88.4372C111.556 88.3894 111.701 88.4851 111.797 88.4372C111.941 88.4851 111.893 88.4372 112.085 88.4372C112.277 88.4372 112.949 88.3894 112.949 88.4372C112.997 88.4851 112.997 88.3894 113.045 88.4372C113.91 88.1978 114.87 88.2457 115.831 88.3415C115.879 88.3415 115.879 88.2936 115.831 88.2936ZM117.656 71.0558C114.198 71.1994 109.731 71.0558 106.417 71.0558C106.417 71.0079 106.321 71.0079 106.273 71.0558C104.496 71.0558 102.671 71.1516 100.942 71.0558C101.086 71.0079 96.7152 71.1516 94.5539 71.0558C92.8248 71.1994 90.7115 71.0558 88.8384 71.0558C88.8384 71.0079 88.8384 71.1037 88.8384 71.0558C79.6647 70.7685 70.443 71.3431 61.2693 71.0558C58.0994 71.0558 54.9294 71.1037 51.7594 71.0558C51.4713 71.0079 50.4626 71.0558 49.7422 71.0558V74.2161C50.6067 74.0724 51.5673 74.3118 52.4799 74.2161C54.209 74.1203 56.0341 74.0724 57.7632 74.1682C57.8112 74.1203 58.3395 74.2161 58.4836 74.2161C59.108 73.9766 59.9245 74.3597 60.6449 74.2161C60.8371 74.1682 61.0292 74.2161 61.2693 74.2161C61.7496 74.0245 62.1819 74.2639 62.7102 74.2161C63.9109 74.1203 66.6486 74.2161 66.6486 74.2161C67.0809 74.1682 67.7053 74.0245 68.0415 74.2161C70.2509 74.2161 72.5563 74.1203 74.8137 74.1682C74.8617 74.1203 76.4467 74.2161 77.1191 74.2161C77.1191 74.1682 82.5465 74.1682 82.6425 74.2161C83.1228 74.1682 83.6031 74.1203 84.0834 74.1203C84.0834 74.1203 84.3236 74.0724 84.3716 74.1203C85.4283 74.1203 86.4849 74.1682 87.4935 74.2161C89.2706 74.0724 92.8729 74.2161 92.9209 74.2161C93.6894 74.1203 94.746 73.9288 95.4184 74.2161C95.8987 73.9288 96.5231 74.1203 97.0514 74.2161C97.0514 74.1682 97.5798 74.0724 97.7719 74.2161C98.8766 74.1203 99.9813 74.0245 101.086 74.1203C101.086 74.1203 101.854 74.2161 102.047 74.2161C104.496 73.9288 106.994 74.3118 109.395 74.2161C109.395 74.2161 109.923 74.1682 110.019 74.2161C110.212 74.2161 110.5 74.2161 110.644 74.1682C110.932 74.1203 111.268 73.9766 111.508 74.1682C111.604 74.1203 111.749 74.2161 111.845 74.1682C111.989 74.2161 111.941 74.1682 112.133 74.1682C112.325 74.1682 112.997 74.1203 112.997 74.1682C113.045 74.2161 113.045 74.1203 113.093 74.1682C114.582 73.7372 116.215 74.2161 117.8 74.1682V71.0079C117.752 71.0558 117.704 71.1037 117.656 71.0558ZM49.7902 65.4056V68.8532C50.6548 68.7095 51.6154 68.949 52.5279 68.8532C54.4971 68.7574 56.6104 68.7095 58.5796 68.8532C59.204 68.6138 60.0205 68.9968 60.741 68.8532C60.9331 68.8053 61.1252 68.8532 61.3654 68.8532C61.8457 68.6617 62.2779 68.9011 62.8063 68.8532C64.1031 68.7574 65.4479 68.7574 66.6967 68.8532C67.1289 68.8532 67.8014 68.6138 68.1376 68.8532C71.1154 68.8532 74.2373 68.7095 77.2632 68.8532C77.2632 68.8053 82.6906 68.8053 82.7866 68.8532C84.3716 68.6138 86.1007 68.7574 87.6376 68.8532C89.4147 68.7095 93.017 68.8053 93.065 68.8532C93.8335 68.7574 94.8901 68.5659 95.5625 68.8532C96.0428 68.5659 96.6672 68.7574 97.1955 68.8532C97.1955 68.8053 97.7239 68.7095 97.916 68.8532C99.3088 68.7574 100.798 68.6138 102.191 68.8532C104.784 68.5659 107.378 68.949 109.923 68.8532C109.923 68.9011 110.548 68.8532 110.788 68.8532C111.076 68.8053 111.412 68.6617 111.652 68.8532C111.749 68.8053 111.893 68.9011 111.989 68.8532C112.133 68.9011 112.085 68.8532 112.277 68.8532C112.469 68.8532 113.141 68.8053 113.141 68.8532C113.189 68.9011 113.189 68.8053 113.237 68.8532C114.726 68.4223 116.359 68.9011 117.944 68.8532V65.4056H49.7902ZM51.7594 76.3708C51.4713 76.3229 50.4626 76.3708 49.7422 76.3708V85.9952C49.8382 85.66 49.9823 85.5643 50.2705 85.4206C50.3185 85.3249 50.1745 84.9897 50.4626 85.0854C50.8949 84.4151 51.1831 83.6011 51.8075 83.0744C51.7594 83.0265 52.5759 81.8294 52.624 81.8294C52.624 81.3027 53.0082 81.0154 53.3444 80.7281C53.4405 80.2493 54.1129 79.531 54.1609 79.531C54.209 79.2916 54.1129 78.9086 54.5452 78.9564C54.305 78.6213 54.5932 78.6213 54.7853 78.5734C54.7373 78.5255 54.7373 78.334 54.8814 78.4297C54.9774 78.0467 55.0255 77.6157 55.5058 77.4721C55.5538 76.9454 55.89 76.6581 56.2262 76.3708C54.7853 76.4187 53.2964 76.4187 51.7594 76.3708ZM98.6364 88.0542C98.5884 88.0063 98.5884 87.9584 98.5404 87.9105C98.2522 87.9584 98.4443 87.719 98.3483 87.6232C98.0601 87.4317 97.868 87.1444 97.8199 86.8092C97.7239 86.7134 97.4357 86.7613 97.6278 86.5219C97.1955 85.8995 96.6192 85.3249 96.331 84.6066C96.283 84.6545 95.5145 83.4574 95.5625 83.4574C95.0822 83.2659 94.9862 82.8349 94.8901 82.4519C94.5059 82.1646 94.1216 81.3506 94.1216 81.3027C93.9295 81.2069 93.5453 81.1112 93.7854 80.776C93.4012 80.8718 93.4973 80.6323 93.5453 80.4408C93.4973 80.4887 93.3051 80.4408 93.4492 80.2972C93.113 80.1056 92.7768 79.8662 92.8248 79.3874C92.1524 79.0522 92.2004 78.1903 91.7201 77.7594C91.7682 77.7115 91.6241 77.6157 91.6241 77.5679C91.5761 77.52 91.2879 77.5679 91.528 77.3763C91.48 77.3763 91.528 77.2806 91.48 77.3284C91.48 77.2806 91.432 77.3284 91.432 77.2806C91.432 77.2327 91.2398 77.1369 91.2879 77.089C91.2398 77.089 91.3359 77.0411 91.2879 77.089C90.8556 77.089 90.8076 76.8496 90.8076 76.5623C90.1352 76.5623 89.5108 76.5144 88.8864 76.5144C88.8864 76.4665 88.8864 76.5623 88.8864 76.5144C87.9258 76.4665 86.9172 76.4665 85.9566 76.4665C86.0046 76.5144 86.0046 76.5623 86.0526 76.6581C86.0046 76.706 86.0046 76.706 86.0526 76.706C86.2928 77.089 86.677 77.4721 86.8211 77.903C86.7731 77.903 87.5416 78.7649 87.7817 79.3395C88.214 79.6268 88.3581 80.2014 88.5982 80.5845C88.5502 80.6323 88.6462 80.5845 88.5982 80.5845C89.6549 82.835 91.6241 84.463 92.6327 86.7135C93.017 87.3359 93.4492 87.9105 93.8335 88.533C94.4098 88.4851 95.0342 88.4372 95.4665 88.6288C95.9468 88.3415 96.5712 88.533 97.0995 88.6288C97.0995 88.5809 97.6278 88.4851 97.8199 88.6288C98.1081 88.5809 98.4443 88.5809 98.7325 88.5809C98.7325 88.2457 98.7805 88.0542 98.6364 88.0542ZM117.656 76.3708C115.783 76.4665 113.622 76.4665 111.508 76.4187C111.508 76.4187 111.508 76.4665 111.556 76.4665C111.508 76.5144 111.508 76.5144 111.556 76.5144C111.797 76.8975 112.181 77.2806 112.325 77.7115C112.277 77.7115 113.045 78.5734 113.285 79.148C113.718 79.4353 113.862 80.0099 114.102 80.3929C115.063 82.404 116.744 84.0799 117.8 85.9952V76.3708C117.752 76.3708 117.704 76.4187 117.656 76.3708ZM107.33 88.2936C107.282 88.2457 107.282 88.1978 107.234 88.1499C106.946 88.1978 107.138 87.9105 107.042 87.8148C106.753 87.5753 106.513 87.3359 106.465 86.9529C106.369 86.8571 106.033 86.8571 106.273 86.6177C105.841 85.9473 105.216 85.3727 104.928 84.6066C104.88 84.6545 104.112 83.4095 104.112 83.3617C103.632 83.1701 103.535 82.6913 103.391 82.2604C102.959 81.9731 102.575 81.0633 102.575 81.0633C102.383 80.9675 101.95 80.8718 102.191 80.4887C101.806 80.5845 101.902 80.2972 101.95 80.1056C101.902 80.1535 101.71 80.0578 101.854 79.962C101.518 79.7226 101.134 79.531 101.23 79.0043C100.51 78.6692 100.606 77.7594 100.077 77.2806C100.125 77.2327 99.9813 77.1369 99.9332 77.089C99.8372 77.0411 99.597 77.089 99.7891 76.8975C99.7411 76.8975 99.7891 76.8017 99.7411 76.8017C99.7411 76.7538 99.6931 76.8017 99.6931 76.7538C99.6931 76.706 99.501 76.6102 99.549 76.5623C99.501 76.5623 99.549 76.5144 99.549 76.5623C99.3088 76.5623 99.2128 76.4665 99.1167 76.3229C97.6758 76.3229 95.7547 76.3708 94.5059 76.3229C94.4578 76.3229 94.4578 76.3229 94.4098 76.3229C94.4578 76.4665 94.5539 76.5623 94.6019 76.6581C94.5539 76.6581 94.5539 76.706 94.6019 76.706C94.8421 77.089 95.1783 77.4242 95.3704 77.8551C95.3224 77.8551 96.0428 78.717 96.283 79.1959C96.6672 79.4353 96.8113 80.0099 97.0995 80.3929C98.0601 82.5477 100.029 84.0799 100.942 86.2346C101.374 86.905 101.854 87.5275 102.287 88.2457C102.287 88.2936 102.287 88.2936 102.335 88.3415C104.016 88.1978 105.697 88.2936 107.378 88.3415C107.426 88.3415 107.378 88.2936 107.33 88.2936ZM90.2793 88.2936C90.2312 88.2457 90.2312 88.1978 90.1832 88.1499C89.895 88.1978 90.0871 87.9105 89.9911 87.8148C89.7029 87.5753 89.4628 87.3359 89.4147 86.9529C89.3187 86.8571 88.9825 86.8571 89.2226 86.6177C88.7903 85.9473 88.1659 85.3727 87.8778 84.6066C87.8297 84.6545 87.0613 83.4095 87.0613 83.3617C86.581 83.1701 86.4849 82.6913 86.3408 82.2604C85.9086 81.9731 85.5243 81.0633 85.5243 81.0633C85.3322 80.9675 84.8999 80.8718 85.1401 80.4887C84.7558 80.5845 84.8519 80.2972 84.8999 80.1056C84.8519 80.1535 84.6598 80.0578 84.8039 79.962C84.4677 79.7226 84.0834 79.531 84.1795 79.0043C83.9874 78.9086 83.8913 78.8128 83.7952 78.6692C83.6031 79.0043 83.459 79.3395 83.1709 79.6268C83.1709 79.5789 82.6906 80.5366 82.3063 80.9196C82.2583 81.3985 81.778 81.7336 81.5379 82.1167C79.9529 83.7926 79.3765 86.1389 77.7915 87.8148C77.6474 88.0063 77.5514 88.1978 77.4073 88.3894C78.464 88.3415 82.6425 88.3894 82.6906 88.3894C84.2755 88.1499 86.0046 88.2936 87.5416 88.3894C88.31 88.3415 89.3667 88.2936 90.3753 88.3415C90.3753 88.3415 90.3753 88.2936 90.2793 88.2936ZM117.656 95.9548C114.198 96.0985 109.731 95.9548 106.417 95.9548C106.417 95.9069 106.321 95.9069 106.273 95.9548C104.496 95.9548 102.671 96.0506 100.942 95.9548C101.086 95.9069 96.7152 96.0506 94.5539 95.9548C92.8248 96.0985 90.7115 95.9548 88.8384 95.9548C88.8384 95.9069 88.8384 96.0027 88.8384 95.9548C79.6647 95.6675 70.443 96.2421 61.2693 95.9548C58.0994 95.9548 54.9294 96.0027 51.7594 95.9548C51.4713 95.9069 50.4626 95.9548 49.7422 95.9548V99.3066H117.8V95.9548C117.752 95.9548 117.704 96.0027 117.656 95.9548ZM117.656 90.6398C117.608 90.6398 107.186 90.6398 106.417 90.6398C106.417 90.5919 106.321 90.5919 106.273 90.6398C104.496 90.6398 102.671 90.7356 100.942 90.6398C101.086 90.5919 96.7152 90.7356 94.5539 90.6398C93.7374 90.6877 92.8248 90.7356 91.9123 90.6877H91.8642C91.8642 90.6877 91.8642 90.6877 91.8162 90.6877C90.8076 90.6877 89.799 90.6398 88.7903 90.6398C88.7903 90.5919 88.7903 90.6877 88.7903 90.6398C81.6339 90.4483 67.177 90.7356 67.177 90.7356C65.2078 90.7356 63.2385 90.7356 61.2693 90.6398C60.4528 90.6398 58.5796 90.6398 58.5796 90.6398C56.3223 90.6398 54.0649 90.6398 51.7594 90.6398C51.5673 90.6398 49.8382 90.6398 49.7422 90.6398V93.8001C50.6067 93.6564 51.5673 93.8959 52.4799 93.8001C54.4491 93.7043 56.5624 93.6564 58.5316 93.8001C59.156 93.5607 59.9725 93.9437 60.693 93.8001C60.8851 93.7522 61.0772 93.8001 61.3173 93.8001C61.7976 93.6086 62.2299 93.848 62.7582 93.8001C64.055 93.7043 65.3999 93.7043 66.6486 93.8001C67.0809 93.8001 67.7533 93.5607 68.0895 93.8001C71.0674 93.8001 74.1893 93.6564 77.2152 93.8001C77.2152 93.7522 82.6425 93.7522 82.7386 93.8001C84.3236 93.5607 86.0527 93.7043 87.5896 93.8001C89.3667 93.6564 92.9689 93.8001 93.017 93.8001C93.7854 93.7043 94.8421 93.5128 95.5145 93.8001C95.9948 93.5128 96.6192 93.7043 97.1475 93.8001C97.1475 93.7522 97.6758 93.6564 97.868 93.8001C99.2608 93.7043 100.75 93.5607 102.143 93.8001C104.736 93.5128 107.33 93.8959 109.875 93.8001C109.875 93.848 110.5 93.8001 110.74 93.8001C111.028 93.7522 111.364 93.6086 111.604 93.8001C111.701 93.7522 111.845 93.848 111.941 93.8001C112.085 93.848 112.037 93.8001 112.229 93.8001C112.421 93.8001 113.093 93.7522 113.093 93.8001C113.141 93.848 113.141 93.7522 113.189 93.8001C114.678 93.3691 116.311 93.848 117.896 93.8001V90.6398C117.752 90.6398 117.704 90.6877 117.656 90.6398ZM61.3173 76.3708C60.8851 76.3708 60.4048 76.3708 59.9725 76.3708C59.5883 76.9933 59.06 77.6157 58.6757 78.1424C58.6277 78.1424 58.6277 78.1424 58.6757 78.1903C58.3875 78.5734 58.2434 79.0522 57.9072 79.3874C57.9072 79.3395 57.3789 80.3929 56.9466 80.8239C56.8506 81.3027 56.3703 81.6858 56.1301 82.0688C54.4491 83.8884 53.7767 86.3783 52.0956 88.1978C52.0476 88.2936 51.9996 88.3894 51.9516 88.4372C52.1917 88.4372 52.3838 88.4372 52.624 88.3894C54.0649 88.2936 55.5058 88.2936 56.9466 88.2936C57.1388 87.8626 57.3789 87.4317 57.7632 87.1444C57.6191 86.8092 58.1474 86.905 58.0994 86.6656C58.0994 86.6177 58.1474 86.5698 58.1954 86.5219C58.0033 86.2825 58.3395 86.3304 58.3875 86.1867C58.4836 85.8516 58.6277 85.5164 58.9639 85.3249C59.0119 85.2291 58.8678 84.8939 59.156 84.9897C59.5883 84.3193 59.8765 83.5053 60.5008 82.9786C60.4528 82.9307 61.2693 81.7336 61.3173 81.7336C61.3173 81.2069 61.7016 80.9196 62.0378 80.6323C62.1339 80.1535 62.8063 79.4353 62.8543 79.4353C62.9023 79.1959 62.8063 78.8128 63.2385 78.8607C62.9984 78.5255 63.2866 78.5255 63.4787 78.4776C63.4307 78.4297 63.4307 78.2382 63.5748 78.334C63.6708 77.9509 63.7188 77.52 64.1991 77.3763C64.2472 76.8975 64.5353 76.6102 64.8235 76.3229C63.5747 76.4665 62.422 76.4187 61.3173 76.3708ZM68.3777 76.4665C67.9935 77.089 67.4652 77.6636 67.1289 78.1903C67.0809 78.1903 67.0809 78.1903 67.1289 78.2382C66.8408 78.6213 66.6967 79.1001 66.3605 79.4353C66.3605 79.3874 65.8321 80.4408 65.3999 80.8718C65.3038 81.3506 64.8235 81.7336 64.5834 82.1167C62.9023 83.9363 62.2299 86.4261 60.5489 88.2457C60.5008 88.3415 60.4528 88.4372 60.4048 88.4851C60.5008 88.4851 60.6449 88.4851 60.741 88.4372C60.9331 88.3894 61.1252 88.4372 61.3654 88.4372C61.8457 88.2457 62.2779 88.4851 62.8063 88.4372C63.6708 88.3894 64.5353 88.3415 65.4479 88.3894C65.64 87.9584 65.8802 87.5275 66.2644 87.2402C66.1203 86.905 66.6486 87.0008 66.6006 86.7613C66.6006 86.7135 66.6487 86.6656 66.6967 86.6177C66.5046 86.3783 66.8408 86.4262 66.8888 86.2825C66.9849 85.9473 67.1289 85.6121 67.4651 85.4206C67.5132 85.3249 67.3691 84.9897 67.6573 85.0854C68.0895 84.4151 68.3777 83.6011 69.0021 83.0744C68.9541 83.0265 69.7706 81.8294 69.8186 81.8294C69.8186 81.3027 70.2029 81.0154 70.5391 80.7281C70.6351 80.2493 71.3075 79.531 71.3556 79.531C71.4036 79.2916 71.3075 78.9086 71.7398 78.9564C71.4997 78.6213 71.7878 78.6213 71.9799 78.5734C71.9319 78.5255 71.9319 78.334 72.076 78.4297C72.1721 78.0467 72.2201 77.6157 72.7004 77.4721C72.7484 76.9933 73.0846 76.706 73.3728 76.3708C71.6437 76.4665 70.0107 76.4665 68.3777 76.4665ZM76.975 76.3708C76.5908 77.0411 76.0144 77.6636 75.6782 78.1903C75.6302 78.1903 75.6302 78.1903 75.6782 78.2382C75.39 78.6213 75.246 79.1001 74.9097 79.4353C74.9097 79.3874 74.3814 80.4408 73.9492 80.8718C73.8531 81.3506 73.3728 81.7336 73.1327 82.1167C71.4516 83.9363 70.7792 86.4261 69.0982 88.2457C69.0501 88.2936 69.0021 88.3893 68.9541 88.4851C70.5871 88.4851 72.2681 88.4372 73.9492 88.4372C74.0452 88.3415 74.1893 88.2936 74.1893 88.1499C74.3334 87.6711 74.5735 87.1923 75.0058 86.905C74.8617 86.6177 75.342 86.7135 75.294 86.474C75.294 86.4262 75.342 86.3783 75.39 86.3304C75.1979 86.091 75.5341 86.1389 75.5822 86.0431C75.6782 85.7079 75.8223 85.4206 76.1105 85.2291C76.1585 85.1333 76.0144 84.846 76.3026 84.9418C76.6869 84.3193 76.975 83.5532 77.5514 83.0744C77.5034 83.0265 78.2718 81.9252 78.3199 81.9252C78.2718 81.4464 78.6561 81.1591 78.9923 80.9196C79.0883 80.4408 79.7127 79.7705 79.7608 79.8183C79.7608 79.6268 79.6647 79.1959 80.097 79.2916C79.8568 79.0043 80.145 79.0043 80.3371 78.9564C80.2891 78.9086 80.2891 78.7649 80.4332 78.8128C80.4812 78.4297 80.5292 78.0467 81.0095 77.903C81.0095 77.1848 81.73 76.9454 82.0182 76.4187C80.2411 76.3229 78.608 76.3229 76.975 76.3708Z" fill="#646EC8"/>
<path fill-rule="evenodd" clip-rule="evenodd" d="M57.1868 34.0017C57.1868 34.0017 57.1388 34.0017 57.0907 34.0496H57.1388C57.1868 34.0496 57.1868 34.0975 57.2348 34.0975L57.3309 34.1454C57.475 34.2411 57.6191 34.289 57.7632 34.3848C58.0513 34.5284 58.3395 34.72 58.6277 34.8636C60.9331 36.2043 63.5267 37.7366 65.2558 38.8379C68.5698 40.4659 72.3161 43.0037 75.7263 45.0626C75.7743 45.0147 75.7263 45.1105 75.7743 45.0626C76.1585 45.302 76.5428 45.5415 76.927 45.7809C79.1364 46.5949 81.1056 48.2229 83.1709 49.6115L83.6992 49.9467L83.7952 49.9946C84.1315 49.803 84.4677 49.6115 84.8519 49.42L86.677 48.3665L88.7423 47.1216C91.0958 45.5894 93.4972 44.105 95.9468 42.7643L98.3483 41.2799L106.129 36.5395L110.019 34.1933L110.26 34.0496L110.356 34.0017H110.308L110.067 33.8581L108.819 33.0919C107.138 32.0864 105.505 31.033 103.824 29.9796C97.964 26.532 92.1524 23.1324 86.2928 19.589C85.9086 19.3017 84.8519 18.7271 83.7952 18.1047L83.7472 18.1525C83.7472 18.1525 83.7472 18.1525 83.7472 18.2004C83.7472 18.2004 83.7472 18.2004 83.6992 18.2004L83.2669 18.4398C78.0797 21.7437 71.7878 25.2871 66.5045 28.3037C65.688 28.9262 64.8235 29.5007 64.007 29.7402C63.959 29.7402 63.959 29.788 63.9109 29.788C63.9109 29.788 63.9109 29.788 63.8629 29.788C63.8149 29.788 63.7669 29.8359 63.7188 29.8359C63.6708 29.8838 63.6228 29.9317 63.6228 29.9796C63.4306 30.0753 63.2866 30.1711 63.0945 30.3148C62.6622 30.7936 61.9898 31.1288 61.3654 31.3682C60.5008 31.8949 59.6363 32.4216 58.7237 32.9483C58.2915 33.1877 57.9072 33.4271 57.475 33.7144L57.1868 33.906H57.1388C57.2348 34.0017 57.2829 34.0017 57.1868 34.0017ZM71.3075 33.6665C71.4516 33.5229 71.6918 33.4271 72.124 33.3314C72.1721 33.3314 72.2201 33.2835 72.2681 33.2835C72.6043 32.9004 73.1807 32.5174 73.8051 32.1343C74.4295 31.7512 75.1019 31.4161 75.7743 31.0809C75.8703 31.033 75.9664 30.9851 76.0625 30.9372C76.1585 30.8893 76.2546 30.8415 76.3506 30.7457L77.4553 30.0753L77.8396 29.8359L78.1277 29.6923C78.464 29.5007 78.8002 29.3571 79.1364 29.2134C79.2324 29.0698 79.2324 28.7825 79.5206 28.974C79.7127 28.8304 80.0009 28.6389 80.3851 28.4473C80.6733 27.5854 81.5379 27.6333 82.2583 27.3939C82.5465 27.2503 82.7386 27.1066 82.7866 27.1066C83.1228 26.8193 83.459 26.532 83.8433 26.2447C84.4677 26.532 85.0921 26.9151 85.6684 27.346L86.1007 27.6333L86.1967 27.7291C86.2448 27.7291 86.2448 27.777 86.2448 27.777L86.3408 27.8727C86.3889 27.9206 86.4849 27.9685 86.5329 28.0643C87.3975 28.3994 88.214 28.8304 88.9344 29.4529C89.0785 29.5486 89.2226 29.6923 89.3187 29.7402C89.5108 29.6923 89.6549 29.788 89.7509 29.9317C89.799 29.9317 89.799 29.9317 89.847 29.9317H89.895L89.9911 29.9796L90.1832 30.0275C90.3273 30.0753 90.4233 30.1232 90.5674 30.1711C90.9997 30.3626 91.3839 30.6499 91.48 30.9851C91.6241 30.9851 91.7201 31.033 91.8162 31.0809C92.1044 31.1288 92.3445 31.2245 92.5367 31.3682C92.7768 31.5597 92.8729 31.7512 92.9689 31.9428C93.0169 31.9428 93.065 31.9907 93.113 31.9907C93.3051 32.0385 93.6413 32.1343 93.7374 32.278C94.1216 32.4695 94.5059 32.661 94.8421 32.8525C95.6586 33.2356 96.4751 33.6187 97.0514 34.0017C96.8113 34.1454 96.5711 34.2411 96.283 34.3369C96.1389 34.4806 95.8987 34.5763 95.4665 34.6721C95.4184 34.6721 95.3704 34.72 95.3224 34.72C94.9862 35.103 94.4098 35.4861 93.7854 35.8692C93.161 36.2522 92.4886 36.5874 91.8162 36.9226C91.7201 36.9705 91.6241 37.0183 91.528 37.0662C91.432 37.1141 91.3359 37.162 91.2398 37.2578L90.1352 37.9281L89.7509 38.1675L89.4628 38.3112C89.1265 38.5027 88.7903 38.6463 88.4541 38.79C88.3581 38.9336 88.3581 39.2209 88.0699 39.0294C87.8778 39.1731 87.5896 39.3646 87.2054 39.5561C86.9172 40.418 86.0526 40.3701 85.3322 40.6095C85.044 40.7532 84.8519 40.8968 84.8039 40.8968C84.4677 41.1841 84.1315 41.4714 83.7472 41.7587C83.1228 41.4714 82.4984 41.0884 81.9221 40.6574L81.4898 40.3701L81.3938 40.2744C81.3457 40.2744 81.3457 40.2265 81.3457 40.2265L81.2497 40.1307C81.2016 40.0828 81.1056 40.035 81.0576 39.9392C80.193 39.604 79.3765 39.1731 78.6561 38.5506C78.512 38.4548 78.3679 38.3112 78.2718 38.2633C78.0797 38.3112 77.9356 38.2154 77.8396 38.0718C77.7915 38.0718 77.7915 38.0718 77.7435 38.0718H77.6955L77.5994 38.0239L77.4073 37.976C77.2632 37.9281 77.1672 37.8802 77.0231 37.8323C76.5908 37.6408 76.2065 37.3535 76.1105 37.0183C75.9664 37.0183 75.8703 36.9705 75.7743 36.9226C75.4861 36.8747 75.246 36.7789 75.0538 36.6353C74.8137 36.4437 74.7176 36.2522 74.6216 36.0607C74.5736 36.0607 74.5255 36.0128 74.4775 36.0128C74.2854 35.9649 73.9492 35.8691 73.8531 35.7255C73.4689 35.534 73.0846 35.3424 72.7484 35.1509C71.9319 34.7679 71.1154 34.3848 70.5391 34.0017C70.7792 33.906 71.0193 33.7623 71.3075 33.6665ZM117.656 9.29424C114.198 9.62942 109.731 9.34213 106.417 9.29424C106.417 9.24636 106.321 9.19848 106.273 9.29424C104.496 9.24636 102.671 9.43789 100.942 9.29424C101.086 9.24636 96.7152 9.43789 94.5539 9.29424C92.8248 9.58154 90.7115 9.29424 88.8384 9.29424C88.8384 9.24636 88.8384 9.34213 88.8384 9.29424C79.6647 8.71965 70.443 9.86884 61.2693 9.29424C58.0994 9.29424 54.9294 9.34213 51.7594 9.29424C51.4713 9.24636 50.4626 9.29424 49.7422 9.29424V15.5669C49.7902 15.5669 49.7902 15.4711 49.8383 15.5669C50.5587 15.4232 51.3752 15.2796 52.1917 15.3275C52.4319 15.3275 52.624 15.3275 52.8641 15.3753C53.2484 15.3753 53.6326 15.3753 54.0168 15.4232C54.7853 15.4232 55.4577 15.4711 56.1301 15.4711C56.0821 15.519 56.1301 15.5669 56.2262 15.4711C56.8986 15.4711 57.6671 15.4711 58.3875 15.4232C59.108 15.4232 59.8765 15.4232 60.4528 15.4711C60.3568 15.4711 61.2693 15.4711 62.374 15.4232C63.4787 15.4232 64.8716 15.3753 65.4959 15.4711C66.0723 15.4232 66.5526 15.3753 67.0329 15.3753C66.6006 15.6626 65.9762 15.9499 65.3999 16.2851C64.8235 16.6203 64.1991 16.9076 63.7669 17.1949C63.6228 17.2428 63.911 17.147 63.7669 17.1949C62.0858 18.0568 60.693 18.8708 59.3481 19.6369C58.0033 20.4509 56.7065 21.217 55.3617 22.0789L54.8333 22.4141L54.5932 22.5577L54.4491 22.6535L53.9208 22.9887L53.6806 23.1802L53.1523 23.5154L52.0956 24.1858C51.3272 24.6646 50.5107 24.904 49.7422 25.3828V32.8525C49.8863 32.7568 50.1264 32.661 50.2705 32.6131C51.8075 31.7034 53.8727 30.5542 56.1782 29.2134C58.4836 27.8248 61.0292 26.2926 62.8543 25.335C65.8802 23.1802 69.9147 21.1692 73.3248 19.1102C73.3248 19.0623 73.3728 19.1581 73.3728 19.1102C73.757 18.8708 74.1893 18.6792 74.5735 18.4398C76.3506 16.8597 78.6561 15.9499 80.8654 14.8486L83.7952 13.1249L85.1401 13.9389C85.7645 14.2262 86.3408 14.6092 86.9652 14.9923L88.7903 16.0936L90.8556 17.2906C93.3051 18.5835 95.8027 20.02 98.1561 21.5043L100.606 22.9408L108.483 27.4897L112.421 29.788L117.8 32.9962V25.5265C117.752 25.5265 117.656 25.5265 117.608 25.4786C117.464 25.4307 117.272 25.335 117.08 24.9998C116.119 24.4252 115.111 23.8985 114.054 23.3239L113.574 23.0366C113.43 22.9408 113.285 22.8929 113.189 22.7972C112.997 22.7014 112.853 22.5578 112.661 22.462C112.421 22.3183 112.181 22.1268 111.941 21.9832C111.941 21.9832 111.701 21.8874 111.364 21.648C111.028 21.4564 110.548 21.1692 110.116 20.9297C109.683 20.6424 109.203 20.403 108.867 20.1636C108.723 20.0678 108.579 19.9721 108.483 19.9242C108.386 19.8763 108.338 19.8284 108.338 19.8284C107.522 19.5411 106.85 19.206 106.321 18.8708C105.793 18.5356 105.457 18.2483 105.12 17.961C104.256 17.5779 103.247 17.0034 102.575 16.5724C101.902 16.1415 101.47 15.8542 101.518 15.8542C101.47 15.8542 101.422 15.8063 101.374 15.8063C101.422 15.7584 101.374 15.6148 101.614 15.6148C101.854 15.5669 102.287 15.6148 103.247 15.8542C102.719 15.6148 102.815 15.5669 103.151 15.6148C103.487 15.6626 104.064 15.7584 104.496 15.8542C104.304 15.8063 104.352 15.6626 105.072 15.8542C105.361 15.7584 105.697 15.6626 106.225 15.6148C106.753 15.5669 107.474 15.6148 108.338 15.8542C108.915 15.6148 110.116 15.6626 111.172 15.7584C112.277 15.8542 113.285 15.9499 114.198 15.8542C114.198 15.9499 114.678 15.8542 114.822 15.8542C114.967 15.8063 115.063 15.519 115.159 15.8542C115.207 15.8063 115.255 15.9021 115.303 15.8542C115.351 15.9021 115.351 15.8542 115.399 15.8542C115.495 15.8542 115.783 15.7584 115.735 15.8542C115.735 15.9021 115.783 15.8063 115.783 15.8542C116.407 15.1838 117.08 15.9499 117.704 15.8542V9.58153C117.752 9.29423 117.704 9.39001 117.656 9.29424ZM49.7902 0.100754V4.88903C50.6548 4.64961 51.6154 5.12844 52.5279 4.88903C54.4971 4.64961 56.6104 4.60173 58.5796 4.88903C59.204 4.4102 60.0205 5.17632 60.741 4.88903C60.9811 4.84114 61.1252 4.88903 61.3654 4.88903C61.8457 4.45808 62.2779 4.93691 62.8063 4.88903C64.1031 4.74538 65.4479 4.64961 66.6967 4.88903C67.1289 4.84114 67.8014 4.45808 68.1376 4.88903C71.1154 4.84114 74.2373 4.60173 77.2632 4.88903C77.2632 4.79326 82.6906 4.84114 82.7866 4.88903C84.3716 4.45808 86.1007 4.6975 87.6376 4.88903C89.4147 4.60173 93.017 4.84114 93.065 4.88903C93.8335 4.74538 94.8901 4.31443 95.5625 4.88903C96.0428 4.31443 96.6672 4.6975 97.1955 4.88903C97.1955 4.79326 97.7239 4.64961 97.916 4.88903C99.3088 4.64961 100.798 4.36232 102.191 4.88903C104.784 4.31443 107.378 5.12844 109.923 4.88903C109.923 4.98479 110.548 4.93691 110.788 4.88903C111.076 4.84114 111.412 4.45808 111.652 4.88903C111.749 4.79326 111.893 4.98479 111.989 4.88903C112.133 4.93691 112.085 4.84114 112.277 4.88903C112.469 4.93691 113.141 4.79326 113.141 4.88903C113.189 4.93691 113.189 4.79326 113.237 4.88903C114.726 4.02714 116.359 5.03267 117.944 4.88903V0.100754H49.7902ZM117.656 63.306C114.198 63.6411 109.731 63.3538 106.417 63.306C106.417 63.2581 106.321 63.2102 106.273 63.306C104.496 63.2581 102.671 63.4496 100.942 63.306C101.086 63.2581 96.7152 63.4496 94.5539 63.306C92.8248 63.5933 90.7115 63.306 88.8384 63.306C88.8384 63.2581 88.8384 63.3538 88.8384 63.306C79.6647 62.7314 70.443 63.8805 61.2693 63.306C58.0994 63.306 54.9294 63.3538 51.7594 63.306C51.4713 63.2581 50.4626 63.306 49.7422 63.306V67.9506H117.8V63.306C117.752 63.306 117.704 63.4017 117.656 63.306ZM112.565 38.3591L111.316 39.0773C109.635 40.0349 107.906 40.9926 106.177 41.9503C100.317 45.3978 94.5539 48.8933 88.6462 52.3408C88.0699 52.5802 86.2928 53.7773 84.948 54.5434C84.5637 54.7828 84.1795 55.0222 83.7952 55.2617C83.2189 54.9265 82.6906 54.6392 82.1142 54.304C81.6819 54.0646 81.2977 53.8252 80.8654 53.5858C75.4861 50.617 69.3383 46.7864 64.1511 43.6261C63.2385 43.1952 62.2779 42.7164 61.7016 42.1418C61.7016 42.1418 61.6536 42.0939 61.6055 42.0939C61.6055 42.0939 61.6055 42.0939 61.6055 42.046C61.5575 41.9981 61.5575 41.9981 61.5095 41.9503C61.4614 41.9024 61.4134 41.9024 61.3654 41.9024C61.1733 41.8066 61.0292 41.7108 60.8371 41.5672C60.2127 41.4235 59.5883 40.9926 59.0599 40.5138C58.1954 39.9871 57.2828 39.5082 56.4183 38.9815C55.986 38.7421 55.6018 38.5027 55.1696 38.2633C54.4491 37.8323 53.7287 37.4014 53.0082 36.9705C52.8641 36.8747 52.72 36.8268 52.624 36.731C51.6634 36.2043 50.7508 35.7255 49.7902 35.1988V42.4291C49.8382 42.4291 49.9343 42.4291 49.9823 42.477C50.1264 42.5248 50.3185 42.6206 50.5107 42.9558C51.4713 43.5304 52.4799 44.2965 53.5365 44.8711L54.0168 45.1584C54.1609 45.2542 54.305 45.3021 54.4011 45.3978C54.5932 45.4936 54.7373 45.6372 54.9294 45.733C55.1696 45.8766 55.4097 46.0682 55.6498 46.2118C55.6498 46.2118 55.89 46.3076 56.2262 46.547C56.5624 46.7385 57.0427 47.0258 57.475 47.2652C57.9072 47.5525 58.3875 47.792 58.7237 48.0314C58.8678 48.1271 59.0119 48.2229 59.108 48.2708C59.204 48.3187 59.2521 48.3665 59.2521 48.3665C60.0686 48.6538 60.741 48.989 61.2693 49.3242C61.7976 49.6594 62.1339 49.9467 62.4701 50.234C63.3346 50.617 64.3432 51.1916 65.0156 51.6226C65.6881 52.0535 66.1203 52.3408 66.0723 52.3408C66.1203 52.3408 66.1684 52.3887 66.2164 52.3887C66.1684 52.4366 66.2164 52.5802 65.9762 52.5802C65.7361 52.6281 65.3038 52.5802 64.3432 52.3408C64.8715 52.5802 64.7755 52.6281 64.4393 52.5802C64.1031 52.5323 63.5267 52.4366 63.0945 52.3408C63.2866 52.3887 63.2385 52.5323 62.5181 52.3408C62.2299 52.4366 61.8937 52.5323 61.3654 52.5802C60.8371 52.6281 60.1166 52.5802 59.2521 52.3408C58.6757 52.5802 57.475 52.5323 56.4183 52.4366C55.3136 52.3408 54.305 52.245 53.3924 52.3408C53.3924 52.245 52.9122 52.3408 52.7681 52.3408C52.624 52.3887 52.5279 52.676 52.4319 52.3408C52.3838 52.3887 52.3358 52.2929 52.2878 52.3408C52.2397 52.2929 52.2397 52.3408 52.1917 52.3408C52.0956 52.3408 51.8075 52.4366 51.8555 52.3408C51.8555 52.2929 51.8075 52.3887 51.8075 52.3408C51.1831 53.0112 50.5107 52.3887 49.8863 52.4845V58.805C50.7508 58.5656 51.7114 59.0444 52.624 58.805C54.5932 58.5656 56.7065 58.5177 58.6757 58.805C59.3001 58.3262 60.1166 59.0923 60.8371 58.805C61.0772 58.7571 61.2213 58.805 61.4614 58.805C61.9417 58.374 62.374 58.8529 62.9023 58.805C64.1991 58.6613 65.544 58.5656 66.7927 58.805C67.225 58.7571 67.8974 58.374 68.2336 58.805C71.2115 58.7571 74.3334 58.5177 77.3593 58.805C77.3593 58.7092 82.7866 58.7571 82.8827 58.805C84.4677 58.374 86.1967 58.6134 87.7337 58.805C89.5108 58.5177 93.113 58.7571 93.161 58.805C93.9295 58.6613 94.9862 58.2304 95.6586 58.805C96.1389 58.2304 96.7633 58.6134 97.2916 58.805C97.2916 58.7092 97.8199 58.5656 98.012 58.805C99.4049 58.5656 100.894 58.2783 102.287 58.805C104.88 58.2304 107.474 59.0444 110.019 58.805C110.019 58.9007 110.644 58.8529 110.884 58.805C111.172 58.7571 111.508 58.374 111.749 58.805C111.845 58.7092 111.989 58.9007 112.085 58.805C112.229 58.8529 112.181 58.7571 112.373 58.805C112.565 58.8529 113.237 58.7092 113.237 58.805C113.285 58.8529 113.285 58.7092 113.334 58.805C114.822 57.9431 116.455 58.9486 118.04 58.805V52.4845C117.992 52.4845 117.992 52.5802 117.944 52.4845C117.224 52.6281 116.407 52.6281 115.591 52.5802C115.351 52.5802 115.159 52.5802 114.918 52.5323C114.534 52.5323 114.15 52.5323 113.766 52.4845C112.997 52.4845 112.325 52.4366 111.652 52.4366C111.7 52.3887 111.652 52.3408 111.556 52.4366C110.884 52.4366 110.116 52.4366 109.395 52.4845C108.675 52.4845 107.906 52.4845 107.33 52.4366C107.426 52.4366 106.513 52.4366 105.409 52.4845C104.304 52.4845 102.911 52.5323 102.287 52.4366C101.71 52.4845 101.23 52.5323 100.75 52.5323C101.182 52.245 101.806 51.9577 102.383 51.6226C102.959 51.2874 103.583 51.0001 104.016 50.7128C103.872 50.7607 104.16 50.6649 104.016 50.7128C105.697 49.8509 107.09 49.0369 108.434 48.2708C109.779 47.4568 111.076 46.6906 112.421 45.8288L112.949 45.4936L113.189 45.3499L113.334 45.2542L113.862 44.919L114.102 44.7275L114.63 44.3923L115.687 43.7219C116.455 43.2431 117.272 42.7643 118.04 42.2854V35.0551L115.063 36.8268L112.565 38.3591Z" fill="#BE008D"/>
<path fill-rule="evenodd" clip-rule="evenodd" d="M7.68648 49.2285C7.39831 48.8454 7.25422 48.5102 6.96604 48.1272C6.77392 47.9835 6.62983 47.8399 6.48574 47.6483C4.94879 50.0425 3.36381 52.4366 1.73079 54.7829C2.59533 56.1236 3.45987 57.4643 4.3244 58.7571C6.00544 58.7092 7.63845 58.7093 9.31949 58.8529C9.31949 58.805 12.1052 58.805 13.7382 58.805C12.4895 56.9376 11.3367 55.0223 10.2801 53.107C9.12737 52.2451 8.79117 50.3777 7.68648 49.2285ZM25.1693 58.9487C25.9378 58.805 26.9944 58.3741 27.6188 58.9487C28.0511 58.2783 28.5314 57.6558 29.0117 57.0333C29.1077 56.1715 30.0203 55.6448 30.4526 54.8786C30.3565 54.6871 30.3085 54.4956 30.1644 54.3519C29.0117 52.9154 27.955 51.3353 27.1865 49.7552C26.8023 49.2285 25.9858 48.7018 26.0819 48.0314C25.9378 47.8399 25.7937 47.6483 25.6976 47.4568C25.5055 47.7441 25.3134 47.9835 25.1693 48.2708C22.8639 51.8141 20.6065 55.3096 18.3491 58.8529C18.8294 58.9008 19.2616 58.9487 19.7419 58.9965C21.519 58.6614 25.1213 58.9008 25.1693 58.9487ZM15.9956 9.58156C15.8996 9.67732 15.8515 9.82098 15.7555 9.91674L14.4587 11.9757L11.1446 17.1949L4.61258 27.6334C3.70001 29.0698 2.78745 30.5063 1.92292 31.8949C3.45987 34.289 4.99681 36.6353 6.53377 39.0294C7.44633 37.593 8.3589 36.2044 9.36752 34.8636C9.36752 34.8636 9.41555 34.7679 9.51161 34.5763C9.60767 34.3848 9.79979 34.1454 9.99191 33.8102C10.3761 33.1877 10.9045 32.3738 11.4328 31.5597C12.1052 30.5063 12.8257 29.4529 13.354 28.6389C14.1225 27.4897 14.6508 26.7236 14.6508 26.6757C15.0831 25.8617 15.5153 25.0956 15.9956 24.2816V24.5689L19.6939 30.2669L21.9033 33.5708L25.6496 39.0773C26.322 38.0239 27.0425 37.0184 27.7629 36.1086C28.2432 35.2946 28.7235 33.8581 29.492 33.4751C29.8282 32.9483 30.1644 32.4695 30.4526 31.9428C27.6188 27.7291 24.737 23.4197 22.1434 19.0145C22.1434 19.0145 22.0954 18.9666 22.0474 18.9187C21.9993 18.8229 21.9033 18.7272 21.8072 18.5835C21.6151 18.2962 21.375 17.9132 21.0387 17.4343C20.4144 16.4767 19.5978 15.2317 18.7813 13.9868C17.9648 12.7418 17.1483 11.449 16.5239 10.4913C16.4279 10.3477 16.3799 10.2519 16.2838 10.1562C16.2358 10.1083 16.2358 10.0604 16.1877 10.0125V9.96463C16.1877 9.91675 16.1397 9.91674 16.1397 9.86886C16.1397 9.82097 16.0917 9.7731 16.0917 9.7731C16.0917 9.82098 16.0437 9.53367 15.9956 9.58156ZM-0.910839 36.2522C-2.44779 38.5985 -3.98474 40.9926 -5.52169 43.291C-3.93671 45.6851 -2.39976 48.0793 -0.910839 50.4734C-0.286453 49.3721 0.433998 48.3187 1.20247 47.4089C1.49065 46.8822 1.68277 45.8767 2.30716 45.6851C2.78745 44.919 3.26775 44.1529 3.74805 43.3389C2.59534 41.7109 1.53868 40.035 0.626118 38.3112C0.24188 37.7366 -0.574631 36.9705 -0.910839 36.2522ZM33.1422 36.2522C31.6053 38.5985 30.0683 40.9926 28.5314 43.291C30.1164 45.6851 31.6533 48.0793 33.1422 50.4734C33.7666 49.3721 34.4871 48.3187 35.2555 47.4089C35.5437 46.8822 35.7358 45.8767 36.3602 45.6851C36.8405 44.919 37.3208 44.1529 37.8011 43.3389C36.6484 41.7109 35.5917 40.035 34.6792 38.3112C34.2469 37.7366 33.4304 36.9705 33.1422 36.2522ZM18.157 50.9044C18.5412 49.4679 20.1262 48.4145 20.7025 46.978C20.8946 46.547 21.1828 46.2597 21.423 45.8767C21.6151 44.8711 22.4316 44.2965 23.008 43.4347C21.6151 41.3757 20.2703 39.3167 19.0695 37.162C19.0695 37.162 18.9735 37.0662 18.8774 36.8747C18.7813 36.6832 18.5892 36.4438 18.3971 36.1565C18.0129 35.534 17.4845 34.72 16.9562 33.906C16.7161 33.475 16.4279 33.092 16.1877 32.7089C16.1397 32.6132 16.0917 32.5174 16.0437 32.4695L15.9476 32.6132L13.8343 36.0128L9.6557 42.8122C9.51161 43.0037 9.41555 43.1952 9.27147 43.3868C9.75176 44.1529 10.2321 44.9669 10.7124 45.733C12.4895 48.4623 14.2666 51.1917 16.0437 53.921V54.0167C16.7161 52.9154 17.4365 51.9099 18.157 50.9044ZM-8.30741 47.4089C-8.49953 47.6962 -8.69165 47.9356 -8.83574 48.2229C-11.1892 51.8141 -13.4946 55.4053 -15.8 58.9965C-15.6079 58.9965 -15.4638 58.9965 -15.2717 58.9487C-13.3025 58.7092 -11.1892 58.6614 -9.21997 58.9487C-8.59559 58.4698 -7.77908 59.236 -7.05864 58.9487C-6.81849 58.9008 -6.6744 58.9487 -6.43426 58.9487C-6.38623 58.9008 -6.29016 58.8529 -6.24213 58.805C-5.80986 58.1825 -5.3776 57.6079 -4.8973 57.0333C-4.80124 56.1715 -3.88867 55.6448 -3.45641 54.8786C-3.55247 54.6871 -3.6005 54.4956 -3.74459 54.3519C-4.8973 52.9154 -5.95395 51.3353 -6.72243 49.7552C-7.10667 49.2285 -7.92317 48.7018 -7.82711 48.0314C-8.06726 47.792 -8.21135 47.6004 -8.30741 47.4089ZM38.3775 58.805C39.6262 58.9008 40.827 59.0444 42.0277 58.9487C42.0277 59.0444 42.6521 58.9965 42.8923 58.9487C43.1804 58.9008 43.5166 58.5177 43.7568 58.9487C43.8528 58.8529 43.9969 59.0444 44.093 58.9487C44.2371 58.9965 44.1891 58.9008 44.3812 58.9487C44.5733 58.9965 45.2457 58.8529 45.2457 58.9487C45.2937 58.9965 45.2938 58.8529 45.3418 58.9487C46.0622 58.5177 46.8307 58.5656 47.6472 58.6614C46.4945 56.8418 45.3418 55.0223 44.3332 53.2027C43.1804 52.2451 42.8442 50.3777 41.7876 49.2764C41.4994 48.8933 41.3553 48.5581 41.0671 48.175C40.875 48.0314 40.7309 47.8877 40.5868 47.6962C39.0499 50.0904 37.4649 52.4845 35.8319 54.8307C36.6484 56.1715 37.5129 57.4643 38.3775 58.805ZM-12.1018 33.6187L-8.35544 39.1252C-7.68303 38.0718 -6.96258 37.0662 -6.24213 36.1565C-5.76184 35.3425 -5.28154 33.906 -4.51307 33.5229C-4.17686 32.9962 -3.84065 32.5174 -3.55247 31.9907C-6.38623 27.777 -9.268 23.4676 -11.8616 19.0623C-11.8616 19.0623 -11.9096 19.0145 -11.9577 18.9666C-12.0057 18.8708 -12.1018 18.7751 -12.1978 18.6314C-12.3899 18.3441 -12.6301 17.961 -12.9663 17.4822C-13.5907 16.5246 -14.4072 15.2796 -15.2237 14.0347C-16.0402 12.7897 -16.8567 11.4969 -17.4811 10.5392C-17.5771 10.3956 -17.6252 10.2998 -17.7212 10.204C-17.7693 10.1562 -17.7693 10.1083 -17.8173 10.0604V10.0125C-17.8173 9.96463 -17.8653 9.96462 -17.8653 9.91674C-17.8653 9.86886 -17.9134 9.82097 -17.9134 9.82097C-18.0094 9.82097 -18.0574 9.53367 -18.1055 9.58156V9.91674V24.3294L-14.4072 30.3148L-12.1018 33.6187ZM-13.3025 46.978C-13.1104 46.547 -12.8222 46.2597 -12.5821 45.8767C-12.3899 44.8711 -11.5734 44.2965 -10.9971 43.4347C-12.3899 41.3757 -13.7348 39.3167 -14.9355 37.162C-14.9355 37.162 -15.0316 37.0662 -15.1276 36.8747C-15.2237 36.6832 -15.4158 36.4438 -15.6079 36.1565C-15.9922 35.534 -16.5205 34.72 -17.0488 33.906C-17.289 33.475 -17.5771 33.092 -17.8173 32.7089C-17.8653 32.6132 -17.9134 32.5174 -17.9614 32.4216V53.8731C-17.2409 52.8197 -16.5205 51.862 -15.8 50.8565C-15.4638 49.4679 -13.9269 48.4145 -13.3025 46.978ZM49.8085 9.91674L48.5117 11.9757L45.1977 17.1949L38.6656 27.6334C37.7531 29.0698 36.8405 30.5063 35.976 31.8949C37.5129 34.289 39.0499 36.6353 40.5868 39.0294C41.4994 37.593 42.412 36.2044 43.4206 34.8636C43.4206 34.8636 43.4686 34.7679 43.5647 34.5763C43.6607 34.3848 43.8529 34.1454 44.045 33.8102C44.4292 33.1877 44.9575 32.3738 45.4859 31.5597C46.1583 30.5063 46.8787 29.4529 47.4071 28.6389C48.1755 27.4897 48.7039 26.7236 48.7039 26.6757C49.1361 25.8617 49.5684 25.0956 50.0487 24.2816V9.53369C49.9526 9.67733 49.8566 9.77309 49.8085 9.91674ZM49.8085 63.306C46.3504 63.6412 41.8836 63.3539 38.5696 63.306C38.5696 63.2581 38.4735 63.2102 38.4255 63.306C36.6484 63.2581 34.8233 63.4496 33.0942 63.306C33.2383 63.2581 28.8676 63.4496 26.7062 63.306C24.9772 63.5933 22.8639 63.306 20.9907 63.306C20.9907 63.2581 20.9907 63.3539 20.9907 63.306C11.817 62.7314 2.59534 63.8806 -6.57834 63.306C-9.7483 63.306 -12.9183 63.3539 -16.0882 63.306C-16.3764 63.2581 -17.385 63.306 -18.1055 63.306V67.9506H49.9526V63.306C49.9526 63.306 49.8566 63.4018 49.8085 63.306ZM-18.0574 0.100782V1.39362L-12.9183 9.62944L-9.50815 14.7529L-2.68794 24.9998C-2.11158 25.8617 -1.53522 26.7715 -0.910839 27.6334C1.39459 23.9464 3.74804 20.2115 6.29362 16.7161C6.29362 16.7161 6.29362 16.6682 6.34165 16.5724C6.38968 16.4767 6.43771 16.3809 6.53377 16.2373C6.72589 15.95 6.96603 15.5669 7.25421 15.0881C7.8786 14.1304 8.69511 12.8855 9.46358 11.6405C10.2801 10.3956 11.0966 9.10273 11.721 8.14507C12.2013 7.42683 12.5855 6.85225 12.8737 6.42131C13.2099 5.8946 13.45 5.55941 13.45 5.55941C14.2185 4.21869 15.035 2.78222 15.9476 1.34574L21.0868 9.58156L24.4969 14.705L31.3171 24.9519C31.8935 25.8138 32.4698 26.7236 33.0942 27.5855C35.3996 23.8985 37.7531 20.1637 40.2987 16.6682C40.2987 16.6682 40.2986 16.6203 40.3467 16.5246C40.3947 16.4288 40.4427 16.333 40.5388 16.1894C40.7309 15.9021 40.9711 15.519 41.2593 15.0402C41.8836 14.0825 42.7001 12.8376 43.4686 11.5926C44.2851 10.3477 45.1016 9.05486 45.726 8.0972C46.2063 7.37896 46.5905 6.80437 46.8787 6.37342C47.2149 5.84671 47.4551 5.51152 47.4551 5.51152C48.2236 4.17081 49.0401 2.73433 49.9526 1.29785V0.0050106H-18.0574V0.100782ZM47.8393 36.0128L43.6607 42.8122C43.5167 43.0037 43.4206 43.1952 43.2765 43.3868C43.7568 44.1529 44.2371 44.9669 44.7174 45.733C46.4945 48.4623 48.2716 51.1917 50.0487 53.921V32.4695L49.9526 32.6132L47.8393 36.0128Z" fill="#FF4664"/>
</g>
</svg>
