<svg width="64" height="64" viewBox="0 0 64 64" fill="none" xmlns="http://www.w3.org/2000/svg">
<path fill-rule="evenodd" clip-rule="evenodd" d="M58.96 32.727C58.524 32.652 58.225 32.14 57.811 32.034C57.725 32.012 57.719 32.218 57.657 32.227C57.057 32.316 56.557 31.814 55.957 32.098C55.938 32.071 55.957 31.96 55.938 31.934C55.979 31.962 56.022 31.982 56.063 32.014C56.113 32.007 56.163 31.998 56.213 31.996C56.1813 31.8945 56.1731 31.7871 56.189 31.682C56.2323 31.7299 56.273 31.7799 56.311 31.832C56.3247 31.8812 56.3268 31.9329 56.317 31.983L56.3 32C56.3571 31.9997 56.4142 32.0023 56.471 32.008L56.671 31.926C56.6675 31.9109 56.6675 31.8951 56.671 31.88C56.676 31.867 56.701 31.887 56.727 31.903L56.807 31.87C56.833 31.7691 56.8461 31.6652 56.846 31.561C56.846 31.541 56.893 31.492 56.904 31.515C56.9332 31.5942 56.9552 31.6759 56.97 31.759V31.8C57.598 31.5083 58.2485 31.2675 58.915 31.08C58.893 30.473 58.874 29.87 58.875 29.28C58.875 29.098 58.868 28.936 58.856 28.78L58.815 28.18C58.697 27.734 58.658 27.628 58.599 27.32C58.4892 26.712 58.4134 26.0984 58.372 25.482L58.184 24.967L58.09 24.711L58.043 24.584L57.976 24.368L57.891 24.182L57.834 24.071L57.723 23.859C57.6595 23.3321 57.5284 22.8155 57.333 22.322C57.2368 22.073 57.1273 21.8293 57.005 21.592L56.815 21.241C56.741 21.104 56.701 21.067 56.585 20.834L56.571 20.783C56.464 20.543 56.438 20.454 56.389 20.322L56.252 19.945L55.478 19.179C55.5113 19.0987 55.525 19.0116 55.518 18.925C55.588 18.913 55.568 18.914 55.652 18.967C55.675 18.981 55.715 18.934 55.728 18.923C55.616 18.723 55.441 18.479 55.259 18.223L54.985 17.846L54.857 17.665L54.688 17.397C54.499 17.18 54.428 17.097 54.37 17.019C54.103 16.643 54.313 16.687 54.137 16.39L53.491 15.92C53.419 15.755 53.468 15.65 53.372 15.476C53.2519 15.2687 53.109 15.0756 52.946 14.9L52.695 14.628L52.568 14.494L52.368 14.262L52.239 14.157C51.75 13.769 51.628 13.344 51.12 13.133C50.879 12.808 50.72 12.811 50.635 13.028C50.627 13.05 50.535 13 50.544 12.986C50.5877 12.8786 50.6686 12.7905 50.772 12.738C50.172 12.251 49.572 11.707 48.943 11.269C48.734 11.115 48.703 10.953 48.491 10.826C48.391 10.768 48.271 10.765 48.168 10.715C47.9916 10.4592 47.7821 10.2279 47.545 10.027C47.418 9.91401 47.281 9.80201 47.145 9.69401L46.611 9.29401C46.302 9.14101 46.191 9.09401 46.048 9.03901L45.648 8.88001C44.8581 8.28595 44.0129 7.76923 43.124 7.33701C42.186 6.92001 41.219 6.55501 40.345 6.24501L40.11 6.10001L39.7 5.86001C39.493 5.80201 39.216 5.73301 39.139 5.69801C38.598 5.62701 38.058 5.52801 37.519 5.42801L36.711 5.28201L35.766 5.13101L35.422 5.14201L35.222 5.15501L34.822 5.19101C34.555 5.22001 34.291 5.25801 34.03 5.31101C33.7635 5.30735 33.4994 5.26041 33.248 5.17201C32.43 5.10901 31.609 5.08001 30.793 5.07201L29.573 5.10001L28.173 5.15801L27.785 5.27001L27.563 5.34201L27.149 5.48201C26.686 5.55701 26.228 5.63101 25.779 5.72801C25.554 5.77701 25.332 5.82801 25.112 5.89301L24.785 5.99301L24.357 6.13401L24.13 6.24701L24 6.31801L23.752 6.47901C23.1747 6.52769 22.6103 6.67658 22.084 6.91901L22.133 7.10101C21.6356 7.1942 21.1466 7.32798 20.671 7.50101C20.1912 7.70093 19.7237 7.92933 19.271 8.18501C19.0417 8.31154 18.8422 8.4858 18.686 8.69601L18.28 8.62401L17.88 8.82901L17.35 9.08301C16.06 9.98301 15.326 10.344 14.099 11.314L13.858 11.58L13.725 11.744L13.471 12.082C13.4331 12.1106 13.3899 12.1312 13.3438 12.1427C13.2978 12.1542 13.2499 12.1564 13.203 12.149C12.976 12.401 12.654 12.594 12.453 12.859C12.252 13.124 12.224 13.38 11.985 13.635C11.901 13.725 11.817 13.804 11.734 13.877L11.416 14.149C11.3282 14.2514 11.234 14.3483 11.134 14.439L10.91 14.656C10.7431 14.8231 10.5902 15.0037 10.453 15.196L9.79703 16.132C9.67803 16.295 9.55503 16.457 9.42603 16.612L8.95103 17.153C8.86523 17.2964 8.76468 17.4305 8.65103 17.553L6.95103 20.617C6.73103 21.455 6.51303 22.288 6.29403 23.117C6.17703 23.573 5.89403 23.962 5.77403 24.392C5.41603 25.663 5.10003 26.784 4.74603 28.042C4.74603 28.47 4.73603 28.958 4.73103 29.47C4.73103 30.233 4.63603 31.145 4.60103 32.056C4.59005 32.9184 4.69089 33.7786 4.90103 34.615C4.88521 34.7466 4.82019 34.8674 4.71903 34.953L4.76703 35.328L4.78803 35.521L4.81203 35.875C5.21803 37.393 5.35903 38.286 5.62403 39.692L5.64203 39.786C5.72348 39.9677 5.79036 40.1557 5.84203 40.348C5.87103 40.457 5.89903 40.563 5.95903 40.729C6.37603 41.48 6.63803 42.34 7.07203 43.088C7.15203 43.377 7.26303 43.652 7.36103 43.933C7.64467 44.3668 7.9031 44.8165 8.13503 45.28C8.25103 45.509 8.36003 45.741 8.46503 45.98C8.59103 46.266 8.71803 46.557 8.84903 46.855C9.14303 47.262 9.16903 47.324 9.30303 47.533L9.48603 47.466C9.72979 47.8972 10.0148 48.3038 10.337 48.68L10.821 49.254L11.06 49.537L11.342 49.888L11.527 50.088C11.9 50.493 12.093 50.857 12.434 51.257L13.156 51.948L13.956 52.748C15.201 53.696 15.802 54.175 17.089 55.207L18.716 56.051C19.0156 56.2001 19.3227 56.3336 19.636 56.451L20.121 56.643C20.289 56.712 20.383 56.749 20.71 56.909C20.9142 56.9625 21.1146 57.0293 21.31 57.109C21.7663 57.2695 22.2344 57.3942 22.71 57.482C22.968 57.562 23.193 57.782 23.491 57.882C24.1646 58.0727 24.8496 58.22 25.542 58.323C26.224 58.457 26.984 58.978 27.648 58.93C27.764 59.038 27.71 59.084 28.068 59.19H28.138L29.06 59.216H29.826C30.339 59.208 30.855 59.186 31.344 59.15C31.443 59.1638 31.5409 59.1845 31.637 59.212C31.6895 59.2274 31.743 59.2394 31.797 59.248L32.084 59.278L32.152 59.27L32.776 59.186L33.276 59.097L34.269 58.897C34.9558 58.991 35.6539 58.9633 36.331 58.815L37.873 58.581L39.645 58.29L40.83 57.811C41.2363 57.6509 41.6525 57.5173 42.076 57.411L42.67 57.238L42.97 57.138L43.411 56.961L43.674 56.796C43.845 56.675 43.947 56.485 44.101 56.396C44.535 56.143 44.975 56.128 45.388 55.848L46.027 55.433L46.77 54.989L48.027 54.079L49.202 53.242C49.408 53.092 49.395 52.961 49.544 52.806C49.6279 52.7268 49.7179 52.6542 49.813 52.589L50 52.405C50.0367 52.3738 50.0751 52.3448 50.115 52.318L50.341 52.174C50.499 52.0852 50.6457 51.9778 50.778 51.854C51.084 51.5493 51.382 51.2387 51.672 50.922L52.619 49.878L52.836 49.563L52.978 49.346L53.261 48.912L54.327 47.841L54.635 47.388L55.075 46.767C55.527 45.718 55.987 44.651 56.445 43.59C56.865 42.582 57.197 41.545 57.535 40.565L57.682 40.144L57.868 39.65L58.015 39.113L58.146 38.671L58.422 37.803L58.706 36.946L58.847 36.519L59.031 35.919C59.064 35.47 59.097 35.027 59.131 34.578C59.151 34.187 59.159 33.793 59.149 33.391C59.142 33.107 58.985 32.994 58.96 32.727ZM58.33 30.934C58.304 30.966 58.285 31.034 58.27 31.034C58.2499 30.9728 58.2378 30.9093 58.234 30.845C58.234 30.819 58.216 30.804 58.234 30.791C58.2828 30.7857 58.332 30.7837 58.381 30.785C58.3783 30.8385 58.3606 30.8901 58.33 30.934ZM58.556 30.397C58.556 30.434 58.427 30.441 58.412 30.397C58.3897 30.267 58.3753 30.1358 58.369 30.004C58.369 29.987 58.386 29.948 58.4 29.954C58.414 29.96 58.508 29.965 58.518 30.005C58.5436 30.1351 58.5564 30.2674 58.556 30.4V30.397ZM58.57 28.21C58.556 28.528 58.539 28.683 58.523 28.854L58.476 29.377L58.287 29.33C58.3262 29.1707 58.3523 29.0085 58.365 28.845C58.379 28.683 58.385 28.539 58.387 28.245L58.42 28.227L58.559 28.141L58.57 28.21ZM58.234 27.699C58.2941 27.695 58.3544 27.697 58.414 27.705C58.431 27.711 58.446 27.742 58.424 27.753C58.359 27.7746 58.292 27.7897 58.224 27.798C58.216 27.8 58.217 27.706 58.234 27.7V27.699ZM57.661 27.093C57.67 27.086 57.709 27.157 57.712 27.179C57.7115 27.2305 57.7037 27.2817 57.689 27.331C57.679 27.338 57.613 27.273 57.611 27.251C57.62 27.1962 57.6368 27.143 57.661 27.093ZM57.461 28.262C57.475 28.2848 57.4839 28.3104 57.487 28.337C57.4819 28.3782 57.4819 28.4198 57.487 28.461C57.41 28.426 57.395 28.422 57.376 28.35L57.34 28.273C57.37 28.287 57.427 28.232 57.456 28.262H57.461ZM5.50003 28.969C5.50903 28.962 5.54503 29.056 5.54503 29.078C5.53595 29.1257 5.52012 29.1718 5.49803 29.215C5.48903 29.221 5.44803 29.173 5.44803 29.15C5.45898 29.088 5.47641 29.0274 5.50003 28.969ZM5.33503 31.824C5.37303 31.81 5.40203 31.994 5.38703 32.091C5.37703 32.076 5.30303 32.091 5.30203 32.062C5.30103 32.033 5.30003 31.838 5.33803 31.824H5.33503ZM5.21203 29.476C5.23253 29.5089 5.24709 29.5451 5.25503 29.583C5.21681 29.5807 5.17942 29.5708 5.14503 29.554C5.16101 29.5222 5.18518 29.4953 5.21503 29.476H5.21203ZM5.06203 34.66C5.05965 34.5971 5.06401 34.534 5.07503 34.472C5.10424 34.5397 5.12798 34.6096 5.14603 34.681C5.15003 34.7 5.06903 34.675 5.06503 34.66H5.06203ZM5.35203 32.666C5.26202 32.5247 5.17989 32.3784 5.10603 32.228C5.08203 32.155 5.17503 32.062 5.17403 31.986C5.23503 32.161 5.30703 32.333 5.35903 32.511C5.37703 32.558 5.35003 32.617 5.35503 32.666H5.35203ZM5.42003 34.907C5.39692 34.8906 5.37834 34.8686 5.36603 34.843C5.36307 34.7954 5.36643 34.7477 5.37603 34.701C5.40623 34.7526 5.43167 34.8068 5.45203 34.863C5.45903 34.882 5.43103 34.909 5.42303 34.907H5.42003ZM5.63603 32.631C5.62403 32.648 5.56103 32.712 5.53603 32.704C5.49784 32.6716 5.46916 32.6294 5.45303 32.582C5.44654 32.5151 5.45093 32.4475 5.46603 32.382C5.47803 32.358 5.53903 32.337 5.55803 32.356C5.59058 32.425 5.61637 32.497 5.63503 32.571C5.65103 32.607 5.65003 32.615 5.63903 32.631H5.63603ZM7.11703 21.367C7.12903 21.362 7.18903 21.399 7.19503 21.408C7.20103 21.417 7.18803 21.444 7.17703 21.455C7.15134 21.4792 7.12239 21.4998 7.09103 21.516C7.08103 21.516 7.07803 21.472 7.08103 21.457C7.08659 21.4248 7.09885 21.3942 7.11703 21.367ZM7.09203 27.056C7.10103 27.056 7.15303 27.131 7.14903 27.142C7.11597 27.1636 7.07889 27.1782 7.04003 27.185C7.05098 27.1397 7.0685 27.0962 7.09203 27.056ZM6.83503 28.028C6.86303 27.9336 6.9009 27.8424 6.94803 27.756C6.97203 27.735 7.05503 27.841 7.05903 27.873C7.05745 27.9423 7.04109 28.0105 7.01103 28.073C6.94703 28.161 6.87403 28.207 6.82303 28.293C6.82303 28.3 6.79303 28.305 6.79703 28.274C6.80291 28.1911 6.81562 28.1088 6.83503 28.028ZM6.80003 30.061C6.80003 30.041 6.82303 30.05 6.83003 30.068C6.84803 30.1203 6.86076 30.1742 6.86803 30.229C6.86004 30.2766 6.84415 30.3226 6.82103 30.365C6.81103 30.365 6.77803 30.285 6.77603 30.253C6.7789 30.1885 6.78692 30.1243 6.80003 30.061ZM5.66003 25.792C5.64808 25.7193 5.64606 25.6453 5.65403 25.572C5.67719 25.5124 5.71108 25.4574 5.75403 25.41C5.77594 25.486 5.78606 25.5649 5.78403 25.644C5.7554 25.7027 5.71283 25.7535 5.66003 25.792ZM5.82803 28.936C5.82604 28.9023 5.82976 28.8685 5.83903 28.836C5.84606 28.8187 5.85829 28.804 5.87403 28.794C5.88203 28.794 5.90103 28.779 5.90403 28.808C5.9096 28.8889 5.9096 28.9701 5.90403 29.051C5.89403 29.065 5.83303 28.956 5.82803 28.936ZM5.87503 34.009C5.84803 33.949 5.89403 33.867 5.88103 33.803C5.9745 33.9007 6.03289 34.0266 6.04703 34.161C6.00503 34.106 5.90003 34.068 5.87503 34.009ZM5.86703 26.279C5.84403 26.33 5.78003 26.298 5.74903 26.334C5.80703 26.161 5.84903 25.939 5.91103 25.785C5.93703 25.724 6.01903 25.785 6.05503 25.74C5.99003 25.916 5.93903 26.118 5.86703 26.279ZM6.10003 38.245C6.08749 38.1987 6.08176 38.1509 6.08303 38.103C6.08303 38.09 6.10203 38.09 6.11403 38.103C6.15201 38.149 6.1855 38.1986 6.21403 38.251C6.21903 38.265 6.11603 38.259 6.10003 38.245ZM6.25203 31.245C6.22183 31.2465 6.19197 31.2381 6.16703 31.221C6.15287 31.1872 6.14737 31.1504 6.15103 31.114C6.15103 31.092 6.21603 30.979 6.22603 30.988C6.24328 31.0535 6.25466 31.1205 6.26003 31.188C6.26703 31.215 6.26603 31.236 6.25603 31.241L6.25203 31.245ZM6.44903 30C6.37619 29.9604 6.31113 29.9079 6.25703 29.845C6.24608 29.7795 6.25514 29.7123 6.28303 29.652C6.34032 29.63 6.40374 29.63 6.46103 29.652C6.48187 29.7354 6.49195 29.8211 6.49103 29.907C6.49103 29.944 6.46303 30.012 6.44903 30ZM6.65903 38.077C6.68816 38.0686 6.71931 38.0707 6.74703 38.083C6.7604 38.1291 6.76581 38.1771 6.76303 38.225C6.75503 38.233 6.67903 38.187 6.66903 38.174C6.65783 38.1444 6.65439 38.1124 6.65903 38.081V38.077ZM6.85003 41.6C6.81182 41.5592 6.77828 41.5143 6.75003 41.466C6.72854 41.42 6.71373 41.3712 6.70603 41.321C6.70603 41.298 6.71503 41.2 6.73803 41.221C6.8187 41.3145 6.87413 41.4271 6.89903 41.548C6.90003 41.562 6.86503 41.606 6.85003 41.6ZM7.03703 38.454C7.01203 38.494 6.90203 38.476 6.86103 38.503C6.85996 38.4497 6.87532 38.3973 6.90503 38.353C6.93203 38.311 6.96603 38.226 6.98303 38.209C7.00003 38.192 7.01103 38.187 7.01503 38.209C7.03523 38.288 7.04265 38.3697 7.03703 38.451V38.454ZM7.00803 36.597C7.02507 36.5478 7.04861 36.501 7.07803 36.458C7.07937 36.455 7.08155 36.4525 7.0843 36.4507C7.08705 36.4489 7.09026 36.448 7.09353 36.448C7.0968 36.448 7.10001 36.4489 7.10276 36.4507C7.10551 36.4525 7.10768 36.455 7.10903 36.458C7.12056 36.5047 7.12527 36.5529 7.12303 36.601C7.08502 36.6119 7.04444 36.6094 7.00803 36.594V36.597ZM56.008 29.748C56.0067 29.7831 55.9971 29.8173 55.98 29.848C55.967 29.858 55.901 29.877 55.891 29.848C55.8462 29.736 55.8127 29.6197 55.791 29.501C55.791 29.456 55.884 29.401 55.905 29.401C55.926 29.401 55.986 29.506 55.998 29.546C56.008 29.6118 56.0107 29.6786 56.006 29.745L56.008 29.748ZM56.081 23.854C56.176 23.878 56.266 23.943 56.361 23.974C56.2991 24.1561 56.2201 24.3319 56.125 24.499C56.125 24.511 56.104 24.522 56.096 24.509L55.703 23.826C55.6945 23.8115 55.6887 23.7956 55.686 23.779C55.6886 23.7741 55.6929 23.7704 55.6981 23.7686C55.7033 23.7667 55.709 23.7669 55.714 23.769C55.7987 23.8236 55.8709 23.8955 55.9258 23.98C55.9808 24.0644 56.0173 24.1595 56.033 24.259C56.162 24.151 56.163 24.106 56.079 23.851L56.081 23.854ZM56.191 27.423C56.201 27.448 56.147 27.423 56.136 27.443C56.086 27.522 56.026 27.593 55.936 27.534C55.846 27.475 55.808 27.326 55.759 27.206C55.7535 27.1981 55.7498 27.1891 55.7482 27.1795C55.7467 27.17 55.7473 27.1603 55.75 27.151C55.759 27.118 55.814 27.021 55.831 26.977L55.874 27.288C55.983 27.201 56.042 27.048 56.149 26.956C56.122 27.083 56.113 27.106 56.033 27.144C56.077 27.23 56.156 27.338 56.189 27.42L56.191 27.423ZM56.138 28.133C56.1032 28.1316 56.0691 28.1227 56.038 28.107C56.026 28.099 56.024 28.069 56.024 28.058C56.024 28.047 56.033 28.006 56.043 28.004C56.0684 28.0095 56.0918 28.0216 56.111 28.039C56.1258 28.0672 56.1344 28.0982 56.136 28.13L56.138 28.133ZM55.875 26.057C55.866 26.033 55.866 25.95 55.884 25.957C55.9432 25.985 55.9944 26.0272 56.033 26.08C56.0674 26.1891 56.0945 26.3003 56.114 26.413C56.114 26.432 56.08 26.343 56.063 26.33C55.9748 26.2579 55.9089 26.1622 55.873 26.054L55.875 26.057ZM55.964 26.729C55.964 26.739 55.926 26.794 55.919 26.787C55.903 26.7424 55.8919 26.6961 55.886 26.649C55.886 26.639 55.945 26.673 55.953 26.68C55.9606 26.6941 55.9638 26.7101 55.962 26.726L55.964 26.729ZM55.778 24.458C55.757 24.458 55.721 24.392 55.713 24.378C55.705 24.364 55.682 24.34 55.699 24.329C55.75 24.3007 55.8055 24.2815 55.863 24.272C55.8939 24.3104 55.9118 24.3577 55.914 24.407C55.8729 24.4345 55.8254 24.451 55.776 24.455L55.778 24.458ZM55.827 28.719C55.8371 28.6675 55.8441 28.6154 55.848 28.563C55.8513 28.5523 55.853 28.5412 55.853 28.53V28.519C55.868 28.519 55.933 28.5 55.941 28.507L55.952 28.519C55.98 28.492 56.015 28.79 56.088 28.968C56.056 29.062 56.036 29.191 55.967 29.219C55.8879 29.246 55.8021 29.246 55.723 29.219C55.684 29.202 55.707 29.019 55.679 28.975C55.7567 28.9086 55.8084 28.8168 55.825 28.716L55.827 28.719ZM56.06 31.575C56.0428 31.5287 56.0317 31.4802 56.027 31.431C56.027 31.412 56.074 31.377 56.083 31.38C56.0995 31.4114 56.111 31.4451 56.117 31.48C56.1218 31.4974 56.1218 31.5157 56.117 31.533C56.109 31.535 56.067 31.583 56.058 31.572L56.06 31.575ZM56.192 29.494C56.2085 29.5253 56.2197 29.5591 56.225 29.594L56.231 29.838C56.231 29.865 56.205 29.857 56.202 29.844C56.182 29.749 56.145 29.585 56.134 29.494C56.129 29.468 56.182 29.48 56.19 29.491L56.192 29.494ZM56.21 30.205C56.1826 30.1459 56.1621 30.0838 56.149 30.02C56.149 30.008 56.258 30.049 56.263 30.063C56.2532 30.1116 56.2345 30.1581 56.208 30.2L56.21 30.205ZM56.327 31.045C56.316 31.069 56.271 31.174 56.27 31.145C56.27 31.045 56.282 30.822 56.286 30.692C56.31 30.746 56.401 30.842 56.407 30.892C56.413 30.942 56.336 31.017 56.325 31.042L56.327 31.045ZM56.515 28.79C56.4727 28.7656 56.4339 28.7353 56.4 28.7C56.389 28.687 56.389 28.655 56.4 28.65C56.411 28.645 56.505 28.637 56.515 28.65C56.5242 28.6953 56.5235 28.742 56.513 28.787L56.515 28.79ZM56.439 30.47C56.419 30.4406 56.4085 30.4056 56.409 30.37C56.415 30.352 56.471 30.205 56.493 30.228C56.5423 30.3222 56.5863 30.419 56.625 30.518C56.563 30.655 56.508 30.532 56.437 30.467L56.439 30.47ZM56.767 28.297C56.7603 28.2516 56.7603 28.2054 56.767 28.16C56.8001 28.1579 56.8329 28.167 56.86 28.186C56.854 28.193 56.774 28.3 56.765 28.294L56.767 28.297ZM57.331 31.389C57.313 31.443 57.2852 31.4931 57.249 31.537C57.234 31.547 57.195 31.511 57.188 31.491C57.1805 31.4423 57.1805 31.3927 57.188 31.344C57.194 31.323 57.231 31.288 57.246 31.293C57.261 31.298 57.328 31.36 57.329 31.386L57.331 31.389ZM57.291 30.761C57.2553 30.7481 57.2226 30.728 57.195 30.7018C57.1675 30.6757 57.1457 30.644 57.131 30.609C57.169 30.609 57.25 30.492 57.278 30.517C57.306 30.542 57.273 30.706 57.289 30.758L57.291 30.761ZM57.007 24.719C57.022 24.727 57.085 24.719 57.107 24.762C57.129 24.805 57.139 24.911 57.158 24.962C57.048 24.916 57.037 24.906 56.976 24.728C56.97 24.71 56.99 24.708 57.005 24.716L57.007 24.719ZM57.017 25.208C57.0239 25.2139 57.0288 25.2218 57.031 25.2306C57.0331 25.2394 57.0324 25.2486 57.029 25.257C57.021 25.268 56.939 25.333 56.929 25.326C56.908 25.2834 56.8971 25.2365 56.897 25.189C56.9 25.175 57 25.2 57.015 25.205L57.017 25.208ZM56.949 26.672C56.957 26.699 56.976 26.888 56.977 26.913C56.978 26.938 56.952 26.936 56.949 26.924C56.929 26.844 56.879 26.654 56.871 26.59C56.865 26.562 56.938 26.641 56.947 26.669L56.949 26.672ZM56.71 25.917C56.725 25.965 56.829 25.999 56.827 26.051C56.814 26.164 56.7892 26.2752 56.753 26.383C56.7261 26.4514 56.6856 26.5136 56.634 26.566C56.576 26.647 56.494 26.651 56.463 26.776C56.527 26.798 56.626 26.745 56.682 26.789C56.723 26.821 56.717 26.976 56.748 27.029C56.379 27.066 56.336 26.629 56.17 26.207C56.1614 26.1903 56.1577 26.1715 56.1593 26.1527C56.1609 26.134 56.1677 26.116 56.179 26.101C56.196 26.074 56.326 26.243 56.355 26.194C56.3955 26.061 56.3955 25.919 56.355 25.786C56.4696 25.8844 56.5556 26.0119 56.604 26.155C56.707 26.092 56.709 26.1 56.708 25.914L56.71 25.917ZM56.466 21.131C56.5136 21.1621 56.5581 21.1976 56.599 21.237C56.6064 21.2433 56.6119 21.2514 56.6153 21.2605C56.6186 21.2696 56.6195 21.2794 56.618 21.289C56.6096 21.3316 56.5926 21.3721 56.568 21.408C56.5542 21.4115 56.5396 21.4106 56.5264 21.4054C56.5131 21.4002 56.5018 21.391 56.494 21.379C56.4681 21.3024 56.4487 21.2238 56.436 21.144C56.432 21.114 56.445 21.121 56.464 21.128L56.466 21.131ZM56.359 22.654C56.3651 22.7035 56.3651 22.7535 56.359 22.803C56.3281 22.7664 56.3026 22.7257 56.283 22.682C56.278 22.667 56.351 22.641 56.357 22.651L56.359 22.654ZM56.369 23.037C56.388 23.017 56.396 23.012 56.4 23.025C56.426 23.113 56.395 23.245 56.429 23.341C56.501 23.541 56.465 23.541 56.368 23.641L56.202 23.374C56.232 23.398 56.264 23.418 56.294 23.445C56.2648 23.3491 56.2411 23.2516 56.223 23.153C56.231 23.09 56.348 23.054 56.367 23.034L56.369 23.037ZM55.913 20.437C55.989 20.476 56.076 20.577 56.168 20.577C56.214 20.729 56.221 20.729 56.168 20.842C56.068 20.716 55.941 20.642 55.883 20.561C55.858 20.526 55.887 20.42 55.911 20.433L55.913 20.437ZM55.9 21.869C55.967 21.969 56.084 22.069 56.139 22.169C56.1735 22.2673 56.2025 22.3675 56.226 22.469C56.0811 22.4228 55.9538 22.3335 55.861 22.213L55.9 21.869ZM55.524 22.832C55.5839 22.7022 55.6111 22.5597 55.603 22.417L55.779 22.796L55.572 22.87C55.7693 23.0485 55.9766 23.2154 56.193 23.37C56.087 23.454 56.086 23.456 56.139 23.665C55.8814 23.4826 55.6812 23.2304 55.562 22.938C55.554 22.923 55.535 22.938 55.533 22.948L55.513 23.337L55.156 22.746C55.286 22.7286 55.4179 22.7591 55.527 22.832H55.524ZM54.75 23.887C55.0153 24.0763 55.24 24.3166 55.411 24.594C55.47 24.673 55.454 24.805 55.5 24.894C55.1634 24.6332 54.905 24.2848 54.753 23.887H54.75ZM55.29 26.499C55.2482 26.5001 55.2066 26.4937 55.167 26.48C55.154 26.474 55.15 26.439 55.153 26.432C55.179 26.359 55.205 26.347 55.253 26.359C55.278 26.363 55.3 26.489 55.293 26.5L55.29 26.499ZM55.258 22.199C55.277 22.258 55.35 22.187 55.358 22.231C55.379 22.346 55.363 22.488 55.373 22.61C55.257 22.474 55.093 22.333 54.991 22.196C54.958 22.15 54.904 22.035 54.924 22.009C54.974 21.946 55.131 21.942 55.204 21.897C55.228 21.977 55.241 22.139 55.261 22.2L55.258 22.199ZM54.903 21.545C54.9176 21.5956 54.927 21.6475 54.931 21.7C54.918 21.69 54.831 21.59 54.824 21.58C54.8168 21.5583 54.8168 21.5348 54.824 21.513C54.8535 21.5172 54.8815 21.5281 54.906 21.545H54.903ZM54.476 17.591C54.542 17.608 54.728 17.784 54.79 17.783L54.872 18.266C54.752 18.109 54.587 17.927 54.472 17.766C54.428 17.7 54.451 17.586 54.479 17.59L54.476 17.591ZM54.456 20.714C54.5023 20.7435 54.5444 20.7791 54.581 20.82C54.612 20.862 54.708 21.047 54.723 21.077C54.738 21.107 54.709 21.107 54.7 21.097C54.614 20.997 54.479 20.842 54.4 20.74C54.39 20.717 54.441 20.7 54.459 20.713L54.456 20.714ZM53.985 20.241C54.029 20.241 54.112 20.146 54.147 20.169C54.182 20.192 54.205 20.369 54.215 20.408C54.225 20.447 54.193 20.472 54.188 20.482C54.183 20.492 54.147 20.393 54.14 20.405C54.133 20.417 54.072 20.522 54.087 20.541C54.102 20.56 54.206 20.499 54.241 20.528C54.276 20.557 54.309 20.659 54.341 20.702C54.227 20.721 54.216 20.714 54.103 20.593C54.06 20.645 54.064 20.738 54.033 20.793C54.023 20.813 53.953 20.736 53.933 20.74C54.0103 20.5852 54.0298 20.4079 53.988 20.24L53.985 20.241ZM54.285 21.841C54.285 21.841 54.307 21.825 54.312 21.83C54.4052 21.9594 54.4894 22.0951 54.564 22.236C54.572 22.25 54.585 22.266 54.579 22.285C54.573 22.304 54.527 22.342 54.514 22.364C54.433 22.2 54.319 21.933 54.286 21.84L54.285 21.841ZM54.471 22.878C54.35 22.7461 54.2578 22.5905 54.2 22.421L54.351 22.2C54.395 22.326 54.402 22.424 54.451 22.557C54.4786 22.6053 54.4948 22.6591 54.4984 22.7146C54.5021 22.77 54.493 22.8256 54.472 22.877L54.471 22.878ZM53.741 16.655C53.8071 16.6469 53.8738 16.6628 53.929 16.7C53.974 16.739 53.929 16.838 53.996 16.915C54.063 16.992 54.239 17.146 54.321 17.236C54.338 17.255 54.389 17.306 54.387 17.324C54.346 17.352 54.195 17.407 54.163 17.424C54.131 17.441 54.118 17.483 54.108 17.459C54.0588 17.269 53.9897 17.0846 53.902 16.909C53.873 16.921 53.838 17.04 53.808 17.028C53.7453 16.9764 53.6947 16.9115 53.66 16.838C53.656 16.8 53.708 16.665 53.742 16.654L53.741 16.655ZM53.698 17.063C53.768 17.119 53.805 17.248 53.87 17.318C53.6946 17.2601 53.5452 17.1422 53.448 16.985C53.525 17.026 53.629 17.007 53.7 17.062L53.698 17.063ZM53.483 20.435C53.489 20.452 53.471 20.461 53.456 20.449C53.4052 20.4049 53.3578 20.3571 53.314 20.306C53.308 20.289 53.374 20.255 53.389 20.267C53.4251 20.32 53.4569 20.3759 53.484 20.434L53.483 20.435ZM53.449 17.385C53.431 17.351 53.464 17.232 53.481 17.24C53.5477 17.3089 53.6074 17.3842 53.659 17.465C53.676 17.497 53.666 17.602 53.65 17.594C53.5764 17.531 53.5094 17.4606 53.45 17.384L53.449 17.385ZM53.415 20.052C53.424 20.081 53.39 20.099 53.362 20.08C53.2844 20.0135 53.2122 19.941 53.146 19.863C53.1365 19.8452 53.1315 19.8252 53.1315 19.805C53.1315 19.7848 53.1365 19.7648 53.146 19.747C53.1924 19.7482 53.237 19.7655 53.272 19.796C53.327 19.8769 53.3752 19.9622 53.416 20.051L53.415 20.052ZM53.251 18.168C53.2092 18.2077 53.1621 18.2413 53.111 18.268C53.091 18.268 53.011 18.168 53.022 18.158C53.0872 18.1394 53.1543 18.1287 53.222 18.126C53.245 18.128 53.26 18.153 53.252 18.167L53.251 18.168ZM53.046 17.288C53.065 17.326 53.163 17.417 53.163 17.444C53.163 17.471 53.063 17.475 53.043 17.481C53.023 17.487 53.002 17.536 52.992 17.514C52.93 17.375 52.962 17.351 53.047 17.287L53.046 17.288ZM52.801 17.543C52.8493 17.608 52.8922 17.6769 52.929 17.749C52.939 17.772 52.924 17.778 52.904 17.768C52.8456 17.7333 52.7901 17.6938 52.738 17.65C52.7141 17.6221 52.7007 17.5867 52.7 17.55C52.707 17.543 52.778 17.522 52.8 17.542L52.801 17.543ZM51.921 14.112C51.96 14.102 51.984 14.079 52.005 14.101L52.258 14.37L52.433 14.634C52.4725 14.6942 52.518 14.7502 52.569 14.801C52.587 14.978 52.616 15.163 52.625 15.333C52.625 15.36 52.583 15.351 52.578 15.373C52.4669 15.2654 52.3695 15.1445 52.288 15.013L52.039 14.578L51.739 14.229C51.787 14.206 51.882 14.121 51.922 14.111L51.921 14.112ZM52.551 17.32C52.558 17.337 52.542 17.348 52.527 17.338C52.4767 17.297 52.4296 17.2522 52.386 17.204C52.379 17.186 52.439 17.142 52.455 17.153C52.4918 17.2056 52.5242 17.2611 52.552 17.319L52.551 17.32ZM52.142 18.936C52.1595 18.9685 52.1701 19.0042 52.173 19.041L52.142 19.075C52.1343 19.0818 52.1259 19.0878 52.117 19.093C52.117 19.113 52.076 19.066 52.043 19.016C52.0136 18.9643 51.9988 18.9055 52 18.846C52.037 18.88 52.115 18.9 52.143 18.935L52.142 18.936ZM52.042 17.124C52.0462 17.092 52.0594 17.0618 52.08 17.037C52.1069 17.0763 52.1284 17.119 52.144 17.164C52.1093 17.1569 52.0763 17.143 52.047 17.123L52.042 17.124ZM52.222 19.043C52.222 19.043 52.222 19.038 52.235 19.055C52.2461 19.076 52.2558 19.0977 52.264 19.12C52.2314 19.13 52.1966 19.13 52.164 19.12C52.156 19.086 52.221 19.045 52.227 19.042L52.222 19.043ZM52.146 18.735C52.1967 18.8079 52.2431 18.8837 52.285 18.962C52.2459 18.9377 52.2132 18.9043 52.1899 18.8646C52.1665 18.8248 52.1532 18.78 52.151 18.734L52.146 18.735ZM51.954 17.635C51.9534 17.6843 51.9418 17.7328 51.92 17.777C51.8737 17.7333 51.834 17.6831 51.802 17.628C51.802 17.61 51.856 17.573 51.871 17.574C51.9063 17.5861 51.9371 17.6088 51.959 17.639L51.954 17.635ZM51.354 16.011C51.3922 16.0613 51.4235 16.1164 51.447 16.175C51.3818 16.1494 51.32 16.1158 51.263 16.075C51.263 16.069 51.35 16.008 51.363 16.015L51.354 16.011ZM51.106 16.702C51.117 16.826 51.065 16.858 50.994 16.915C50.9947 16.8727 51.0062 16.8314 51.0274 16.7948C51.0485 16.7582 51.0787 16.7276 51.115 16.706L51.106 16.702ZM50.819 14.81C50.87 14.822 50.893 14.887 50.939 14.91C50.782 14.91 50.78 14.94 50.726 15.058C50.6897 15.0004 50.6563 14.941 50.626 14.88C50.626 14.846 50.648 14.756 50.671 14.761C50.731 14.775 50.777 14.8 50.828 14.814L50.819 14.81ZM50.693 14.324C50.64 14.369 50.572 14.291 50.593 14.232C50.606 14.216 50.72 14.313 50.7 14.328L50.693 14.324ZM50.573 16.579C50.5991 16.5767 50.6254 16.5784 50.651 16.584C50.663 16.59 50.683 16.612 50.682 16.624C50.681 16.636 50.654 16.714 50.64 16.712C50.6056 16.6785 50.5753 16.6409 50.55 16.6C50.553 16.59 50.572 16.586 50.582 16.583L50.573 16.579ZM50.403 13.432C50.4331 13.4458 50.4584 13.468 50.476 13.496C50.476 13.508 50.433 13.56 50.416 13.559C50.3698 13.542 50.3271 13.5166 50.29 13.484C50.3264 13.4586 50.3682 13.4422 50.412 13.436L50.403 13.432ZM50.1 15.505C50.215 15.628 50.356 15.75 50.46 15.872C50.483 15.899 50.46 15.927 50.46 15.952C50.46 15.977 50.409 15.997 50.4 16.021C50.2344 15.8658 50.0504 15.7314 49.852 15.621L50.1 15.505ZM49.859 13.116C49.874 13.104 49.964 13.193 49.965 13.216C49.966 13.239 49.883 13.301 49.865 13.326C49.81 13.209 49.805 13.163 49.863 13.116H49.859ZM50.143 14.878C50.2179 14.9358 50.289 14.9982 50.356 15.065C50.376 15.086 50.356 15.091 50.338 15.089C50.2865 15.0768 50.2368 15.0579 50.19 15.033C50.177 15.015 50.133 14.872 50.147 14.878H50.143ZM50.411 13.81C50.293 13.887 50.248 13.884 50.377 14.074C50.292 14.148 50.291 14.179 50.132 14.107L50.094 14.451L49.879 14.301C49.8786 14.17 49.905 14.0403 49.9566 13.9199C50.0082 13.7996 50.0839 13.691 50.179 13.601L50.411 13.81ZM49.729 12.569C49.7875 12.571 49.8451 12.5835 49.899 12.606C49.9431 12.6582 49.9795 12.7165 50.007 12.779C50.013 12.802 49.966 12.857 49.947 12.843C49.8635 12.7661 49.7851 12.6839 49.712 12.597C49.689 12.563 49.715 12.571 49.733 12.569H49.729ZM49.701 14.276C49.7558 14.3108 49.8047 14.354 49.846 14.404C49.86 14.428 49.831 14.491 49.826 14.504C49.821 14.517 49.826 14.539 49.801 14.524C49.7371 14.4756 49.6776 14.4218 49.623 14.363C49.618 14.337 49.684 14.272 49.705 14.276H49.701ZM49.383 14.165C49.4906 14.2697 49.5887 14.3839 49.676 14.506C49.706 14.548 49.629 14.593 49.64 14.633L49.275 14.266C49.263 14.255 49.227 14.236 49.243 14.232C49.259 14.228 49.344 14.13 49.387 14.165H49.383ZM48.947 13.931C48.936 13.925 48.905 13.901 48.911 13.899C49.011 13.86 49.152 13.874 49.254 13.829C49.2456 13.9017 49.2489 13.9754 49.264 14.047C49.1494 14.0459 49.0387 14.0049 48.951 13.931H48.947ZM49.247 12.852C49.286 12.911 49.427 13.027 49.447 13.076C49.4531 13.0983 49.4522 13.1219 49.4445 13.1437C49.4368 13.1655 49.4227 13.1844 49.404 13.198C49.377 13.212 49.259 13.122 49.216 13.117C49.2799 13.1162 49.3427 13.1001 49.399 13.07C49.314 12.981 49.27 12.946 49.248 12.852H49.247ZM48.927 11.679C48.941 11.665 49.074 11.779 49.074 11.799C49.074 11.819 48.974 11.918 48.957 11.929C48.94 11.94 48.857 11.904 48.857 11.89C48.8681 11.8161 48.8922 11.7446 48.928 11.679H48.927ZM49.127 14.35C49.2268 14.4448 49.3157 14.5505 49.392 14.665C49.402 14.676 49.43 14.689 49.354 14.686C49.278 14.683 48.767 14.486 48.763 14.309C48.759 14.132 49.009 14.268 49.123 14.35H49.127ZM48.727 14.402C48.619 14.347 48.532 14.307 48.495 14.195L48.727 14.402ZM48.366 12.514C48.4262 12.5412 48.4782 12.5836 48.517 12.637C48.53 12.664 48.469 12.759 48.46 12.778C48.451 12.797 48.46 12.806 48.434 12.801C48.386 12.7825 48.3403 12.7583 48.298 12.729C48.272 12.707 48.139 12.621 48.151 12.603C48.2133 12.5564 48.2861 12.5258 48.363 12.514H48.366ZM48.394 13.389C48.2293 13.3257 48.0762 13.2355 47.941 13.122C47.916 13.104 47.889 13.022 47.908 13.022C47.956 13.006 48.144 13.075 48.195 13.058C48.246 13.041 48.216 12.968 48.251 12.94L48.394 13.389ZM47.934 11.06C47.96 11.053 48.013 11.09 48.034 11.098C48.0429 11.1005 48.0511 11.1048 48.0582 11.1106C48.0652 11.1165 48.071 11.1238 48.075 11.132C48.075 11.146 48.131 11.232 48.107 11.232C48.0152 11.227 47.9267 11.1958 47.852 11.142C47.872 11.128 47.9 11.066 47.931 11.06H47.934ZM47.871 12.505C47.9582 12.5877 48.0285 12.6865 48.078 12.796C48.084 12.828 48.012 12.839 47.978 12.83C47.8913 12.784 47.8093 12.7298 47.733 12.668C47.705 12.64 47.699 12.636 47.713 12.608C47.727 12.58 47.834 12.534 47.868 12.505H47.871ZM47.827 13.319L48.016 13.475C48.037 13.498 48.016 13.503 48.001 13.501C47.8884 13.4654 47.7676 13.4654 47.655 13.501C47.648 13.501 47.618 13.48 47.618 13.47C47.615 13.347 47.713 13.356 47.824 13.319H47.827ZM47.182 12.1C47.3147 12.2222 47.4157 12.375 47.476 12.545L47.229 12.585L46.673 12.126C46.661 12.116 46.68 12.099 46.693 12.104C46.8566 12.2067 47.0449 12.2634 47.238 12.268C47.168 12.169 47.174 12.193 47.182 12.1ZM47.463 13.3C47.3988 13.2838 47.3374 13.2579 47.281 13.223C47.275 13.209 47.361 13.113 47.381 13.123C47.4181 13.1791 47.4458 13.241 47.463 13.306V13.3ZM46.41 10.578C46.472 10.6044 46.5308 10.638 46.585 10.678C46.634 10.708 46.695 10.772 46.745 10.807C46.6241 10.817 46.5032 10.7879 46.4 10.724C46.388 10.719 46.359 10.703 46.364 10.69C46.369 10.677 46.377 10.575 46.41 10.578ZM46.354 12.318C46.432 12.428 46.442 12.48 46.406 12.555C46.4 12.567 46.337 12.517 46.333 12.491C46.329 12.465 46.353 12.357 46.354 12.318ZM46.2 9.66601C46.2258 9.67099 46.2494 9.68352 46.268 9.70201C46.278 9.71401 46.307 9.77701 46.292 9.78301C46.2384 9.78302 46.185 9.7763 46.133 9.76301C46.112 9.75501 46.08 9.71401 46.086 9.70301C46.1212 9.68328 46.16 9.6707 46.2 9.66601ZM45.774 9.67801L46.074 9.84301C45.954 9.84301 45.814 9.93201 45.745 9.93401C45.6908 9.93778 45.637 9.9214 45.594 9.88801C45.572 9.86601 45.665 9.78801 45.664 9.76001C45.4208 9.66415 45.1922 9.53454 44.985 9.37501C44.967 9.36201 44.985 9.31701 44.97 9.29901L45.774 9.67801ZM44.699 9.43801C44.711 9.43801 44.743 9.45301 44.742 9.46401C44.737 9.54801 44.498 9.44401 44.408 9.41701C44.5039 9.41179 44.6 9.41885 44.694 9.43801H44.699ZM44.263 10.091C44.363 10.1161 44.4607 10.1496 44.555 10.191C44.6746 10.2501 44.7901 10.3169 44.901 10.391C44.926 10.41 44.939 10.491 44.896 10.491C44.6667 10.4311 44.4529 10.3226 44.269 10.173C44.241 10.146 44.222 10.084 44.258 10.091H44.263ZM44.147 9.85201C44.1792 9.85951 44.2089 9.87537 44.233 9.89801C44.246 9.93701 44.244 10.008 44.213 10.021C44.1526 10.0008 44.0966 9.96924 44.048 9.92801C44.036 9.91401 44.127 9.85501 44.142 9.85201H44.147ZM43.94 10.09C44.042 10.2361 44.174 10.3588 44.327 10.45L44.184 10.586C44.0616 10.3642 43.8752 10.1843 43.649 10.07L43.94 10.09ZM43.14 8.60101C43.1709 8.61129 43.1995 8.6276 43.224 8.64901C43.224 8.66001 43.193 8.72401 43.179 8.72201C43.138 8.69617 43.1009 8.66451 43.069 8.62801C43.06 8.61701 43.12 8.60001 43.135 8.60001L43.14 8.60101ZM43.022 9.50101L43.274 9.78601L42.864 9.66301C42.958 9.63601 42.974 9.57601 43.017 9.50001L43.022 9.50101ZM41.16 6.73201C41.16 6.71501 41.24 6.73201 41.26 6.75001C41.4771 6.95544 41.7051 7.14905 41.943 7.33001C41.979 7.35601 41.965 7.42201 41.993 7.45401C41.7434 7.37172 41.5106 7.24502 41.306 7.08001C41.3323 7.03798 41.3564 6.99459 41.378 6.95001C41.378 6.92901 41.349 6.92801 41.336 6.92301C41.168 6.85901 41.15 6.84101 41.16 6.73201ZM41.846 9.82401C41.828 9.85701 41.646 9.84001 41.616 9.84601C41.586 9.85201 41.566 9.83401 41.567 9.82601C41.5666 9.77327 41.5852 9.72215 41.6193 9.68195C41.6535 9.64175 41.7009 9.61516 41.753 9.60701C41.787 9.66601 41.868 9.78001 41.846 9.82401ZM40.883 8.45201C40.9 8.43801 41.051 8.52301 41.051 8.53401C41.051 8.54501 40.933 8.58201 40.909 8.59501C40.86 8.53401 40.848 8.48001 40.883 8.45201ZM40.075 7.14501C40.1229 7.1518 40.1676 7.17309 40.203 7.20601C40.1691 7.25744 40.1257 7.3019 40.075 7.33701C40.053 7.34701 39.989 7.31201 39.988 7.29501C40.0077 7.24016 40.0372 7.18934 40.075 7.14501ZM40.158 9.06601C40.416 9.12501 40.431 9.01301 40.505 8.89201C40.514 8.87801 40.596 8.89201 40.605 8.91101C40.657 9.03294 40.7027 9.15744 40.742 9.28401C40.742 9.29501 40.742 9.31201 40.726 9.30901C40.618 9.28501 40.449 9.17801 40.35 9.16901C40.29 9.16301 40.309 9.27601 40.263 9.29201L39.91 8.97901C40.022 8.89201 40.165 8.90001 40.158 9.06601ZM39.758 7.26601C39.777 7.28901 39.834 7.34801 39.818 7.36601C39.695 7.47601 39.541 7.53401 39.467 7.68201L39.246 7.60001C39.215 7.58601 39.197 7.58501 39.201 7.57801C39.288 7.42201 39.501 7.33601 39.623 7.19401C39.653 7.21501 39.738 7.23901 39.756 7.26201L39.758 7.26601ZM39.228 7.10001L39.313 7.11301C39.3699 7.13717 39.4248 7.16593 39.477 7.19901C39.498 7.21901 39.461 7.27701 39.438 7.27601C39.3848 7.25756 39.3335 7.23378 39.285 7.20501L39.247 7.19501C39.2106 7.18556 39.1765 7.16852 39.147 7.14501C39.149 7.13001 39.192 7.09401 39.228 7.10001ZM39.147 7.30701L39.247 7.32501C39.2608 7.33183 39.2742 7.33951 39.287 7.34801C39.297 7.35801 39.287 7.40601 39.262 7.39901L39.23 7.38201L39.046 7.31601C39.035 7.30501 39.124 7.30001 39.147 7.30001V7.30701ZM37.678 7.00001C37.7479 6.99037 37.8189 6.99479 37.887 7.01301C38.0267 7.06406 38.1636 7.12247 38.297 7.18801C38.363 7.22301 38.365 7.27901 38.382 7.29801C38.399 7.31701 38.39 7.33201 38.376 7.32901C38.215 7.29501 37.983 7.26201 37.828 7.21401C37.7615 7.18482 37.7021 7.14148 37.654 7.08701C37.6488 7.08004 37.6452 7.07196 37.6436 7.0634C37.642 7.05483 37.6423 7.04601 37.6447 7.03761C37.647 7.02921 37.6512 7.02145 37.657 7.01493C37.6628 7.00841 37.67 7.0033 37.678 7.00001ZM38.045 8.74001C38.101 8.74501 38.158 8.75301 38.145 8.76101C38.0609 8.78989 37.9719 8.80211 37.883 8.79701C37.8157 8.78796 37.7489 8.77493 37.683 8.75801C37.653 8.75101 37.676 8.72801 37.683 8.72801L38.045 8.74001ZM37.912 8.48501L38.112 8.52701C37.992 8.55301 38 8.57801 37.912 8.48901V8.48501ZM38.128 8.30601C38.128 8.29601 38.164 8.28601 38.185 8.28601C38.2333 8.29262 38.2811 8.30264 38.328 8.31601C38.341 8.32201 38.328 8.33901 38.321 8.34501C38.286 8.36322 38.2481 8.37539 38.209 8.38101C38.1773 8.36333 38.1497 8.33913 38.128 8.31001V8.30601ZM37.6 7.27101C37.6182 7.25186 37.6395 7.23596 37.663 7.22401C37.676 7.22401 37.706 7.22401 37.712 7.23501C37.718 7.24601 37.747 7.32101 37.734 7.32801C37.6865 7.3246 37.6395 7.31554 37.594 7.30101C37.576 7.30001 37.589 7.27901 37.6 7.27101ZM37.645 7.51001C37.6945 7.52489 37.7391 7.55288 37.774 7.59101C37.795 7.61101 37.883 7.61501 37.868 7.61401C37.7709 7.60878 37.6741 7.59843 37.578 7.58301C37.552 7.57701 37.624 7.50801 37.641 7.51001H37.645ZM37.088 7.17201C37.098 7.15901 37.125 7.17201 37.138 7.18001C37.151 7.18801 37.216 7.24101 37.217 7.25801C37.218 7.27501 37.163 7.32901 37.146 7.33401C37.129 7.33901 37.058 7.33401 37.046 7.31301C37.0512 7.2643 37.064 7.21672 37.084 7.17201H37.088ZM37.2 7.90001C37.174 7.96501 37.076 7.93101 37.065 7.87101C37.059 7.85401 37.207 7.88101 37.2 7.90001ZM36.515 7.88601C36.5383 7.89871 36.5571 7.91833 36.5687 7.94216C36.5803 7.96598 36.5843 7.99284 36.58 8.01901C36.5345 8.00181 36.4901 7.98178 36.447 7.95901C36.439 7.95101 36.493 7.87801 36.513 7.88901L36.515 7.88601ZM35.239 6.63601C35.252 6.62401 35.271 6.65801 35.288 6.66601C35.4 6.71601 35.476 6.72901 35.328 6.79001C35.394 6.91001 35.477 6.92301 35.619 6.92601L35.701 6.94201L35.674 7.06601L35.608 7.05401C35.471 7.06001 35.313 7.09801 35.136 7.12401C35.049 7.13601 34.926 7.06301 34.836 7.06101C34.969 6.92001 35.1 6.76701 35.239 6.63601ZM35.684 7.19701C35.695 7.19701 35.689 7.22501 35.677 7.22601H35.594C35.483 7.25601 35.248 7.28401 35.069 7.31501C35.0378 7.26828 35.0246 7.21174 35.032 7.15601L35.598 7.17401L35.684 7.19701ZM34.727 6.62001C34.8074 6.62528 34.887 6.638 34.965 6.65801C34.991 6.67501 34.965 6.76401 34.959 6.77501C34.953 6.78601 34.945 6.78801 34.902 6.77501C34.859 6.76201 34.666 6.67501 34.625 6.64801C34.613 6.63801 34.694 6.61701 34.727 6.62001ZM34.621 7.12001C34.649 7.11301 34.75 7.10601 34.769 7.12601C34.7961 7.17975 34.8069 7.24023 34.8 7.30001C34.7362 7.31189 34.6708 7.31189 34.607 7.30001C34.58 7.29001 34.515 7.22701 34.517 7.20801C34.519 7.18901 34.594 7.12901 34.621 7.12201V7.12001ZM34.251 5.63001C34.2985 5.6245 34.3465 5.6245 34.394 5.63001C34.407 5.63001 34.405 5.65301 34.394 5.66101C34.3463 5.68261 34.2968 5.70001 34.246 5.71301C34.23 5.71401 34.237 5.63901 34.251 5.63201V5.63001ZM32.627 7.74801C32.6578 7.73142 32.6921 7.72218 32.727 7.72101C32.753 7.72101 32.865 7.74201 32.868 7.75701C32.871 7.77201 32.785 7.86201 32.76 7.87001C32.7101 7.86951 32.6609 7.8579 32.616 7.83601C32.6 7.82401 32.615 7.76101 32.627 7.74801ZM31.591 7.64801C31.6381 7.65312 31.6843 7.66491 31.728 7.68301C31.681 7.70484 31.6317 7.72128 31.581 7.73201C31.57 7.72901 31.579 7.65101 31.591 7.64701V7.64801ZM31.132 6.96601C31.153 6.96601 31.204 6.98601 31.169 7.00001C31.0552 7.0376 30.9368 7.0598 30.817 7.06601C30.773 7.06101 30.758 6.96601 30.723 6.94601C30.854 6.95101 31.013 6.95301 31.132 6.96501V6.96601ZM29.88 7.94701C29.9448 7.94409 30.0097 7.94677 30.074 7.95501C30.095 7.95501 30.081 7.97401 30.074 7.98601C30.067 7.99801 30.038 8.06801 30.011 8.06901C29.9461 8.05476 29.8835 8.03154 29.825 8.00001C29.812 7.99001 29.855 7.95101 29.88 7.94601V7.94701ZM29.58 7.68301C29.5498 7.72404 29.5138 7.76043 29.473 7.79101C29.4519 7.75626 29.4402 7.71663 29.439 7.67601C29.4863 7.66873 29.5345 7.67077 29.581 7.68201L29.58 7.68301ZM28.865 6.67501C28.898 6.68501 28.909 6.74701 28.908 6.76601C28.907 6.78501 28.874 6.84601 28.845 6.85301C28.7783 6.86327 28.7101 6.85918 28.645 6.84101C28.619 6.82101 28.551 6.68101 28.572 6.66401C28.67 6.6535 28.769 6.65687 28.866 6.67401L28.865 6.67501ZM27.575 7.28601C27.7305 7.27471 27.8852 7.25367 28.038 7.22301C27.995 7.30301 27.956 7.39401 27.91 7.47001C27.9031 7.47516 27.8951 7.47873 27.8866 7.48045C27.8782 7.48218 27.8694 7.48203 27.861 7.48001C27.7575 7.42422 27.6468 7.38284 27.532 7.35701C27.51 7.34901 27.432 7.35701 27.432 7.34401C27.4766 7.31682 27.5252 7.29691 27.576 7.28501L27.575 7.28601ZM27.243 6.20001C27.2716 6.17891 27.3034 6.16238 27.337 6.15101C27.3989 6.14152 27.4616 6.13884 27.524 6.14301C27.4355 6.18664 27.3443 6.22472 27.251 6.25701C27.235 6.25901 27.234 6.20501 27.243 6.20001ZM26.632 8.14601C26.5924 8.16642 26.549 8.1787 26.5045 8.18213C26.4601 8.18557 26.4154 8.18008 26.373 8.16601L26.632 8.14601ZM25.732 6.72101C25.6806 6.7092 25.6285 6.70019 25.576 6.69401C25.541 6.70101 25.492 6.72201 25.483 6.74401C25.474 6.76601 25.591 6.81901 25.583 6.84401C25.5456 6.89 25.5014 6.93012 25.452 6.96301C25.432 6.97801 25.408 6.98301 25.401 6.97501C25.301 6.86401 25.332 6.75001 25.461 6.61401L25.732 6.72101ZM25.105 6.17801C25.1508 6.17159 25.1975 6.17468 25.242 6.18706C25.2866 6.19945 25.3281 6.22088 25.364 6.25001C25.371 6.25001 25.378 6.28001 25.364 6.27901C25.2635 6.27286 25.1634 6.26151 25.064 6.24501C25.049 6.23701 25.088 6.17701 25.11 6.17501L25.105 6.17801ZM24.117 8.11701C24.203 8.13401 24.205 8.14801 24.248 8.20601C24.411 8.14301 24.639 8.11701 24.784 8.04401C24.884 7.99401 24.819 7.92401 24.85 7.86601L24.908 7.84501L25.108 7.80701C25.144 7.80701 25.133 7.82801 25.119 7.83401C25.0548 7.86338 24.9935 7.89888 24.936 7.94001C24.826 8.04801 24.665 8.19801 24.543 8.33401L23.605 8.58801C23.571 8.59601 23.516 8.56001 23.545 8.54701L24.209 8.28301L24.117 8.11701ZM24.75 8.76201C24.76 8.76801 24.707 8.83901 24.676 8.85001C24.4622 8.93094 24.2308 8.95438 24.005 8.91801C24.031 8.90801 24.069 8.86101 24.094 8.85701C24.2681 8.84881 24.4386 8.80383 24.594 8.72501C24.64 8.70001 24.745 8.75201 24.755 8.75901L24.75 8.76201ZM23.75 6.68201L23.789 6.83401L23.155 7.08801C23.155 7.11901 23.198 7.21401 23.187 7.23201C23.176 7.25001 23.061 7.30001 23.051 7.28001C23.0383 7.19725 23.0313 7.11372 23.03 7.03001C23.267 6.90001 23.524 6.81501 23.753 6.67901L23.75 6.68201ZM23.45 8.05101C23.4547 8.09327 23.4495 8.13603 23.435 8.17601C23.3915 8.15715 23.3518 8.13036 23.318 8.09701C23.3597 8.07189 23.4059 8.05524 23.454 8.04801L23.45 8.05101ZM23.3 8.69001C23.2588 8.71308 23.2137 8.72865 23.167 8.73601C23.157 8.73101 23.181 8.64801 23.188 8.63601C23.1941 8.6299 23.2015 8.62529 23.2097 8.62251C23.2178 8.61974 23.2265 8.61888 23.235 8.62001C23.247 8.62601 23.308 8.68001 23.3 8.69001ZM22 8.41101C22.0439 8.3903 22.0898 8.37421 22.137 8.36301C22.15 8.36301 22.158 8.37901 22.143 8.39301C22.0905 8.43508 22.0354 8.47383 21.978 8.50901C21.969 8.51101 21.989 8.42501 22 8.41101ZM21.12 9.54301C21.149 9.52401 21.203 9.49901 21.213 9.50601C21.223 9.51301 21.206 9.58901 21.193 9.60601C21.1683 9.63356 21.1393 9.65687 21.107 9.67501C21.0643 9.69843 21.019 9.71688 20.972 9.73001C20.9668 9.72745 20.9623 9.7238 20.9586 9.71931C20.955 9.71481 20.9523 9.70958 20.9509 9.70397C20.9495 9.69836 20.9493 9.69251 20.9504 9.68682C20.9514 9.68113 20.9537 9.67573 20.957 9.67101C21.0096 9.62443 21.0654 9.58166 21.124 9.54301H21.12ZM18.76 11.014C18.6871 11.0465 18.616 11.0829 18.547 11.123C18.5286 11.1375 18.508 11.1489 18.486 11.157C18.454 11.168 18.452 11.065 18.425 11.057L18.487 11.021C18.576 10.9879 18.6735 10.9855 18.764 11.014H18.76ZM17.486 9.63201C17.557 9.58101 17.543 9.58301 17.553 9.54901C17.563 9.51501 17.463 9.50101 17.453 9.46901L17.547 9.41601C17.7068 9.35191 17.8754 9.31246 18.047 9.29901C18.1816 9.28771 18.3153 9.26699 18.447 9.23701C18.457 9.23701 18.465 9.25601 18.455 9.26501C18.2311 9.41476 18.0323 9.59905 17.866 9.81101C17.8483 9.83238 17.8274 9.85092 17.804 9.86601C17.787 9.88214 17.7674 9.89532 17.746 9.90501C17.695 9.92401 17.537 9.97901 17.5 9.95101C17.463 9.92301 17.435 9.76301 17.38 9.74501C17.345 9.73301 17.199 9.86601 17.174 9.86401C17.149 9.86201 17.115 9.80201 17.135 9.78601C17.207 9.73701 17.38 9.70801 17.486 9.63201ZM16.232 10.05L16.459 10.056C16.519 10.062 16.54 10.078 16.593 10.086C16.452 10.214 16.436 10.233 16.441 10.364C16.3799 10.3987 16.3113 10.4182 16.241 10.421C16.178 10.432 16.159 10.48 16.104 10.498C16.1884 10.3639 16.2328 10.2085 16.232 10.05ZM16.018 12.3C16.044 12.278 16.182 12.2 16.226 12.169C16.1674 12.2564 16.0894 12.3289 15.998 12.381C15.983 12.388 15.992 12.321 16.018 12.3ZM15.1 12.494C15.115 12.4837 15.1315 12.4759 15.149 12.471C15.189 12.465 15.172 12.536 15.201 12.545L15.158 12.562C15.065 12.627 15.07 12.627 14.98 12.604C15.0224 12.5693 15.0625 12.5319 15.1 12.492V12.494ZM14.486 11.87L14.538 11.829C14.6576 11.7723 14.7817 11.7258 14.909 11.69C14.8554 11.756 14.7955 11.8167 14.73 11.871C14.6944 11.8917 14.6573 11.9098 14.619 11.925C14.5731 11.9532 14.5249 11.9776 14.475 11.998C14.451 12 14.443 11.9 14.486 11.868V11.87ZM14.886 11.886C14.8406 11.9501 14.7832 12.0047 14.717 12.047C14.6776 12.0717 14.6348 12.0905 14.59 12.103L14.69 12.013L14.886 11.886ZM14.126 15C14.1384 14.9958 14.1517 14.995 14.1646 14.9976C14.1774 15.0003 14.1893 15.0063 14.199 15.015C14.2051 15.0282 14.2083 15.0425 14.2083 15.057C14.2083 15.0715 14.2051 15.0858 14.199 15.099C14.156 15.1475 14.1066 15.1899 14.052 15.225C14.031 15.225 13.978 15.152 13.985 15.125C14.0264 15.0774 14.0738 15.0353 14.126 15ZM13.926 14.172C13.952 14.172 13.977 14.252 14 14.266C13.9557 14.2981 13.9028 14.3162 13.848 14.318C13.787 14.318 13.765 14.313 13.766 14.274C13.765 14.251 13.9 14.172 13.925 14.17L13.926 14.172ZM13.726 15.401C13.7526 15.3577 13.7912 15.323 13.837 15.301C13.8773 15.3087 13.9131 15.3316 13.937 15.365C13.937 15.386 13.865 15.465 13.846 15.489C13.827 15.513 13.746 15.589 13.735 15.583C13.7179 15.5236 13.7135 15.4612 13.722 15.4L13.726 15.401ZM12.826 15.384C12.883 15.312 12.963 15.221 13.026 15.127C13.036 15.114 13.05 15.088 13.067 15.096C13.084 15.104 13.206 15.096 13.205 15.135C13.1806 15.2652 13.1235 15.387 13.039 15.489C13.0086 15.4888 12.9782 15.4909 12.948 15.495C12.834 15.518 12.734 15.632 12.617 15.803C12.6637 15.6535 12.7321 15.5116 12.82 15.382L12.826 15.384ZM12.385 14.015L11.892 14.45C11.9208 14.3878 11.9325 14.319 11.9258 14.2508C11.9191 14.1826 11.8943 14.1174 11.854 14.062C11.9305 14.0108 12.0186 13.9795 12.1103 13.9709C12.202 13.9623 12.2944 13.9768 12.379 14.013L12.385 14.015ZM11.968 15.672C11.9248 15.6254 11.8957 15.5675 11.884 15.505C11.9222 15.4537 11.9723 15.4125 12.03 15.385C12.0655 15.4259 12.0882 15.4763 12.095 15.53C12.084 15.553 11.978 15.676 11.962 15.67L11.968 15.672ZM11.98 17.827C11.997 17.854 11.953 17.901 11.937 17.927C11.921 17.953 11.868 18.027 11.837 18.037C11.771 18.0523 11.7022 18.0506 11.637 18.032C11.619 18.012 11.658 17.888 11.674 17.855C11.69 17.822 11.782 17.709 11.807 17.71C11.8716 17.7334 11.9292 17.773 11.974 17.825L11.98 17.827ZM11.705 14.7C11.7294 14.6635 11.7579 14.6299 11.79 14.6C11.806 14.6 11.843 14.659 11.843 14.672C11.843 14.685 11.811 14.72 11.797 14.727C11.7651 14.7406 11.7314 14.7501 11.697 14.755C11.684 14.751 11.7 14.709 11.705 14.7ZM11.627 14.935C11.646 14.925 11.738 14.967 11.736 14.987C11.7107 15.0485 11.6737 15.1046 11.627 15.152C11.614 15.1593 11.5993 15.1631 11.5844 15.163C11.5695 15.1629 11.5549 15.1589 11.542 15.1514C11.5291 15.144 11.5183 15.1333 11.5108 15.1204C11.5033 15.1075 11.4992 15.0929 11.499 15.078C11.5 15.05 11.607 14.94 11.627 14.931V14.935ZM11.053 15.051C11.0592 15.0351 11.0709 15.022 11.086 15.014C11.186 15.001 11.235 15.054 11.258 15.142C11.2488 15.1939 11.2207 15.2406 11.179 15.273C11.016 15.322 11.028 15.214 11.053 15.047V15.051ZM10.986 17.718C10.999 17.712 11.029 17.747 11.025 17.763C11.0046 17.8089 10.9784 17.8519 10.947 17.891C10.935 17.891 10.887 17.841 10.89 17.825C10.9169 17.7839 10.9492 17.7465 10.986 17.714V17.718ZM10.417 17.834C10.4511 17.7781 10.4956 17.7292 10.548 17.69C10.571 17.69 10.624 17.748 10.627 17.781C10.6109 17.8539 10.5875 17.9249 10.557 17.993C10.544 18.023 10.537 18.034 10.519 18.033C10.501 18.032 10.419 18.002 10.409 17.978C10.3993 17.9288 10.402 17.8779 10.417 17.83V17.834ZM9.78503 21.234C9.71021 21.3352 9.65586 21.45 9.62503 21.572C9.60403 21.623 9.54503 21.645 9.54303 21.636C9.5295 21.5531 9.53991 21.4682 9.57303 21.391C9.62307 21.3143 9.6979 21.2572 9.78503 21.229V21.234ZM9.45003 17.483L9.56203 17.364C9.59303 17.334 9.62103 17.381 9.59803 17.412L9.51103 17.524C9.36603 17.769 9.31103 17.807 9.16503 17.87C9.24403 17.773 9.32203 17.667 9.45003 17.483ZM8.81203 20.573C8.88403 20.461 8.91203 20.293 8.98103 20.173C9.00603 20.273 9.14103 20.473 9.13403 20.579L9.14803 20.595C9.14803 20.589 9.14203 20.608 9.14203 20.608C9.14203 20.608 9.12403 20.714 9.14803 20.716C9.24103 20.723 9.40403 20.596 9.51103 20.508C9.52003 20.501 9.54103 20.514 9.53403 20.528L9.20503 21.128C9.21103 21.283 9.24103 21.322 9.33303 21.383C9.33903 21.383 9.31603 21.424 9.30503 21.423C9.19503 21.413 9.07803 21.379 8.96503 21.366C8.95403 21.366 8.93703 21.356 8.94203 21.347C8.97003 21.294 9.12203 21.157 9.14703 21.09C9.17538 21.0314 9.18073 20.9643 9.16203 20.902C9.13903 20.864 8.99003 20.916 8.94603 20.895C8.96203 20.77 8.96003 20.766 9.05603 20.722C9.08959 20.6883 9.11851 20.6503 9.14203 20.609L9.13403 20.58C9.13403 20.63 8.98903 20.4 8.95403 20.438C8.93503 20.459 8.90303 20.581 8.85403 20.616C8.80503 20.651 8.68503 20.656 8.62803 20.688C8.67803 20.635 8.77103 20.638 8.81203 20.573ZM9.51203 21.123C9.48263 21.1446 9.44822 21.1584 9.41203 21.163C9.41794 21.1285 9.42836 21.0948 9.44303 21.063C9.44303 21.051 9.46503 21.019 9.47103 21.024C9.48958 21.0542 9.50183 21.0879 9.50703 21.123H9.51203ZM9.35903 21.752C9.32475 21.7388 9.29135 21.7235 9.25903 21.706C9.25303 21.698 9.27303 21.649 9.28203 21.653C9.29103 21.657 9.35403 21.752 9.35403 21.752H9.35903ZM8.75903 21.952C8.75203 21.917 8.80403 21.825 8.81003 21.815C8.81603 21.805 8.86303 21.815 8.86203 21.842C8.87266 21.956 8.8542 22.0709 8.80838 22.1758C8.76256 22.2807 8.69088 22.3723 8.60003 22.442C8.58603 22.451 8.58503 22.397 8.59203 22.382C8.59903 22.367 8.66303 22.344 8.67903 22.315C8.71882 22.2635 8.74627 22.2035 8.75927 22.1397C8.77227 22.0759 8.77048 22.01 8.75403 21.947L8.75903 21.952ZM8.62003 22.121C8.63403 22.113 8.65003 22.121 8.64803 22.135C8.63622 22.1818 8.6184 22.2268 8.59503 22.269C8.58103 22.276 8.49503 22.227 8.49503 22.214C8.53098 22.1767 8.57126 22.1438 8.61503 22.116L8.62003 22.121ZM8.59203 22.635C8.60503 22.635 8.56003 22.713 8.56103 22.725C8.56203 22.737 8.62303 22.748 8.61003 22.756C8.54603 22.796 8.51003 22.777 8.45803 22.729C8.52003 22.633 8.51503 22.629 8.58703 22.63L8.59203 22.635ZM7.45803 21.243C7.44203 21.264 7.37703 21.155 7.37803 21.119C7.38553 21.0657 7.40354 21.0143 7.43103 20.968C7.44903 20.949 7.57403 20.881 7.57503 20.91C7.54656 21.0244 7.50739 21.1359 7.45803 21.243ZM7.72503 27.409C7.69489 27.417 7.66317 27.417 7.63303 27.409C7.6629 27.3724 7.6964 27.3389 7.73303 27.309C7.73779 27.3425 7.73505 27.3767 7.72503 27.409ZM8.00003 26.972C7.98603 26.972 7.94003 26.934 7.92103 26.93C7.97108 26.6518 8.06706 26.3838 8.20503 26.137C8.11478 26.0106 8.04555 25.8705 8.00003 25.722C8.14242 25.5896 8.237 25.4138 8.26903 25.222C8.28252 25.2739 8.31217 25.3202 8.35369 25.3542C8.39521 25.3882 8.44646 25.4081 8.50003 25.411C8.39057 25.6581 8.36086 25.9332 8.41503 26.198C8.4325 26.2543 8.4325 26.3147 8.41503 26.371C8.32603 26.497 8.31503 26.471 8.22603 26.446C8.12362 26.5901 8.05524 26.7556 8.02603 26.93C8.02303 26.943 8.01803 26.969 8.00003 26.972ZM8.07003 38.508C8.07762 38.4438 8.08999 38.3803 8.10703 38.318C8.11303 38.301 8.13503 38.299 8.13703 38.318C8.14107 38.397 8.14107 38.4761 8.13703 38.555C8.13103 38.575 8.07603 38.53 8.07403 38.508H8.07003ZM8.22403 38.951C8.18627 38.9606 8.14782 38.9673 8.10903 38.971C8.11596 38.9446 8.13076 38.9208 8.15148 38.903C8.17219 38.8851 8.19784 38.874 8.22503 38.871C8.24403 38.872 8.23903 38.942 8.22803 38.951H8.22403ZM9.45503 42.126C9.42503 42.099 9.43703 42.094 9.43603 42.073C9.43503 42.052 9.45203 41.973 9.46803 41.973C9.48403 41.973 9.53403 41.928 9.55903 41.966C9.58403 42.004 9.62103 42.186 9.65003 42.247C9.58383 42.2108 9.52003 42.1704 9.45903 42.126H9.45503ZM10.147 46.664C10.054 46.569 9.94703 46.455 9.78303 46.264L9.68303 46.096C9.65154 46.0261 9.62449 45.9543 9.60203 45.881C9.66603 45.955 9.79503 46.069 9.89003 46.193L9.96103 46.262C10.0519 46.3798 10.1312 46.5061 10.198 46.639C10.221 46.664 10.171 46.685 10.151 46.664H10.147ZM13.353 49.113C13.335 49.101 13.284 49.035 13.296 49.034C13.3362 49.0278 13.3772 49.0299 13.4166 49.04C13.456 49.0501 13.4928 49.0682 13.525 49.093C13.564 49.123 13.586 49.226 13.625 49.268C13.5 49.251 13.469 49.193 13.357 49.113H13.353ZM13.893 49.585C13.8528 49.537 13.8161 49.4862 13.783 49.433C13.8214 49.4436 13.8576 49.4609 13.89 49.484C13.9 49.5 13.906 49.589 13.9 49.585H13.893ZM16.414 52.593L16.096 52.264C16.086 52.254 16.111 52.239 16.121 52.248L16.498 52.595C16.522 52.615 16.44 52.614 16.418 52.593H16.414ZM16.794 54.363C16.779 54.363 16.702 54.275 16.694 54.263C16.686 54.251 16.704 54.202 16.709 54.193C16.714 54.184 16.723 54.17 16.737 54.177C16.7827 54.2014 16.8251 54.2317 16.863 54.267C16.8637 54.2875 16.858 54.3078 16.8467 54.325C16.8354 54.3421 16.8191 54.3554 16.8 54.363H16.794ZM17.177 53.563C17.1261 53.5238 17.0813 53.4773 17.044 53.425C17.035 53.405 17.07 53.34 17.085 53.341C17.1328 53.3614 17.1758 53.3918 17.211 53.43C17.223 53.453 17.2 53.565 17.181 53.565L17.177 53.563ZM17.87 55.077C17.8205 55.0376 17.7743 54.9941 17.732 54.947C17.721 54.933 17.732 54.919 17.755 54.925C17.8164 54.9508 17.8759 54.9809 17.933 55.015C17.948 55.031 17.892 55.085 17.874 55.079L17.87 55.077ZM55.5 33.791L55.417 35.338C55.198 36.228 54.984 37.102 54.782 37.925L54.621 38.581C54.428 39.061 54.24 39.531 54.053 39.997L53.44 41.466C53.013 42.433 52.529 43.373 52.124 44.397L51.995 44.718L51.938 44.862C51.9407 44.8663 51.9428 44.8711 51.944 44.876C51.944 44.889 51.956 44.876 51.934 44.911L51.809 45.101L51.555 45.483L51.043 46.251L50.524 47.008L50.07 47.644L49.797 47.913L47.638 50.024L44.891 52.058L42.424 53.508L42.124 53.676L41.973 53.753C41.9605 53.7587 41.9468 53.7618 41.933 53.762H41.903L41.755 53.801L41.455 53.875L40.868 54.02C40.4568 54.1199 40.0552 54.2561 39.668 54.427L38.768 54.818C38.732 54.824 38.809 54.818 38.68 54.834L38.407 54.875L37.859 54.95L36.759 55.086L34.559 55.352C34.103 55.412 33.643 55.513 33.183 55.613L32.494 55.756L32.151 55.817L31.936 55.849L31.223 55.749C30.943 55.705 30.664 55.66 30.376 55.637L28.639 55.605L25.38 54.741L23.659 54.246L21.989 53.789C21.9851 53.7873 21.9816 53.7845 21.979 53.781C22.024 53.775 21.857 53.581 21.64 53.481L19 52.219L17.78 51.319C17.318 50.985 16.84 50.651 16.338 50.319C16.3028 50.2985 16.2693 50.2751 16.238 50.249C16.257 50.264 16.12 50.103 16.038 49.985L15.738 49.585C15.5366 49.3016 15.321 49.0286 15.092 48.767C14.9107 48.5763 14.7244 48.3787 14.533 48.174L13.983 47.621L12.993 46.443L11.993 45.218L11.857 45.041C11.8431 45.0248 11.8316 45.0066 11.823 44.987C11.813 44.959 11.836 44.996 11.8 44.915L11.7 44.7L11.519 44.266C11.399 43.976 11.277 43.689 11.144 43.412C10.6955 42.6418 10.2902 41.8473 9.93003 41.032C9.58703 40.272 9.24403 39.513 8.89303 38.738C8.76836 38.2713 8.6387 37.7857 8.50403 37.281C8.41841 36.9635 8.35328 36.6408 8.30903 36.315L8.24703 35.8C8.22803 35.642 8.19503 35.4 8.22103 35.44C8.22703 35.426 8.23503 35.434 8.23903 35.405L8.25103 35.217L8.26803 34.842C8.27603 34.593 8.27603 34.342 8.26203 34.103C8.22803 33.518 8.10003 32.873 8.04903 32.279C8.17537 31.2606 8.23782 30.2352 8.23603 29.209C8.23103 28.98 8.18403 28.527 8.14203 28.595C8.14203 28.565 8.11703 28.595 8.13403 28.512C8.15486 28.4192 8.18226 28.3279 8.21603 28.239C8.60498 27.3428 8.93698 26.423 9.21003 25.485C9.36703 24.88 9.52803 24.257 9.69003 23.635L9.96003 22.703L10.107 22.241L10.184 22.012C10.197 21.987 10.197 21.994 10.205 21.985L10.221 21.977H10.228L10.269 21.917L10.438 21.671L10.32 21.563C10.582 21.1283 10.8437 20.695 11.105 20.263L11.811 19.063L13.92 16.353C14.585 15.683 15.703 14.563 16.337 13.953L18.4 12.593C18.4269 12.53 18.4356 12.4607 18.425 12.393C18.55 12.33 18.678 12.261 18.807 12.185C18.8943 12.1271 18.9855 12.0753 19.08 12.03C19.1753 11.9979 19.2679 11.9585 19.357 11.912L19.773 11.712L20.599 11.287L22.099 10.48C22.6847 10.2331 23.286 10.025 23.899 9.85701L24.776 9.58201L25.168 9.43801C25.289 9.39001 25.442 9.32501 25.399 9.33101V9.32101C26.3795 9.01842 27.3773 8.77498 28.387 8.59201L28.573 8.54001L28.585 8.52901C28.7464 8.51035 28.9086 8.50067 29.071 8.50001L29.741 8.47601C30.2032 8.46191 30.6658 8.47126 31.127 8.50401C31.1684 8.40958 31.1903 8.3078 31.1916 8.20472C31.1928 8.10164 31.1732 7.99937 31.134 7.90401C31.314 7.95601 31.295 8.09001 31.489 8.13401C31.683 8.17801 31.989 8.17101 32.203 8.20101C31.8859 8.29194 31.5633 8.36209 31.237 8.41101C32.0349 8.51438 32.8422 8.52277 33.642 8.43601C34.281 8.61201 34.715 8.34701 35.467 8.43101C35.487 8.43901 35.484 8.44401 35.492 8.45101C35.518 8.46401 35.46 8.46201 35.553 8.48401L35.769 8.54201L36.206 8.65001L37.097 8.84201L38.005 9.01001L38.464 9.08801L38.677 9.12201H38.687L40.387 9.86801C41.0243 10.1347 41.6433 10.4431 42.24 10.791C42.334 10.749 42.32 10.75 42.324 10.658C42.381 10.69 42.531 10.695 42.569 10.734C42.637 10.804 42.58 10.814 42.561 10.864C43.0392 11.2036 43.5635 11.473 44.118 11.664C44.14 11.674 44.17 11.672 44.178 11.664C44.186 11.656 44.247 11.617 44.217 11.585C44.187 11.553 44.017 11.478 43.962 11.439C44.0921 11.4127 44.2273 11.437 44.34 11.507C44.321 11.415 44.302 11.407 44.213 11.327C44.206 11.32 44.213 11.3 44.229 11.301L44.915 11.36L45.057 11.501C45.0747 11.5277 45.0901 11.5558 45.103 11.585L45.122 11.636C45.122 11.643 45.1 11.673 45.084 11.683C45.0647 11.6957 45.0434 11.7052 45.021 11.711C44.9955 11.7182 44.9685 11.7182 44.943 11.711C44.8787 11.6863 44.8115 11.6699 44.743 11.662C44.692 11.662 44.693 11.762 44.655 11.784L44.812 11.925C44.864 11.972 44.826 11.968 44.838 11.991V12.026C44.8647 12.0613 44.8937 12.0947 44.925 12.126L45.137 12.353C45.281 12.503 45.4297 12.6493 45.583 12.792C45.891 13.077 46.215 13.35 46.547 13.616C47.22 14.136 47.891 14.671 48.516 15.227C49.007 15.66 49.501 16.096 49.99 16.527L52.041 19.145L52.494 19.987C52.731 20.425 53.094 20.781 53.249 21.119L53.498 21.666L53.623 21.935L53.686 22.069C53.692 22.088 53.686 22.08 53.686 22.086C53.942 22.971 54.467 24.459 54.799 25.306C54.89 25.663 54.983 26.022 55.076 26.386C55.183 26.786 55.261 27.186 55.336 27.586L55.449 28.177C55.486 28.358 55.549 28.647 55.533 28.562C55.533 28.476 55.549 28.768 55.569 28.951C55.5897 29.1525 55.6207 29.3527 55.662 29.551C55.577 29.551 55.592 29.551 55.538 29.661C55.6191 30.3582 55.6638 31.0592 55.672 31.761C55.7584 31.8083 55.8413 31.8618 55.92 31.921C55.812 31.898 55.72 31.974 55.626 32.084C55.582 32.644 55.539 33.214 55.5 33.791Z" fill="#BE0000"/>
<path d="M40.9 38.612L39.9 37.756C39.923 37.793 39.8 37.656 39.73 37.585L39.482 37.335C39.313 37.17 39.135 37.007 38.941 36.848C38.747 36.689 38.667 36.259 38.464 35.989C38.0013 35.4474 37.5113 34.9297 36.996 34.438C36.765 34.189 36.61 33.861 36.396 33.603C36.231 33.456 36.073 33.303 35.919 33.152L35.692 32.921L35.377 32.587L34.666 32.045C34.8475 31.9042 35.015 31.7461 35.166 31.573C35.301 31.417 35.347 31.156 35.515 31.048C35.546 31.032 35.641 30.957 35.715 30.904C35.8028 30.8177 35.8967 30.7378 35.996 30.665L36.208 30.495C36.353 30.3733 36.483 30.2347 36.595 30.082C36.9479 29.5436 37.3782 29.0601 37.872 28.647L37.764 28.534L37.885 28.413C37.921 28.379 37.904 28.401 37.916 28.393C37.928 28.385 37.916 28.404 37.945 28.38L38.078 28.28L38.342 28.072L38.861 27.646L39.883 26.778C40.583 26.218 41.198 25.568 41.917 25.027C41.9078 24.9724 41.8874 24.9203 41.857 24.874C42.2815 24.6253 42.648 24.2888 42.932 23.887C42.6655 23.5891 42.3802 23.3086 42.078 23.047C41.534 22.571 40.953 22.16 40.45 21.647C40.386 21.7513 40.3625 21.8755 40.384 21.996L40.116 21.922C39.633 22.522 38.847 22.822 38.51 23.553C38.481 23.5597 38.4508 23.5601 38.4216 23.5541C38.3925 23.548 38.3649 23.5357 38.341 23.518C38.249 23.631 38.078 23.672 37.998 23.793C37.918 23.914 37.963 24.093 37.856 24.193C37.633 24.41 37.345 24.372 37.107 24.62C36.8773 24.9408 36.5584 25.187 36.19 25.328L35.49 25.943L35.144 26.368L34.889 26.694L34.389 27.35C34.267 27.514 34.01 27.55 33.889 27.705L33.238 28.532L32.672 29.125C32.4776 29.3134 32.2715 29.4895 32.055 29.652C31.8759 29.3923 31.6638 29.157 31.424 28.952C31.266 28.823 31.004 28.784 30.892 28.621C30.687 28.246 30.4316 27.9008 30.133 27.595C29.6309 27.1877 29.191 26.7093 28.827 26.175L28.706 26.275C27.485 24.838 25.967 23.675 24.806 22.209C24.7525 22.221 24.7018 22.2435 24.657 22.275C24.4072 21.8626 24.0708 21.5094 23.671 21.24C23.3781 21.5118 23.1029 21.8021 22.847 22.109C22.381 22.662 21.982 23.252 21.482 23.767C21.5881 23.8302 21.7138 23.852 21.835 23.828L21.768 24.1C22.385 24.58 22.712 25.377 23.458 25.705C23.4657 25.7343 23.4673 25.7649 23.4626 25.7948C23.458 25.8248 23.4472 25.8534 23.431 25.879C23.547 25.971 23.594 26.148 23.731 26.214C23.868 26.28 24.039 26.227 24.154 26.324C24.395 26.524 24.38 26.813 24.654 27.024C24.928 27.235 25.33 27.484 25.454 27.874L27.233 29.552C27.383 29.689 27.397 29.952 27.533 30.083C28.042 30.577 28.471 30.999 29.027 31.492C29.1979 31.6564 29.3579 31.8318 29.506 32.017C29.406 32.08 29.339 32.093 29.228 32.169C29.017 32.477 28.668 32.66 28.466 32.983L28.116 33.165C27.8142 33.6173 27.4009 33.9841 26.916 34.23L27.024 34.383C26.581 34.559 26.333 35.009 26 35.297C25.817 35.454 25.62 35.497 25.436 35.637C25.1353 36.0146 24.8138 36.3751 24.473 36.717L23.956 37.223L23.336 37.808L23.07 38.143C22.857 38.407 22.752 38.883 22.509 39.076C22.266 39.269 22.338 39.389 22.172 39.602C22.101 39.693 21.908 39.702 21.823 39.802C21.6528 40.0535 21.5084 40.3215 21.392 40.602L21.381 40.618C21.674 40.8565 21.9512 41.1137 22.211 41.388L24.147 42.62C24.539 42.082 24.929 41.54 25.294 40.971C25.342 40.897 25.494 40.924 25.567 40.816L25.826 40.431C25.895 40.331 26.05 40.115 26.009 40.16L26.544 39.567C26.7583 39.3232 26.9586 39.0675 27.144 38.801C27.278 38.609 27.7 38.491 27.944 38.27C28.416 37.838 28.914 37.222 29.397 36.754C29.639 36.524 29.962 36.368 30.213 36.154C30.786 35.489 31.439 34.931 32.041 34.282C32.115 34.354 32.2 34.428 32.269 34.496C32.401 34.626 32.392 34.681 32.502 34.796C32.6086 34.849 32.7092 34.9134 32.802 34.988L32.967 35.125C32.935 35.088 33.067 35.216 33.178 35.288L33.351 35.635C33.7925 35.932 34.1472 36.341 34.379 36.82L34.536 36.72C34.704 37.149 35.127 37.42 35.394 37.761C35.501 37.9493 35.5985 38.1429 35.686 38.341C35.974 38.607 36.246 38.889 36.506 39.181L36.888 39.626L37.326 40.161L37.965 40.796C38.204 41.036 38.665 41.196 38.831 41.453C38.997 41.71 39.124 41.653 39.317 41.845C39.4 41.926 39.384 42.118 39.479 42.213C39.7111 42.4099 39.9627 42.5824 40.23 42.728L40.245 42.741C40.5139 42.4757 40.7995 42.2279 41.1 41.999L42.534 40.208C42.042 39.76 41.547 39.314 41.021 38.89C40.954 38.844 41 38.694 40.9 38.612ZM40.267 24.44C40.261 24.44 40.242 24.394 40.25 24.381C40.2773 24.3579 40.306 24.3366 40.336 24.317C40.3352 24.3415 40.3285 24.3655 40.3165 24.3869C40.3045 24.4083 40.2875 24.4265 40.267 24.44ZM41.562 23.805C41.518 23.835 41.48 23.913 41.434 23.929C41.412 23.936 41.379 23.85 41.356 23.842C41.3813 23.8137 41.4153 23.7948 41.4526 23.788C41.4899 23.7813 41.5284 23.7873 41.562 23.805ZM40.18 22.563C40.171 22.543 40.107 22.506 40.088 22.482C40.218 22.418 40.375 22.449 40.512 22.403C40.517 22.403 40.533 22.42 40.531 22.426C40.493 22.568 40.431 22.632 40.476 22.814C40.476 22.829 40.476 22.86 40.456 22.861C40.4125 22.8645 40.3688 22.857 40.329 22.839C40.289 22.816 40.215 22.685 40.172 22.661C40.145 22.646 40.101 22.722 40.084 22.715C40.067 22.708 40.022 22.658 40.029 22.649C40.036 22.64 40.164 22.62 40.18 22.603C40.196 22.586 40.189 22.583 40.18 22.563ZM39.68 26.021C39.6503 25.9961 39.6265 25.965 39.61 25.93C39.61 25.916 39.669 25.885 39.682 25.883C39.7036 25.8892 39.723 25.9013 39.738 25.918C39.746 25.928 39.761 25.967 39.754 25.977C39.747 25.987 39.694 26.026 39.679 26.021H39.68ZM39.68 24.401C39.703 24.395 39.731 24.351 39.753 24.354C39.775 24.357 39.791 24.409 39.812 24.422C39.745 24.443 39.76 24.452 39.683 24.4L39.68 24.401ZM39.686 22.734L39.786 22.78C39.744 22.853 39.742 22.865 39.795 22.967C39.758 22.991 39.725 22.978 39.688 22.975C39.651 22.972 39.658 23.006 39.629 23.01C39.6249 22.8975 39.5944 22.7875 39.54 22.689L39.686 22.734ZM39.542 26.007C39.5759 26.0285 39.6057 26.056 39.63 26.088C39.636 26.103 39.603 26.138 39.594 26.147C39.585 26.156 39.546 26.19 39.538 26.18C39.5144 26.1366 39.4969 26.0902 39.486 26.042C39.49 26.023 39.53 26 39.545 26.007H39.542ZM39.319 25.298C39.277 25.282 39.259 25.268 39.25 25.24C39.241 25.212 39.322 25.212 39.34 25.219C39.358 25.226 39.395 25.293 39.415 25.311C39.3836 25.318 39.3508 25.3141 39.322 25.3L39.319 25.298ZM39.273 23.923L39.364 23.858C39.357 23.931 39.36 23.947 39.276 23.923H39.273ZM39.303 23.71C39.29 23.732 39.286 23.793 39.268 23.81C39.2336 23.8194 39.1974 23.8194 39.163 23.81C39.15 23.805 39.111 23.737 39.125 23.731C39.1847 23.7192 39.2452 23.7121 39.306 23.71H39.303ZM38.929 25.61C38.929 25.604 38.937 25.59 38.95 25.601C38.963 25.612 39.05 25.643 39.057 25.675C39.0644 25.7091 39.065 25.7444 39.0586 25.7787C39.0522 25.8131 39.0391 25.8458 39.02 25.875C38.878 25.822 38.82 25.847 38.747 25.931C38.765 25.789 38.869 25.727 38.932 25.613L38.929 25.61ZM38.353 26.942C38.361 26.926 38.411 26.887 38.429 26.898C38.4816 26.9435 38.5289 26.9948 38.57 27.051C38.586 27.076 38.561 27.09 38.552 27.101C38.543 27.112 38.516 27.14 38.493 27.134C38.4415 27.1128 38.3936 27.0838 38.351 27.048C38.3417 27.014 38.3434 26.9779 38.356 26.945L38.353 26.942ZM38 24.867C37.9754 24.8615 37.9516 24.8531 37.929 24.842C37.921 24.836 37.929 24.813 37.929 24.808C37.929 24.803 37.957 24.782 37.966 24.787C37.9865 24.8073 38.0043 24.8302 38.019 24.855C38.019 24.864 38.007 24.868 38 24.867ZM38.331 25.533C38.331 25.548 38.272 25.588 38.259 25.577C38.2232 25.5318 38.1942 25.4816 38.173 25.428C38.173 25.412 38.248 25.398 38.262 25.407C38.29 25.4457 38.3126 25.4881 38.329 25.533H38.331ZM38.215 24.595L37.984 24.735C37.9639 24.6316 37.9193 24.5346 37.854 24.452C37.9207 24.451 37.987 24.4636 38.0487 24.489C38.1105 24.5145 38.1663 24.5522 38.213 24.6L38.215 24.595ZM37.907 24.934C37.941 24.9551 37.9706 24.9826 37.994 25.015C37.994 25.027 37.958 25.085 37.939 25.081C37.9157 25.0732 37.8946 25.0601 37.8773 25.0427C37.8599 25.0254 37.8468 25.0043 37.839 24.981C37.828 24.959 37.892 24.932 37.905 24.934H37.907ZM37.846 26.559C37.8614 26.5713 37.8731 26.5875 37.88 26.606C37.88 26.616 37.85 26.663 37.842 26.661C37.821 26.6415 37.804 26.6181 37.792 26.592C37.79 26.583 37.836 26.558 37.844 26.559H37.846ZM37.527 24.759C37.5935 24.7919 37.6447 24.8492 37.67 24.919C37.677 24.935 37.655 24.981 37.633 24.974C37.523 24.942 37.515 24.874 37.509 24.774C37.506 24.764 37.519 24.756 37.525 24.759H37.527ZM37.527 26.354C37.5576 26.3816 37.5816 26.4158 37.597 26.454C37.5962 26.4935 37.5891 26.5327 37.576 26.57C37.571 26.585 37.568 26.59 37.555 26.582C37.5224 26.5576 37.4931 26.529 37.468 26.497C37.4548 26.4654 37.45 26.431 37.454 26.397C37.457 26.381 37.509 26.348 37.524 26.354H37.527ZM37.142 28.124C37.178 28.088 37.234 28.106 37.291 28.114C37.231 28.144 37.226 28.2 37.207 28.255C37.202 28.271 37.138 28.283 37.138 28.273C37.138 28.263 37.119 28.144 37.139 28.124H37.142ZM36.281 28.242C36.269 28.242 36.272 28.212 36.281 28.209C36.29 28.206 36.341 28.228 36.355 28.222C36.438 28.19 36.455 28.175 36.442 28.083C36.442 28.062 36.486 28.044 36.492 28.042C36.498 28.04 36.535 28.07 36.532 28.083C36.5 28.213 36.445 28.284 36.278 28.242H36.281ZM36.861 28.224C36.861 28.216 36.887 28.192 36.893 28.198C36.899 28.204 36.939 28.305 36.939 28.305C36.939 28.305 36.861 28.232 36.858 28.224H36.861ZM37.061 27.937C37.0363 27.9368 37.0119 27.9321 36.989 27.923C36.984 27.917 36.998 27.881 37.001 27.875C37.004 27.869 37.013 27.857 37.018 27.862C37.0325 27.8856 37.0442 27.9107 37.053 27.937H37.061ZM36.786 25.707C36.798 25.707 36.828 25.747 36.82 25.754C36.7894 25.7863 36.7489 25.8075 36.7048 25.8142C36.6608 25.8209 36.6158 25.8128 36.577 25.791C36.635 25.767 36.716 25.725 36.778 25.707H36.786ZM36.435 27.321C36.479 27.281 36.479 27.195 36.521 27.145C36.55 27.22 36.686 27.398 36.693 27.456L36.707 27.472C36.707 27.467 36.707 27.472 36.707 27.472C36.707 27.472 36.707 27.529 36.726 27.54C36.8085 27.5698 36.8971 27.579 36.984 27.567C36.984 27.567 37.008 27.584 37.005 27.588L36.824 27.813C36.8428 27.8959 36.8907 27.9693 36.959 28.02C36.959 28.025 36.951 28.038 36.942 28.033L36.657 27.867C36.648 27.867 36.634 27.85 36.637 27.846C36.66 27.816 36.761 27.798 36.773 27.767C36.7796 27.7493 36.782 27.7303 36.7799 27.7116C36.7778 27.6928 36.7713 27.6748 36.761 27.659C36.738 27.626 36.625 27.597 36.587 27.566C36.587 27.497 36.582 27.494 36.653 27.506C36.671 27.506 36.707 27.472 36.707 27.472L36.697 27.451C36.697 27.48 36.558 27.283 36.535 27.292C36.512 27.301 36.512 27.358 36.481 27.361C36.45 27.364 36.351 27.317 36.309 27.313C36.328 27.3 36.4 27.344 36.427 27.321H36.435ZM36.322 28.092C36.334 28.092 36.346 28.108 36.344 28.114C36.342 28.12 36.304 28.156 36.293 28.152C36.2624 28.1291 36.2357 28.1014 36.214 28.07C36.2479 28.0743 36.2814 28.0816 36.314 28.092H36.322ZM36.268 28.332C36.278 28.338 36.237 28.353 36.237 28.359C36.237 28.365 36.285 28.404 36.275 28.401C36.2243 28.3859 36.1812 28.3523 36.154 28.307C36.206 28.3 36.2 28.293 36.26 28.332H36.268ZM35.6 29.554C35.734 29.545 35.781 29.554 35.844 29.446C35.8776 29.5352 35.9389 29.6113 36.019 29.663C35.9673 29.7033 35.9291 29.7584 35.9095 29.8209C35.8898 29.8834 35.8896 29.9504 35.909 30.013C35.917 30.047 35.915 30.093 35.897 30.097C35.819 30.113 35.814 30.097 35.74 30.034C35.65 30.062 35.59 30.089 35.556 30.171C35.556 30.178 35.547 30.189 35.536 30.183C35.525 30.177 35.49 30.132 35.474 30.12C35.55 30.02 35.607 29.91 35.745 29.873C35.6838 29.773 35.6351 29.6659 35.6 29.554ZM35.4 26.917C35.4399 26.9308 35.4776 26.9504 35.512 26.975C35.4919 27.0043 35.4633 27.0266 35.43 27.039C35.4031 27.0095 35.3815 26.9757 35.366 26.939C35.369 26.933 35.392 26.914 35.405 26.917H35.4ZM35.3 30.209C35.306 30.209 35.293 30.254 35.286 30.254C35.2603 30.2393 35.2356 30.2229 35.212 30.205C35.243 30.2043 35.2741 30.2056 35.305 30.209H35.3ZM35.147 26.917C35.1695 26.9354 35.19 26.9562 35.208 26.979C35.208 26.987 35.2 26.993 35.191 26.993C35.1657 26.991 35.1408 26.9857 35.117 26.977C35.109 26.977 35.11 26.948 35.117 26.943C35.124 26.938 35.142 26.914 35.152 26.917H35.147ZM22.5 24.173C22.478 24.156 22.467 24.037 22.45 24.02C22.433 24.003 22.43 24.011 22.41 24.02C22.39 24.029 22.355 24.095 22.332 24.115C22.264 23.985 22.29 23.825 22.24 23.688C22.24 23.688 22.256 23.666 22.262 23.668C22.406 23.704 22.472 23.768 22.651 23.716C22.667 23.716 22.697 23.716 22.699 23.735C22.7042 23.7788 22.698 23.8233 22.681 23.864C22.659 23.905 22.53 23.983 22.508 24.026C22.494 24.054 22.571 24.097 22.565 24.114C22.559 24.131 22.509 24.18 22.5 24.173ZM22.557 24.673L22.596 24.521L22.64 24.421C22.714 24.462 22.726 24.465 22.825 24.409C22.85 24.445 22.839 24.479 22.837 24.517C22.835 24.555 22.869 24.547 22.874 24.576C22.7625 24.581 22.6538 24.6125 22.557 24.668V24.673ZM28.438 27.773C28.4178 27.8222 28.3805 27.8623 28.333 27.886C28.333 27.825 28.325 27.829 28.368 27.773C28.376 27.764 28.387 27.807 28.393 27.807C28.399 27.807 28.442 27.755 28.438 27.765V27.773ZM28.316 27.162C28.307 27.162 28.286 27.133 28.293 27.128C28.3 27.123 28.402 27.092 28.402 27.092C28.402 27.092 28.324 27.152 28.316 27.154V27.162ZM28.245 26.72C28.27 26.783 28.324 26.793 28.377 26.82C28.392 26.827 28.399 26.892 28.389 26.891C28.379 26.89 28.26 26.896 28.242 26.873C28.21 26.823 28.232 26.768 28.245 26.712V26.72ZM28.045 26.94C28.0433 26.9649 28.0361 26.9892 28.024 27.011C28.018 27.011 27.984 26.998 27.978 26.995C27.972 26.992 27.961 26.981 27.968 26.976C27.9933 26.9578 28.0208 26.943 28.05 26.932L28.045 26.94ZM25.745 24.352C25.755 24.344 25.793 24.326 25.804 24.332C25.815 24.338 25.858 24.386 25.854 24.4C25.831 24.4315 25.8013 24.4574 25.767 24.476C25.752 24.476 25.717 24.422 25.714 24.409C25.711 24.396 25.74 24.353 25.749 24.344L25.745 24.352ZM25.555 25.033C25.5894 25.0221 25.6256 25.0182 25.6615 25.0217C25.6974 25.0251 25.7323 25.0358 25.764 25.053C25.7402 25.0983 25.7353 25.1511 25.7503 25.2C25.7653 25.2488 25.799 25.2898 25.844 25.314C25.69 25.314 25.619 25.214 25.499 25.163C25.492 25.163 25.478 25.157 25.488 25.143C25.498 25.129 25.527 25.037 25.559 25.025L25.555 25.033ZM23.681 25.033C23.681 25.046 23.61 25.088 23.603 25.073C23.59 25.0137 23.581 24.9535 23.576 24.893C23.599 24.906 23.659 24.908 23.676 24.926C23.6856 24.957 23.6886 24.9897 23.685 25.022L23.681 25.033ZM23.647 22.817C23.6184 22.7922 23.5989 22.7586 23.5915 22.7215C23.5841 22.6844 23.5892 22.6459 23.606 22.612C23.637 22.655 23.715 22.691 23.731 22.736C23.743 22.747 23.658 22.782 23.651 22.806L23.647 22.817ZM23.789 24.917L23.721 24.826C23.8 24.823 23.813 24.82 23.793 24.906L23.789 24.917ZM24.142 23.829C24.1661 23.8289 24.1899 23.8348 24.2112 23.8462C24.2325 23.8575 24.2506 23.8739 24.264 23.894C24.264 23.9 24.22 23.921 24.207 23.913C24.1848 23.8826 24.1644 23.8508 24.146 23.818L24.142 23.829ZM24.242 24.487C24.236 24.464 24.191 24.437 24.193 24.415C24.195 24.393 24.247 24.374 24.258 24.353C24.288 24.412 24.3 24.4 24.249 24.476L24.242 24.487ZM24.405 26.316C24.3976 26.2504 24.404 26.1839 24.4238 26.1209C24.4436 26.0578 24.4764 25.9996 24.52 25.95L24.682 26.166C24.5827 26.1916 24.4905 26.2391 24.412 26.305L24.405 26.316ZM24.805 26.124C24.813 26.124 24.819 26.132 24.818 26.141C24.8146 26.1654 24.8082 26.1892 24.799 26.212C24.793 26.22 24.769 26.218 24.764 26.212C24.759 26.206 24.735 26.187 24.74 26.178C24.7596 26.153 24.7829 26.1311 24.809 26.113L24.805 26.124ZM24.762 26.631C24.755 26.631 24.746 26.62 24.749 26.614C24.7774 26.5454 24.8311 26.4902 24.899 26.46C24.915 26.452 24.963 26.471 24.958 26.493C24.938 26.592 24.87 26.605 24.766 26.62L24.762 26.631ZM24.944 26.293C24.926 26.3 24.893 26.239 24.894 26.227C24.9121 26.1913 24.9377 26.1599 24.969 26.135C24.981 26.135 25.043 26.164 25.041 26.183C25.0339 26.2054 25.0218 26.2259 25.0057 26.2431C24.9896 26.2602 24.9699 26.2735 24.948 26.282L24.944 26.293ZM25.144 24.81C25.13 24.852 25.117 24.871 25.09 24.881C25.063 24.891 25.056 24.813 25.061 24.796C25.066 24.779 25.133 24.736 25.149 24.715C25.1597 24.7421 25.1611 24.772 25.153 24.8L25.144 24.81ZM25.368 25.926C25.352 25.926 25.332 25.855 25.34 25.841C25.3765 25.8093 25.4176 25.7833 25.462 25.764C25.477 25.764 25.522 25.817 25.512 25.83C25.4711 25.8644 25.4257 25.893 25.377 25.915L25.368 25.926ZM25.874 27.474C25.844 27.411 25.794 27.335 25.774 27.274C25.769 27.263 25.81 27.23 25.818 27.237C25.8525 27.262 25.8776 27.2979 25.8894 27.3388C25.9012 27.3798 25.8989 27.4235 25.883 27.463L25.874 27.474ZM25.885 24.587C25.865 24.587 25.842 24.55 25.845 24.536C25.8639 24.5005 25.8893 24.469 25.92 24.443C25.935 24.436 25.973 24.465 25.983 24.473C25.993 24.481 26.029 24.517 26.02 24.525C25.9803 24.5472 25.9379 24.5643 25.894 24.576L25.885 24.587ZM26.503 26.533C26.4739 26.5479 26.4416 26.5555 26.409 26.555C26.392 26.555 26.354 26.502 26.359 26.486C26.383 26.454 26.4142 26.4279 26.45 26.41C26.4896 26.4065 26.5295 26.4099 26.568 26.42C26.584 26.42 26.589 26.427 26.582 26.44C26.5621 26.4701 26.5386 26.4976 26.512 26.522L26.503 26.533ZM26.577 26.205C26.567 26.205 26.539 26.163 26.54 26.155C26.541 26.147 26.575 26.118 26.584 26.117C26.593 26.116 26.643 26.142 26.643 26.15C26.6265 26.1677 26.6073 26.1826 26.586 26.194L26.577 26.205ZM26.92 28.796C26.914 28.804 26.891 28.796 26.886 28.796C26.881 28.796 26.859 28.769 26.864 28.76C26.8837 28.7387 26.9062 28.7202 26.931 28.705C26.939 28.705 26.944 28.714 26.943 28.723C26.9404 28.7441 26.9357 28.7649 26.929 28.785L26.92 28.796ZM26.91 28.543C26.9 28.543 26.883 28.52 26.887 28.507C26.904 28.4683 26.9266 28.4322 26.954 28.4C26.9809 28.4227 27.0005 28.453 27.01 28.487C26.9822 28.5067 26.9515 28.5218 26.919 28.532L26.91 28.543ZM27 25.6C26.966 25.6139 26.9286 25.6167 26.893 25.608C26.876 25.602 26.833 25.556 26.843 25.537C26.8843 25.4813 26.9319 25.4306 26.985 25.386C27.009 25.368 27.025 25.392 27.037 25.399C27.049 25.406 27.08 25.431 27.075 25.454C27.0575 25.5062 27.0322 25.5554 27 25.6ZM27.925 27.353C27.898 27.328 27.889 27.224 27.859 27.21C27.8423 27.2014 27.8238 27.1969 27.805 27.1969C27.7862 27.1969 27.7677 27.2014 27.751 27.21C27.717 27.23 27.679 27.341 27.645 27.376C27.576 27.376 27.573 27.376 27.591 27.305C27.591 27.287 27.562 27.248 27.562 27.248L27.541 27.255C27.57 27.255 27.363 27.38 27.37 27.404C27.377 27.428 27.433 27.433 27.433 27.465C27.433 27.497 27.378 27.592 27.37 27.633C27.359 27.601 27.405 27.533 27.384 27.503C27.35 27.456 27.262 27.445 27.221 27.403C27.3243 27.3467 27.4312 27.2972 27.541 27.255L27.558 27.243V27.248C27.558 27.248 27.615 27.254 27.627 27.235C27.667 27.1535 27.6822 27.0621 27.671 26.972C27.671 26.966 27.689 26.948 27.694 26.953L27.905 27.16C27.9892 27.1496 28.0665 27.1083 28.122 27.044C28.122 27.044 28.138 27.054 28.133 27.062L27.944 27.334C27.944 27.345 27.93 27.358 27.927 27.354L27.925 27.353ZM28.142 30.318C28.1042 30.3212 28.0661 30.3153 28.031 30.301C28.019 30.292 28 30.218 28.009 30.211C28.0529 30.202 28.0981 30.202 28.142 30.211C28.1551 30.2457 28.1559 30.2839 28.144 30.319L28.142 30.318ZM28.106 27.8C28.1124 27.7636 28.1228 27.7281 28.137 27.694C28.137 27.682 28.155 27.671 28.16 27.675C28.165 27.679 28.198 27.718 28.193 27.729C28.1681 27.7573 28.1387 27.7813 28.106 27.8ZM28.282 27.744C28.282 27.756 28.252 27.751 28.248 27.744C28.244 27.737 28.272 27.686 28.268 27.671C28.244 27.585 28.231 27.564 28.138 27.571C28.118 27.571 28.104 27.524 28.103 27.518C28.102 27.512 28.134 27.477 28.147 27.481C28.273 27.515 28.338 27.576 28.282 27.739V27.744ZM28.464 30.311C28.414 30.25 28.327 30.2 28.292 30.134C28.278 30.107 28.354 30.051 28.356 30.02C28.4112 30.0831 28.462 30.1499 28.508 30.22C28.519 30.234 28.464 30.279 28.464 30.306V30.311ZM23.964 37.985C23.9409 37.9678 23.9235 37.9442 23.914 37.917C23.9442 37.9065 23.976 37.9008 24.008 37.9C24.018 37.9 24.029 37.916 24.025 37.924C24.021 37.932 23.978 37.981 23.968 37.98L23.964 37.985ZM24.329 37.697C24.2923 37.6782 24.262 37.649 24.242 37.613C24.242 37.602 24.29 37.584 24.3 37.583C24.31 37.582 24.347 37.613 24.355 37.619C24.363 37.625 24.375 37.638 24.372 37.645C24.369 37.652 24.344 37.7 24.333 37.692L24.329 37.697ZM25.01 38.246C24.9717 38.2268 24.9363 38.2023 24.905 38.173C24.905 38.163 24.969 38.131 24.982 38.133C25.0094 38.1477 25.0332 38.1682 25.052 38.193C25.059 38.2 25.028 38.243 25.014 38.241L25.01 38.246ZM25.493 38.072C25.482 38.078 25.468 38.023 25.479 38.016C25.526 37.986 25.609 37.948 25.662 37.922C25.662 37.922 25.683 37.942 25.678 37.945C25.6207 37.9886 25.5613 38.0293 25.5 38.067L25.493 38.072ZM27.093 37.21C27.0682 37.2058 27.0445 37.197 27.023 37.184C27.0459 37.1673 27.0712 37.1542 27.098 37.145C27.1032 37.1646 27.1039 37.1851 27.1 37.205L27.093 37.21ZM27.261 37.051C27.251 37.071 27.186 37.059 27.166 37.073C27.143 36.988 27.174 36.979 27.197 36.919C27.197 36.909 27.232 36.89 27.236 36.899C27.251 36.9201 27.2615 36.944 27.2668 36.9693C27.2721 36.9946 27.2722 37.0207 27.267 37.046L27.261 37.051ZM27.982 35.029C27.949 35.078 27.862 35.089 27.822 35.115C27.813 35.122 27.781 35.079 27.788 35.068C27.831 35.002 27.888 34.919 27.943 34.854C27.962 34.831 28.002 34.827 28.025 34.81C28.008 34.866 28.021 34.976 27.988 35.024L27.982 35.029ZM29.236 32.898C29.228 32.898 29.186 32.871 29.184 32.86C29.1863 32.8326 29.1945 32.806 29.208 32.782C29.2235 32.7652 29.2443 32.7543 29.267 32.751C29.28 32.751 29.338 32.761 29.339 32.779C29.346 32.828 29.291 32.875 29.242 32.893L29.236 32.898ZM33.836 30.852C33.858 30.8338 33.8826 30.819 33.909 30.808C33.919 30.808 33.928 30.822 33.928 30.832C33.9256 30.8595 33.9182 30.8863 33.906 30.911C33.8835 30.9215 33.8584 30.9249 33.834 30.921C33.8282 30.896 33.8314 30.8698 33.843 30.847L33.836 30.852ZM34.8 29.74C34.8157 29.7632 34.8294 29.7876 34.841 29.813C34.8102 29.8031 34.7801 29.7911 34.751 29.777C34.747 29.771 34.793 29.737 34.8 29.74ZM34.5 30.095C34.522 30.077 34.589 30.025 34.613 30.03C34.637 30.035 34.683 30.138 34.683 30.156C34.683 30.174 34.651 30.224 34.627 30.225C34.5702 30.2175 34.5127 30.2175 34.456 30.225C34.456 30.225 34.432 30.213 34.44 30.199C34.4552 30.1634 34.4754 30.13 34.5 30.1V30.095ZM33.913 28.473C33.937 28.457 34 28.529 34.031 28.528C33.9752 28.589 33.9151 28.6458 33.851 28.698C33.829 28.712 33.779 28.661 33.751 28.664C33.812 28.607 33.853 28.515 33.916 28.473H33.913ZM33.713 28.23C33.721 28.217 33.793 28.191 33.8 28.2C33.8129 28.2434 33.817 28.289 33.812 28.334C33.7786 28.3487 33.7415 28.3522 33.706 28.344C33.7022 28.3054 33.7069 28.2665 33.72 28.23H33.713ZM33.797 30.43C33.805 30.454 33.752 30.522 33.743 30.53C33.734 30.538 33.694 30.542 33.686 30.53C33.6506 30.4707 33.6217 30.4076 33.6 30.342C33.6 30.32 33.656 30.291 33.675 30.299C33.7236 30.3359 33.7658 30.3805 33.8 30.431L33.797 30.43ZM33.609 29.721C33.6222 29.7213 33.6351 29.7255 33.646 29.733C33.651 29.733 33.669 29.748 33.662 29.759C33.655 29.77 33.6 29.833 33.588 29.833C33.576 29.833 33.57 29.755 33.572 29.744C33.574 29.733 33.608 29.724 33.616 29.722L33.609 29.721ZM33.338 29.521C33.3457 29.5427 33.3457 29.5663 33.338 29.588C33.3151 29.5969 33.2904 29.6 33.266 29.597C33.258 29.597 33.243 29.548 33.25 29.541C33.2801 29.5283 33.3123 29.5215 33.345 29.521H33.338ZM33.247 30.686C33.253 30.699 33.217 30.765 33.21 30.775C33.203 30.785 33.198 30.792 33.19 30.787C33.1779 30.7746 33.1669 30.7612 33.157 30.747C33.146 30.728 33.133 30.707 33.147 30.71C33.161 30.713 33.158 30.701 33.155 30.691L33.161 30.676C33.1923 30.6719 33.2242 30.6754 33.254 30.686H33.247ZM33 29.472C33.005 29.479 33 29.54 33 29.538C32.9754 29.5101 32.953 29.4804 32.933 29.449C32.9567 29.4517 32.9796 29.4596 33 29.472ZM29.638 30.486C29.649 30.492 29.715 30.546 29.715 30.558C29.6868 30.5699 29.6565 30.576 29.626 30.576C29.616 30.576 29.604 30.548 29.602 30.54C29.6019 30.5269 29.6058 30.514 29.613 30.503C29.613 30.503 29.625 30.48 29.636 30.486H29.638ZM29.628 29.361C29.6526 29.3472 29.6784 29.3355 29.705 29.326C29.6922 29.3564 29.6771 29.3858 29.66 29.414C29.652 29.416 29.623 29.368 29.626 29.361H29.628ZM29.888 29.538C29.888 29.518 29.994 29.466 30.012 29.465C30.03 29.464 30.081 29.496 30.083 29.52C30.076 29.5761 30.076 29.6329 30.083 29.689C30.083 29.689 30.071 29.713 30.057 29.706C30.0196 29.6917 29.9843 29.6725 29.952 29.649C29.935 29.627 29.882 29.562 29.886 29.538H29.888ZM30.848 32.838C30.8415 32.8431 30.8344 32.8475 30.827 32.851C30.8218 32.8442 30.8161 32.8379 30.81 32.832C30.8223 32.8331 30.8344 32.8358 30.846 32.84L30.848 32.838ZM30.7 30.2C30.7276 30.2018 30.7547 30.2086 30.78 30.22C30.7908 30.2424 30.7946 30.2674 30.791 30.292C30.7685 30.299 30.7444 30.299 30.722 30.292C30.7031 30.2701 30.6875 30.2455 30.676 30.219C30.675 30.205 30.69 30.2 30.7 30.2ZM30.575 30.882C30.588 30.876 30.655 30.911 30.666 30.916C30.677 30.921 30.683 30.928 30.678 30.937C30.6574 30.9576 30.6342 30.9754 30.609 30.99C30.597 30.99 30.566 30.981 30.563 30.971C30.5592 30.9391 30.5636 30.9067 30.576 30.877L30.575 30.882ZM30.306 30.34C30.33 30.332 30.399 30.383 30.406 30.392C30.413 30.401 30.42 30.44 30.406 30.448C30.3474 30.4849 30.2851 30.5154 30.22 30.539C30.197 30.539 30.167 30.485 30.175 30.466C30.211 30.415 30.2557 30.3707 30.307 30.335L30.306 30.34ZM30.18 28.922C30.1631 28.9464 30.1447 28.9698 30.125 28.992C30.127 28.9625 30.1307 28.9331 30.136 28.904C30.142 28.893 30.182 28.91 30.181 28.917L30.18 28.922ZM29.662 28.133C29.6966 28.1884 29.7473 28.232 29.8074 28.2577C29.8675 28.2834 29.934 28.2902 29.998 28.277C30.033 28.277 30.079 28.277 30.081 28.297C30.089 28.377 30.074 28.38 30.004 28.448C30.0055 28.4886 30.0172 28.5282 30.038 28.5632C30.0588 28.5981 30.088 28.6273 30.123 28.648C30.129 28.648 30.139 28.658 30.133 28.669C30.127 28.68 30.078 28.71 30.064 28.725C29.964 28.639 29.864 28.572 29.845 28.425C29.7406 28.477 29.63 28.5156 29.516 28.54C29.516 28.405 29.529 28.359 29.431 28.286C29.5231 28.2593 29.6044 28.204 29.663 28.128L29.662 28.133ZM29.342 31.233C29.3446 31.2088 29.3521 31.1853 29.364 31.164C29.3857 31.159 29.4083 31.159 29.43 31.164C29.403 31.1888 29.3739 31.2112 29.343 31.231L29.342 31.233ZM29.426 30.905C29.4133 30.8773 29.4058 30.8474 29.404 30.817C29.404 30.808 29.464 30.81 29.471 30.817C29.4808 30.8397 29.485 30.8644 29.483 30.889C29.479 30.894 29.434 30.91 29.427 30.9L29.426 30.905ZM30.202 35.067C30.196 35.032 30.174 34.94 30.175 34.917C30.176 34.894 30.185 34.903 30.196 34.903C30.2222 34.9062 30.2473 34.9159 30.269 34.931C30.28 34.944 30.326 34.984 30.317 35.004C30.308 35.024 30.226 35.048 30.2 35.065L30.202 35.067ZM31.385 33.984C31.374 33.977 31.33 33.908 31.316 33.891C31.3406 33.8907 31.3649 33.8963 31.3869 33.9075C31.4088 33.9186 31.4277 33.9349 31.442 33.955C31.453 33.965 31.4 33.989 31.386 33.982L31.385 33.984ZM31.535 33.828L31.545 33.836L31.535 33.828ZM33.185 34.75C33.1574 34.7518 33.1298 34.7478 33.104 34.738C33.0858 34.7244 33.0722 34.7055 33.065 34.684C33.065 34.67 33.065 34.611 33.082 34.608C33.1098 34.608 33.1371 34.6158 33.1607 34.6307C33.1842 34.6456 33.203 34.6668 33.215 34.692C33.2116 34.7133 33.2014 34.733 33.186 34.748L33.185 34.75ZM35.143 33.526C35.157 33.515 35.198 33.47 35.217 33.479C35.236 33.488 35.262 33.572 35.28 33.596C35.244 33.596 35.151 33.621 35.128 33.62C35.105 33.619 35.115 33.61 35.114 33.599C35.1176 33.5719 35.1279 33.5461 35.144 33.524L35.143 33.526ZM35.237 35.989C35.1633 35.9404 35.0922 35.888 35.024 35.832C35.002 35.814 34.999 35.774 34.982 35.751C35.043 35.774 35.154 35.764 35.202 35.797C35.25 35.83 35.26 35.917 35.285 35.956C35.292 35.964 35.248 35.994 35.238 35.987L35.237 35.989ZM37.06 36.653C37.051 36.653 37.034 36.616 37.043 36.612C37.0666 36.5984 37.0929 36.5902 37.1201 36.5881C37.1473 36.5861 37.1746 36.5901 37.2 36.6C37.22 36.612 37.2 36.677 37.216 36.7C37.125 36.71 37.119 36.678 37.061 36.651L37.06 36.653ZM37.31 36.847C37.295 36.8228 37.2836 36.7965 37.276 36.769C37.2977 36.766 37.3199 36.7692 37.34 36.778C37.3345 36.8019 37.3247 36.8246 37.311 36.845L37.31 36.847ZM37.523 39.663C37.511 39.663 37.498 39.614 37.498 39.604C37.498 39.594 37.531 39.559 37.539 39.552C37.547 39.545 37.559 39.533 37.565 39.537C37.571 39.541 37.619 39.572 37.613 39.583C37.5914 39.617 37.5605 39.6441 37.524 39.661L37.523 39.663ZM37.923 40.1C37.9114 40.0702 37.9044 40.0389 37.902 40.007C37.902 39.997 37.918 39.985 37.926 39.989C37.934 39.993 37.989 40.038 37.989 40.048C37.989 40.058 37.935 40.1 37.927 40.1H37.923ZM38.023 38.461C37.997 38.412 37.965 38.326 37.943 38.271C37.943 38.265 37.965 38.251 37.968 38.256C38.001 38.311 38.055 38.398 38.079 38.456C38.085 38.46 38.029 38.47 38.023 38.459V38.461ZM38.133 39.045C38.123 39.045 38.097 38.979 38.1 38.966C38.1169 38.9398 38.139 38.9173 38.165 38.9C38.176 38.9 38.217 38.933 38.214 38.946C38.1923 38.9824 38.1649 39.0152 38.133 39.043V39.045Z" fill="#FF424C"/>
</svg>
