<svg width="64" height="64" viewBox="0 0 64 64" fill="none" xmlns="http://www.w3.org/2000/svg">
<path d="M59.038 33.34C59.024 33.062 58.864 32.953 58.838 32.686C58.399 32.624 58.087 32.12 57.67 32.025C57.584 32.005 57.583 32.211 57.521 32.225C57.1388 32.2298 56.7584 32.1734 56.394 32.058L56.524 31.992C56.5206 31.9772 56.5206 31.9618 56.524 31.947C56.524 31.934 56.555 31.947 56.582 31.965L56.66 31.926C56.6772 31.8236 56.6823 31.7196 56.675 31.616C56.675 31.597 56.716 31.544 56.729 31.567C56.7636 31.6431 56.7917 31.7221 56.813 31.803L56.82 31.844C57.4246 31.5045 58.0541 31.2113 58.703 30.967C58.635 30.357 58.569 29.752 58.524 29.153C58.481 28.507 58.343 28.122 58.265 27.465C58.2056 26.8445 58.1802 26.2212 58.189 25.598L58.055 25.098L57.987 24.851L57.895 24.439L57.695 24.039L57.56 23.797C57.4844 23.2834 57.3443 22.7815 57.143 22.303C57.043 22.061 56.93 21.825 56.807 21.595L56.371 20.838L56.303 20.748C56.147 20.399 56.08 20.202 55.964 19.922L55.164 19.175C55.1948 19.0931 55.2055 19.0049 55.195 18.918C55.265 18.903 55.245 18.905 55.33 18.954C55.353 18.968 55.392 18.919 55.404 18.908C55.094 18.408 54.389 17.583 54.144 17.189C53.914 16.789 54.12 16.853 53.973 16.538L53.373 15.998C53.317 15.826 53.373 15.726 53.298 15.542C53.2091 15.3445 53.0999 15.1568 52.972 14.982C52.813 14.764 52.643 14.531 52.479 14.308L52.171 14.038C51.787 13.711 51.628 13.227 51.151 13.015C50.928 12.682 50.771 12.678 50.672 12.889C50.662 12.91 50.578 12.857 50.583 12.843C50.6333 12.7383 50.7195 12.6553 50.826 12.609L49.683 11.567L48.89 11.016C48.677 10.872 48.641 10.716 48.426 10.594C48.326 10.54 48.206 10.543 48.103 10.494C47.698 10.0014 47.2095 9.58368 46.66 9.25999C46.236 9.021 45.991 8.91099 45.701 8.77299C45.3766 8.48958 45.0381 8.22258 44.687 7.973L44.13 7.58799L43.4 7.118L42.451 6.8L41.668 6.563C41.149 6.413 40.64 6.278 40.157 6.156C39.9888 6.05761 39.8152 5.96881 39.637 5.88999C39.4548 5.83873 39.2756 5.77764 39.1 5.70699C38.573 5.62599 38.047 5.51799 37.522 5.407L36.735 5.24599L35.8 5.07499L35.439 5.08099L35.227 5.091L34.807 5.12099C34.527 5.14599 34.25 5.18199 33.975 5.23299C33.7073 5.22612 33.4425 5.1758 33.191 5.084C32.3797 5.0068 31.5649 4.97342 30.75 4.984L29.537 5.01499L28.114 5.08599L27.714 5.223L27.468 5.315L27.043 5.48199C25.9566 5.6677 24.8987 5.99341 23.896 6.451C23.3324 6.41214 22.7664 6.47307 22.224 6.631L22.245 6.81799C22.017 6.82799 21.794 6.844 21.574 6.867L21.232 6.90999L20.62 7.02899L19.667 7.643C19.434 7.802 19.202 7.97199 18.967 8.15499C18.7593 8.31285 18.5887 8.51423 18.467 8.74499L18.049 8.73799L15.809 10.332C15.0506 10.8336 14.3547 11.4237 13.736 12.09C13.6954 12.1144 13.6504 12.1306 13.6035 12.1374C13.5567 12.1443 13.5089 12.1418 13.463 12.13C13.21 12.359 12.863 12.519 12.64 12.764C12.417 13.009 12.355 13.264 12.09 13.494C11.99 13.582 11.908 13.643 11.79 13.726L11.298 14.083L11 14.528C10.9 14.677 10.863 14.702 10.791 14.801C10.6511 14.9824 10.527 15.1754 10.42 15.378C10.0586 16.2004 9.58029 16.9663 9.00001 17.652L7.12001 20.552L6.28001 23C6.20605 23.2027 6.11227 23.3977 6.00001 23.582L5.84001 23.861L5.76401 24L5.65001 24.278L5.61201 24.463C5.38101 25.722 5.17801 26.832 4.95101 28.077L4.82401 29.325C4.78801 29.69 4.72901 30.087 4.66401 30.501L4.56401 31.133L4.44501 31.951L4.50101 32.809C4.51901 33.035 4.54201 33.259 4.57201 33.476C4.62221 33.8916 4.71195 34.3014 4.84001 34.7C4.82897 34.8309 4.76812 34.9526 4.67001 35.04L4.73001 35.408L4.75701 35.597L4.79201 35.933C5.21101 37.41 5.37101 38.333 5.65201 39.716L5.67201 39.816C5.75499 39.9956 5.82354 40.1815 5.87701 40.372C5.90801 40.481 5.93701 40.586 5.99901 40.751C6.42701 41.495 6.69901 42.351 7.14601 43.092C7.23101 43.38 7.34601 43.653 7.44601 43.932C7.7344 44.3601 7.99849 44.8042 8.23701 45.262L8.57601 45.949C8.70101 46.224 8.82701 46.503 8.95801 46.789L9.13501 47.048L9.22001 47.185L9.38801 47.461L9.57201 47.397C9.80633 47.8284 10.0816 48.2363 10.394 48.615L10.864 49.192L11.096 49.477L11.415 49.889L11.687 50.14C12.087 50.519 12.302 50.87 12.668 51.246L13.416 51.872L14.216 52.565C15.354 53.408 16.085 53.976 17.244 54.887L18.835 55.847C19.1046 56.0039 19.382 56.147 19.666 56.276L20.108 56.485L20.324 56.585L20.624 56.746L21.015 56.908C21.107 56.95 21.194 56.993 21.274 57.038C21.7059 57.2475 22.1536 57.4227 22.613 57.562C22.859 57.67 23.054 57.919 23.337 58.046C23.596 58.161 23.706 58.197 24.259 58.416L24.579 58.451L24.738 58.468L24.821 58.474L25.152 58.493L25.812 58.533C26.501 58.584 27.312 59.011 27.962 58.884C28.0279 58.9635 28.116 59.0216 28.215 59.051C28.2981 59.0631 28.382 59.0695 28.466 59.07C29.4892 59.0968 30.513 59.0678 31.533 58.983C31.7417 59.031 31.9531 59.0668 32.166 59.09C32.848 59.084 33.546 59 34.218 58.932C34.4475 59.0047 34.6848 59.05 34.925 59.067C35.049 59.077 35.175 59.082 35.303 59.084L35.803 59.077L36.509 58.969L37.996 58.729L39.696 58.434L40.959 57.934C41.3561 57.7801 41.7626 57.6519 42.176 57.55L42.755 57.388C42.955 57.324 43.069 57.288 43.543 57.103L43.913 56.839C44.077 56.706 44.167 56.51 44.313 56.41C44.733 56.127 45.175 56.082 45.572 55.774C46.757 54.88 47.998 54.068 49.214 53.225C49.444 53.065 49.368 52.978 49.614 52.763C49.695 52.693 49.777 52.63 49.859 52.57C49.9628 52.4473 50.0747 52.3317 50.194 52.224L50.417 52.058C50.5747 51.9567 50.7198 51.8368 50.849 51.701C51.649 50.807 52.339 49.835 53.113 48.933L54.284 48L54.627 47.6L55.215 46.949L56.545 43.612C56.945 42.595 57.275 41.561 57.602 40.577L57.746 40.152L57.937 39.636L58.072 39.079L58.189 38.633L58.439 37.758L58.7 36.9L58.828 36.469L58.993 35.862L59.055 34.527C59.061 34.133 59.059 33.74 59.038 33.34ZM58.1 30.866C58.076 30.901 58.062 30.974 58.047 30.966C58.0228 30.9059 58.006 30.8431 57.997 30.779C57.997 30.753 57.975 30.739 57.997 30.725C58.0455 30.7154 58.0946 30.7091 58.144 30.706C58.1443 30.7624 58.1291 30.8177 58.1 30.866ZM58.215 29.92C58.25 30.0465 58.2728 30.1761 58.283 30.307C58.283 30.345 58.159 30.363 58.14 30.323C58.1076 30.1943 58.0832 30.0637 58.067 29.932C58.067 29.915 58.079 29.875 58.093 29.879C58.107 29.883 58.2 29.881 58.214 29.92H58.215ZM58.134 28.184L58.124 29.29L57.932 29.261C57.9797 28.9298 57.9874 28.594 57.955 28.261L58.134 28.184ZM57.859 27.802C57.9197 27.8042 57.98 27.8126 58.039 27.827C58.055 27.835 58.067 27.868 58.045 27.876C57.9793 27.8908 57.9123 27.8989 57.845 27.9C57.832 27.9 57.84 27.807 57.858 27.8L57.859 27.802ZM57.337 27.138C57.347 27.132 57.38 27.207 57.381 27.229C57.3751 27.2803 57.3631 27.3306 57.345 27.379C57.335 27.379 57.274 27.313 57.274 27.291C57.287 27.2372 57.3079 27.1857 57.336 27.138H57.337ZM56.877 30.638C56.915 30.638 56.988 30.512 57.017 30.538C57.046 30.564 57.029 30.73 57.049 30.779C57.0121 30.7695 56.9775 30.7523 56.9477 30.7285C56.9179 30.7047 56.8935 30.6749 56.876 30.641L56.877 30.638ZM57.137 31.398C57.1226 31.4531 57.0986 31.5052 57.066 31.552C57.053 31.563 57.011 31.53 57.002 31.51C56.9902 31.4626 56.9848 31.4138 56.986 31.365C56.991 31.343 57.026 31.306 57.041 31.309C57.056 31.312 57.133 31.375 57.136 31.4L57.137 31.398ZM57.066 28.47C56.966 28.431 56.966 28.435 56.914 28.28C56.946 28.295 57.008 28.242 57.034 28.274C57.06 28.306 57.05 28.425 57.065 28.473L57.066 28.47ZM56.866 24.67C56.8899 24.673 56.9136 24.6774 56.937 24.683C56.944 24.685 56.9503 24.6886 56.9557 24.6934C56.9611 24.6983 56.9653 24.7043 56.968 24.711C56.987 24.752 56.993 24.894 57.008 24.953C56.908 24.895 56.89 24.861 56.851 24.706L56.835 24.677C56.829 24.671 56.85 24.668 56.867 24.676L56.866 24.67ZM56.848 25.19C56.8542 25.1966 56.8581 25.2049 56.8594 25.2139C56.8606 25.2228 56.8591 25.2319 56.855 25.24C56.846 25.25 56.76 25.308 56.748 25.3C56.7306 25.2558 56.7234 25.2083 56.727 25.161C56.737 25.156 56.837 25.189 56.849 25.2L56.848 25.19ZM5.30001 29.374C5.31799 29.4082 5.32919 29.4455 5.33301 29.484C5.29545 29.4775 5.25948 29.4639 5.22701 29.444C5.22301 29.435 5.29101 29.37 5.30001 29.374ZM5.00001 34.725C4.99543 34.6629 4.99777 34.6005 5.00701 34.539C5.03819 34.6034 5.06395 34.6703 5.08401 34.739C5.08701 34.756 5.00601 34.739 5.00001 34.725ZM5.22401 32.74C5.12944 32.6057 5.04263 32.4662 4.96401 32.322C4.93901 32.268 5.01701 32.072 5.01501 31.967V31.955V31.967C5.07035 32.1778 5.13984 32.3846 5.22301 32.586C5.24301 32.632 5.21801 32.692 5.22501 32.74H5.22401ZM5.15001 32.078L5.14201 31.971C5.14537 31.8818 5.16609 31.7942 5.20301 31.713C5.23001 31.701 5.24301 31.841 5.23201 31.973C5.23848 32.0224 5.24016 32.0723 5.23701 32.122C5.22701 32.1 5.15401 32.128 5.15101 32.078H5.15001ZM5.36601 34.954C5.342 34.939 5.32235 34.918 5.30901 34.893C5.30443 34.8463 5.30645 34.7991 5.31501 34.753C5.34682 34.8027 5.37394 34.8553 5.39601 34.91C5.40001 34.929 5.37501 34.956 5.36701 34.954H5.36601ZM5.50601 32.689C5.49501 32.706 5.43401 32.773 5.41301 32.766C5.37434 32.7363 5.34459 32.6965 5.32701 32.651C5.31843 32.5844 5.32045 32.5169 5.33301 32.451C5.34501 32.427 5.40401 32.402 5.42501 32.42C5.45959 32.4864 5.4874 32.556 5.50801 32.628C5.51801 32.664 5.51801 32.672 5.50701 32.689H5.50601ZM5.60601 29.146C5.59701 29.152 5.56001 29.1 5.56201 29.077C5.57873 29.0167 5.60186 28.9584 5.63101 28.903C5.64001 28.903 5.66701 28.994 5.66501 29.016C5.65263 29.0619 5.63341 29.1058 5.60801 29.146H5.60601ZM5.60601 25.916C5.58672 25.8447 5.57797 25.7709 5.58001 25.697C5.59574 25.6356 5.62325 25.5779 5.66101 25.527C5.69033 25.6008 5.70788 25.6787 5.71301 25.758C5.69151 25.8178 5.65662 25.8718 5.61101 25.916H5.60601ZM5.85501 25.886C5.87601 25.823 5.96201 25.872 5.99401 25.829C5.94601 26.01 5.91401 26.216 5.85701 26.383C5.83901 26.437 5.77201 26.41 5.74501 26.449C5.79201 26.271 5.80701 26.046 5.86001 25.886H5.85501ZM5.78401 34.044C5.75401 33.986 5.79801 33.902 5.78401 33.844C5.87996 33.9368 5.94224 34.0589 5.96101 34.191C5.92101 34.134 5.81801 34.1 5.78901 34.044H5.78401ZM6.01501 29.025C6.00801 29.037 5.95801 28.925 5.95401 28.903C5.95492 28.8688 5.96168 28.8349 5.97401 28.803C5.98231 28.786 5.99603 28.7723 6.01301 28.764C6.02101 28.764 6.04101 28.752 6.04101 28.781C6.03955 28.8627 6.03254 28.9442 6.02001 29.025H6.01501ZM6.07801 31.095C6.08501 31.073 6.15501 30.968 6.16401 30.978C6.17552 31.0464 6.18054 31.1157 6.17901 31.185C6.17901 31.212 6.17901 31.233 6.16701 31.236C6.1365 31.2343 6.10737 31.2227 6.08401 31.203C6.07586 31.1692 6.07551 31.134 6.08301 31.1L6.07801 31.095ZM6.10301 38.254C6.09006 38.2074 6.08334 38.1593 6.08301 38.111C6.08301 38.098 6.10201 38.099 6.11501 38.111C6.15235 38.1568 6.1858 38.2056 6.21501 38.257C6.22301 38.271 6.12001 38.267 6.10801 38.254H6.10301ZM6.81301 30.122C6.82101 30.103 6.83701 30.113 6.84201 30.131C6.85539 30.1854 6.86309 30.241 6.86501 30.297C6.85313 30.3438 6.83316 30.3881 6.80601 30.428C6.78511 30.3924 6.7731 30.3522 6.77101 30.311C6.78153 30.2468 6.79725 30.1836 6.81801 30.122H6.81301ZM6.52301 29.939C6.52301 29.972 6.48601 30.039 6.47201 30.027C6.40366 29.98 6.34438 29.9211 6.29701 29.853C6.29216 29.7871 6.30714 29.7213 6.34001 29.664C6.39913 29.6471 6.46249 29.6535 6.51701 29.682C6.53123 29.7669 6.53493 29.8532 6.52801 29.939H6.52301ZM6.65501 38.082C6.68332 38.071 6.7147 38.071 6.74301 38.082C6.75703 38.128 6.76312 38.176 6.76101 38.224C6.75401 38.232 6.67601 38.188 6.66701 38.174C6.65754 38.1443 6.65514 38.1128 6.66001 38.082H6.65501ZM6.89501 41.594C6.85534 41.5536 6.82014 41.509 6.79001 41.461C6.76817 41.4153 6.75269 41.3669 6.74401 41.317C6.74401 41.294 6.75101 41.196 6.77501 41.217C6.85674 41.3093 6.91384 41.4207 6.94101 41.541C6.95101 41.559 6.91601 41.6 6.90001 41.594H6.89501ZM7.03801 38.446C7.01301 38.487 6.90301 38.47 6.86301 38.497C6.86088 38.4438 6.87558 38.3913 6.90501 38.347C6.93101 38.305 6.96401 38.219 6.98001 38.202C6.99601 38.185 7.00901 38.18 7.01301 38.202C7.03624 38.2812 7.04637 38.3636 7.04301 38.446H7.03801ZM6.98801 36.59C7.00514 36.5408 7.02796 36.4939 7.05601 36.45C7.05752 36.4471 7.05982 36.4446 7.06264 36.4429C7.06546 36.4412 7.0687 36.4402 7.07201 36.4402C7.07531 36.4402 7.07855 36.4412 7.08138 36.4429C7.0842 36.4446 7.08649 36.4471 7.08801 36.45C7.09973 36.4967 7.10511 36.5448 7.10401 36.593C7.06604 36.6046 7.02532 36.6036 6.98801 36.59ZM7.16701 28.065C7.10355 28.1453 7.04764 28.2314 7.00001 28.322C7.00001 28.33 6.97101 28.337 6.97301 28.302C6.97345 28.2137 6.97946 28.1255 6.99101 28.038C7.01038 27.9415 7.03988 27.8473 7.07901 27.757C7.10001 27.734 7.19301 27.832 7.20001 27.857C7.20464 27.9279 7.19337 27.999 7.16701 28.065ZM7.11301 27.18C7.12017 27.1337 7.13363 27.0886 7.15301 27.046C7.16201 27.046 7.22101 27.116 7.21801 27.127C7.18701 27.1517 7.15127 27.1697 7.11301 27.18ZM7.28101 21.393C7.25369 21.4154 7.22341 21.4339 7.19101 21.448C7.18001 21.448 7.18101 21.403 7.18501 21.388C7.19368 21.3567 7.20791 21.3272 7.22701 21.301C7.24001 21.301 7.29701 21.338 7.30201 21.347C7.30701 21.356 7.29301 21.383 7.28101 21.393ZM56.057 32.059C56.0289 31.9708 56.016 31.8785 56.019 31.786C56.049 31.826 56.133 31.886 56.152 31.925C56.1665 31.9643 56.1727 32.0062 56.17 32.048C56.1321 32.0492 56.0944 32.0529 56.057 32.059ZM54.584 23.9C54.8544 24.0819 55.0856 24.3162 55.264 24.589C55.324 24.666 55.312 24.799 55.364 24.889C55.0177 24.6377 54.7477 24.2954 54.584 23.9ZM55.022 26.323C54.9803 26.3223 54.9391 26.3146 54.9 26.3C54.888 26.293 54.887 26.258 54.891 26.251C54.923 26.182 54.95 26.173 55.001 26.189C55.019 26.193 55.03 26.318 55.022 26.327V26.323ZM55.909 23.823C56.009 23.844 56.096 23.907 56.192 23.936C56.1346 24.1196 56.06 24.2974 55.969 24.467C55.969 24.479 55.95 24.491 55.941 24.477L55.53 23.805C55.5209 23.7911 55.5147 23.7754 55.512 23.759C55.5144 23.7542 55.5184 23.7504 55.5234 23.7484C55.5284 23.7464 55.5339 23.7462 55.539 23.748C55.6254 23.8003 55.6997 23.8702 55.7571 23.9533C55.8145 24.0364 55.8537 24.1307 55.872 24.23C56 24.13 56 24.084 55.909 23.832V23.823ZM55.663 26.553C55.671 26.568 55.6738 26.5852 55.671 26.602C55.671 26.612 55.627 26.663 55.62 26.655C55.608 26.6096 55.601 26.563 55.599 26.516C55.6 26.515 55.657 26.554 55.663 26.562V26.553ZM55.555 24.353C55.546 24.339 55.523 24.316 55.539 24.305C55.5892 24.2748 55.6444 24.2538 55.702 24.243C55.7336 24.2806 55.7528 24.327 55.757 24.376C55.7172 24.4051 55.6708 24.424 55.622 24.431C55.6 24.443 55.563 24.38 55.555 24.366V24.353ZM55.639 25.927C55.632 25.902 55.639 25.821 55.656 25.827C55.7126 25.8593 55.7601 25.9054 55.794 25.961C55.8194 26.0716 55.8371 26.1839 55.847 26.297C55.847 26.316 55.819 26.224 55.803 26.21C55.7244 26.1369 55.6676 26.0434 55.639 25.94V25.927ZM55.517 26.827L55.534 27.137C55.651 27.062 55.723 26.917 55.834 26.837C55.797 26.96 55.785 26.981 55.703 27.011C55.739 27.103 55.81 27.217 55.836 27.302C55.843 27.326 55.791 27.302 55.779 27.316C55.723 27.388 55.656 27.452 55.572 27.386C55.488 27.32 55.463 27.169 55.424 27.046C55.4189 27.0379 55.4158 27.0286 55.4149 27.0191C55.4141 27.0095 55.4155 26.9999 55.419 26.991C55.434 26.975 55.5 26.884 55.517 26.843V26.827ZM55.725 27.993C55.692 27.9875 55.6604 27.9756 55.632 27.958C55.621 27.949 55.622 27.919 55.623 27.908C55.624 27.897 55.636 27.858 55.646 27.857C55.6707 27.8651 55.693 27.8792 55.711 27.898C55.7256 27.9331 55.7304 27.9714 55.725 28.009V27.993ZM55.425 28.452C55.443 28.475 55.503 28.413 55.514 28.452C55.5619 28.673 55.6288 28.8895 55.714 29.099C55.689 29.199 55.679 29.324 55.614 29.358C55.5384 29.393 55.4536 29.4028 55.372 29.386C55.332 29.372 55.341 29.186 55.31 29.15C55.472 29 55.457 28.76 55.421 28.468L55.425 28.452ZM55.571 29.542C55.592 29.542 55.66 29.642 55.671 29.676C55.6859 29.7416 55.6933 29.8087 55.693 29.876C55.6942 29.9104 55.6874 29.9447 55.673 29.976C55.661 29.987 55.597 30.012 55.584 29.984C55.5325 29.8776 55.4916 29.7664 55.462 29.652C55.456 29.626 55.547 29.558 55.567 29.558L55.571 29.542ZM55.861 29.606C55.8803 29.6366 55.8938 29.6705 55.901 29.706L55.926 29.946C55.926 29.973 55.901 29.967 55.898 29.955C55.87 29.863 55.821 29.705 55.803 29.615C55.8 29.605 55.848 29.612 55.857 29.622L55.861 29.606ZM55.975 30.162C55.9703 30.2126 55.9561 30.2618 55.933 30.307C55.901 30.2509 55.8758 30.1911 55.858 30.129C55.857 30.133 55.965 30.164 55.971 30.178L55.975 30.162ZM55.896 31.477C55.9134 31.5057 55.9268 31.5367 55.936 31.569C55.9414 31.5856 55.9414 31.6034 55.936 31.62C55.931 31.631 55.893 31.681 55.883 31.672C55.8624 31.6274 55.8476 31.5804 55.839 31.532C55.84 31.529 55.882 31.49 55.892 31.493L55.896 31.477ZM56.217 30.304C56.258 30.339 56.324 30.514 56.37 30.579C56.321 30.723 56.256 30.606 56.181 30.548C56.1578 30.5197 56.1445 30.4846 56.143 30.448C56.144 30.45 56.188 30.3 56.213 30.32L56.217 30.304ZM56.181 30.965C56.192 31.013 56.122 31.101 56.113 31.126C56.104 31.151 56.067 31.258 56.064 31.226C56.051 31.126 56.051 30.906 56.046 30.777C56.069 30.845 56.167 30.933 56.177 30.981L56.181 30.965ZM56.125 28.9C56.0796 28.8779 56.0376 28.8497 56 28.816C55.988 28.804 55.985 28.772 56 28.766C56.015 28.76 56.1 28.743 56.115 28.755C56.1297 28.8019 56.1331 28.8515 56.125 28.9ZM56.341 28.247C56.3361 28.1996 56.3381 28.1518 56.347 28.105C56.355 28.097 56.438 28.129 56.438 28.141C56.4103 28.1789 56.3777 28.2128 56.341 28.242V28.247ZM56.666 26.894C56.666 26.919 56.639 26.914 56.638 26.902C56.624 26.821 56.59 26.627 56.587 26.563C56.587 26.538 56.651 26.624 56.658 26.652C56.665 26.68 56.667 26.864 56.666 26.889V26.894ZM56.483 25.88C56.494 25.929 56.594 25.972 56.588 26.023C56.567 26.1344 56.5334 26.2431 56.488 26.347C56.4549 26.4119 56.4094 26.4697 56.354 26.517C56.289 26.592 56.207 26.588 56.165 26.709C56.227 26.736 56.33 26.693 56.383 26.742C56.436 26.791 56.402 26.93 56.429 26.986C56.057 26.986 56.051 26.554 55.921 26.12C55.9148 26.1032 55.9132 26.0851 55.9164 26.0675C55.9195 26.05 55.9273 26.0335 55.939 26.02C55.958 25.995 56.073 26.174 56.107 26.129C56.1578 26.0002 56.1693 25.8593 56.14 25.724C56.2461 25.8315 56.3214 25.9655 56.358 26.112C56.467 26.051 56.468 26.06 56.483 25.875V25.88ZM56.211 21.08C56.239 21.11 56.341 21.193 56.357 21.207C56.3644 21.2131 56.3702 21.221 56.3737 21.2299C56.3772 21.2388 56.3783 21.2485 56.377 21.258C56.3698 21.301 56.3542 21.3421 56.331 21.379C56.3171 21.3826 56.3024 21.3819 56.2889 21.3771C56.2753 21.3723 56.2635 21.3636 56.255 21.352C56.235 21.314 56.203 21.168 56.182 21.096C56.174 21.052 56.19 21.063 56.211 21.076V21.08ZM56.155 22.629C56.1615 22.6788 56.1615 22.7292 56.155 22.779C56.1238 22.743 56.0976 22.703 56.077 22.66C56.076 22.644 56.149 22.616 56.155 22.625V22.629ZM56.174 23.012C56.193 22.991 56.201 22.986 56.205 22.999C56.234 23.087 56.205 23.22 56.243 23.314C56.32 23.514 56.284 23.514 56.19 23.614L56.016 23.351C56.048 23.375 56.08 23.394 56.11 23.42C56.0787 23.3248 56.0526 23.228 56.032 23.13C56.04 23.067 56.156 23.029 56.174 23.008V23.012ZM56.022 22.452C55.8758 22.4099 55.746 22.3241 55.65 22.206L55.68 21.861C55.749 21.961 55.87 22.054 55.926 22.153C55.9634 22.2495 55.9955 22.348 56.022 22.448V22.452ZM55.633 20.426C55.71 20.464 55.8 20.562 55.892 20.559C55.946 20.717 55.948 20.707 55.892 20.802C55.816 20.726 55.666 20.621 55.611 20.552C55.583 20.518 55.608 20.41 55.633 20.422V20.426ZM55.397 22.416L55.584 22.79L55.379 22.87C55.581 23.0416 55.7927 23.2016 56.013 23.349C55.913 23.436 55.913 23.438 55.967 23.649C55.7039 23.4734 55.4959 23.2269 55.367 22.938C55.359 22.923 55.34 22.938 55.339 22.948L55.329 23.338L54.956 22.756C55.0853 22.7374 55.2169 22.7657 55.327 22.836C55.3867 22.7031 55.4118 22.5572 55.4 22.412L55.397 22.416ZM55.047 22.206C55.068 22.264 55.139 22.192 55.147 22.236C55.171 22.35 55.159 22.492 55.172 22.614C55.052 22.481 54.885 22.345 54.779 22.214C54.745 22.17 54.687 22.056 54.707 22.03C54.755 21.966 54.907 21.957 54.984 21.91C55.008 21.982 55.026 22.144 55.047 22.2V22.206ZM54.677 21.592C54.6875 21.6107 54.6959 21.6305 54.702 21.651C54.7071 21.676 54.7101 21.7015 54.711 21.727C54.711 21.727 54.677 21.701 54.651 21.676L54.6 21.632C54.5887 21.6055 54.5832 21.5768 54.584 21.548C54.6168 21.5566 54.6482 21.5701 54.677 21.588V21.592ZM54.139 17.677C54.2372 17.7083 54.3328 17.7471 54.425 17.793L54.525 18.278L54.118 17.805C54.08 17.759 54.113 17.674 54.139 17.673V17.677ZM53.71 20.3C53.754 20.3 53.833 20.2 53.869 20.223C53.905 20.246 53.933 20.423 53.944 20.459C53.955 20.495 53.924 20.524 53.919 20.534C53.914 20.544 53.876 20.446 53.87 20.459C53.864 20.472 53.805 20.578 53.821 20.597C53.837 20.616 53.938 20.55 53.974 20.578C54.01 20.606 54.045 20.706 54.079 20.748C53.967 20.771 53.955 20.765 53.839 20.648C53.797 20.702 53.805 20.794 53.776 20.848C53.766 20.867 53.694 20.793 53.676 20.798C53.7455 20.6411 53.7575 20.4648 53.71 20.3ZM54.138 22.231C54.186 22.356 54.195 22.454 54.252 22.585C54.2803 22.6331 54.2971 22.6871 54.3013 22.7427C54.3055 22.7984 54.2968 22.8542 54.276 22.906C54.1517 22.7771 54.0553 22.6239 53.993 22.456L54.138 22.231ZM54.176 22.131L54.093 21.949L54.084 21.934C54.084 21.934 54.105 21.917 54.11 21.921L54.126 21.932C54.2143 22.0329 54.2902 22.144 54.352 22.263C54.36 22.277 54.374 22.292 54.369 22.312C54.364 22.332 54.318 22.37 54.305 22.392L54.176 22.131ZM54.141 20.784C54.125 20.764 54.175 20.747 54.193 20.756C54.24 20.7834 54.2831 20.817 54.321 20.856C54.353 20.896 54.454 21.078 54.469 21.107C54.484 21.136 54.457 21.138 54.448 21.128C54.358 21.028 54.219 20.879 54.141 20.779V20.784ZM53.541 16.756C53.6082 16.7554 53.6735 16.7788 53.725 16.822C53.766 16.866 53.714 16.959 53.77 17.043C53.826 17.127 53.991 17.3 54.063 17.398C54.079 17.419 54.125 17.477 54.115 17.483C54.0413 17.5177 53.9642 17.5449 53.885 17.564C53.848 17.572 53.834 17.617 53.827 17.592C53.7968 17.3982 53.7462 17.2082 53.676 17.025C53.646 17.034 53.599 17.147 53.57 17.132C53.5128 17.0756 53.4688 17.0073 53.441 16.932C53.443 16.883 53.509 16.758 53.544 16.751L53.541 16.756ZM53.456 17.156C53.52 17.218 53.544 17.356 53.602 17.427C53.4326 17.3506 53.2951 17.2177 53.213 17.051C53.288 17.1 53.394 17.088 53.459 17.151L53.456 17.156ZM53.22 17.306C53.2793 17.3815 53.3312 17.4626 53.375 17.548C53.389 17.582 53.368 17.684 53.353 17.674C53.2851 17.6046 53.2248 17.5282 53.173 17.446C53.162 17.405 53.207 17.291 53.223 17.3L53.22 17.306ZM53.212 20.516C53.218 20.532 53.201 20.542 53.185 20.531C53.1336 20.4887 53.0852 20.4429 53.04 20.394C53.034 20.377 53.099 20.341 53.114 20.352C53.152 20.4021 53.1858 20.4553 53.215 20.511L53.212 20.516ZM52.987 19.887C53.0433 19.9658 53.0925 20.0495 53.134 20.137C53.143 20.165 53.11 20.184 53.082 20.166C53.003 20.1029 52.9291 20.0337 52.861 19.959C52.8517 19.9411 52.8469 19.9212 52.8469 19.901C52.8469 19.8808 52.8517 19.8609 52.861 19.843C52.9072 19.8407 52.9528 19.8545 52.99 19.882L52.987 19.887ZM52.782 17.3C52.797 17.339 52.882 17.44 52.882 17.467C52.882 17.494 52.776 17.486 52.757 17.49C52.738 17.494 52.711 17.54 52.703 17.517C52.656 17.374 52.69 17.354 52.782 17.3ZM52.866 18.147C52.891 18.147 52.904 18.177 52.894 18.189C52.8481 18.2246 52.7973 18.2533 52.743 18.274C52.723 18.274 52.654 18.162 52.665 18.156C52.7315 18.1455 52.7989 18.1425 52.866 18.147ZM51.9 14.015C51.94 14.007 51.965 13.985 51.985 14.008L52.337 14.424C52.4023 14.5477 52.4772 14.666 52.561 14.778C52.561 14.957 52.573 15.144 52.561 15.315C52.561 15.342 52.518 15.329 52.51 15.35C52.3375 15.128 52.1968 14.8829 52.092 14.622L51.707 14.122C51.756 14.1 51.855 14.024 51.9 14.015ZM52.621 17.742C52.629 17.765 52.613 17.77 52.595 17.758C52.54 17.7174 52.4881 17.6726 52.44 17.624C52.4204 17.5944 52.4106 17.5594 52.412 17.524C52.42 17.514 52.493 17.501 52.512 17.524C52.5529 17.5935 52.5877 17.6665 52.616 17.742H52.621ZM52.289 17.278C52.289 17.295 52.276 17.305 52.262 17.293C52.2162 17.2474 52.1741 17.1982 52.136 17.146C52.131 17.128 52.196 17.091 52.21 17.103C52.2394 17.1592 52.2642 17.2177 52.284 17.278H52.289ZM51.804 17.031C51.804 17.021 51.844 16.945 51.852 16.949C51.8743 16.9907 51.8915 17.0351 51.903 17.081C51.8654 17.0723 51.8301 17.0552 51.8 17.031H51.804ZM51.87 18.9C51.8271 18.8675 51.7922 18.8257 51.7679 18.7777C51.7437 18.7297 51.7307 18.6768 51.73 18.623L51.87 18.9ZM51.903 19.131C51.9327 19.1668 51.9566 19.2069 51.974 19.25C51.9415 19.2607 51.9065 19.2607 51.874 19.25C51.8762 19.2098 51.885 19.1703 51.9 19.133L51.903 19.131ZM51.732 19.031C51.732 19.058 51.714 19.06 51.707 19.051C51.597 18.912 51.558 18.869 51.568 18.72C51.601 18.757 51.677 18.78 51.7 18.82C51.719 18.8885 51.7297 18.959 51.732 19.03V19.031ZM51.657 17.531C51.657 17.55 51.622 17.668 51.608 17.666C51.5675 17.6182 51.5338 17.5651 51.508 17.508C51.508 17.49 51.569 17.46 51.583 17.462C51.597 17.464 51.655 17.511 51.657 17.531ZM51.233 15.866C51.2664 15.9189 51.2917 15.9766 51.308 16.037C51.2461 16.006 51.1883 15.9673 51.136 15.922C51.129 15.909 51.221 15.857 51.233 15.866ZM50.769 14.666C50.82 14.68 50.84 14.746 50.885 14.766C50.728 14.766 50.725 14.789 50.665 14.904C50.649 14.859 50.572 14.756 50.565 14.722C50.558 14.688 50.592 14.599 50.615 14.605C50.674 14.623 50.719 14.653 50.769 14.667V14.666ZM50.915 16.524C50.915 16.648 50.858 16.674 50.781 16.724C50.785 16.6823 50.7994 16.6423 50.8228 16.6075C50.8462 16.5728 50.8779 16.5444 50.915 16.525V16.524ZM50.667 14.177C50.612 14.219 50.547 14.137 50.567 14.077C50.576 14.061 50.686 14.164 50.667 14.178V14.177ZM50.422 13.277C50.4512 13.2923 50.4755 13.3155 50.492 13.344C50.492 13.356 50.445 13.405 50.428 13.403C50.3829 13.3843 50.3415 13.3576 50.306 13.324C50.305 13.313 50.405 13.276 50.422 13.278V13.277ZM50.502 16.406C50.502 16.418 50.465 16.492 50.451 16.488C50.4206 16.4516 50.3947 16.4117 50.374 16.369C50.369 16.355 50.388 16.353 50.399 16.351C50.4252 16.3506 50.4512 16.3547 50.476 16.363C50.486 16.371 50.505 16.394 50.5 16.407L50.502 16.406ZM50.402 13.648C50.28 13.719 50.235 13.714 50.355 13.908C50.265 13.978 50.263 14.008 50.107 13.93L50.052 14.27L49.843 14.11C49.8495 13.9798 49.8827 13.8524 49.9405 13.7356C49.9983 13.6188 50.0795 13.5151 50.179 13.431L50.402 13.648ZM50.355 15.706C50.376 15.734 50.355 15.76 50.349 15.786C50.343 15.812 50.296 15.828 50.286 15.852C50.1268 15.6872 49.9477 15.5428 49.753 15.422L50.009 15.322C50.122 15.45 50.258 15.58 50.358 15.707L50.355 15.706ZM50.084 14.7C50.1549 14.7623 50.2217 14.8291 50.284 14.9C50.303 14.922 50.284 14.926 50.265 14.924C50.2138 14.9091 50.1647 14.8876 50.119 14.86C50.107 14.836 50.07 14.692 50.084 14.7ZM49.884 12.937C49.9 12.926 49.984 13.018 49.984 13.037C49.984 13.056 49.897 13.118 49.884 13.137C49.83 13.024 49.828 12.979 49.889 12.935L49.884 12.937ZM49.784 12.39C49.8425 12.3949 49.8998 12.4102 49.953 12.435C49.9948 12.4884 50.0285 12.5477 50.053 12.611C50.058 12.634 50.007 12.686 49.989 12.671C49.9099 12.5909 49.8358 12.5061 49.767 12.417C49.745 12.38 49.771 12.389 49.789 12.388L49.784 12.39ZM49.664 14.079C49.7172 14.1163 49.7642 14.1619 49.803 14.214C49.816 14.238 49.784 14.299 49.778 14.314C49.772 14.329 49.772 14.349 49.752 14.332C49.6897 14.2813 49.6324 14.2247 49.581 14.163C49.578 14.133 49.648 14.072 49.669 14.077L49.664 14.079ZM49.349 13.953C49.4526 14.0622 49.546 14.1807 49.628 14.307C49.655 14.349 49.576 14.391 49.585 14.431L49.235 14.047C49.224 14.035 49.189 14.014 49.205 14.012C49.221 14.01 49.313 13.913 49.354 13.951L49.349 13.953ZM48.922 13.697C48.911 13.69 48.881 13.665 48.888 13.663C48.988 13.63 49.131 13.652 49.237 13.612C49.2254 13.6839 49.2254 13.7571 49.237 13.829C49.122 13.8225 49.0127 13.777 48.927 13.7L48.922 13.697ZM49.28 12.644C49.316 12.706 49.451 12.827 49.466 12.876C49.4707 12.8986 49.4684 12.922 49.4595 12.9433C49.4505 12.9645 49.4354 12.9825 49.416 12.995C49.388 13.007 49.274 12.912 49.231 12.905C49.295 12.9073 49.3587 12.8946 49.417 12.868C49.344 12.774 49.3 12.737 49.285 12.642L49.28 12.644ZM48.88 11.427C48.893 11.412 49.029 11.527 49.03 11.54C49.0032 11.5925 48.9661 11.6391 48.921 11.677C48.904 11.688 48.821 11.657 48.821 11.643C48.8303 11.5668 48.8533 11.4929 48.889 11.425L48.88 11.427ZM49.07 14.122C49.1662 14.2214 49.2507 14.3314 49.322 14.45C49.331 14.461 49.359 14.475 49.283 14.468C49.207 14.461 48.699 14.24 48.704 14.061C48.709 13.882 48.968 14.032 49.079 14.12L49.07 14.122ZM48.664 14.152C48.558 14.091 48.472 14.047 48.44 13.934L48.664 14.152ZM48.364 12.294C48.425 12.3198 48.4786 12.3604 48.52 12.412C48.533 12.438 48.478 12.537 48.47 12.556C48.462 12.575 48.47 12.585 48.446 12.581C48.3974 12.5645 48.3511 12.542 48.308 12.514C48.281 12.493 48.145 12.414 48.156 12.394C48.2175 12.3417 48.2916 12.3065 48.371 12.292L48.364 12.294ZM48.397 13.143L48.354 13.134C48.2157 13.089 48.0868 13.0188 47.974 12.927C47.949 12.91 47.918 12.827 47.936 12.827C47.983 12.809 48.173 12.87 48.223 12.851C48.273 12.832 48.239 12.759 48.272 12.73C48.3231 12.847 48.3633 12.9686 48.392 13.093L48.397 13.143ZM47.87 10.852C47.897 10.844 47.95 10.878 47.97 10.885C47.9789 10.8873 47.9872 10.8915 47.9944 10.8971C48.0017 10.9028 48.0076 10.9099 48.012 10.918C48.017 10.931 48.072 11.018 48.049 11.018C47.9575 11.0168 47.8684 10.9894 47.792 10.939C47.822 10.921 47.851 10.857 47.877 10.85L47.87 10.852ZM47.87 12.308C47.9607 12.3879 48.0353 12.4843 48.09 12.592C48.097 12.624 48.027 12.638 47.99 12.63C47.9015 12.5877 47.8175 12.5368 47.739 12.478C47.709 12.451 47.704 12.446 47.716 12.418C47.728 12.39 47.849 12.336 47.881 12.306L47.87 12.308ZM47.87 13.131L48.07 13.281C48.092 13.303 48.07 13.309 48.057 13.308C47.9442 13.2759 47.8241 13.2805 47.714 13.321C47.707 13.321 47.675 13.301 47.675 13.291C47.673 13.166 47.771 13.171 47.879 13.129L47.87 13.131ZM47.17 11.931C47.3081 12.0491 47.4157 12.1986 47.484 12.367L47.24 12.418L46.665 11.978C46.653 11.968 46.671 11.951 46.684 11.956C46.8511 12.0523 47.0412 12.1014 47.234 12.098C47.17 12 47.177 12.021 47.18 11.929L47.17 11.931ZM47.509 13.131C47.4444 13.1173 47.3824 13.0936 47.325 13.061C47.318 13.047 47.399 12.947 47.414 12.953C47.4588 13.006 47.4943 13.0662 47.519 13.131H47.509ZM46.338 10.431C46.4011 10.4557 46.4612 10.4875 46.517 10.526C46.567 10.554 46.63 10.615 46.681 10.648C46.5609 10.6632 46.4392 10.639 46.334 10.579C46.323 10.579 46.293 10.56 46.297 10.546C46.301 10.532 46.316 10.43 46.348 10.432L46.338 10.431ZM46.356 12.178C46.438 12.286 46.451 12.338 46.419 12.415C46.414 12.426 46.348 12.378 46.342 12.353C46.336 12.328 46.366 12.218 46.366 12.179L46.356 12.178ZM46.154 9.56C46.1628 9.56094 46.1712 9.56386 46.1786 9.56854C46.1861 9.57322 46.1924 9.57953 46.197 9.58699C46.197 9.59699 46.213 9.653 46.197 9.661C46.1592 9.66695 46.1208 9.66695 46.083 9.661C46.069 9.65499 46.052 9.61999 46.059 9.60999C46.0874 9.58775 46.1196 9.57081 46.154 9.56ZM45.766 9.56799C45.856 9.61899 45.941 9.68099 46.026 9.737C45.944 9.75 45.781 9.81999 45.716 9.81999C45.6621 9.82022 45.61 9.80024 45.57 9.76399C45.549 9.74099 45.648 9.67199 45.648 9.64099C45.4129 9.53003 45.1947 9.38626 45 9.21399C44.983 9.19999 45 9.15599 44.991 9.13799L45.766 9.56799ZM44.714 9.258C44.725 9.258 44.756 9.27399 44.755 9.28499C44.743 9.36799 44.512 9.24899 44.424 9.21599C44.5221 9.2172 44.6196 9.23132 44.714 9.258ZM44.514 9.989C44.6293 10.0552 44.7405 10.1284 44.847 10.208C44.87 10.229 44.877 10.314 44.835 10.308C44.6095 10.2325 44.4028 10.1094 44.229 9.94699C44.207 9.92899 44.192 9.867 44.229 9.876C44.3262 9.90602 44.4209 9.94381 44.512 9.989H44.514ZM44.13 9.628C44.1617 9.63794 44.1902 9.65585 44.213 9.68C44.223 9.72 44.213 9.79099 44.183 9.80099C44.1244 9.77816 44.0707 9.7442 44.025 9.70099C44.017 9.68299 44.113 9.63099 44.128 9.628H44.13ZM43.903 9.84899C43.9949 10.0019 44.1183 10.1335 44.265 10.235L44.111 10.36C44.0037 10.1301 43.8294 9.93805 43.611 9.80899L43.903 9.84899ZM43.223 8.31999C43.2533 8.33188 43.2806 8.35032 43.303 8.37399C43.303 8.38499 43.266 8.44499 43.252 8.44299C43.214 8.41468 43.1803 8.381 43.152 8.343C43.145 8.331 43.207 8.31699 43.221 8.31999H43.223ZM43.023 9.20099L43.254 9.501L42.854 9.34899C42.953 9.32799 42.975 9.26999 43.024 9.19999L43.023 9.20099ZM41.111 6.563C41.3442 6.74707 41.5872 6.91832 41.839 7.076C41.877 7.098 41.87 7.166 41.901 7.195C41.6467 7.13675 41.4051 7.03272 41.188 6.888C41.198 6.855 41.247 6.77299 41.247 6.75099C41.247 6.72899 41.216 6.732 41.202 6.729C41.028 6.681 41.009 6.66499 41.008 6.55499C41.008 6.53799 41.086 6.544 41.111 6.563ZM42.018 9.58699C42.004 9.62199 41.818 9.62199 41.792 9.62999C41.7828 9.63337 41.7727 9.63363 41.7633 9.63074C41.7539 9.62785 41.7457 9.62197 41.74 9.614C41.7332 9.56178 41.7457 9.50887 41.7752 9.46523C41.8046 9.42158 41.849 9.39021 41.9 9.37699C41.941 9.43299 42.035 9.54099 42.018 9.58699ZM40.908 8.3C40.924 8.284 41.082 8.35499 41.083 8.36699C41.084 8.37899 40.972 8.42499 40.949 8.43999C40.894 8.38399 40.876 8.331 40.908 8.3ZM40.251 8.97999C40.515 9.01599 40.518 8.90299 40.579 8.77499C40.586 8.75999 40.669 8.763 40.679 8.784C40.741 8.884 40.802 9.03499 40.855 9.14599C40.86 9.15599 40.855 9.174 40.842 9.173C40.732 9.158 40.551 9.06599 40.452 9.06599C40.391 9.06599 40.422 9.17699 40.377 9.19699L39.992 8.916C40.1 8.819 40.24 8.80999 40.251 8.97999ZM39.977 7.07C40.0252 7.07275 40.0715 7.08981 40.11 7.11899C40.0819 7.17265 40.0447 7.22103 40 7.262C39.9831 7.26441 39.9659 7.26246 39.95 7.25634C39.934 7.25021 39.9199 7.24011 39.909 7.227C39.9226 7.17119 39.9456 7.1181 39.977 7.07ZM39.677 7.216C39.697 7.23699 39.759 7.291 39.744 7.307C39.633 7.429 39.485 7.49999 39.425 7.65399L39.195 7.596H39.177C39.155 7.596 39.144 7.59599 39.147 7.58699C39.1589 7.56175 39.1759 7.53927 39.197 7.52099C39.278 7.391 39.446 7.29699 39.538 7.164C39.565 7.179 39.652 7.2 39.673 7.216H39.677ZM39.135 7.09999C39.1895 7.10746 39.2436 7.11781 39.297 7.131C39.3316 7.14217 39.3651 7.15657 39.397 7.17399C39.419 7.19199 39.387 7.253 39.364 7.254C39.3335 7.24741 39.3038 7.23803 39.275 7.22599L39.16 7.19999C39.126 7.18936 39.0947 7.17164 39.068 7.14799C39.0737 7.1346 39.0829 7.12303 39.0948 7.11457C39.1066 7.1061 39.1205 7.10105 39.135 7.09999ZM39.07 7.309C39.1182 7.31602 39.1657 7.32706 39.212 7.342C39.224 7.34999 39.212 7.39799 39.191 7.39499C39.116 7.37261 39.0422 7.34624 38.97 7.31599C38.959 7.31099 39.047 7.30899 39.07 7.31199V7.309ZM37.609 6.98C37.6793 6.9732 37.7503 6.97999 37.818 6.99999C37.9564 7.05428 38.0919 7.11569 38.224 7.184C38.289 7.22 38.29 7.27699 38.306 7.29599C38.322 7.315 38.314 7.33 38.3 7.327C38.14 7.289 37.908 7.25099 37.755 7.19999C37.6892 7.16927 37.6308 7.12457 37.584 7.06899C37.5786 7.06186 37.5749 7.05357 37.5733 7.04477C37.5716 7.03597 37.572 7.02691 37.5744 7.01828C37.5768 7.00966 37.5812 7.00172 37.5872 6.99508C37.5932 6.98844 37.6007 6.98327 37.609 6.98ZM37.938 8.72799C37.993 8.73399 38.049 8.744 38.038 8.751C37.9532 8.77855 37.8638 8.78875 37.775 8.781C37.7075 8.77099 37.6407 8.75663 37.575 8.73799C37.545 8.73 37.569 8.70799 37.575 8.70899L37.938 8.72799ZM37.81 8.47L38.01 8.51599C37.889 8.53599 37.893 8.56 37.81 8.47ZM38.03 8.29599C38.03 8.28599 38.067 8.27699 38.087 8.27799C38.1351 8.28504 38.1826 8.29574 38.229 8.31C38.243 8.317 38.234 8.333 38.222 8.34C38.1866 8.35663 38.1488 8.36775 38.11 8.373C38.0783 8.35488 38.0509 8.32995 38.03 8.3V8.29599ZM37.521 7.24499C37.5402 7.22666 37.5621 7.21147 37.586 7.19999C37.599 7.19999 37.628 7.19999 37.635 7.21199C37.642 7.22399 37.667 7.29799 37.655 7.30499C37.6072 7.30115 37.5602 7.29106 37.515 7.275C37.5 7.269 37.515 7.25299 37.521 7.24499ZM37.561 7.485C37.6105 7.50084 37.6548 7.52988 37.689 7.56899C37.709 7.58899 37.797 7.59499 37.781 7.59399C37.735 7.59399 37.537 7.569 37.493 7.557C37.471 7.55 37.544 7.482 37.561 7.485ZM37.013 7.135C37.022 7.122 37.049 7.13499 37.062 7.14499C37.075 7.15499 37.139 7.207 37.139 7.22399C37.1219 7.25454 37.0971 7.28006 37.067 7.29799C37.05 7.29799 36.979 7.291 36.972 7.275C36.9778 7.22638 36.9917 7.17906 37.013 7.135ZM37.113 7.868C37.085 7.93199 36.988 7.89599 36.978 7.83599C36.972 7.81599 37.119 7.84599 37.11 7.868H37.113ZM36.429 7.839C36.4517 7.85234 36.4698 7.87236 36.4807 7.89635C36.4916 7.92033 36.4949 7.9471 36.49 7.973C36.4451 7.95503 36.4014 7.93433 36.359 7.91099C36.35 7.89999 36.405 7.827 36.426 7.839H36.429ZM35.229 6.605C35.34 6.656 35.416 6.67 35.267 6.73C35.337 6.866 35.441 6.86599 35.625 6.87099H35.645L35.62 6.99999H35.61C35.4286 7.0066 35.248 7.02767 35.07 7.063C34.982 7.074 34.861 6.99899 34.77 6.99599C34.907 6.85599 35.042 6.705 35.181 6.576C35.191 6.563 35.21 6.6 35.227 6.605H35.229ZM35.629 7.13199C35.641 7.13199 35.635 7.15999 35.623 7.16099H35.592C35.468 7.19399 35.192 7.222 34.999 7.254C34.968 7.20718 34.9555 7.1505 34.964 7.09499L35.595 7.123L35.629 7.13199ZM34.664 6.551C34.7444 6.55806 34.824 6.57212 34.902 6.59299C34.927 6.60999 34.902 6.699 34.895 6.709C34.888 6.719 34.881 6.722 34.838 6.709C34.7438 6.67024 34.6516 6.62651 34.562 6.578C34.552 6.568 34.634 6.548 34.666 6.551H34.664ZM34.553 7.051C34.581 7.044 34.682 7.038 34.701 7.059C34.7276 7.11358 34.737 7.17495 34.728 7.235C34.6638 7.24544 34.5982 7.24306 34.535 7.228C34.508 7.219 34.445 7.155 34.447 7.135C34.4743 7.09752 34.5118 7.0687 34.555 7.052L34.553 7.051ZM34.2 5.557C34.2475 5.55149 34.2955 5.55149 34.343 5.557C34.356 5.557 34.354 5.57899 34.343 5.58699C34.2949 5.60797 34.245 5.62471 34.194 5.637C34.177 5.639 34.185 5.564 34.2 5.557ZM32.563 7.65199C32.5937 7.63521 32.628 7.62628 32.663 7.62599C32.688 7.62599 32.8 7.64899 32.803 7.664C32.806 7.679 32.72 7.764 32.694 7.775C32.6443 7.77408 32.5955 7.76212 32.551 7.73999C32.539 7.72799 32.551 7.664 32.563 7.65199ZM31.53 7.552C31.577 7.55636 31.6232 7.56748 31.667 7.585C31.6204 7.60752 31.5715 7.62463 31.521 7.636C31.51 7.629 31.519 7.55199 31.53 7.54799V7.552ZM31.072 6.874C31.093 6.874 31.144 6.89299 31.109 6.90799C30.9956 6.94659 30.8776 6.97012 30.758 6.978C30.713 6.978 30.699 6.878 30.663 6.859C30.794 6.859 30.953 6.85899 31.072 6.86999V6.874ZM29.827 7.868C29.8917 7.86494 29.9566 7.86694 30.021 7.874C30.042 7.874 30.028 7.894 30.021 7.905C30.014 7.916 29.985 7.98799 29.958 7.98899C29.8938 7.97651 29.8315 7.95532 29.773 7.926C29.76 7.909 29.8 7.86999 29.827 7.86399V7.868ZM29.527 7.60699C29.4984 7.64897 29.4629 7.68582 29.422 7.716C29.4009 7.68162 29.3892 7.64231 29.388 7.602C29.4338 7.59274 29.4809 7.59206 29.527 7.59999V7.60699ZM28.805 6.60699C28.839 6.61699 28.85 6.67799 28.849 6.69799C28.848 6.71799 28.816 6.77799 28.788 6.78499C28.7237 6.79534 28.6579 6.79193 28.595 6.775C28.571 6.756 28.495 6.61599 28.515 6.59899C28.6112 6.58546 28.7089 6.5858 28.805 6.59999V6.60699ZM27.544 7.275C27.6978 7.25485 27.8501 7.22479 28 7.18499C27.96 7.26799 27.925 7.361 27.882 7.439C27.8754 7.44441 27.8677 7.4483 27.8594 7.45037C27.8511 7.45244 27.8424 7.45266 27.834 7.451C27.7278 7.40095 27.6155 7.36498 27.5 7.34399C27.477 7.33699 27.4 7.34399 27.4 7.33599C27.4442 7.30673 27.4928 7.28478 27.544 7.27099V7.275ZM27.167 6.19999C27.1949 6.17788 27.2259 6.16002 27.259 6.14699C27.3199 6.1347 27.3819 6.12933 27.444 6.131C27.3578 6.17801 27.269 6.22008 27.178 6.25699C27.162 6.25999 27.159 6.20599 27.167 6.19999ZM26.63 8.18C26.5911 8.20212 26.5481 8.21634 26.5037 8.22183C26.4593 8.22733 26.4142 8.22398 26.371 8.21199L26.63 8.18ZM25.7 6.788C25.6491 6.77803 25.5977 6.77102 25.546 6.767C25.511 6.776 25.463 6.8 25.455 6.822C25.447 6.84399 25.564 6.89199 25.555 6.92199C25.5192 6.96947 25.4768 7.01157 25.429 7.04699C25.409 7.06299 25.386 7.06999 25.378 7.06199C25.278 6.95399 25.304 6.83899 25.428 6.697L25.7 6.788ZM25.066 6.27099C25.1108 6.26193 25.157 6.2626 25.2015 6.27295C25.246 6.2833 25.2878 6.3031 25.324 6.33099C25.33 6.33099 25.338 6.361 25.324 6.36C25.247 6.36 25.093 6.352 25.024 6.339C25 6.335 25.04 6.27299 25.061 6.27099H25.066ZM24.048 8.11499C24.132 8.14399 24.132 8.159 24.167 8.222C24.338 8.183 24.567 8.19 24.725 8.14C24.831 8.105 24.781 8.026 24.825 7.972L25.112 7.907C25.147 7.907 25.137 7.927 25.124 7.93499C24.8866 8.06569 24.6619 8.21835 24.453 8.39099L23.478 8.50699C23.443 8.50699 23.394 8.466 23.424 8.458L24.124 8.293L24.048 8.11499ZM24.596 8.842C24.606 8.84899 24.543 8.912 24.509 8.918C24.2821 8.96826 24.046 8.95861 23.824 8.89C23.851 8.885 23.896 8.843 23.924 8.843C24.099 8.85878 24.2753 8.83836 24.442 8.78299C24.489 8.765 24.587 8.834 24.6 8.842H24.596ZM23.125 6.88199C23.369 6.78699 23.625 6.74699 23.871 6.64699L23.89 6.80299L23.238 6.95699C23.238 6.98799 23.263 7.088 23.25 7.105C23.237 7.12199 23.117 7.15199 23.111 7.131C23.1096 7.04777 23.1143 6.96454 23.125 6.88199ZM23.395 7.953C23.3932 7.99528 23.3819 8.03663 23.362 8.074C23.3225 8.04742 23.2886 8.01346 23.262 7.97399C23.3064 7.95869 23.3531 7.95157 23.4 7.953H23.395ZM23.045 8.49699C23.0518 8.49157 23.0598 8.48784 23.0683 8.4861C23.0768 8.48437 23.0856 8.48467 23.094 8.487C23.104 8.494 23.156 8.55599 23.148 8.56599C23.1034 8.58219 23.0564 8.59064 23.009 8.59099C23 8.58499 23.037 8.506 23.045 8.49999V8.49699ZM21.914 8.097C21.9602 8.08259 22.0078 8.07353 22.056 8.06999C22.069 8.06999 22.074 8.089 22.056 8.1C21.998 8.13408 21.9379 8.16448 21.876 8.19099C21.863 8.19 21.9 8.108 21.914 8.1V8.097ZM21.051 9.185C21.077 9.163 21.127 9.12999 21.137 9.13499C21.147 9.14 21.144 9.21699 21.137 9.23499C21.1172 9.26543 21.0925 9.29245 21.064 9.31499C21.0251 9.34455 20.9828 9.36939 20.938 9.38899C20.921 9.38899 20.9 9.35799 20.913 9.33499C20.9553 9.28171 21.0014 9.23158 21.051 9.185ZM18.951 10.985C18.851 11.046 18.707 11.169 18.617 11.215C18.573 11.237 18.588 11.115 18.554 11.115C18.6075 11.0686 18.6698 11.0334 18.7371 11.0115C18.8044 10.9895 18.8754 10.9812 18.946 10.987L18.951 10.985ZM17.493 9.58499C17.787 9.43599 18.047 9.42199 18.337 9.30099C18.347 9.30099 18.359 9.31699 18.35 9.32699C18.1567 9.49238 18.0006 9.69687 17.892 9.92699C17.8851 9.94454 17.8748 9.9605 17.8615 9.9739C17.8483 9.98731 17.8325 9.99789 17.815 10.005C17.749 10.03 17.6782 10.0392 17.608 10.032C17.559 10.014 17.541 9.84399 17.486 9.82699C17.451 9.81699 17.308 9.957 17.286 9.956C17.264 9.955 17.226 9.89599 17.245 9.87899C17.294 9.83599 17.51 9.766 17.554 9.732C17.598 9.698 17.587 9.69699 17.588 9.66999C17.589 9.64299 17.5 9.61799 17.488 9.58999L17.493 9.58499ZM16.336 10.185H16.563C16.623 10.185 16.645 10.203 16.698 10.209C16.559 10.345 16.544 10.365 16.552 10.498C16.4917 10.5358 16.423 10.5582 16.352 10.563C16.289 10.577 16.271 10.627 16.217 10.648C16.2957 10.5081 16.335 10.3495 16.331 10.189L16.336 10.185ZM16.195 12.453C16.22 12.43 16.355 12.346 16.395 12.314C16.3394 12.4028 16.2646 12.478 16.176 12.534C16.159 12.548 16.165 12.481 16.19 12.457L16.195 12.453ZM15.341 12.653C15.377 12.653 15.365 12.718 15.392 12.727C15.252 12.794 15.273 12.803 15.176 12.763C15.216 12.747 15.3 12.663 15.336 12.658L15.341 12.653ZM14.718 12.017C14.794 11.973 14.959 11.933 15.054 11.894C15.01 11.9521 14.9626 12.0075 14.912 12.06C14.8519 12.0902 14.7875 12.1108 14.721 12.121C14.7 12.125 14.682 12.04 14.713 12.022L14.718 12.017ZM15.044 12.09C14.967 12.208 14.957 12.23 14.829 12.238L15.044 12.09ZM14.153 15.085C14.1568 15.099 14.1576 15.1137 14.1552 15.128C14.1527 15.1424 14.1472 15.156 14.139 15.168C14.0921 15.2119 14.0393 15.2489 13.982 15.278C13.96 15.278 13.916 15.198 13.925 15.178C13.9715 15.1333 14.024 15.0952 14.081 15.065C14.0934 15.0634 14.1059 15.0649 14.1176 15.0692C14.1293 15.0736 14.1397 15.0807 14.148 15.09L14.153 15.085ZM13.968 14.217C13.994 14.217 14.01 14.302 14.031 14.317C13.984 14.345 13.9295 14.3576 13.875 14.353C13.814 14.353 13.793 14.34 13.798 14.301C13.8464 14.2627 13.9028 14.2357 13.963 14.222L13.968 14.217ZM13.641 15.417C13.6721 15.3781 13.7133 15.3483 13.76 15.331C13.783 15.331 13.86 15.386 13.86 15.406C13.86 15.426 13.777 15.5 13.76 15.519C13.743 15.538 13.647 15.612 13.64 15.601C13.6269 15.5429 13.6255 15.4827 13.636 15.424L13.641 15.417ZM12.751 15.306C12.824 15.233 12.9 15.161 12.976 15.073C12.986 15.061 13.003 15.037 13.019 15.047C13.035 15.057 13.158 15.056 13.152 15.1C13.1199 15.2106 13.0643 15.3129 12.989 15.4C12.9495 15.3954 12.9095 15.3954 12.87 15.4C12.77 15.447 12.717 15.517 12.626 15.7C12.6468 15.5658 12.6873 15.4354 12.746 15.313L12.751 15.306ZM11.882 13.92C11.9644 13.8629 12.0614 13.8306 12.1616 13.8271C12.2617 13.8235 12.3608 13.8488 12.447 13.9L11.823 14.357C11.8972 14.2265 11.9167 14.0718 11.877 13.927L11.882 13.92ZM11.947 17.876C11.959 17.841 12.036 17.716 12.06 17.714C12.1293 17.73 12.1929 17.7646 12.244 17.814C12.264 17.839 12.227 17.891 12.213 17.921C12.1937 17.9683 12.1635 18.0104 12.125 18.044C12.0634 18.067 11.9969 18.0736 11.932 18.063C11.906 18.047 11.93 17.918 11.942 17.883L11.947 17.876ZM11.858 15.502C11.8894 15.4464 11.9336 15.399 11.987 15.364C12.0275 15.4003 12.0567 15.4475 12.071 15.5C12.071 15.525 11.98 15.661 11.963 15.657C11.9135 15.6187 11.8754 15.5675 11.853 15.509L11.858 15.502ZM11.64 14.624C11.6618 14.5796 11.6894 14.5382 11.722 14.501C11.737 14.495 11.777 14.561 11.778 14.575C11.779 14.589 11.754 14.624 11.738 14.639C11.7017 14.6676 11.6621 14.6918 11.62 14.711C11.605 14.716 11.625 14.653 11.635 14.631L11.64 14.624ZM11.535 14.966C11.551 14.958 11.655 14.975 11.651 15.002C11.6338 15.0667 11.6042 15.1275 11.564 15.181C11.552 15.1898 11.538 15.1953 11.5233 15.1971C11.5085 15.1988 11.4936 15.1967 11.4799 15.191C11.4662 15.1852 11.4542 15.1761 11.4451 15.1643C11.436 15.1526 11.4301 15.1387 11.428 15.124C11.417 15.107 11.512 14.985 11.53 14.973L11.535 14.966ZM11.177 17.933C11.198 17.8899 11.2253 17.8501 11.258 17.815C11.269 17.808 11.303 17.839 11.302 17.855C11.2874 17.9033 11.2669 17.9496 11.241 17.993C11.224 18.007 11.17 17.957 11.172 17.94L11.177 17.933ZM11.012 15.11C11.0312 15.1038 11.0514 15.1017 11.0715 15.1037C11.0915 15.1058 11.1109 15.112 11.1284 15.122C11.1459 15.132 11.1611 15.1455 11.1731 15.1617C11.1851 15.1778 11.1936 15.1964 11.198 15.216C11.1961 15.2682 11.1747 15.3178 11.138 15.355C10.985 15.427 10.982 15.319 10.984 15.155C10.9874 15.1402 10.9955 15.1269 11.007 15.117L11.012 15.11ZM10.708 18C10.7347 17.9405 10.7724 17.8866 10.819 17.841C10.841 17.833 10.901 17.89 10.907 17.923C10.901 17.998 10.8869 18.072 10.865 18.144C10.856 18.175 10.851 18.187 10.833 18.189C10.815 18.191 10.733 18.168 10.719 18.144C10.703 18.0977 10.6992 18.0481 10.708 18ZM9.67901 21.5C9.73526 21.4283 9.81369 21.3773 9.90201 21.355C9.82 21.4521 9.75752 21.5642 9.71801 21.685C9.69301 21.733 9.62601 21.763 9.62801 21.748C9.62246 21.6622 9.64007 21.5766 9.67901 21.5ZM9.53301 21.266C9.54142 21.2313 9.55384 21.1978 9.57001 21.166C9.57701 21.154 9.59601 21.123 9.60201 21.128C9.61778 21.1593 9.62793 21.1932 9.63201 21.228C9.60237 21.2476 9.56837 21.2596 9.53301 21.263V21.266ZM9.82501 17.615C9.84301 17.595 9.88001 17.633 9.86801 17.654C9.83319 17.733 9.78217 17.8038 9.71827 17.8619C9.65436 17.9199 9.57898 17.9639 9.49701 17.991L9.82501 17.615ZM8.97501 20.638C9.05401 20.531 9.09601 20.367 9.17501 20.254C9.19401 20.354 9.31501 20.567 9.30101 20.667L9.31401 20.684C9.31401 20.678 9.30701 20.696 9.30701 20.696C9.30701 20.696 9.28101 20.796 9.30701 20.804C9.40001 20.817 9.57201 20.704 9.68501 20.62C9.69401 20.614 9.71501 20.628 9.70701 20.642L9.33701 21.218C9.33101 21.374 9.35801 21.418 9.44601 21.482C9.45201 21.482 9.42601 21.522 9.41501 21.52C9.30101 21.51 9.19101 21.462 9.07801 21.442C9.06801 21.442 9.05201 21.429 9.05701 21.421C9.08801 21.371 9.25701 21.24 9.28101 21.177C9.31293 21.1202 9.32289 21.0537 9.30901 20.99C9.28901 20.951 9.13601 20.99 9.09301 20.968C9.11801 20.845 9.11701 20.841 9.21601 20.804C9.25137 20.772 9.28261 20.7357 9.30901 20.696L9.30001 20.664C9.29401 20.713 9.16701 20.475 9.13001 20.511C9.10901 20.53 9.06901 20.65 9.02101 20.682C8.97301 20.714 8.84901 20.711 8.79001 20.738C8.83701 20.687 8.92901 20.7 8.97501 20.635V20.638ZM9.43001 21.855C9.39569 21.8389 9.36231 21.8208 9.33001 21.801C9.33001 21.792 9.34901 21.745 9.35701 21.75C9.36501 21.755 9.43001 21.852 9.43001 21.852V21.855ZM8.81701 22C8.81701 21.965 8.87101 21.877 8.87801 21.867C8.88501 21.857 8.93201 21.867 8.92801 21.898C8.93092 22.0132 8.90434 22.1272 8.85078 22.2293C8.79723 22.3313 8.71848 22.418 8.62201 22.481C8.60801 22.489 8.61101 22.435 8.62201 22.42C8.63301 22.405 8.69501 22.388 8.71301 22.36C8.7567 22.3119 8.7888 22.2545 8.80683 22.1921C8.82485 22.1297 8.82834 22.064 8.81701 22ZM8.66601 22.158C8.68101 22.152 8.69601 22.158 8.69301 22.175C8.67813 22.2207 8.65693 22.2641 8.63001 22.304C8.61501 22.31 8.53001 22.255 8.53001 22.242C8.57174 22.2085 8.61741 22.1803 8.66601 22.158ZM8.60001 22.668C8.61301 22.668 8.56201 22.744 8.56201 22.755C8.56201 22.766 8.62201 22.783 8.60901 22.79C8.54201 22.825 8.50901 22.803 8.46001 22.752C8.53301 22.667 8.52801 22.662 8.60001 22.668ZM8.15501 25.113C8.17315 25.1635 8.20683 25.207 8.2512 25.2371C8.29557 25.2673 8.34837 25.2827 8.40201 25.281C8.31614 25.5367 8.31195 25.8128 8.39001 26.071C8.412 26.1256 8.41654 26.1857 8.40301 26.243C8.32601 26.376 8.31701 26.354 8.22101 26.335C8.13325 26.488 8.08161 26.659 8.07001 26.835C8.07001 26.852 8.07001 26.878 8.05301 26.883C8.03601 26.888 7.99001 26.85 7.97001 26.847C7.99463 26.566 8.06523 26.2911 8.17901 26.033C8.07658 25.9158 7.99384 25.7827 7.93401 25.639C8.06379 25.4929 8.1415 25.3079 8.15501 25.113ZM7.57701 21.2C7.55901 21.221 7.50401 21.1 7.50801 21.069C7.51915 21.0166 7.54057 20.967 7.57101 20.923C7.59101 20.905 7.72101 20.847 7.71901 20.875C7.68226 20.9877 7.63471 21.0965 7.57701 21.2ZM7.81601 27.339C7.7869 27.3496 7.75562 27.3527 7.72501 27.348C7.75154 27.3078 7.78239 27.2705 7.81701 27.237C7.82394 27.2714 7.8236 27.3068 7.81601 27.341V27.339ZM8.08101 38.486C8.08762 38.4219 8.09898 38.3584 8.11501 38.296C8.12101 38.279 8.14301 38.277 8.14501 38.296C8.14952 38.3746 8.14952 38.4534 8.14501 38.532C8.13801 38.554 8.08301 38.51 8.08101 38.488V38.486ZM8.24101 38.929C8.20362 38.939 8.1655 38.946 8.12701 38.95C8.13369 38.9238 8.14815 38.9002 8.1685 38.8823C8.18885 38.8645 8.21413 38.8532 8.24101 38.85C8.25701 38.851 8.25201 38.922 8.24101 38.931V38.929ZM9.51601 42.083C9.48601 42.056 9.49901 42.051 9.49701 42.03C9.49501 42.009 9.51101 41.93 9.52701 41.93C9.54301 41.93 9.59301 41.884 9.61901 41.922C9.64501 41.96 9.68301 42.141 9.71301 42.202C9.64484 42.1674 9.57903 42.1283 9.51601 42.085V42.083ZM10.25 46.6C10.15 46.491 10.05 46.4 9.89201 46.2L9.80001 46.046C9.76836 45.9789 9.74129 45.9097 9.71901 45.839C9.78301 45.912 9.89901 46.005 9.99901 46.129C10.028 46.1542 10.0554 46.1813 10.081 46.21C10.1664 46.3259 10.2404 46.4499 10.302 46.58C10.321 46.6 10.27 46.622 10.25 46.6ZM13.45 49.042C13.431 49.031 13.376 48.969 13.388 48.967C13.4275 48.9578 13.4686 48.9568 13.5085 48.9642C13.5484 48.9716 13.5864 48.9872 13.62 49.01C13.662 49.038 13.69 49.139 13.728 49.179C13.6 49.171 13.563 49.115 13.446 49.043L13.45 49.042ZM14.021 49.477C13.9771 49.4317 13.9367 49.3833 13.9 49.332C13.9391 49.3406 13.9766 49.3555 14.011 49.376C14.0214 49.409 14.0235 49.444 14.017 49.478L14.021 49.477ZM16.673 52.377L16.351 52.052C16.341 52.041 16.365 52.026 16.376 52.035L16.756 52.378C16.772 52.4 16.691 52.4 16.669 52.379L16.673 52.377ZM17.073 54.143C17.058 54.143 16.981 54.056 16.973 54.043C16.965 54.03 16.983 53.982 16.987 53.972C16.991 53.962 17.002 53.949 17.016 53.956C17.0615 53.98 17.1038 54.0096 17.142 54.044C17.1429 54.067 17.1358 54.0896 17.122 54.108C17.1081 54.1264 17.0884 54.1395 17.066 54.145L17.073 54.143ZM17.448 53.343C17.3965 53.3046 17.351 53.2588 17.313 53.207C17.305 53.187 17.339 53.122 17.354 53.122C17.4017 53.1426 17.4449 53.1725 17.481 53.21C17.482 53.23 17.457 53.342 17.441 53.342L17.448 53.343ZM18.058 54.822C18.0114 54.7795 17.9683 54.7333 17.929 54.684C17.919 54.669 17.935 54.656 17.953 54.664C18.0128 54.6929 18.0703 54.7264 18.125 54.764C18.128 54.778 18.069 54.828 18.051 54.821L18.058 54.822ZM55.48 32.136C55.453 32.693 55.425 33.263 55.397 33.836L55.355 35.383C55.163 36.283 54.974 37.167 54.797 37.999C54.751 38.214 54.706 38.427 54.662 38.629C54.475 39.108 54.291 39.576 54.109 40.041L53.5 41.528C53.085 42.508 52.635 43.472 52.253 44.513L52.128 44.853C52.109 44.915 52.128 44.883 52.128 44.909C52.228 44.834 51.883 45.228 51.679 45.472C51.451 45.741 51.222 46.011 50.995 46.272C50.542 46.81 50.061 47.312 49.628 47.801L47.608 50.053L45.121 51.822L42.438 53.649C42.2879 53.7633 42.1244 53.8587 41.951 53.933H41.923C41.923 53.926 41.899 53.933 41.838 53.948L41.551 54.016L40.98 54.153C40.5814 54.248 40.1919 54.3778 39.816 54.541L38.804 54.963L38.523 55.01L38.073 55.077L37.167 55.199L35.454 55.418L34.875 55.43C33.969 55.459 33.026 55.648 32.122 55.666C31.538 55.659 30.996 55.518 30.422 55.483L28.522 55.47L25.222 55.004L22.24 53.791C22.152 53.756 22.149 53.737 22.157 53.718C22.21 53.703 22.049 53.544 21.898 53.462L19.22 51.962L17.977 51.062C17.523 50.742 17.055 50.422 16.564 50.103C16.505 50.0651 16.4489 50.023 16.396 49.977C16.404 49.977 16.352 49.928 16.296 49.87L16.146 49.701L15.83 49.328C15.6168 49.0665 15.3901 48.8161 15.151 48.578L14.545 48.015L14.222 47.727L14.056 47.581C13.987 47.52 14.025 47.557 14.003 47.541L13.084 46.413C12.749 45.99 12.421 45.574 12.111 45.181C12.0431 45.0966 11.98 45.0085 11.922 44.917C11.8846 44.8123 11.8412 44.7098 11.792 44.61L11.606 44.182C11.482 43.896 11.357 43.613 11.221 43.34C10.7617 42.5772 10.3454 41.7893 9.97401 40.98L8.90801 38.706L8.50001 37.25C8.41028 36.9341 8.3408 36.6128 8.29201 36.288C8.26801 36.125 8.24401 35.956 8.21901 35.788C8.20201 35.645 8.15701 35.371 8.18501 35.413C8.18501 35.392 8.19901 35.424 8.20001 35.36L8.20601 35.169V34.787C8.20601 34.534 8.19701 34.287 8.17401 34.036C8.12001 33.442 7.97401 32.794 7.89901 32.194C7.89901 32.057 7.91101 32.059 7.92001 32.048L7.93901 32.026L7.97401 31.863L8.04301 31.518L8.16301 30.825C8.23501 30.362 8.29101 29.896 8.32801 29.425C8.33753 29.2825 8.33953 29.1397 8.33401 28.997L8.32601 28.781C8.32601 28.714 8.32601 28.614 8.31201 28.628C8.29801 28.642 8.31801 28.471 8.32601 28.403C8.3383 28.3105 8.35701 28.2189 8.38201 28.129C8.68527 27.2023 8.92976 26.2575 9.11401 25.3C9.12201 25.255 9.11401 25.278 9.11401 25.264C9.13972 25.1624 9.17076 25.0623 9.20701 24.964L9.35201 24.535L9.65201 23.67L9.97601 22.807L10.148 22.381L10.237 22.169C10.2423 22.1613 10.2491 22.1549 10.257 22.15C10.236 22.206 10.395 21.989 10.521 21.834C10.486 21.791 10.448 21.757 10.411 21.718C11.059 20.796 11.719 19.88 12.316 18.925L13.871 16.275L16.066 14.5C16.88 13.852 17.714 13.269 18.553 12.676C18.5781 12.6107 18.5843 12.5397 18.571 12.471C19.133 12.141 19.795 11.707 20.434 11.251L21.359 10.563C21.622 10.363 22.043 10.053 21.959 10.092V10.087L22 10.076L22.147 10.044L22.647 9.94999L23.654 9.79299C24.2463 9.72696 24.831 9.6044 25.4 9.42699C26.3872 9.07209 27.3943 8.77492 28.416 8.53699L28.616 8.47L28.632 8.45699L28.644 8.44999C28.637 8.44999 28.652 8.45 28.728 8.442L29.066 8.42399L29.719 8.394C30.1706 8.37594 30.6229 8.38061 31.074 8.40799C31.1142 8.31307 31.1349 8.21106 31.1349 8.10799C31.1349 8.00493 31.1142 7.90292 31.074 7.808C31.254 7.857 31.235 7.992 31.428 8.03299C31.621 8.07399 31.928 8.062 32.139 8.097C31.823 8.187 31.5021 8.25911 31.178 8.31299C31.9712 8.40873 32.7722 8.42146 33.568 8.35099C34.203 8.53499 34.636 8.27599 35.383 8.36999C35.501 8.38099 35.44 8.38999 35.467 8.39799C36.5421 8.71904 37.6367 8.97056 38.744 9.15099L40.365 9.68999L41.231 9.98999L41.66 10.146L41.872 10.225C41.902 10.239 41.886 10.233 41.894 10.239C41.902 10.245 41.869 10.232 41.929 10.271L42.129 10.41C42.229 10.377 42.214 10.376 42.229 10.285C42.284 10.322 42.436 10.339 42.472 10.385C42.535 10.46 42.472 10.466 42.453 10.513C42.9141 10.8888 43.4257 11.1979 43.973 11.431C43.995 11.443 44.025 11.443 44.034 11.431C44.043 11.419 44.107 11.389 44.079 11.355C44.051 11.321 43.885 11.233 43.832 11.19C43.9658 11.1749 44.1003 11.2106 44.209 11.29C44.195 11.197 44.177 11.19 44.093 11.101C44.086 11.094 44.093 11.075 44.111 11.077L44.798 11.185C44.898 11.31 45.063 11.473 45.112 11.544C45.112 11.551 45.091 11.583 45.076 11.593C45.061 11.603 45.068 11.629 44.989 11.612C44.91 11.595 44.689 11.482 44.602 11.476C44.551 11.476 44.545 11.576 44.502 11.592L44.693 11.792C44.741 11.845 44.869 11.947 44.837 11.946C45.6505 12.7689 46.5488 13.5034 47.517 14.137L48.417 14.971L49.917 16.418C50.291 17.008 50.663 17.596 51.033 18.182C51.447 18.825 51.852 19.466 52.217 20.122C52.463 20.547 52.837 20.886 52.997 21.216L53.28 21.793L53.422 22.077L53.493 22.217C53.508 22.25 53.493 22.23 53.493 22.241C53.5181 22.3465 53.5515 22.4498 53.593 22.55L53.746 22.981L54.062 23.834L54.39 24.679L54.56 25.099L54.644 25.299C54.644 25.324 54.638 25.244 54.657 25.355L54.704 25.638L54.804 26.205C55.01 27.414 55.004 28.576 55.324 29.734C55.239 29.742 55.254 29.734 55.209 29.853C55.3422 30.5331 55.4393 31.2197 55.5 31.91C55.5513 31.9338 55.6014 31.9601 55.65 31.989C55.5838 32.0257 55.5259 32.0757 55.48 32.136ZM55.81 32.136C55.8026 32.111 55.7999 32.0849 55.802 32.059C55.832 32.076 55.863 32.088 55.893 32.107C55.866 32.121 55.839 32.125 55.81 32.139V32.136Z" fill="#FF5600"/>
<path d="M30.732 18.733C30.688 19.647 30.515 20.365 30.543 21.312L30.555 22.054V22.945L30.66 23.688L30.732 24.301C30.775 24.711 30.805 25.12 30.817 25.525L30.976 25.536L31.023 26.018L31.048 26.258C31.048 26.307 31.048 26.283 31.048 26.298L31.041 26.314L31.014 26.524L30.96 26.952L30.86 27.808L30.654 29.667L30.877 33.182C30.863 33.796 30.8493 34.411 30.836 35.027C30.824 35.663 30.772 36.299 30.769 36.935C30.821 37.011 30.855 37.013 30.926 37.057C30.856 38.0578 30.8895 39.0631 31.026 40.057C31.4273 40.071 31.8287 40.0327 32.22 39.943C32.9117 39.7214 33.619 39.5519 34.336 39.436C34.3066 39.2234 34.2271 39.0209 34.104 38.845L34.33 38.545C34.2592 37.7524 34.2448 36.9557 34.287 36.161C34.3494 35.3733 34.3202 34.581 34.2 33.8C34.2084 33.7572 34.2256 33.7165 34.2503 33.6806C34.2751 33.6446 34.307 33.6141 34.344 33.591C34.339 33.5171 34.339 33.4429 34.344 33.369L34.367 33.08V32.78C34.365 32.7024 34.3563 32.6251 34.341 32.549C34.277 32.258 34.105 32.088 34.075 31.776C34.011 31.125 34.201 30.713 34.12 29.993C34.105 29.867 34.087 29.693 34.08 29.74C34.0728 29.6206 34.0765 29.5008 34.091 29.382L34.137 28.862C34.1718 28.5243 34.2456 28.1917 34.357 27.871C34.411 27.33 34.465 26.789 34.518 26.254L34.23 24.33L33.971 22.757C33.971 22.748 33.971 22.77 33.965 22.669C33.965 22.242 34.139 21.832 34.14 21.427V19.3C34.109 18.606 34.078 17.907 34.04 17.137C34.026 16.844 34.025 16.526 34.029 16.195C32.862 16.134 31.694 16.072 30.529 16.044C30.516 16.523 30.529 17.002 30.559 17.485C30.6434 17.8969 30.7012 18.3137 30.732 18.733ZM31.346 28.869C31.3437 28.8229 31.3538 28.777 31.375 28.736C31.4229 28.6943 31.4802 28.6648 31.542 28.65C31.568 28.658 31.602 28.771 31.605 28.803C31.6079 28.8629 31.5962 28.9226 31.571 28.977C31.5021 28.9896 31.4312 28.9858 31.364 28.966C31.335 28.954 31.346 28.9 31.346 28.869ZM31.46 31.94C31.46 31.915 31.45 31.809 31.46 31.81C31.5149 31.8327 31.5643 31.8668 31.605 31.91C31.6181 31.9534 31.6181 31.9996 31.605 32.043C31.5706 32.067 31.5289 32.0784 31.487 32.075C31.4704 32.0319 31.4613 31.9862 31.46 31.94ZM31.637 32.419C31.637 32.442 31.59 32.461 31.577 32.46C31.5641 32.4557 31.5522 32.4487 31.542 32.4396C31.5319 32.4305 31.5237 32.4194 31.518 32.407C31.5089 32.3497 31.5089 32.2913 31.518 32.234C31.537 32.2274 31.5572 32.225 31.5772 32.2269C31.5972 32.2288 31.6166 32.2349 31.634 32.245C31.644 32.3025 31.645 32.3612 31.637 32.419ZM31.6 25.476C31.5999 25.3627 31.5749 25.2507 31.527 25.148C31.517 25.118 31.543 25.008 31.551 25.022C31.6034 25.0907 31.6458 25.1664 31.677 25.247C31.6787 25.33 31.6515 25.4109 31.6 25.476ZM31.935 38.11C31.935 38.002 31.902 37.834 31.918 37.743C31.926 37.699 32.018 37.77 32.035 37.743C32.037 37.922 32.034 38.008 31.939 38.11H31.935ZM31.89 25.4C31.9004 25.3686 31.9186 25.3404 31.943 25.318C31.9585 25.3452 31.97 25.3745 31.977 25.405C31.977 25.417 31.985 25.449 31.977 25.448C31.9452 25.4378 31.9156 25.4215 31.89 25.4ZM32.152 31.719C32.0707 31.6255 32.018 31.5106 32 31.388C32.0553 31.3177 32.0931 31.2352 32.1105 31.1475C32.1279 31.0597 32.1243 30.9691 32.1 30.883C32.1898 31.1134 32.2496 31.3544 32.278 31.6C32.278 31.614 32.29 31.639 32.278 31.646C32.266 31.653 32.184 31.743 32.152 31.716V31.719ZM32.197 28.448C32.204 28.438 32.275 28.459 32.28 28.472C32.279 28.5153 32.2713 28.5581 32.257 28.599C32.249 28.609 32.205 28.599 32.2 28.583C32.1933 28.5373 32.1933 28.4908 32.2 28.445L32.197 28.448ZM32.36 35.534C32.3237 35.4465 32.3106 35.3511 32.322 35.257C32.322 35.241 32.372 35.282 32.375 35.313C32.378 35.344 32.362 35.483 32.36 35.531V35.534ZM32.388 32.774C32.372 32.793 32.294 32.761 32.268 32.769C32.2744 32.7188 32.2965 32.672 32.331 32.635C32.369 32.591 32.39 32.582 32.419 32.605C32.4223 32.662 32.4117 32.719 32.388 32.771V32.774ZM32.527 28.385C32.5008 28.3207 32.4824 28.2536 32.472 28.185C32.467 28.156 32.467 28.145 32.482 28.137C32.5215 28.1231 32.5642 28.1206 32.605 28.13C32.6384 28.1604 32.6627 28.1995 32.675 28.243C32.6757 28.3017 32.6641 28.36 32.641 28.414C32.625 28.429 32.547 28.406 32.527 28.382V28.385ZM32.744 34.597C32.725 34.626 32.677 34.578 32.654 34.592C32.688 34.456 32.671 34.467 32.762 34.421C32.749 34.461 32.762 34.565 32.744 34.594V34.597ZM32.82 30.811C32.7674 30.8048 32.7174 30.7848 32.675 30.753C32.6608 30.6969 32.6608 30.6381 32.675 30.582C32.737 30.5868 32.7967 30.6079 32.848 30.643C32.8529 30.6995 32.8433 30.7563 32.82 30.808V30.811ZM33.388 34.468L33.37 34.698C33.325 34.577 33.312 34.559 33.388 34.465V34.468ZM33.7 38.48C33.7 38.489 33.674 38.488 33.67 38.48C33.6295 38.2526 33.5375 38.0374 33.401 37.851C33.3901 37.838 33.3822 37.8227 33.3779 37.8063C33.3735 37.7899 33.3729 37.7727 33.376 37.756C33.3953 37.6939 33.4297 37.6376 33.476 37.592C33.52 37.564 33.669 37.636 33.714 37.604C33.743 37.584 33.714 37.411 33.726 37.393C33.738 37.375 33.811 37.38 33.813 37.402C33.819 37.458 33.751 37.649 33.754 37.702C33.757 37.755 33.764 37.743 33.785 37.757C33.806 37.771 33.876 37.726 33.907 37.731C33.868 38.011 33.745 38.208 33.7 38.48ZM33.777 30.451C33.7802 30.4579 33.7819 30.4654 33.7819 30.473C33.7819 30.4806 33.7802 30.4881 33.777 30.495C33.7506 30.5248 33.7137 30.5433 33.6739 30.5465C33.6342 30.5496 33.5948 30.5373 33.564 30.512C33.5504 30.4928 33.5409 30.471 33.5363 30.4479C33.5316 30.4248 33.5319 30.401 33.537 30.378C33.619 30.245 33.681 30.324 33.772 30.451H33.777ZM33.592 28.211C33.5898 28.1325 33.6042 28.0543 33.6344 27.9817C33.6645 27.9092 33.7097 27.8438 33.767 27.79L33.648 28.226C33.635 28.249 33.585 28.233 33.587 28.211H33.592ZM33.86 31.432C33.8443 31.5182 33.8067 31.599 33.7508 31.6666C33.695 31.7341 33.6227 31.7863 33.541 31.818L33.548 31.262C33.6257 31.3548 33.7351 31.4154 33.855 31.432H33.86ZM33.552 34.454C33.564 34.442 33.64 34.478 33.634 34.509C33.62 34.586 33.552 34.721 33.523 34.809C33.5044 34.7474 33.49 34.6846 33.48 34.621C33.4921 34.5617 33.5148 34.5052 33.547 34.454H33.552ZM34.08 36.6L33.952 36.764C33.914 36.805 33.889 36.813 33.852 36.848C33.821 36.681 33.813 36.66 33.701 36.598C33.7062 36.5352 33.7291 36.4752 33.767 36.425C33.795 36.373 33.767 36.334 33.784 36.285C33.8479 36.418 33.9513 36.528 34.08 36.6ZM33.88 20.185C33.9113 20.2446 33.9332 20.3087 33.945 20.375C33.9393 20.4331 33.9223 20.4895 33.895 20.541C33.8532 20.4801 33.8221 20.4124 33.803 20.341C33.8162 20.2825 33.8437 20.2282 33.883 20.183L33.88 20.185ZM33.811 24.029C33.821 24.029 33.84 24.061 33.844 24.074C33.8495 24.1027 33.8495 24.1323 33.844 24.161C33.8151 24.168 33.7849 24.168 33.756 24.161C33.747 24.155 33.748 24.129 33.756 24.115C33.7713 24.0832 33.7908 24.0536 33.814 24.027L33.811 24.029ZM33.701 24.529C33.691 24.543 33.601 24.618 33.588 24.605C33.5738 24.5356 33.5711 24.4643 33.58 24.394C33.588 24.379 33.687 24.429 33.697 24.44C33.7071 24.4666 33.7082 24.4958 33.7 24.523L33.701 24.529ZM33.627 17.083C33.627 17.091 33.572 17.157 33.564 17.155C33.5411 17.1253 33.5244 17.0913 33.515 17.055C33.5544 17.0551 33.5934 17.0626 33.63 17.077L33.627 17.083ZM33.551 19.819C33.559 19.768 33.63 19.78 33.651 19.74C33.641 19.906 33.666 20.108 33.642 20.259C33.633 20.318 33.542 20.289 33.515 20.333C33.532 20.159 33.527 19.97 33.554 19.813L33.551 19.819ZM33.509 31.081C33.5146 31.1094 33.5146 31.1386 33.509 31.167C33.4799 31.1716 33.45 31.1692 33.422 31.16C33.413 31.154 33.416 31.128 33.422 31.115C33.438 31.0855 33.4582 31.0586 33.482 31.035C33.491 31.026 33.509 31.061 33.512 31.075L33.509 31.081ZM33.409 30.881C33.401 30.899 33.309 30.927 33.293 30.912C33.2716 30.8559 33.2624 30.7959 33.266 30.736C33.2723 30.7232 33.2816 30.7119 33.293 30.7033C33.3044 30.6946 33.3177 30.6888 33.3317 30.6861C33.3458 30.6835 33.3603 30.6842 33.3741 30.6882C33.3878 30.6922 33.4005 30.6993 33.411 30.709C33.4246 30.762 33.4263 30.8173 33.416 30.871L33.409 30.881ZM33.286 17.401C33.295 17.394 33.339 17.436 33.34 17.456C33.332 17.5122 33.3172 17.5673 33.296 17.62C33.288 17.627 33.247 17.544 33.246 17.52C33.2547 17.4748 33.2706 17.4312 33.293 17.391L33.286 17.401ZM32.896 17.559C32.901 17.547 32.967 17.643 32.974 17.659C32.9768 17.6889 32.9745 17.719 32.967 17.748C32.967 17.763 32.941 17.787 32.934 17.787C32.927 17.787 32.908 17.801 32.904 17.776C32.8963 17.7006 32.895 17.6247 32.9 17.549L32.896 17.559ZM32.301 16.725C32.3751 16.757 32.4428 16.8021 32.501 16.858C32.5156 16.9158 32.5099 16.9769 32.485 17.031C32.4277 17.0511 32.3653 17.0511 32.308 17.031C32.2828 16.9578 32.2683 16.8814 32.265 16.804C32.268 16.77 32.293 16.708 32.308 16.715L32.301 16.725ZM32.253 23.993C32.2316 24.0375 32.2048 24.0792 32.173 24.117C32.163 24.128 32.145 24.127 32.142 24.117C32.1355 24.0746 32.1355 24.0314 32.142 23.989C32.1797 23.9745 32.221 23.9724 32.26 23.983L32.253 23.993ZM32.158 19.465C32.1272 19.4522 32.1 19.432 32.079 19.406C32.1043 19.3782 32.1349 19.3558 32.169 19.34C32.1744 19.3783 32.173 19.4172 32.165 19.455L32.158 19.465ZM32.065 23.844C32.075 23.832 32.096 23.875 32.096 23.89C32.096 23.905 32.046 23.947 32.042 23.977C32.0245 24.0332 32.0217 24.0929 32.0337 24.1505C32.0458 24.2081 32.0724 24.2616 32.111 24.306C32.131 24.332 32.119 24.427 32.117 24.437C32.115 24.447 32.069 24.459 32.059 24.437C32.0028 24.3459 31.9741 24.2406 31.9765 24.1336C31.9788 24.0266 32.0119 23.9226 32.072 23.834L32.065 23.844ZM31.936 23.595C31.98 23.538 32.018 23.542 32.086 23.56C32.06 23.66 32.066 23.66 31.999 23.687C31.988 23.687 31.999 23.611 31.993 23.602C31.987 23.593 31.935 23.6 31.943 23.585L31.936 23.595ZM32.067 18.332C32.086 18.4089 32.0991 18.4871 32.106 18.566C32.1084 18.654 32.1003 18.7419 32.082 18.828C32.066 18.852 31.954 18.783 31.941 18.757C31.9208 18.6986 31.9153 18.6361 31.925 18.575C31.9707 18.4936 32.0082 18.4078 32.037 18.319C32.045 18.3 32.068 18.29 32.074 18.322L32.067 18.332ZM31.921 16.4C31.93 16.4 31.967 16.47 31.971 16.5C31.9718 16.558 31.9671 16.6159 31.957 16.673C31.957 16.691 31.935 16.684 31.927 16.673C31.9064 16.6269 31.8909 16.5786 31.881 16.529C31.8849 16.4836 31.8985 16.4396 31.921 16.4ZM31.873 25.069L32.173 24.902C32.182 24.897 32.201 24.895 32.203 24.902C32.215 24.978 32.173 25.151 32.192 25.213C32.2052 25.2717 32.2412 25.3228 32.292 25.355C32.333 25.369 32.422 25.249 32.47 25.24C32.531 25.34 32.535 25.34 32.484 25.423C32.4776 25.4654 32.4776 25.5086 32.484 25.551L32.507 25.567C32.48 25.53 32.731 25.614 32.736 25.567C32.736 25.542 32.693 25.437 32.708 25.387C32.723 25.337 32.821 25.265 32.848 25.211C32.842 25.276 32.766 25.325 32.771 25.394C32.78 25.512 32.854 25.648 32.871 25.768C32.792 25.712 32.561 25.641 32.507 25.568H32.487V25.555C32.487 25.555 32.439 25.47 32.418 25.482C32.34 25.528 32.284 25.708 32.25 25.829C32.25 25.839 32.222 25.842 32.22 25.829L32.129 25.229C32.1023 25.1876 32.0639 25.155 32.0187 25.1353C31.9736 25.1155 31.9236 25.1095 31.875 25.118C31.868 25.116 31.864 25.077 31.873 25.072V25.069ZM31.756 24.693C31.765 24.7 31.769 24.777 31.756 24.776C31.714 24.7505 31.6751 24.7203 31.64 24.686C31.6792 24.6841 31.7184 24.6888 31.756 24.7V24.693ZM31.542 19.287C31.5245 19.3268 31.5024 19.3644 31.476 19.399C31.4622 19.3717 31.455 19.3416 31.455 19.311C31.4819 19.2972 31.5118 19.29 31.542 19.29V19.287ZM31.242 20.259C31.2997 20.1133 31.3196 19.9554 31.3 19.8C31.3 19.785 31.3 19.762 31.308 19.755C31.316 19.748 31.376 19.773 31.396 19.772C31.4219 20.0226 31.4012 20.2759 31.335 20.519C31.4545 20.6012 31.5596 20.7025 31.646 20.819C31.5449 20.963 31.5004 21.1393 31.521 21.314C31.4908 21.2716 31.4489 21.2389 31.4004 21.2199C31.352 21.2009 31.299 21.1964 31.248 21.207C31.2868 20.9685 31.2416 20.7239 31.12 20.515C31.0891 20.4721 31.0739 20.4198 31.077 20.367C31.129 20.243 31.142 20.261 31.239 20.262L31.242 20.259Z" fill="#FF8300"/>
<path d="M34.5 45.65C34.352 45.6193 34.2058 45.5806 34.062 45.534L33.862 45.515V45.5L33.855 45.465C34.055 45.403 34.255 45.338 34.467 45.295C34.446 45.2541 34.4103 45.2226 34.367 45.207L34.451 45.138C34.4141 45.0002 34.3929 44.8586 34.388 44.716C34.3623 44.4612 34.2993 44.2115 34.201 43.975C34.2045 43.9356 34.2171 43.8976 34.238 43.864C34.2296 43.8312 34.2242 43.7978 34.222 43.764C34.1581 43.7386 34.0906 43.7231 34.022 43.718C33.9206 43.7339 33.8185 43.7446 33.716 43.75C33.532 43.726 33.374 43.609 33.216 43.595C33.0718 43.6064 32.9278 43.5714 32.805 43.495L32.527 43.448L32.08 43.51L31.735 43.572C31.6161 43.5594 31.4966 43.5527 31.377 43.552L30.788 43.631L30.514 44.412C30.4633 44.5435 30.4059 44.6724 30.342 44.798C30.2601 44.9881 30.2123 45.1913 30.201 45.398C30.1706 45.4378 30.1303 45.4688 30.084 45.488L30.07 45.549C30.1924 45.7177 30.3034 45.8944 30.402 46.078C30.4564 46.1794 30.5055 46.2835 30.549 46.39C30.575 46.451 30.563 46.47 30.583 46.524C30.6273 46.5744 30.6647 46.6306 30.694 46.691C30.75 46.7961 30.8145 46.8965 30.887 46.991L30.925 47.091L31.054 47.191C31.146 47.222 31.242 47.26 31.315 47.291C31.3591 47.3083 31.4018 47.3287 31.443 47.352C31.526 47.4016 31.6034 47.4599 31.674 47.526L31.717 47.465C31.7828 47.5369 31.8657 47.5909 31.958 47.622C32.105 47.69 32.249 47.747 32.381 47.822L32.463 47.871C32.574 47.842 32.672 47.837 32.795 47.798L33.178 47.619L33.423 47.511L34.299 47.179L34.323 47.051C34.366 46.825 34.347 46.458 34.4 46.327C34.448 46.227 34.4 46.198 34.418 46.103C34.426 46.062 34.493 46.03 34.503 45.983C34.515 45.874 34.515 45.764 34.503 45.655L34.5 45.65ZM34.2 44.805C34.209 44.794 34.2 44.79 34.2 44.78C34.2388 44.7999 34.2814 44.8112 34.325 44.813L34.278 44.851L34.24 44.873C34.226 44.846 34.222 44.843 34.177 44.84C34.178 44.825 34.19 44.816 34.2 44.805ZM34.1 45.031C34.117 45.023 34.177 45.025 34.194 45.016C34.211 45.007 34.194 44.983 34.194 44.978C34.2053 44.9763 34.2167 44.9763 34.228 44.978C34.228 44.987 34.207 45.025 34.209 45.034C34.211 45.043 34.209 45.04 34.222 45.041C34.235 45.042 34.258 45.029 34.27 45.028C34.262 45.08 34.217 45.128 34.201 45.175H34.19C34.151 45.136 34.144 45.105 34.074 45.085C34.068 45.085 34.059 45.076 34.063 45.07C34.0718 45.054 34.0845 45.0406 34.1 45.031ZM34.01 44.331C34.01 44.325 34.043 44.316 34.043 44.331C34.0364 44.3647 34.0281 44.3981 34.018 44.431C34.018 44.419 33.994 44.406 33.993 44.393C33.9961 44.3732 34.0022 44.354 34.011 44.336L34.01 44.331ZM33.953 44.372L33.958 44.431C33.937 44.417 33.932 44.417 33.954 44.377L33.953 44.372ZM30.261 45.414L30.287 45.368C30.2907 45.3851 30.293 45.4025 30.294 45.42L30.261 45.414ZM30.388 45.473L30.371 45.459L30.39 45.427L30.406 45.464L30.388 45.473ZM30.688 44.488L30.696 44.52L30.657 44.497L30.688 44.488ZM30.578 44.988C30.5549 44.9563 30.5341 44.9228 30.516 44.888C30.516 44.875 30.554 44.876 30.558 44.865L30.592 44.965C30.594 44.985 30.58 44.989 30.578 45V44.988ZM30.625 44.867C30.639 44.867 30.645 44.902 30.625 44.913L30.596 44.897C30.596 44.897 30.611 44.873 30.625 44.876V44.867ZM30.625 44.991C30.6281 44.9806 30.6348 44.9717 30.644 44.966C30.6566 44.9657 30.6691 44.9688 30.68 44.975C30.6869 44.9878 30.6916 45.0017 30.694 45.016C30.694 45.022 30.694 45.023 30.688 45.023C30.6748 45.0254 30.6612 45.0254 30.648 45.023C30.6381 45.0173 30.6295 45.0094 30.623 45L30.625 44.991ZM30.664 45.298C30.658 45.285 30.684 45.273 30.684 45.26C30.6961 45.2678 30.7059 45.2787 30.7124 45.2915C30.7189 45.3043 30.7219 45.3186 30.721 45.333C30.706 45.331 30.668 45.319 30.662 45.307L30.664 45.298ZM30.729 46.075L30.722 46.053H30.734L30.77 46.062L30.729 46.075ZM30.964 44.875L31 44.878V44.913V44.92L30.969 44.904L30.964 44.875ZM31.058 44.701C31.052 44.694 31.068 44.676 31.076 44.676C31.0936 44.6792 31.1105 44.6853 31.126 44.694L31.109 44.74C31.0902 44.7329 31.0724 44.7235 31.056 44.712L31.058 44.701ZM33.728 44.501C33.728 44.512 33.734 44.528 33.728 44.537C33.722 44.546 33.703 44.549 33.695 44.556C33.7 44.541 33.7 44.547 33.726 44.517L33.728 44.501ZM33.572 43.792C33.627 43.831 33.621 43.875 33.607 43.937L33.469 43.895C33.5081 43.873 33.5425 43.8434 33.57 43.808L33.572 43.792ZM33.416 43.892L33.438 43.899L33.422 43.931H33.411L33.4 43.903L33.416 43.892ZM33.309 43.9C33.315 43.894 33.348 43.909 33.351 43.913C33.3528 43.9291 33.35 43.9454 33.343 43.96C33.337 43.96 33.302 43.96 33.298 43.96C33.2963 43.9528 33.2962 43.9452 33.2978 43.938C33.2993 43.9307 33.3025 43.9239 33.307 43.918L33.309 43.9ZM33.283 43.746H33.296C33.3009 43.7604 33.3018 43.7759 33.2984 43.7907C33.2951 43.8055 33.2877 43.8191 33.277 43.83C33.277 43.836 33.245 43.839 33.239 43.83C33.21 43.808 33.236 43.789 33.281 43.764L33.283 43.746ZM33.229 44.114C33.234 44.114 33.259 44.13 33.258 44.137C33.2511 44.1555 33.2417 44.173 33.23 44.189C33.225 44.189 33.198 44.184 33.199 44.178C33.2067 44.1617 33.216 44.1463 33.227 44.132L33.229 44.114ZM32.829 43.762L32.823 43.785C32.791 43.785 32.77 43.768 32.758 43.72L32.829 43.762ZM32.757 44.173C32.7628 44.1617 32.771 44.1518 32.781 44.144C32.787 44.144 32.808 44.149 32.809 44.156C32.8083 44.1671 32.8056 44.1779 32.801 44.188L32.756 44.18L32.757 44.173ZM32.285 44.116C32.305 44.116 32.328 44.092 32.349 44.089C32.3438 44.1097 32.3401 44.1308 32.338 44.152H32.317V44.134C32.317 44.134 32.295 44.147 32.286 44.134C32.2736 44.1139 32.2623 44.0932 32.252 44.072C32.261 44.1 32.271 44.134 32.284 44.134L32.285 44.116ZM32.095 43.716C32.095 43.716 32.108 43.716 32.111 43.716C32.114 43.716 32.126 43.763 32.126 43.763C32.126 43.763 32.093 43.763 32.089 43.763L32.095 43.716ZM32.028 43.646H32.043V43.7H32.036L32.02 43.675L32.028 43.646ZM31.072 43.662C31.093 43.6641 31.1138 43.6681 31.134 43.674C31.1247 43.6913 31.1113 43.706 31.095 43.717C31.0719 43.7135 31.0496 43.706 31.029 43.695C31.026 43.707 31.062 43.682 31.071 43.68L31.072 43.662ZM31.106 43.782C31.124 43.782 31.138 43.82 31.155 43.827C31.1058 43.8315 31.0564 43.8335 31.007 43.833C30.991 43.833 30.975 43.805 30.958 43.799C31.006 43.815 31.056 43.8 31.105 43.8L31.106 43.782ZM30.959 44.446H30.975C30.975 44.446 30.985 44.446 30.984 44.454C30.983 44.462 30.968 44.5 30.968 44.5C30.961 44.4883 30.9547 44.4763 30.949 44.464C30.948 44.476 30.958 44.464 30.958 44.464L30.959 44.446ZM30.832 44.407C30.8362 44.4176 30.8389 44.4287 30.84 44.44C30.8322 44.4479 30.8234 44.455 30.814 44.461C30.814 44.461 30.799 44.443 30.8 44.438C30.8101 44.4331 30.8204 44.4287 30.831 44.425L30.832 44.407ZM30.832 46.575C30.8225 46.5717 30.8135 46.5674 30.805 46.562C30.8002 46.555 30.7981 46.5465 30.799 46.538C30.799 46.538 30.811 46.513 30.818 46.514C30.8276 46.5171 30.836 46.5231 30.8421 46.5311C30.8482 46.5392 30.8517 46.5489 30.852 46.559L30.832 46.575ZM30.932 45.961V45.946L30.963 45.933L30.969 45.955L30.932 45.961ZM31 46C31.0011 45.9876 31.0064 45.976 31.015 45.967L31.043 45.929C31.0445 45.9273 31.0464 45.926 31.0484 45.9251C31.0505 45.9243 31.0528 45.9239 31.055 45.924C31.055 45.924 31.07 45.953 31.062 45.963C31.042 45.9764 31.0213 45.9888 31 46ZM31.874 47.088L31.782 47.064C31.772 47.064 31.766 47.046 31.757 47.04C31.781 47.04 31.819 47.019 31.839 47.023C31.859 47.027 31.873 47.058 31.887 47.068L31.874 47.088ZM33.227 46.888H33.153V46.877L33.232 46.862L33.227 46.888ZM33.427 46.923C33.4192 46.9131 33.4125 46.9023 33.407 46.891C33.407 46.891 33.426 46.876 33.431 46.878C33.4434 46.891 33.4551 46.9047 33.466 46.919C33.4524 46.9235 33.4383 46.9265 33.424 46.928L33.427 46.923ZM33.649 47.21C33.643 47.21 33.628 47.191 33.628 47.191V47.179C33.628 47.179 33.658 47.159 33.663 47.162C33.6772 47.1716 33.6872 47.1863 33.691 47.203C33.685 47.213 33.651 47.216 33.646 47.215L33.649 47.21ZM33.883 47.11C33.877 47.11 33.877 47.099 33.877 47.099C33.8924 47.0912 33.9085 47.0849 33.925 47.08C33.931 47.08 33.942 47.109 33.942 47.109C33.942 47.109 33.886 47.116 33.88 47.115L33.883 47.11Z" fill="#FF8300"/>
</svg>
