<svg width="64" height="64" viewBox="0 0 64 64" fill="none" xmlns="http://www.w3.org/2000/svg">
<path d="M59.035 32.837C58.605 32.729 58.347 32.197 57.942 32.059C57.858 32.03 57.836 32.235 57.773 32.239C57.4352 32.2213 57.1042 32.137 56.799 31.991C56.7954 31.9759 56.7954 31.9601 56.799 31.945C56.799 31.932 56.83 31.945 56.857 31.964L56.935 31.924C56.9519 31.8212 56.9566 31.7169 56.949 31.613C56.949 31.594 56.99 31.541 57.003 31.564C57.038 31.6404 57.0664 31.7197 57.088 31.801L57.095 31.842C57.6977 31.5009 58.3271 31.2092 58.977 30.97C58.907 30.37 58.84 29.77 58.794 29.176C58.78 28.995 58.759 28.836 58.736 28.684L58.652 28.137L58.522 27.697C58.488 27.578 58.456 27.451 58.422 27.311C58.3006 26.7005 58.2122 26.084 58.157 25.464C57.966 24.964 57.786 24.482 57.568 23.998C57.5417 23.4642 57.4472 22.9359 57.287 22.426C57.2086 22.1686 57.1165 21.9156 57.011 21.668C56.885 21.379 56.751 21.068 56.606 20.738L56.433 20.438C56.37 20.331 56.313 20.232 56.292 20.185L56.105 19.812L55.248 19.141C55.2721 19.0578 55.2758 18.97 55.259 18.885C55.327 18.865 55.307 18.868 55.396 18.911C55.42 18.922 55.456 18.871 55.467 18.858C55.216 18.518 54.652 17.939 54.367 17.621C54.2911 17.5275 54.2242 17.427 54.167 17.321C53.953 16.913 54.155 16.984 54.021 16.667L53.445 16.114C53.395 15.942 53.458 15.843 53.386 15.658C53.2967 15.4411 53.184 15.2345 53.05 15.042L52.842 14.742L52.501 14.227L52.33 14.1C52.0904 13.9268 51.8724 13.7253 51.681 13.5C51.5263 13.3162 51.3269 13.1754 51.102 13.091C50.853 12.791 50.696 12.796 50.614 13.012C50.606 13.034 50.514 12.989 50.521 12.976C50.564 12.8682 50.6432 12.7788 50.745 12.723C50.145 12.268 49.49 11.81 48.939 11.315C48.745 11.152 48.725 10.988 48.527 10.852C48.436 10.79 48.317 10.782 48.22 10.728C48.0656 10.4605 47.8752 10.2156 47.654 9.99999C47.383 9.72999 47.254 9.62599 46.686 9.14199C46.3341 8.99904 45.9742 8.87683 45.608 8.77599C44.8377 8.29612 44.0277 7.88295 43.187 7.54099C42.347 7.11799 41.287 6.65699 40.423 6.31099L40.176 6.12899L39.732 5.84599L39.163 5.69599C37.5543 5.35439 35.9155 5.17416 34.271 5.15799C34.005 5.12076 33.7467 5.04108 33.506 4.92199L32.85 4.79999C32.609 4.75899 32.496 4.73199 32.009 4.66699L30.904 4.76699L29.991 4.86699L29.091 4.99499L28.075 5.15599C27.802 5.23799 27.7 5.27699 27.575 5.31999L27.205 5.45299C26.0797 5.5875 24.9858 5.91425 23.971 6.41899C23.3937 6.43572 22.8238 6.55315 22.287 6.76599L22.321 6.95199C22.073 6.98699 21.831 7.02899 21.591 7.07899L21.235 7.15899C21.119 7.18699 21.022 7.20999 20.768 7.28999L20.313 7.50499L19.966 7.67999C19.734 7.80099 19.501 7.93299 19.266 8.07399C19.0411 8.20579 18.8479 8.38535 18.7 8.59999L18.3 8.53499L17.863 8.77599L17.245 9.09099L16.745 9.50299L16.385 9.78499L15.664 10.347L14.964 10.923L14.625 11.223L14.225 11.593C14.1217 11.7064 14.0249 11.8256 13.935 11.95L13.72 12.25C13.6444 12.3092 13.5484 12.3362 13.453 12.325C13.23 12.583 12.909 12.785 12.713 13.056C12.517 13.327 12.494 13.584 12.259 13.846C11.759 14.387 11.311 14.582 10.795 15.213L10.052 16.13C9.918 16.289 9.779 16.446 9.636 16.596L9.036 17.196C8.94407 17.3596 8.84394 17.5185 8.736 17.672L7.485 20.264C7.077 21.129 6.748 22.03 6.385 22.913C6.2977 23.1169 6.19016 23.3115 6.064 23.494C5.90306 23.7222 5.76696 23.9669 5.658 24.224L5.625 24.384C5.378 25.684 5.161 26.835 4.917 28.125C4.902 28.514 4.884 28.957 4.866 29.425C4.852 29.79 4.818 30.19 4.779 30.607C4.759 30.816 4.738 31.029 4.718 31.244L4.649 32.07L4.76 32.922C4.793 33.145 4.831 33.365 4.874 33.58C4.95154 33.9881 5.06774 34.3879 5.221 34.774C5.21804 34.9044 5.16505 35.0286 5.073 35.121C5.24009 35.8327 5.3577 36.5551 5.425 37.283C5.46 37.655 5.494 38.025 5.525 38.389C5.56 38.825 5.595 39.251 5.625 39.656L5.776 40.113L5.82 40.299C5.84639 40.434 5.87977 40.5675 5.92 40.699C6.295 41.459 6.51 42.317 6.902 43.077C6.914 43.137 6.981 43.34 7.019 43.466L7.166 43.743L7.247 43.911L7.385 44.211C8.12922 45.2048 8.77935 46.2657 9.327 47.38L9.517 47.329C9.73198 47.7735 9.98845 48.1967 10.283 48.593L10.727 49.193L10.946 49.493L11.246 49.928L11.522 50.204C11.905 50.599 12.107 50.958 12.458 51.348L13.2 52L14.031 52.786L15.288 53.639L16.403 54.416C17.13 54.959 17.913 55.421 18.683 55.901C18.942 56.061 19.247 56.213 19.558 56.364L20.021 56.589L20.259 56.711L20.651 56.933L21.139 57.069C21.224 57.096 21.305 57.124 21.38 57.155C21.8318 57.3047 22.2945 57.4191 22.764 57.497C23.02 57.571 23.242 57.791 23.536 57.879C24.2 58.067 24.88 58.187 25.544 58.35C25.8974 58.4574 26.2408 58.5956 26.57 58.763C26.7375 58.8408 26.9098 58.9076 27.086 58.963C27.1689 58.9882 27.2535 59.0079 27.339 59.022L27.668 59.065C27.837 59.192 27.757 59.227 28.068 59.339H28.191L29.191 59.309L29.956 59.261C30.469 59.222 30.983 59.169 31.469 59.104C31.687 59.116 31.878 59.191 32.097 59.191C32.771 59.191 33.458 59.11 34.121 59.045C34.3668 59.1252 34.6219 59.1736 34.88 59.189C35.24 59.2101 35.601 59.2101 35.961 59.189L36.661 58.971C37.922 58.571 39.48 58.098 40.696 57.598C41.1079 57.446 41.5291 57.3205 41.957 57.222L42.557 57.062L42.857 56.962L43.233 56.821L43.379 56.749L43.455 56.707C43.637 56.607 43.755 56.425 43.92 56.35C44.377 56.142 44.82 56.172 45.254 55.934L45.932 55.585L46.275 55.419L46.822 55.17L48.147 54.163L49.3 53.299C49.5 53.145 49.486 53.014 49.632 52.856C49.7254 52.7659 49.8257 52.6833 49.932 52.609C50.082 52.4428 50.2551 52.2989 50.446 52.182C50.5964 52.0878 50.7354 51.9764 50.86 51.85C51.16 51.529 51.442 51.201 51.723 50.869L52.64 49.769L52.84 49.444L52.966 49.227L53.218 48.793L54.226 47.669L54.864 46.634L56.595 43.254C56.773 42.78 56.948 42.3133 57.12 41.854L57.576 40.581L57.726 40.168L57.939 39.63L58.067 39.03L58.174 38.583L58.402 37.704C58.564 37.104 58.725 36.498 58.884 35.904L58.984 35.265L59.067 34.686C59.117 34.297 59.155 33.903 59.177 33.501C59.186 33.23 59.039 33.106 59.035 32.837ZM58.378 30.871C58.354 30.905 58.34 30.978 58.325 30.971C58.3004 30.9113 58.2832 30.8489 58.274 30.785C58.274 30.759 58.253 30.745 58.274 30.731C58.3226 30.7218 58.3717 30.7158 58.421 30.713C58.4216 30.7686 58.4067 30.8233 58.378 30.871ZM58.491 29.933C58.5263 30.0588 58.5494 30.1877 58.56 30.318C58.56 30.355 58.435 30.372 58.417 30.333C58.3839 30.205 58.3589 30.0751 58.342 29.944C58.342 29.927 58.355 29.887 58.369 29.892C58.383 29.897 58.478 29.9 58.491 29.933ZM58.4 28.178C58.411 28.5 58.4 28.587 58.4 28.786L58.394 29.308L58.201 29.276C58.2285 29.1144 58.2422 28.9509 58.242 28.787C58.242 28.601 58.242 28.512 58.218 28.214L58.384 28.1L58.4 28.178ZM58.062 27.7C58.1218 27.6935 58.1822 27.6935 58.242 27.7C58.258 27.706 58.274 27.737 58.253 27.748C58.1882 27.7713 58.1212 27.7877 58.053 27.797C58.048 27.8 58.047 27.706 58.065 27.7H58.062ZM57.477 27.1C57.486 27.093 57.527 27.163 57.53 27.185C57.53 27.237 57.5229 27.2888 57.509 27.339C57.5 27.346 57.433 27.283 57.43 27.261C57.439 27.2052 57.4558 27.151 57.48 27.1H57.477ZM57.412 31.4C57.3984 31.4552 57.3746 31.5074 57.342 31.554C57.328 31.565 57.286 31.532 57.277 31.512C57.2649 31.4643 57.2599 31.4151 57.262 31.366C57.262 31.345 57.301 31.307 57.316 31.311C57.331 31.315 57.412 31.375 57.415 31.4H57.412ZM57.3 28.278C57.3159 28.3019 57.3255 28.3294 57.328 28.358C57.3275 28.3973 57.3311 28.4365 57.339 28.475C57.261 28.445 57.245 28.441 57.221 28.375L57.181 28.295C57.212 28.307 57.268 28.249 57.3 28.278ZM57.3 30.536C57.328 30.558 57.313 30.728 57.333 30.778C57.2961 30.7681 57.2616 30.7507 57.2319 30.7267C57.2021 30.7028 57.1776 30.6729 57.16 30.639C57.191 30.634 57.263 30.513 57.293 30.536H57.3ZM5.445 32.036C5.45495 32.085 5.45998 32.135 5.46 32.185C5.447 32.162 5.377 32.196 5.37 32.147L5.355 32.039C5.35283 31.9502 5.36812 31.8619 5.4 31.779C5.419 31.767 5.44 31.906 5.438 32.038L5.445 32.036ZM5.35 29.436C5.36987 29.4696 5.38343 29.5065 5.39 29.545C5.35186 29.5406 5.31489 29.529 5.281 29.511C5.27 29.505 5.334 29.437 5.343 29.439L5.35 29.436ZM5.39 34.788C5.38322 34.7265 5.38322 34.6645 5.39 34.603C5.42616 34.6669 5.45661 34.7338 5.481 34.803C5.471 34.817 5.389 34.805 5.383 34.791L5.39 34.788ZM5.2 32.402C5.171 32.347 5.238 32.148 5.228 32.043V32.031V32.043C5.297 32.2484 5.37986 32.4488 5.476 32.643C5.495 32.688 5.476 32.749 5.484 32.797C5.38013 32.6716 5.28299 32.5407 5.193 32.405L5.2 32.402ZM5.668 25.502C5.69697 25.5759 5.71418 25.6538 5.719 25.733C5.69632 25.7936 5.65926 25.8478 5.611 25.891C5.5931 25.8194 5.58469 25.7458 5.586 25.672C5.60006 25.6105 5.6255 25.5521 5.661 25.5L5.668 25.502ZM5.695 29.059C5.68427 29.1055 5.6671 29.1502 5.644 29.192C5.635 29.198 5.595 29.149 5.596 29.126C5.60914 29.0649 5.62823 29.0053 5.653 28.948C5.656 28.943 5.689 29.037 5.688 29.06L5.695 29.059ZM5.584 32.707C5.57057 32.6412 5.56854 32.5735 5.578 32.507C5.587 32.482 5.645 32.454 5.667 32.47C5.70692 32.5332 5.74042 32.6002 5.767 32.67C5.779 32.7 5.779 32.708 5.767 32.726C5.755 32.744 5.7 32.814 5.679 32.809C5.63617 32.7856 5.60081 32.7506 5.577 32.708L5.584 32.707ZM5.764 35C5.73789 34.9858 5.71586 34.9651 5.7 34.94C5.69313 34.8936 5.69313 34.8464 5.7 34.8C5.73499 34.8477 5.76545 34.8986 5.791 34.952C5.79212 34.9618 5.79012 34.9717 5.78527 34.9804C5.78042 34.989 5.77298 34.9958 5.764 35ZM5.853 26.362C5.834 26.416 5.767 26.389 5.74 26.428C5.783 26.249 5.8 26.028 5.853 25.866C5.874 25.803 5.96 25.852 5.993 25.809C5.944 25.988 5.91 26.194 5.853 26.36V26.362ZM6.041 29.048C6.035 29.062 5.977 28.948 5.972 28.931C5.97124 28.8971 5.97597 28.8634 5.986 28.831C5.99308 28.8134 6.00619 28.7988 6.023 28.79C6.03 28.79 6.05 28.776 6.052 28.804C6.05356 28.8848 6.04989 28.9656 6.041 29.046V29.048ZM6.311 30.988C6.3256 31.0538 6.33463 31.1207 6.338 31.188C6.338 31.216 6.338 31.237 6.329 31.241C6.29831 31.2406 6.26855 31.2304 6.244 31.212C6.23177 31.1777 6.22767 31.1411 6.232 31.105C6.238 31.086 6.3 30.977 6.311 30.986V30.988ZM6.111 33.865C6.21332 33.9515 6.28372 34.0698 6.311 34.201C6.264 34.151 6.16 34.125 6.127 34.069C6.094 34.013 6.132 33.925 6.112 33.863L6.111 33.865ZM6.245 38.165C6.23802 38.1176 6.23802 38.0694 6.245 38.022C6.245 38.01 6.265 38.012 6.276 38.027C6.3094 38.0766 6.33819 38.1291 6.362 38.184C6.358 38.2 6.256 38.18 6.246 38.165H6.245ZM6.558 30.018C6.48682 29.9751 6.42384 29.9199 6.372 29.855C6.36356 29.7897 6.37433 29.7233 6.403 29.664C6.46115 29.6436 6.52492 29.6465 6.581 29.672C6.59952 29.7557 6.60692 29.8414 6.603 29.927C6.6 29.96 6.573 30.027 6.559 30.018H6.558ZM6.767 41.587C6.72818 41.5456 6.69459 41.4996 6.667 41.45C6.64807 41.4033 6.63595 41.3541 6.631 41.304C6.631 41.282 6.646 41.186 6.669 41.204C6.74409 41.3003 6.79331 41.4143 6.812 41.535C6.82 41.557 6.782 41.6 6.768 41.587H6.767ZM6.9 38.216C6.892 38.223 6.82 38.17 6.812 38.155C6.80326 38.1222 6.80326 38.0878 6.812 38.055C6.84174 38.0488 6.87273 38.0537 6.899 38.069C6.90777 38.1176 6.90811 38.1673 6.9 38.216ZM6.917 30.4C6.907 30.4 6.877 30.318 6.875 30.286C6.88024 30.2213 6.89027 30.1572 6.905 30.094C6.911 30.075 6.928 30.084 6.935 30.102C6.95099 30.1555 6.96204 30.2104 6.968 30.266C6.95921 30.3134 6.94193 30.3588 6.917 30.4ZM7.151 38.467C7.122 38.505 7.015 38.476 6.971 38.498C6.9756 38.4449 6.99657 38.3946 7.031 38.354C7.061 38.315 7.105 38.234 7.123 38.219C7.141 38.204 7.154 38.2 7.155 38.226C7.16631 38.305 7.16496 38.3854 7.151 38.464V38.467ZM7.151 28.052C7.08686 28.1311 7.02933 28.2154 6.979 28.304C6.979 28.311 6.951 28.317 6.952 28.286C6.9529 28.1983 6.95925 28.1108 6.971 28.024C6.99065 27.9274 7.02048 27.8332 7.06 27.743C7.082 27.72 7.174 27.818 7.181 27.849C7.18474 27.9172 7.17383 27.9854 7.149 28.049L7.151 28.052ZM7.1 27.164C7.10678 27.1175 7.1206 27.0723 7.141 27.03C7.149 27.03 7.208 27.1 7.205 27.111C7.17364 27.1351 7.13802 27.1531 7.1 27.164ZM55.921 23.846C56.015 23.877 56.1 23.946 56.193 23.989C56.1171 24.1641 56.0247 24.3315 55.917 24.489C55.911 24.501 55.895 24.511 55.887 24.496L55.545 23.788C55.5371 23.7732 55.5327 23.7568 55.532 23.74C55.5349 23.7355 55.5393 23.7322 55.5445 23.7307C55.5496 23.7292 55.5552 23.7297 55.56 23.732C55.6404 23.7927 55.7072 23.8697 55.7559 23.9579C55.8047 24.0461 55.8344 24.1436 55.843 24.244C55.982 24.15 55.986 24.105 55.921 23.846ZM55.677 26.116C55.668 26.092 55.667 26.01 55.685 26.016C55.744 26.0418 55.7956 26.082 55.835 26.133C55.8714 26.2409 55.9005 26.3511 55.922 26.463C55.927 26.482 55.887 26.394 55.869 26.381C55.7806 26.3132 55.7139 26.2211 55.677 26.116ZM55.777 26.784C55.777 26.794 55.74 26.849 55.733 26.842C55.7163 26.7981 55.7046 26.7525 55.698 26.706C55.698 26.696 55.757 26.728 55.765 26.735C55.7742 26.7496 55.7788 26.7667 55.778 26.784H55.777ZM55.67 24.242C55.6984 24.282 55.7131 24.33 55.712 24.379C55.6694 24.4035 55.6212 24.417 55.572 24.418C55.551 24.418 55.52 24.348 55.513 24.333C55.506 24.318 55.485 24.293 55.502 24.284C55.5554 24.2601 55.6126 24.2459 55.671 24.242H55.67ZM55.649 27.034L55.698 27.342C55.805 27.253 55.862 27.098 55.966 27.004C55.942 27.131 55.933 27.154 55.854 27.194C55.9 27.281 55.982 27.387 56.016 27.468C56.026 27.492 55.972 27.468 55.961 27.489C55.913 27.569 55.854 27.641 55.761 27.589C55.668 27.537 55.63 27.389 55.579 27.267C55.5732 27.2594 55.5693 27.2506 55.5676 27.2412C55.5658 27.2318 55.5663 27.2221 55.569 27.213C55.581 27.177 55.634 27.078 55.65 27.034H55.649ZM55.975 28.175C55.9405 28.174 55.9065 28.1662 55.875 28.152C55.864 28.144 55.861 28.114 55.861 28.103C55.861 28.092 55.869 28.051 55.879 28.049C55.9045 28.0537 55.9283 28.0651 55.948 28.082C55.9642 28.1105 55.9738 28.1423 55.976 28.175H55.975ZM55.702 28.862C55.7093 28.7839 55.7119 28.7054 55.71 28.627V28.615C55.726 28.615 55.79 28.592 55.797 28.598L55.81 28.611C55.8207 28.6222 55.8294 28.635 55.836 28.649L55.877 28.798C55.9055 28.8971 55.9413 28.9941 55.984 29.088C55.959 29.188 55.95 29.314 55.884 29.347C55.8082 29.3815 55.723 29.3896 55.642 29.37C55.601 29.356 55.61 29.17 55.578 29.13C55.6492 29.0579 55.6924 28.963 55.7 28.862H55.702ZM55.838 29.534C55.858 29.534 55.927 29.634 55.938 29.671C55.953 29.7366 55.9607 29.8037 55.961 29.871C55.9632 29.9071 55.9564 29.9432 55.941 29.976C55.929 29.987 55.865 30.011 55.852 29.983C55.7999 29.8747 55.7587 29.7615 55.729 29.645C55.728 29.6 55.818 29.534 55.839 29.534H55.838ZM56.203 30.311C56.171 30.2537 56.1455 30.193 56.127 30.13C56.127 30.119 56.238 30.151 56.244 30.165C56.2388 30.216 56.2239 30.2656 56.2 30.311H56.203ZM56.215 31.635C56.21 31.646 56.172 31.697 56.162 31.687C56.141 31.6422 56.1262 31.5948 56.118 31.546C56.118 31.527 56.16 31.488 56.17 31.491C56.1871 31.5199 56.2006 31.5508 56.21 31.583C56.2172 31.5993 56.2193 31.6174 56.216 31.635H56.215ZM56.166 29.953C56.138 29.86 56.089 29.7 56.071 29.609C56.066 29.585 56.119 29.593 56.128 29.603C56.1472 29.6338 56.1611 29.6676 56.169 29.703L56.195 29.946C56.2 29.972 56.171 29.966 56.167 29.953H56.166ZM56.266 28.745C56.276 28.74 56.366 28.724 56.381 28.736C56.3962 28.7813 56.401 28.8295 56.395 28.877C56.3502 28.8553 56.3085 28.8277 56.271 28.795C56.259 28.783 56.256 28.751 56.266 28.745ZM56.455 30.976C56.465 31.024 56.396 31.112 56.387 31.138C56.378 31.164 56.342 31.271 56.338 31.238C56.325 31.138 56.325 30.916 56.318 30.786C56.346 30.838 56.444 30.927 56.455 30.976ZM56.488 30.31C56.5445 30.4002 56.5962 30.4934 56.643 30.589C56.593 30.734 56.529 30.615 56.453 30.556C56.43 30.5275 56.4167 30.4925 56.415 30.456C56.42 30.44 56.463 30.289 56.488 30.31ZM56.764 26.95C56.742 26.87 56.689 26.681 56.68 26.618C56.68 26.592 56.75 26.67 56.759 26.697C56.768 26.724 56.79 26.913 56.792 26.938C56.794 26.963 56.767 26.961 56.764 26.95ZM56.694 28.212C56.6719 28.2554 56.6432 28.2952 56.609 28.33C56.5992 28.2833 56.5965 28.2355 56.601 28.188C56.608 28.178 56.694 28.2 56.694 28.212ZM56.782 24.751C56.796 24.758 56.859 24.751 56.882 24.782C56.905 24.813 56.917 24.928 56.935 24.974C56.827 24.937 56.811 24.909 56.753 24.758C56.747 24.748 56.767 24.745 56.782 24.751ZM56.799 25.228C56.8057 25.2338 56.8105 25.2415 56.8126 25.2501C56.8147 25.2587 56.8142 25.2677 56.811 25.276C56.803 25.288 56.724 25.356 56.711 25.35C56.6895 25.3074 56.6775 25.2607 56.676 25.213C56.684 25.2 56.786 25.222 56.8 25.228H56.799ZM56.477 21.074C56.5313 21.1347 56.5807 21.1996 56.625 21.268C56.646 21.308 56.646 21.306 56.643 21.33C56.6317 21.3722 56.612 21.4116 56.585 21.446C56.571 21.4483 56.5566 21.4463 56.5437 21.4402C56.5308 21.4342 56.5201 21.4243 56.513 21.412C56.513 21.412 56.454 21.136 56.448 21.089C56.442 21.042 56.458 21.059 56.477 21.074ZM56.506 25.949C56.523 25.997 56.626 26.028 56.625 26.079C56.6148 26.1928 56.5924 26.3051 56.558 26.414C56.5327 26.4835 56.4936 26.5471 56.443 26.601C56.386 26.683 56.305 26.69 56.276 26.815C56.34 26.835 56.438 26.779 56.495 26.822C56.552 26.865 56.533 27.007 56.565 27.06C56.198 27.107 56.147 26.675 55.974 26.26C55.9651 26.2435 55.961 26.2247 55.9623 26.206C55.9635 26.1872 55.97 26.1692 55.981 26.154C55.997 26.127 56.13 26.291 56.158 26.242C56.1959 26.1082 56.1931 25.9662 56.15 25.834C56.2661 25.9288 56.354 26.0537 56.404 26.195C56.509 26.127 56.511 26.135 56.506 25.949ZM56.306 23.049C56.326 23.14 56.285 23.269 56.312 23.367C56.369 23.575 56.333 23.567 56.229 23.658L56.082 23.379C56.111 23.405 56.141 23.428 56.169 23.457C56.1468 23.358 56.1305 23.2579 56.12 23.157C56.134 23.099 56.253 23.074 56.274 23.057C56.295 23.04 56.3 23.035 56.3 23.048L56.306 23.049ZM55.831 22.203L55.895 21.862C55.954 21.967 56.065 22.074 56.112 22.178C56.1393 22.2794 56.161 22.3822 56.177 22.486C56.0335 22.4288 55.911 22.3289 55.826 22.2L55.831 22.203ZM56.292 22.676C56.2937 22.7261 56.289 22.7761 56.278 22.825C56.2498 22.7861 56.2272 22.7433 56.211 22.698C56.207 22.685 56.282 22.665 56.287 22.675L56.292 22.676ZM55.828 20.336C55.908 20.368 56.003 20.453 56.099 20.449C56.216 20.671 56.215 20.659 56.172 20.77C56.053 20.649 55.858 20.506 55.812 20.463C55.78 20.434 55.8 20.325 55.823 20.335L55.828 20.336ZM55.558 22.385L55.707 22.776L55.495 22.833C55.6794 23.0247 55.8744 23.206 56.079 23.376C55.967 23.451 55.965 23.453 56.003 23.665C55.7595 23.4634 55.5779 23.1972 55.479 22.897C55.472 22.881 55.453 22.891 55.451 22.904L55.401 23.289L55.088 22.675C55.2188 22.6694 55.3472 22.7109 55.45 22.792C55.5172 22.6665 55.5526 22.5264 55.553 22.384L55.558 22.385ZM54.597 23.775C54.8477 23.9822 55.0547 24.2371 55.206 24.525C55.258 24.609 55.232 24.737 55.272 24.825C54.9529 24.544 54.7176 24.1803 54.592 23.774L54.597 23.775ZM55.112 26.575C55.0705 26.5774 55.0289 26.5726 54.989 26.561C54.977 26.555 54.972 26.521 54.975 26.513C54.999 26.44 55.025 26.427 55.075 26.438C55.09 26.444 55.113 26.568 55.107 26.578L55.112 26.575ZM55.328 22.175C55.341 22.291 55.314 22.431 55.315 22.553C55.209 22.409 55.056 22.253 54.965 22.113C54.934 22.066 54.889 21.947 54.911 21.923C54.965 21.864 55.122 21.871 55.199 21.831C55.213 21.914 55.215 22.075 55.23 22.131C55.245 22.187 55.318 22.135 55.323 22.18L55.328 22.175ZM54.843 21.486C54.8758 21.4881 54.9076 21.4988 54.935 21.517L54.944 21.53C54.9528 21.5721 54.9555 21.6152 54.952 21.658C54.9212 21.6303 54.8933 21.5995 54.869 21.566L54.857 21.555C54.838 21.546 54.831 21.5 54.838 21.491L54.843 21.486ZM54.724 21.107C54.743 21.135 54.715 21.138 54.704 21.129C54.604 21.039 54.455 20.901 54.368 20.809C54.35 20.79 54.398 20.769 54.417 20.777C54.4667 20.8007 54.5129 20.8313 54.554 20.868C54.585 20.911 54.7 21.083 54.719 21.112L54.724 21.107ZM53.895 20.362C53.939 20.357 54.01 20.253 54.048 20.273C54.086 20.293 54.129 20.467 54.143 20.501C54.157 20.535 54.129 20.568 54.125 20.578C54.121 20.588 54.074 20.494 54.069 20.507C54.064 20.52 54.014 20.631 54.031 20.649C54.048 20.667 54.145 20.593 54.183 20.618C54.221 20.643 54.265 20.74 54.303 20.779C54.192 20.81 54.18 20.805 54.054 20.698C54.017 20.755 54.032 20.847 54.008 20.906C54 20.926 53.922 20.858 53.908 20.865C53.9609 20.7021 53.9546 20.5257 53.89 20.367L53.895 20.362ZM54.323 22.071C54.358 22.199 54.358 22.297 54.401 22.432C54.4242 22.482 54.4355 22.5368 54.4341 22.5919C54.4328 22.6471 54.4187 22.7012 54.393 22.75C54.2822 22.6111 54.2015 22.4507 54.156 22.279L54.323 22.071ZM54.364 21.954C54.3467 21.9163 54.3326 21.8771 54.322 21.837C54.322 21.837 54.344 21.821 54.349 21.825L54.423 21.908C54.464 21.977 54.5008 22.0485 54.533 22.122C54.54 22.137 54.552 22.153 54.545 22.172C54.538 22.191 54.489 22.224 54.474 22.245L54.364 21.954ZM54.41 17.829L54.547 18.298L54.101 17.863C54.073 17.834 54.101 17.805 54.12 17.781C54.1255 17.7746 54.1323 17.7695 54.14 17.766C54.17 17.735 54.323 17.814 54.405 17.834L54.41 17.829ZM53.601 16.862C53.6675 16.863 53.7313 16.8878 53.781 16.932C53.82 16.977 53.765 17.069 53.818 17.154C53.871 17.239 54.028 17.416 54.096 17.516C54.111 17.538 54.155 17.596 54.145 17.602C54.0712 17.6357 53.9941 17.6618 53.915 17.68C53.878 17.687 53.862 17.732 53.856 17.707C53.8331 17.5122 53.7895 17.3205 53.726 17.135C53.696 17.143 53.645 17.255 53.617 17.24C53.5614 17.1806 53.5197 17.1095 53.495 17.032C53.491 17 53.56 16.874 53.6 16.867L53.601 16.862ZM53.501 17.262C53.563 17.326 53.582 17.462 53.637 17.537C53.4708 17.4563 53.3384 17.3197 53.263 17.151C53.331 17.206 53.436 17.2 53.5 17.266L53.501 17.262ZM53.415 20.615C53.423 20.631 53.406 20.642 53.389 20.632C53.3337 20.5938 53.2812 20.5517 53.232 20.506C53.224 20.49 53.286 20.448 53.302 20.458C53.3431 20.5085 53.3799 20.5623 53.412 20.619L53.415 20.615ZM53.262 17.408C53.3183 17.4854 53.3675 17.5678 53.409 17.654C53.421 17.689 53.397 17.791 53.382 17.781C53.317 17.7092 53.2596 17.6308 53.211 17.547C53.2 17.515 53.243 17.4 53.259 17.412L53.262 17.408ZM53 19.975C53.0466 19.9705 53.0933 19.9826 53.132 20.009C53.1949 20.0835 53.2514 20.1631 53.301 20.247C53.312 20.274 53.28 20.296 53.251 20.28C53.166 20.2233 53.0857 20.1597 53.011 20.09C53.0001 20.0731 52.9933 20.0539 52.9914 20.0338C52.9895 20.0138 52.9924 19.9936 53 19.975ZM52.822 17.4C52.836 17.44 52.922 17.543 52.917 17.57C52.912 17.597 52.811 17.587 52.792 17.591C52.773 17.595 52.744 17.639 52.738 17.617C52.694 17.472 52.729 17.453 52.822 17.4ZM52.906 18.3C52.8595 18.3352 52.8079 18.3632 52.753 18.383C52.734 18.383 52.669 18.268 52.68 18.262C52.7464 18.254 52.8136 18.254 52.88 18.262C52.9 18.26 52.916 18.287 52.906 18.3ZM51.94 14.01C51.991 14.01 52.017 13.985 52.053 14.017L52.385 14.33C52.4679 14.5202 52.5684 14.7024 52.685 14.874C52.678 15.052 52.685 15.239 52.668 15.409C52.668 15.436 52.624 15.421 52.616 15.442C52.5232 15.3244 52.4453 15.1957 52.384 15.059L52.153 14.533L51.753 14.127C51.8 14.1 51.886 14.009 51.94 14.009V14.01ZM52.64 17.843C52.648 17.867 52.632 17.871 52.614 17.859C52.5603 17.8164 52.5102 17.7696 52.464 17.719C52.4456 17.6891 52.4371 17.654 52.44 17.619C52.4555 17.6112 52.4726 17.6071 52.49 17.6071C52.5074 17.6071 52.5245 17.6112 52.54 17.619C52.5804 17.6904 52.6149 17.7649 52.643 17.842L52.64 17.843ZM52.324 17.367C52.324 17.384 52.311 17.394 52.297 17.381C52.2531 17.3337 52.2126 17.2832 52.176 17.23C52.176 17.212 52.237 17.176 52.251 17.188C52.281 17.2452 52.3064 17.3047 52.327 17.366L52.324 17.367ZM52.05 19.455C52.0184 19.4682 51.9835 19.4714 51.95 19.464C51.9481 19.422 51.9539 19.38 51.967 19.34C52.0007 19.3739 52.0297 19.4122 52.053 19.454L52.05 19.455ZM51.95 17.155C51.913 17.1452 51.8788 17.1271 51.85 17.102C51.85 17.091 51.892 17.017 51.9 17.021C51.9217 17.0642 51.9381 17.1099 51.949 17.157L51.95 17.155ZM51.871 19C51.8288 18.9656 51.795 18.9221 51.7722 18.8727C51.7493 18.8233 51.738 18.7694 51.739 18.715L51.871 19ZM51.73 19.127C51.73 19.154 51.712 19.156 51.705 19.147C51.605 19.002 51.561 18.958 51.575 18.807C51.607 18.845 51.682 18.87 51.704 18.914C51.7209 18.9831 51.7296 19.0539 51.73 19.125V19.127ZM51.7 17.6C51.7 17.619 51.661 17.738 51.647 17.736C51.6054 17.6872 51.5716 17.6322 51.547 17.573C51.547 17.554 51.608 17.526 51.622 17.529C51.636 17.532 51.694 17.584 51.7 17.6ZM51.329 15.912C51.3602 15.9664 51.3834 16.025 51.398 16.086C51.3371 16.0529 51.2807 16.0122 51.23 15.965C51.219 15.955 51.313 15.906 51.325 15.915L51.329 15.912ZM50.871 14.75C50.923 14.76 50.949 14.823 50.996 14.842C50.839 14.854 50.838 14.879 50.789 14.999C50.769 14.955 50.682 14.861 50.677 14.827C50.672 14.793 50.693 14.702 50.716 14.706C50.768 14.718 50.815 14.743 50.867 14.753L50.871 14.75ZM50.99 16.563C50.984 16.687 50.928 16.712 50.85 16.763C50.8544 16.7214 50.8691 16.6816 50.8929 16.6472C50.9167 16.6127 50.9487 16.5848 50.986 16.566L50.99 16.563ZM50.725 14.275C50.674 14.321 50.602 14.247 50.618 14.188C50.62 14.171 50.739 14.262 50.721 14.278L50.725 14.275ZM50.555 16.385C50.566 16.392 50.583 16.416 50.58 16.429C50.577 16.442 50.54 16.514 50.527 16.51C50.4975 16.4721 50.4727 16.4308 50.453 16.387C50.453 16.373 50.468 16.371 50.479 16.37C50.5038 16.372 50.5281 16.3781 50.551 16.388L50.555 16.385ZM50.5 15.855C50.492 15.874 50.452 15.903 50.439 15.923C50.3708 15.865 50.2986 15.8119 50.223 15.764C50.131 15.704 50.036 15.651 49.923 15.592L50.171 15.469C50.277 15.575 50.478 15.732 50.52 15.795C50.529 15.812 50.5 15.839 50.5 15.858V15.855ZM50.188 14.842C50.2658 14.8972 50.3406 14.9567 50.412 15.02C50.433 15.04 50.412 15.046 50.395 15.045C50.342 15.035 50.2906 15.0182 50.242 14.995C50.22 14.981 50.169 14.841 50.184 14.845L50.188 14.842ZM50.405 13.409C50.4353 13.4212 50.4614 13.4421 50.48 13.469C50.48 13.48 50.438 13.533 50.421 13.533C50.3741 13.5188 50.3303 13.4957 50.292 13.465C50.286 13.457 50.383 13.412 50.4 13.412L50.405 13.409ZM50.418 13.776C50.302 13.857 50.256 13.856 50.393 14.037C50.309 14.114 50.309 14.145 50.146 14.08L50.12 14.422L49.896 14.282C49.8917 14.1522 49.9144 14.0229 49.9628 13.9024C50.0112 13.7819 50.0841 13.6728 50.177 13.582L50.418 13.776ZM49.856 13.321C49.79 13.212 49.785 13.167 49.842 13.121C49.857 13.109 49.95 13.192 49.952 13.212C49.954 13.232 49.867 13.3 49.852 13.324L49.856 13.321ZM49.7 12.6C49.7589 12.5994 49.8175 12.6092 49.873 12.629C49.9186 12.6776 49.9563 12.7329 49.985 12.793C49.992 12.814 49.945 12.87 49.926 12.857C49.8404 12.7857 49.7592 12.7092 49.683 12.628C49.652 12.591 49.678 12.6 49.7 12.6ZM49.715 14.272C49.7718 14.3039 49.8231 14.3448 49.867 14.393C49.882 14.416 49.855 14.479 49.85 14.493C49.845 14.507 49.85 14.528 49.825 14.513C49.7583 14.4684 49.696 14.4175 49.639 14.361C49.625 14.329 49.689 14.264 49.711 14.267L49.715 14.272ZM49.698 14.5C49.73 14.54 49.653 14.587 49.667 14.627L49.28 14.276C49.268 14.265 49.23 14.247 49.246 14.244C49.262 14.241 49.346 14.139 49.387 14.173C49.4992 14.2723 49.602 14.3818 49.694 14.5H49.698ZM49.261 14.061C49.1438 14.0656 49.0285 14.0304 48.934 13.961C48.922 13.955 48.889 13.933 48.896 13.93C48.996 13.889 49.142 13.899 49.245 13.851C49.2384 13.9195 49.2424 13.9887 49.257 14.056L49.261 14.061ZM49.211 12.892C49.252 12.949 49.399 13.057 49.417 13.103C49.4235 13.1249 49.423 13.1483 49.4157 13.17C49.4083 13.1916 49.3945 13.2105 49.376 13.224C49.349 13.238 49.226 13.155 49.182 13.151C49.2469 13.1483 49.3102 13.1305 49.367 13.099C49.277 13.011 49.232 12.978 49.207 12.887L49.211 12.892ZM48.911 11.726C48.926 11.712 49.048 11.835 49.047 11.852C49.046 11.869 48.947 11.971 48.93 11.981C48.913 11.991 48.837 11.952 48.839 11.938C48.849 11.8624 48.8716 11.7891 48.906 11.721L48.911 11.726ZM49.124 14.364C49.2295 14.4531 49.3248 14.5538 49.408 14.664C49.418 14.674 49.447 14.686 49.37 14.685C49.293 14.684 48.76 14.507 48.749 14.33C48.738 14.153 49 14.281 49.119 14.359L49.124 14.364ZM48.716 14.426C48.603 14.374 48.516 14.337 48.47 14.226L48.716 14.426ZM48.33 12.555C48.36 12.555 48.462 12.655 48.473 12.688C48.484 12.721 48.422 12.81 48.412 12.83C48.402 12.85 48.412 12.859 48.386 12.853C48.34 12.8311 48.2967 12.8039 48.257 12.772C48.232 12.748 48.105 12.654 48.118 12.637C48.1783 12.5906 48.2496 12.5606 48.325 12.55L48.33 12.555ZM48.344 13.44C48.1738 13.3846 48.0197 13.2885 47.895 13.16C47.871 13.14 47.847 13.06 47.866 13.051C47.913 13.037 48.095 13.117 48.146 13.102C48.197 13.087 48.169 13.01 48.203 12.983C48.238 13.133 48.287 13.289 48.339 13.435L48.344 13.44ZM47.976 11.06C48.003 11.06 48.052 11.094 48.07 11.103C48.0868 11.1097 48.1004 11.1226 48.108 11.139C48.108 11.153 48.157 11.244 48.134 11.246C48.0446 11.2373 47.9598 11.2025 47.89 11.146C47.91 11.122 47.945 11.061 47.971 11.055L47.976 11.06ZM47.847 12.524C47.9296 12.6134 47.9947 12.7176 48.039 12.831C48.044 12.865 47.974 12.873 47.939 12.861C47.8552 12.8101 47.7768 12.7508 47.705 12.684C47.678 12.654 47.673 12.649 47.687 12.621C47.701 12.593 47.808 12.547 47.842 12.519L47.847 12.524ZM47.778 13.357L47.959 13.528C47.979 13.553 47.959 13.557 47.943 13.554C47.8352 13.5106 47.716 13.5039 47.604 13.535C47.597 13.535 47.567 13.51 47.567 13.501C47.566 13.37 47.663 13.385 47.773 13.352L47.778 13.357ZM47.189 12.078C47.3151 12.2109 47.4083 12.3715 47.461 12.547L47.216 12.575L46.685 12.075C46.673 12.064 46.693 12.048 46.705 12.054C46.905 12.154 47.057 12.271 47.238 12.254C47.168 12.14 47.173 12.165 47.184 12.073L47.189 12.078ZM47.422 13.325C47.3588 13.3045 47.2991 13.2745 47.245 13.236C47.24 13.221 47.328 13.127 47.345 13.136C47.3777 13.1936 47.4019 13.2555 47.417 13.32L47.422 13.325ZM46.51 10.499C46.5696 10.5301 46.6256 10.5676 46.677 10.611C46.724 10.644 46.777 10.711 46.827 10.75C46.7072 10.7535 46.5894 10.7185 46.491 10.65C46.48 10.645 46.452 10.628 46.457 10.614C46.462 10.6 46.473 10.49 46.505 10.494L46.51 10.499ZM46.359 12.248C46.432 12.365 46.439 12.419 46.401 12.493C46.395 12.504 46.334 12.449 46.33 12.423C46.326 12.397 46.351 12.282 46.354 12.243L46.359 12.248ZM46.301 9.54799C46.3268 9.5509 46.3511 9.56133 46.371 9.57799C46.3803 9.59071 46.388 9.60447 46.394 9.61899C46.394 9.63999 46.4 9.65899 46.394 9.66099C46.3865 9.65999 46.3793 9.65725 46.373 9.65299C46.3263 9.65675 46.2792 9.65473 46.233 9.64699C46.212 9.63999 46.179 9.60299 46.185 9.59299C46.2197 9.56791 46.2587 9.54928 46.3 9.53799L46.301 9.54799ZM45.801 9.56499L46.171 9.72899C46.06 9.74099 45.871 9.81899 45.795 9.82899C45.7402 9.83669 45.6844 9.82426 45.638 9.79399C45.613 9.77399 45.7 9.69399 45.696 9.66099C45.4488 9.58644 45.2132 9.47773 44.996 9.33799C44.977 9.32699 44.99 9.28099 44.975 9.26399L45.801 9.56499ZM44.708 9.40999C44.72 9.40999 44.752 9.42099 44.753 9.43199C44.753 9.51499 44.508 9.43199 44.416 9.41399C44.5128 9.40057 44.6109 9.39923 44.708 9.40999ZM44.321 10.094C44.4227 10.1095 44.523 10.1329 44.621 10.164C44.7451 10.2115 44.866 10.267 44.983 10.33C45.01 10.346 45.03 10.43 44.983 10.43C44.7487 10.3899 44.5258 10.3003 44.329 10.167C44.308 10.15 44.284 10.091 44.321 10.094ZM44.187 9.86699C44.2199 9.87185 44.251 9.8853 44.277 9.90599C44.292 9.94399 44.295 10.014 44.265 10.029C44.2031 10.0147 44.1446 9.98815 44.093 9.95099C44.085 9.93799 44.172 9.87199 44.187 9.86699ZM44 10.12C44.1143 10.257 44.2565 10.3681 44.417 10.446L44.284 10.593C44.143 10.3823 43.9415 10.2191 43.706 10.125L44 10.12ZM43.093 8.71399C43.1248 8.72149 43.1548 8.73545 43.181 8.75499C43.181 8.76599 43.155 8.83099 43.14 8.83099C43.0974 8.8088 43.0584 8.7805 43.024 8.74699C43.016 8.73699 43.075 8.71399 43.089 8.71399H43.093ZM43.034 9.61399L43.308 9.87599L42.886 9.78699C42.98 9.75099 42.992 9.69099 43.03 9.61499L43.034 9.61399ZM41.312 6.84599C41.5178 7.06004 41.7351 7.26268 41.963 7.45299C41.998 7.48099 41.981 7.54699 42.009 7.57999C41.7649 7.4882 41.5395 7.35265 41.344 7.17999C41.358 7.14899 41.418 7.07399 41.421 7.05299C41.424 7.03199 41.392 7.02999 41.38 7.02399C41.214 6.95399 41.197 6.93499 41.211 6.82399C41.213 6.80799 41.29 6.82499 41.312 6.84599ZM41.799 9.96599C41.781 9.99799 41.599 9.97299 41.57 9.97799C41.541 9.98299 41.52 9.96299 41.521 9.95499C41.5211 9.90239 41.5405 9.85167 41.5756 9.81242C41.6106 9.77316 41.6588 9.74811 41.711 9.74199C41.744 9.79999 41.823 9.92199 41.8 9.96599H41.799ZM40.875 8.53999C40.892 8.52699 41.04 8.61799 41.039 8.62999C41.038 8.64199 40.921 8.67299 40.897 8.68499C40.849 8.62199 40.839 8.56599 40.875 8.53999ZM40.12 7.19999C40.1675 7.20904 40.2112 7.23242 40.245 7.26699C40.2083 7.31637 40.1633 7.359 40.112 7.39299C40.095 7.39303 40.0783 7.38873 40.0634 7.38051C40.0485 7.37228 40.036 7.3604 40.027 7.34599C40.0493 7.29229 40.0807 7.24288 40.12 7.19999ZM40.132 9.12999C40.388 9.20099 40.406 9.08899 40.484 8.97099C40.493 8.95699 40.575 8.97099 40.584 8.99399C40.632 9.10299 40.672 9.25899 40.71 9.37599C40.71 9.38699 40.71 9.40399 40.692 9.40099C40.585 9.37199 40.419 9.25599 40.321 9.24199C40.26 9.23399 40.276 9.34899 40.229 9.36199L39.886 9.03099C40 8.94399 40.143 8.95399 40.132 9.12499V9.12999ZM39.8 7.29999C39.818 7.32399 39.872 7.38499 39.855 7.39999C39.728 7.50499 39.572 7.55599 39.492 7.69999L39.277 7.61399C39.247 7.59799 39.229 7.59699 39.234 7.58999C39.327 7.43799 39.534 7.35999 39.67 7.22399C39.7 7.24699 39.781 7.27499 39.8 7.29999ZM39.283 7.09999H39.321C39.3903 7.1336 39.4571 7.17203 39.521 7.21499C39.541 7.23599 39.502 7.29299 39.48 7.29099C39.4159 7.26308 39.3543 7.22962 39.296 7.19099H39.29C39.2577 7.18158 39.2278 7.16558 39.202 7.14399C39.2 7.13399 39.244 7.09999 39.281 7.09999H39.283ZM39.193 7.30599L39.252 7.31399C39.2786 7.32718 39.304 7.34257 39.328 7.35999C39.338 7.37099 39.322 7.41799 39.302 7.40999L39.234 7.36799L39.092 7.31599C39.078 7.30799 39.168 7.29999 39.191 7.30599H39.193ZM37.72 7.02299C37.7897 7.01246 37.8608 7.0162 37.929 7.03399C38.0696 7.08338 38.2074 7.14012 38.342 7.20399C38.408 7.23799 38.411 7.29499 38.428 7.31299C38.445 7.33099 38.437 7.34699 38.423 7.34399C38.262 7.31199 38.029 7.28099 37.874 7.23499C37.8077 7.20639 37.7483 7.16374 37.7 7.10999C37.6946 7.10342 37.6907 7.09571 37.6887 7.08743C37.6866 7.07916 37.6864 7.07053 37.6882 7.06218C37.6899 7.05383 37.6935 7.04598 37.6986 7.0392C37.7038 7.03241 37.7104 7.02688 37.718 7.02299H37.72ZM38.115 8.75999C38.17 8.75999 38.226 8.77199 38.215 8.77899C38.1325 8.80937 38.0448 8.82297 37.957 8.81899C37.8896 8.81095 37.8228 8.79859 37.757 8.78199C37.728 8.77599 37.75 8.75299 37.757 8.75299L38.115 8.75999ZM37.979 8.50599L38.179 8.54599C38.057 8.56999 38.063 8.59399 37.977 8.50599H37.979ZM38.191 8.32499C38.191 8.31499 38.226 8.30399 38.247 8.30399C38.295 8.30986 38.3424 8.31921 38.389 8.33199C38.403 8.33799 38.395 8.35499 38.383 8.36199C38.3482 8.3801 38.3107 8.39259 38.272 8.39899C38.2394 8.38042 38.2112 8.35521 38.189 8.32499H38.191ZM37.644 7.29099C37.6618 7.27155 37.6827 7.25531 37.706 7.24299C37.719 7.24299 37.749 7.24299 37.755 7.25299C37.761 7.26299 37.791 7.33899 37.779 7.34599C37.7315 7.34333 37.6845 7.33494 37.639 7.32099C37.623 7.31499 37.635 7.29999 37.642 7.29099H37.644ZM37.693 7.52999C37.7429 7.54358 37.788 7.57096 37.823 7.60899C37.8525 7.62275 37.8845 7.63024 37.917 7.63099C37.8205 7.62731 37.7244 7.61796 37.629 7.60299C37.6 7.59999 37.674 7.52699 37.691 7.52999H37.693ZM37.13 7.19999C37.139 7.18599 37.166 7.19999 37.18 7.20799C37.194 7.21599 37.259 7.26799 37.26 7.28399C37.2452 7.31599 37.2212 7.34281 37.191 7.36099C37.175 7.36099 37.104 7.36099 37.091 7.34099C37.0959 7.29212 37.1091 7.24445 37.13 7.19999ZM37.259 7.92999C37.234 7.99599 37.136 7.96299 37.124 7.90299C37.12 7.88099 37.268 7.90599 37.259 7.92799V7.92999ZM36.579 7.92999C36.6025 7.94242 36.6215 7.96173 36.6337 7.98533C36.6459 8.00893 36.6505 8.03568 36.647 8.06199C36.6013 8.04364 36.5566 8.02294 36.513 7.99999C36.507 7.98499 36.558 7.91199 36.579 7.92299V7.92999ZM35.338 6.66199C35.438 6.72499 35.515 6.74799 35.359 6.78999C35.415 6.94199 35.512 6.93799 35.738 6.98199L35.709 7.10499C35.5143 7.08006 35.3174 7.07704 35.122 7.09599C35.033 7.09599 34.922 7.00999 34.831 6.99599C34.985 6.87299 35.139 6.73899 35.294 6.62699C35.308 6.61599 35.322 6.65199 35.338 6.66199ZM35.724 7.23699C35.739 7.23699 35.733 7.26499 35.717 7.26499C35.5 7.26499 35.254 7.27499 35.028 7.27999C35.0033 7.22999 34.9983 7.17251 35.014 7.11899C35.247 7.15899 35.5 7.18499 35.724 7.23699ZM34.787 6.54599C34.8663 6.5614 34.9439 6.58417 35.019 6.61399C35.041 6.63399 35.007 6.71899 34.996 6.72899C34.985 6.73899 34.981 6.73999 34.94 6.71999C34.8515 6.67143 34.7657 6.61801 34.683 6.55999C34.671 6.54999 34.755 6.53899 34.787 6.54599ZM34.758 7.05499C34.7758 7.11265 34.7758 7.17434 34.758 7.23199C34.6934 7.23564 34.6288 7.22611 34.568 7.20399C34.542 7.19099 34.487 7.12099 34.492 7.10399C34.5233 7.06928 34.5639 7.04429 34.609 7.03199C34.641 7.02599 34.742 7.03199 34.758 7.05499ZM34.45 5.50799C34.498 5.50937 34.5457 5.51642 34.592 5.52899C34.605 5.52899 34.6 5.55199 34.585 5.55799C34.5345 5.57403 34.4826 5.58508 34.43 5.59099C34.418 5.58599 34.435 5.51399 34.45 5.50799ZM32.563 7.39999C32.5949 7.38801 32.629 7.38323 32.663 7.38599C32.688 7.38599 32.797 7.42399 32.798 7.43899C32.7669 7.48212 32.7252 7.51655 32.677 7.53899C32.6279 7.53242 32.5809 7.51536 32.539 7.48899C32.531 7.47599 32.55 7.41399 32.563 7.39999ZM31.756 7.25299C31.764 7.25299 31.901 7.26399 31.89 7.27299C31.8485 7.30097 31.803 7.32254 31.755 7.33699C31.744 7.33899 31.745 7.26099 31.756 7.25599V7.25299ZM31.229 6.62399C31.25 6.62399 31.302 6.63599 31.269 6.65399C31.16 6.70251 31.045 6.73615 30.927 6.75399C30.882 6.75399 30.858 6.66199 30.82 6.64499C30.951 6.64399 31.109 6.62799 31.229 6.62699V6.62399ZM30.09 7.73799C30.1542 7.72875 30.2191 7.72441 30.284 7.72499C30.305 7.72499 30.292 7.74399 30.284 7.75599C30.276 7.76799 30.256 7.84199 30.23 7.84599C30.1643 7.83951 30.0997 7.82438 30.038 7.80099C30.028 7.78999 30.066 7.74699 30.09 7.73799ZM29.765 7.50799C29.7401 7.55261 29.708 7.59282 29.67 7.62699C29.6462 7.59457 29.6307 7.5568 29.625 7.51699C29.6707 7.50519 29.7182 7.50213 29.765 7.50799ZM28.946 6.58399C28.981 6.58999 28.998 6.65099 28.999 6.66999C29 6.68899 28.974 6.75299 28.946 6.76299C28.8807 6.78014 28.8126 6.7832 28.746 6.77199C28.717 6.75599 28.636 6.62399 28.655 6.60399C28.7505 6.58336 28.8485 6.57663 28.946 6.58399ZM28.138 7.17699C28.096 7.25799 28.06 7.34999 28.016 7.42599C28.0093 7.4313 28.0016 7.43504 27.9933 7.43694C27.9849 7.43885 27.9763 7.43886 27.968 7.43699C27.8631 7.38432 27.7518 7.34534 27.637 7.32099C27.614 7.31299 27.537 7.32099 27.537 7.30999C27.5793 7.28281 27.6255 7.26224 27.674 7.24899C27.83 7.23479 27.985 7.21074 28.138 7.17699ZM27.315 6.16999C27.3432 6.14779 27.375 6.13055 27.409 6.11899C27.4707 6.1081 27.5334 6.10408 27.596 6.10699C27.5079 6.15257 27.4171 6.19265 27.324 6.22699C27.308 6.23199 27.306 6.17899 27.315 6.16999ZM26.765 8.12199C26.7257 8.14277 26.6827 8.15558 26.6384 8.1597C26.5941 8.16382 26.5495 8.15916 26.507 8.14599L26.765 8.12199ZM25.534 6.62199L25.812 6.72199C25.7602 6.71087 25.7077 6.70252 25.655 6.69699C25.619 6.70499 25.57 6.72799 25.562 6.74999C25.554 6.77199 25.675 6.82099 25.662 6.84999C25.649 6.87899 25.555 6.95499 25.535 6.97099C25.515 6.98699 25.492 6.99199 25.484 6.98399C25.385 6.87699 25.409 6.76299 25.534 6.62499V6.62199ZM25.156 6.19999C25.2024 6.19202 25.2499 6.19358 25.2956 6.20458C25.3413 6.21559 25.3843 6.2358 25.422 6.26399C25.429 6.26399 25.437 6.29399 25.422 6.29299C25.343 6.29299 25.183 6.28099 25.116 6.26699C25.1 6.26199 25.134 6.19999 25.156 6.19999ZM24.318 8.18699C24.484 8.13299 24.711 8.11999 24.86 8.05499C24.96 8.01199 24.909 7.93299 24.948 7.87899L25.234 7.81599C25.27 7.81599 25.261 7.83599 25.247 7.84299C25.0065 7.9701 24.7886 8.13599 24.602 8.33399L23.655 8.53399C23.621 8.53999 23.57 8.49999 23.599 8.48899L24.276 8.26199L24.196 8.08799C24.28 8.11099 24.28 8.12499 24.318 8.18599V8.18699ZM24.767 8.77699C24.776 8.78399 24.719 8.85199 24.687 8.86099C24.4713 8.93021 24.2409 8.94023 24.02 8.88999C24.047 8.88199 24.088 8.83699 24.113 8.83399C24.2848 8.83616 24.4552 8.80209 24.613 8.73399C24.659 8.70799 24.758 8.76899 24.767 8.77599V8.77699ZM23.212 6.92999C23.453 6.80999 23.712 6.74499 23.951 6.62099L23.977 6.77699L23.33 6.99999C23.33 7.03199 23.362 7.12999 23.35 7.14799C23.338 7.16599 23.219 7.20799 23.212 7.18799C23.2047 7.10215 23.2047 7.01584 23.212 6.92999ZM23.543 7.98399C23.5438 8.02665 23.5353 8.06897 23.518 8.10799C23.4762 8.08703 23.4391 8.05777 23.409 8.02199C23.4507 8.00065 23.4963 7.98774 23.543 7.98399ZM23.233 8.56199C23.2392 8.55581 23.2468 8.55129 23.2552 8.54884C23.2636 8.5464 23.2725 8.5461 23.281 8.54799C23.291 8.55399 23.346 8.61099 23.339 8.62199C23.2964 8.64191 23.2508 8.65475 23.204 8.65999C23.194 8.65399 23.226 8.57199 23.233 8.56199ZM22.081 8.26199C22.126 8.24311 22.1729 8.22935 22.221 8.22099C22.234 8.22099 22.24 8.23899 22.221 8.25099C22.1657 8.2906 22.1079 8.32668 22.048 8.35899C22.039 8.36299 22.066 8.27699 22.081 8.26499V8.26199ZM21.181 9.36199C21.209 9.34299 21.263 9.31599 21.273 9.32199C21.283 9.32799 21.273 9.40499 21.258 9.42199C21.2343 9.45025 21.2063 9.47455 21.175 9.49399C21.1325 9.51893 21.0872 9.53873 21.04 9.55299C21.024 9.55299 21.007 9.51699 21.022 9.49499C21.0724 9.44654 21.1262 9.40176 21.183 9.36099L21.181 9.36199ZM18.86 10.9C18.7974 10.9296 18.7366 10.963 18.678 11C18.6434 11.0251 18.6044 11.0434 18.563 11.054H18.552C18.5446 11.0482 18.5393 11.0401 18.537 11.031C18.526 11.004 18.521 10.962 18.503 10.956C18.6109 10.8935 18.7382 10.8735 18.86 10.9ZM17.536 9.52899L17.561 9.51699C17.638 9.47699 17.623 9.47699 17.635 9.44699C17.647 9.41699 17.541 9.39199 17.535 9.36099C17.7034 9.28238 17.884 9.23301 18.069 9.21499C18.2127 9.19962 18.355 9.17388 18.495 9.13799C18.506 9.13799 18.515 9.15699 18.505 9.16699C18.2908 9.31377 18.106 9.49929 17.96 9.71399C17.9282 9.75485 17.8851 9.78545 17.836 9.80199L17.736 9.82199C17.6837 9.84576 17.6274 9.85966 17.57 9.86299C17.509 9.85599 17.52 9.65599 17.453 9.65099C17.3957 9.67758 17.3438 9.71453 17.3 9.75999C17.271 9.79079 17.2372 9.81678 17.2 9.83699C17.175 9.83699 17.135 9.78099 17.154 9.76299L17.536 9.52899ZM16.265 10.105L16.491 10.092C16.551 10.092 16.574 10.106 16.627 10.109C16.498 10.249 16.484 10.27 16.501 10.4C16.4435 10.439 16.3778 10.4643 16.309 10.474C16.247 10.49 16.232 10.54 16.179 10.563C16.2499 10.4214 16.2797 10.2627 16.265 10.105ZM16.235 12.445C16.221 12.455 16.224 12.388 16.248 12.363C16.272 12.338 16.403 12.248 16.448 12.214C16.3959 12.3065 16.323 12.3856 16.235 12.445ZM15.268 12.702C15.3098 12.6632 15.3561 12.6296 15.406 12.602C15.442 12.595 15.433 12.667 15.46 12.675C15.366 12.724 15.341 12.746 15.305 12.742C15.282 12.7396 15.2593 12.7353 15.237 12.729L15.268 12.702ZM14.75 12C14.8594 11.9426 14.9731 11.8938 15.09 11.854C15.0496 11.9137 15.0056 11.9708 14.958 12.025C14.8855 12.0629 14.8106 12.0963 14.734 12.125C14.709 12.124 14.7 12.029 14.75 12ZM15.089 12.051C15.013 12.175 15.026 12.182 14.854 12.228L15.089 12.051ZM14.44 15.141C14.4524 15.1364 14.4658 15.1351 14.4788 15.1374C14.4918 15.1397 14.504 15.1454 14.514 15.154C14.5199 15.167 14.523 15.1812 14.523 15.1955C14.523 15.2098 14.5199 15.224 14.514 15.237C14.4724 15.2863 14.4243 15.3296 14.371 15.366C14.35 15.366 14.294 15.295 14.301 15.272C14.341 15.2212 14.3878 15.1761 14.44 15.138V15.141ZM14.216 14.323C14.242 14.323 14.269 14.401 14.293 14.414C14.2494 14.4481 14.1963 14.4676 14.141 14.47C14.08 14.476 14.058 14.47 14.058 14.429C14.057 14.405 14.19 14.323 14.216 14.32V14.323ZM14.047 15.549C14.0732 15.5064 14.1105 15.4718 14.155 15.449C14.1759 15.4517 14.1961 15.4586 14.2143 15.4693C14.2325 15.4799 14.2484 15.4941 14.261 15.511C14.261 15.53 14.191 15.611 14.173 15.635C14.155 15.659 14.073 15.742 14.065 15.735C14.045 15.6741 14.0388 15.6095 14.047 15.546V15.549ZM13.338 15.296C13.347 15.283 13.361 15.257 13.378 15.264C13.395 15.271 13.518 15.255 13.518 15.299C13.4966 15.4319 13.4403 15.5568 13.355 15.661C13.2575 15.6752 13.1645 15.7113 13.0831 15.7668C13.0017 15.8222 12.9339 15.8955 12.885 15.981C13.0022 15.7311 13.1548 15.4994 13.338 15.293V15.296ZM12.656 14.211L12.196 14.633C12.2082 14.5712 12.2079 14.5077 12.1952 14.446C12.1825 14.3844 12.1576 14.3259 12.122 14.274C12.1984 14.2192 12.2873 14.1845 12.3806 14.1729C12.4739 14.1614 12.5686 14.1735 12.656 14.208V14.211ZM12.385 15.667C12.378 15.691 12.264 15.807 12.248 15.8C12.2087 15.7497 12.1842 15.6894 12.177 15.626C12.2186 15.5773 12.2715 15.5395 12.331 15.516C12.3627 15.5592 12.3814 15.6105 12.385 15.664V15.667ZM12.067 14.8C12.076 14.788 12.124 14.733 12.137 14.734C12.15 14.735 12.189 14.792 12.191 14.803C12.193 14.814 12.17 14.833 12.155 14.839C12.1226 14.8497 12.089 14.8564 12.055 14.859C12.042 14.851 12.058 14.81 12.067 14.8ZM11.967 15.031C11.987 15.023 12.076 15.072 12.067 15.092C12.0376 15.1519 11.9968 15.2055 11.947 15.25C11.9335 15.2564 11.9186 15.2591 11.9037 15.2578C11.8888 15.2566 11.8745 15.2515 11.8622 15.243C11.85 15.2344 11.8402 15.2228 11.8338 15.2093C11.8274 15.1958 11.8247 15.1809 11.826 15.166C11.833 15.138 11.951 15.036 11.971 15.028L11.967 15.031ZM11.8 17.96C11.818 17.928 11.917 17.822 11.941 17.825C12.0058 17.8523 12.0621 17.8965 12.104 17.953C12.119 17.981 12.073 18.025 12.055 18.053C12.037 18.081 11.98 18.147 11.944 18.153C11.8791 18.1626 11.8128 18.1561 11.751 18.134C11.738 18.112 11.785 17.991 11.8 17.96ZM11.393 15.1C11.393 15.089 11.419 15.065 11.429 15.065C11.529 15.059 11.574 15.116 11.59 15.206C11.577 15.2576 11.5453 15.3025 11.501 15.332C11.336 15.377 11.355 15.269 11.393 15.1ZM11.134 17.768C11.146 17.768 11.174 17.8 11.169 17.816C11.1458 17.8603 11.1169 17.9013 11.083 17.938C11.071 17.943 11.026 17.884 11.031 17.868C11.0609 17.8313 11.0956 17.7987 11.134 17.771V17.768ZM10.559 17.844C10.5968 17.7909 10.6443 17.7454 10.699 17.71C10.722 17.71 10.771 17.773 10.771 17.81C10.7506 17.8819 10.7225 17.9513 10.687 18.017C10.673 18.045 10.666 18.055 10.648 18.053C10.63 18.051 10.548 18.018 10.539 17.994C10.5325 17.9441 10.5394 17.8933 10.559 17.847V17.844ZM9.883 21.414C9.92865 21.3364 9.99911 21.2765 10.083 21.244C10.0149 21.3484 9.96833 21.4654 9.946 21.588C9.936 21.622 9.846 21.71 9.846 21.688C9.84626 21.5964 9.8587 21.5053 9.883 21.417V21.414ZM9.527 17.523L9.711 17.352C9.743 17.324 9.77 17.372 9.745 17.4L9.592 17.567C9.5 17.732 9.369 17.924 9.262 17.949C9.309 17.9 9.449 17.646 9.527 17.526V17.523ZM9.067 20.666C9.132 20.55 9.152 20.382 9.212 20.26C9.243 20.36 9.391 20.551 9.391 20.651L9.406 20.666C9.406 20.66 9.4 20.679 9.4 20.679C9.4 20.679 9.388 20.786 9.413 20.786C9.507 20.786 9.663 20.649 9.765 20.555C9.773 20.547 9.795 20.555 9.789 20.573C9.695 20.773 9.589 20.985 9.497 21.187C9.512 21.34 9.545 21.375 9.641 21.429C9.648 21.429 9.627 21.471 9.616 21.471L9.26 21.459C9.25 21.459 9.233 21.45 9.238 21.439C9.274 21.361 9.414 21.224 9.438 21.155C9.46168 21.0949 9.46168 21.0281 9.438 20.968C9.413 20.932 9.266 20.994 9.22 20.976C9.228 20.852 9.227 20.847 9.32 20.797C9.35146 20.7613 9.37803 20.7217 9.399 20.679L9.39 20.651C9.39 20.701 9.232 20.484 9.2 20.524C9.182 20.546 9.157 20.669 9.114 20.707C9.071 20.745 8.946 20.76 8.89 20.795C8.935 20.741 9.029 20.737 9.067 20.669V20.666ZM9.8 21.159C9.77295 21.1821 9.74069 21.1982 9.706 21.206C9.71025 21.1719 9.7183 21.1383 9.73 21.106C9.73 21.094 9.75 21.061 9.756 21.065C9.77736 21.0939 9.79236 21.1269 9.8 21.162V21.159ZM9.584 21.959C9.54917 21.9421 9.51793 21.9187 9.492 21.89C9.492 21.879 9.529 21.803 9.536 21.809C9.5573 21.8575 9.57339 21.9081 9.584 21.96V21.959ZM8.964 22.073C8.964 22.038 9.025 21.953 9.032 21.944C9.039 21.935 9.085 21.95 9.08 21.979C9.07704 22.0937 9.04457 22.2056 8.98571 22.3041C8.92685 22.4025 8.8436 22.4841 8.744 22.541C8.73 22.548 8.736 22.494 8.744 22.48C8.752 22.466 8.818 22.453 8.837 22.426C8.88394 22.3811 8.91984 22.326 8.94187 22.2649C8.96391 22.2038 8.97148 22.1385 8.964 22.074V22.073ZM8.806 22.22C8.821 22.22 8.835 22.226 8.831 22.239C8.8142 22.2838 8.79096 22.3259 8.762 22.364C8.747 22.369 8.662 22.308 8.669 22.295C8.71173 22.2652 8.75769 22.2404 8.806 22.221V22.22ZM8.712 22.727C8.725 22.727 8.67 22.8 8.67 22.812C8.67 22.824 8.728 22.844 8.714 22.85C8.646 22.88 8.614 22.856 8.568 22.801C8.646 22.722 8.641 22.717 8.712 22.728V22.727ZM7.312 36.613C7.33422 36.5656 7.36245 36.5212 7.396 36.481C7.407 36.469 7.424 36.472 7.427 36.481C7.43352 36.5288 7.43352 36.5772 7.427 36.625C7.38979 36.6335 7.35081 36.6297 7.316 36.614L7.312 36.613ZM7.474 21.352C7.44541 21.3725 7.41412 21.389 7.381 21.401C7.371 21.401 7.374 21.354 7.381 21.34C7.39152 21.3091 7.40743 21.2803 7.428 21.255C7.441 21.255 7.495 21.297 7.5 21.307C7.505 21.317 7.49 21.343 7.478 21.353L7.474 21.352ZM7.8 27.328C7.792 27.337 7.708 27.345 7.708 27.336C7.73491 27.2964 7.7661 27.2598 7.801 27.227C7.80766 27.2604 7.80732 27.2948 7.8 27.328ZM7.783 21.18C7.768 21.191 7.713 21.088 7.711 21.07C7.71668 21.0368 7.7328 21.0064 7.757 20.983C7.774 20.974 7.894 20.953 7.896 20.972C7.86813 21.0462 7.8301 21.1162 7.783 21.18ZM8.041 26.869C8.028 26.869 7.978 26.837 7.958 26.834C7.98432 26.5532 8.05626 26.2786 8.171 26.021C8.06933 25.9014 7.9873 25.7664 7.928 25.621C8.05606 25.4804 8.1341 25.3015 8.15 25.112C8.1729 25.1584 8.20819 25.1975 8.25197 25.225C8.29574 25.2526 8.34629 25.2674 8.398 25.268C8.31116 25.5234 8.30592 25.7995 8.383 26.058C8.40401 26.1129 8.40785 26.1729 8.394 26.23C8.317 26.363 8.307 26.341 8.212 26.321C8.12317 26.4737 8.07049 26.6448 8.058 26.821C8.057 26.839 8.054 26.865 8.041 26.869ZM8.284 39.036C8.2447 39.0433 8.20494 39.048 8.165 39.05L8.171 39.038C8.18152 39.016 8.19775 38.9973 8.21797 38.9838C8.2382 38.9702 8.2617 38.9624 8.286 38.961C8.296 38.961 8.295 38.986 8.286 39.009C8.28634 39.018 8.28567 39.0271 8.284 39.036ZM8.176 38.628C8.19062 38.5651 8.20967 38.5032 8.233 38.443C8.241 38.427 8.263 38.427 8.263 38.449C8.25759 38.5281 8.24791 38.6069 8.234 38.685C8.226 38.7 8.176 38.65 8.176 38.628ZM9.431 42.28C9.40303 42.2737 9.37586 42.2644 9.35 42.252C9.327 42.237 9.339 42.233 9.342 42.219C9.345 42.205 9.365 42.131 9.383 42.129C9.401 42.127 9.451 42.089 9.475 42.129C9.49034 42.1668 9.49783 42.2072 9.497 42.248L9.512 42.292L9.431 42.28ZM10.247 46.58C10.133 46.443 9.98 46.267 9.869 46.108C9.831 46.053 9.813 45.976 9.781 45.918C9.881 46.018 10.027 46.101 10.115 46.202C10.1887 46.3166 10.2523 46.4374 10.305 46.563C10.318 46.581 10.266 46.6 10.247 46.576V46.58ZM13.332 49.18C13.314 49.168 13.261 49.104 13.273 49.103C13.313 49.0951 13.3542 49.0956 13.394 49.1045C13.4338 49.1135 13.4713 49.1307 13.504 49.155C13.544 49.185 13.569 49.287 13.604 49.328C13.482 49.308 13.447 49.25 13.332 49.174V49.18ZM13.885 49.637C13.8433 49.5903 13.8051 49.5405 13.771 49.488C13.8096 49.4973 13.8462 49.5135 13.879 49.536C13.889 49.542 13.894 49.635 13.885 49.631V49.637ZM16.527 52.537L16.189 52.227C16.178 52.217 16.202 52.2 16.213 52.209L16.613 52.534C16.631 52.542 16.55 52.545 16.527 52.526V52.537ZM17.039 54.301C17.025 54.301 16.939 54.218 16.93 54.201C16.921 54.184 16.93 54.139 16.939 54.129C16.948 54.119 16.952 54.104 16.967 54.111C17.0139 54.1332 17.0579 54.1611 17.098 54.194C17.099 54.2141 17.0938 54.234 17.0833 54.2511C17.0728 54.2682 17.0573 54.2818 17.039 54.29V54.301ZM17.353 53.467C17.2995 53.4309 17.2517 53.3871 17.211 53.337C17.201 53.317 17.23 53.249 17.246 53.249C17.2949 53.267 17.3395 53.2949 17.377 53.331C17.386 53.34 17.369 53.455 17.353 53.456V53.467ZM17.902 54.878C17.8555 54.835 17.8127 54.7882 17.774 54.738C17.765 54.724 17.781 54.711 17.799 54.719C17.8595 54.7472 17.9174 54.7806 17.972 54.819C17.982 54.826 17.921 54.875 17.9 54.867L17.902 54.878ZM55.757 31.943L55.497 33.635L55.279 35.3C55.101 36.239 54.925 37.162 54.761 38.029L54.648 38.629C54.329 39.429 53.692 40.879 53.332 41.708L52.68 42.873C52.45 43.3 52.224 43.735 52.006 44.183L51.857 44.492L51.782 44.65L51.744 44.729V44.737C51.259 45.578 50.459 46.927 49.97 47.666L49.692 47.966L47.655 50.136L45.032 52.175L42.524 53.331L42.199 53.47L42.038 53.532C41.974 53.557 41.938 53.57 41.938 53.563L40.83 53.808C40.4236 53.8967 40.026 54.0219 39.642 54.182C38.9175 54.4945 38.172 54.7558 37.411 54.964L35.346 55.545C35.436 55.538 35.004 55.545 34.768 55.552C33.85 55.576 32.895 55.759 31.981 55.772C31.39 55.772 30.839 55.672 30.256 55.662L28.592 55.732L25.429 54.74L23.682 54.266L22.012 53.84C22.004 53.84 22 53.831 21.998 53.82C21.9974 53.7941 21.9998 53.7683 22.005 53.743C21.9476 53.6731 21.8769 53.6153 21.797 53.573L19.059 51.99C18.185 51.406 17.292 50.828 16.307 50.255C16.2712 50.2365 16.2377 50.214 16.207 50.188C16.188 50.167 16.216 50.188 16.163 50.126L16.018 49.95L15.718 49.562C15.5133 49.2895 15.2947 49.0279 15.063 48.778L14.476 48.187L14.162 47.887L14 47.731C13.943 47.676 13.972 47.709 13.953 47.693L13.1 46.546L12.2 45.288C11.757 44.659 11.461 43.915 11.064 43.265L10.169 41.917L8.96 38.846C8.88667 38.3913 8.812 37.9247 8.736 37.446C8.551 36.346 8.699 35.066 8.509 33.915C8.416 33.324 8.224 32.683 8.114 32.087C8.107 31.949 8.114 31.953 8.126 31.94L8.144 31.917L8.168 31.754L8.215 31.406C8.241 31.17 8.266 30.938 8.292 30.706C8.335 30.239 8.362 29.77 8.369 29.297C8.37025 29.1571 8.36357 29.0172 8.349 28.878C8.336 28.751 8.324 28.545 8.302 28.578C8.302 28.566 8.29 28.568 8.289 28.544L8.306 28.398C8.31858 28.3031 8.33797 28.2092 8.364 28.117C8.66794 27.2048 8.91508 26.2747 9.104 25.332V25.317C9.114 25.286 9.082 25.352 9.127 25.24L9.219 25L9.419 24.512L9.827 23.533C10.0929 22.8778 10.4099 22.2445 10.775 21.639L10.65 21.539C11.071 20.73 11.489 19.931 11.907 19.13L14.152 16.618L16.586 14.093L17.577 13.293L18.651 12.451C18.6732 12.3844 18.6756 12.3129 18.658 12.245L18.974 12.038L19.121 11.938H19.145C19.154 11.938 19.161 11.938 19.172 11.938L19.381 11.838L19.802 11.625L20.641 11.167L22.061 10.343L22.069 10.338C22.1215 10.3151 22.1753 10.295 22.23 10.278L22.459 10.202L22.933 10.065L23.9 9.82199C24.4693 9.69706 25.0285 9.52993 25.573 9.32199C26.5398 9.00256 27.5249 8.74142 28.523 8.53999L28.687 8.49099C28.703 8.49099 28.694 8.48499 28.701 8.48199L29.973 8.28799C30.4434 8.22056 30.9171 8.17784 31.392 8.15999C31.4227 8.06224 31.4336 7.95935 31.424 7.85734C31.4143 7.75533 31.3844 7.65628 31.336 7.56599C31.52 7.59699 31.515 7.73299 31.712 7.75499C31.7818 7.76172 31.8519 7.76372 31.922 7.76099L31.997 7.76899C32.037 7.77899 32.006 7.78299 32.097 7.80499C31.997 7.81699 32.031 7.84299 31.997 7.86099C32.038 7.91599 31.705 8.00499 31.497 8.06099C31.608 8.07099 31.723 8.07599 31.84 8.07599C32.001 8.07599 31.997 8.08099 32.001 8.08599C32.0067 8.08959 32.0127 8.09261 32.019 8.09499L32.23 8.11999L32.659 8.16099L33.483 8.21799C34.083 8.47099 34.546 8.26199 35.271 8.43799C35.858 8.59599 36.461 8.73799 37.079 8.85599L38 9.01599C38.229 9.05399 38.643 9.11599 38.672 9.11599C38.763 9.15899 39.038 9.29599 39.219 9.38399L40.044 9.79199L40.861 10.205L41.722 10.661L42.336 10.948C42.429 10.899 42.415 10.901 42.413 10.809C42.473 10.837 42.626 10.83 42.667 10.866C42.742 10.93 42.684 10.944 42.667 10.995C43.1806 11.2954 43.7341 11.5216 44.311 11.667C44.334 11.676 44.364 11.667 44.371 11.659C44.378 11.651 44.436 11.606 44.403 11.577C44.37 11.548 44.193 11.487 44.134 11.452C44.2631 11.4159 44.4011 11.429 44.521 11.489C44.494 11.399 44.474 11.389 44.378 11.32C44.37 11.314 44.378 11.294 44.392 11.294H45.092C45.175 11.37 45.167 11.408 45.204 11.458L45.223 11.518C45.223 11.525 45.2 11.556 45.185 11.565C45.1665 11.5776 45.1458 11.5868 45.124 11.592H45.117C45.0602 11.6047 45.0022 11.611 44.944 11.611C44.892 11.611 44.902 11.719 44.866 11.74C44.941 11.79 44.934 11.805 44.934 11.822V11.871L44.924 11.94C44.967 12.002 45.052 12.1 45.116 12.177C45.255 12.341 45.4 12.502 45.549 12.659C45.849 12.974 46.165 13.278 46.49 13.576C47.1392 14.1662 47.8191 14.7216 48.527 15.24L50 16.418L51.711 19.341L52.378 20.296C52.663 20.703 53.069 21.013 53.259 21.331C53.3657 21.509 53.4717 21.6847 53.577 21.858L53.725 22.101L53.718 22.121L53.707 22.137L53.774 22.419L53.92 23.005C54.025 23.394 54.128 23.779 54.231 24.163C54.457 24.928 54.677 25.695 54.89 26.478C55.003 26.878 55.09 27.269 55.169 27.661L55.292 28.246L55.359 28.535L55.394 28.679H55.4L55.42 28.826L55.468 29.119C55.5046 29.3156 55.5513 29.5102 55.608 29.702C55.523 29.709 55.537 29.702 55.493 29.821C55.6292 30.5106 55.7293 31.2069 55.793 31.907H55.798C55.783 31.923 55.771 31.929 55.757 31.943ZM56.306 31.927C56.306 31.882 56.3 31.837 56.299 31.787C56.33 31.827 56.413 31.887 56.433 31.926C56.3907 31.9233 56.3483 31.9237 56.306 31.927Z" fill="#5D892F"/>
<path d="M46.723 23.843C46.458 23.543 46.1665 23.2676 45.852 23.02C45.2635 22.6085 44.6961 22.1676 44.152 21.699C44.0572 21.8257 44.0041 21.9788 44 22.137L43.686 22.11C43.3782 22.4525 43.0438 22.7701 42.686 23.06L42.168 23.517L41.924 23.758L41.635 24.073C41.56 24.1672 41.4931 24.2675 41.435 24.373C41.391 24.453 41.35 24.534 41.312 24.619C41.2822 24.6368 41.2487 24.6478 41.2141 24.6511C41.1796 24.6543 41.1447 24.6499 41.112 24.638C40.995 24.807 40.784 24.918 40.692 25.1C40.6 25.282 40.644 25.481 40.518 25.652C40.253 26.008 39.918 26.076 39.635 26.476C39.3636 26.9632 38.9731 27.3736 38.5 27.669C37.715 28.521 36.96 29.36 36.215 30.264C36.03 30.487 35.715 30.579 35.536 30.788L34.236 32.288L33.668 32.868C33.377 33.168 32.988 33.468 32.614 33.794C32.427 33.956 32.243 34.124 32.077 34.3C31.993 34.388 31.915 34.478 31.842 34.57C31.769 34.662 31.742 34.723 31.578 34.916C31.5029 35.0204 31.4467 35.1372 31.412 35.261C31.291 35.326 31.259 35.304 31.135 35.289C30.642 36.0404 30.0635 36.732 29.411 37.35C29.3459 37.4175 29.2746 37.4788 29.198 37.533C29.1724 37.5534 29.1454 37.5717 29.117 37.588L29.098 37.578C29.098 37.595 29.127 37.578 29.086 37.617L28.942 37.749L28.642 38.001C28.4323 38.1601 28.239 38.3396 28.065 38.537L27.824 38.668L27.705 38.733L27.686 38.714C27.733 38.799 27.686 38.857 27.663 38.821C27.6501 38.7766 27.6501 38.7294 27.663 38.685L27.596 38.875C27.6001 38.8418 27.6021 38.8084 27.602 38.775C27.6008 38.7699 27.598 38.7654 27.594 38.762L27.437 38.633C27.181 38.427 26.912 38.233 26.686 38.025C26.633 37.975 26.535 37.875 26.566 37.885C26.597 37.895 26.554 37.845 26.521 37.793L26.436 37.654C26.3788 37.5562 26.3146 37.4626 26.244 37.374C25.925 37.099 25.615 36.814 25.311 36.522L24.861 36.079L24.32 35.526L22.64 34.247C22.4747 34.1263 22.2998 34.0193 22.117 33.927L21.836 33.776L21.716 33.708H21.7C21.697 33.707 21.6943 33.7053 21.692 33.703C21.6898 33.7008 21.688 33.698 21.687 33.695C21.6574 33.6597 21.63 33.6227 21.605 33.584C21.371 33.22 21.224 33.253 20.967 32.97C20.856 32.848 20.85 32.621 20.724 32.478C20.4199 32.1754 20.0944 31.895 19.75 31.639L19.73 31.62C19.4392 31.8643 19.1269 32.0818 18.797 32.27L17.3 34.023L18.285 35.044L19.365 36.124C19.3928 36.1529 19.4182 36.184 19.441 36.217C19.508 36.284 19.563 36.365 19.634 36.451C19.6698 36.5127 19.7173 36.5667 19.774 36.61L20.946 37.425L21.525 37.83L21.825 38.03L21.975 38.13C22.024 38.163 21.999 38.138 22.015 38.146H22.029L22.129 38.234L22.346 38.423L22.803 38.799C23.063 38.999 23.294 39.548 23.611 39.899L23.835 40.138L24.124 40.429L24.624 40.841L25.09 41.209L25.36 41.426L25.787 41.786L26.602 42.486C26.924 42.77 27.244 43.086 27.572 43.411C27.947 43.138 28.334 42.86 28.713 42.555L30.384 41.1L31.568 40.088L31.901 39.679L32.135 39.379L32.595 38.758C32.8157 38.474 33.0718 38.2193 33.357 38L33.778 37.637L33.978 37.446C34.0212 37.4027 34.062 37.357 34.1 37.309C34.071 37.332 34.15 37.244 34.211 37.17L34.388 36.944C34.505 36.791 34.621 36.636 34.744 36.5C35.2834 36.1514 35.7775 35.7372 36.215 35.267C36.384 35.086 36.422 34.919 36.645 34.667C36.6963 34.5942 36.7553 34.5271 36.821 34.467C37.303 34.1113 37.7473 33.7072 38.147 33.261C38.6996 32.5326 39.3304 31.867 40.028 31.276L39.928 31.155C40.7142 30.415 41.4602 29.6336 42.163 28.814L43.192 27.562L43.712 26.94L44.182 26.397L44.7 25.929L45.3 25.41C45.2993 25.3514 45.2838 25.294 45.255 25.243C45.8123 24.8532 46.3072 24.3812 46.723 23.843ZM23.434 35.462C23.445 35.456 23.488 35.518 23.493 35.53C23.498 35.542 23.475 35.584 23.47 35.593C23.465 35.602 23.455 35.616 23.446 35.613C23.437 35.61 23.365 35.575 23.366 35.562C23.37 35.5416 23.3781 35.5222 23.3898 35.5051C23.4015 35.4879 23.4165 35.4732 23.434 35.462ZM22.934 35.075C22.9575 35.1088 22.9767 35.1454 22.991 35.184C22.9917 35.187 22.9916 35.19 22.9907 35.1929C22.9898 35.1958 22.9881 35.1984 22.9859 35.2005C22.9836 35.2025 22.9809 35.2039 22.9779 35.2045C22.975 35.2052 22.9719 35.205 22.969 35.204C22.9325 35.1843 22.8989 35.1597 22.869 35.131C22.869 35.119 22.925 35.07 22.936 35.075H22.934ZM23.043 36.397C23.031 36.397 22.966 36.362 22.963 36.346C22.9698 36.3031 22.9858 36.2621 23.01 36.226C23.021 36.226 23.086 36.3 23.089 36.316C23.083 36.3477 23.0677 36.377 23.045 36.4L23.043 36.397ZM23.543 37.197C23.488 37.126 23.398 37.012 23.354 36.944C23.344 36.93 23.407 36.924 23.418 36.939C23.463 37.002 23.526 37.111 23.568 37.182C23.573 37.193 23.55 37.208 23.544 37.2L23.543 37.197ZM24.718 39.085C24.717 39.0575 24.7225 39.0301 24.734 39.005C24.759 39.0354 24.7799 39.0691 24.796 39.105C24.7694 39.1057 24.7431 39.1003 24.719 39.089L24.718 39.085ZM24.944 39.324C24.917 39.308 24.918 39.23 24.897 39.203C24.997 39.193 25.011 39.233 25.088 39.273C25.098 39.273 25.134 39.327 25.124 39.33C25.0955 39.3417 25.065 39.3475 25.0343 39.3471C25.0036 39.3468 24.9732 39.3403 24.945 39.328L24.944 39.324ZM27.387 40.194C27.341 40.17 27.301 40.066 27.271 40.03C27.263 40.02 27.284 39.969 27.293 39.973C27.3571 40.0023 27.4192 40.0357 27.479 40.073C27.498 40.085 27.516 40.134 27.535 40.155C27.5 40.156 27.434 40.221 27.388 40.2L27.387 40.194ZM29.041 38.314C29.03 38.314 28.986 38.289 28.987 38.276C28.9976 38.2398 29.0149 38.2058 29.038 38.176C29.0612 38.1552 29.0889 38.1402 29.119 38.132C29.135 38.132 29.205 38.132 29.2 38.155C29.1864 38.1916 29.1653 38.225 29.1381 38.2531C29.1109 38.2812 29.0782 38.3033 29.042 38.318L29.041 38.314ZM29.625 40.745C29.625 40.704 29.625 40.598 29.634 40.57C29.643 40.542 29.65 40.553 29.663 40.551C29.6924 40.5501 29.7213 40.5581 29.746 40.574C29.757 40.588 29.802 40.629 29.786 40.654C29.7348 40.6891 29.6814 40.7209 29.626 40.749L29.625 40.745ZM30.931 37.645C30.9543 37.6627 30.9732 37.6857 30.986 37.712C30.9688 37.7365 30.9453 37.7558 30.918 37.768C30.9012 37.7423 30.89 37.7133 30.885 37.683C30.887 37.68 30.923 37.651 30.932 37.653L30.931 37.645ZM30.548 37.377C30.518 37.3539 30.4935 37.3246 30.476 37.291C30.476 37.278 30.535 37.236 30.543 37.233C30.551 37.23 30.563 37.243 30.563 37.256C30.5647 37.2995 30.56 37.3429 30.549 37.385L30.548 37.377ZM30.975 38.04C30.936 38.034 30.875 37.948 30.833 37.926C30.8669 37.9076 30.9064 37.9023 30.944 37.911C30.985 37.917 31.055 37.916 31.075 37.922C31.095 37.928 31.106 37.936 31.094 37.948C31.082 37.96 31.01 38.052 30.976 38.048L30.975 38.04ZM31.731 35.601C31.7317 35.6417 31.7277 35.6823 31.719 35.722C31.719 35.733 31.682 35.727 31.677 35.722C31.6671 35.7022 31.6623 35.6802 31.663 35.658C31.669 35.654 31.727 35.6 31.732 35.609L31.731 35.601ZM31.446 39.112C31.4185 39.0843 31.3928 39.0549 31.369 39.024C31.3939 39.0139 31.4214 39.0116 31.4477 39.0175C31.4739 39.0234 31.4978 39.0372 31.516 39.057C31.528 39.076 31.46 39.124 31.447 39.12L31.446 39.112ZM31.566 35.44C31.566 35.447 31.509 35.385 31.512 35.376C31.5369 35.3465 31.5667 35.3215 31.6 35.302C31.5956 35.3519 31.5845 35.4011 31.567 35.448L31.566 35.44ZM31.639 38.88C31.626 38.88 31.615 38.826 31.626 38.818C31.6678 38.8028 31.711 38.7917 31.755 38.785C31.769 38.785 31.784 38.799 31.773 38.808C31.7312 38.8386 31.6866 38.8654 31.64 38.888L31.639 38.88ZM32.059 37.518C32.0287 37.4946 32.0038 37.4649 31.986 37.431C32.0272 37.429 32.0684 37.4316 32.109 37.439C32.122 37.439 32.133 37.455 32.129 37.462C32.125 37.469 32.073 37.528 32.06 37.526L32.059 37.518ZM32.48 35.769L32.472 35.788L32.466 35.756C32.456 35.702 32.424 35.632 32.438 35.589C32.452 35.546 32.52 35.545 32.538 35.508C32.5512 35.5541 32.553 35.6027 32.543 35.6496C32.5331 35.6965 32.5118 35.7403 32.481 35.777L32.48 35.769ZM32.718 34.676C32.7219 34.5583 32.7339 34.441 32.754 34.325C32.771 34.279 32.88 34.311 32.913 34.279C32.874 34.393 32.842 34.512 32.795 34.62C32.784 34.657 32.738 34.661 32.719 34.684L32.718 34.676ZM32.957 34.85C32.947 34.869 32.943 34.871 32.928 34.87C32.913 34.869 32.839 34.846 32.828 34.828C32.8175 34.7928 32.8175 34.7552 32.828 34.72C32.8548 34.6892 32.8893 34.6661 32.928 34.653C32.9439 34.6566 32.9588 34.6635 32.9717 34.6733C32.9847 34.6832 32.9953 34.6957 33.003 34.71C32.995 34.7612 32.9799 34.811 32.958 34.858L32.957 34.85ZM33.01 34.476C33.01 34.463 32.952 34.416 32.966 34.403C32.98 34.39 33.061 34.303 33.091 34.325C33.121 34.347 33.07 34.461 33.011 34.484L33.01 34.476ZM34 33.213C34.0011 33.2398 33.996 33.2665 33.985 33.291C33.9602 33.2629 33.9387 33.232 33.921 33.199C33.9481 33.1976 33.9751 33.2024 34 33.213ZM34 34.725C33.991 34.739 33.981 34.748 33.972 34.743C33.9508 34.7225 33.9344 34.6976 33.924 34.67C33.9281 34.647 33.9401 34.6261 33.958 34.611C33.971 34.605 34.058 34.599 34.064 34.611C34.0476 34.6516 34.0261 34.6899 34 34.725ZM35.209 31.461C35.222 31.444 35.309 31.399 35.32 31.41C35.3239 31.4651 35.3172 31.5205 35.3 31.573C35.2618 31.5959 35.2174 31.6064 35.173 31.603C35.1752 31.5539 35.1867 31.5057 35.207 31.461H35.209ZM34.654 33.415C34.654 33.403 34.694 33.383 34.704 33.38C34.7186 33.3773 34.7337 33.3794 34.747 33.386C34.752 33.386 34.771 33.399 34.761 33.413C34.7319 33.4518 34.6984 33.4871 34.661 33.518C34.644 33.52 34.647 33.428 34.652 33.415H34.654ZM34.399 33.278C34.371 33.2925 34.3404 33.3013 34.309 33.304C34.299 33.304 34.291 33.25 34.301 33.24C34.3363 33.22 34.3744 33.2055 34.414 33.197C34.421 33.2 34.406 33.268 34.4 33.278H34.399ZM34.632 34.334C34.6 34.2685 34.5774 34.1988 34.565 34.127C34.565 34.101 34.644 34.055 34.665 34.06C34.7154 34.0926 34.7575 34.1364 34.788 34.188C34.788 34.215 34.714 34.308 34.701 34.323C34.688 34.338 34.636 34.348 34.63 34.334H34.632ZM34.824 34.734C34.7966 34.7508 34.7652 34.7601 34.733 34.761C34.7303 34.7326 34.7362 34.704 34.75 34.679C34.78 34.6518 34.8137 34.6289 34.85 34.611C34.862 34.606 34.871 34.622 34.868 34.635C34.8573 34.6697 34.8419 34.7027 34.822 34.733L34.824 34.734ZM35.251 32.018C35.222 32.039 35.175 31.985 35.143 31.992C35.2169 31.9002 35.296 31.8127 35.38 31.73C35.414 31.706 35.47 31.784 35.507 31.777C35.4253 31.8615 35.3391 31.9416 35.249 32.017L35.251 32.018ZM35.857 33.739L35.734 33.77C35.6995 33.7767 35.6659 33.7874 35.634 33.802C35.6308 33.8018 35.6278 33.8008 35.6251 33.7991C35.6224 33.7973 35.6203 33.7949 35.6189 33.7921C35.6174 33.7892 35.6168 33.7861 35.617 33.7829C35.6172 33.7797 35.6182 33.7766 35.62 33.774L35.667 33.702C35.6833 33.6731 35.702 33.6457 35.723 33.62C35.752 33.592 35.839 33.51 35.867 33.508C35.895 33.506 35.939 33.617 35.937 33.639C35.9222 33.6806 35.8931 33.7157 35.855 33.738L35.857 33.739ZM36.046 33.198C36.064 33.1748 36.0873 33.1562 36.114 33.144C36.1304 33.1689 36.1407 33.1974 36.144 33.227C36.1093 33.2241 36.0755 33.2149 36.044 33.2L36.046 33.198ZM36.569 33.698C36.5413 33.6862 36.5156 33.67 36.493 33.65C36.5258 33.6428 36.5594 33.6394 36.593 33.64C36.6 33.639 36.575 33.693 36.567 33.694L36.569 33.698ZM37.186 29.643C37.191 29.635 37.222 29.604 37.233 29.606C37.2551 29.6252 37.274 29.6478 37.289 29.673C37.289 29.682 37.276 29.691 37.265 29.693C37.2374 29.6936 37.2098 29.6906 37.183 29.684C37.172 29.675 37.179 29.646 37.184 29.639L37.186 29.643ZM37.362 33.296C37.362 33.338 37.35 33.396 37.327 33.403C37.227 33.435 37.227 33.417 37.158 33.351C37.0522 33.3847 36.9622 33.4558 36.905 33.551C36.905 33.56 36.891 33.574 36.88 33.569C36.869 33.564 36.837 33.514 36.822 33.501C36.9161 33.3529 37.0475 33.2322 37.203 33.151C37.1542 33.0336 37.1228 32.9096 37.11 32.783C37.271 32.749 37.324 32.748 37.425 32.608C37.4321 32.6565 37.4495 32.703 37.4761 32.7442C37.5026 32.7854 37.5377 32.8205 37.579 32.847C37.5104 32.8991 37.4549 32.9664 37.4169 33.0436C37.3789 33.1209 37.3594 33.2059 37.36 33.292L37.362 33.296ZM37.538 29.711C37.524 29.711 37.486 29.618 37.486 29.605C37.486 29.592 37.518 29.565 37.533 29.567C37.548 29.569 37.651 29.607 37.65 29.62C37.6187 29.6568 37.5798 29.6865 37.536 29.707L37.538 29.711ZM39.2 27.9C39.215 27.892 39.248 27.932 39.238 27.943C39.2052 27.9906 39.1596 28.028 39.1066 28.0509C39.0536 28.0739 38.9952 28.0816 38.938 28.073C39.019 28.025 39.12 27.947 39.2 27.9ZM38.18 31.241C38.12 31.232 38.097 31.203 38.061 31.141C38.134 31.12 38.13 31.115 38.19 31.153C38.2 31.16 38.148 31.185 38.146 31.193C38.144 31.201 38.19 31.247 38.178 31.245L38.18 31.241ZM38.192 30.841C38.2332 30.8393 38.2745 30.8424 38.315 30.85C38.328 30.85 38.339 30.867 38.335 30.874C38.331 30.881 38.277 30.931 38.264 30.928C38.2337 30.9068 38.2084 30.8791 38.19 30.847L38.192 30.841ZM38.233 31.041C38.22 31.041 38.233 31.006 38.239 31C38.245 30.994 38.304 31.014 38.323 31C38.43 30.948 38.457 30.926 38.463 30.815C38.463 30.79 38.526 30.76 38.533 30.757C38.54 30.754 38.577 30.784 38.57 30.801C38.5 30.975 38.418 31.071 38.231 31.047L38.233 31.041ZM38.933 30.923C38.933 30.914 38.973 30.879 38.978 30.886C38.9914 30.9263 39.0004 30.9678 39.005 31.01C38.9773 30.9847 38.9512 30.9576 38.927 30.929L38.933 30.923ZM39.068 30.683L38.768 30.526C38.759 30.526 38.745 30.509 38.75 30.503C38.785 30.463 38.91 30.424 38.932 30.384C38.9441 30.3646 38.9516 30.3428 38.954 30.3201C38.9565 30.2974 38.9537 30.2745 38.946 30.253C38.926 30.217 38.799 30.2 38.762 30.168C38.776 30.084 38.774 30.08 38.856 30.084C38.876 30.084 38.928 30.033 38.928 30.033L38.922 30.01C38.922 30.044 38.798 29.826 38.769 29.841C38.74 29.856 38.725 29.926 38.687 29.935C38.649 29.944 38.543 29.902 38.494 29.903C38.535 29.882 38.613 29.918 38.649 29.886C38.709 29.831 38.735 29.722 38.792 29.661C38.8456 29.7732 38.8892 29.89 38.922 30.01L38.934 30.026L38.928 30.033C38.928 30.033 38.913 30.103 38.933 30.114C39.0359 30.1388 39.1439 30.1322 39.243 30.095C39.25 30.095 39.268 30.11 39.262 30.118L38.982 30.432C38.9801 30.4764 38.9888 30.5206 39.0074 30.561C39.026 30.6013 39.054 30.6367 39.089 30.664C39.09 30.675 39.071 30.693 39.062 30.689L39.068 30.683ZM39.159 30.532C39.159 30.526 39.18 30.479 39.185 30.472C39.19 30.465 39.204 30.447 39.209 30.453C39.224 30.4794 39.2345 30.5081 39.24 30.538C39.2115 30.5454 39.1815 30.5454 39.153 30.538L39.159 30.532ZM39.339 30.903C39.329 30.924 39.249 30.95 39.252 30.938C39.255 30.926 39.266 30.781 39.295 30.753C39.348 30.703 39.41 30.715 39.476 30.715C39.409 30.7629 39.3589 30.8308 39.333 30.909L39.339 30.903ZM40.118 28.631C40.11 28.651 40.106 28.658 40.091 28.653C40.0533 28.6362 40.0193 28.6121 39.991 28.582C39.9767 28.5483 39.9725 28.5111 39.979 28.475C39.988 28.454 40.053 28.397 40.072 28.399C40.1069 28.419 40.1343 28.4499 40.15 28.487C40.1455 28.5387 40.1327 28.5894 40.112 28.637L40.118 28.631ZM40.249 26.689C40.122 26.689 40.115 26.612 40.109 26.489C40.109 26.481 40.123 26.467 40.131 26.468C40.168 26.4744 40.2026 26.4906 40.2313 26.5149C40.2599 26.5391 40.2816 26.5706 40.294 26.606C40.3 26.629 40.269 26.694 40.243 26.7L40.249 26.689ZM40.936 25.989L40.664 26.253C40.6455 26.1424 40.5947 26.0398 40.518 25.958C40.585 25.9313 40.6574 25.9212 40.7291 25.9285C40.8009 25.9359 40.8698 25.9604 40.93 26L40.936 25.989ZM40.436 28.649C40.4116 28.633 40.3922 28.6105 40.38 28.584C40.3981 28.5602 40.4214 28.5407 40.448 28.527C40.457 28.527 40.487 28.559 40.486 28.57C40.4743 28.6029 40.4551 28.6327 40.43 28.657L40.436 28.649ZM40.6 26.7C40.5735 26.7012 40.5474 26.6933 40.5259 26.6777C40.5045 26.662 40.489 26.6396 40.482 26.614C40.476 26.594 40.551 26.535 40.566 26.532C40.6048 26.5438 40.6395 26.5663 40.666 26.597C40.664 26.615 40.621 26.7 40.6 26.7ZM40.675 26.414C40.6478 26.4175 40.6202 26.4175 40.593 26.414C40.585 26.414 40.593 26.38 40.593 26.372C40.593 26.364 40.625 26.329 40.636 26.332C40.6594 26.3494 40.6797 26.3707 40.696 26.395C40.7 26.4 40.684 26.415 40.673 26.418L40.675 26.414ZM40.963 27.18C40.9203 27.1374 40.8863 27.0867 40.863 27.031C40.863 27.013 40.951 26.965 40.963 26.971C40.9976 27.0074 41.0241 27.0507 41.041 27.098C41.045 27.12 40.975 27.192 40.961 27.184L40.963 27.18ZM41.274 28.925C41.263 28.941 41.228 28.983 41.2 28.984C41.1416 28.9774 41.0849 28.9597 41.033 28.932C41.015 28.912 41.033 28.827 41.042 28.806C41.051 28.785 41.116 28.721 41.137 28.728C41.1977 28.7623 41.2521 28.8065 41.298 28.859C41.314 28.887 41.283 28.912 41.272 28.929L41.274 28.925ZM41.848 27.25C41.783 27.2421 41.7171 27.2551 41.66 27.2871C41.6028 27.3191 41.5573 27.3685 41.53 27.428C41.5741 27.259 41.6479 27.0991 41.748 26.956C41.748 26.947 41.758 26.928 41.773 26.937C41.788 26.946 41.885 26.95 41.896 26.985C41.9124 27.0778 41.8946 27.1733 41.846 27.254L41.848 27.25ZM42.067 24.581L42.136 24.531C42.2024 24.4987 42.2712 24.472 42.342 24.451C42.3207 24.504 42.2917 24.5535 42.256 24.598L42.23 24.616C42.1877 24.6424 42.1424 24.6635 42.095 24.679C42.075 24.685 42.04 24.607 42.065 24.585L42.067 24.581ZM42.209 26.415C42.16 26.415 42.139 26.401 42.13 26.371C42.121 26.341 42.214 26.308 42.23 26.309C42.246 26.31 42.292 26.379 42.315 26.392C42.2835 26.414 42.2451 26.4236 42.207 26.419L42.209 26.415ZM42.338 24.715C42.318 24.748 42.291 24.76 42.223 24.773L42.306 24.686L42.384 24.619C42.3714 24.6539 42.3554 24.6874 42.336 24.719L42.338 24.715ZM42.512 27.346C42.502 27.361 42.455 27.417 42.446 27.408C42.4181 27.3625 42.3985 27.3124 42.388 27.26C42.388 27.236 42.437 27.197 42.454 27.195C42.492 27.2081 42.5262 27.23 42.554 27.259C42.56 27.279 42.52 27.336 42.51 27.35L42.512 27.346ZM42.612 27.159C42.5773 27.14 42.5493 27.1106 42.532 27.075C42.532 27.058 42.601 26.997 42.617 26.99C42.633 26.983 42.672 27.001 42.681 27.011C42.69 27.021 42.707 27.061 42.699 27.077C42.691 27.093 42.625 27.164 42.608 27.163L42.612 27.159ZM42.68 25.2C42.708 25.186 42.748 25.116 42.774 25.113C42.8 25.11 42.802 25.133 42.814 25.151C42.8193 25.1619 42.8276 25.1709 42.838 25.177C42.753 25.231 42.77 25.238 42.68 25.2ZM43.085 23.443C43.0458 23.4691 42.9991 23.4818 42.952 23.479C42.907 23.479 42.908 23.523 42.872 23.535C42.8901 23.4113 42.8738 23.2851 42.825 23.17L42.999 23.189C43.047 23.197 43.068 23.212 43.111 23.221C43.045 23.323 43.039 23.338 43.085 23.447V23.443ZM43.392 25.089C43.384 25.096 43.369 25.041 43.382 25.024C43.395 25.007 43.474 24.949 43.499 24.924C43.4861 24.9919 43.4478 25.0523 43.392 25.093V25.089ZM43.952 23.098C43.952 23.116 43.945 23.154 43.92 23.16C43.8699 23.1732 43.8171 23.1732 43.767 23.16C43.723 23.141 43.657 23.001 43.61 22.983C43.579 22.971 43.51 23.072 43.491 23.069C43.472 23.066 43.425 23.014 43.436 23.002C43.461 22.972 43.607 22.935 43.636 22.911C43.665 22.887 43.651 22.885 43.644 22.863C43.637 22.841 43.565 22.811 43.544 22.787C43.7188 22.7103 43.8977 22.6435 44.08 22.587C44.086 22.587 44.102 22.602 44.098 22.61C44.022 22.8 43.933 22.894 43.952 23.1V23.098ZM44.911 24.214C44.883 24.228 44.859 24.132 44.832 24.128C44.925 24.051 44.972 24.015 45.09 24.038C45.031 24.087 44.97 24.189 44.911 24.218V24.214Z" fill="#51C041"/>
</svg>
