<svg width="64" height="64" viewBox="0 0 64 64" fill="none" xmlns="http://www.w3.org/2000/svg">
<path d="M21.538 27.328L21.683 27.551L21.742 27.651L21.829 27.82C21.8873 27.9436 21.9521 28.0641 22.023 28.181C22.2942 28.5124 22.5482 28.8575 22.784 29.215L23.156 29.744L23.356 30L23.608 30.312L23.801 30.628L24.047 30.849L24.247 31.033L24.491 31.277C24.9455 31.558 25.3826 31.8663 25.8 32.2C26.0093 32.3647 26.2137 32.5347 26.413 32.71L27.333 33.51L28.181 33.748L28.281 33.58C28.7724 33.7693 29.2811 33.91 29.8 34L30.584 34.143L30.968 34.217L31.483 34.331L32.018 34.466L32.582 34.357L32.858 34.307L33.001 34.292C33.193 34.271 33.386 34.249 33.596 34.208L34.918 33.808L36.501 33.379L38.413 32.23L40.528 30.99L41.06 30.048C41.448 29.37 41.76 28.378 42.168 27.809C42.2619 27.6797 42.3462 27.5437 42.42 27.402L42.694 26.847L42.758 26.347C42.78 26.189 42.787 26.123 42.815 25.978C42.867 25.715 43.067 25.47 43.128 25.166C43.267 24.483 43.297 23.785 43.374 23.098L43.381 23.054C43.0079 22.9504 42.6514 22.7946 42.322 22.591H40.912C41.031 22.559 41.152 22.531 41.269 22.491C41.93 22.1806 42.6149 21.9238 43.317 21.723C43.264 21.4906 43.1617 21.2724 43.017 21.083L43.206 20.72C43.13 20.341 43.073 19.958 43.026 19.573C42.964 19.048 42.901 18.517 42.839 17.986C42.139 17.049 42.022 16.861 41.666 16.411C41.3555 16.0152 41.0152 15.6438 40.648 15.3C40.6247 15.2587 40.6099 15.2133 40.6045 15.1662C40.599 15.1192 40.6029 15.0715 40.616 15.026C40.553 14.9502 40.4945 14.8707 40.441 14.788L40.112 14.321C39.9274 14.174 39.7325 14.0403 39.529 13.921C39.2403 13.8315 38.9575 13.7243 38.682 13.6C38.069 13.2 37.825 12.773 37.14 12.345L36.448 11.901C35.648 11.721 35.49 11.701 35.075 11.591C34.7218 11.5023 34.3787 11.3777 34.051 11.219L32.04 10.73L29.749 11.23L27.567 11.724L27.422 11.817C27.1703 11.9864 26.899 12.1248 26.614 12.229C26.3999 12.3063 26.1936 12.4037 25.998 12.52L23.606 14.04L22.146 16.23C22.004 16.445 21.846 16.669 21.676 16.9L20.92 17.94L20.7 19.193C20.651 19.483 20.606 19.773 20.572 20.058C20.498 20.5948 20.4839 21.1381 20.53 21.678C20.448 21.878 20.413 21.848 20.275 22.066L20.222 22.578C20.6627 24.0272 21.0256 25.499 21.309 26.987L21.538 27.328ZM42.575 20.716C42.575 20.727 42.55 20.729 42.545 20.716C42.4799 20.4702 42.3637 20.2409 42.204 20.043C42.1793 20.0157 42.1664 19.9798 42.168 19.943C42.179 19.8734 42.2053 19.8072 42.245 19.749C42.285 19.714 42.445 19.776 42.483 19.736C42.521 19.696 42.457 19.52 42.471 19.499C42.485 19.478 42.553 19.474 42.558 19.499C42.57 19.561 42.526 19.782 42.534 19.836C42.542 19.89 42.548 19.881 42.571 19.895C42.594 19.909 42.658 19.85 42.689 19.852C42.692 20.173 42.593 20.407 42.575 20.716ZM42.535 18.123C42.5774 18.1834 42.6315 18.2348 42.694 18.274L42.609 18.627C42.581 18.714 42.559 18.733 42.532 18.804C42.464 18.504 42.452 18.462 42.332 18.386C42.3266 18.3275 42.3266 18.2685 42.332 18.21L42.287 18.08C42.255 17.993 42.187 17.95 42.146 17.871C42.29 17.97 42.415 18.058 42.535 18.123ZM23.769 26.01C23.7694 25.9848 23.7777 25.9605 23.7928 25.9403C23.8079 25.9202 23.8289 25.9054 23.853 25.898C23.867 25.891 23.884 25.95 23.876 25.961C23.8413 25.9794 23.8056 25.9958 23.769 26.01ZM25.73 28.81H25.686C25.662 28.804 25.672 28.795 25.672 28.782C25.6729 28.7525 25.6826 28.7239 25.7 28.7C25.714 28.689 25.759 28.648 25.778 28.66C25.7933 28.6819 25.8039 28.7068 25.809 28.733C25.8199 28.7504 25.8323 28.7667 25.846 28.782L25.73 28.81ZM28.241 32.53L27.833 32.468L27.498 32.234C27.4328 32.1792 27.371 32.1204 27.313 32.058C27.4804 32.1203 27.6437 32.1932 27.802 32.276C27.8331 32.297 27.8629 32.3201 27.891 32.345L28.28 32.48C28.313 32.486 28.281 32.533 28.241 32.527V32.53ZM32.213 32.344C32.196 32.353 32.128 32.362 32.133 32.351C32.1567 32.2815 32.2051 32.2232 32.269 32.187C32.298 32.172 32.397 32.204 32.453 32.193C32.373 32.29 32.316 32.288 32.213 32.341V32.344ZM32.675 32.134C32.7039 32.1052 32.7378 32.0818 32.775 32.065C32.79 32.065 32.875 32.107 32.865 32.112C32.8023 32.1233 32.7387 32.1297 32.675 32.131V32.134ZM36.697 31.367L36.277 31.548C36.264 31.548 36.258 31.525 36.271 31.518L36.729 31.291C36.755 31.276 36.724 31.351 36.7 31.364L36.697 31.367ZM37.697 31.077C37.675 31.077 37.627 31.022 37.633 31.008C37.6697 30.9714 37.7132 30.9422 37.761 30.922C37.783 30.922 37.878 30.987 37.873 31.002C37.8191 31.0341 37.7608 31.0584 37.7 31.074L37.697 31.077ZM38.349 31.701C38.331 31.701 38.296 31.67 38.289 31.662C38.282 31.654 38.273 31.64 38.289 31.63C38.3275 31.5959 38.3706 31.5673 38.417 31.545C38.4381 31.5516 38.4564 31.565 38.469 31.5831C38.4817 31.6012 38.488 31.6229 38.487 31.645C38.4456 31.6712 38.3999 31.6899 38.352 31.7L38.349 31.701ZM39.369 31.13C39.3094 31.1507 39.2482 31.1664 39.186 31.177C39.169 31.177 39.165 31.158 39.18 31.146C39.2343 31.1083 39.2915 31.0748 39.351 31.046C39.372 31.039 39.387 31.114 39.372 31.127L39.369 31.13ZM40.787 20.5C40.778 20.38 40.722 20.2 40.728 20.1C40.728 20.05 40.828 20.119 40.844 20.089C40.8799 20.2282 40.8594 20.3759 40.787 20.5ZM40.687 16.277C40.729 16.354 40.769 16.515 40.806 16.609C40.7483 16.566 40.6935 16.5192 40.642 16.469C40.6115 16.4096 40.5918 16.3453 40.584 16.279C40.589 16.255 40.674 16.241 40.691 16.272L40.687 16.277ZM40.61 16.6C40.493 16.523 40.47 16.514 40.465 16.385L40.61 16.6ZM40.242 17.743C40.266 17.768 40.35 17.902 40.382 17.943C40.2924 17.8881 40.2167 17.8131 40.161 17.724C40.156 17.706 40.223 17.713 40.246 17.738L40.242 17.743ZM39.94 16.72C39.96 16.765 40.04 16.85 40.047 16.886C40.054 16.922 39.981 16.91 39.972 16.936C39.906 16.8 39.9 16.816 39.94 16.72ZM38.5 15.6C38.507 15.625 38.43 15.664 38.42 15.689C38.3806 15.6512 38.3534 15.6024 38.342 15.549C38.327 15.489 38.332 15.466 38.37 15.46C38.4 15.454 38.5 15.572 38.5 15.6ZM38.237 13.537C38.302 13.6035 38.3491 13.6855 38.3738 13.7753C38.3984 13.865 38.3999 13.9595 38.378 14.05L37.892 13.665C37.956 13.6675 38.0198 13.6573 38.0797 13.6348C38.1397 13.6123 38.1945 13.578 38.241 13.534L38.237 13.537ZM37.708 13.561C37.721 13.568 37.781 13.609 37.783 13.622C37.785 13.635 37.732 13.682 37.722 13.685C37.712 13.688 37.69 13.668 37.682 13.654C37.6666 13.6223 37.6555 13.5886 37.649 13.554C37.656 13.54 37.7 13.551 37.712 13.558L37.708 13.561ZM37.568 15.826C37.624 15.8588 37.6754 15.8988 37.721 15.945C37.7278 15.9563 37.7314 15.9693 37.7314 15.9825C37.7314 15.9957 37.7278 16.0087 37.721 16.02C37.7088 16.0277 37.695 16.0327 37.6807 16.0346C37.6664 16.0365 37.6518 16.0353 37.638 16.031C37.5829 15.9971 37.5324 15.9561 37.488 15.909C37.483 15.886 37.549 15.82 37.572 15.823L37.568 15.826ZM37.321 12.931C37.3374 12.936 37.3514 12.9471 37.36 12.962C37.3651 12.9815 37.3661 13.0019 37.3628 13.0218C37.3595 13.0417 37.352 13.0606 37.3409 13.0775C37.3298 13.0943 37.3152 13.1085 37.2981 13.1193C37.2811 13.1301 37.2619 13.1371 37.242 13.14C37.1894 13.1351 37.1408 13.1096 37.107 13.069C37.049 12.907 37.157 12.912 37.325 12.928L37.321 12.931ZM37.469 13.497C37.48 13.515 37.444 13.61 37.424 13.608C37.3605 13.5865 37.302 13.5525 37.252 13.508C37.2443 13.4953 37.2399 13.4809 37.2393 13.4661C37.2387 13.4513 37.242 13.4365 37.2487 13.4233C37.2554 13.4101 37.2654 13.3988 37.2777 13.3905C37.29 13.3822 37.3042 13.3772 37.319 13.376C37.347 13.37 37.463 13.475 37.473 13.494L37.469 13.497ZM36.913 13.78C36.9658 13.8158 37.0096 13.8634 37.041 13.919C37.0018 13.9564 36.953 13.982 36.9 13.993C36.875 13.993 36.746 13.893 36.751 13.874C36.7956 13.8261 36.8533 13.7924 36.917 13.777L36.913 13.78ZM37.4 14.885C37.415 14.892 37.442 14.901 37.437 14.919C37.432 14.937 37.467 15.055 37.423 15.062C37.2884 15.0631 37.1559 15.0286 37.039 14.962C37.0096 14.868 36.9602 14.7814 36.8943 14.7083C36.8284 14.6351 36.7474 14.577 36.657 14.538C36.9171 14.6235 37.1665 14.7389 37.4 14.882V14.885ZM37.371 15.711C37.3713 15.732 37.3676 15.7529 37.3598 15.7725C37.3521 15.792 37.3406 15.8099 37.326 15.825C37.2768 15.8094 37.2303 15.7864 37.188 15.757C37.164 15.742 37.067 15.674 37.076 15.665C37.1315 15.6376 37.1921 15.6223 37.254 15.62C37.3019 15.6371 37.3439 15.6677 37.375 15.708L37.371 15.711ZM34.913 14.172C34.9181 14.2407 34.9053 14.3096 34.876 14.372C34.858 14.399 34.798 14.378 34.766 14.372C34.7153 14.3669 34.6667 14.3498 34.624 14.322C34.5847 14.269 34.559 14.2072 34.549 14.142C34.561 14.117 34.69 14.102 34.727 14.104C34.7943 14.1114 34.8592 14.1336 34.917 14.169L34.913 14.172ZM34.58 13.428C34.59 13.437 34.571 13.478 34.555 13.481C34.5047 13.4809 34.4547 13.4745 34.406 13.462C34.396 13.453 34.428 13.386 34.443 13.383C34.4917 13.3903 34.5392 13.4044 34.584 13.425L34.58 13.428ZM34.38 13.128C34.3066 13.1429 34.2319 13.1503 34.157 13.15C34.125 13.15 34.112 13.15 34.106 13.132C34.1 13.114 34.094 13.032 34.113 13.009C34.1523 12.9803 34.1986 12.9627 34.247 12.958C34.3116 12.9667 34.374 12.9874 34.431 13.019C34.447 13.031 34.411 13.105 34.382 13.121L34.38 13.128ZM34.349 11.993C34.373 12.004 34.349 12.052 34.324 12.046C34.1509 12.0258 33.9928 11.9382 33.884 11.802L34.349 11.993ZM30.617 13.178C30.701 13.159 30.895 13.186 30.963 13.16C31.0257 13.1427 31.0799 13.1028 31.115 13.048C31.128 13.006 30.991 12.928 30.979 12.88C31.079 12.81 31.085 12.806 31.179 12.85C31.2262 12.8531 31.2737 12.8497 31.32 12.84L31.337 12.815C31.298 12.846 31.377 12.587 31.326 12.586C31.298 12.586 31.184 12.641 31.126 12.63C31.068 12.619 30.984 12.53 30.926 12.506C30.997 12.506 31.056 12.579 31.132 12.567C31.263 12.548 31.41 12.461 31.542 12.434C31.484 12.517 31.417 12.754 31.342 12.815V12.836C31.342 12.83 31.327 12.836 31.327 12.836C31.327 12.836 31.235 12.892 31.25 12.912C31.3668 12.9925 31.5034 13.0399 31.645 13.049C31.656 13.049 31.66 13.075 31.645 13.079L30.979 13.225C30.865 13.331 30.856 13.379 30.869 13.489C30.869 13.496 30.828 13.503 30.821 13.489L30.621 13.199C30.611 13.192 30.608 13.174 30.619 13.171L30.617 13.178ZM31.279 13.731C31.1535 13.7401 31.0312 13.7741 30.919 13.831C30.886 13.844 30.762 13.831 30.778 13.818C30.8523 13.7591 30.934 13.71 31.021 13.672C31.111 13.6599 31.2025 13.6782 31.281 13.724L31.279 13.731ZM31.079 13.407C31.1083 13.3889 31.1399 13.3748 31.173 13.365C31.186 13.36 31.222 13.352 31.222 13.36C31.2113 13.3936 31.1943 13.4248 31.172 13.452C31.1391 13.4421 31.1093 13.4242 31.085 13.4L31.079 13.407ZM30.401 13.649C30.409 13.64 30.494 13.629 30.494 13.638C30.4671 13.6829 30.4356 13.7248 30.4 13.763C30.3944 13.7226 30.3968 13.6815 30.407 13.642L30.401 13.649ZM30.009 11.727C30.0402 11.7123 30.0754 11.7084 30.109 11.716C30.125 11.724 30.209 11.81 30.199 11.822C30.123 11.842 30.0445 11.8511 29.966 11.849C29.952 11.835 30 11.732 30.015 11.72L30.009 11.727ZM29.599 11.613C29.6315 11.6038 29.6654 11.6007 29.699 11.604C29.71 11.612 29.705 11.682 29.699 11.692C29.693 11.702 29.665 11.702 29.649 11.698C29.6157 11.6861 29.5841 11.67 29.555 11.65C29.553 11.633 29.591 11.611 29.605 11.606L29.599 11.613ZM29.725 13.278C29.739 13.287 29.738 13.305 29.725 13.309C29.6786 13.3209 29.6308 13.3259 29.583 13.324C29.57 13.2868 29.57 13.2462 29.583 13.209C29.6347 13.2233 29.6845 13.2441 29.731 13.271L29.725 13.278ZM29.478 13.378C29.494 13.378 29.544 13.423 29.578 13.424C29.642 13.4361 29.7078 13.4334 29.7706 13.416C29.8334 13.3987 29.8913 13.3672 29.94 13.324C29.9864 13.3076 30.0359 13.3014 30.085 13.306C30.096 13.306 30.111 13.353 30.085 13.365C29.9886 13.4278 29.8777 13.4649 29.7629 13.473C29.6482 13.481 29.5332 13.4597 29.429 13.411C29.42 13.4 29.467 13.37 29.484 13.369L29.478 13.378ZM29.112 13.417C29.223 13.435 29.224 13.428 29.257 13.493C29.263 13.503 29.173 13.5 29.163 13.506C29.153 13.512 29.171 13.572 29.163 13.564C29.1 13.517 29.1 13.478 29.118 13.408L29.112 13.417ZM26.637 15.445C26.6534 15.2901 26.6946 15.1388 26.759 14.997C26.9543 14.9918 27.1423 14.9214 27.293 14.797C27.2677 14.8453 27.2584 14.9004 27.2665 14.9543C27.2746 15.0083 27.2996 15.0582 27.338 15.097C27.0925 15.2083 26.8878 15.3932 26.752 15.626C26.725 15.676 26.67 15.744 26.634 15.752C26.485 15.787 26.495 15.765 26.444 15.682C26.2727 15.7214 26.1126 15.7994 25.976 15.91C25.963 15.921 25.942 15.937 25.93 15.93C25.918 15.923 25.91 15.862 25.899 15.845C26.1229 15.6688 26.3742 15.5306 26.643 15.436L26.637 15.445ZM25.573 15.962C25.573 15.967 25.55 16.005 25.542 16.003C25.5183 15.9839 25.4956 15.9635 25.474 15.942C25.5093 15.9403 25.5447 15.944 25.579 15.953L25.573 15.962ZM25.116 13.318C25.1718 13.2877 25.2329 13.2684 25.296 13.261C25.2613 13.3323 25.2162 13.3981 25.162 13.456C25.1023 13.4811 25.0375 13.4914 24.973 13.486C25.0136 13.42 25.0638 13.3603 25.122 13.309L25.116 13.318ZM25.164 13.648C25.225 13.62 25.247 13.717 25.301 13.711C25.136 13.799 24.963 13.916 24.801 13.988C24.749 14.011 24.723 13.944 24.676 13.95C24.843 13.851 25.017 13.709 25.17 13.639L25.164 13.648ZM25.205 15.472C25.1668 15.464 25.13 15.4501 25.096 15.431C25.1301 15.4078 25.1675 15.3899 25.207 15.378C25.2148 15.4056 25.2162 15.4347 25.211 15.463L25.205 15.472ZM24.519 16.306C24.5546 16.2253 24.595 16.1469 24.64 16.071C24.6963 15.9904 24.7607 15.9157 24.832 15.848C24.861 15.836 24.907 15.962 24.901 15.993C24.8789 16.0584 24.8427 16.1182 24.795 16.168C24.7038 16.2161 24.6171 16.2724 24.536 16.336C24.535 16.333 24.509 16.329 24.525 16.3L24.519 16.306ZM23.757 22.445C23.7648 22.4379 23.7736 22.4318 23.783 22.427L23.805 22.419C23.805 22.411 23.805 22.434 23.816 22.401L23.842 22.275C23.875 22.107 23.904 21.939 23.926 21.775C24.003 21.184 23.999 20.519 24.061 19.918L24.194 19.395C24.22 19.274 24.226 19.284 24.233 19.285L24.252 19.278H24.271C24.286 19.264 24.256 19.314 24.328 19.215L24.628 18.804C24.828 18.5273 25.018 18.2437 25.198 17.953C25.4032 17.5254 25.6329 17.1101 25.886 16.709L25.968 16.609H25.984H26.014C25.931 16.703 26.449 16.428 26.755 16.268C27.097 16.085 27.441 15.886 27.808 15.642L28.445 15.221L28.769 15.008C28.869 14.943 28.802 14.98 28.828 14.961C28.854 14.942 28.809 14.961 28.873 14.946L29.228 14.872L29.942 14.734C30.418 14.649 30.896 14.577 31.37 14.526V14.366L31.852 14.285C31.984 14.263 31.911 14.285 31.952 14.278C31.988 14.291 31.918 14.278 32.04 14.311L32.508 14.436L33.444 14.682L35.012 15.082L37.668 16.914L38.668 18.242L39.241 19.023L39.521 19.411L39.509 19.426L39.491 19.434C39.537 19.416 39.574 19.434 39.65 19.474C39.6901 20.533 39.829 21.5859 40.065 22.619H40L39.7 24.29L39.555 25.13C39.51 25.394 39.44 25.791 39.465 25.699L39.46 25.723L39.319 25.994L39.037 26.541C38.944 26.724 38.737 26.8 38.606 27.065L38.13 27.975L37.892 28.422L37.887 28.448L37.873 28.466L37.473 28.712L36.649 29.231L35.819 29.77L35.4 30.051L35.2 30.186L35.183 30.216L35.158 30.242L34.909 30.327C34.401 30.5 33.48 30.513 32.727 30.685L32.154 30.824L32.007 30.862C31.968 30.872 31.993 30.862 31.983 30.87L31.971 30.878C31.96 30.878 31.971 30.885 31.938 30.878L31.484 30.791L30.565 30.619L28.899 30.292L28.873 30.283L28.858 30.26C28.851 30.249 28.874 30.26 28.783 30.183L28.399 29.837C28.145 29.605 27.89 29.375 27.628 29.162L26.352 28.23C25.978 27.73 24.788 26.021 24.442 25.584L24.424 25.554L24.329 25.221L24.129 24.543C24.0159 24.1496 23.9313 23.7486 23.876 23.343L23.787 22.715C23.7733 22.6226 23.7653 22.5294 23.763 22.436L23.757 22.445ZM23.757 25.586C23.763 25.569 23.785 25.567 23.788 25.586V25.704C23.7838 25.7241 23.7782 25.7438 23.771 25.763C23.763 25.773 23.715 25.763 23.715 25.748C23.7335 25.692 23.7485 25.6349 23.76 25.577L23.757 25.586ZM23.557 17.886C23.5431 17.94 23.524 17.9926 23.5 18.043C23.4678 18.0787 23.4295 18.1085 23.387 18.131C23.385 18.0901 23.3929 18.0492 23.41 18.012C23.4481 17.9598 23.4899 17.9103 23.535 17.864C23.557 17.844 23.567 17.861 23.563 17.88L23.557 17.886ZM23.341 16.386C23.3576 16.357 23.3788 16.331 23.404 16.309C23.4193 16.2979 23.4381 16.2926 23.457 16.294C23.463 16.294 23.487 16.294 23.474 16.321C23.4333 16.3905 23.3882 16.4573 23.339 16.521C23.333 16.524 23.341 16.4 23.347 16.38L23.341 16.386ZM23.329 17.238C23.355 17.238 23.472 17.301 23.477 17.338C23.4496 17.4195 23.4112 17.4969 23.363 17.568C23.346 17.596 23.285 17.638 23.278 17.623C23.2394 17.5493 23.214 17.4694 23.203 17.387C23.2302 17.3231 23.2762 17.269 23.335 17.232L23.329 17.238ZM22.91 16.357C22.9529 16.3115 23.0005 16.2706 23.052 16.235C23.063 16.235 23.043 16.335 23.03 16.35C22.997 16.3845 22.9593 16.4142 22.918 16.438C22.913 16.433 22.9 16.37 22.916 16.351L22.91 16.357ZM22.873 28.5C22.9696 28.5745 23.0453 28.6727 23.093 28.785C23.101 28.802 23.074 28.852 23.058 28.845C23.0114 28.8136 22.9687 28.7766 22.931 28.735C22.9013 28.6945 22.8774 28.6501 22.86 28.603C22.857 28.58 22.846 28.484 22.873 28.5ZM22.69 25.734C22.665 25.775 22.555 25.759 22.515 25.786C22.5126 25.7329 22.5269 25.6805 22.556 25.636C22.581 25.593 22.614 25.507 22.63 25.49C22.646 25.473 22.659 25.468 22.663 25.49C22.6846 25.5691 22.6937 25.6511 22.69 25.733V25.734ZM22.69 23.734C22.699 23.72 22.717 23.721 22.721 23.734C22.7335 23.7806 22.7392 23.8288 22.738 23.877C22.7008 23.89 22.6602 23.89 22.623 23.877C22.6395 23.8283 22.6617 23.7816 22.689 23.738L22.69 23.734ZM22.545 16.486C22.545 16.5247 22.5375 16.5631 22.523 16.599C22.4927 16.5758 22.4672 16.5469 22.448 16.514C22.4775 16.4981 22.5105 16.4898 22.544 16.49L22.545 16.486ZM22.418 18.404C22.437 18.385 22.558 18.304 22.561 18.323C22.5383 18.3922 22.5092 18.4592 22.474 18.523L22.459 18.549C22.459 18.562 22.453 18.57 22.447 18.571C22.4158 18.5599 22.3886 18.5397 22.369 18.513C22.3765 18.4747 22.3929 18.4387 22.417 18.408L22.418 18.404ZM22.3 25.371C22.307 25.363 22.379 25.362 22.388 25.371C22.4023 25.4169 22.4087 25.4649 22.407 25.513C22.4 25.521 22.322 25.477 22.307 25.463C22.2972 25.4333 22.2948 25.4018 22.3 25.371ZM20.679 21.742C20.6881 21.6808 20.7039 21.6208 20.726 21.563C20.7428 21.6336 20.7532 21.7055 20.757 21.778C20.76 21.792 20.684 21.757 20.683 21.742H20.679ZM21.865 25.551C21.865 25.564 21.765 25.56 21.749 25.551C21.7357 25.5048 21.7286 25.4571 21.728 25.409C21.728 25.396 21.747 25.396 21.76 25.409C21.8004 25.453 21.8369 25.5005 21.869 25.551H21.865ZM21.737 21.429C21.706 21.368 21.613 21.314 21.597 21.252C21.581 21.19 21.642 21.116 21.64 21.052C21.7156 21.1625 21.7512 21.2955 21.741 21.429H21.737ZM21.6 19.592C21.6187 19.6644 21.6305 19.7384 21.635 19.813C21.635 19.846 21.635 19.854 21.621 19.868C21.607 19.882 21.532 19.935 21.514 19.923C21.4825 19.8857 21.462 19.8403 21.455 19.792C21.4605 19.7263 21.477 19.6621 21.504 19.602C21.522 19.581 21.586 19.57 21.6 19.592ZM21.462 19.033C21.499 19.024 21.513 19.211 21.476 19.303C21.469 19.286 21.392 19.292 21.397 19.261C21.402 19.23 21.427 19.041 21.464 19.033H21.462ZM20.982 22.084C20.9616 22.0516 20.9489 22.015 20.945 21.977C20.951 21.9292 20.9635 21.8825 20.982 21.838C21.0054 21.8975 21.0196 21.9602 21.024 22.024C21.025 22.053 20.991 22.088 20.984 22.084H20.982ZM21.282 19.167C21.312 19.347 21.35 19.525 21.37 19.706C21.37 19.755 21.337 19.806 21.334 19.857C21.2714 19.705 21.217 19.5498 21.171 19.392C21.164 19.318 21.275 19.241 21.285 19.167H21.282Z" fill="#AAAAAA"/>
<path d="M47.942 49.25C47.7172 48.5824 47.4056 47.9473 47.015 47.361C47.0078 47.3214 47.0091 47.2808 47.019 47.2418C47.0288 47.2028 47.0469 47.1664 47.072 47.135C46.9871 46.8778 46.889 46.6251 46.778 46.378C46.699 46.252 46.641 46.244 46.505 46.047C46.344 45.855 46.294 45.856 46.211 45.717C45.917 45.231 45.938 44.823 45.603 44.291L45.219 43.691L45.019 43.365L44.928 43.198C44.91 43.161 44.918 43.174 44.915 43.159C44.9114 43.0978 44.9034 43.037 44.891 42.977C44.8729 42.8712 44.8616 42.7643 44.857 42.657C44.5237 41.709 44.1923 40.7637 43.863 39.821L42.063 37.652L41.963 37.662C41.6302 37.6871 41.2961 37.6888 40.963 37.667L40.457 37.652H40.205C40.1613 37.6515 40.1175 37.6535 40.074 37.658L37.6 37.908C37.658 37.917 37.381 37.899 37.23 37.891L36.678 37.86C36.286 37.839 35.846 37.779 35.389 37.719L34.697 37.634L34.349 37.601L33.833 37.565L33.512 37.61L33.333 37.643L33.018 37.718C32.8189 37.7705 32.6249 37.8405 32.438 37.927C32.3835 37.9199 32.3311 37.9017 32.2839 37.8735C32.2368 37.8453 32.196 37.8077 32.164 37.763C31.8054 37.8519 31.4422 37.9214 31.076 37.971L30.508 38.039L30.224 38.066L30.082 38.078C30.0711 38.0802 30.0599 38.0802 30.049 38.078L29 38.007C28.668 37.983 28.62 37.933 28.332 37.907C27.674 37.978 26.991 37.862 26.332 37.95L25.651 37.839C25.1761 37.9053 24.6963 37.93 24.217 37.913L22.017 37.771L22 37.954L21.9 37.942C21.605 38.221 21.3 38.542 21.01 38.882L20.67 39.282L20.27 39.771L20 40.525C19.942 40.686 19.883 40.844 19.818 40.996C19.649 41.391 19.429 41.636 19.249 42.005C18.649 43.805 17.986 45.582 17.219 47.305C16.979 47.859 16.865 48.667 16.589 49.133L16.523 49.249C16.513 49.257 16.509 49.268 16.469 49.349L16.397 49.524C16.343 49.6655 16.2761 49.8018 16.197 49.931C16.09 50.11 15.851 50.22 15.724 50.426C15.671 50.513 15.571 50.656 15.489 50.799C15.954 51.199 16.413 51.589 16.681 51.815L17.745 52.348L18.495 52.711C18.59 52.524 18.695 52.34 18.795 52.157C19.0856 51.7183 19.3439 51.2591 19.568 50.783L19.812 50.135C19.867 49.985 20.045 49.919 20.125 49.7C20.7707 48.1282 21.3334 46.5237 21.811 44.893C21.918 44.486 22.378 43.921 22.618 43.373C22.752 43.073 22.882 42.737 23.009 42.393L23.198 41.871L23.285 41.622C23.294 41.575 23.252 41.616 23.314 41.535L23.409 41.41C23.4163 41.3816 23.4274 41.3544 23.442 41.329C23.4654 41.3239 23.4898 41.3282 23.51 41.341C23.537 41.346 23.481 41.351 23.574 41.358L23.802 41.379C24.102 41.41 24.408 41.442 24.707 41.45C25.615 41.403 26.502 41.398 27.393 41.406H28.734L30.203 41.373L30.387 41.346C31.279 41.185 32.245 41.372 33.148 41.246C33.294 41.226 33.448 41.195 33.596 41.16L33.824 41.106C33.915 41.087 33.854 41.082 33.879 41.07C33.82 41.043 34.079 41.043 34.234 41.046C35.0232 41.2314 35.8288 41.3386 36.639 41.366C36.7728 41.367 36.9065 41.3583 37.039 41.34C37.2169 41.3126 37.3971 41.3025 37.577 41.31L37.862 41.276C37.9115 41.2707 37.9613 41.2684 38.011 41.269C38.7671 41.3266 39.5266 41.3223 40.282 41.256C40.557 41.226 40.457 41.225 40.482 41.214C40.4911 41.2051 40.5016 41.1977 40.513 41.192C40.5195 41.1938 40.5255 41.197 40.5307 41.2013C40.5358 41.2056 40.54 41.211 40.543 41.217C40.513 41.181 40.617 41.317 40.701 41.43C40.759 41.506 40.749 41.504 40.749 41.504C40.747 41.6074 40.7588 41.7107 40.784 41.811L40.94 41.788C41.071 42.224 41.2 42.656 41.328 43.088L41.792 44.532L43.457 47.542L44.189 49.288C44.433 49.9 44.689 50.507 44.871 51.144C44.9253 51.1743 44.9869 51.1892 45.049 51.187C45.1666 51.7561 45.3478 52.3103 45.589 52.839C45.979 52.519 46.379 52.189 46.771 51.915C46.884 51.837 47.085 51.696 47.043 51.729L47.725 51.096C47.6823 51.0479 47.6315 51.0077 47.575 50.977C47.5614 50.9705 47.5497 50.9605 47.5411 50.948C47.5325 50.9356 47.5273 50.9211 47.526 50.906C47.5274 50.846 47.5435 50.7873 47.573 50.735C47.606 50.698 47.765 50.706 47.799 50.664C47.821 50.637 47.744 50.502 47.754 50.482C47.764 50.462 47.829 50.441 47.838 50.46C47.859 50.505 47.847 50.689 47.862 50.729C47.877 50.769 47.882 50.76 47.906 50.764C47.93 50.768 47.983 50.707 48.013 50.701C48.0165 50.7419 48.0165 50.7831 48.013 50.824L48.346 50.515C48.216 50.1 48.078 49.673 47.942 49.25ZM18.088 46.689C18.076 46.698 18.016 46.652 18.019 46.638C18.0482 46.5977 18.0817 46.5608 18.119 46.528C18.1218 46.5262 18.125 46.5253 18.1282 46.5255C18.1315 46.5256 18.1347 46.5267 18.1373 46.5287C18.1399 46.5306 18.1418 46.5333 18.1429 46.5364C18.1439 46.5395 18.1439 46.5429 18.143 46.546C18.1293 46.5953 18.1109 46.6432 18.088 46.689ZM18.438 45.941C18.4172 45.9445 18.3959 45.9428 18.3758 45.9362C18.3558 45.9296 18.3377 45.9182 18.323 45.903C18.315 45.891 18.37 45.816 18.381 45.803C18.392 45.79 18.44 45.803 18.45 45.803C18.46 45.803 18.476 45.811 18.474 45.824C18.472 45.837 18.451 45.937 18.438 45.941ZM19.312 46.089C19.2682 46.0983 19.2228 46.0962 19.18 46.083C19.1967 46.0355 19.2229 45.992 19.257 45.955C19.2888 45.9499 19.3213 45.957 19.348 45.975C19.3456 46.0154 19.3332 46.0545 19.312 46.089ZM19.812 45.389C19.801 45.408 19.774 45.343 19.785 45.322L19.968 45.016C19.974 45.006 19.997 45.023 19.992 45.033L19.812 45.389ZM21.441 42.651C21.4154 42.6673 21.3863 42.6772 21.356 42.68C21.3778 42.636 21.4035 42.5942 21.433 42.555C21.4432 42.5856 21.4466 42.618 21.443 42.65L21.441 42.651ZM21.497 42.388C21.454 42.288 21.488 42.248 21.502 42.141C21.502 42.124 21.536 42.067 21.542 42.076C21.5657 42.1013 21.5833 42.1316 21.5936 42.1647C21.6038 42.1978 21.6063 42.2328 21.601 42.267C21.6 42.305 21.518 42.348 21.5 42.387L21.497 42.388ZM23.097 39.088C22.9543 39.0829 22.8122 39.0665 22.672 39.039C22.645 39.039 22.641 38.985 22.672 38.982L23.298 38.935C23.369 38.935 23.45 38.957 23.52 38.961C23.379 38.984 23.231 39.073 23.1 39.084L23.097 39.088ZM26.269 40.688C26.1921 40.6808 26.1157 40.6695 26.04 40.654C26.0881 40.6091 26.1385 40.5667 26.191 40.527C26.22 40.51 26.219 40.527 26.235 40.527C26.251 40.527 26.297 40.58 26.296 40.598C26.295 40.616 26.31 40.674 26.274 40.682L26.269 40.688ZM27.461 38.43C27.447 38.43 27.428 38.376 27.44 38.366C27.4801 38.3465 27.5229 38.3334 27.567 38.327C27.6063 38.3263 27.6453 38.333 27.682 38.347C27.698 38.357 27.763 38.404 27.742 38.417C27.6531 38.4486 27.5564 38.4511 27.466 38.424L27.461 38.43ZM28.914 40.712C28.9194 40.6731 28.9278 40.6347 28.939 40.597C29.01 40.639 29.029 40.669 29.024 40.731C29.028 40.741 28.926 40.719 28.919 40.706L28.914 40.712ZM29.474 40.775C29.4135 40.7593 29.354 40.7395 29.296 40.716C29.285 40.706 29.329 40.663 29.346 40.666C29.3934 40.6889 29.4389 40.7157 29.482 40.746C29.5 40.75 29.5 40.772 29.479 40.769L29.474 40.775ZM29.768 39.706C29.747 39.706 29.604 39.7 29.582 39.671C29.56 39.642 29.59 39.534 29.582 39.489C29.6248 39.5018 29.6619 39.529 29.687 39.566C29.714 39.602 29.771 39.655 29.781 39.675C29.791 39.695 29.793 39.7 29.773 39.7L29.768 39.706ZM29.911 39.474C29.8735 39.4759 29.836 39.4698 29.801 39.456C29.796 39.447 29.845 39.383 29.857 39.377C29.8827 39.3731 29.9089 39.3773 29.932 39.389C29.9338 39.4163 29.9283 39.4436 29.916 39.468L29.911 39.474ZM30.016 38.858C29.9748 38.8842 29.9309 38.906 29.885 38.923C29.8834 38.8842 29.8928 38.8457 29.912 38.812C29.9487 38.8099 29.9855 38.8154 30.02 38.828C30.03 38.826 30.029 38.843 30.021 38.852L30.016 38.858ZM31.13 40.07C31.0927 40.0754 31.0547 40.0737 31.018 40.065C31.0118 40.027 31.0156 39.9881 31.029 39.952C31.0658 39.9768 31.0993 40.0061 31.129 40.039C31.143 40.05 31.141 40.068 31.13 40.07ZM32.3 38.491C32.286 38.496 32.263 38.47 32.264 38.462C32.273 38.4389 32.2882 38.4188 32.308 38.404C32.3444 38.3972 32.3817 38.3972 32.418 38.404C32.3818 38.4371 32.3423 38.4662 32.3 38.491ZM32.412 38.177C32.402 38.177 32.412 38.097 32.421 38.092C32.4688 38.0853 32.5172 38.0853 32.565 38.092C32.5184 38.1253 32.4684 38.1538 32.416 38.177H32.412ZM32.896 39.044C32.935 38.999 32.954 38.896 32.996 38.866C33.038 38.836 33.107 38.877 33.155 38.86C33.0971 38.9521 33.0057 39.0181 32.9 39.044H32.896ZM34.537 38.123C34.595 38.106 34.658 38.21 34.716 38.214C34.577 38.26 34.439 38.314 34.298 38.347C34.261 38.357 34.219 38.324 34.18 38.324C34.2961 38.2497 34.4167 38.1826 34.541 38.123H34.537ZM34.395 38.565C34.3406 38.5905 34.2831 38.609 34.224 38.62C34.199 38.625 34.193 38.62 34.181 38.61C34.169 38.6 34.126 38.527 34.134 38.51C34.1602 38.4779 34.1948 38.4536 34.234 38.44C34.2854 38.4406 34.3361 38.4519 34.383 38.473C34.3936 38.4855 34.4008 38.5006 34.4038 38.5167C34.4068 38.5329 34.4055 38.5495 34.4 38.565H34.395ZM34.617 38.417C34.629 38.409 34.617 38.333 34.646 38.336C34.675 38.339 34.819 38.345 34.827 38.38C34.835 38.415 34.693 38.447 34.621 38.417H34.617ZM35.24 39.326C35.219 39.326 35.203 39.326 35.2 39.317C35.2013 39.2871 35.2099 39.2579 35.225 39.232C35.2514 39.2205 35.2804 39.2164 35.309 39.22C35.327 39.226 35.409 39.29 35.401 39.3C35.3498 39.3143 35.2971 39.323 35.244 39.326H35.24ZM36.068 39.926C36.0269 39.9421 35.9839 39.9528 35.94 39.958C35.9033 39.9482 35.8691 39.9304 35.84 39.906C35.84 39.897 35.905 39.867 35.93 39.865C35.9802 39.871 36.0297 39.8813 36.078 39.896C36.094 39.905 36.086 39.922 36.072 39.928L36.068 39.926ZM36.415 39.576C36.3499 39.5935 36.2824 39.6006 36.215 39.597C36.189 39.597 36.138 39.565 36.145 39.551C36.1802 39.4827 36.2257 39.4203 36.28 39.366C36.3314 39.3583 36.3838 39.3701 36.427 39.399C36.4421 39.4581 36.4393 39.5204 36.419 39.578L36.415 39.576ZM36.556 38.376C36.5611 38.3384 36.5716 38.3017 36.587 38.267C36.594 38.267 36.644 38.328 36.642 38.337C36.6184 38.3577 36.5903 38.3727 36.56 38.381L36.556 38.376ZM36.876 38.584C36.9237 38.5978 36.9694 38.6177 37.012 38.643C37.017 38.652 36.942 38.684 36.925 38.684C36.8889 38.6726 36.8551 38.655 36.825 38.632C36.822 38.628 36.862 38.588 36.88 38.589L36.876 38.584ZM37.11 39.048C37.0471 39.0497 36.9842 39.0457 36.922 39.036C36.912 39.03 37 38.973 37.016 38.968C37.042 38.9674 37.0679 38.9722 37.092 38.982C37.1059 38.991 37.1165 39.0044 37.122 39.02C37.126 39.032 37.136 39.052 37.114 39.053L37.11 39.048ZM37.94 40.048C37.8906 40.0704 37.8359 40.0787 37.782 40.072L37.582 39.993C37.5582 39.981 37.5334 39.971 37.508 39.963C37.5 39.963 37.49 39.936 37.522 39.934H37.582C37.6389 39.9155 37.6976 39.9028 37.757 39.896C37.8336 39.8896 37.9107 39.894 37.986 39.909C38.017 39.926 37.965 40.041 37.944 40.055L37.94 40.048ZM39.186 37.941C39.2368 37.9409 39.2868 37.9529 39.332 37.976C39.2853 38.0216 39.2307 38.0586 39.171 38.085C39.1188 38.0774 39.0697 38.0556 39.029 38.022C39.078 37.9882 39.1325 37.9631 39.19 37.948L39.186 37.941ZM38.538 39.799C38.5304 39.8301 38.5149 39.8586 38.493 39.882C38.4666 39.8571 38.4449 39.8276 38.429 39.795C38.467 39.7911 38.5055 39.7948 38.542 39.806L38.538 39.799ZM38.47 40.514C38.4547 40.4876 38.4452 40.4583 38.442 40.428C38.4775 40.4446 38.511 40.4651 38.542 40.489C38.552 40.5 38.482 40.526 38.474 40.521L38.47 40.514ZM38.663 38.292C38.8106 38.2722 38.9592 38.2599 39.108 38.255C39.159 38.255 39.142 38.355 39.182 38.374C39.036 38.374 38.875 38.395 38.738 38.383C38.7 38.386 38.7 38.315 38.667 38.3L38.663 38.292ZM40.138 40.555C39.9233 40.5388 39.7108 40.6073 39.546 40.746C39.511 40.777 39.446 40.811 39.421 40.801C39.304 40.761 39.321 40.747 39.311 40.649C39.1803 40.6038 39.0394 40.5972 38.905 40.63C38.893 40.63 38.873 40.638 38.866 40.63C38.867 40.6002 38.8697 40.5705 38.874 40.541C39.0892 40.4931 39.312 40.491 39.528 40.535C39.5892 40.4109 39.6695 40.2971 39.766 40.198C39.8299 40.2408 39.902 40.27 39.9777 40.2837C40.0534 40.2975 40.1311 40.2956 40.206 40.278C40.1713 40.3155 40.147 40.3615 40.1358 40.4114C40.1246 40.4613 40.1267 40.5132 40.142 40.562L40.138 40.555ZM43.415 40.205C43.415 40.228 43.344 40.351 43.33 40.336C43.3043 40.2714 43.2849 40.2044 43.272 40.136C43.2566 40.115 43.2439 40.0921 43.234 40.068C43.234 40.048 43.367 40.068 43.383 40.081C43.4067 40.1206 43.4192 40.1659 43.419 40.212L43.415 40.205ZM43.241 39.593C43.27 39.6247 43.2943 39.6604 43.313 39.699C43.313 39.714 43.241 39.734 43.228 39.731C43.215 39.728 43.196 39.697 43.19 39.678C43.18 39.6378 43.1753 39.5964 43.176 39.555C43.184 39.55 43.231 39.586 43.245 39.6L43.241 39.593ZM41.841 40.343C41.8421 40.3887 41.8373 40.4344 41.827 40.479C41.827 40.493 41.808 40.502 41.8 40.494C41.792 40.486 41.738 40.413 41.742 40.399C41.7718 40.3738 41.8076 40.3569 41.846 40.35L41.841 40.343ZM41.541 40.143C41.556 40.224 41.561 40.22 41.518 40.279C41.511 40.289 41.493 40.233 41.486 40.231C41.479 40.229 41.438 40.276 41.441 40.264C41.4481 40.2377 41.4615 40.2135 41.4799 40.1935C41.4984 40.1735 41.5214 40.1582 41.547 40.149L41.541 40.143ZM41.552 41.6C41.5348 41.5027 41.4935 41.4113 41.432 41.334C41.4257 41.3211 41.4239 41.3065 41.427 41.2925C41.4301 41.2785 41.4378 41.266 41.449 41.257C41.458 41.242 41.577 41.334 41.593 41.388C41.6107 41.4624 41.5981 41.5408 41.558 41.606L41.552 41.6ZM41.636 41.077L41.536 41.083H41.528C41.528 41.083 41.587 41.054 41.617 41.042H41.632C41.644 41.041 41.651 41.08 41.642 41.083L41.636 41.077ZM41.62 40.336C41.625 40.324 41.655 40.336 41.662 40.35C41.669 40.364 41.645 40.419 41.654 40.444C41.707 40.577 41.737 40.622 41.854 40.65C41.879 40.655 41.899 40.719 41.9 40.726C41.901 40.733 41.864 40.762 41.849 40.753C41.772 40.7183 41.7085 40.6594 41.6682 40.5851C41.6279 40.5109 41.6131 40.4255 41.626 40.342L41.62 40.336ZM41.82 41.474C41.8261 41.444 41.8399 41.4161 41.86 41.393C41.868 41.393 41.901 41.45 41.906 41.46C41.911 41.47 41.921 41.496 41.913 41.498C41.8829 41.4969 41.8531 41.4908 41.825 41.48L41.82 41.474ZM42.431 41.499C42.437 41.499 42.431 41.488 42.431 41.488C42.431 41.488 42.371 41.425 42.353 41.44C42.2829 41.5372 42.2436 41.6532 42.24 41.773C42.24 41.782 42.215 41.789 42.21 41.773L42.032 41.273C41.9961 41.2424 41.9526 41.2222 41.906 41.2146C41.8595 41.207 41.8117 41.2124 41.768 41.23C41.761 41.23 41.752 41.2 41.76 41.194L42.04 41.008C42.048 41.008 42.066 40.996 42.069 41.008C42.084 41.047 42.069 41.208 42.098 41.258C42.127 41.308 42.174 41.358 42.216 41.358C42.258 41.358 42.328 41.241 42.374 41.224C42.447 41.294 42.451 41.295 42.414 41.378C42.4136 41.415 42.4194 41.4519 42.431 41.487L42.456 41.497C42.424 41.47 42.681 41.491 42.68 41.45C42.68 41.428 42.618 41.35 42.626 41.302C42.634 41.254 42.718 41.174 42.737 41.122C42.737 41.179 42.673 41.237 42.688 41.295C42.714 41.395 42.807 41.495 42.841 41.595C42.7097 41.5743 42.5808 41.5408 42.456 41.495L42.431 41.499ZM42.711 44.865C42.68 44.872 42.661 44.826 42.647 44.806C42.6214 44.775 42.6057 44.737 42.602 44.697C42.6216 44.6391 42.6537 44.5861 42.696 44.542C42.722 44.533 42.807 44.593 42.827 44.615C42.847 44.637 42.899 44.736 42.887 44.756C42.8384 44.8056 42.7802 44.8447 42.716 44.871L42.711 44.865ZM43.202 44.122C43.17 44.0886 43.1428 44.0509 43.121 44.01C43.121 43.997 43.193 43.978 43.205 43.986C43.2288 44.0216 43.2467 44.0608 43.258 44.102C43.262 44.119 43.22 44.136 43.207 44.128L43.202 44.122ZM43.375 43.794C43.3279 43.755 43.2862 43.71 43.251 43.66C43.236 43.64 43.231 43.631 43.243 43.618C43.2744 43.5911 43.3118 43.5723 43.352 43.563C43.3925 43.5735 43.4294 43.5946 43.459 43.624C43.4803 43.6679 43.491 43.7162 43.49 43.765C43.4592 43.7904 43.4198 43.8029 43.38 43.8L43.375 43.794ZM44.282 42.83C44.296 42.951 44.328 43.109 44.336 43.219C44.336 43.241 44.286 43.248 44.279 43.23C44.2496 43.1682 44.235 43.1005 44.2364 43.0321C44.2378 42.9637 44.2551 42.8965 44.287 42.836L44.282 42.83ZM43.988 47.069C43.97 47.069 43.924 46.995 43.912 46.976C43.9 46.957 43.856 46.876 43.867 46.876C43.9232 46.8705 43.9799 46.876 44.034 46.892C44.0616 46.9204 44.0786 46.9575 44.082 46.997C44.0609 47.0314 44.0299 47.0586 43.993 47.075L43.988 47.069ZM44.155 47.251C44.1345 47.2541 44.1136 47.2541 44.093 47.251C44.0894 47.245 44.0864 47.2386 44.084 47.232C44.0769 47.2167 44.0738 47.1998 44.075 47.183C44.075 47.164 44.168 47.136 44.181 47.138C44.194 47.14 44.196 47.157 44.201 47.174C44.2027 47.1859 44.2027 47.1981 44.201 47.21C44.1906 47.2282 44.1767 47.2442 44.16 47.257L44.155 47.251ZM44.455 46.498C44.3511 46.4625 44.2609 46.3954 44.197 46.306C44.222 46.2308 44.2266 46.1502 44.2105 46.0726C44.1943 45.995 44.1579 45.923 44.105 45.864C44.2682 46.0052 44.4097 46.1696 44.525 46.352C44.534 46.362 44.551 46.378 44.538 46.39C44.525 46.402 44.5 46.511 44.459 46.5L44.455 46.498ZM44.574 45.509C44.556 45.499 44.502 45.385 44.514 45.373C44.5703 45.3498 44.6314 45.3405 44.692 45.346C44.7178 45.3901 44.7293 45.4411 44.725 45.492C44.6786 45.5113 44.6281 45.5192 44.578 45.515L44.574 45.509ZM45.005 47.226C44.995 47.246 44.913 47.247 44.891 47.262C44.8829 47.2172 44.8903 47.171 44.912 47.131C44.935 47.082 44.952 47.067 44.986 47.077C45.007 47.088 45.018 47.211 45.009 47.232L45.005 47.226ZM45.452 44.796C45.4572 44.8004 45.4613 44.806 45.4641 44.8122C45.4668 44.8184 45.4682 44.8252 45.468 44.832C45.4533 44.8679 45.4269 44.8978 45.3932 44.917C45.3595 44.9362 45.3204 44.9436 45.282 44.938C45.262 44.938 45.203 44.873 45.209 44.844C45.244 44.707 45.329 44.742 45.456 44.8L45.452 44.796ZM45.192 45.357C45.1522 45.3234 45.1219 45.2799 45.104 45.231C45.1058 45.2173 45.1104 45.2041 45.1175 45.1923C45.1246 45.1804 45.1341 45.1702 45.1454 45.1622C45.1567 45.1542 45.1695 45.1487 45.183 45.1459C45.1965 45.1431 45.2105 45.1431 45.224 45.146C45.246 45.146 45.286 45.265 45.285 45.283C45.284 45.301 45.211 45.37 45.2 45.363L45.192 45.357ZM45.392 45.503C45.382 45.503 45.375 45.48 45.375 45.467C45.3798 45.4364 45.3881 45.4066 45.4 45.378C45.408 45.372 45.437 45.392 45.444 45.402C45.451 45.412 45.478 45.46 45.473 45.471C45.4516 45.4886 45.4267 45.5015 45.4 45.509L45.392 45.503ZM45.54 45.535C45.6508 45.5754 45.7723 45.5754 45.883 45.535C45.8978 45.6152 45.8921 45.6979 45.8664 45.7754C45.8407 45.8528 45.7959 45.9225 45.736 45.978L45.54 45.535ZM45.793 49.235C45.793 49.222 45.849 49.235 45.862 49.259C45.875 49.283 45.91 49.401 45.925 49.44C45.8658 49.3869 45.8225 49.3183 45.8 49.242L45.793 49.235ZM45.867 48.583C45.851 48.462 45.839 48.477 45.906 48.405C45.906 48.444 45.958 48.523 45.952 48.553C45.946 48.583 45.889 48.57 45.872 48.59L45.867 48.583ZM46.284 51.683C46.2412 51.5851 46.2038 51.485 46.172 51.383C46.172 51.344 46.272 51.372 46.283 51.345C46.312 51.3975 46.3276 51.4563 46.3287 51.5163C46.3297 51.5762 46.3161 51.6355 46.289 51.689L46.284 51.683ZM46.501 48.204L46.566 48.396C46.488 48.324 46.47 48.314 46.506 48.21L46.501 48.204ZM46.744 48.43C46.72 48.392 46.65 48.33 46.637 48.295C46.6287 48.2417 46.6311 48.1873 46.644 48.135C46.652 48.12 46.734 48.12 46.744 48.147C46.751 48.2432 46.7527 48.3397 46.749 48.436L46.744 48.43ZM47.81 49.862C47.786 49.911 47.765 49.926 47.741 49.968C47.667 49.838 47.654 49.823 47.533 49.812C47.5199 49.7563 47.5231 49.698 47.542 49.644C47.551 49.591 47.513 49.57 47.513 49.523C47.6192 49.61 47.7485 49.6642 47.885 49.679L47.81 49.862Z" fill="#AAAAAA"/>
<path d="M59.977 28.369C59.841 27.677 59.711 27.02 59.584 26.369C59.535 26.108 59.484 25.855 59.44 25.604C59.391 25.286 59.34 24.972 59.296 24.659L59.063 24.068L58.911 23.656L58.618 22.836L58.329 22.02L58 21.141L57.734 20.607L57.491 20.143C57.324 19.835 57.147 19.528 56.957 19.223C56.803 18.977 56.609 18.957 56.446 18.73C56.032 18.888 55.504 18.584 55.093 18.702C55.007 18.727 55.111 18.914 55.062 18.954C54.595 19.342 53.901 19.154 53.533 19.714C53.5 19.698 53.45 19.559 53.42 19.566C53.303 19.595 53.269 19.718 53.244 19.873L53.96 21.312L54.685 22.701L55.961 25.601L55.969 25.607L55.975 25.618L56.012 25.83L56.084 26.267L56.215 27.131L56.435 28.731C56.451 29.631 56.494 31.044 56.577 32C56.5816 32.0509 56.5816 32.1021 56.577 32.153V32.398C56.586 33.31 56.595 34.306 56.604 35.264V35.283L56.585 35.414L56.547 35.676L56.466 36.192L56.284 37.192L56.034 38.427L54.9 41.434C54.122 42.963 53.352 44.478 52.568 46.017C52.436 46.273 52.2908 46.5221 52.133 46.763L51.903 47.107L51.845 47.192C51.832 47.207 51.832 47.2 51.825 47.205L51.794 47.214H51.762C51.762 47.207 51.745 47.214 51.68 47.268L51.38 47.52C51.1742 47.699 50.9798 47.8907 50.798 48.094C50.212 48.751 49.581 49.381 48.927 49.994L48.367 50.514L48.034 50.823L47.741 51.095L47.059 51.728C47.101 51.695 46.9 51.836 46.787 51.914C46.395 52.188 45.995 52.514 45.605 52.838C45.234 53.138 44.872 53.438 44.535 53.667L44.521 53.674C44.496 53.683 44.529 53.663 44.457 53.692L44.257 53.765L43.857 53.901C43.591 53.989 43.326 54.077 43.057 54.186L41.54 54.918L38.478 55.899L36.503 56.194C35.796 56.303 35.085 56.402 34.385 56.578C34.174 56.626 33.985 56.522 33.674 56.591L31.939 56.97L27.524 56.532C27.192 56.4853 26.865 56.4083 26.547 56.302L25.977 56.134L25.687 56.055C25.566 56.026 25.641 56.033 25.606 56.024L25.598 56.018C25.598 56.018 25.59 56.01 25.585 56.009L25.452 55.95L25.178 55.831L24.611 55.593L23.424 55.119C22.611 54.819 21.824 54.459 21.103 54.119C20.382 53.779 19.703 53.353 19.003 52.96L18.49 52.712L17.74 52.349L16.676 51.816C16.408 51.59 15.949 51.195 15.484 50.8C15.019 50.405 14.576 50.03 14.284 49.8C14.2621 49.7818 14.243 49.7606 14.227 49.737L14.063 49.537L13.728 49.127C12.987 48.233 12.457 47.003 11.685 46.066C11.293 45.582 10.785 45.103 10.38 44.623C10.339 44.56 10.328 44.536 10.335 44.536V44.508C10.375 44.549 10.274 44.252 10.199 44.03C10.124 43.808 10.037 43.575 9.95799 43.351C9.78899 42.901 9.60499 42.456 9.40199 42.015C9.14958 41.5918 8.9251 41.1525 8.72999 40.7C8.59999 40.262 8.47699 39.853 8.35899 39.454L8.16699 38.854L8.00799 38.405L7.95699 38.152L7.65699 36.677L7.51699 35.925L7.40499 35.245L7.37599 34.534C7.37599 34.276 7.37599 34.016 7.36799 33.751C7.31399 33.739 7.26299 33.736 7.20999 33.727C7.17999 33.156 7.15099 32.589 7.12099 32.027C7.24499 30.957 7.36799 29.892 7.49199 28.827L8.20299 25.527L8.59999 23.833L8.80499 22.991L8.91099 22.571L8.95799 22.387L8.96799 22.37C8.98499 22.345 8.96099 22.4 9.01099 22.31L9.15699 22.049L9.45199 21.53C9.44924 21.4582 9.42561 21.3886 9.38399 21.33C9.58224 21.0479 9.76484 20.7551 9.93099 20.453L10.194 19.963L10.323 19.71C10.379 19.6 10.343 19.665 10.357 19.632L11.776 17.791C12.615 16.769 13.817 15.655 14.376 14.801L14.527 14.566C14.595 14.466 14.547 14.519 14.563 14.492C14.5656 14.4835 14.5704 14.4759 14.577 14.47L14.714 14.345L14.983 14.115L15.5 13.703C15.838 13.441 16.169 13.192 16.517 12.877L16.806 12.612L16.942 12.485C16.9713 12.4619 16.9981 12.4357 17.022 12.407L17.949 11.664C18.276 11.413 18.615 11.164 19.009 10.917C18.9875 10.8165 18.9454 10.7216 18.8854 10.6383C18.8253 10.555 18.7485 10.4851 18.66 10.433C18.841 10.363 18.905 10.483 19.092 10.398C19.1702 10.3606 19.2457 10.3179 19.318 10.27C19.3439 10.2559 19.3706 10.2432 19.398 10.232C19.4156 10.23 19.4334 10.23 19.451 10.232L19.43 10.29C19.493 10.324 19.24 10.59 19.047 10.776C19.247 10.688 19.614 10.448 19.547 10.508C19.459 10.55 19.9 10.379 20.128 10.281L20.899 9.95201C21.599 9.88101 21.93 9.48501 22.699 9.27901C23.226 9.11401 23.756 8.91901 24.287 8.70701L25.087 8.37501L25.724 8.09401L28.808 7.33401L29.444 7.29001L30.206 7.25301C30.268 7.16701 30.256 7.17501 30.206 7.09501C30.275 7.09501 30.412 7.01401 30.468 7.02601C30.568 7.04701 30.521 7.08701 30.531 7.13901C30.7968 7.17348 31.0661 7.17045 31.331 7.13001L31.746 7.06601C31.8 7.05601 31.917 7.03901 31.918 7.03401L31.935 7.01401C31.9418 7.00904 31.9492 7.00501 31.957 7.00201C31.949 7.00201 32.001 6.99201 31.998 6.97701C31.995 6.96201 32.05 6.91001 32.01 6.89001C31.9876 6.88171 31.9645 6.87536 31.941 6.87101H31.935L31.942 6.84001C31.9463 6.81733 31.9583 6.79684 31.976 6.78201C31.9827 6.77717 31.9901 6.77346 31.998 6.77101L32.106 6.77801C32.066 6.69801 32.006 6.69201 31.989 6.65801C31.989 6.65801 31.989 6.63401 31.989 6.62901C31.989 6.58301 32.169 6.56601 32.269 6.53701L32.621 6.45801C32.7811 6.54029 32.9453 6.61439 33.113 6.68001C33.131 6.68701 33.119 6.72501 33.096 6.73801C33.0576 6.76038 33.0151 6.77467 32.971 6.78001C32.896 6.79501 32.637 6.77201 32.549 6.80101C32.499 6.81801 32.534 6.91601 32.503 6.94501C33.3743 7.30208 34.2835 7.55874 35.213 7.71001C36.149 7.92001 37.107 8.07701 38.028 8.27501L38.304 8.33501L41.4 9.50001L44.485 10.551C44.504 10.558 44.464 10.514 44.543 10.551L44.833 10.706C45.0068 10.7905 45.1711 10.8934 45.323 11.013C46.049 11.652 46.807 12.2 47.5 12.825L48.566 13.725L49.108 14.165L49.382 14.383L49.495 14.471C49.444 14.4 49.64 14.636 49.763 14.782C50.079 15.158 50.363 15.548 50.641 15.932L51.064 16.503L51.283 16.781C51.351 16.864 51.463 17.002 51.437 16.958H51.444L51.505 17.042L51.639 17.223C51.73 17.341 51.827 17.458 51.929 17.572C51.855 17.615 51.867 17.606 51.879 17.733C52.3161 18.3161 52.7236 18.9209 53.1 19.545C53.2565 19.5373 53.4134 19.5464 53.568 19.572C53.608 19.541 53.646 19.507 53.689 19.48C53.6081 19.4054 53.5446 19.3139 53.503 19.212C53.5657 19.2324 53.6271 19.2564 53.687 19.284C53.7249 19.3209 53.7537 19.3661 53.771 19.416V19.438C53.8194 19.4081 53.8698 19.3817 53.922 19.359L54.049 19.185C54.0377 19.1736 54.0288 19.16 54.023 19.145C54.023 19.131 54.053 19.136 54.084 19.137L54.136 19.067C54.1049 18.9623 54.0616 18.8616 54.007 18.767C53.998 18.749 54.007 18.682 54.033 18.697C54.0996 18.7535 54.1614 18.8154 54.218 18.882L54.243 18.917C54.6305 18.3393 55.0653 17.7948 55.543 17.289C55.206 16.756 54.872 16.225 54.561 15.689L54.383 15.402L54.166 15.075L53.935 14.813L53.758 14.613C53.639 14.478 53.517 14.332 53.389 14.156C53.016 13.6343 52.6709 13.0932 52.355 12.535L52.192 12.371L51.93 12.083C51.6 11.84 51.475 11.772 51.305 11.663L50.805 11.346C50.118 10.4615 49.2231 9.76044 48.2 9.30501L47.573 8.69401L46.5 8.30001C46.4941 8.21077 46.4667 8.12429 46.42 8.04801C46.479 8.00801 46.461 8.01701 46.563 8.03101C46.591 8.03101 46.607 7.97501 46.613 7.95901L46.03 7.57001C45.43 7.40101 45.23 7.38401 44.897 7.31201C44.6447 7.26557 44.396 7.20107 44.153 7.11901C43.71 6.94501 43.916 6.86901 43.597 6.71301L42.773 6.66201C42.618 6.56201 42.599 6.45001 42.421 6.34801C41.9376 6.12396 41.4322 5.9507 40.913 5.83101C40.413 5.67801 40.064 5.29201 39.527 5.28001C39.4314 5.22381 39.331 5.17629 39.227 5.13801C39.1469 5.11885 39.0652 5.10681 38.983 5.10201C38.9494 5.10415 38.9171 5.11596 38.89 5.13601C38.8657 5.16253 38.8486 5.19485 38.8404 5.22987C38.8321 5.26489 38.833 5.30144 38.843 5.33601C38.843 5.36001 38.743 5.35801 38.743 5.34401C38.7277 5.22855 38.7571 5.11162 38.825 5.01701L36.425 4.57301C36.16 4.52701 36.052 4.39401 35.797 4.37301C35.6793 4.38416 35.5624 4.40253 35.447 4.42801C34.509 4.07376 33.5147 3.89184 32.512 3.89101C32.418 3.85901 32.212 3.81201 32.062 3.77401L31.04 3.76401C30.754 3.76401 30.463 3.77401 30.168 3.78901L29.278 3.85301L28.269 3.95301L27.869 4.06001L27.584 4.14101L27.021 4.30801L25.946 4.64801L24.98 4.71501L24.616 4.80701L23.378 5.36301L22.272 5.84401C21.547 6.18801 20.818 6.49601 20.145 6.89601C19.8876 6.98633 19.6177 7.0356 19.345 7.04201L18.734 7.22101L18.434 7.31601L17.914 7.49601L17.014 8.13401L16.314 8.65301L15.629 9.18501L14.911 9.76501L14.424 10.238L13.995 10.672L13.095 11.349L12.662 11.7L12.13 12.169C11.9732 12.3702 11.8286 12.5806 11.697 12.799C11.591 12.973 11.491 13.153 11.397 13.339C10.9168 13.6768 10.4978 14.0942 10.158 14.573L10.288 14.712C9.48916 15.3849 8.77164 16.1487 8.14999 16.988C7.9792 17.2455 7.83765 17.5212 7.72799 17.81L7.67099 17.841C7.54722 17.9667 7.40891 18.0771 7.25899 18.17C7.04199 18.652 6.79199 19.12 6.53399 19.584L6.14099 20.284C5.97699 20.584 5.81199 20.884 5.64999 21.176L5.45999 21.982L5.33799 22.573C5.26416 22.9663 5.21407 23.3637 5.18799 23.763C5.15353 23.8524 5.0863 23.9254 4.99999 23.967C4.94099 24.315 4.76499 24.667 4.73699 25.009C4.7626 25.3227 4.76861 25.6376 4.75499 25.952C4.61699 26.7 4.30899 27.108 4.16699 27.937L4.10599 28.275L4.05999 28.989L3.99999 29.646C3.96052 30.0754 3.87572 30.4994 3.74699 30.911C3.70999 31.266 3.67299 31.621 3.63599 31.972C3.75199 33.212 3.86765 34.4453 3.98299 35.672C4.08899 36.202 4.19299 36.727 4.29799 37.253C4.39799 37.733 4.30899 38.228 4.39799 38.684L4.52699 39.377C4.83999 40.135 5.13299 40.848 5.42699 41.571C5.70099 42.236 5.97999 42.91 6.30099 43.635C6.45199 43.981 6.60099 44.368 6.75099 44.773L6.97999 45.392L7.30999 46.249L7.89599 47.012C8.04299 47.198 8.19599 47.379 8.34499 47.552C8.62828 47.8827 8.94199 48.186 9.28199 48.458C9.34748 48.5751 9.3664 48.7126 9.33499 48.843C9.77596 49.3173 10.1874 49.8183 10.567 50.343L11.149 51.143L11.809 52.086L12.409 52.645C12.731 52.951 12.748 53.031 13.022 53.301C13.285 53.49 13.535 53.701 13.783 53.919L14.691 54.711C14.9626 54.8589 15.2432 54.9898 15.531 55.103L16.296 55.623C16.8951 55.8586 17.4786 56.1322 18.043 56.442C18.62 56.731 19.181 57.05 19.743 57.394L19.88 57.254C20.837 57.8211 21.8488 58.2902 22.9 58.654C23.1377 58.7644 23.3688 58.8886 23.592 59.026L23.912 59.217C24.0603 59.305 24.214 59.3839 24.372 59.453L24.572 59.533L26.542 59.799L28.279 60.066L32.062 60.572L32.868 60.422C33.655 60.28 34.648 59.879 35.359 59.822C36.07 59.765 36.175 59.646 36.807 59.555C37.079 59.52 37.384 59.631 37.699 59.593C37.934 59.564 38.167 59.523 38.399 59.477L38.746 59.402L38.919 59.363L39.237 59.303L39.544 59.191L39.712 59.122L40.048 58.987C40.717 58.725 41.666 58.746 42.218 58.341C42.355 58.379 42.318 58.458 42.552 58.385L42.839 58.296L43.607 57.928L44.274 57.585C44.719 57.35 45.158 57.103 45.574 56.857C45.761 56.785 45.851 56.804 46.233 56.657L46.433 56.526C47.089 56.086 47.586 55.664 48.141 55.219C48.3405 55.1622 48.5338 55.0855 48.718 54.99L49 54.825L49.14 54.739L49.403 54.562L50.143 53.851C51.125 52.901 52.304 51.705 53.234 50.719C53.4363 50.508 53.6496 50.3077 53.873 50.119L54.188 49.855L54.266 49.79L54.412 49.659L54.712 49.391C54.855 49.14 54.993 48.897 55.133 48.649C55.2265 48.4777 55.3106 48.3014 55.385 48.121C55.467 47.921 55.455 47.699 55.54 47.533C55.779 47.068 56.15 46.805 56.357 46.333C56.608 45.755 56.881 45.189 57.17 44.633L58.107 42.875L58.436 42C58.53 41.753 58.448 41.648 58.491 41.429C58.584 40.956 58.939 40.669 59.102 40.236L59.415 39.374L59.503 38.843L59.558 38.472L59.658 37.729C59.718 37.2357 59.7787 36.7403 59.84 36.243L59.915 36.016L59.955 35.89L60.012 35.67L60.043 35.416L60.067 35.283L60.116 35.016L60.216 34.476V33.296C60.2227 32.8693 60.23 32.44 60.238 32.008C60.151 30.789 60.063 29.563 59.977 28.369ZM54.964 17.457C54.958 17.499 54.979 17.573 54.964 17.575C54.9142 17.5299 54.8702 17.4789 54.833 17.423C54.818 17.4 54.796 17.395 54.807 17.374C54.818 17.353 54.907 17.315 54.931 17.293C54.9564 17.3437 54.9678 17.4004 54.964 17.457ZM54.509 16.546C54.524 16.546 54.609 16.502 54.638 16.532C54.7272 16.6342 54.8069 16.7443 54.876 16.861C54.891 16.897 54.788 16.966 54.754 16.937C54.6658 16.8317 54.584 16.7211 54.509 16.606C54.5 16.592 54.5 16.548 54.509 16.546ZM53.754 17.77C53.786 17.749 53.796 17.605 53.833 17.614C53.87 17.623 53.933 17.787 53.973 17.825C53.9347 17.8317 53.8954 17.8302 53.8577 17.8207C53.8199 17.8113 53.7846 17.794 53.754 17.77ZM54.344 18.542C54.337 18.559 54.284 18.542 54.267 18.532C54.2343 18.4925 54.2071 18.4487 54.186 18.402C54.181 18.38 54.195 18.33 54.21 18.327C54.2553 18.3288 54.2992 18.343 54.337 18.368C54.3497 18.4251 54.3521 18.4841 54.344 18.542ZM53.663 14.872L53.915 15.255L54.115 15.655L54.275 15.992L54.087 16.046C54.0139 15.8039 53.9132 15.5711 53.787 15.352L53.557 15.035L53.663 14.872ZM50.617 14.672C50.617 14.662 50.682 14.672 50.692 14.672C50.7066 14.6819 50.718 14.6958 50.725 14.712C50.725 14.723 50.719 14.789 50.709 14.785C50.6744 14.7525 50.6436 14.7163 50.617 14.677V14.672ZM51.202 15.309C51.193 15.403 51.17 15.495 51.063 15.478C50.956 15.461 50.853 15.337 50.754 15.245C50.7453 15.2402 50.7377 15.2335 50.732 15.2253C50.7263 15.2172 50.7225 15.2078 50.721 15.198C50.714 15.164 50.721 15.049 50.715 14.998L50.895 15.271C50.955 15.144 50.94 14.976 50.995 14.845C51.029 14.975 51.03 15 50.975 15.069C51.056 15.134 51.175 15.201 51.244 15.269C51.264 15.291 51.2 15.293 51.2 15.314L51.202 15.309ZM51.417 15.969C51.403 15.969 51.387 15.939 51.382 15.928C51.377 15.917 51.367 15.876 51.375 15.87C51.4005 15.8632 51.4274 15.8632 51.453 15.87C51.4789 15.8914 51.5 15.9179 51.515 15.948C51.4845 15.9634 51.4511 15.9723 51.417 15.974V15.969ZM53.068 18.264C53.116 18.3 53.246 18.341 53.277 18.382C53.308 18.423 53.286 18.535 53.29 18.562C53.294 18.589 53.31 18.706 53.29 18.678C53.234 18.592 53.133 18.388 53.068 18.269V18.264ZM53.338 19.172C53.3 19.1391 53.2664 19.1014 53.238 19.06C53.23 19.042 53.25 18.987 53.26 18.986C53.27 18.985 53.327 19.042 53.339 19.054C53.3521 19.0671 53.3617 19.0833 53.367 19.101C53.363 19.118 53.352 19.182 53.338 19.177V19.172ZM53.4 14.6C53.417 14.6 53.446 14.621 53.431 14.64C53.3821 14.6871 53.3285 14.729 53.271 14.765C53.261 14.765 53.22 14.684 53.234 14.665C53.2868 14.6375 53.3425 14.6157 53.4 14.6ZM53 17.751C53.0921 17.8108 53.1809 17.8756 53.266 17.945C53.288 18.1 53.176 18.018 53.08 17.996C53.0472 17.9792 53.0201 17.9531 53.002 17.921C53 17.9 52.972 17.742 53 17.751ZM52.77 15.525C52.809 15.54 52.862 15.649 52.904 15.682C52.793 15.702 52.804 15.704 52.671 15.592C52.711 15.589 52.735 15.51 52.774 15.525H52.77ZM52.714 17.72C52.7336 17.769 52.7438 17.8212 52.744 17.874C52.689 17.8342 52.6383 17.7886 52.593 17.738C52.6 17.726 52.707 17.709 52.718 17.72H52.714ZM52.514 14.406C52.5364 14.4547 52.5522 14.5061 52.561 14.559C52.556 14.569 52.467 14.536 52.455 14.517C52.4377 14.462 52.429 14.4047 52.429 14.347C52.44 14.337 52.508 14.387 52.52 14.406H52.514ZM52.352 17.245C52.383 17.266 52.4107 17.2917 52.434 17.321L52.568 17.536C52.581 17.561 52.555 17.567 52.546 17.556C52.478 17.481 52.36 17.356 52.303 17.276C52.293 17.256 52.345 17.24 52.358 17.245H52.352ZM52.22 16.393C52.2263 16.3956 52.232 16.3994 52.237 16.404C52.252 16.42 52.268 16.45 52.263 16.455C52.2226 16.4657 52.1815 16.4737 52.14 16.479H52.131C52.124 16.479 52.121 16.468 52.126 16.462C52.1563 16.4349 52.1899 16.4117 52.226 16.393H52.22ZM52.186 15.705C52.1837 15.7547 52.1747 15.8038 52.159 15.851C52.1294 15.811 52.1058 15.7669 52.089 15.72C52.1204 15.7028 52.157 15.6975 52.192 15.705H52.186ZM52.215 17.39C52.2582 17.4447 52.2957 17.5037 52.327 17.566C52.3455 17.5987 52.3555 17.6355 52.356 17.673C52.351 17.688 52.304 17.738 52.28 17.718C52.1831 17.6394 52.094 17.5517 52.014 17.456C51.988 17.417 52.039 17.315 52.058 17.307C52.077 17.299 52.189 17.36 52.221 17.39H52.215ZM51.984 16.828C52.006 16.928 52.057 17.054 52.011 17.114C51.9583 17.1788 51.8848 17.2233 51.803 17.24C51.76 17.245 51.684 17.069 51.636 17.04C51.681 16.94 51.642 16.785 51.671 16.789C51.7 16.793 51.579 16.636 51.494 16.527C51.522 16.539 51.54 16.451 51.569 16.479C51.657 16.561 51.801 16.718 51.814 16.691C51.827 16.664 51.909 16.758 51.99 16.828H51.984ZM51.584 14.252C51.604 14.274 51.707 14.443 51.719 14.465C51.731 14.487 51.706 14.497 51.698 14.487C51.644 14.421 51.512 14.264 51.476 14.208C51.472 14.186 51.574 14.23 51.594 14.252H51.584ZM51.193 13.723C51.2325 13.8334 51.26 13.9477 51.275 14.064C51.282 14.1386 51.2735 14.2139 51.25 14.285C51.234 14.385 51.161 14.424 51.189 14.553C51.257 14.547 51.323 14.453 51.395 14.473C51.446 14.486 51.51 14.633 51.562 14.673C51.243 14.863 51.009 14.473 50.662 14.149C50.6463 14.138 50.6341 14.1228 50.6268 14.105C50.6195 14.0873 50.6175 14.0679 50.621 14.049C50.621 14.017 50.821 14.12 50.821 14.062C50.7971 13.9199 50.7329 13.7876 50.636 13.681C50.7856 13.7256 50.921 13.8083 51.029 13.921C51.098 13.821 51.103 13.827 51.018 13.654C51.072 13.685 51.182 13.674 51.2 13.723H51.193ZM50.979 12.878C50.979 12.893 50.955 12.994 50.939 12.995C50.8919 12.9699 50.8501 12.936 50.816 12.895C50.816 12.88 50.916 12.841 50.932 12.841C50.9441 12.8405 50.9561 12.8439 50.9663 12.8505C50.9766 12.8571 50.9845 12.8667 50.989 12.878H50.979ZM50.613 12.451C50.629 12.451 50.676 12.405 50.713 12.419C50.75 12.433 50.832 12.519 50.877 12.547C50.764 12.58 50.733 12.565 50.592 12.475C50.592 12.468 50.607 12.455 50.623 12.451H50.613ZM50.5 14.085C50.5803 14.1726 50.6551 14.2652 50.724 14.362C50.737 14.378 50.661 14.31 50.64 14.306C50.5272 14.2755 50.425 14.2142 50.345 14.129C50.326 14.11 50.289 14.029 50.309 14.029C50.3763 14.0319 50.4418 14.0511 50.5 14.085ZM49.926 14.672C49.943 14.672 50.02 14.772 50.018 14.788C50.016 14.804 49.912 14.823 49.898 14.822C49.884 14.821 49.864 14.791 49.864 14.783C49.849 14.7 49.868 14.682 49.921 14.672H49.926ZM48.2 11.136L48.555 11.385L48.418 11.556C48.6821 11.613 48.9492 11.6554 49.218 11.683C49.172 11.811 49.172 11.814 49.329 11.973C49.0066 11.9393 48.6999 11.8167 48.443 11.619C48.428 11.609 48.418 11.629 48.425 11.642L48.615 11.999L48 11.655C48.1031 11.5745 48.2326 11.5356 48.363 11.546C48.3423 11.3983 48.2864 11.2576 48.2 11.136ZM48.254 12.876C48.5844 12.9099 48.9049 13.0088 49.197 13.167C49.29 13.207 49.345 13.332 49.432 13.386C49.0011 13.3253 48.5947 13.1491 48.256 12.876H48.254ZM49.437 12.861C49.417 12.871 49.352 12.832 49.337 12.823C49.322 12.814 49.29 12.805 49.298 12.788C49.306 12.771 49.387 12.658 49.41 12.655C49.433 12.652 49.523 12.727 49.526 12.748C49.529 12.769 49.458 12.852 49.439 12.861H49.437ZM49.758 12.724C49.758 12.737 49.758 12.755 49.739 12.747L49.039 12.339C49.0238 12.3309 49.0105 12.3196 49 12.306C48.9994 12.3005 49.0009 12.2949 49.0043 12.2905C49.0076 12.286 49.0125 12.283 49.018 12.282C49.1217 12.2887 49.2229 12.3166 49.3154 12.3639C49.4079 12.4112 49.4898 12.4769 49.556 12.557C49.613 12.397 49.589 12.357 49.381 12.173C49.475 12.146 49.588 12.159 49.687 12.139C49.7293 12.3313 49.7538 12.5272 49.76 12.724H49.758ZM49.187 11.3C49.193 11.272 49.197 11.263 49.207 11.273C49.278 11.339 49.323 11.473 49.407 11.541C49.579 11.686 49.547 11.704 49.515 11.841L49.228 11.687C49.268 11.694 49.305 11.695 49.345 11.704C49.299 11.639 49.151 11.536 49.128 11.479C49.105 11.422 49.182 11.328 49.187 11.3ZM48.972 10.962C49.0032 11.0038 49.0293 11.0491 49.05 11.097C49.0035 11.0798 48.9595 11.0566 48.919 11.028C48.913 11.017 48.962 10.956 48.972 10.962ZM48.205 9.57701C48.2648 9.57861 48.3243 9.5853 48.383 9.59701C48.3928 9.59857 48.4021 9.60247 48.4101 9.60839C48.4181 9.6143 48.4246 9.62206 48.429 9.63101C48.446 9.67195 48.4551 9.7157 48.456 9.76001C48.4454 9.77041 48.4318 9.77733 48.4172 9.77983C48.4025 9.78233 48.3875 9.7803 48.374 9.77401C48.3076 9.7223 48.2454 9.66546 48.188 9.60401C48.17 9.58201 48.185 9.58001 48.205 9.57701ZM48.526 10.64C48.626 10.702 48.674 10.798 48.765 10.866C48.6135 10.898 48.4558 10.883 48.313 10.823L48.151 10.507C48.2787 10.5432 48.404 10.5876 48.526 10.64ZM47.48 9.28301C47.568 9.28901 47.695 9.34701 47.78 9.30901C47.898 9.43601 47.896 9.42601 47.88 9.53701C47.78 9.49501 47.59 9.45401 47.51 9.41101C47.473 9.39201 47.451 9.28101 47.48 9.28301ZM47.565 10.898C47.629 10.956 47.733 11.086 47.784 11.126C47.835 11.166 47.856 11.067 47.889 11.1C47.9704 11.2026 48.0439 11.3113 48.109 11.425C47.939 11.36 47.72 11.325 47.552 11.265C47.497 11.244 47.385 11.175 47.388 11.142C47.4 11.063 47.527 10.976 47.565 10.9V10.898ZM47.481 12.126C47.3068 12.0695 47.143 11.9851 46.996 11.876V11.61C47.105 11.693 47.167 11.772 47.287 11.856C47.3388 11.8818 47.3836 11.9199 47.4174 11.967C47.4512 12.014 47.4731 12.0686 47.481 12.126ZM47.081 10.739C47.1327 10.7796 47.1797 10.8259 47.221 10.877C47.1543 10.8596 47.0894 10.8362 47.027 10.807C47.003 10.793 46.958 10.731 46.963 10.724C47.0016 10.7207 47.0405 10.7259 47.077 10.739H47.081ZM46.72 11.286L47.209 11.527C47.224 11.534 47.244 11.541 47.25 11.56C47.256 11.579 47.237 11.636 47.238 11.66C47.054 11.549 46.87 11.434 46.702 11.308C46.69 11.3 46.7 11.28 46.716 11.286H46.72ZM46.671 10.36C46.698 10.382 46.671 10.393 46.659 10.388C46.534 10.331 46.34 10.244 46.224 10.181C46.2 10.168 46.24 10.134 46.261 10.136C46.3175 10.1438 46.3727 10.1593 46.425 10.182C46.468 10.208 46.64 10.338 46.667 10.36H46.671ZM45.732 9.76001C45.771 9.76701 45.877 9.92201 45.902 9.95101C45.927 9.98001 45.911 10.02 45.91 10.031C45.909 10.042 45.833 9.96501 45.832 9.98001C45.831 9.99501 45.821 10.116 45.844 10.127C45.867 10.138 45.935 10.039 45.98 10.051C46.025 10.063 46.101 10.143 46.151 10.169C46.051 10.233 46.041 10.232 45.882 10.169C45.866 10.234 45.912 10.318 45.908 10.382C45.908 10.404 45.808 10.363 45.792 10.374C45.7922 10.198 45.7294 10.0277 45.615 9.89401C45.651 9.87801 45.685 9.75601 45.728 9.76301L45.732 9.76001ZM43.478 10.107C43.295 10.063 43.234 10.054 43.141 9.92801C43.192 9.93801 43.269 9.90901 43.316 9.92801C43.3772 9.97067 43.4336 10.02 43.484 10.075C43.5 10.1 43.485 10.112 43.474 10.11L43.478 10.107ZM43.2 9.75601L43.5 9.89001C43.4433 9.89064 43.3871 9.87899 43.3353 9.85586C43.2835 9.83273 43.2374 9.79867 43.2 9.75601ZM43.746 10.164C43.7183 10.1316 43.697 10.0943 43.683 10.054C43.7313 10.0632 43.778 10.079 43.822 10.101C43.83 10.11 43.761 10.168 43.749 10.164H43.746ZM43.769 8.84801C43.7185 8.84686 43.6694 8.83086 43.628 8.80201C43.6741 8.7523 43.7258 8.70802 43.782 8.67001C43.804 8.65701 43.831 8.67001 43.832 8.68701C43.8203 8.74341 43.8 8.79769 43.772 8.84801H43.769ZM43.558 7.91801C43.523 7.89901 43.484 7.78101 43.503 7.77901C43.5999 7.80093 43.6943 7.83241 43.785 7.87301C43.819 7.89101 43.869 7.98501 43.851 7.98601C43.7523 7.97331 43.6551 7.95052 43.561 7.91801H43.558ZM44.963 10.009C44.889 9.97401 44.813 10.004 44.793 9.99301C44.773 9.98201 44.785 9.97901 44.785 9.96601C44.7813 9.95191 44.7813 9.9371 44.785 9.92301C44.7969 9.90743 44.8107 9.89333 44.826 9.88101C44.8367 9.87193 44.85 9.86634 44.864 9.86501C44.9135 9.89085 44.9584 9.92463 44.997 9.96501C45.023 9.98401 45 10.015 44.966 10.009H44.963ZM45.213 10.309C45.1467 10.2894 45.0818 10.265 45.019 10.236C45.006 10.224 45.051 10.165 45.071 10.169C45.1276 10.203 45.1811 10.2418 45.231 10.285C45.248 10.3 45.236 10.313 45.216 10.309H45.213ZM44.769 7.40901L45.169 7.70901L44.531 7.61601C44.475 7.60601 44.444 7.51601 44.464 7.50101C44.5647 7.46349 44.6675 7.4321 44.772 7.40701L44.769 7.40901ZM43.4 7.14401C43.4532 7.10146 43.5199 7.07946 43.588 7.08201C43.649 7.09101 43.668 7.19701 43.767 7.22801C43.866 7.25901 44.108 7.29201 44.229 7.32801C44.256 7.33501 44.329 7.35101 44.329 7.36301C44.2941 7.43629 44.2515 7.50567 44.202 7.57001C44.178 7.59901 44.196 7.64401 44.175 7.62901C44.0241 7.49473 43.8599 7.37612 43.685 7.27501C43.667 7.30101 43.703 7.42001 43.671 7.42601C43.5874 7.41636 43.5069 7.38872 43.435 7.34501C43.3982 7.2849 43.3857 7.21302 43.4 7.14401ZM43.593 7.51301C43.685 7.52201 43.793 7.61301 43.886 7.63601C43.7004 7.68126 43.505 7.66186 43.332 7.58101C43.423 7.57501 43.5 7.50001 43.594 7.51301H43.593ZM43.155 8.05201C43.193 8.07301 43.33 8.09801 43.345 8.12101C43.36 8.14401 43.274 8.20301 43.262 8.22101C43.25 8.23901 43.262 8.28901 43.237 8.27601C43.1 8.18801 43.119 8.15201 43.156 8.05201H43.155ZM43.087 8.39801C43.1656 8.42748 43.2418 8.46292 43.315 8.50401C43.337 8.51801 43.328 8.53101 43.305 8.53401C43.2341 8.53608 43.1632 8.5324 43.093 8.52301C43.061 8.51501 43.005 8.47501 43.005 8.46201C43.005 8.44901 43.055 8.39401 43.088 8.40001L43.087 8.39801ZM42.563 8.25401C42.6251 8.27841 42.685 8.30819 42.742 8.34301C42.758 8.35401 42.751 8.37201 42.731 8.37101C42.6634 8.36366 42.5965 8.35095 42.531 8.33301C42.518 8.32201 42.545 8.25301 42.564 8.25401H42.563ZM40.742 8.82101C40.6931 8.8093 40.6458 8.79184 40.601 8.76901C40.588 8.76101 40.601 8.74801 40.61 8.74001C40.6317 8.72447 40.6556 8.71234 40.681 8.70401C40.6901 8.70378 40.6991 8.70544 40.7076 8.70888C40.716 8.71232 40.7236 8.71747 40.73 8.72401C40.737 8.73501 40.757 8.81601 40.743 8.82101H40.742ZM40.932 7.95001C40.918 7.94401 40.959 7.85001 40.975 7.85001C41.0357 7.87439 41.0932 7.90631 41.146 7.94501C41.0755 7.95533 41.0039 7.95701 40.933 7.95001H40.932ZM41.165 8.81701C41.1408 8.78179 41.1261 8.74087 41.1224 8.69828C41.1187 8.65569 41.1262 8.61287 41.144 8.57401C41.174 8.60641 41.1924 8.64781 41.1963 8.69176C41.2003 8.73572 41.1896 8.77975 41.166 8.81701H41.165ZM42.407 8.93101C42.422 8.94401 42.471 9.06101 42.458 9.06901C42.3931 9.05664 42.3302 9.03544 42.271 9.00601C42.257 8.99301 42.287 8.93101 42.3 8.92401C42.3359 8.91564 42.3735 8.91808 42.408 8.93101H42.407ZM42.302 8.43101C42.2665 8.44569 42.2284 8.45317 42.19 8.45301C42.1754 8.42183 42.1699 8.38718 42.174 8.35301C42.2186 8.37244 42.2609 8.39693 42.3 8.42601L42.302 8.43101ZM40.65 5.91601C40.684 5.89201 40.699 5.86301 40.727 5.87601C40.9242 5.99828 41.1341 6.09887 41.353 6.17601C41.466 6.32001 41.593 6.46501 41.694 6.60801C41.71 6.63101 41.668 6.64501 41.676 6.66701C41.2653 6.53145 40.8757 6.33854 40.519 6.09401C40.558 6.05201 40.617 5.94001 40.65 5.91601ZM39.7 6.96301C39.758 6.95501 39.812 6.96301 39.866 6.96301C39.92 6.96301 39.966 7.00901 40.019 7.01401C39.87 7.07301 39.877 7.09701 39.87 7.22701C39.836 7.19101 39.719 7.12701 39.702 7.09501C39.685 7.06301 39.68 6.96601 39.7 6.96301ZM39.562 6.54401C39.527 6.60501 39.432 6.55401 39.428 6.49201C39.43 6.47201 39.577 6.52401 39.566 6.54401H39.562ZM39.51 7.35601C39.537 7.37001 39.517 7.38301 39.502 7.38601C39.4472 7.39293 39.3918 7.39293 39.337 7.38601C39.313 7.37501 39.216 7.25601 39.232 7.25601C39.3279 7.28368 39.4221 7.31707 39.514 7.35601H39.51ZM39.431 7.85601C39.589 7.93301 39.774 8.00101 39.923 8.08101C39.955 8.09801 39.943 8.13301 39.952 8.15701C39.961 8.18101 39.92 8.21701 39.921 8.24301C39.6997 8.15182 39.4684 8.08704 39.232 8.05001L39.431 7.85601ZM36.681 7.00301C36.536 7.04801 36.447 7.06101 36.368 7.15601C36.3594 7.15743 36.3507 7.1571 36.3423 7.15504C36.3338 7.15298 36.3259 7.14922 36.319 7.14401C36.258 7.03401 36.351 6.99901 36.434 6.91601L36.681 6.97301C36.716 6.98801 36.7 7.00001 36.685 7.00701L36.681 7.00301ZM38.501 7.39301C38.442 7.42901 37.871 7.50301 37.779 7.34801C37.687 7.19301 37.986 7.19201 38.131 7.21001C38.2656 7.24168 38.3957 7.29041 38.518 7.35501C38.53 7.36301 38.547 7.35801 38.505 7.40001L38.501 7.39301ZM37.764 6.92501C37.751 6.92501 37.71 6.91801 37.715 6.91301C37.787 6.83101 37.921 6.77601 37.991 6.68701C38.0207 6.75512 38.0609 6.81821 38.11 6.87401C38.0052 6.92969 37.8849 6.94903 37.768 6.92901L37.764 6.92501ZM38.674 7.19901L38.632 7.17901L38.232 7.06101C38.215 7.05601 38.173 7.06101 38.186 7.04701C38.199 7.03301 38.222 6.91001 38.279 6.92101C38.4136 6.95275 38.5437 7.00147 38.666 7.06601H38.674C38.708 7.10001 38.663 7.17201 38.678 7.20001L38.674 7.19901ZM38.846 5.79001C38.8928 5.7902 38.9391 5.80007 38.982 5.81901C38.9844 5.83425 38.983 5.84987 38.9777 5.86439C38.9725 5.87891 38.9636 5.89185 38.952 5.90201C38.8897 5.90526 38.8272 5.9009 38.766 5.88901C38.7846 5.85012 38.8137 5.81722 38.85 5.79401L38.846 5.79001ZM38.716 6.04501L38.946 6.09601L39.088 6.15001C38.988 6.25801 38.967 6.27901 39.157 6.41101C39.102 6.51101 39.113 6.54001 38.931 6.52601L39.024 6.86301L38.772 6.80101C38.7649 6.78373 38.7602 6.76556 38.758 6.74701C38.6652 6.52568 38.6518 6.2791 38.72 6.04901L38.716 6.04501ZM38.616 6.86401C38.6499 6.86331 38.6837 6.86839 38.716 6.87901C38.7362 6.88676 38.7556 6.89647 38.774 6.90801C38.792 6.92401 38.784 6.99201 38.782 7.00801C38.78 7.02401 38.782 7.04001 38.767 7.03601L38.68 7.00701C38.6485 7.00254 38.6178 6.99344 38.589 6.98001C38.581 6.96401 38.606 6.87601 38.624 6.86801L38.616 6.86401ZM38.331 5.81001C38.342 5.82801 38.3 5.92401 38.298 5.95301C38.184 5.88301 38.157 5.84501 38.186 5.77701C38.194 5.75801 38.32 5.79301 38.331 5.81001ZM37.792 5.35901C37.8462 5.33219 37.9048 5.31558 37.965 5.31001C38.0312 5.33411 38.0935 5.3678 38.15 5.41001C38.167 5.42601 38.15 5.49801 38.128 5.49401C38.0133 5.46777 37.9005 5.43437 37.79 5.39401C37.749 5.37501 37.777 5.36901 37.792 5.35901ZM37.786 5.94101C37.8026 5.95733 37.8137 5.97848 37.8177 6.00145C37.8216 6.02443 37.8182 6.04806 37.808 6.06901C37.79 6.09401 37.638 6.06901 37.596 6.08901C37.6532 6.05788 37.7019 6.01326 37.738 5.95901C37.6464 5.94416 37.5612 5.90279 37.493 5.84001C37.559 5.87301 37.746 5.90701 37.786 5.94101ZM37.799 7.45101C37.7444 7.46171 37.6882 7.46093 37.634 7.44871C37.5798 7.43648 37.5287 7.41308 37.484 7.38001L37.799 7.45101ZM36.442 6.69001C36.41 6.68501 36.342 6.62501 36.36 6.61101C36.395 6.57501 36.599 6.55301 36.637 6.51601C36.675 6.47901 36.611 6.42501 36.628 6.38401L36.985 6.72201C36.8036 6.74638 36.6192 6.73552 36.442 6.69001ZM36.807 4.99001C36.8058 5.04855 36.7922 5.10617 36.767 5.15901C36.756 5.17701 36.667 5.18101 36.661 5.16701C36.6331 5.09686 36.6176 5.02244 36.615 4.94701C36.621 4.92401 36.8 4.97001 36.807 4.98601V4.99001ZM36.522 5.95401C36.5913 5.95254 36.66 5.96799 36.722 5.99901C36.746 6.01801 36.739 6.13001 36.74 6.15201C36.741 6.17401 36.751 6.17901 36.729 6.18401C36.6762 6.19032 36.6228 6.19032 36.57 6.18401C36.535 6.17601 36.37 6.15701 36.37 6.13601C36.4023 6.06103 36.4549 5.99659 36.522 5.95001V5.95401ZM36.071 6.16701C36.1911 6.20332 36.3036 6.26127 36.403 6.33801C36.424 6.36501 36.365 6.40701 36.329 6.41301C36.228 6.41031 36.1276 6.39792 36.029 6.37601C35.989 6.36301 35.982 6.36201 35.981 6.33101C35.98 6.30001 36.055 6.20001 36.071 6.16301V6.16701ZM35.937 6.94801C35.9987 6.98093 36.0553 7.02271 36.105 7.07201C36.0394 7.08653 35.9719 7.09058 35.905 7.08401C35.89 7.07001 35.92 6.94501 35.937 6.94401V6.94801ZM32.3 5.63601C32.1958 5.65322 32.0893 5.65085 31.986 5.62901C31.886 5.63501 31.775 5.62901 31.656 5.62901C31.626 5.62901 31.576 5.58701 31.612 5.57201C31.708 5.54037 31.8058 5.51465 31.905 5.49501L31.992 5.48601C32.0864 5.4999 32.18 5.5196 32.272 5.54501C32.3 5.55101 32.343 5.62701 32.3 5.63601ZM35.406 4.83601C35.427 4.81701 35.493 4.82401 35.514 4.82201C35.5331 4.81863 35.5527 4.82256 35.569 4.83301C35.58 4.84201 35.669 4.89601 35.65 4.90901C35.5632 4.94808 35.4675 4.96294 35.373 4.95201C35.386 4.92401 35.383 4.85501 35.405 4.83601H35.406ZM34.806 6.34901C35.0057 6.36093 35.205 6.32024 35.384 6.23101C35.269 6.17401 35.284 6.19301 35.248 6.11001C35.4309 6.15591 35.5991 6.24742 35.737 6.37601L35.537 6.52201C35.299 6.46101 35.037 6.42201 34.803 6.37801C34.785 6.37501 34.793 6.35101 34.808 6.34901H34.806ZM34.771 6.88001C34.771 6.89301 34.69 6.88001 34.671 6.85901C34.652 6.83801 34.622 6.73101 34.604 6.69701C34.733 6.75601 34.768 6.80001 34.773 6.88001H34.771ZM33.777 5.14501C33.8473 5.13944 33.918 5.14111 33.988 5.15001C34.047 5.15001 34.135 5.18001 34.198 5.18701C34.092 5.25377 33.9681 5.28625 33.843 5.28001C33.83 5.28001 33.795 5.28001 33.793 5.26701C33.791 5.25401 33.748 5.15801 33.779 5.14501H33.777ZM33.267 4.44501C33.2758 4.44291 33.285 4.44263 33.2939 4.44417C33.3028 4.44572 33.3114 4.44907 33.319 4.45401C33.328 4.46201 33.361 4.51001 33.353 4.52101C33.3179 4.53976 33.2801 4.55292 33.241 4.56001C33.225 4.56001 33.195 4.53401 33.197 4.52201C33.2169 4.49306 33.2412 4.46741 33.269 4.44601L33.267 4.44501ZM32.03 4.49301L32.9 4.60001C33.007 4.61401 33.114 4.64001 33.218 4.65901C33.144 4.70301 33.018 4.82901 32.954 4.85301C32.9011 4.8727 32.8429 4.8727 32.79 4.85301C32.76 4.83901 32.828 4.73901 32.816 4.71001C32.5499 4.69387 32.2865 4.64723 32.031 4.57101H31.905C31.874 4.57101 31.864 4.52401 31.834 4.51701L32.03 4.49301ZM31.636 4.78201C31.647 4.77701 31.681 4.77001 31.687 4.78201C31.729 4.85501 31.462 4.89801 31.368 4.92401C31.4517 4.86582 31.5424 4.81845 31.638 4.78301L31.636 4.78201ZM31.375 5.43001C31.4071 5.41889 31.4415 5.41614 31.475 5.42201C31.507 5.44801 31.544 5.50901 31.524 5.53601C31.4586 5.55236 31.3908 5.55642 31.324 5.54801C31.318 5.54101 31.366 5.44201 31.377 5.43101L31.375 5.43001ZM31.322 5.74301C31.4893 5.80769 31.6676 5.83961 31.847 5.83701C31.832 5.90001 31.829 5.96301 31.811 6.02701C31.5776 5.90664 31.3141 5.85728 31.053 5.88501L31.322 5.74301ZM30.189 5.74901L30.567 5.84901L30.136 5.96901C30.21 5.89401 30.192 5.83501 30.191 5.75001L30.189 5.74901ZM29.81 4.92601C29.843 4.9191 29.877 4.9191 29.91 4.92601C29.919 4.93301 29.923 5.00601 29.91 5.01201C29.8603 5.01258 29.8107 5.00585 29.763 4.99201C29.754 4.98101 29.8 4.93301 29.812 4.92701L29.81 4.92601ZM29.11 6.50301C29.171 6.53701 29.31 6.59701 29.31 6.64601C29.31 6.69501 29.136 6.76001 29.11 6.77801C29.1027 6.78508 29.0933 6.78959 29.0832 6.79085C29.0731 6.79211 29.0628 6.79006 29.054 6.78501C29.0258 6.73871 29.0164 6.68337 29.0277 6.63036C29.0391 6.57736 29.0703 6.53071 29.115 6.50001L29.11 6.50301ZM28.203 6.81001C28.103 6.85801 27.889 6.87901 27.803 6.93301C27.75 6.96601 27.839 7.04301 27.81 7.08401L27.317 7.05801C27.353 6.92101 27.473 6.83501 27.577 6.97201C27.829 6.85801 27.769 6.76101 27.752 6.62101C27.752 6.60501 27.825 6.56201 27.852 6.57201C27.963 6.62301 28.098 6.71601 28.206 6.78001C28.215 6.78701 28.221 6.80501 28.208 6.81101L28.203 6.81001ZM27.778 6.04201C27.839 6.01243 27.9062 5.99802 27.974 6.00001C27.983 6.01001 27.908 6.11001 27.897 6.13501C27.817 6.12201 27.772 6.08601 27.783 6.04301L27.778 6.04201ZM27.001 4.47101C27.3075 4.4988 27.6153 4.51015 27.923 4.50501C27.969 4.50501 28 4.56401 28.044 4.57101C27.7871 4.66143 27.5163 4.70578 27.244 4.70201C27.2386 4.65295 27.2306 4.60421 27.22 4.55601C27.209 4.53701 27.183 4.55601 27.169 4.55601C26.99 4.61101 26.964 4.60801 26.903 4.51601C26.9 4.50801 26.974 4.47001 27.006 4.47201L27.001 4.47101ZM26.427 5.48501C26.4317 5.54686 26.4242 5.60903 26.405 5.66801C26.3913 5.67932 26.3749 5.68707 26.3575 5.69055C26.34 5.69404 26.322 5.69317 26.305 5.68801C26.2867 5.63259 26.2789 5.57427 26.282 5.51601C26.3278 5.49113 26.3801 5.48068 26.432 5.48601L26.427 5.48501ZM25.942 5.83401C25.9927 5.82159 26.0441 5.81224 26.096 5.80601C26.126 5.81201 26.21 5.82301 26.206 5.84501C26.1455 5.99288 26.1149 6.15126 26.116 6.31101L25.867 6.39101C25.828 6.40001 25.809 6.41201 25.809 6.40301C25.82 6.22101 25.937 6.02401 25.947 5.83501L25.942 5.83401ZM25.589 5.97301C25.669 5.94941 25.751 5.93301 25.834 5.92401C25.86 5.92401 25.866 5.99601 25.847 6.01001C25.7818 6.03003 25.7148 6.04376 25.647 6.05101C25.6114 6.05537 25.5753 6.05231 25.541 6.04201C25.543 6.03401 25.563 5.98601 25.594 5.97401L25.589 5.97301ZM25.613 6.19001C25.6618 6.17628 25.7116 6.16658 25.762 6.16101C25.776 6.16101 25.79 6.21101 25.762 6.21801C25.6807 6.22918 25.599 6.23618 25.517 6.23901C25.513 6.23701 25.6 6.20001 25.618 6.19101L25.613 6.19001ZM25.43 7.44801C25.441 7.44801 25.399 7.52201 25.373 7.53201C25.3347 7.53526 25.2961 7.53015 25.26 7.51701C25.253 7.51001 25.28 7.48001 25.298 7.46801C25.3365 7.44778 25.3771 7.43169 25.419 7.42001C25.432 7.42201 25.436 7.43901 25.435 7.44901L25.43 7.44801ZM25.373 7.70701C25.273 7.79701 25.295 7.81401 25.173 7.79001L25.373 7.70701ZM25.112 8.11901L25.43 7.92401C25.482 7.89701 25.537 7.87101 25.53 7.88201C25.4716 7.95503 25.4 8.01643 25.319 8.06301C25.2542 8.09498 25.1874 8.12271 25.119 8.14601C25.1 8.15801 25.108 8.12601 25.117 8.12001L25.112 8.11901ZM24.228 6.98701C24.213 6.98701 24.215 6.97001 24.216 6.95901C24.2218 6.93268 24.2316 6.90739 24.245 6.88401C24.255 6.87401 24.283 6.86001 24.294 6.86501C24.305 6.87001 24.372 6.91601 24.365 6.92901C24.3235 6.95392 24.2792 6.97373 24.233 6.98801L24.228 6.98701ZM24.371 7.23101C24.348 7.23901 24.371 7.14001 24.388 7.13101C24.4391 7.11458 24.4936 7.11217 24.546 7.12401C24.575 7.12401 24.654 7.08201 24.64 7.09001C24.6 7.11701 24.42 7.21701 24.376 7.23201L24.371 7.23101ZM24.14 6.69001C24.1954 6.6421 24.2596 6.60542 24.329 6.58201C24.409 6.55701 24.706 6.50101 24.782 6.49201C24.858 6.48301 24.891 6.53001 24.917 6.53501C24.943 6.54001 24.943 6.55901 24.929 6.56501C24.771 6.62801 24.55 6.73401 24.389 6.78201C24.3154 6.79577 24.2397 6.79372 24.167 6.77601C24.1594 6.77245 24.1527 6.76726 24.1473 6.76081C24.142 6.75435 24.1381 6.7468 24.136 6.73868C24.1339 6.73056 24.1336 6.72208 24.1352 6.71384C24.1367 6.7056 24.1401 6.6978 24.145 6.69101L24.14 6.69001ZM24.219 7.71301C24.232 7.78201 24.127 7.81301 24.084 7.76701C24.075 7.75401 24.219 7.69101 24.224 7.71401L24.219 7.71301ZM23.765 7.14801C23.803 7.14682 23.8408 7.15363 23.876 7.16801C23.879 7.20257 23.872 7.23726 23.856 7.26801C23.844 7.28201 23.777 7.31501 23.762 7.30501C23.7388 7.26208 23.7236 7.21533 23.717 7.16701C23.723 7.15401 23.753 7.15001 23.77 7.14901L23.765 7.14801ZM23.611 8.09601C23.6374 8.09298 23.6642 8.09842 23.6874 8.11153C23.7105 8.12465 23.729 8.14477 23.74 8.16901C23.6907 8.18155 23.6406 8.19058 23.59 8.19601C23.584 8.19101 23.591 8.10001 23.616 8.10001L23.611 8.09601ZM21.421 8.54501C21.391 8.54501 21.305 8.51101 21.3 8.49201C21.295 8.47301 21.348 8.39201 21.372 8.37401C21.396 8.35601 21.493 8.31501 21.519 8.32701C21.545 8.33901 21.619 8.45201 21.612 8.48001C21.5543 8.51277 21.4914 8.53511 21.426 8.54601L21.421 8.54501ZM22.503 8.02801C22.312 8.15401 22.092 8.28601 21.883 8.39501C21.8337 8.36484 21.7979 8.31686 21.783 8.26101C22.021 8.18901 22.269 8.08801 22.49 8.00001C22.515 8.00001 22.522 8.02001 22.508 8.02901L22.503 8.02801ZM21.856 7.71101C21.984 7.71801 22.056 7.69601 21.941 7.81101C22.068 7.91101 22.156 7.86401 22.378 7.77201L22.414 7.89401C22.202 7.98001 22.071 8.09401 21.877 8.18901C21.796 8.23201 21.649 8.20801 21.558 8.23901C21.638 8.05901 21.712 7.86901 21.797 7.69901C21.81 7.68601 21.842 7.71101 21.861 7.71201L21.856 7.71101ZM21.3 7.87001C21.3808 7.84644 21.4634 7.82972 21.547 7.82001C21.578 7.82701 21.59 7.92001 21.584 7.93101C21.578 7.94201 21.576 7.94801 21.528 7.94901C21.4221 7.94897 21.3162 7.94296 21.211 7.93101C21.192 7.92801 21.264 7.87901 21.3 7.87001ZM20.617 7.07001C20.631 7.07001 20.636 7.08801 20.625 7.09901C20.5872 7.13652 20.5457 7.17003 20.501 7.19901C20.487 7.19901 20.467 7.12901 20.478 7.11701C20.5213 7.09721 20.5666 7.0818 20.613 7.07101L20.617 7.07001ZM19.741 9.61301C19.766 9.60501 19.884 9.58301 19.892 9.59601C19.8825 9.64898 19.8594 9.69859 19.825 9.74001C19.7761 9.75802 19.7239 9.76519 19.672 9.76101C19.653 9.75501 19.641 9.69201 19.649 9.67601C19.6733 9.64897 19.7034 9.62778 19.737 9.61401L19.741 9.61301ZM19.016 9.88601C18.9903 9.933 18.9595 9.97694 18.924 10.017C18.913 10.017 18.874 9.95401 18.882 9.94301C18.9227 9.9187 18.9664 9.89987 19.012 9.88701L19.016 9.88601ZM18.095 9.67701C18.114 9.66601 18.166 9.64901 18.146 9.67701C18.0727 9.77736 17.9874 9.86837 17.892 9.94801C17.851 9.97101 17.784 9.90501 17.742 9.91001C17.85 9.83901 17.984 9.74201 18.091 9.67801L18.095 9.67701ZM17.633 11.241C17.6856 11.1987 17.7414 11.1606 17.8 11.127C17.82 11.118 17.817 11.139 17.818 11.152C17.819 11.165 17.836 11.241 17.818 11.259C17.7563 11.2879 17.6911 11.3084 17.624 11.32C17.6 11.319 17.612 11.261 17.629 11.242L17.633 11.241ZM17.226 11.213C17.2265 11.2651 17.218 11.3168 17.201 11.366C17.192 11.373 17.101 11.307 17.106 11.295C17.1395 11.2613 17.1788 11.2339 17.222 11.214L17.226 11.213ZM15.853 10.955C15.9091 10.9141 15.9682 10.8777 16.03 10.846C16.064 10.833 16.11 10.876 16.121 10.892C16.1287 10.909 16.1326 10.9274 16.1326 10.946C16.1326 10.9646 16.1287 10.983 16.121 11C16.0774 11.0411 16.0274 11.0749 15.973 11.1C15.9677 11.1032 15.962 11.1055 15.956 11.107C15.925 11.107 15.781 11.048 15.786 11.02C15.782 11.014 15.811 10.987 15.849 10.956L15.853 10.955ZM15.183 12.094C15.3218 12.0096 15.4554 11.9167 15.583 11.816C15.583 11.909 15.583 12.009 15.576 12.099C15.576 12.111 15.544 12.133 15.536 12.131C15.4151 12.1313 15.2948 12.1471 15.178 12.178C15.154 12.178 15.078 12.223 15.084 12.212C15.1105 12.1706 15.1425 12.133 15.179 12.1L15.183 12.094ZM14.466 13.456L14.696 13.315C14.6394 13.3909 14.5555 13.4418 14.462 13.457L14.466 13.456ZM14.456 11.187C14.5083 11.1473 14.565 11.1138 14.625 11.087C14.5625 11.1679 14.4958 11.2453 14.425 11.319C14.413 11.331 14.388 11.284 14.392 11.272C14.4083 11.2415 14.4284 11.2133 14.452 11.188L14.456 11.187ZM13.356 14.956C13.2056 15.1409 13.0109 15.2847 12.79 15.374C12.809 15.352 12.82 15.289 12.84 15.274C12.9908 15.1728 13.1199 15.0426 13.22 14.891C13.248 14.845 13.368 14.838 13.38 14.838C13.392 14.838 13.373 14.93 13.35 14.957L13.356 14.956ZM12.937 12.5L13.237 12.465C13.198 12.485 13.11 12.492 13.081 12.514C13.052 12.536 13.016 12.58 13.017 12.604C13.018 12.628 13.151 12.619 13.154 12.649C13.1409 12.7108 13.1162 12.7695 13.081 12.822C13.065 12.849 13.041 12.87 13.029 12.867C12.859 12.837 12.865 12.694 12.937 12.5ZM12.32 12.359C12.495 12.237 12.607 12.188 12.685 12.217C12.694 12.217 12.711 12.238 12.7 12.243C12.661 12.243 12.456 12.376 12.368 12.414C12.3475 12.4344 12.3254 12.4531 12.302 12.47C12.274 12.489 12.292 12.382 12.32 12.358V12.359ZM12.664 14.699L12.5 14.599C12.5249 14.586 12.5529 14.5801 12.5809 14.5818C12.6089 14.5836 12.6359 14.593 12.659 14.609C12.773 14.468 12.959 14.324 13.059 14.182C13.123 14.082 13.035 14.054 13.035 13.982L13.235 13.751C13.262 13.726 13.268 13.751 13.261 13.766C13.1391 14.0212 13.0472 14.2897 12.987 14.566L12.275 15.288C12.249 15.314 12.183 15.31 12.203 15.288L12.664 14.699ZM12.048 15.548C12.0209 15.5904 11.9871 15.6283 11.948 15.66C11.936 15.66 11.919 15.572 11.92 15.56C11.922 15.5511 11.9262 15.5428 11.9321 15.5359C11.938 15.5289 11.9455 15.5235 11.954 15.52C11.969 15.518 12.049 15.535 12.048 15.547V15.548ZM11.879 14.892C11.9033 14.9275 11.9187 14.9683 11.924 15.011C11.8771 15.0173 11.8295 15.0139 11.784 15.001C11.8085 14.9588 11.8408 14.9214 11.879 14.891V14.892ZM11.479 13.521L11.588 13.636L11.155 14.184C11.171 14.212 11.255 14.275 11.255 14.297C11.255 14.319 11.177 14.421 11.155 14.409C11.108 14.374 11.063 14.252 11.017 14.196C11.16 13.959 11.346 13.757 11.48 13.52L11.479 13.521ZM10.87 15.852C10.881 15.844 10.897 15.852 10.89 15.876C10.8609 15.9399 10.8275 16.0017 10.79 16.061C10.779 16.069 10.759 15.981 10.766 15.961C10.797 15.9207 10.8322 15.8839 10.871 15.851L10.87 15.852ZM10.452 17.4C10.472 17.37 10.512 17.323 10.524 17.325C10.536 17.327 10.552 17.403 10.548 17.425C10.5368 17.4612 10.5192 17.4951 10.496 17.525C10.4651 17.5657 10.4299 17.6029 10.391 17.636C10.375 17.642 10.345 17.617 10.352 17.59C10.3805 17.5243 10.4139 17.4607 10.452 17.4ZM9.08599 19.785C9.02099 19.892 8.95799 20.079 8.89199 20.163C8.85999 20.203 8.82399 20.089 8.79199 20.103C8.89299 19.927 8.94499 19.842 9.08599 19.785ZM6.21799 22.914C6.23199 23.059 6.23999 23.082 6.14299 23.173L6.21799 22.914ZM6.28999 33.822C6.27823 33.8563 6.25873 33.8875 6.23299 33.913C6.21874 33.8811 6.20866 33.8475 6.20299 33.813C6.20299 33.799 6.19599 33.761 6.20299 33.762C6.23549 33.7764 6.265 33.7967 6.28999 33.822ZM6.09999 22.752C6.10406 22.827 6.10406 22.9021 6.09999 22.977C6.07282 23.0404 6.03531 23.0989 5.98899 23.15C5.97399 23.161 5.90899 23.104 5.92199 23.069C5.95099 22.985 6.05099 22.845 6.09999 22.752ZM5.86499 30.041C5.87299 30.03 5.91599 30.041 5.92099 30.06C5.92748 30.1115 5.92748 30.1635 5.92099 30.215C5.91299 30.227 5.84299 30.204 5.83799 30.188C5.84013 30.1379 5.84956 30.0884 5.86599 30.041H5.86499ZM5.65699 27.394C5.67399 27.388 5.77199 27.474 5.77799 27.499C5.77404 27.5658 5.75561 27.631 5.72399 27.69C5.66446 27.666 5.61309 27.6254 5.57599 27.573C5.58893 27.5077 5.61702 27.4464 5.65799 27.394H5.65699ZM5.47599 30.257C5.49299 30.24 5.57099 30.266 5.58999 30.294C5.61519 30.3669 5.63229 30.4424 5.64099 30.519C5.64099 30.553 5.64099 30.566 5.62999 30.575C5.59117 30.5916 5.54812 30.5954 5.50699 30.586C5.47313 30.5491 5.44967 30.5039 5.43899 30.455C5.43944 30.3872 5.45232 30.3201 5.47699 30.257H5.47599ZM4.30699 35.257C4.29699 35.257 4.27899 35.219 4.27599 35.203C4.27039 35.1699 4.27039 35.1361 4.27599 35.103C4.28499 35.093 4.35499 35.103 4.36299 35.114C4.37099 35.125 4.36999 35.151 4.36299 35.166C4.34919 35.2004 4.33068 35.2327 4.30799 35.262L4.30699 35.257ZM4.34199 31L4.46899 30.494C4.47799 30.467 4.52799 30.485 4.52499 30.511C4.52801 30.6913 4.46262 30.866 4.34199 31ZM4.55499 34.866C4.54599 34.883 4.44899 34.817 4.43899 34.803C4.42908 34.7704 4.42908 34.7356 4.43899 34.703C4.44899 34.688 4.54499 34.603 4.55499 34.624C4.56497 34.7034 4.56497 34.7837 4.55499 34.863V34.866ZM4.84399 27.676C4.71899 27.8 4.68299 27.694 4.63499 27.527C4.63372 27.5092 4.63867 27.4916 4.64899 27.477C4.66487 27.4642 4.68334 27.4551 4.70312 27.4502C4.7229 27.4453 4.74351 27.4448 4.76351 27.4487C4.78351 27.4526 4.80241 27.4609 4.8189 27.4728C4.83539 27.4848 4.84907 27.5002 4.85899 27.518C4.87242 27.5698 4.86711 27.6247 4.84399 27.673V27.676ZM5.18499 40.3C5.12918 40.2478 5.08073 40.1883 5.04099 40.123C5.01933 40.0587 5.01017 39.9908 5.01399 39.923C5.07979 39.972 5.13778 40.0306 5.18599 40.097C5.20182 40.1638 5.20148 40.2334 5.18499 40.3ZM5.19999 27.356C5.19187 27.3687 5.18049 27.379 5.16703 27.3858C5.15358 27.3925 5.13855 27.3956 5.12352 27.3945C5.10849 27.3935 5.09402 27.3885 5.08161 27.3799C5.0692 27.3714 5.05931 27.3597 5.05299 27.346C5.05823 27.2788 5.07657 27.2132 5.10699 27.153C5.12099 27.136 5.22199 27.132 5.22799 27.153C5.23152 27.2218 5.22202 27.2907 5.19999 27.356ZM5.07599 26.9C5.07889 26.8651 5.08875 26.8311 5.10499 26.8C5.11699 26.793 5.17899 26.825 5.18599 26.834C5.19299 26.843 5.18599 26.871 5.17199 26.884C5.14858 26.9118 5.1213 26.936 5.09099 26.956C5.07999 26.959 5.07399 26.914 5.07599 26.9ZM5.10299 26.682C5.08246 26.6213 5.05004 26.5652 5.00764 26.5172C4.96523 26.4691 4.91368 26.43 4.85599 26.402C4.89219 26.3139 4.95002 26.2364 5.02414 26.1766C5.09825 26.1169 5.18625 26.0767 5.27999 26.06L5.10299 26.682ZM5.60299 40.695C5.53899 40.515 5.42699 40.31 5.38099 40.14C5.36399 40.073 5.46299 40.069 5.46599 40.013C5.52699 40.199 5.61399 40.398 5.65999 40.575C5.66899 40.631 5.59999 40.645 5.59999 40.694L5.60299 40.695ZM5.97999 35.428V35.433C5.95711 35.4396 5.93286 35.4396 5.90999 35.433C5.88699 35.433 5.86699 35.426 5.86599 35.421C5.89048 35.3744 5.91927 35.3302 5.95199 35.289C5.95333 35.286 5.95551 35.2835 5.95826 35.2817C5.96101 35.2799 5.96421 35.279 5.96749 35.279C5.97076 35.279 5.97396 35.2799 5.97671 35.2817C5.97946 35.2835 5.98164 35.286 5.98299 35.289C5.98714 35.3352 5.98444 35.3817 5.97499 35.427L5.97999 35.428ZM6.02699 35.528C6.02699 35.509 6.07399 35.463 6.07699 35.437V35.411C6.09213 35.3539 6.0947 35.2942 6.08452 35.236C6.07433 35.1778 6.05163 35.1226 6.01799 35.074C6.00747 35.0239 6.00747 34.9721 6.01799 34.922C6.01799 34.91 6.06699 34.901 6.07599 34.929C6.13632 35.08 6.15464 35.2445 6.12899 35.405C6.11216 35.4662 6.08834 35.5253 6.05799 35.581C6.04699 35.6 6.02199 35.549 6.02199 35.532L6.02699 35.528ZM6.05799 35.909C6.07799 35.794 6.07099 35.793 6.13699 35.76C6.14799 35.755 6.13699 35.848 6.14799 35.86C6.15899 35.872 6.21399 35.854 6.20599 35.867C6.16099 35.936 6.12299 35.933 6.05299 35.913L6.05799 35.909ZM6.29199 34.2L5.98099 34.371C5.97099 34.376 5.95199 34.377 5.95099 34.365C5.94199 34.276 5.99199 34.079 5.97399 34.005C5.96435 33.9387 5.93137 33.8781 5.88099 33.834C5.83999 33.815 5.74699 33.946 5.69799 33.953C5.64099 33.837 5.63699 33.834 5.69199 33.741C5.70009 33.6921 5.70211 33.6424 5.69799 33.593L5.67599 33.573C5.70099 33.618 5.45399 33.502 5.44699 33.555C5.44699 33.584 5.48499 33.708 5.46799 33.765C5.45099 33.822 5.34999 33.898 5.31999 33.958C5.32899 33.884 5.40799 33.832 5.40499 33.752C5.40499 33.615 5.33299 33.452 5.32099 33.312C5.39699 33.383 5.62099 33.482 5.67599 33.573H5.69699C5.69099 33.573 5.69699 33.588 5.69699 33.588C5.69699 33.588 5.74199 33.688 5.76299 33.678C5.84399 33.63 5.90799 33.426 5.94699 33.288C5.94699 33.277 5.97499 33.276 5.97599 33.288L6.04299 34C6.13599 34.131 6.18199 34.147 6.29299 34.147C6.29999 34.149 6.29999 34.194 6.29199 34.2ZM8.47299 43.383C8.51069 43.4257 8.54418 43.4719 8.57299 43.521C8.58651 43.5694 8.59126 43.6199 8.58699 43.67C8.57999 43.675 8.51399 43.61 8.49899 43.581C8.47451 43.5182 8.45479 43.4537 8.43999 43.388C8.43999 43.366 8.45899 43.367 8.47299 43.382V43.383ZM8.30899 44.483C8.3532 44.5395 8.39235 44.5997 8.42599 44.663C8.43999 44.688 8.44799 44.708 8.44099 44.716C8.41339 44.7296 8.38191 44.7332 8.35199 44.726C8.32535 44.6991 8.30488 44.6666 8.29199 44.631C8.28799 44.609 8.29999 44.479 8.30899 44.484V44.483ZM7.30899 26.513C7.30899 26.542 7.27699 26.662 7.26599 26.658C7.21925 26.6153 7.1821 26.5631 7.15699 26.505C7.15741 26.4526 7.17154 26.4012 7.19799 26.356C7.21729 26.3479 7.23803 26.3437 7.25899 26.3437C7.27994 26.3437 7.30068 26.3479 7.31999 26.356C7.32461 26.4089 7.32124 26.4621 7.30999 26.514L7.30899 26.513ZM7.33899 26.167C7.32199 26.181 7.23899 26.145 7.23099 26.121C7.24008 26.0546 7.2579 25.9897 7.28399 25.928C7.29216 25.9175 7.30291 25.9094 7.31517 25.9043C7.32744 25.8992 7.34081 25.8974 7.35399 25.899C7.36561 25.908 7.37525 25.9193 7.3823 25.9322C7.38935 25.9451 7.39367 25.9594 7.39499 25.974C7.38562 26.0409 7.36711 26.1062 7.33999 26.168L7.33899 26.167ZM7.37599 22.514C7.36999 22.532 7.33299 22.474 7.33699 22.439L7.40599 22.192C7.42012 22.3005 7.41022 22.4108 7.37699 22.515L7.37599 22.514ZM7.27599 19.252C7.26499 19.227 7.17599 19.239 7.15499 19.22C7.34699 18.942 7.56799 18.801 7.76799 18.549C7.77499 18.54 7.79499 18.549 7.79199 18.567C7.69753 18.8127 7.65431 19.075 7.66499 19.338C7.66701 19.3575 7.66514 19.3771 7.65947 19.3958C7.6538 19.4146 7.64446 19.4319 7.63199 19.447C7.58205 19.4999 7.52088 19.5409 7.45299 19.567C7.39999 19.573 7.30999 19.429 7.25299 19.439C7.21599 19.445 7.14399 19.639 7.12099 19.647C7.09799 19.655 7.03899 19.621 7.04999 19.596C7.07599 19.536 7.24999 19.375 7.27099 19.323C7.29199 19.271 7.28699 19.278 7.27599 19.253V19.252ZM6.79999 23.168C6.82499 23.14 6.85999 23.204 6.88699 23.194C6.81899 23.34 6.83899 23.332 6.73899 23.364C6.75551 23.2976 6.77588 23.2321 6.79999 23.168ZM6.59999 34.281C6.55019 34.1962 6.51122 34.1055 6.48399 34.011C6.48434 33.9177 6.51447 33.827 6.56999 33.752C6.56616 33.8829 6.5865 34.0135 6.62999 34.137C6.64699 34.173 6.61599 34.3 6.60799 34.281H6.59999ZM6.36399 27.514C6.34885 27.2287 6.36529 26.9427 6.41299 26.661C6.41299 26.645 6.41299 26.614 6.43099 26.612C6.44899 26.61 6.54599 26.529 6.56799 26.568C6.61857 26.6984 6.63475 26.8396 6.61499 26.978C6.5395 27.0456 6.47892 27.1282 6.43708 27.2204C6.39524 27.3127 6.37308 27.4127 6.37199 27.514H6.36399ZM6.67699 25.492C6.62699 25.531 6.60399 25.535 6.58399 25.501C6.59736 25.4358 6.62503 25.3743 6.66499 25.321C6.68599 25.304 6.75099 25.362 6.77799 25.361C6.75999 25.4126 6.72774 25.458 6.68499 25.492H6.67699ZM6.57699 29.968C6.55099 29.96 6.51899 29.829 6.51599 29.791C6.51457 29.7224 6.52751 29.6543 6.55399 29.591C6.62278 29.575 6.69462 29.5777 6.76199 29.599C6.78999 29.613 6.77799 29.679 6.77699 29.712C6.77871 29.765 6.76809 29.8178 6.74599 29.866C6.72899 29.894 6.60999 29.977 6.58299 29.968H6.57699ZM6.54799 20.178C6.60499 20.154 6.63099 20.158 6.68199 20.139C6.61299 20.324 6.60699 20.349 6.67099 20.466C6.63209 20.5265 6.57972 20.5771 6.51799 20.614C6.46599 20.655 6.47099 20.708 6.42899 20.752C6.44426 20.5905 6.41377 20.428 6.34099 20.283L6.54799 20.178ZM6.38799 34.643C6.37999 34.634 6.37899 34.543 6.38799 34.543C6.42955 34.5766 6.46743 34.6144 6.50099 34.656C6.46482 34.6586 6.42849 34.6542 6.39399 34.643H6.38799ZM6.70599 43.55C6.70731 43.5148 6.71727 43.4805 6.73499 43.45C6.7681 43.4731 6.79688 43.5019 6.81999 43.535C6.78528 43.5469 6.74861 43.552 6.71199 43.55H6.70599ZM6.81599 43.05C6.80073 42.987 6.79136 42.9227 6.78799 42.858C6.79399 42.848 6.86599 42.922 6.87499 42.943C6.88682 42.9914 6.89186 43.0412 6.88999 43.091C6.88999 43.1 6.83199 43.072 6.82199 43.051L6.81599 43.05ZM7.07299 42.698C7.05722 42.6665 7.04643 42.6328 7.04099 42.598C7.04004 42.5789 7.0453 42.5599 7.05599 42.544C7.06299 42.544 7.07499 42.519 7.08899 42.544C7.12708 42.6192 7.16047 42.6967 7.18899 42.776C7.19399 42.8 7.09199 42.716 7.07899 42.7L7.07299 42.698ZM7.13899 40.58C7.11873 40.5359 7.10493 40.4891 7.09799 40.441C7.13398 40.4429 7.16867 40.455 7.19799 40.476C7.18742 40.5142 7.16941 40.5499 7.14499 40.581L7.13899 40.58ZM6.97999 38.8L6.99999 38.688C7.03699 38.607 7.04599 38.557 6.98999 38.328C7.02435 38.3699 7.07137 38.3996 7.12401 38.4126C7.17664 38.4256 7.23207 38.4212 7.28199 38.4C7.28505 38.4679 7.29681 38.5351 7.31699 38.6C7.39727 38.7123 7.48984 38.8153 7.59299 38.907C7.64157 38.9437 7.67841 38.9937 7.69899 39.051C7.70899 39.209 7.68799 39.195 7.59899 39.231C7.61059 39.4129 7.66178 39.59 7.74899 39.75C7.75699 39.765 7.76999 39.789 7.76099 39.8C7.75199 39.811 7.68999 39.807 7.67199 39.815C7.53662 39.556 7.44312 39.2772 7.39499 38.989C7.25039 38.9408 7.11129 38.8774 6.97999 38.8ZM7.67999 41.65C7.67999 41.659 7.66499 41.679 7.64699 41.65C7.59796 41.5725 7.55388 41.492 7.51499 41.409C7.47776 41.314 7.44996 41.2155 7.43199 41.115C7.43799 41.083 7.56899 41.115 7.59199 41.14C7.6344 41.1977 7.66468 41.2633 7.68099 41.333C7.67196 41.4368 7.67196 41.5412 7.68099 41.645L7.67999 41.65ZM7.74899 40.396C7.74925 40.3466 7.75461 40.2973 7.76499 40.249C7.78982 40.2743 7.80892 40.3047 7.82099 40.338C7.81999 40.345 7.75499 40.4 7.74999 40.391L7.74899 40.396ZM7.96199 43.138C8.01615 43.2089 8.06148 43.2861 8.09699 43.368C8.11099 43.4 8.11399 43.475 8.09699 43.473C8.0131 43.4631 7.93156 43.4388 7.85599 43.401C7.81794 43.341 7.79846 43.2711 7.79999 43.2C7.80899 43.177 7.92899 43.117 7.96299 43.133L7.96199 43.138ZM8.11499 46.023C8.09199 46.008 8.04699 46.072 8.01499 46.031L7.91499 45.907C7.87987 45.8372 7.85912 45.761 7.85399 45.683C7.86999 45.66 7.93599 45.755 7.98999 45.864C8.03765 45.9104 8.07992 45.9621 8.11599 46.018L8.11499 46.023ZM8.01499 46.363C7.92599 46.283 7.90599 46.096 7.82799 45.998C7.93899 46.098 8.06699 46.21 8.15699 46.279L8.38599 46.444C8.42599 46.475 8.43999 46.544 8.47399 46.578C8.31763 46.5133 8.16505 46.4399 8.01699 46.358L8.01499 46.363ZM8.64699 46.496C8.59681 46.4915 8.54878 46.4736 8.50799 46.444C8.4635 46.3928 8.42708 46.3352 8.39999 46.273C8.39999 46.245 8.43099 46.191 8.45799 46.195C8.52534 46.2333 8.58895 46.2778 8.64799 46.328C8.67399 46.35 8.67799 46.357 8.67899 46.378C8.67999 46.399 8.66999 46.485 8.64899 46.491L8.64699 46.496ZM9.43299 48.406C9.39366 48.3556 9.36012 48.3009 9.33299 48.243C9.39698 48.2819 9.45784 48.3257 9.51499 48.374C9.52499 48.38 9.44699 48.411 9.43499 48.4L9.43299 48.406ZM9.78899 48.381C9.75852 48.3431 9.73298 48.3014 9.71299 48.257C9.76868 48.2824 9.82191 48.3128 9.87199 48.348C9.88599 48.361 9.87999 48.4 9.87199 48.402C9.8433 48.3999 9.81554 48.391 9.79099 48.376L9.78899 48.381ZM9.69899 47.389C9.64099 47.355 9.62899 47.259 9.57899 47.213C9.7142 47.2401 9.837 47.3103 9.92899 47.413C9.86399 47.388 9.75899 47.417 9.69999 47.384L9.69899 47.389ZM11.945 51C11.9136 50.9614 11.8877 50.9187 11.868 50.873C11.868 50.861 11.88 50.854 11.898 50.862C11.9528 50.8908 12.005 50.9242 12.054 50.962C12.059 50.977 11.962 51.013 11.945 51ZM12.069 48.918C12.0692 48.9147 12.0704 48.9114 12.0724 48.9087C12.0744 48.906 12.0771 48.9039 12.0802 48.9027C12.0834 48.9014 12.0868 48.9011 12.0901 48.9017C12.0934 48.9022 12.0965 48.9038 12.099 48.906C12.129 48.9461 12.1538 48.9898 12.173 49.036C12.173 49.052 12.073 49.089 12.065 49.078C12.0602 49.026 12.0615 48.9737 12.069 48.922V48.918ZM12.435 50.71C12.4111 50.6857 12.3936 50.6558 12.384 50.623C12.384 50.613 12.453 50.585 12.467 50.594C12.4989 50.6318 12.5243 50.6748 12.542 50.721C12.539 50.736 12.449 50.723 12.435 50.714V50.71ZM12.752 50.941C12.7256 50.891 12.7162 50.8338 12.725 50.778C12.732 50.728 12.725 50.634 12.735 50.611C12.745 50.588 12.752 50.579 12.766 50.602C12.78 50.625 12.894 50.779 12.891 50.822C12.888 50.865 12.777 50.9 12.752 50.945V50.941ZM14.126 50.536C14.138 50.525 14.226 50.631 14.226 50.647C14.226 50.663 14.144 50.698 14.126 50.714C14.082 50.623 14.082 50.585 14.126 50.54V50.536ZM13.791 50.336C13.783 50.3139 13.7789 50.2905 13.779 50.267V50.213C13.779 50.2 13.799 50.187 13.804 50.198L13.816 50.231C13.825 50.258 13.85 50.312 13.85 50.321C13.85 50.33 13.8 50.352 13.791 50.342V50.336ZM14.223 53.72C14.1684 53.6995 14.1163 53.6727 14.068 53.64C14.0281 53.6064 13.9928 53.5677 13.963 53.525C13.954 53.503 13.918 53.411 13.948 53.419C14.0637 53.4717 14.1647 53.5521 14.242 53.653C14.254 53.674 14.241 53.729 14.223 53.726V53.72ZM16.839 52.881C16.797 52.881 16.804 52.866 16.789 52.85C16.774 52.834 16.74 52.764 16.749 52.75C16.758 52.736 16.773 52.675 16.819 52.689C16.865 52.703 17.013 52.825 17.074 52.86C17.018 52.869 16.882 52.891 16.839 52.887V52.881ZM20.108 56.231L19.52 56.007C19.4564 55.9719 19.3946 55.9335 19.335 55.892C19.475 55.927 19.657 55.916 19.787 55.963C19.9135 56.0278 20.0345 56.1028 20.149 56.187C20.173 56.207 20.137 56.248 20.108 56.237V56.231ZM24.231 57.051C24.209 57.046 24.131 57.004 24.144 56.999C24.1796 56.977 24.2195 56.9627 24.261 56.957C24.3025 56.9513 24.3447 56.9544 24.385 56.966C24.435 56.98 24.498 57.066 24.549 57.093C24.426 57.129 24.37 57.088 24.231 57.057V57.051ZM24.77 57.184C24.811 57.1794 24.8526 57.1814 24.893 57.19C24.906 57.198 24.947 57.284 24.938 57.283C24.8796 57.2565 24.8234 57.2254 24.77 57.19V57.184ZM28.77 58.484C28.643 58.458 28.442 58.4 28.312 58.357C28.298 58.357 28.312 58.327 28.326 58.33L28.846 58.444C28.879 58.458 28.805 58.5 28.775 58.491L28.77 58.484ZM29.77 58.784C29.8237 58.7781 29.878 58.7825 29.93 58.797C29.948 58.81 29.984 58.92 29.97 58.928C29.9036 58.9206 29.8386 58.9038 29.777 58.878C29.763 58.874 29.76 58.8 29.774 58.793L29.77 58.784ZM30.053 59.81C30.0022 59.8058 29.9525 59.7929 29.906 59.772C29.888 59.763 29.883 59.715 29.882 59.704C29.881 59.693 29.882 59.677 29.9 59.676C29.9537 59.6736 30.0074 59.678 30.06 59.689C30.0751 59.7075 30.0831 59.7307 30.0825 59.7546C30.082 59.7784 30.0729 59.8013 30.057 59.819L30.053 59.81ZM31.118 59.959C31.0553 59.9385 30.9944 59.9128 30.936 59.882C30.921 59.873 30.931 59.855 30.951 59.854C31.0205 59.8579 31.0897 59.8666 31.158 59.88C31.178 59.9 31.142 59.968 31.122 59.968L31.118 59.959Z" fill="#717171"/>
</svg>
