<svg width="14" height="14" viewBox="0 0 14 14" fill="none" xmlns="http://www.w3.org/2000/svg">
<path d="M13.3538 13.1464L10.2244 10.0176C11.1314 8.92871 11.5837 7.53201 11.4872 6.1181C11.3906 4.70419 10.7527 3.38193 9.70611 2.42637C8.65951 1.47082 7.2848 0.955551 5.86796 0.987751C4.45113 1.01995 3.10125 1.59714 2.09913 2.59926C1.09702 3.60137 0.519829 4.95125 0.487629 6.36808C0.455429 7.78492 0.9707 9.15963 1.92625 10.2062C2.88181 11.2528 4.20407 11.8908 5.61798 11.9873C7.03189 12.0838 8.42859 11.6315 9.51752 10.7245L12.6463 13.8539C12.6927 13.9003 12.7479 13.9372 12.8086 13.9623C12.8693 13.9875 12.9343 14.0004 13 14.0004C13.0657 14.0004 13.1308 13.9875 13.1915 13.9623C13.2522 13.9372 13.3073 13.9003 13.3538 13.8539C13.4002 13.8074 13.4371 13.7523 13.4622 13.6916C13.4874 13.6309 13.5003 13.5658 13.5003 13.5001C13.5003 13.4344 13.4874 13.3694 13.4622 13.3087C13.4371 13.248 13.4002 13.1928 13.3538 13.1464ZM1.50002 6.50014C1.50002 5.61013 1.76394 4.7401 2.25841 4.00008C2.75287 3.26006 3.45568 2.68328 4.27795 2.34268C5.10021 2.00209 6.00501 1.91298 6.87793 2.08661C7.75084 2.26024 8.55266 2.68883 9.182 3.31816C9.81134 3.9475 10.2399 4.74932 10.4136 5.62224C10.5872 6.49515 10.4981 7.39995 10.1575 8.22222C9.81688 9.04449 9.24011 9.74729 8.50009 10.2418C7.76007 10.7362 6.89004 11.0001 6.00002 11.0001C4.80695 10.9988 3.66313 10.5243 2.8195 9.68066C1.97587 8.83704 1.50134 7.69321 1.50002 6.50014Z" fill="black"/>
</svg>
