<svg width="20" height="20" viewBox="0 0 20 20" fill="none" xmlns="http://www.w3.org/2000/svg">
<path fill-rule="evenodd" clip-rule="evenodd" d="M8.43457 0.833496C4.23655 0.833496 0.833374 4.23667 0.833374 8.43469C0.833374 12.6327 4.23655 16.0359 8.43457 16.0359C10.2293 16.0359 11.8788 15.4139 13.1791 14.3737L17.9723 19.1668L19.1667 17.9724L14.3736 13.1793C15.4138 11.8789 16.0358 10.2294 16.0358 8.43469C16.0358 4.23667 12.6326 0.833496 8.43457 0.833496ZM8.43457 2.52265C11.6997 2.52265 14.3466 5.16956 14.3466 8.43469C14.3466 11.6998 11.6997 14.3467 8.43457 14.3467C5.16944 14.3467 2.52253 11.6998 2.52253 8.43469C2.52253 5.16956 5.16944 2.52265 8.43457 2.52265Z" fill="inherit"/>
</svg>
