<svg width="30" height="31" viewBox="0 0 30 31" fill="none" xmlns="http://www.w3.org/2000/svg">
<path d="M26.9133 26.0863L21.0457 20.2198C22.7464 18.1781 23.5944 15.5593 23.4134 12.9082C23.2324 10.2571 22.0363 7.77788 20.0739 5.98622C18.1116 4.19456 15.534 3.22843 12.8774 3.2888C10.2208 3.34918 7.68982 4.43141 5.81086 6.31037C3.9319 8.18933 2.84966 10.7204 2.78929 13.3769C2.72891 16.0335 3.69505 18.6111 5.48671 20.5735C7.27837 22.5358 9.75761 23.7319 12.4087 23.9129C15.0598 24.0939 17.6786 23.2459 19.7203 21.5452L25.5867 27.4128C25.6738 27.4999 25.7773 27.569 25.8911 27.6162C26.0049 27.6633 26.1268 27.6876 26.25 27.6876C26.3732 27.6876 26.4952 27.6633 26.609 27.6162C26.7228 27.569 26.8262 27.4999 26.9133 27.4128C27.0004 27.3257 27.0695 27.2223 27.1166 27.1085C27.1638 26.9947 27.188 26.8727 27.188 26.7495C27.188 26.6264 27.1638 26.5044 27.1166 26.3906C27.0695 26.2768 27.0004 26.1734 26.9133 26.0863ZM4.68752 13.6245C4.68752 11.9558 5.18237 10.3245 6.1095 8.93691C7.03662 7.54937 8.35438 6.46792 9.89613 5.8293C11.4379 5.19069 13.1344 5.0236 14.7711 5.34916C16.4078 5.67472 17.9112 6.47832 19.0912 7.65832C20.2712 8.83833 21.0748 10.3417 21.4004 11.9785C21.726 13.6152 21.5589 15.3117 20.9203 16.8534C20.2816 18.3952 19.2002 19.7129 17.8126 20.6401C16.4251 21.5672 14.7938 22.062 13.125 22.062C10.888 22.0596 8.74335 21.1698 7.16155 19.588C5.57975 18.0062 4.69 15.8615 4.68752 13.6245Z" fill="black"/>
</svg>
