<svg width="16" height="20" viewBox="0 0 16 20" fill="none" xmlns="http://www.w3.org/2000/svg">
<path fill-rule="evenodd" clip-rule="evenodd" d="M7.25936 3.04931V11.1027L7.26612 11.2032C7.31517 11.5648 7.62509 11.8435 8.0001 11.8435C8.4092 11.8435 8.74084 11.5118 8.74084 11.1027V3.0493L10.5627 4.87096L10.6458 4.94268C10.9358 5.15785 11.3473 5.13394 11.6103 4.87096C11.8996 4.58169 11.8996 4.11267 11.6103 3.8234L8.52388 0.736978C8.49818 0.711276 8.47059 0.687446 8.44135 0.665728C8.39205 0.629148 8.33869 0.599007 8.28369 0.576247C8.19634 0.540016 8.10056 0.52002 8.0001 0.52002C7.89947 0.52002 7.80352 0.540087 7.71605 0.576438C7.63014 0.612059 7.54957 0.664548 7.47941 0.733906M7.25936 3.04931L5.43747 4.87096C5.17449 5.13394 4.76297 5.15785 4.47298 4.94268L4.3899 4.87096C4.12692 4.60798 4.10301 4.19646 4.31818 3.90648L4.3899 3.8234L7.47558 0.737714M3.67911 6.69286C4.08821 6.69286 4.41986 7.0245 4.41986 7.4336C4.41986 7.80861 4.14119 8.11853 3.77963 8.16758L3.67911 8.17434H2.44455C2.20212 8.17434 2.00049 8.34903 1.95868 8.5794L1.95072 8.66817V17.3447C1.95072 17.5871 2.12541 17.7888 2.35578 17.8306L2.44455 17.8385H13.5557C13.7981 17.8385 13.9997 17.6638 14.0415 17.4335L14.0495 17.3447V8.66817C14.0495 8.42574 13.8748 8.22411 13.6444 8.18229L13.5557 8.17434H12.3211C11.912 8.17434 11.5803 7.8427 11.5803 7.4336C11.5803 7.05859 11.859 6.74867 12.2206 6.69962L12.3211 6.69286H13.5557C14.597 6.69286 15.4501 7.49866 15.5255 8.52075L15.531 8.66817V17.3447C15.531 18.3861 14.7252 19.2392 13.7031 19.3146L13.5557 19.32H2.44455C1.4032 19.32 0.550063 18.5142 0.474656 17.4921L0.469238 17.3447V8.66817C0.469238 7.62682 1.27504 6.77368 2.29713 6.69827L2.44455 6.69286H3.67911Z" fill="#78006E"/>
</svg>
