<svg width="14" height="14" viewBox="0 0 14 14" fill="none" xmlns="http://www.w3.org/2000/svg">
<path fill-rule="evenodd" clip-rule="evenodd" d="M12.4444 7C12.4444 6.57045 12.7927 6.22222 13.2222 6.22222C13.6518 6.22222 14 6.57045 14 7V11.6667C14 12.9553 12.9553 14 11.6667 14H2.33333C1.04467 14 0 12.9553 0 11.6667V2.33333C0 1.04467 1.04467 0 2.33333 0H7C7.42956 0 7.77778 0.348223 7.77778 0.777778C7.77778 1.20733 7.42956 1.55556 7 1.55556H2.33333C1.90378 1.55556 1.55556 1.90378 1.55556 2.33333V11.6667C1.55556 12.0962 1.90378 12.4444 2.33333 12.4444H11.6667C12.0962 12.4444 12.4444 12.0962 12.4444 11.6667V7ZM11.34 1.55556H10.1111C9.68156 1.55556 9.33333 1.20733 9.33333 0.777778C9.33333 0.348223 9.68156 0 10.1111 0H13.2222C13.6518 0 14 0.348223 14 0.777778V3.88889C14 4.31844 13.6518 4.66667 13.2222 4.66667C12.7927 4.66667 12.4444 4.31844 12.4444 3.88889V2.66L7.55222 7.54445C7.40618 7.69169 7.20739 7.77451 7 7.77451C6.79262 7.77451 6.59382 7.69169 6.44778 7.54445C6.30054 7.39841 6.21771 7.19961 6.21771 6.99222C6.21771 6.78484 6.30054 6.58604 6.44778 6.44L11.34 1.55556Z" fill="black"/>
</svg>
