<svg width="17" height="17" viewBox="0 0 17 17" fill="none" xmlns="http://www.w3.org/2000/svg">
<path d="M7.4375 14.3438C7.4375 14.4846 7.38153 14.6198 7.2819 14.7194C7.18227 14.819 7.04715 14.875 6.90625 14.875H3.1875C2.90571 14.875 2.63546 14.7631 2.4362 14.5638C2.23694 14.3645 2.125 14.0943 2.125 13.8125V3.1875C2.125 2.90571 2.23694 2.63546 2.4362 2.4362C2.63546 2.23694 2.90571 2.125 3.1875 2.125H6.90625C7.04715 2.125 7.18227 2.18097 7.2819 2.2806C7.38153 2.38023 7.4375 2.51535 7.4375 2.65625C7.4375 2.79715 7.38153 2.93227 7.2819 3.0319C7.18227 3.13153 7.04715 3.1875 6.90625 3.1875H3.1875V13.8125H6.90625C7.04715 13.8125 7.18227 13.8685 7.2819 13.9681C7.38153 14.0677 7.4375 14.2029 7.4375 14.3438ZM14.7196 8.12414L12.0634 5.46789C11.9637 5.36821 11.8285 5.3122 11.6875 5.3122C11.5465 5.3122 11.4113 5.36821 11.3116 5.46789C11.212 5.56757 11.156 5.70278 11.156 5.84375C11.156 5.98472 11.212 6.11993 11.3116 6.21961L13.0614 7.96875H6.90625C6.76535 7.96875 6.63023 8.02472 6.5306 8.12435C6.43097 8.22398 6.375 8.3591 6.375 8.5C6.375 8.6409 6.43097 8.77602 6.5306 8.87565C6.63023 8.97528 6.76535 9.03125 6.90625 9.03125H13.0614L11.3116 10.7804C11.212 10.8801 11.156 11.0153 11.156 11.1562C11.156 11.2972 11.212 11.4324 11.3116 11.5321C11.4113 11.6318 11.5465 11.6878 11.6875 11.6878C11.8285 11.6878 11.9637 11.6318 12.0634 11.5321L14.7196 8.87586C14.769 8.82652 14.8082 8.76793 14.8349 8.70344C14.8617 8.63894 14.8754 8.56981 14.8754 8.5C14.8754 8.43019 14.8617 8.36106 14.8349 8.29656C14.8082 8.23207 14.769 8.17348 14.7196 8.12414Z" fill="#78006E"/>
</svg>
