<svg width="20" height="21" viewBox="0 0 20 21" fill="none" xmlns="http://www.w3.org/2000/svg">
<path d="M18.1563 9.42661L6.9 2.54067C6.71022 2.42446 6.49287 2.36102 6.27037 2.3569C6.04788 2.35278 5.82832 2.40813 5.63438 2.51724C5.44227 2.62464 5.28225 2.78128 5.17075 2.97104C5.05926 3.1608 5.00032 3.37683 5 3.59692V17.3672C5.00145 17.6974 5.13393 18.0134 5.36833 18.2459C5.60273 18.4784 5.91986 18.6083 6.25 18.6071C6.48043 18.607 6.70639 18.5435 6.90313 18.4235L18.1563 11.5375C18.3371 11.4273 18.4866 11.2724 18.5904 11.0877C18.6941 10.903 18.7486 10.6947 18.7486 10.4829C18.7486 10.271 18.6941 10.0627 18.5904 9.87805C18.4866 9.69334 18.3371 9.53842 18.1563 9.42817V9.42661ZM6.25 17.3524V3.60708L17.4867 10.4821L6.25 17.3524Z" fill="white"/>
</svg>
