<svg width="21" height="20" viewBox="0 0 21 20" fill="none" xmlns="http://www.w3.org/2000/svg">
<path d="M18.2492 8.1625C18.5316 8.10505 18.7854 7.95182 18.9678 7.72874C19.1501 7.50566 19.2498 7.22642 19.25 6.93828V5C19.25 4.66848 19.1183 4.35054 18.8839 4.11612C18.6495 3.8817 18.3315 3.75 18 3.75H3C2.66848 3.75 2.35054 3.8817 2.11612 4.11612C1.8817 4.35054 1.75 4.66848 1.75 5V6.93828C1.75016 7.22642 1.84986 7.50566 2.03222 7.72874C2.21459 7.95182 2.46843 8.10505 2.75078 8.1625C3.17297 8.25005 3.55209 8.48044 3.82427 8.81485C4.09644 9.14926 4.24505 9.56726 4.24505 9.99844C4.24505 10.4296 4.09644 10.8476 3.82427 11.182C3.55209 11.5164 3.17297 11.7468 2.75078 11.8344C2.4679 11.8919 2.21366 12.0456 2.03123 12.2693C1.84881 12.4931 1.74944 12.773 1.75 13.0617V15C1.75 15.3315 1.8817 15.6495 2.11612 15.8839C2.35054 16.1183 2.66848 16.25 3 16.25H18C18.3315 16.25 18.6495 16.1183 18.8839 15.8839C19.1183 15.6495 19.25 15.3315 19.25 15V13.0617C19.2498 12.7736 19.1501 12.4943 18.9678 12.2713C18.7854 12.0482 18.5316 11.8949 18.2492 11.8375C17.827 11.7499 17.4479 11.5196 17.1757 11.1851C16.9036 10.8507 16.755 10.4327 16.755 10.0016C16.755 9.57039 16.9036 9.15239 17.1757 8.81798C17.4479 8.48357 17.827 8.25318 18.2492 8.16562V8.1625ZM3 13.0625C3.70601 12.9187 4.34063 12.5353 4.79644 11.9773C5.25224 11.4193 5.50121 10.7209 5.50121 10.0004C5.50121 9.27988 5.25224 8.5815 4.79644 8.02349C4.34063 7.46547 3.70601 7.0821 3 6.93828V5H7.375V15H3V13.0625ZM18 13.0625V15H8.625V5H18V6.9375C17.294 7.08132 16.6594 7.46469 16.2036 8.02271C15.7478 8.58072 15.4988 9.2791 15.4988 9.99961C15.4988 10.7201 15.7478 11.4185 16.2036 11.9765C16.6594 12.5345 17.294 12.9179 18 13.0617V13.0625Z" fill="white"/>
</svg>
