<svg width="16" height="17" viewBox="0 0 16 17" fill="none" xmlns="http://www.w3.org/2000/svg">
<path d="M8 2C6.71442 2 5.45772 2.38122 4.3888 3.09545C3.31988 3.80968 2.48676 4.82484 1.99479 6.01256C1.50282 7.20028 1.37409 8.50721 1.6249 9.76809C1.8757 11.029 2.49477 12.1872 3.40381 13.0962C4.31285 14.0052 5.47104 14.6243 6.73192 14.8751C7.99279 15.1259 9.29973 14.9972 10.4874 14.5052C11.6752 14.0132 12.6903 13.1801 13.4046 12.1112C14.1188 11.0423 14.5 9.78558 14.5 8.5C14.4982 6.77665 13.8128 5.12441 12.5942 3.90582C11.3756 2.68722 9.72335 2.00182 8 2ZM4.63 12.8438C4.99171 12.2781 5.49001 11.8125 6.07895 11.49C6.6679 11.1676 7.32855 10.9985 8 10.9985C8.67146 10.9985 9.3321 11.1676 9.92105 11.49C10.51 11.8125 11.0083 12.2781 11.37 12.8438C10.4065 13.5931 9.22064 14 8 14C6.77936 14 5.59354 13.5931 4.63 12.8438ZM6 8C6 7.60444 6.1173 7.21776 6.33706 6.88886C6.55683 6.55996 6.86918 6.30362 7.23464 6.15224C7.60009 6.00087 8.00222 5.96126 8.39018 6.03843C8.77815 6.1156 9.13451 6.30608 9.41422 6.58579C9.69392 6.86549 9.8844 7.22186 9.96157 7.60982C10.0387 7.99778 9.99914 8.39991 9.84776 8.76537C9.69639 9.13082 9.44004 9.44318 9.11114 9.66294C8.78224 9.8827 8.39557 10 8 10C7.46957 10 6.96086 9.78929 6.58579 9.41421C6.21072 9.03914 6 8.53043 6 8ZM12.11 12.1506C11.5524 11.3425 10.7682 10.7174 9.85625 10.3538C10.3461 9.9679 10.7036 9.43899 10.879 8.84056C11.0543 8.24213 11.0388 7.60393 10.8346 7.01472C10.6305 6.4255 10.2477 5.91455 9.73971 5.55293C9.23168 5.19131 8.62359 4.99699 8 4.99699C7.37641 4.99699 6.76832 5.19131 6.26029 5.55293C5.75226 5.91455 5.36955 6.4255 5.16537 7.01472C4.96119 7.60393 4.9457 8.24213 5.12105 8.84056C5.2964 9.43899 5.65387 9.9679 6.14375 10.3538C5.23176 10.7174 4.44765 11.3425 3.89 12.1506C3.18536 11.3582 2.7248 10.379 2.56378 9.33094C2.40276 8.28285 2.54816 7.21056 2.98245 6.24319C3.41675 5.27582 4.12142 4.45461 5.01163 3.87846C5.90184 3.30231 6.93962 2.99578 8 2.99578C9.06039 2.99578 10.0982 3.30231 10.9884 3.87846C11.8786 4.45461 12.5833 5.27582 13.0176 6.24319C13.4518 7.21056 13.5972 8.28285 13.4362 9.33094C13.2752 10.379 12.8146 11.3582 12.11 12.1506Z" fill="#78006E"/>
</svg>
