<svg width="16" height="17" viewBox="0 0 16 17" fill="none" xmlns="http://www.w3.org/2000/svg">
<path d="M14.7898 8.23433C14.7831 7.97084 14.7764 7.70792 14.7697 7.44499C14.7251 7.29706 14.681 7.14969 14.6363 7.00288C14.5855 6.83708 14.5347 6.67017 14.4839 6.50326C14.3298 6.2275 14.1746 5.95062 14.0211 5.67653L13.8414 5.41472L13.6789 5.17022C13.6136 5.07029 13.55 4.97205 13.4858 4.8738C13.3797 4.77946 13.2742 4.68512 13.1648 4.58743L12.9678 4.41828L12.7182 4.21062L12.4492 4.10177L12.2415 4.02083L11.8256 3.86117L11.3997 3.72329C11.2395 3.66858 11.0798 3.61444 10.9191 3.55973L10.7951 3.55359C10.5076 3.53573 10.2246 3.51842 9.9416 3.50112C9.63569 3.50112 9.33034 3.50056 9.02276 3.5C8.79779 3.58038 8.57171 3.66077 8.34228 3.74283C8.18263 3.79921 8.01851 3.86787 7.84936 3.94044C7.65622 4.02138 7.45637 4.10568 7.25262 4.19109C7.02542 4.41438 6.79152 4.64437 6.55763 4.87436C6.36671 5.10937 6.17636 5.34383 5.98991 5.57326C5.8029 5.84846 5.68233 6.01872 5.49699 6.27997L5.44564 6.35757C5.39819 6.53843 5.3513 6.71874 5.30441 6.89681C5.02864 6.84546 4.75623 6.7941 4.48549 6.7433C4.15892 6.76898 3.83738 6.79354 3.5164 6.81866C3.21105 6.96492 2.91017 7.10894 2.60984 7.2524C2.39325 7.48853 2.17945 7.72132 1.96621 7.9541C1.79148 8.22037 1.61955 8.4833 1.44761 8.74566C1.38118 9.06832 1.31587 9.38762 1.25 9.70637C1.28294 10.0151 1.31587 10.321 1.34881 10.6263C1.38956 10.7832 1.43031 10.9384 1.47106 11.0941C1.50734 11.2398 1.54307 11.3838 1.5788 11.5273C1.74291 11.8198 1.90592 12.1101 2.06613 12.3954C2.24867 12.5371 2.42786 12.6767 2.60649 12.8151C2.70921 12.8922 2.8108 12.9687 2.90124 13.0368C3.24399 13.082 3.56664 13.1238 3.86976 13.1635C4.47097 13.1635 5.05209 13.1646 5.63432 13.1651C5.91678 13.1702 6.1998 13.1746 6.48561 13.1797C6.77813 13.1986 7.07343 13.2171 7.37431 13.2366C7.63947 13.231 7.92082 13.2243 8.21445 13.2182C8.51031 13.2282 8.81845 13.2388 9.1344 13.25C9.14557 13.2489 9.15897 13.2478 9.17292 13.2467C9.38616 13.2282 9.69207 13.202 10.0052 13.1752C10.3162 13.1696 10.6344 13.164 10.875 13.1596L10.9246 13.1557C11.0977 13.13 11.4449 13.0792 11.8608 13.0178C12.1321 12.8765 12.4402 12.7152 12.74 12.5595C12.9638 12.3736 13.1821 12.1933 13.3691 12.0381L13.5109 11.922L14.0027 11.1031L14.4934 10.302L14.7781 9.34018L14.7842 8.96728C14.7859 8.72333 14.7971 8.47883 14.7887 8.23377L14.7898 8.23433ZM13.9273 8.57261C13.9234 8.7853 13.9195 8.99798 13.9156 9.20955L13.7889 9.66674L13.7437 9.83867C13.7308 9.88947 13.7068 9.97767 13.7147 9.95702C13.7264 9.94083 13.6879 10.0073 13.66 10.0541C13.5796 10.1876 13.2558 10.7257 12.8678 11.3699C12.6769 11.5262 12.4743 11.692 12.2778 11.8528C12.0377 11.9733 11.8038 12.0911 11.6034 12.1922C11.259 12.2385 10.986 12.2748 10.8342 12.2954C10.6455 12.2988 10.3765 12.3038 10.0739 12.3094C9.91648 12.3094 9.7518 12.3323 9.58545 12.3434C9.42803 12.3568 9.27005 12.3702 9.1171 12.3836C8.96749 12.378 8.83519 12.3736 8.71071 12.3691C8.49021 12.3635 8.26692 12.3524 8.04419 12.3691C7.82704 12.3792 7.60988 12.3892 7.3972 12.3987C7.30398 12.3937 7.21187 12.3887 7.12032 12.3842C7.02319 12.3775 6.92717 12.3702 6.83172 12.3635C6.56879 12.3367 6.31424 12.3306 6.06639 12.3217C5.81798 12.3116 5.57626 12.3032 5.33957 12.2993C5.10177 12.2949 4.8662 12.2904 4.62783 12.2854C4.39952 12.2832 4.16897 12.2804 3.93117 12.2776C3.71402 12.2485 3.48905 12.2184 3.25236 12.1866H3.25069C3.25069 12.1866 3.25348 12.1883 3.22557 12.1676L2.73656 11.798L2.37985 11.1963L2.1962 10.4762L2.12251 9.75271L2.26318 9.08618L2.53281 8.67923C2.57523 8.61504 2.61598 8.55252 2.6545 8.49334C2.74326 8.39454 2.82923 8.29908 2.91408 8.20474L3.05084 8.05067L3.11895 7.97419C3.1396 7.95075 3.12564 7.9647 3.13067 7.95856L3.13346 7.95521L3.19933 7.92172L3.34447 7.84859C3.4416 7.79947 3.54041 7.74979 3.642 7.69843L3.72406 7.65768C3.74193 7.64875 3.733 7.65265 3.73858 7.6493L3.74304 7.64819L3.76481 7.64596L3.86753 7.63758L4.07519 7.62195L4.43915 7.59739C4.61611 7.63256 4.79195 7.66717 4.96389 7.70066L5.18271 7.74253C5.18271 7.74811 5.18383 7.75425 5.18327 7.75983C5.17434 7.8458 5.16597 7.9273 5.15815 8.00434C5.1548 8.04397 5.15257 8.08361 5.15201 8.12436V8.18688C5.15368 8.22093 5.15536 8.25554 5.15703 8.29182C5.15759 8.3069 5.15815 8.32197 5.15982 8.34876C5.2056 8.47213 5.27035 8.6463 5.32785 8.80093C5.37753 8.93434 5.42052 9.04934 5.43726 9.08172C5.44396 9.09511 5.44899 9.10907 5.45289 9.12358L5.48695 9.23858C5.49476 9.26481 5.52044 9.28045 5.54444 9.27375C5.59189 9.26035 5.63934 9.24918 5.68735 9.24081C5.75155 9.22909 5.81798 9.2369 5.88273 9.2263C5.92515 9.21904 5.96646 9.2062 6.00721 9.19225C6.05299 9.17661 6.09541 9.15149 6.13226 9.11912C6.17524 9.0806 6.21822 9.04208 6.26288 9.00691C6.28298 8.99128 6.29024 8.96337 6.28075 8.93713C6.20873 8.73785 6.13449 8.53968 6.05745 8.34318C6.03401 8.28401 6.0301 8.1612 6.0435 8.19134C6.03178 7.97587 6.02117 7.78774 6.00945 7.57729L6.23944 6.71092L6.59559 6.17391L6.6676 6.06561L7.17558 5.43426L7.72153 4.90394L8.43885 4.61087L9.1785 4.34404L9.96616 4.33064L10.7561 4.37251L11.5175 4.64492L12.2594 4.95976L12.8477 5.45659L13.3083 6.1192L13.3367 6.17112L13.6979 6.83038L13.9173 7.57673L13.9229 7.87315C13.9246 8.10538 13.9357 8.33816 13.9262 8.57094L13.9273 8.57261Z" fill="#BE008D"/>
</svg>
