<svg fill="none" xmlns="http://www.w3.org/2000/svg" role="img"><path d="M1.806 11.671a7.2 7.2 0 1 1 2.523 2.523l-2.493.705a.594.594 0 0 1-.736-.735l.706-2.493Z" stroke="black" stroke-width="1.3" stroke-linecap="round" stroke-linejoin="round"></path><path d="M9.817 12.197a5.999 5.999 0 0 1-6.014-6.014 2.102 2.102 0 0 1 2.102-2.095.51.51 0 0 1 .45.263l.88 1.532a.608.608 0 0 1-.008.608L6.52 7.669a3.604 3.604 0 0 0 1.81 1.81l1.178-.706a.608.608 0 0 1 .608-.007l1.532.878a.51.51 0 0 1 .263.45 2.11 2.11 0 0 1-2.095 2.103Z" stroke="black" stroke-width="1.3" stroke-linecap="round" stroke-linejoin="round"></path></svg>