<svg width="17" height="17" viewBox="0 0 17 17" fill="none" xmlns="http://www.w3.org/2000/svg">
<path d="M13.8762 8.85375L9.37621 13.3538C9.28239 13.4476 9.15514 13.5003 9.02246 13.5003C8.88978 13.5003 8.76253 13.4476 8.66871 13.3538C8.57489 13.2599 8.52218 13.1327 8.52218 13C8.52218 12.8673 8.57489 12.7401 8.66871 12.6463L12.3156 9H2.52246C2.38985 9 2.26268 8.94733 2.16891 8.85356C2.07514 8.75979 2.02246 8.63261 2.02246 8.5C2.02246 8.36739 2.07514 8.24022 2.16891 8.14645C2.26268 8.05268 2.38985 8 2.52246 8H12.3156L8.66871 4.35375C8.57489 4.25993 8.52218 4.13269 8.52218 4C8.52218 3.86732 8.57489 3.74007 8.66871 3.64625C8.76253 3.55243 8.88978 3.49973 9.02246 3.49973C9.15514 3.49973 9.28239 3.55243 9.37621 3.64625L13.8762 8.14625C13.9227 8.19269 13.9596 8.24783 13.9847 8.30853C14.0099 8.36923 14.0229 8.4343 14.0229 8.5C14.0229 8.56571 14.0099 8.63077 13.9847 8.69147C13.9596 8.75217 13.9227 8.80732 13.8762 8.85375Z" fill="white"/>
</svg>
