<svg width="10" height="13" viewBox="0 0 10 13" fill="none" xmlns="http://www.w3.org/2000/svg">
<path d="M5 3C4.56735 3 4.14442 3.12829 3.78469 3.36866C3.42496 3.60903 3.14458 3.95067 2.97901 4.35038C2.81345 4.75009 2.77013 5.18993 2.85453 5.61426C2.93894 6.03859 3.14728 6.42837 3.4532 6.7343C3.75913 7.04022 4.14891 7.24856 4.57324 7.33297C4.99757 7.41737 5.43741 7.37405 5.83712 7.20849C6.23683 7.04292 6.57847 6.76254 6.81884 6.40281C7.05921 6.04308 7.1875 5.62015 7.1875 5.1875C7.1875 4.60734 6.95703 4.05094 6.5468 3.6407C6.13656 3.23047 5.58016 3 5 3ZM5 6.5C4.74041 6.5 4.48665 6.42302 4.27081 6.2788C4.05497 6.13458 3.88675 5.9296 3.78741 5.68977C3.68807 5.44994 3.66208 5.18604 3.71272 4.93144C3.76336 4.67684 3.88837 4.44298 4.07192 4.25942C4.25548 4.07587 4.48934 3.95086 4.74394 3.90022C4.99854 3.84958 5.26244 3.87557 5.50227 3.97491C5.7421 4.07425 5.94708 4.24247 6.0913 4.45831C6.23552 4.67415 6.3125 4.92791 6.3125 5.1875C6.3125 5.5356 6.17422 5.86944 5.92808 6.11558C5.68194 6.36172 5.3481 6.5 5 6.5ZM5 0.375C3.72409 0.376447 2.50085 0.883942 1.59865 1.78615C0.696442 2.68835 0.188947 3.91159 0.1875 5.1875C0.1875 6.90469 0.981016 8.72469 2.48438 10.4512C3.15989 11.2313 3.92017 11.9338 4.75117 12.5457C4.82473 12.5972 4.91237 12.6249 5.00219 12.6249C5.092 12.6249 5.17964 12.5972 5.2532 12.5457C6.08268 11.9336 6.84148 11.2311 7.51562 10.4512C9.0168 8.72469 9.8125 6.90469 9.8125 5.1875C9.81105 3.91159 9.30356 2.68835 8.40135 1.78615C7.49915 0.883942 6.27591 0.376447 5 0.375ZM5 11.6406C4.09602 10.9297 1.0625 8.31836 1.0625 5.1875C1.0625 4.14321 1.47734 3.14169 2.21577 2.40327C2.95419 1.66484 3.95571 1.25 5 1.25C6.04429 1.25 7.04581 1.66484 7.78423 2.40327C8.52266 3.14169 8.9375 4.14321 8.9375 5.1875C8.9375 8.31727 5.90398 10.9297 5 11.6406Z" fill="white"/>
</svg>
