<svg width="14" height="15" viewBox="0 0 14 15" fill="none" xmlns="http://www.w3.org/2000/svg">
<g id="Close-Circle">
<path id="Vector" d="M9.05953 6.05953L7.61852 7.5L9.05953 8.94047C9.10018 8.98112 9.13243 9.02937 9.15442 9.08248C9.17642 9.13559 9.18775 9.19251 9.18775 9.25C9.18775 9.30749 9.17642 9.36441 9.15442 9.41752C9.13243 9.47063 9.10018 9.51888 9.05953 9.55953C9.01889 9.60018 8.97063 9.63242 8.91752 9.65442C8.86441 9.67642 8.80749 9.68774 8.75 9.68774C8.69252 9.68774 8.63559 9.67642 8.58249 9.65442C8.52938 9.63242 8.48112 9.60018 8.44047 9.55953L7 8.11852L5.55953 9.55953C5.51889 9.60018 5.47063 9.63242 5.41752 9.65442C5.36441 9.67642 5.30749 9.68774 5.25 9.68774C5.19252 9.68774 5.13559 9.67642 5.08249 9.65442C5.02938 9.63242 4.98112 9.60018 4.94047 9.55953C4.89982 9.51888 4.86758 9.47063 4.84558 9.41752C4.82358 9.36441 4.81226 9.30749 4.81226 9.25C4.81226 9.19251 4.82358 9.13559 4.84558 9.08248C4.86758 9.02937 4.89982 8.98112 4.94047 8.94047L6.38149 7.5L4.94047 6.05953C4.85838 5.97744 4.81226 5.8661 4.81226 5.75C4.81226 5.6339 4.85838 5.52256 4.94047 5.44047C5.02256 5.35838 5.13391 5.31226 5.25 5.31226C5.3661 5.31226 5.47744 5.35838 5.55953 5.44047L7 6.88148L8.44047 5.44047C8.48112 5.39982 8.52938 5.36758 8.58249 5.34558C8.63559 5.32358 8.69252 5.31226 8.75 5.31226C8.80749 5.31226 8.86441 5.32358 8.91752 5.34558C8.97063 5.36758 9.01889 5.39982 9.05953 5.44047C9.10018 5.48112 9.13243 5.52937 9.15442 5.58248C9.17642 5.63559 9.18775 5.69251 9.18775 5.75C9.18775 5.80749 9.17642 5.86441 9.15442 5.91752C9.13243 5.97063 9.10018 6.01888 9.05953 6.05953ZM12.6875 7.5C12.6875 8.62488 12.3539 9.7245 11.729 10.6598C11.104 11.5951 10.2158 12.3241 9.17651 12.7546C8.13726 13.185 6.99369 13.2977 5.89043 13.0782C4.78716 12.8588 3.77374 12.3171 2.97833 11.5217C2.18292 10.7263 1.64124 9.71284 1.42179 8.60958C1.20233 7.50631 1.31496 6.36274 1.74544 5.32349C2.17591 4.28423 2.90489 3.39597 3.8402 2.77102C4.7755 2.14607 5.87512 1.8125 7 1.8125C8.50793 1.81409 9.95365 2.41382 11.0199 3.48009C12.0862 4.54636 12.6859 5.99207 12.6875 7.5ZM11.8125 7.5C11.8125 6.54818 11.5303 5.61773 11.0014 4.82632C10.4726 4.03491 9.72104 3.41808 8.84167 3.05383C7.9623 2.68958 6.99466 2.59428 6.06113 2.77997C5.1276 2.96566 4.27009 3.42401 3.59705 4.09705C2.92401 4.77009 2.46566 5.62759 2.27997 6.56113C2.09428 7.49466 2.18959 8.4623 2.55383 9.34166C2.91808 10.221 3.53491 10.9726 4.32632 11.5014C5.11773 12.0303 6.04818 12.3125 7 12.3125C8.27591 12.3111 9.49915 11.8036 10.4014 10.9014C11.3036 9.99915 11.8111 8.77591 11.8125 7.5Z" fill="currentColor"/>
</g>
</svg>
