<svg xmlns="http://www.w3.org/2000/svg" viewBox="0 0 22 22">
  <g fill="none" fill-rule="evenodd">
    <path d="M0 0h22v22H0z"/>
    <path fill="currentColor" class="icon-stroke" d="M6.21639535 17.4221081c.53157407 0 .96920988.4021975 1.02519877.9188839l.00605123.1123661c0 .5315741-.40219753.9692099-.91888395 1.0251988l-.11236605.0060512c-.56954365 0-1.03125-.4617064-1.03125-1.03125l.00193507-.0409662.00411616-.0713999c.05598889-.5166864.4936247-.9188839 1.02519877-.9188839zm3.375 0c.53157405 0 .96920985.4021975 1.02519875.9188839l.0060512.1123661c0 .5315741-.4021975.9692099-.9188839 1.0251988l-.11236605.0060512c-.56954365 0-1.03125-.4617064-1.03125-1.03125l.00193507-.0409662.00411616-.0713999c.05598889-.5166864.4936247-.9188839 1.02519877-.9188839zm3.37499995 0c.5315741 0 .9692099.4021975 1.0251988.9188839l.0060512.1123661c0 .5315741-.4021975.9692099-.9188839 1.0251988l-.1123661.0060512c-.5695436 0-1.03125-.4617064-1.03125-1.03125l.0019351-.0409662.0041162-.0713999c.0559889-.5166864.4936247-.9188839 1.0251987-.9188839zm-5.62499995-3.375c.53157407 0 .96920988.4021975 1.02519877.9188839l.00605123.1123661c0 .5315741-.40219753.9692099-.91888395 1.0251988l-.11236605.0060512c-.56954365 0-1.03125-.4617064-1.03125-1.03125l.00193507-.0409662.00411616-.0713999c.05598889-.5166864.4936247-.9188839 1.02519877-.9188839zm3.37499995 0c.5315741 0 .9692099.4021975 1.0251988.9188839l.0060512.1123661c0 .5315741-.4021975.9692099-.9188839 1.0251988l-.1123661.0060512c-.5695436 0-1.03124995-.4617064-1.03124995-1.03125l.00193507-.0409662.00411616-.0713999c.05598889-.5166864.49362472-.9188839 1.02519872-.9188839zm3.375 0c.5315741 0 .9692099.4021975 1.0251988.9188839l.0060512.1123661c0 .5315741-.4021975.9692099-.9188839 1.0251988l-.1123661.0060512c-.5695436 0-1.03125-.4617064-1.03125-1.03125l.0019351-.0409662.0041162-.0713999c.0559889-.5166864.4936247-.9188839 1.0251987-.9188839zM8.13661668 5.71812775C9.0339208 3.59493094 11.2563442 2.25709029 13.6304899 2.5573509c2.7506517.34787769 4.7566282 2.77467648 4.580694 5.5416515-.1759342 2.7669742-2.4731216 4.9201626-5.2447886 4.916863H7.34257633c-1.46355174.0022999-2.77928537-.8916532-3.31621874-2.2531556-.53693385-1.36150364-.18556986-2.91290744.8855891-3.91020806.81612112-.7598481 1.92327774-1.07997869 2.98793107-.90952493l.13823082.02648215zm5.30566592-1.67263102c-1.9647512-.24848407-3.78403085 1.07364474-4.15436742 3.0191119l-.00109268.00562314c-.03045053.15356959-.05108328.30884306-.06180043.46379844l-.00891349.22742875c.00027482.0828501.00272104.16114895.00761815.23929419l.02203675.23385949c.12499394.99215751-1.36324232 1.17964842-1.48823626.18749091-.02742759-.21771048-.04116522-.43692776-.04112273-.659998a5.19077464 5.19077464 0 01.01184655-.32547755c-.6346773-.12421434-1.30484775.058126-1.79416849.51370718-.61966941.5769421-.82293477 1.47443491-.51231656 2.26206982.31061816.7876347 1.07177627 1.3047908 1.91962936 1.3034599h5.62589375c1.9804016.0023572 3.6212505-1.53563523 3.7469178-3.51204567.1256673-1.97641073-1.3071731-3.70983844-3.2719243-3.9583225z"/>
  </g>
</svg>
