<svg xmlns="http://www.w3.org/2000/svg" viewBox="0 0 22 22">
  <g fill="none" fill-rule="evenodd">
    <path d="M0 0h22v22H0z"/>
    <path fill="currentColor" class="icon-stroke" d="M11.5000112 14.8850815c.9664983 0 1.75.7835017 1.75 1.75 0 .9181734-.7071103 1.6711924-1.6064728 1.7441988l-.1435272.0058012h-.5c-.4142136 0-.75-.3357864-.75-.75 0-.3796957.2821539-.6934909.6482294-.7431533l.1017706-.0068467h.5c.1380712 0 .25-.1119288.25-.25 0-.1183467-.0822334-.2174868-.1926773-.2433973l-.0573227-.0066027H3.50001119c-.41421356 0-.75-.3357864-.75-.75 0-.3796957.28215388-.6934909.64822944-.7431533l.10177056-.0068467h8.00000001zm2.639904-11.24617282c2.8399799.2616055 5.0353338 2.60621682 5.1100736 5.48253031-.0182643 2.40702601-1.5954347 4.52418241-3.8965344 5.23061651-.3959737.1215633-.8155205-.1008903-.9370838-.496864-.1215634-.3959738.1008902-.8155205.496864-.9370839 1.6752717-.5143059 2.8235004-2.0556611 2.8370318-3.78276646-.0546479-2.09116019-1.6648861-3.81087495-3.7479416-4.00275617-2.0775828-.19137708-3.9703849 1.19740814-4.41263397 3.23461106.0005967.00411044-.00026166.00846059-.00115967.01281178-.05021333.24330087-.07576409.49061689-.07651619.73821321l.00701294.24600143.02454283.24811495c.13076998.9914127-1.35685214 1.1872846-1.48716431.19581161l-.02980301-.28889772-.01068569-.1715058-.00523954-.23128553.003333-.05471174.00144052-.12190433.01347589-.20713748c-.16114901-.03526314-.32676079-.05358265-.49478861-.05434802-1.2459738-.01529429-2.26853253.98217628-2.28412859 2.21872311 0 .1262378.0107666.2515607.03220378.3746026.07109607.4080664-.20207239.7965044-.61013884.8676004-.40806645.0710961-.79650441-.2020724-.86760048-.6101388-.03629743-.2083345-.05440541-.4197982-.05440541-.6414869.0260614-2.07416167 1.72831167-3.73464778 3.79664243-3.70923636.24147123.00108417.48156534.02499572.7171619.07102285l.08913741.02030293.03556072-.09416146c.90259219-2.29057305 3.22691689-3.76921629 5.75134329-3.53667808zM9.00001119 10.8850815c.96649831 0 1.75000001.7835017 1.75000001 1.75 0 .9181734-.7071103 1.6711924-1.6064728 1.7441988l-.14352721.0058012h-5.5c-.41421356 0-.75-.3357864-.75-.75 0-.3796957.28215388-.6934909.64822944-.7431533l.10177056-.0068467h5.5c.13807119 0 .25-.1119288.25-.25 0-.1183467-.08223342-.2174868-.1926773-.2433973l-.0573227-.0066027h-.5c-.41421356 0-.75-.3357864-.75-.75 0-.3796957.28215388-.6934909.64822944-.7431533l.10177056-.0068467h.5z"/>
  </g>
</svg>
