<svg xmlns="http://www.w3.org/2000/svg" viewBox="0 0 25 26">
  <path fill="#51C141" fill-rule="evenodd" d="M9.751 19.067c.338.338.364.87.078 1.238l-.078.088-4.687 4.687a.938.938 0 01-1.404-1.237l.078-.088 4.687-4.688a.938.938 0 011.326 0zm6.563 0c.338.338.364.87.078 1.238l-.078.088-4.688 4.687a.938.938 0 01-1.404-1.237l.078-.088 4.688-4.688a.938.938 0 011.326 0zM7.699 5.68A8.44 8.44 0 0124.08 9.015a8.437 8.437 0 01-8.43 7.903H6.278A5.619 5.619 0 117.55 5.828l.091.023zm8.784-3.71a6.563 6.563 0 00-7.27 5.283l-.001.007c-.06.302-.099.609-.115.915l-.01.3c.001.188.009.37.024.553l.029.272c.15 1.198-1.579 1.458-1.839.358l-.022-.123-.036-.35-.022-.353-.008-.352.012-.402c.007-.13.017-.26.03-.39a3.743 3.743 0 10-.98 7.355h9.377a6.563 6.563 0 00.831-13.074z"/>
</svg>
