<svg xmlns="http://www.w3.org/2000/svg" viewBox="0 0 21 21">
  <g fill="#51C141" fill-rule="evenodd" transform="translate(1)">
    <path fill-rule="nonzero" d="M9.822 7.959c3.134-1.494 5.349-1.536 9.615.63a1 1 0 11-.906 1.784c-3.578-1.818-5.158-1.845-7.615-.718l-.483.229c-3.39 1.62-5.775 1.72-10.571-.495A1 1 0 01.7 7.573c4.113 1.9 5.896 1.883 8.633.618l.49-.232zM9.822 16.047c3.134-1.494 5.349-1.536 9.615.63a1 1 0 11-.906 1.784c-3.578-1.818-5.158-1.845-7.615-.718l-.483.228c-3.39 1.62-5.775 1.72-10.571-.494A1 1 0 11.7 15.66c4.113 1.9 5.896 1.882 8.633.617l.49-.231z"/>
    <circle cx="3.25" cy="2.25" r="1.25"/>
    <circle cx="7.25" cy="14.25" r="1.25"/>
    <circle cx="8.25" cy="4.25" r="1.25"/>
    <circle cx="13.25" cy="19.338" r="1.25"/>
    <circle cx="13.25" cy="12.25" r="1.25"/>
    <circle cx="18.25" cy="13.25" r="1.25"/>
    <circle cx="18.25" cy="4.25" r="1.25"/>
    <circle cx="13.25" cy="1.25" r="1.25"/>
  </g>
</svg>
