<svg xmlns="http://www.w3.org/2000/svg" viewBox="0 0 31 28">
  <path fill="#51C141" fill-rule="evenodd" d="M16.056 21.921a2.812 2.812 0 01.171 5.62l-.171.005h-.938a.937.937 0 01-.11-1.868l.11-.007h.938a.937.937 0 00.11-1.868l-.11-.007h-15a.937.937 0 01-.11-1.868l.11-.007h15zm-4.688-7.5a2.812 2.812 0 01.172 5.62l-.172.005H1.056a.937.937 0 01-.11-1.868l.11-.007h10.312a.937.937 0 00.11-1.868l-.11-.007h-.937a.937.937 0 01-.11-1.868l.11-.007h.937zM20.963.833c5.088.468 9.021 4.67 9.155 9.81a9.872 9.872 0 01-6.975 9.362.937.937 0 11-.55-1.792c3.337-1.025 5.624-4.095 5.65-7.554a8.209 8.209 0 00-16.225-1.538.234.234 0 01-.005.04c-.12.58-.17 1.17-.149 1.76l.022.376.037.33c.163 1.24-1.696 1.485-1.86.245l-.042-.386-.03-.437-.009-.413.005-.112.004-.202c.009-.252.028-.505.058-.756a4.838 4.838 0 00-1.424-.22 4.698 4.698 0 00-4.757 4.629c0 .264.023.525.068.783a.938.938 0 01-1.848.322 6.47 6.47 0 01-.095-1.117 6.573 6.573 0 016.648-6.492 6.712 6.712 0 011.622.207l.192.053.008-.022a10.085 10.085 0 0110.5-6.876z"/>
</svg>
