<svg xmlns="http://www.w3.org/2000/svg" viewBox="0 0 22 22"><g fill="none" fill-rule="evenodd"><path d="M0 0h22v22H0z"/><path d="M7.73 2.273a3.107 3.107 0 013.107 3.107v7.112l.063.065a4.286 4.286 0 01.907 4.205l-.073.209a4.286 4.286 0 11-7.174-4.414l.063-.065V5.38a3.107 3.107 0 012.93-3.102zm1.607 8.31H6.122v2.223a.75.75 0 01-.175.483l-.074.076a2.786 2.786 0 103.714 0 .75.75 0 01-.25-.559v-2.222zm-1.6 3.551a1.31 1.31 0 110 2.62 1.31 1.31 0 010-2.62zm10.069-6.192a.75.75 0 01.102 1.493l-.102.007h-4.024a.75.75 0 01-.102-1.493l.102-.007h4.024zM7.73 3.772c-.888 0-1.607.72-1.607 1.608v3.704h3.214V5.38c0-.838-.642-1.527-1.46-1.6z" fill="currentColor" class="icon-stroke"/></g></svg>