<svg xmlns="http://www.w3.org/2000/svg" viewBox="0 0 27 19">
  <g fill-rule="nonzero" fill="currentColor">
    <path d="M6.921 7.084a1 1 0 011.962.387 6.61 6.61 0 00-.126 1.254c0 .274.017.553.053.838a1 1 0 01-1.985.248 8.588 8.588 0 01-.068-1.093 8.612 8.612 0 01.164-1.634z"/>
    <path d="M6.92 7.09a8.72 8.72 0 0117.272 2.144 1 1 0 11-1.997-.117 6.72 6.72 0 00-13.31-1.652A1 1 0 016.92 7.09z"/>
    <path d="M1.854 7.365a5.82 5.82 0 016.48-.99A1 1 0 117.47 8.18a3.82 3.82 0 10-1.848 7.258l.204.005H17.99a1 1 0 01.117 1.993l-.117.007H5.828A5.818 5.818 0 011.854 7.365z"/>
    <path d="M20.947 7.774a5.405 5.405 0 100 10.811 5.405 5.405 0 000-10.81zm0 2a3.405 3.405 0 11-.001 6.81 3.405 3.405 0 01.001-6.81z"/>
  </g>
</svg>
