<svg xmlns="http://www.w3.org/2000/svg" viewBox="0 0 26 22">
  <g fill="currentColor" fill-rule="nonzero">
    <path d="M10.81.484a7 7 0 018.943 8.458 1 1 0 11-1.932-.516 5 5 0 10-9.75-2.185 1 1 0 01-1.31.766l-.106-.043a2.745 2.745 0 10-1.37 5.214l.187.006a1 1 0 01.004 2 4.745 4.745 0 11.732-9.432l.189.034.06-.165A7 7 0 0110.56.57l.25-.087z"/>
    <path d="M24.673 11.967a1 1 0 01-.894 1.788c-2.652-1.325-3.787-1.351-5.586-.543l-.385.179c-2.641 1.243-4.528 1.32-8.246-.37a1 1 0 01.828-1.82c3.054 1.388 4.348 1.385 6.356.477l.403-.187c2.449-1.15 4.208-1.182 7.524.476z"/>
    <path d="M24.673 15.482a1 1 0 01-.894 1.789c-2.652-1.326-3.787-1.352-5.586-.544l-.385.179c-2.641 1.243-4.528 1.32-8.246-.37a1 1 0 01.828-1.82c3.054 1.388 4.348 1.385 6.356.477l.403-.187c2.449-1.149 4.208-1.182 7.524.476z"/>
    <path d="M17.149 18.584c2.449-1.149 4.208-1.182 7.524.476a1 1 0 11-.894 1.789c-2.747-1.373-3.866-1.352-5.781-.454l-.19.09c-2.641 1.242-4.528 1.32-8.246-.37a1 1 0 11.828-1.82c3.054 1.387 4.348 1.384 6.356.477l.403-.188zM6.108 5.866a1 1 0 011.962.392c-.041.204-.069.41-.083.617l-.012.305c.001.143.007.283.018.421l.022.208c.161 1.279-1.688 1.555-1.962.377l-.022-.127-.03-.29-.019-.293-.006-.292.01-.334c.01-.22.033-.44.065-.658l.057-.326z"/>
  </g>
</svg>
