<svg xmlns="http://www.w3.org/2000/svg"
     viewBox="0 0 18 18">
    <path d="M8.4 2.1v-.6a.6.6 0 0 1 1.2 0v.6a.6.6 0 0 1-1.2 0ZM14 9A5 5 0 1 1 4 9a5 5 0 0 1 10 0Zm-1.3 0a3.7 3.7 0 1 0-7.4 0 3.7 3.7 0 0 0 7.5 0Zm-9-4.6a.6.6 0 0 0 .8-.8l-.6-.7A.6.6 0 0 0 3 4l.7.5Zm0 9.2-.7.6a.6.6 0 0 0 1 .9l.5-.7a.6.6 0 0 0-.8-.8Zm10.4-9a.6.6 0 0 0 .4-.2l.7-.6a.6.6 0 0 0-1-.9l-.5.7a.6.6 0 0 0 .4 1Zm.4 9a.6.6 0 0 0-.8.8l.6.7a.6.6 0 1 0 .9-1l-.7-.5ZM2.1 8.4h-.6a.6.6 0 0 0 0 1.2h.6a.6.6 0 0 0 0-1.2ZM9 15.2a.6.6 0 0 0-.6.7v.6a.6.6 0 1 0 1.2 0v-.6a.6.6 0 0 0-.6-.7Zm7.5-6.8h-.6a.6.6 0 1 0 0 1.2h.6a.6.6 0 1 0 0-1.2Z" />
</svg>