<svg xmlns="http://www.w3.org/2000/svg" viewBox="0 0 22 22">
  <g fill="none" fill-rule="evenodd">
    <path d="M0 .937926h22v22H0z"/>
    <path fill="currentColor" class="icon-stroke" d="M11 4.33298773c4.2000914 0 7.6049383 3.40484684 7.6049383 7.60493827 0 4.2000914-3.4048469 7.6049383-7.6049383 7.6049383-4.20009143 0-7.60493827-3.4048469-7.60493827-7.6049383 0-4.20009143 3.40484684-7.60493827 7.60493827-7.60493827zm-.0009383 8.66499997l-3.75293022 3.7547167C8.28157737 17.5611449 9.5845329 18.0428643 11 18.0428643c1.4154671 0 2.7184226-.4817194 3.7538685-1.2901599l-3.7548068-3.7547167zM4.89506173 11.937926c0 1.4154671.48171932 2.7184226 1.29015991 3.7538685l3.75384009-3.7548068-3.75384009-3.75293022C5.37678105 9.21950337 4.89506173 10.5224589 4.89506173 11.937926zM15.8147784 8.18405748l-3.7547167 3.75293022 3.7547167 3.7548068c.8084405-1.0354459 1.2901599-2.3384014 1.2901599-3.7538685 0-1.4154671-.4817194-2.71842263-1.2901599-3.75386852zM11 5.83298773c-1.4154671 0-2.71842263.48171932-3.75386852 1.29015991l3.75293022 3.75384009 3.7548068-3.75384009C13.7184226 6.31470705 12.4154671 5.83298773 11 5.83298773z"/>
  </g>
</svg>
