<svg xmlns="http://www.w3.org/2000/svg" viewBox="0 0 36 36">
  <g fill="none" fill-rule="evenodd">
    <path d="M0 0h35.8765064v36H0z"/>
    <path fill="currentColor" class="icon-stroke" d="M18 29.0383272c.6472087 0 1.1795339.4918747 1.2435464 1.1221947l.0064536.1278053v1.8905119c0 .6903559-.5596441 1.25-1.25 1.25-.6472087 0-1.1795339-.4918747-1.2435464-1.1221948L16.75 32.1788391v-1.8905119c0-.6903559.5596441-1.25 1.25-1.25zm9.4711807-3.3245404l.1014954.0911223 1.337222 1.3372221c.4881554.4881553.4881554 1.2796116 0 1.7677669-.4556117.4556117-1.1754321.4859858-1.6662716.0911224l-.1014953-.0911224-1.3372221-1.337222c-.4881554-.4881554-.4881554-1.2796116 0-1.767767.4556117-.4556117 1.1754321-.4859858 1.6662716-.0911223zm-17.2760898.0911223c.4556117.4556117.4859858 1.1754321.0911223 1.6662716l-.0911223.1014954-1.33722207 1.337222c-.48815536.4881554-1.27961159.4881554-1.76776695 0-.45561167-.4556117-.48598579-1.1754321-.09112233-1.6662716l.09112233-.1014953 1.33722207-1.3372221c.48815536-.4881554 1.27961158-.4881554 1.76776695 0zM18 8.24269656c5.3888099 0 9.7573034 4.36849354 9.7573034 9.75730344 0 5.3888099-4.3684935 9.7573034-9.7573034 9.7573034S8.24269656 23.3888099 8.24269656 18 12.6111901 8.24269656 18 8.24269656zm0 2.50000004c-4.008098 0-7.2573034 3.2492054-7.2573034 7.2573034 0 4.008098 3.2492054 7.2573034 7.2573034 7.2573034 4.008098 0 7.2573034-3.2492054 7.2573034-7.2573034 0-4.008098-3.2492054-7.2573034-7.2573034-7.2573034zM32.1788391 16.75c.6903559 0 1.25.5596441 1.25 1.25 0 .6472087-.4918747 1.1795339-1.1221948 1.2435464L32.1788391 19.25h-1.8905119c-.6903559 0-1.25-.5596441-1.25-1.25 0-.6472087.4918747-1.1795339 1.1221947-1.2435464L30.2883272 16.75h1.8905119zm-26.46716629 0c.69035594 0 1.25.5596441 1.25 1.25 0 .6472087-.49187466 1.1795339-1.12219476 1.2435464L5.71167281 19.25H3.82116094c-.69035594 0-1.25-.5596441-1.25-1.25 0-.6472087.49187466-1.1795339 1.12219476-1.2435464L3.82116094 16.75h1.89051187zM28.9098981 7.09010188c.4556117.45561167.4859858 1.1754321.0911224 1.6662716l-.0911224.10149535-1.337222 1.33722207c-.4881554.4881554-1.2796116.4881554-1.767767 0-.4556117-.45561167-.4859858-1.1754321-.0911223-1.6662716l.0911223-.10149535 1.3372221-1.33722207c.4881553-.48815536 1.2796116-.48815536 1.7677669 0zM8.75637348 6.99897955l.10149535.09112233 1.33722207 1.33722207c.4881554.48815536.4881554 1.27961158 0 1.76776695-.45561167.4556117-1.1754321.4859858-1.6662716.0911223l-.10149535-.0911223-1.33722207-1.33722207c-.48815536-.48815536-.48815536-1.27961159 0-1.76776695.45561167-.45561167 1.1754321-.48598579 1.6662716-.09112233zM18 2.57116094c.6472087 0 1.1795339.49187466 1.2435464 1.12219476L19.25 3.82116094v1.89051187c0 .69035594-.5596441 1.25-1.25 1.25-.6472087 0-1.1795339-.49187466-1.2435464-1.12219476L16.75 5.71167281V3.82116094c0-.69035594.5596441-1.25 1.25-1.25z"/>
  </g>
</svg>
