<svg xmlns="http://www.w3.org/2000/svg" viewBox="0 0 24 26">
  <g fill="currentColor" fill-rule="nonzero">
    <path d="M12.437.75l-.708.004C5.532.83.937 1.89.937 4c0 2.19 4.949 3.25 11.5 3.25l.708-.004C19.342 7.17 23.937 6.11 23.937 4c0-2.19-4.949-3.25-11.5-3.25zm0 2c2.756 0 5.333.234 7.215.637l.286.064c.651.151 1.182.32 1.566.491l.12.058.036-.016c-.439.222-1.128.44-2.008.63-1.882.402-4.459.636-7.215.636-2.756 0-5.333-.234-7.215-.637l-.286-.064c-.651-.151-1.182-.32-1.566-.491L3.249 4l-.035.016c.439-.222 1.128-.44 2.008-.63 1.882-.402 4.459-.636 7.215-.636zM19.764 8.457a1 1 0 011.282 1.536c-1.46 1.219-6.407 1.873-11.398 1.63a1 1 0 01.096-1.997l.675.027c4.156.126 8.238-.425 9.268-1.138l.077-.058zM19.17 13.112a1 1 0 01.983 1.742 10.117 10.117 0 01-4.14 1.274 1 1 0 01-.165-1.994 8.117 8.117 0 003.321-1.022z"/>
    <path d="M22.937 3a1 1 0 011 1c0 1.856-.415 2.877-1.438 4.107l-.453.525c-1.387 1.612-1.786 3.305-1.12 7.977.402 2.805-.788 5.094-2.953 6.846-1.092.883-2.179 1.448-2.935 1.731-.79.297-1.55-.453-1.308-1.229l.038-.1c.018-.043.06-.165.105-.355.474-1.974-.113-4.261-2.716-6.538a14.992 14.992 0 00-1.874-1.384l-.36-.222C2.176 11.31.129 7.3.869 4.088c.05-.214.103-.377.15-.485a1 1 0 011.876.684l-.05.145a2.165 2.165 0 00-.027.104c-.174.754-.068 1.77.569 3.018.955 1.872 2.932 3.849 6.184 5.857l.38.232a17.463 17.463 0 012.523 1.815c2.559 2.24 3.572 4.641 3.548 6.874l-.003.077.049-.03c.11-.075.22-.153.328-.232l.32-.247c1.665-1.348 2.52-2.991 2.231-5.009-.724-5.072-.235-7.36 1.444-9.4l.422-.49c.86-.988 1.124-1.576 1.124-3.001a1 1 0 011-1z"/>
  </g>
</svg>
