<svg xmlns="http://www.w3.org/2000/svg" viewBox="0 0 21 18">
  <g fill="currentColor" fill-rule="nonzero">
    <path d="M10.822 1.959c3.134-1.494 5.349-1.536 9.615.63a1 1 0 11-.906 1.784c-3.578-1.818-5.158-1.845-7.615-.718l-.483.229c-3.39 1.62-5.775 1.72-10.571-.495A1 1 0 011.7 1.573c4.113 1.9 5.896 1.883 8.633.618l.49-.232z"/>
    <path d="M10.822 5.959c3.134-1.494 5.349-1.536 9.615.63a1 1 0 11-.906 1.784c-3.578-1.818-5.158-1.845-7.615-.718l-.483.229c-3.39 1.62-5.775 1.72-10.571-.495A1 1 0 011.7 5.573c4.113 1.9 5.896 1.883 8.633.618l.49-.232z"/>
    <path d="M10.822 9.959c3.134-1.494 5.349-1.536 9.615.63a1 1 0 11-.906 1.784c-3.578-1.818-5.158-1.845-7.615-.718l-.483.229c-3.39 1.62-5.775 1.72-10.571-.495A1 1 0 111.7 9.573c4.113 1.9 5.896 1.883 8.633.618l.49-.232z"/>
    <path d="M10.822 14.047c3.134-1.494 5.349-1.536 9.615.63a1 1 0 11-.906 1.784c-3.578-1.818-5.158-1.845-7.615-.718l-.483.228c-3.39 1.62-5.775 1.72-10.571-.494A1 1 0 111.7 13.66c4.113 1.9 5.896 1.882 8.633.617l.49-.231z"/>
  </g>
</svg>
