<svg xmlns="http://www.w3.org/2000/svg" viewBox="0 0 22 22">
  <g fill="none" fill-rule="evenodd">
    <path d="M0 0h22v22H0z"/>
    <path fill="currentColor" class="icon-stroke" d="M8.34370244 6.38544731c.87521618-2.38853403 3.30460286-3.92038228 5.90634706-3.59133706 2.9078318.36775642 5.0284355 2.93322943 4.8424479 5.85831731-.1859875 2.92508694-2.6144429 5.20131474-5.5445419 5.19782664l-2.0898021-.0005006-.9003333.9000671 1.7901354.0004257c.6330114 0 .9666561.7250568.5982931 1.2031085l-.067963.0772216-2.99999999 3c-.29289322.2928932-.76776695.2928932-1.06066017 0-.26626656-.2662666-.29047262-.6829303-.07261816-.9765418l.07261816-.0841184 1.71919466-1.7200956-1.78886458.0004257c-.63301134 0-.96665606-.7250567-.59829303-1.2031085l.06796295-.0772216 1.119528-1.1201627-1.78801694.0005006c-1.47357837.0023156-2.80479682-.8585274-3.41239341-2.1876063l-.07831423-.1841032c-.56518558-1.4331416-.19533395-3.06617525.93218596-4.11595064.85906279-.79982886 2.02447444-1.1368037 3.14514641-.95738121l.18805888.0356078zM6.96448353 14.9699163c.26626656.2662666.29047261.6829303.07261815.9765418l-.07261815.0841184-2.788 2.788c-.29289322.2928932-.76776696.2928932-1.06066018 0-.26626656-.2662666-.29047261-.6829303-.07261815-.9765418l.07261815-.0841184 2.788-2.788c.29289322-.2928932.76776696-.2928932 1.06066018 0zm10.11380207 0c.2662666.2662666.2904726.6829303.0726182.9765418l-.0726182.0841184-2.788 2.788c-.2928932.2928932-.7677669.2928932-1.0606602 0-.2662665-.2662666-.2904726-.6829303-.0726181-.9765418l.0726181-.0841184 2.788-2.788c.2928933-.2928932.767767-.2928932 1.0606602 0zM14.0618422 4.28225608c-2.1219313-.26836279-4.08675335 1.15953632-4.48671684 3.26064086l-.00126741.00650157c-.03301536.16546866-.05531861.33280627-.06680312.50015723l-.00923472.24726491c.00012251.08814514.00276447.17270937.00805344.25710768l.0238001.25257262c.12499394.9921575-1.36324232 1.17964841-1.48823626.1874909-.02899462-.230149-.04351712-.46189089-.04347657-.69660235a5.42841258 5.42841258 0 01.01538808-.38828954c-.704396-.15295818-1.45539583.04371785-2.00059822.55132755-.67603036.62941685-.89778336 1.60853959-.55891342 2.46781239.33886988.8592726 1.16925771 1.4234657 2.09411826 1.4220137h6.00089368c2.1388337.0025458 3.9109505-1.658486 4.0466712-3.79300922.1357207-2.13452358-1.4117469-4.00662551-3.5336782-4.2749883z"/>
  </g>
</svg>
