<svg xmlns="http://www.w3.org/2000/svg" viewBox="0 0 22 22">
  <g fill="none" fill-rule="evenodd">
    <path d="M0 0h22v22H0z"/>
    <path fill="currentColor" class="icon-stroke" d="M12.6440801 15.5120752c.2662665.2662666.2904726.6829303.0726181.9765418l-.0726181.0841184-3.37500001 3.375c-.29289322.2928932-.76776696.2928932-1.06066018 0-.26626656-.2662665-.29047261-.6829302-.07261815-.9765417l.07261815-.0841185 3.37499999-3.375c.2928932-.2928932.767767-.2928932 1.0606602 0zm3.375 0c.2662665.2662666.2904726.6829303.0726181.9765418l-.0726181.0841184-3.375 3.375c-.2928932.2928932-.767767.2928932-1.0606602 0-.2662665-.2662665-.2904726-.6829302-.0726181-.9765417l.0726181-.0841185 3.375-3.375c.2928932-.2928932.767767-.2928932 1.0606602 0zm3.9504551-5.4513479c.6832923 2.3273866-.3167907 4.8198821-2.4192676 6.0295133-.3590322.2065642-.8175386.0829645-1.0241029-.2760677-.2065642-.3590321-.0829645-.8175386.2760677-1.0241028 1.5017692-.8640223 2.2161142-2.6443762 1.7280483-4.3067952-.488066-1.66241899-2.051464-2.77405535-3.7819644-2.68912267-1.7305005.08493269-3.177529 1.34432031-3.5004589 3.04654287l-.001355.0069623c-.0305579.1531525-.0512011.3080348-.0618307.4627188l-.0086717.2285291c.0002912.0819321.0027268.1607194.0075501.2393603l.0216263.2353745c.1170067.9543928-1.2550211 1.1598599-1.4689141.2918635l-.01993869-.109333-.02217583-.2172051-.01336331-.2178801L9.676 11.5389053l.00718877-.2472882.00645148-.078996c-.63621186-.1236602-1.30638231.0586801-1.79570305.5142613-.61966941.5769421-.82293477 1.4744349-.51231656 2.2620698.31061816.7876347 1.07177627 1.3047908 1.91844838 1.3034576.41421305-.0006523.75052778.334605.75118008.7488181.0006522.414213-.33460507.7505278-.74881812.7511845-1.46355174.0023001-2.77928537-.891653-3.31621874-2.2531554-.53693385-1.3615036-.18556986-2.9129074.8855891-3.910208.81612112-.75984813 1.92327774-1.07997872 2.98793107-.90952496L9.998 9.74590533l.0272265-.07411792c.7033701-1.85024908 2.4069409-3.17142265 4.416382-3.35922629l.2331765-.01660552c2.4227006-.11890576 4.6114579 1.43738514 5.2947502 3.7647717zM6.21004088 1.80740307c2.62236627.01939688 4.82540292 1.97690312 5.15308122 4.57878841.0517567.41096729-.239441.78607923-.6504083.83783596-.4109672.05175673-.78607918-.23944097-.83783591-.65040826-.15314479-1.21602546-.88053083-2.23473981-1.89005535-2.79659539L7.899 3.73190533l.05997776.15264191C8.8086382 6.20148546 7.819808 8.81642652 5.61848828 9.98111727l-.20344275.10183713c-.25466962.1203943-.5178849.2181898-.78665371.2929939L4.502 10.4069053l.03747595.0191979.20831127.0913948c.38420092.1547984.57016843.5917436.41537008.9759445-.15479836.384201-.5917436.5701685-.97594452.4153701-.88897396-.3581764-1.66259864-.9534586-2.23658601-1.7209894-.40830713-.54598472.06468823-1.30945135.73536771-1.18696454.70751631.12921435 1.43773912.03338741 2.08794612-.27399586 1.73210631-.81889104 2.47256652-2.88676838 1.65654887-4.61359627-.18284915-.37904644-.43370906-.72131786-.74011439-1.00980666-.4964172-.46739004-.16213923-1.30107128.5196658-1.2960568z"/>
  </g>
</svg>
