<svg viewBox="0 0 30 30">
  <path d="M15 0c.5 0 .9.4.9.8v2c0 .5-.4.9-.9.9s-.9-.4-.9-.8v-2c0-.5.4-.9.9-.9zm10.6 4.4c.3.3.4.9.1 1.2l-.1.1L24.3 7c-.4.4-1 .4-1.3 0-.3-.3-.4-.9-.1-1.2l.1-.1 1.3-1.3c.3-.4.9-.4 1.3 0zm-20-.1L7 5.7c.4.4.4 1 0 1.3-.3.4-.8.4-1.2.1L5.7 7 4.4 5.7c-.4-.3-.4-.9 0-1.3.3-.3.9-.4 1.2-.1zm-2.8 9.8c.5 0 .9.4.9.9s-.4.9-.8.9h-2c-.5 0-.9-.4-.9-.9s.4-.9.8-.9h2zm26.3 0c.5 0 .9.4.9.9s-.4.9-.8.9h-2c-.5 0-.9-.4-.9-.9s.4-.9.8-.9h2zM15 7.5c-4.1 0-7.5 3.4-7.5 7.5s3.4 7.5 7.5 7.5 7.5-3.4 7.5-7.5-3.4-7.5-7.5-7.5zm0-1.9c5.2 0 9.4 4.2 9.4 9.4s-4.2 9.4-9.4 9.4-9.4-4.2-9.4-9.4S9.8 5.6 15 5.6zM7 23c.3.3.4.9.1 1.2l-.1.1-1.3 1.3c-.4.4-1 .4-1.3 0-.3-.3-.4-.9-.1-1.2l.1-.1L5.7 23c.4-.4 1-.4 1.3 0zm17.2-.1l1.4 1.4c.4.4.4 1 0 1.3-.3.3-.9.4-1.2.1l-.1-.1-1.3-1.3c-.4-.4-.4-1 0-1.3.3-.4.8-.4 1.2-.1zM15 26.2c.5 0 .9.4.9.8v2c0 .5-.4.9-.9.9s-.9-.4-.9-.8v-2c0-.4.4-.9.9-.9z" fill-rule="evenodd" clip-rule="evenodd" fill="#47cc5e"/>
</svg>
