<svg xmlns="http://www.w3.org/2000/svg" viewBox="0 0 22 22">
  <g fill="none" fill-rule="evenodd">
    <path d="M0 0h22v22H0z"/>
    <path fill="currentColor" class="icon-stroke" d="M11 17.15625c.3796958 0 .693491.2821539.7431534.6482294L11.75 17.90625v1.0625c0 .4142136-.3357864.75-.75.75-.3796958 0-.693491-.2821539-.7431534-.6482294L10.25 18.96875v-1.0625c0-.4142136.3357864-.75.75-.75zm5.3294617-1.8759482l.0841184.0726181.7515417.7515417c.2928932.2928932.2928932.7677669 0 1.0606602-.2662666.2662665-.6829303.2904726-.9765418.0726181l-.0841184-.0726181-.7515417-.7515417c-.2928932-.2928932-.2928932-.767767 0-1.0606602.2662666-.2662665.6829303-.2904726.9765418-.0726181zm-9.68238161.0726181c.26626656.2662666.29047261.6829303.07261815.9765418l-.07261815.0841184-.75154167.7515417c-.29289322.2928932-.76776695.2928932-1.06066017 0-.26626657-.2662666-.29047262-.6829303-.07261816-.9765418l.07261816-.0841184.75154166-.7515417c.29289322-.2928932.76776696-.2928932 1.06066018 0zM11 6.06818499c2.7237662 0 4.931815 2.20804879 4.931815 4.93181501 0 2.7237662-2.2080488 4.931815-4.931815 4.931815-2.72376622 0-4.93181501-2.2080488-4.93181501-4.931815 0-2.72376622 2.20804879-4.93181501 4.93181501-4.93181501zm0 1.5c-1.89533909 0-3.43181501 1.53647592-3.43181501 3.43181501 0 1.8953391 1.53647592 3.431815 3.43181501 3.431815 1.8953391 0 3.431815-1.5364759 3.431815-3.431815 0-1.89533909-1.5364759-3.43181501-3.431815-3.43181501zM18.96875 10.25c.4142136 0 .75.3357864.75.75 0 .3796958-.2821539.693491-.6482294.7431534L18.96875 11.75h-1.0625c-.4142136 0-.75-.3357864-.75-.75 0-.3796958.2821539-.693491.6482294-.7431534L17.90625 10.25h1.0625zm-14.875 0c.41421356 0 .75.3357864.75.75 0 .3796958-.28215388.693491-.64822944.7431534L4.09375 11.75h-1.0625c-.41421356 0-.75-.3357864-.75-.75 0-.3796958.28215388-.693491.64822944-.7431534L3.03125 10.25h1.0625zm1.71766999-5.48773991l.08411843.07261816.75154167.75154166c.29289321.29289322.29289321.76776696 0 1.06066018-.26626657.26626656-.68293025.29047261-.97654174.07261815l-.08411844-.07261815-.75154166-.75154167c-.29289322-.29289322-.29289322-.76776695 0-1.06066017.26626656-.26626657.68293024-.29047262.97654174-.07261816zm11.35370181.07261816c.2662665.26626656.2904726.68293024.0726181.97654174l-.0726181.08411843-.7515417.75154167c-.2928932.29289321-.767767.29289321-1.0606602 0-.2662665-.26626657-.2904726-.68293025-.0726181-.97654174l.0726181-.08411844.7515417-.75154166c.2928932-.29289322.7677669-.29289322 1.0606602 0zM11 2.28125c.3796958 0 .693491.28215388.7431534.64822944L11.75 3.03125v1.0625c0 .41421356-.3357864.75-.75.75-.3796958 0-.693491-.28215388-.7431534-.64822944L10.25 4.09375v-1.0625c0-.41421356.3357864-.75.75-.75z"/>
  </g>
</svg>
