<svg xmlns="http://www.w3.org/2000/svg" viewBox="0 0 22 22">
  <g fill="none" fill-rule="evenodd">
    <path d="M0 0h22v22H0z"/>
    <path fill="currentColor" class="icon-stroke" d="M9.49831678 15.1515151c.26626657.2662666.29047262.6829303.07261816.9765418l-.07261816.0841184-2.89940828 2.8994083c-.29289322.2928932-.76776695.2928932-1.06066017 0-.26626656-.2662666-.29047262-.6829303-.07261816-.9765418l.07261816-.0841184 2.89940828-2.8994083c.29289322-.2928932.76776696-.2928932 1.06066017 0zm4.11120102 0c.2662665.2662666.2904726.6829303.0726181.9765418l-.0726181.0841184-2.8994083 2.8994083c-.2928932.2928932-.76776695.2928932-1.06066017 0-.26626657-.2662666-.29047262-.6829303-.07261816-.9765418l.07261816-.0841184 2.89940827-2.8994083c.2928932-.2928932.767767-.2928932 1.0606602 0zM7.97379955 6.19900723c.84983542-2.31926795 3.20877125-3.8066935 5.73506645-3.4871904 2.8235064.3570917 4.8826138 2.8481675 4.7020197 5.68842954-.180594 2.84026123-2.5386255 5.05047963-5.3837274 5.04709273H7.22952271c-1.49924554.0023559-2.84706789-.9133993-3.39709624-2.3081067-.55002884-1.39470855-.19009562-2.98394868.90718725-4.00557193.83602505-.77837962 1.97018351-1.1063177 3.06080208-.93170683l.16197567.02985991zm5.54685915-1.99904457c-2.0376059-.25769807-3.92434602 1.11345643-4.30841499 3.1310632l-.00107386.00552817c-.03157027.15932453-.05296876.32041336-.06409419.48118314l-.00968419.23607638c.00070118.08582118.00323813.1670241.00831687.2480677l.02285408.24253323c.12499394.99215751-1.36324232 1.17964842-1.48823626.18749091-.02815392-.22347587-.04225535-.44849844-.0422115-.67747646a5.3341802 5.3341802 0 01.01359166-.35414793c-.66743942-.13741607-1.37485059.05162426-1.88995674.53121292-.64579332.60126471-.85762791 1.53659386-.53391471 2.35743368.32371313.8208397 1.11695997 1.3597979 2.00050686 1.3584109H13.028052c2.0538366.0024446 3.7555296-1.5925779 3.8858567-3.6422753.1303272-2.04969776-1.3556441-3.84740247-3.39325-4.10510054z"/>
  </g>
</svg>
