<svg xmlns="http://www.w3.org/2000/svg" viewBox="0 0 22 22"><g fill="none" fill-rule="evenodd"><path d="M0 0h22v22H0z"/><path d="M6.588 1.295a3.107 3.107 0 013.107 3.107v7.112l.063.066a4.286 4.286 0 01.907 4.204l-.073.209a4.286 4.286 0 11-7.174-4.413l.063-.066V4.402A3.107 3.107 0 016.411 1.3zm1.607 8.311H4.98l.001 2.222a.75.75 0 01-.176.483l-.074.076a2.786 2.786 0 103.714 0 .75.75 0 01-.25-.559V9.606zm-1.6 3.55a1.31 1.31 0 110 2.62 1.31 1.31 0 010-2.62zM14.43 4.68a.75.75 0 01.743.648l.007.102v1.535h1.485a.75.75 0 01.102 1.493l-.102.007h-1.486V9.95a.75.75 0 01-1.493.102l-.006-.102V8.464h-1.536a.75.75 0 01-.102-1.493l.102-.007h1.535V5.43a.75.75 0 01.75-.75zm-7.84-1.884c-.888 0-1.608.72-1.608 1.607v3.704h3.214V4.402c0-.838-.641-1.526-1.46-1.6z" fill="currentColor" class="icon-stroke"/></g></svg>