<svg xmlns="http://www.w3.org/2000/svg" viewBox="0 0 22 22">
  <g fill="none" fill-rule="evenodd">
    <path d="M0 0h22v22H0z"/>
    <path fill="currentColor" class="icon-stroke" d="M10.1110492 17.2226314c.5128358 0 .9355071.3860402.9932722.8833789l.0067278.1166211c0 .5128359-.3860402.9355072-.8833789.9932723l-.1166211.0067277c-.55228479 0-1.00000004-.4477152-1.00000004-1l.00401134-.0782628.00271639-.0383583c.05776511-.4973387.48043643-.8833789.99327231-.8833789zm3 0c.5128358 0 .9355071.3860402.9932722.8833789l.0067278.1166211c0 .5128359-.3860402.9355072-.8833789.9932723l-.1166211.0067277c-.5522848 0-1-.4477152-1-1l.0040113-.0782628.0027164-.0383583c.0577651-.4973387.4804364-.8833789.9932723-.8833789zm-1.5-2.5c.5516104 0 .9989065.4466226.999998.9979775.0000011.0006691.000002.0013457.000002.0020225 0 .5128359-.3860402.9355072-.8833789.9932723l-.1166211.0067277c-.5522848 0-1-.4477152-1-1l.0050113-.0942628.0017164-.0223583c.0577651-.4973387.4804364-.8833789.9932723-.8833789zm3 0c.5516104 0 .9989065.4466226.999998.9979775.0000011.0006691.000002.0013457.000002.0020225 0 .5128359-.3860402.9355072-.8833789.9932723l-.1166211.0067277c-.5522848 0-1-.4477152-1-1l.0050113-.0942628.0017164-.0223583c.0577651-.4973387.4804364-.8833789.9932723-.8833789zm4.450295-4.53576c.4845965 1.6506016.0374825 3.4232117-1.1472209 4.6449428-.2883524.2973648-.7631699.3046708-1.0605347.0163184-.2973647-.2883524-.3046707-.7631699-.0163183-1.0605346.810434-.835764 1.1163981-2.0487769.7848194-3.1781791-.4229905-1.44076309-1.7779355-2.40418127-3.2777025-2.33057294-1.499767.07360832-2.7538585 1.1650776-3.033731 2.64033714l-.001355.0069624c-.0264622.1326254-.0443386.2667488-.0535433.4007215l-.0086974.1935016.0028907.0954216c.0011807.0345707.0027549.0687121.004847.1028218l.0187603.2041827.002502.0485739.0052888.0731667c.0050985.8939474-1.37548216 1.0306011-1.49566864.0766035-.01654391-.1313197-.02758278-.2632454-.03309327-.3962432l-.00412197-.1976161.00000548-.0160763.00833723-.2074259c-.51823218-.0786539-1.05551886.0789759-1.45250205.4485864-.52573451.4894842-.69818713 1.2509272-.43465514 1.9191655.17892531.453701.53745046.8087981.98694087.9853047.38555294.1513995.57537179.5866855.42397227.9722384-.15139951.3855529-.58668547.5753718-.9722384.4239723-.83499062-.3278854-1.50159233-.9881134-1.83408314-1.8312106-.48984762-1.242107-.16929638-2.657461.80792768-3.5673037.72005982-.67041044 1.68845223-.96562202 2.62993957-.84365924l.15135571.02452228.0105088-.02613654c.6415087-1.65841147 2.1732159-2.84148493 3.9789212-3.01292485l.2179605-.01568263c2.1919671-.1075814 4.1722714 1.30049132 4.7904882 3.40622208zM6.75133967 2.77739108c2.37275432.01755274 4.36609323 1.78873224 4.66258123 4.14295508.0517567.41096729-.239441.78607923-.6504083.83783596-.4109673.05175672-.78607919-.23944097-.83783592-.65040827-.12465046-.98977009-.68831361-1.82869404-1.48123588-2.33039547l-.03397534-.02098504.04912237.14745917c.62711473 2.03639133-.26976458 4.27054445-2.18500982 5.29037369l-.19490036.0978829c-.15377965.0726988-.31099944.1363003-.47085636.1906991l-.13235583.0405851c.35780472.1442412.54341778.5232215.45267341.881332l-.03168278.0969553c-.15479836.3842009-.5917436.5701684-.97594452.41537-.80434615-.324079-1.50432394-.8626921-2.02366934-1.5571561-.40830714-.54598467.06468823-1.3094513.73536771-1.1869645.61176145.11172656 1.24315631.02886878 1.80536279-.23691253 1.49804688-.70823433 2.13844875-2.49667953 1.43304886-3.9894296-.15810245-.3277465-.37501112-.6236951-.63994772-.87313999-.4964172-.46739004-.16213923-1.30107128.5196658-1.2960568z"/>
  </g>
</svg>
