<svg xmlns="http://www.w3.org/2000/svg" viewBox="0 0 24 23">
  <g fill="currentColor" fill-rule="nonzero">
    <path d="M9.147 4.755C10.32 1.81 13.337-.088 16.614.21c3.687.335 6.541 3.347 6.637 7.047A7.066 7.066 0 0120.209 13a1 1 0 11-1.143-1.641c1.353-.942 2.172-2.47 2.185-4.083-.069-2.648-2.137-4.83-4.818-5.074-2.683-.244-5.123 1.53-5.68 4.124a1 1 0 01-1.404.694 3.034 3.034 0 00-1.28-.287c-1.36-.016-2.538.903-2.846 2.184a1 1 0 01-1.944-.466c.525-2.189 2.519-3.746 4.808-3.718.274.002.547.025.816.07l.209.042.035-.09zM13.25 13.75a1 1 0 01.117 1.994l-.117.006H1a1 1 0 01-.117-1.993L1 13.75h12.25z"/>
    <path d="M15.25 10.5a1 1 0 01.117 1.993l-.117.007H7a1 1 0 01-.117-1.993L7 10.5h8.25zM18.25 17a1 1 0 01.117 1.994l-.117.007H6a1 1 0 01-.117-1.994L6 17.001h12.25zM10.25 20.251a1 1 0 01.117 1.993l-.117.007H1a1 1 0 01-.117-1.993L1 20.25h9.25z"/>
  </g>
</svg>
