<svg xmlns="http://www.w3.org/2000/svg" viewBox="0 0 25 27">
  <path fill="#51C141" fill-rule="evenodd" d="M10.001 19.755c.338.338.364.87.078 1.237l-.078.088-4.687 4.688A.938.938 0 013.91 24.53l.078-.088 4.687-4.687a.938.938 0 011.326 0zm11.25 0c.338.338.364.87.078 1.237l-.078.088-4.687 4.688a.938.938 0 01-1.404-1.238l.078-.088 4.687-4.687a.938.938 0 011.326 0zm-5.625 0c.338.338.364.87.078 1.237l-.078.088-2.812 2.813a.938.938 0 01-1.404-1.238l.078-.088 2.812-2.812a.938.938 0 011.326 0zm-11.25 0c.338.338.364.87.078 1.237l-.078.088-2.812 2.813A.938.938 0 01.16 22.655l.078-.088 2.812-2.812a.938.938 0 011.326 0zM7.95 6.368A8.44 8.44 0 0124.33 9.703a8.437 8.437 0 01-8.43 7.902H6.528A5.619 5.619 0 117.8 6.515l.091.024zm8.784-3.711a6.563 6.563 0 00-7.27 5.283l-.001.007c-.06.303-.099.61-.115.915l-.01.3c.001.188.009.371.024.553l.029.273c.156 1.24-1.704 1.474-1.86.234a8.411 8.411 0 01-.06-.704l-.007-.35.012-.403c.007-.13.017-.26.03-.39a3.743 3.743 0 10-.98 7.355h9.377a6.563 6.563 0 00.831-13.073z"/>
</svg>
