<svg xmlns="http://www.w3.org/2000/svg" viewBox="0 0 24 27">
  <g fill="#51C141" fill-rule="nonzero">
    <path d="M6.76 6.687a1 1 0 111.959.404 5.899 5.899 0 00-.113.864l-.009.283c0 .178.008.351.023.523l.028.258c.173 1.322-1.81 1.582-1.983.26a7.935 7.935 0 01-.038-.344l-.022-.346-.008-.351.012-.39c.015-.26.042-.519.082-.776l.07-.385z"/>
    <path d="M7.056 5.603l-.102-.024c-1.803-.392-3.725.083-5.122 1.333-1.73 1.547-2.3 3.968-1.429 6.092.866 2.11 2.975 3.486 5.311 3.482h9.422c4.499.006 8.242-3.365 8.53-7.717.288-4.355-2.986-8.16-7.455-8.704-4.024-.489-7.79 1.817-9.11 5.413l-.045.125zm8.914-3.552c3.43.416 5.917 3.307 5.7 6.586-.217 3.283-3.07 5.853-6.533 5.85H5.713c-1.535.002-2.906-.893-3.46-2.243-.548-1.335-.19-2.856.913-3.842 1.118-1 2.77-1.242 4.155-.605a1 1 0 001.4-.714c.64-3.236 3.812-5.45 7.25-5.032zM6.775 18.86c.785 0 1.437.627 1.437 1.42a1 1 0 01-1.844.536l-.032-.058a1 1 0 01-.554-.782l-.007-.116a1 1 0 011-1z"/>
    <path d="M6.775 18.86a1 1 0 01.546 1.837l-.108.061-.031.058a1 1 0 01-.728.457l-.117.007a1 1 0 01-1-1c0-.793.653-1.42 1.438-1.42z"/>
    <path d="M6.337 19.28a1 1 0 01.845.464l.033.058a1 1 0 01-.44 1.898 1.429 1.429 0 01-1.438-1.42 1 1 0 011-1z"/>
    <path d="M7.212 19.28a1 1 0 011 1c0 .794-.652 1.42-1.437 1.42a1 1 0 01-.44-1.898l.033-.058a1 1 0 01.844-.464zM12.025 18.86c.785 0 1.437.627 1.437 1.42a1 1 0 01-1.844.536l-.032-.058a1 1 0 01-.554-.782l-.007-.116a1 1 0 011-1z"/>
    <path d="M12.025 18.86a1 1 0 01.546 1.837l-.108.061-.031.058a1 1 0 01-.728.457l-.117.007a1 1 0 01-1-1c0-.793.653-1.42 1.438-1.42z"/>
    <path d="M11.587 19.28a1 1 0 01.845.464l.033.058a1 1 0 01-.44 1.898 1.429 1.429 0 01-1.438-1.42 1 1 0 011-1z"/>
    <path d="M12.462 19.28a1 1 0 011 1c0 .794-.652 1.42-1.437 1.42a1 1 0 01-.44-1.898l.033-.058a1 1 0 01.844-.464zM17.275 18.86c.785 0 1.437.627 1.437 1.42a1 1 0 01-1.844.536l-.032-.058a1 1 0 01-.554-.782l-.007-.116a1 1 0 011-1z"/>
    <path d="M17.275 18.86a1 1 0 01.546 1.837l-.108.061-.031.058a1 1 0 01-.728.457l-.117.007a1 1 0 01-1-1c0-.793.653-1.42 1.438-1.42z"/>
    <path d="M16.837 19.28a1 1 0 01.845.464l.033.058a1 1 0 01-.44 1.898 1.429 1.429 0 01-1.438-1.42 1 1 0 011-1z"/>
    <path d="M17.712 19.28a1 1 0 011 1c0 .794-.652 1.42-1.437 1.42a1 1 0 01-.44-1.898l.033-.058a1 1 0 01.844-.464zM5.025 23.904c.785 0 1.437.627 1.437 1.42a1 1 0 01-1.844.536l-.032-.058-.097-.054a1 1 0 01-.457-.727l-.007-.117a1 1 0 011-1z"/>
    <path d="M5.025 23.904a1 1 0 01.536 1.844l-.098.054-.031.058a1 1 0 01-.728.458l-.117.006a1 1 0 01-1-1c0-.793.653-1.42 1.438-1.42z"/>
    <path d="M4.587 24.324a1 1 0 01.845.464l.033.058a1 1 0 01-.44 1.899 1.429 1.429 0 01-1.438-1.42 1 1 0 011-1z"/>
    <path d="M5.462 24.324a1 1 0 011 1c0 .794-.652 1.42-1.437 1.42a1 1 0 01-.44-1.898l.033-.058a1 1 0 01.844-.464zM10.275 23.904c.785 0 1.437.627 1.437 1.42a1 1 0 01-1.844.536l-.032-.058-.097-.054a1 1 0 01-.457-.727l-.007-.117a1 1 0 011-1z"/>
    <path d="M10.275 23.904a1 1 0 01.536 1.844l-.098.054-.031.058a1 1 0 01-.728.458l-.117.006a1 1 0 01-1-1c0-.793.653-1.42 1.438-1.42z"/>
    <path d="M9.837 24.324a1 1 0 01.845.464l.033.058a1 1 0 01-.44 1.899 1.429 1.429 0 01-1.438-1.42 1 1 0 011-1z"/>
    <path d="M10.712 24.324a1 1 0 011 1c0 .794-.652 1.42-1.437 1.42a1 1 0 01-.44-1.898l.033-.058a1 1 0 01.844-.464zM15.525 23.904c.785 0 1.437.627 1.437 1.42a1 1 0 01-1.844.536l-.032-.058-.097-.054a1 1 0 01-.457-.727l-.007-.117a1 1 0 011-1z"/>
    <path d="M15.525 23.904a1 1 0 01.536 1.844l-.098.054-.031.058a1 1 0 01-.728.458l-.117.006a1 1 0 01-1-1c0-.793.653-1.42 1.438-1.42z"/>
    <path d="M15.087 24.324a1 1 0 01.845.464l.033.058a1 1 0 01-.44 1.899 1.429 1.429 0 01-1.438-1.42 1 1 0 011-1z"/>
    <path d="M15.962 24.324a1 1 0 011 1c0 .794-.652 1.42-1.437 1.42a1 1 0 01-.44-1.898l.033-.058a1 1 0 01.844-.464z"/>
  </g>
</svg>
