<svg xmlns="http://www.w3.org/2000/svg" viewBox="0 0 22 22">
  <g fill="none" fill-rule="evenodd">
    <path fill="currentColor" class="icon-stroke" d="M9.93976959 15.6069264c.26626651.2662666.29047261.6829303.07261811.9765418l-.07261811.0841184-2.87179488 2.8717949c-.29289321.2928932-.76776695.2928932-1.06066017 0-.26626656-.2662666-.29047261-.6829303-.07261815-.9765417l.07261815-.0841185 2.87179487-2.8717949c.29289322-.2928932.76776696-.2928932 1.06066018 0zm7.23365381 0c.2662666.2662666.2904726.6829303.0726182.9765418l-.0726182.0841184-2.8717948 2.8717949c-.2928933.2928932-.767767.2928932-1.0606602 0-.2662666-.2662666-.2904726-.6829303-.0726182-.9765417l.0726182-.0841185 2.8717949-2.8717949c.2928932-.2928932.7677669-.2928932 1.0606601 0zm-3.7168269 0c.2662666.2662666.2904726.6829303.0726182.9765418l-.0726182.0841184-1.7230769 1.7230769c-.2928932.2928933-.767767.2928933-1.0606602 0-.2662665-.2662665-.2904726-.6829302-.0726181-.9765417l.0726181-.0841184 1.7230769-1.723077c.2928933-.2928932.767767-.2928932 1.0606602 0zm-7.23365384 0c.26626657.2662666.29047262.6829303.07261816.9765418l-.07261816.0841184-1.72307692 1.7230769c-.29289322.2928933-.76776695.2928933-1.06066017 0-.26626656-.2662665-.29047262-.6829302-.07261815-.9765417l.07261815-.0841184 1.72307692-1.723077c.29289322-.2928932.76776695-.2928932 1.06066017 0zm2.20315832-8.88657642c.8496626-2.28770009 3.18234602-3.75256027 5.67996282-3.43668416 2.8003582.35416413 4.8425843 2.82481716 4.6634708 5.64179368-.1791134 2.8169757-2.5178129 5.0090739-5.3395823 5.0057148H7.68754356c-1.48790453.0023381-2.82553132-.9064899-3.37139899-2.2906471-.54586816-1.38415833-.18865765-2.9613767.90032486-3.97527191.82970096-.77249159 1.95528011-1.09794899 3.03764874-.92465896l.15408415.02841932zm5.49175552-1.94853833c-2.0144577-.2547705-3.8797636 1.10080704-4.25946939 3.09549286l-.00107386.00552817c-.03121079.15751034-.05236562.31676489-.06336433.47569142l-.0097466.23349155c.00086595.08471263.00337408.16499284.00839511.24511555l.02259439.23977732c.12499393.9921575-1.36324232 1.17964841-1.48823626.1874909-.02792315-.22164403-.04190899-.44482208-.04186541-.67195377a5.2905287 5.2905287 0 01.01303839-.34503398c-.65765912-.13303366-1.35283723.05392796-1.85952325.52567707-.63749296.59353667-.84660484 1.51684407-.52705232 2.32713366.31955246.8102895 1.10260373 1.3423205 1.97480961 1.3409513H13.430846c2.0305041.0024168 3.7128651-1.5744854 3.8417116-3.60089737.1288466-2.02641223-1.3402434-3.80369418-3.3547011-4.05846468z"/>
  </g>
</svg>
