<svg xmlns="http://www.w3.org/2000/svg" viewBox="0 0 22 22">
  <g fill="none" fill-rule="evenodd">
    <path d="M0 0h22v22H0z"/>
    <path fill="currentColor" class="icon-stroke" d="M7.67541378 4.06493467c.58819905-.27111934 1.22036263.28062117 1.03128009.90008191-.59655479 1.95439667-.23139923 4.07588181.98425832 5.71835572 1.21565751 1.642474 3.13790451 2.6114965 5.18108591 2.6119511.9299232-.0000824 1.8486634-.2027689 2.692303-.5939584.5884426-.2728565 1.2223496.2793599 1.0327412.8996533-1.0673596 3.4918064-4.3776509 5.806268-8.0236645 5.6099183-3.64601358-.1963497-6.68859777-2.8529344-7.37478144-6.4391748-.68618367-3.58624045 1.16078254-7.1783814 4.47677742-8.70682713zm-.72923783 2.20553157l-.10684932.08806539C5.09641131 7.83234849 4.22662338 10.1626402 4.67191036 12.4898686c.55660872 2.9090356 3.02464894 5.0639662 5.98217044 5.2232384 2.3660172.1274178 4.5577455-1.0486424 5.7830886-2.9743694l.0700066-.1162714-.269339.0538112c-.3372733.059214-.6786416.0965475-1.0219813.1115305l-.343918.0075155c-2.5187819-.0005604-4.88820825-1.1950102-6.38666873-3.219579C7.346439 10.0370722 6.81314029 8.1573587 6.94554729 6.28620633l.00062866-.01574009zm10.14021425.382c.3796958 0 .693491.28215388.7431534.64822944l.0068466.10177056-.0009233.357.3580662.00014286c.4142136 0 .75.33578644.75.75 0 .37969576-.2821539.69349096-.6482294.74315338l-.1017706.00684662-.3580662-.00014286.0009233.35728572c0 .41421354-.3357864.75000004-.75.75000004-.3796957 0-.6934909-.2821539-.7431533-.64822949l-.0068467-.10177055-.0009233-.35728572-.3562195.00014286c-.4142136 0-.75-.33578644-.75-.75 0-.37969577.2821539-.69349096.6482294-.74315339l.1017706-.00684661.3562195-.00014286.0009233-.357c0-.41421356.3357865-.75.75-.75zm-4.4285714-3.875c.3796958 0 .693491.28215388.7431534.64822944l.0068466.10177056-.0003519.91.9110662.00071429c.4142136 0 .75.33578644.75.75 0 .37969576-.2821539.69349096-.6482294.74315338l-.1017706.00684662-.9110662-.00071429.0003519.91142857c0 .41421357-.3357864.75-.75.75-.3796958 0-.693491-.28215388-.7431534-.64822944l-.0068466-.10177056-.0003519-.91142857-.9103624.00071429c-.4142135 0-.75-.33578644-.75-.75 0-.37969577.2821539-.69349096.6482295-.74315339l.1017705-.00684661.9103624-.00071429.0003519-.91c0-.41421356.3357864-.75.75-.75z"/>
  </g>
</svg>
