<svg xmlns="http://www.w3.org/2000/svg" viewBox="0 0 24 25">
  <g fill="currentColor" fill-rule="nonzero">
    <path d="M6.777 7.006a1 1 0 011.903.604l-.035.11c-.054.143-.081.28-.083.407 0 .06.005.12.015.181l.019.092c.315 1.296-1.628 1.768-1.943.473a3.168 3.168 0 01-.09-.756c.003-.377.076-.75.214-1.11z"/>
    <path d="M6.887 5.293C8.179 1.816 11.832-.41 15.735.063c3.495.424 6.313 2.921 7.068 6.2a1 1 0 11-1.949.45c-.565-2.453-2.695-4.341-5.36-4.664-3.313-.402-6.369 1.727-6.986 4.837a1 1 0 01-1.399.714c-1.33-.611-2.917-.38-3.991.58-1.057.943-1.4 2.397-.875 3.673.507 1.233 1.729 2.07 3.121 2.142l.2.005h4.43a1 1 0 01.116 1.993L9.994 16H5.566c-2.275.003-4.33-1.334-5.173-3.386-.85-2.066-.293-4.421 1.393-5.927 1.36-1.214 3.232-1.675 4.987-1.295l.072.016.042-.115z"/>
    <path d="M18.5 9a5.5 5.5 0 100 11 5.5 5.5 0 000-11zm0 2a3.5 3.5 0 110 7 3.5 3.5 0 010-7zM10.5 18a3.5 3.5 0 100 7 3.5 3.5 0 000-7zm0 2a1.5 1.5 0 110 3 1.5 1.5 0 010-3z"/>
  </g>
</svg>
